<?xml version="1.0" encoding="UTF-8" standalone="no"?>
<!DOCTYPE svg PUBLIC "-//W3C//DTD SVG 1.1//EN"
 "http://www.w3.org/Graphics/SVG/1.1/DTD/svg11.dtd">
<!-- Generated by graphviz version 12.1.2 (20240928.0832)
 -->
<!-- Title: /Users/felixschulke/Developement/Arduino/Modbus_RTU/Modbus_RTU/Modbus&#45;RTU/lib/Frame/CharArray.h Pages: 1 -->
<svg width="799pt" height="551pt"
 viewBox="0.00 0.00 799.38 551.00" xmlns="http://www.w3.org/2000/svg" xmlns:xlink="http://www.w3.org/1999/xlink">
<g id="graph0" class="graph" transform="scale(1 1) rotate(0) translate(4 547)">
<title>/Users/felixschulke/Developement/Arduino/Modbus_RTU/Modbus_RTU/Modbus&#45;RTU/lib/Frame/CharArray.h</title>
<!-- Node1 -->
<g id="Node000001" class="node">
<title>Node1</title>
<g id="a_Node000001"><a xlink:title=" ">
<polygon fill="#999999" stroke="#666666" points="328.5,-543 153.5,-543 153.5,-490 328.5,-490 328.5,-543"/>
<text text-anchor="start" x="161.5" y="-529.5" font-family="Helvetica,sans-Serif" font-size="10.00">/Users/felixschulke</text>
<text text-anchor="start" x="161.5" y="-518.25" font-family="Helvetica,sans-Serif" font-size="10.00">/Developement/Arduino</text>
<text text-anchor="start" x="161.5" y="-507" font-family="Helvetica,sans-Serif" font-size="10.00">/Modbus_RTU/Modbus_RTU</text>
<text text-anchor="middle" x="241" y="-495.75" font-family="Helvetica,sans-Serif" font-size="10.00">/Modbus&#45;RTU/lib/Frame/CharArray.h</text>
</a>
</g>
</g>
<!-- Node2 -->
<g id="Node000002" class="node">
<title>Node2</title>
<g id="a_Node000002"><a xlink:href="_char_array_8cpp.html" target="_top" xlink:title=" ">
<polygon fill="white" stroke="#666666" points="212.75,-454 27.25,-454 27.25,-401 212.75,-401 212.75,-454"/>
<text text-anchor="start" x="35.25" y="-440.5" font-family="Helvetica,sans-Serif" font-size="10.00">/Users/felixschulke</text>
<text text-anchor="start" x="35.25" y="-429.25" font-family="Helvetica,sans-Serif" font-size="10.00">/Developement/Arduino</text>
<text text-anchor="start" x="35.25" y="-418" font-family="Helvetica,sans-Serif" font-size="10.00">/Modbus_RTU/Modbus_RTU</text>
<text text-anchor="middle" x="120" y="-406.75" font-family="Helvetica,sans-Serif" font-size="10.00">/Modbus&#45;RTU/lib/Frame/CharArray.cpp</text>
</a>
</g>
</g>
<!-- Node1&#45;&gt;Node2 -->
<g id="edge1_Node000001_Node000002" class="edge">
<title>Node1&#45;&gt;Node2</title>
<g id="a_edge1_Node000001_Node000002"><a xlink:title=" ">
<path fill="none" stroke="#63b8ff" d="M195.71,-482.93C182.61,-473.52 168.5,-463.37 156.05,-454.42"/>
<polygon fill="#63b8ff" stroke="#63b8ff" points="193.63,-485.75 203.79,-488.75 197.72,-480.07 193.63,-485.75"/>
</a>
</g>
</g>
<!-- Node3 -->
<g id="Node000003" class="node">
<title>Node3</title>
<g id="a_Node000003"><a xlink:href="_frame_8h.html" target="_top" xlink:title=" ">
<polygon fill="white" stroke="#666666" points="506,-454 346,-454 346,-401 506,-401 506,-454"/>
<text text-anchor="start" x="354" y="-440.5" font-family="Helvetica,sans-Serif" font-size="10.00">/Users/felixschulke</text>
<text text-anchor="start" x="354" y="-429.25" font-family="Helvetica,sans-Serif" font-size="10.00">/Developement/Arduino</text>
<text text-anchor="start" x="354" y="-418" font-family="Helvetica,sans-Serif" font-size="10.00">/Modbus_RTU/Modbus_RTU</text>
<text text-anchor="middle" x="426" y="-406.75" font-family="Helvetica,sans-Serif" font-size="10.00">/Modbus&#45;RTU/lib/Frame/Frame.h</text>
</a>
</g>
</g>
<!-- Node1&#45;&gt;Node3 -->
<g id="edge2_Node000001_Node000003" class="edge">
<title>Node1&#45;&gt;Node3</title>
<g id="a_edge2_Node000001_Node000003"><a xlink:title=" ">
<path fill="none" stroke="#63b8ff" d="M306.44,-484.73C327.56,-474.79 350.74,-463.89 371.03,-454.35"/>
<polygon fill="#63b8ff" stroke="#63b8ff" points="305.18,-481.45 297.63,-488.87 308.16,-487.78 305.18,-481.45"/>
</a>
</g>
</g>
<!-- Node12 -->
<g id="Node000012" class="node">
<title>Node12</title>
<g id="a_Node000012"><a xlink:href="_comm_interface_8h.html" target="_top" xlink:title=" ">
<polygon fill="white" stroke="#666666" points="235.75,-365 92.25,-365 92.25,-300.75 235.75,-300.75 235.75,-365"/>
<text text-anchor="start" x="100.25" y="-351.5" font-family="Helvetica,sans-Serif" font-size="10.00">/Users/felixschulke</text>
<text text-anchor="start" x="100.25" y="-340.25" font-family="Helvetica,sans-Serif" font-size="10.00">/Developement/Arduino</text>
<text text-anchor="start" x="100.25" y="-329" font-family="Helvetica,sans-Serif" font-size="10.00">/Modbus_RTU/Modbus_RTU</text>
<text text-anchor="start" x="100.25" y="-317.75" font-family="Helvetica,sans-Serif" font-size="10.00">/Modbus&#45;RTU/lib/Interface</text>
<text text-anchor="middle" x="164" y="-306.5" font-family="Helvetica,sans-Serif" font-size="10.00">/CommInterface.h</text>
</a>
</g>
</g>
<!-- Node1&#45;&gt;Node12 -->
<g id="edge13_Node000001_Node000012" class="edge">
<title>Node1&#45;&gt;Node12</title>
<g id="a_edge13_Node000001_Node000012"><a xlink:title=" ">
<path fill="none" stroke="#63b8ff" d="M239.93,-478.33C238.05,-455.15 233.37,-425.24 222,-401 215.98,-388.17 206.8,-375.89 197.5,-365.43"/>
<polygon fill="#63b8ff" stroke="#63b8ff" points="236.43,-478.5 240.58,-488.25 243.42,-478.05 236.43,-478.5"/>
</a>
</g>
</g>
<!-- Node4 -->
<g id="Node000004" class="node">
<title>Node4</title>
<g id="a_Node000004"><a xlink:href="_frame_8cpp.html" target="_top" xlink:title=" ">
<polygon fill="white" stroke="#666666" points="624.25,-359.38 453.75,-359.38 453.75,-306.38 624.25,-306.38 624.25,-359.38"/>
<text text-anchor="start" x="461.75" y="-345.88" font-family="Helvetica,sans-Serif" font-size="10.00">/Users/felixschulke</text>
<text text-anchor="start" x="461.75" y="-334.62" font-family="Helvetica,sans-Serif" font-size="10.00">/Developement/Arduino</text>
<text text-anchor="start" x="461.75" y="-323.38" font-family="Helvetica,sans-Serif" font-size="10.00">/Modbus_RTU/Modbus_RTU</text>
<text text-anchor="middle" x="539" y="-312.12" font-family="Helvetica,sans-Serif" font-size="10.00">/Modbus&#45;RTU/lib/Frame/Frame.cpp</text>
</a>
</g>
</g>
<!-- Node3&#45;&gt;Node4 -->
<g id="edge3_Node000003_Node000004" class="edge">
<title>Node3&#45;&gt;Node4</title>
<g id="a_edge3_Node000003_Node000004"><a xlink:title=" ">
<path fill="none" stroke="#63b8ff" d="M466.13,-393.61C479.64,-382.53 494.53,-370.33 507.3,-359.86"/>
<polygon fill="#63b8ff" stroke="#63b8ff" points="464.16,-390.69 458.65,-399.74 468.6,-396.11 464.16,-390.69"/>
</a>
</g>
</g>
<!-- Node5 -->
<g id="Node000005" class="node">
<title>Node5</title>
<g id="a_Node000005"><a xlink:href="_service_interface_8h.html" target="_top" xlink:title=" ">
<polygon fill="white" stroke="#666666" points="403.75,-264.75 260.25,-264.75 260.25,-200.5 403.75,-200.5 403.75,-264.75"/>
<text text-anchor="start" x="268.25" y="-251.25" font-family="Helvetica,sans-Serif" font-size="10.00">/Users/felixschulke</text>
<text text-anchor="start" x="268.25" y="-240" font-family="Helvetica,sans-Serif" font-size="10.00">/Developement/Arduino</text>
<text text-anchor="start" x="268.25" y="-228.75" font-family="Helvetica,sans-Serif" font-size="10.00">/Modbus_RTU/Modbus_RTU</text>
<text text-anchor="start" x="268.25" y="-217.5" font-family="Helvetica,sans-Serif" font-size="10.00">/Modbus&#45;RTU/lib/Interface</text>
<text text-anchor="middle" x="332" y="-206.25" font-family="Helvetica,sans-Serif" font-size="10.00">/ServiceInterface.h</text>
</a>
</g>
</g>
<!-- Node3&#45;&gt;Node5 -->
<g id="edge4_Node000003_Node000005" class="edge">
<title>Node3&#45;&gt;Node5</title>
<g id="a_edge4_Node000003_Node000005"><a xlink:title=" ">
<path fill="none" stroke="#63b8ff" d="M426.89,-389.46C426.03,-363.25 421.74,-328.04 407,-300.75 399.69,-287.22 388.54,-275.06 377.06,-264.93"/>
<polygon fill="#63b8ff" stroke="#63b8ff" points="423.39,-389.36 427.05,-399.3 430.39,-389.25 423.39,-389.36"/>
</a>
</g>
</g>
<!-- Node9 -->
<g id="Node000009" class="node">
<title>Node9</title>
<g id="a_Node000009"><a xlink:href="_frame__modbus_r_t_u_8h.html" target="_top" xlink:title=" ">
<polygon fill="white" stroke="#666666" points="791.38,-365 642.62,-365 642.62,-300.75 791.38,-300.75 791.38,-365"/>
<text text-anchor="start" x="650.62" y="-351.5" font-family="Helvetica,sans-Serif" font-size="10.00">/Users/felixschulke</text>
<text text-anchor="start" x="650.62" y="-340.25" font-family="Helvetica,sans-Serif" font-size="10.00">/Developement/Arduino</text>
<text text-anchor="start" x="650.62" y="-329" font-family="Helvetica,sans-Serif" font-size="10.00">/Modbus_RTU/Modbus_RTU</text>
<text text-anchor="start" x="650.62" y="-317.75" font-family="Helvetica,sans-Serif" font-size="10.00">/Modbus&#45;RTU/lib/ModbusRTU</text>
<text text-anchor="middle" x="717" y="-306.5" font-family="Helvetica,sans-Serif" font-size="10.00">/Frame_modbusRTU.h</text>
</a>
</g>
</g>
<!-- Node3&#45;&gt;Node9 -->
<g id="edge8_Node000003_Node000009" class="edge">
<title>Node3&#45;&gt;Node9</title>
<g id="a_edge8_Node000003_Node000009"><a xlink:title=" ">
<path fill="none" stroke="#63b8ff" d="M517.06,-400.86C553.31,-390.28 595.29,-377.57 633,-365 636.1,-363.97 639.25,-362.89 642.44,-361.79"/>
<polygon fill="#63b8ff" stroke="#63b8ff" points="516.09,-397.49 507.46,-403.64 518.04,-404.22 516.09,-397.49"/>
</a>
</g>
</g>
<!-- Node11 -->
<g id="Node000011" class="node">
<title>Node11</title>
<g id="a_Node000011"><a xlink:href="_service_cluster_8h.html" target="_top" xlink:title=" ">
<polygon fill="white" stroke="#666666" points="397.75,-365 254.25,-365 254.25,-300.75 397.75,-300.75 397.75,-365"/>
<text text-anchor="start" x="262.25" y="-351.5" font-family="Helvetica,sans-Serif" font-size="10.00">/Users/felixschulke</text>
<text text-anchor="start" x="262.25" y="-340.25" font-family="Helvetica,sans-Serif" font-size="10.00">/Developement/Arduino</text>
<text text-anchor="start" x="262.25" y="-329" font-family="Helvetica,sans-Serif" font-size="10.00">/Modbus_RTU/Modbus_RTU</text>
<text text-anchor="start" x="262.25" y="-317.75" font-family="Helvetica,sans-Serif" font-size="10.00">/Modbus&#45;RTU/lib/Service</text>
<text text-anchor="middle" x="326" y="-306.5" font-family="Helvetica,sans-Serif" font-size="10.00">/ServiceCluster.h</text>
</a>
</g>
</g>
<!-- Node3&#45;&gt;Node11 -->
<g id="edge11_Node000003_Node000011" class="edge">
<title>Node3&#45;&gt;Node11</title>
<g id="a_edge11_Node000003_Node000011"><a xlink:title=" ">
<path fill="none" stroke="#63b8ff" d="M389.86,-393.02C380.15,-384.04 369.7,-374.35 360.11,-365.47"/>
<polygon fill="#63b8ff" stroke="#63b8ff" points="387.32,-395.44 397.03,-399.67 392.08,-390.31 387.32,-395.44"/>
</a>
</g>
</g>
<!-- Node6 -->
<g id="Node000006" class="node">
<title>Node6</title>
<g id="a_Node000006"><a xlink:href="_service_interface__modbus_r_t_u_8h.html" target="_top" xlink:title=" ">
<polygon fill="white" stroke="#666666" points="411.62,-164.5 252.38,-164.5 252.38,-100.25 411.62,-100.25 411.62,-164.5"/>
<text text-anchor="start" x="260.38" y="-151" font-family="Helvetica,sans-Serif" font-size="10.00">/Users/felixschulke</text>
<text text-anchor="start" x="260.38" y="-139.75" font-family="Helvetica,sans-Serif" font-size="10.00">/Developement/Arduino</text>
<text text-anchor="start" x="260.38" y="-128.5" font-family="Helvetica,sans-Serif" font-size="10.00">/Modbus_RTU/Modbus_RTU</text>
<text text-anchor="start" x="260.38" y="-117.25" font-family="Helvetica,sans-Serif" font-size="10.00">/Modbus&#45;RTU/lib/ModbusRTU</text>
<text text-anchor="middle" x="332" y="-106" font-family="Helvetica,sans-Serif" font-size="10.00">/ServiceInterface_modbusRTU.h</text>
</a>
</g>
</g>
<!-- Node5&#45;&gt;Node6 -->
<g id="edge5_Node000005_Node000006" class="edge">
<title>Node5&#45;&gt;Node6</title>
<g id="a_edge5_Node000005_Node000006"><a xlink:title=" ">
<path fill="none" stroke="#63b8ff" d="M332,-189.01C332,-180.87 332,-172.48 332,-164.77"/>
<polygon fill="#63b8ff" stroke="#63b8ff" points="328.5,-188.75 332,-198.75 335.5,-188.75 328.5,-188.75"/>
</a>
</g>
</g>
<!-- Node7 -->
<g id="Node000007" class="node">
<title>Node7</title>
<g id="a_Node000007"><a xlink:href="_service_interface__modbus_r_t_u_8cpp.html" target="_top" xlink:title=" ">
<polygon fill="white" stroke="#666666" points="453.88,-64.25 284.12,-64.25 284.12,0 453.88,0 453.88,-64.25"/>
<text text-anchor="start" x="292.12" y="-50.75" font-family="Helvetica,sans-Serif" font-size="10.00">/Users/felixschulke</text>
<text text-anchor="start" x="292.12" y="-39.5" font-family="Helvetica,sans-Serif" font-size="10.00">/Developement/Arduino</text>
<text text-anchor="start" x="292.12" y="-28.25" font-family="Helvetica,sans-Serif" font-size="10.00">/Modbus_RTU/Modbus_RTU</text>
<text text-anchor="start" x="292.12" y="-17" font-family="Helvetica,sans-Serif" font-size="10.00">/Modbus&#45;RTU/lib/ModbusRTU</text>
<text text-anchor="middle" x="369" y="-5.75" font-family="Helvetica,sans-Serif" font-size="10.00">/ServiceInterface_modbusRTU.cpp</text>
</a>
</g>
</g>
<!-- Node6&#45;&gt;Node7 -->
<g id="edge6_Node000006_Node000007" class="edge">
<title>Node6&#45;&gt;Node7</title>
<g id="a_edge6_Node000006_Node000007"><a xlink:title=" ">
<path fill="none" stroke="#63b8ff" d="M347.84,-89.32C350.97,-81.01 354.21,-72.41 357.18,-64.52"/>
<polygon fill="#63b8ff" stroke="#63b8ff" points="344.59,-88.01 344.34,-98.6 351.14,-90.48 344.59,-88.01"/>
</a>
</g>
</g>
<!-- Node8 -->
<g id="Node000008" class="node">
<title>Node8</title>
<g id="a_Node000008"><a xlink:href="main_8cpp.html" target="_top" xlink:title="This main is an example&#45;implementation of a simple modbus&#45;messenger to demonstrate the usage of a lay...">
<polygon fill="white" stroke="#666666" points="265.75,-58.62 122.25,-58.62 122.25,-5.62 265.75,-5.62 265.75,-58.62"/>
<text text-anchor="start" x="130.25" y="-45.12" font-family="Helvetica,sans-Serif" font-size="10.00">/Users/felixschulke</text>
<text text-anchor="start" x="130.25" y="-33.88" font-family="Helvetica,sans-Serif" font-size="10.00">/Developement/Arduino</text>
<text text-anchor="start" x="130.25" y="-22.62" font-family="Helvetica,sans-Serif" font-size="10.00">/Modbus_RTU/Modbus_RTU</text>
<text text-anchor="middle" x="194" y="-11.38" font-family="Helvetica,sans-Serif" font-size="10.00">/Modbus&#45;RTU/src/main.cpp</text>
</a>
</g>
</g>
<!-- Node6&#45;&gt;Node8 -->
<g id="edge7_Node000006_Node000008" class="edge">
<title>Node6&#45;&gt;Node8</title>
<g id="a_edge7_Node000006_Node000008"><a xlink:title=" ">
<path fill="none" stroke="#63b8ff" d="M278.6,-93.35C262.41,-81.83 245.02,-69.45 230.24,-58.93"/>
<polygon fill="#63b8ff" stroke="#63b8ff" points="276.55,-96.19 286.72,-99.14 280.61,-90.49 276.55,-96.19"/>
</a>
</g>
</g>
<!-- Node9&#45;&gt;Node6 -->
<g id="edge10_Node000009_Node000006" class="edge">
<title>Node9&#45;&gt;Node6</title>
<g id="a_edge10_Node000009_Node000006"><a xlink:title=" ">
<path fill="none" stroke="#63b8ff" d="M646.02,-295.28C573.42,-257.85 461.8,-200.3 393.04,-164.84"/>
<polygon fill="#63b8ff" stroke="#63b8ff" points="644.16,-298.26 654.65,-299.73 647.37,-292.03 644.16,-298.26"/>
</a>
</g>
</g>
<!-- Node10 -->
<g id="Node000010" class="node">
<title>Node10</title>
<g id="a_Node000010"><a xlink:href="_frame__modbus_r_t_u_8cpp.html" target="_top" xlink:title=" ">
<polygon fill="white" stroke="#666666" points="791.38,-264.75 642.62,-264.75 642.62,-200.5 791.38,-200.5 791.38,-264.75"/>
<text text-anchor="start" x="650.62" y="-251.25" font-family="Helvetica,sans-Serif" font-size="10.00">/Users/felixschulke</text>
<text text-anchor="start" x="650.62" y="-240" font-family="Helvetica,sans-Serif" font-size="10.00">/Developement/Arduino</text>
<text text-anchor="start" x="650.62" y="-228.75" font-family="Helvetica,sans-Serif" font-size="10.00">/Modbus_RTU/Modbus_RTU</text>
<text text-anchor="start" x="650.62" y="-217.5" font-family="Helvetica,sans-Serif" font-size="10.00">/Modbus&#45;RTU/lib/ModbusRTU</text>
<text text-anchor="middle" x="717" y="-206.25" font-family="Helvetica,sans-Serif" font-size="10.00">/Frame_modbusRTU.cpp</text>
</a>
</g>
</g>
<!-- Node9&#45;&gt;Node10 -->
<g id="edge9_Node000009_Node000010" class="edge">
<title>Node9&#45;&gt;Node10</title>
<g id="a_edge9_Node000009_Node000010"><a xlink:title=" ">
<path fill="none" stroke="#63b8ff" d="M717,-289.26C717,-281.12 717,-272.73 717,-265.02"/>
<polygon fill="#63b8ff" stroke="#63b8ff" points="713.5,-289 717,-299 720.5,-289 713.5,-289"/>
</a>
</g>
</g>
<!-- Node11&#45;&gt;Node5 -->
<g id="edge12_Node000011_Node000005" class="edge">
<title>Node11&#45;&gt;Node5</title>
<g id="a_edge12_Node000011_Node000005"><a xlink:title=" ">
<path fill="none" stroke="#63b8ff" d="M328.6,-289.26C329.1,-281.12 329.61,-272.73 330.08,-265.02"/>
<polygon fill="#63b8ff" stroke="#63b8ff" points="325.12,-288.81 328.01,-299.01 332.11,-289.24 325.12,-288.81"/>
</a>
</g>
</g>
<!-- Node12&#45;&gt;Node5 -->
<g id="edge14_Node000012_Node000005" class="edge">
<title>Node12&#45;&gt;Node5</title>
<g id="a_edge14_Node000012_Node000005"><a xlink:title=" ">
<path fill="none" stroke="#63b8ff" d="M227.3,-294.86C244,-285.09 261.87,-274.64 278.03,-265.19"/>
<polygon fill="#63b8ff" stroke="#63b8ff" points="225.79,-291.68 218.92,-299.75 229.32,-297.73 225.79,-291.68"/>
</a>
</g>
</g>
<!-- Node13 -->
<g id="Node000013" class="node">
<title>Node13</title>
<g id="a_Node000013"><a xlink:href="_comm_interface__modbus_r_t_u_8h.html" target="_top" xlink:title=" ">
<polygon fill="white" stroke="#666666" points="241.75,-264.75 86.25,-264.75 86.25,-200.5 241.75,-200.5 241.75,-264.75"/>
<text text-anchor="start" x="94.25" y="-251.25" font-family="Helvetica,sans-Serif" font-size="10.00">/Users/felixschulke</text>
<text text-anchor="start" x="94.25" y="-240" font-family="Helvetica,sans-Serif" font-size="10.00">/Developement/Arduino</text>
<text text-anchor="start" x="94.25" y="-228.75" font-family="Helvetica,sans-Serif" font-size="10.00">/Modbus_RTU/Modbus_RTU</text>
<text text-anchor="start" x="94.25" y="-217.5" font-family="Helvetica,sans-Serif" font-size="10.00">/Modbus&#45;RTU/lib/ModbusRTU</text>
<text text-anchor="middle" x="164" y="-206.25" font-family="Helvetica,sans-Serif" font-size="10.00">/CommInterface_modbusRTU.h</text>
</a>
</g>
</g>
<!-- Node12&#45;&gt;Node13 -->
<g id="edge15_Node000012_Node000013" class="edge">
<title>Node12&#45;&gt;Node13</title>
<g id="a_edge15_Node000012_Node000013"><a xlink:title=" ">
<path fill="none" stroke="#63b8ff" d="M164,-289.26C164,-281.12 164,-272.73 164,-265.02"/>
<polygon fill="#63b8ff" stroke="#63b8ff" points="160.5,-289 164,-299 167.5,-289 160.5,-289"/>
</a>
</g>
</g>
<!-- Node13&#45;&gt;Node6 -->
<g id="edge17_Node000013_Node000006" class="edge">
<title>Node13&#45;&gt;Node6</title>
<g id="a_edge17_Node000013_Node000006"><a xlink:title=" ">
<path fill="none" stroke="#63b8ff" d="M227.3,-194.61C244,-184.84 261.87,-174.39 278.03,-164.94"/>
<polygon fill="#63b8ff" stroke="#63b8ff" points="225.79,-191.43 218.92,-199.5 229.32,-197.48 225.79,-191.43"/>
</a>
</g>
</g>
<!-- Node13&#45;&gt;Node8 -->
<g id="edge18_Node000013_Node000008" class="edge">
<title>Node13&#45;&gt;Node8</title>
<g id="a_edge18_Node000013_Node000008"><a xlink:title=" ">
<path fill="none" stroke="#63b8ff" d="M171.11,-189.02C172.43,-180.88 173.78,-172.43 175,-164.5 180.66,-127.83 186.71,-85.32 190.43,-58.82"/>
<polygon fill="#63b8ff" stroke="#63b8ff" points="167.68,-188.3 169.52,-198.73 174.59,-189.43 167.68,-188.3"/>
</a>
</g>
</g>
<!-- Node14 -->
<g id="Node000014" class="node">
<title>Node14</title>
<g id="a_Node000014"><a xlink:href="_comm_interface__modbus_r_t_u_8cpp.html" target="_top" xlink:title=" ">
<polygon fill="white" stroke="#666666" points="166,-164.5 0,-164.5 0,-100.25 166,-100.25 166,-164.5"/>
<text text-anchor="start" x="8" y="-151" font-family="Helvetica,sans-Serif" font-size="10.00">/Users/felixschulke</text>
<text text-anchor="start" x="8" y="-139.75" font-family="Helvetica,sans-Serif" font-size="10.00">/Developement/Arduino</text>
<text text-anchor="start" x="8" y="-128.5" font-family="Helvetica,sans-Serif" font-size="10.00">/Modbus_RTU/Modbus_RTU</text>
<text text-anchor="start" x="8" y="-117.25" font-family="Helvetica,sans-Serif" font-size="10.00">/Modbus&#45;RTU/lib/ModbusRTU</text>
<text text-anchor="middle" x="83" y="-106" font-family="Helvetica,sans-Serif" font-size="10.00">/CommInterface_modbusRTU.cpp</text>
</a>
</g>
</g>
<!-- Node13&#45;&gt;Node14 -->
<g id="edge16_Node000013_Node000014" class="edge">
<title>Node13&#45;&gt;Node14</title>
<g id="a_edge16_Node000013_Node000014"><a xlink:title=" ">
<path fill="none" stroke="#63b8ff" d="M130.95,-191.53C123.59,-182.61 115.9,-173.28 108.88,-164.77"/>
<polygon fill="#63b8ff" stroke="#63b8ff" points="128.12,-193.61 137.19,-199.1 133.52,-189.16 128.12,-193.61"/>
</a>
</g>
</g>
</g>
</svg>
