<?xml version="1.0" encoding="UTF-8" standalone="no"?>
<!DOCTYPE svg PUBLIC "-//W3C//DTD SVG 1.1//EN"
 "http://www.w3.org/Graphics/SVG/1.1/DTD/svg11.dtd">
<!-- Generated by graphviz version 12.1.2 (20240928.0832)
 -->
<!-- Title: /Users/felixschulke/Developement/Arduino/Modbus_RTU/Modbus_RTU/Modbus&#45;RTU/lib/ModbusRTU/CommInterface_modbusRTU.cpp Pages: 1 -->
<svg width="543pt" height="459pt"
 viewBox="0.00 0.00 542.75 459.00" xmlns="http://www.w3.org/2000/svg" xmlns:xlink="http://www.w3.org/1999/xlink">
<g id="graph0" class="graph" transform="scale(1 1) rotate(0) translate(4 455)">
<title>/Users/felixschulke/Developement/Arduino/Modbus_RTU/Modbus_RTU/Modbus&#45;RTU/lib/ModbusRTU/CommInterface_modbusRTU.cpp</title>
<!-- Node1 -->
<g id="Node000001" class="node">
<title>Node1</title>
<g id="a_Node000001"><a xlink:title=" ">
<polygon fill="#999999" stroke="#666666" points="523.75,-451 357.75,-451 357.75,-386.75 523.75,-386.75 523.75,-451"/>
<text text-anchor="start" x="365.75" y="-437.5" font-family="Helvetica,sans-Serif" font-size="10.00">/Users/felixschulke</text>
<text text-anchor="start" x="365.75" y="-426.25" font-family="Helvetica,sans-Serif" font-size="10.00">/Developement/Arduino</text>
<text text-anchor="start" x="365.75" y="-415" font-family="Helvetica,sans-Serif" font-size="10.00">/Modbus_RTU/Modbus_RTU</text>
<text text-anchor="start" x="365.75" y="-403.75" font-family="Helvetica,sans-Serif" font-size="10.00">/Modbus&#45;RTU/lib/ModbusRTU</text>
<text text-anchor="middle" x="440.75" y="-392.5" font-family="Helvetica,sans-Serif" font-size="10.00">/CommInterface_modbusRTU.cpp</text>
</a>
</g>
</g>
<!-- Node2 -->
<g id="Node000002" class="node">
<title>Node2</title>
<g id="a_Node000002"><a xlink:href="_comm_interface__modbus_r_t_u_8h.html" target="_top" xlink:title=" ">
<polygon fill="white" stroke="#666666" points="517,-350.75 364.5,-350.75 364.5,-331.5 517,-331.5 517,-350.75"/>
<text text-anchor="middle" x="440.75" y="-337.25" font-family="Helvetica,sans-Serif" font-size="10.00">CommInterface_modbusRTU.h</text>
</a>
</g>
</g>
<!-- Node1&#45;&gt;Node2 -->
<g id="edge1_Node000001_Node000002" class="edge">
<title>Node1&#45;&gt;Node2</title>
<g id="a_edge1_Node000001_Node000002"><a xlink:title=" ">
<path fill="none" stroke="#63b8ff" d="M440.75,-386.63C440.75,-378.48 440.75,-369.91 440.75,-362.48"/>
<polygon fill="#63b8ff" stroke="#63b8ff" points="444.25,-362.55 440.75,-352.55 437.25,-362.55 444.25,-362.55"/>
</a>
</g>
</g>
<!-- Node3 -->
<g id="Node000003" class="node">
<title>Node3</title>
<g id="a_Node000003"><a xlink:href="mock_software_serial_8h.html" target="_top" xlink:title=" ">
<polygon fill="white" stroke="#666666" points="422.75,-185 310.75,-185 310.75,-165.75 422.75,-165.75 422.75,-185"/>
<text text-anchor="middle" x="366.75" y="-171.5" font-family="Helvetica,sans-Serif" font-size="10.00">mockSoftwareSerial.h</text>
</a>
</g>
</g>
<!-- Node2&#45;&gt;Node3 -->
<g id="edge2_Node000002_Node000003" class="edge">
<title>Node2&#45;&gt;Node3</title>
<g id="a_edge2_Node000002_Node000003"><a xlink:title=" ">
<path fill="none" stroke="#63b8ff" d="M423.99,-331.1C411.35,-323.38 394.73,-311.05 385.75,-295.5 367.82,-264.46 365.38,-221.67 365.72,-196.72"/>
<polygon fill="#63b8ff" stroke="#63b8ff" points="369.21,-197.08 366.04,-186.97 362.21,-196.85 369.21,-197.08"/>
</a>
</g>
</g>
<!-- Node4 -->
<g id="Node000004" class="node">
<title>Node4</title>
<g id="a_Node000004"><a xlink:href="mock_arduino_8h.html" target="_top" xlink:title=" ">
<polygon fill="white" stroke="#666666" points="389.38,-74.5 308.12,-74.5 308.12,-55.25 389.38,-55.25 389.38,-74.5"/>
<text text-anchor="middle" x="348.75" y="-61" font-family="Helvetica,sans-Serif" font-size="10.00">mockArduino.h</text>
</a>
</g>
</g>
<!-- Node2&#45;&gt;Node4 -->
<g id="edge13_Node000002_Node000004" class="edge">
<title>Node2&#45;&gt;Node4</title>
<g id="a_edge13_Node000002_Node000004"><a xlink:title=" ">
<path fill="none" stroke="#63b8ff" d="M457.12,-331.14C484.06,-315.03 534.75,-278.48 534.75,-231.62 534.75,-231.62 534.75,-231.62 534.75,-174.38 534.75,-111.95 455.6,-84.79 400.57,-73.46"/>
<polygon fill="#63b8ff" stroke="#63b8ff" points="401.54,-70.08 391.05,-71.63 400.21,-76.96 401.54,-70.08"/>
</a>
</g>
</g>
<!-- Node13 -->
<g id="Node000013" class="node">
<title>Node13</title>
<g id="a_Node000013"><a xlink:href="_comm_interface_8h.html" target="_top" xlink:title=" ">
<polygon fill="white" stroke="#666666" points="486.62,-295.5 394.88,-295.5 394.88,-276.25 486.62,-276.25 486.62,-295.5"/>
<text text-anchor="middle" x="440.75" y="-282" font-family="Helvetica,sans-Serif" font-size="10.00">CommInterface.h</text>
</a>
</g>
</g>
<!-- Node2&#45;&gt;Node13 -->
<g id="edge14_Node000002_Node000013" class="edge">
<title>Node2&#45;&gt;Node13</title>
<g id="a_edge14_Node000002_Node000013"><a xlink:title=" ">
<path fill="none" stroke="#63b8ff" d="M440.75,-331.33C440.75,-324.82 440.75,-315.67 440.75,-307.37"/>
<polygon fill="#63b8ff" stroke="#63b8ff" points="444.25,-307.37 440.75,-297.37 437.25,-307.37 444.25,-307.37"/>
</a>
</g>
</g>
<!-- Node3&#45;&gt;Node4 -->
<g id="edge3_Node000003_Node000004" class="edge">
<title>Node3&#45;&gt;Node4</title>
<g id="a_edge3_Node000003_Node000004"><a xlink:title=" ">
<path fill="none" stroke="#63b8ff" d="M377.62,-165.47C391.07,-153.3 411.14,-130.68 401.75,-110.5 396.17,-98.52 385.62,-88.6 375.39,-81.18"/>
<polygon fill="#63b8ff" stroke="#63b8ff" points="377.38,-78.3 367.11,-75.69 373.51,-84.13 377.38,-78.3"/>
</a>
</g>
</g>
<!-- Node11 -->
<g id="Node000011" class="node">
<title>Node11</title>
<g id="a_Node000011"><a xlink:href="_content__stack_8h.html" target="_top" xlink:title=" ">
<polygon fill="white" stroke="#666666" points="392.75,-129.75 304.75,-129.75 304.75,-110.5 392.75,-110.5 392.75,-129.75"/>
<text text-anchor="middle" x="348.75" y="-116.25" font-family="Helvetica,sans-Serif" font-size="10.00">Content_stack.h</text>
</a>
</g>
</g>
<!-- Node3&#45;&gt;Node11 -->
<g id="edge10_Node000003_Node000011" class="edge">
<title>Node3&#45;&gt;Node11</title>
<g id="a_edge10_Node000003_Node000011"><a xlink:title=" ">
<path fill="none" stroke="#63b8ff" d="M363.78,-165.58C361.5,-158.84 358.26,-149.27 355.38,-140.74"/>
<polygon fill="#63b8ff" stroke="#63b8ff" points="358.79,-139.9 352.27,-131.54 352.16,-142.14 358.79,-139.9"/>
</a>
</g>
</g>
<!-- Node5 -->
<g id="Node000005" class="node">
<title>Node5</title>
<g id="a_Node000005"><a xlink:title=" ">
<polygon fill="#e0e0e0" stroke="#999999" points="53.5,-19.25 0,-19.25 0,0 53.5,0 53.5,-19.25"/>
<text text-anchor="middle" x="26.75" y="-5.75" font-family="Helvetica,sans-Serif" font-size="10.00">iostream</text>
</a>
</g>
</g>
<!-- Node4&#45;&gt;Node5 -->
<g id="edge4_Node000004_Node000005" class="edge">
<title>Node4&#45;&gt;Node5</title>
<g id="a_edge4_Node000004_Node000005"><a xlink:title=" ">
<path fill="none" stroke="#63b8ff" d="M307.64,-57.08C244.89,-46.7 126.06,-27.05 65.04,-16.96"/>
<polygon fill="#63b8ff" stroke="#63b8ff" points="65.92,-13.55 55.48,-15.38 64.78,-20.46 65.92,-13.55"/>
</a>
</g>
</g>
<!-- Node6 -->
<g id="Node000006" class="node">
<title>Node6</title>
<g id="a_Node000006"><a xlink:title=" ">
<polygon fill="#e0e0e0" stroke="#999999" points="435.75,-19.25 395.75,-19.25 395.75,0 435.75,0 435.75,-19.25"/>
<text text-anchor="middle" x="415.75" y="-5.75" font-family="Helvetica,sans-Serif" font-size="10.00">string</text>
</a>
</g>
</g>
<!-- Node4&#45;&gt;Node6 -->
<g id="edge5_Node000004_Node000006" class="edge">
<title>Node4&#45;&gt;Node6</title>
<g id="a_edge5_Node000004_Node000006"><a xlink:title=" ">
<path fill="none" stroke="#63b8ff" d="M360.12,-54.84C369.8,-47.15 383.95,-35.9 395.56,-26.68"/>
<polygon fill="#63b8ff" stroke="#63b8ff" points="397.72,-29.43 403.37,-20.47 393.36,-23.95 397.72,-29.43"/>
</a>
</g>
</g>
<!-- Node7 -->
<g id="Node000007" class="node">
<title>Node7</title>
<g id="a_Node000007"><a xlink:title=" ">
<polygon fill="#e0e0e0" stroke="#999999" points="505.38,-19.25 454.12,-19.25 454.12,0 505.38,0 505.38,-19.25"/>
<text text-anchor="middle" x="479.75" y="-5.75" font-family="Helvetica,sans-Serif" font-size="10.00">sstream</text>
</a>
</g>
</g>
<!-- Node4&#45;&gt;Node7 -->
<g id="edge6_Node000004_Node000007" class="edge">
<title>Node4&#45;&gt;Node7</title>
<g id="a_edge6_Node000004_Node000007"><a xlink:title=" ">
<path fill="none" stroke="#63b8ff" d="M370.97,-54.84C391.77,-46.39 423.1,-33.65 446.8,-24.02"/>
<polygon fill="#63b8ff" stroke="#63b8ff" points="448.07,-27.28 456.02,-20.27 445.43,-20.8 448.07,-27.28"/>
</a>
</g>
</g>
<!-- Node8 -->
<g id="Node000008" class="node">
<title>Node8</title>
<g id="a_Node000008"><a xlink:title=" ">
<polygon fill="#e0e0e0" stroke="#999999" points="241.38,-19.25 196.12,-19.25 196.12,0 241.38,0 241.38,-19.25"/>
<text text-anchor="middle" x="218.75" y="-5.75" font-family="Helvetica,sans-Serif" font-size="10.00">chrono</text>
</a>
</g>
</g>
<!-- Node4&#45;&gt;Node8 -->
<g id="edge7_Node000004_Node000008" class="edge">
<title>Node4&#45;&gt;Node8</title>
<g id="a_edge7_Node000004_Node000008"><a xlink:title=" ">
<path fill="none" stroke="#63b8ff" d="M326.7,-54.84C306.06,-46.39 274.97,-33.65 251.45,-24.02"/>
<polygon fill="#63b8ff" stroke="#63b8ff" points="252.89,-20.83 242.31,-20.28 250.24,-27.31 252.89,-20.83"/>
</a>
</g>
</g>
<!-- Node9 -->
<g id="Node000009" class="node">
<title>Node9</title>
<g id="a_Node000009"><a xlink:title=" ">
<polygon fill="#e0e0e0" stroke="#999999" points="301.88,-19.25 259.62,-19.25 259.62,0 301.88,0 301.88,-19.25"/>
<text text-anchor="middle" x="280.75" y="-5.75" font-family="Helvetica,sans-Serif" font-size="10.00">queue</text>
</a>
</g>
</g>
<!-- Node4&#45;&gt;Node9 -->
<g id="edge8_Node000004_Node000009" class="edge">
<title>Node4&#45;&gt;Node9</title>
<g id="a_edge8_Node000004_Node000009"><a xlink:title=" ">
<path fill="none" stroke="#63b8ff" d="M337.21,-54.84C327.29,-47.07 312.74,-35.67 300.89,-26.4"/>
<polygon fill="#63b8ff" stroke="#63b8ff" points="303.34,-23.87 293.31,-20.46 299.02,-29.38 303.34,-23.87"/>
</a>
</g>
</g>
<!-- Node10 -->
<g id="Node000010" class="node">
<title>Node10</title>
<g id="a_Node000010"><a xlink:title=" ">
<polygon fill="#e0e0e0" stroke="#999999" points="377.75,-19.25 319.75,-19.25 319.75,0 377.75,0 377.75,-19.25"/>
<text text-anchor="middle" x="348.75" y="-5.75" font-family="Helvetica,sans-Serif" font-size="10.00">functional</text>
</a>
</g>
</g>
<!-- Node4&#45;&gt;Node10 -->
<g id="edge9_Node000004_Node000010" class="edge">
<title>Node4&#45;&gt;Node10</title>
<g id="a_edge9_Node000004_Node000010"><a xlink:title=" ">
<path fill="none" stroke="#63b8ff" d="M348.75,-55.08C348.75,-48.57 348.75,-39.42 348.75,-31.12"/>
<polygon fill="#63b8ff" stroke="#63b8ff" points="352.25,-31.12 348.75,-21.12 345.25,-31.12 352.25,-31.12"/>
</a>
</g>
</g>
<!-- Node11&#45;&gt;Node4 -->
<g id="edge11_Node000011_Node000004" class="edge">
<title>Node11&#45;&gt;Node4</title>
<g id="a_edge11_Node000011_Node000004"><a xlink:title=" ">
<path fill="none" stroke="#63b8ff" d="M348.75,-110.33C348.75,-103.82 348.75,-94.67 348.75,-86.37"/>
<polygon fill="#63b8ff" stroke="#63b8ff" points="352.25,-86.37 348.75,-76.37 345.25,-86.37 352.25,-86.37"/>
</a>
</g>
</g>
<!-- Node12 -->
<g id="Node000012" class="node">
<title>Node12</title>
<g id="a_Node000012"><a xlink:title=" ">
<polygon fill="#e0e0e0" stroke="#999999" points="122.38,-74.5 77.12,-74.5 77.12,-55.25 122.38,-55.25 122.38,-74.5"/>
<text text-anchor="middle" x="99.75" y="-61" font-family="Helvetica,sans-Serif" font-size="10.00">cstring</text>
</a>
</g>
</g>
<!-- Node11&#45;&gt;Node12 -->
<g id="edge12_Node000011_Node000012" class="edge">
<title>Node11&#45;&gt;Node12</title>
<g id="a_edge12_Node000011_Node000012"><a xlink:title=" ">
<path fill="none" stroke="#63b8ff" d="M306.23,-110.03C257.52,-99.62 178.68,-82.75 133.83,-73.16"/>
<polygon fill="#63b8ff" stroke="#63b8ff" points="134.65,-69.76 124.14,-71.09 133.19,-76.61 134.65,-69.76"/>
</a>
</g>
</g>
<!-- Node13&#45;&gt;Node4 -->
<g id="edge15_Node000013_Node000004" class="edge">
<title>Node13&#45;&gt;Node4</title>
<g id="a_edge15_Node000013_Node000004"><a xlink:title=" ">
<path fill="none" stroke="#63b8ff" d="M451.54,-275.89C460.49,-267.67 472.56,-254.64 477.75,-240.25 494.11,-194.88 477.19,-156.81 435.75,-110.5 423.21,-96.49 405.24,-86.25 388.89,-79.14"/>
<polygon fill="#63b8ff" stroke="#63b8ff" points="390.43,-75.99 379.85,-75.48 387.8,-82.48 390.43,-75.99"/>
</a>
</g>
</g>
<!-- Node14 -->
<g id="Node000014" class="node">
<title>Node14</title>
<g id="a_Node000014"><a xlink:href="_char_array_8h.html" target="_top" xlink:title=" ">
<polygon fill="white" stroke="#666666" points="468.25,-240.25 401.25,-240.25 401.25,-221 468.25,-221 468.25,-240.25"/>
<text text-anchor="middle" x="434.75" y="-226.75" font-family="Helvetica,sans-Serif" font-size="10.00">CharArray.h</text>
</a>
</g>
</g>
<!-- Node13&#45;&gt;Node14 -->
<g id="edge16_Node000013_Node000014" class="edge">
<title>Node13&#45;&gt;Node14</title>
<g id="a_edge16_Node000013_Node000014"><a xlink:title=" ">
<path fill="none" stroke="#63b8ff" d="M439.76,-276.08C439.02,-269.49 437.97,-260.21 437.03,-251.82"/>
<polygon fill="#63b8ff" stroke="#63b8ff" points="440.53,-251.66 435.93,-242.11 433.57,-252.44 440.53,-251.66"/>
</a>
</g>
</g>
<!-- Node15 -->
<g id="Node000015" class="node">
<title>Node15</title>
<g id="a_Node000015"><a xlink:href="_error_state_8h.html" target="_top" xlink:title=" ">
<polygon fill="white" stroke="#666666" points="209,-240.25 140.5,-240.25 140.5,-221 209,-221 209,-240.25"/>
<text text-anchor="middle" x="174.75" y="-226.75" font-family="Helvetica,sans-Serif" font-size="10.00">ErrorState.h</text>
</a>
</g>
</g>
<!-- Node13&#45;&gt;Node15 -->
<g id="edge18_Node000013_Node000015" class="edge">
<title>Node13&#45;&gt;Node15</title>
<g id="a_edge18_Node000013_Node000015"><a xlink:title=" ">
<path fill="none" stroke="#63b8ff" d="M395.33,-275.78C346.56,-266.02 269.51,-250.6 220.59,-240.8"/>
<polygon fill="#63b8ff" stroke="#63b8ff" points="221.37,-237.39 210.88,-238.86 219.99,-244.25 221.37,-237.39"/>
</a>
</g>
</g>
<!-- Node14&#45;&gt;Node4 -->
<g id="edge17_Node000014_Node000004" class="edge">
<title>Node14&#45;&gt;Node4</title>
<g id="a_edge17_Node000014_Node000004"><a xlink:title=" ">
<path fill="none" stroke="#63b8ff" d="M436,-220.53C438.42,-199.1 441.56,-144.7 416.75,-110.5 407.46,-97.69 393.28,-87.55 380.26,-80.19"/>
<polygon fill="#63b8ff" stroke="#63b8ff" points="382.01,-77.15 371.53,-75.59 378.75,-83.35 382.01,-77.15"/>
</a>
</g>
</g>
<!-- Node15&#45;&gt;Node4 -->
<g id="edge22_Node000015_Node000004" class="edge">
<title>Node15&#45;&gt;Node4</title>
<g id="a_edge22_Node000015_Node000004"><a xlink:title=" ">
<path fill="none" stroke="#63b8ff" d="M183.33,-220.72C202.83,-200.58 252.16,-150.2 295.75,-110.5 306.4,-100.8 318.68,-90.41 328.74,-82.1"/>
<polygon fill="#63b8ff" stroke="#63b8ff" points="330.89,-84.87 336.4,-75.82 326.45,-79.45 330.89,-84.87"/>
</a>
</g>
</g>
<!-- Node15&#45;&gt;Node5 -->
<g id="edge19_Node000015_Node000005" class="edge">
<title>Node15&#45;&gt;Node5</title>
<g id="a_edge19_Node000015_Node000005"><a xlink:title=" ">
<path fill="none" stroke="#63b8ff" d="M145.19,-220.53C126.2,-213.43 102.1,-201.89 85.75,-185 43.58,-141.44 31.51,-66.69 28.09,-30.89"/>
<polygon fill="#63b8ff" stroke="#63b8ff" points="31.59,-30.79 27.3,-21.1 24.61,-31.35 31.59,-30.79"/>
</a>
</g>
</g>
<!-- Node15&#45;&gt;Node12 -->
<g id="edge20_Node000015_Node000012" class="edge">
<title>Node15&#45;&gt;Node12</title>
<g id="a_edge20_Node000015_Node000012"><a xlink:title=" ">
<path fill="none" stroke="#63b8ff" d="M154.91,-220.62C139.66,-212.91 118.88,-200.59 104.75,-185 86.27,-164.6 83.15,-156.53 76.75,-129.75 73.02,-114.14 79.76,-97.08 86.89,-84.51"/>
<polygon fill="#63b8ff" stroke="#63b8ff" points="89.84,-86.39 92.2,-76.06 83.92,-82.67 89.84,-86.39"/>
</a>
</g>
</g>
<!-- Node16 -->
<g id="Node000016" class="node">
<title>Node16</title>
<g id="a_Node000016"><a xlink:title=" ">
<polygon fill="#e0e0e0" stroke="#999999" points="248.88,-129.75 206.62,-129.75 206.62,-110.5 248.88,-110.5 248.88,-129.75"/>
<text text-anchor="middle" x="227.75" y="-116.25" font-family="Helvetica,sans-Serif" font-size="10.00">cstdio</text>
</a>
</g>
</g>
<!-- Node15&#45;&gt;Node16 -->
<g id="edge21_Node000015_Node000016" class="edge">
<title>Node15&#45;&gt;Node16</title>
<g id="a_edge21_Node000015_Node000016"><a xlink:title=" ">
<path fill="none" stroke="#63b8ff" d="M179.09,-220.75C187.63,-203.26 206.8,-164.02 218.37,-140.34"/>
<polygon fill="#63b8ff" stroke="#63b8ff" points="221.44,-142.01 222.69,-131.49 215.15,-138.94 221.44,-142.01"/>
</a>
</g>
</g>
<!-- Node17 -->
<g id="Node000017" class="node">
<title>Node17</title>
<g id="a_Node000017"><a xlink:href="_error_8h.html" target="_top" xlink:title=" ">
<polygon fill="white" stroke="#666666" points="158,-185 113.5,-185 113.5,-165.75 158,-165.75 158,-185"/>
<text text-anchor="middle" x="135.75" y="-171.5" font-family="Helvetica,sans-Serif" font-size="10.00">Error.h</text>
</a>
</g>
</g>
<!-- Node15&#45;&gt;Node17 -->
<g id="edge23_Node000015_Node000017" class="edge">
<title>Node15&#45;&gt;Node17</title>
<g id="a_edge23_Node000015_Node000017"><a xlink:title=" ">
<path fill="none" stroke="#63b8ff" d="M168.31,-220.83C163.09,-213.71 155.56,-203.43 149.06,-194.55"/>
<polygon fill="#63b8ff" stroke="#63b8ff" points="151.96,-192.58 143.22,-186.58 146.31,-196.72 151.96,-192.58"/>
</a>
</g>
</g>
<!-- Node17&#45;&gt;Node4 -->
<g id="edge27_Node000017_Node000004" class="edge">
<title>Node17&#45;&gt;Node4</title>
<g id="a_edge27_Node000017_Node000004"><a xlink:title=" ">
<path fill="none" stroke="#63b8ff" d="M141.93,-165.55C152.03,-151.77 173.42,-125.21 197.75,-110.5 227.93,-92.25 266.04,-81.06 296.43,-74.45"/>
<polygon fill="#63b8ff" stroke="#63b8ff" points="297.09,-77.89 306.18,-72.44 295.68,-71.03 297.09,-77.89"/>
</a>
</g>
</g>
<!-- Node17&#45;&gt;Node5 -->
<g id="edge24_Node000017_Node000005" class="edge">
<title>Node17&#45;&gt;Node5</title>
<g id="a_edge24_Node000017_Node000005"><a xlink:title=" ">
<path fill="none" stroke="#63b8ff" d="M119.33,-165.26C106.31,-157.33 88.41,-144.76 76.75,-129.75 52.98,-99.14 38.52,-55.57 31.63,-30.49"/>
<polygon fill="#63b8ff" stroke="#63b8ff" points="35.06,-29.78 29.16,-20.98 28.28,-31.54 35.06,-29.78"/>
</a>
</g>
</g>
<!-- Node17&#45;&gt;Node12 -->
<g id="edge25_Node000017_Node000012" class="edge">
<title>Node17&#45;&gt;Node12</title>
<g id="a_edge25_Node000017_Node000012"><a xlink:title=" ">
<path fill="none" stroke="#63b8ff" d="M118.96,-165.32C106.68,-157.66 90.95,-145.42 83.75,-129.75 77.18,-115.45 82.3,-98.06 88.44,-85.03"/>
<polygon fill="#63b8ff" stroke="#63b8ff" points="91.52,-86.71 93.12,-76.24 85.34,-83.42 91.52,-86.71"/>
</a>
</g>
</g>
<!-- Node17&#45;&gt;Node16 -->
<g id="edge26_Node000017_Node000016" class="edge">
<title>Node17&#45;&gt;Node16</title>
<g id="a_edge26_Node000017_Node000016"><a xlink:title=" ">
<path fill="none" stroke="#63b8ff" d="M151.36,-165.34C165.37,-157.23 186.18,-145.18 202.55,-135.71"/>
<polygon fill="#63b8ff" stroke="#63b8ff" points="203.86,-139 210.76,-130.96 200.35,-132.94 203.86,-139"/>
</a>
</g>
</g>
<!-- Node18 -->
<g id="Node000018" class="node">
<title>Node18</title>
<g id="a_Node000018"><a xlink:href="_content_8h.html" target="_top" xlink:title=" ">
<polygon fill="white" stroke="#666666" points="151.12,-129.75 92.38,-129.75 92.38,-110.5 151.12,-110.5 151.12,-129.75"/>
<text text-anchor="middle" x="121.75" y="-116.25" font-family="Helvetica,sans-Serif" font-size="10.00">Content.h</text>
</a>
</g>
</g>
<!-- Node17&#45;&gt;Node18 -->
<g id="edge28_Node000017_Node000018" class="edge">
<title>Node17&#45;&gt;Node18</title>
<g id="a_edge28_Node000017_Node000018"><a xlink:title=" ">
<path fill="none" stroke="#63b8ff" d="M133.44,-165.58C131.69,-158.92 129.21,-149.49 126.98,-141.03"/>
<polygon fill="#63b8ff" stroke="#63b8ff" points="130.42,-140.35 124.5,-131.57 123.65,-142.13 130.42,-140.35"/>
</a>
</g>
</g>
<!-- Node18&#45;&gt;Node4 -->
<g id="edge29_Node000018_Node000004" class="edge">
<title>Node18&#45;&gt;Node4</title>
<g id="a_edge29_Node000018_Node000004"><a xlink:title=" ">
<path fill="none" stroke="#63b8ff" d="M151.43,-112.16C188.87,-103.38 253.82,-88.14 298.93,-77.56"/>
<polygon fill="#63b8ff" stroke="#63b8ff" points="299.54,-81.02 308.47,-75.32 297.94,-74.2 299.54,-81.02"/>
</a>
</g>
</g>
<!-- Node18&#45;&gt;Node12 -->
<g id="edge30_Node000018_Node000012" class="edge">
<title>Node18&#45;&gt;Node12</title>
<g id="a_edge30_Node000018_Node000012"><a xlink:title=" ">
<path fill="none" stroke="#63b8ff" d="M118.12,-110.33C115.33,-103.59 111.38,-94.02 107.85,-85.49"/>
<polygon fill="#63b8ff" stroke="#63b8ff" points="111.09,-84.16 104.04,-76.26 104.62,-86.84 111.09,-84.16"/>
</a>
</g>
</g>
</g>
</svg>
