<?xml version="1.0" encoding="UTF-8" standalone="no"?>
<!DOCTYPE svg PUBLIC "-//W3C//DTD SVG 1.1//EN"
 "http://www.w3.org/Graphics/SVG/1.1/DTD/svg11.dtd">
<!-- Generated by graphviz version 12.1.2 (20240928.0832)
 -->
<!-- Title: /Users/felixschulke/Developement/Arduino/Modbus_RTU/Modbus_RTU/Modbus&#45;RTU/lib/Interface/CommInterface.h Pages: 1 -->
<svg width="472pt" height="349pt"
 viewBox="0.00 0.00 472.48 348.50" xmlns="http://www.w3.org/2000/svg" xmlns:xlink="http://www.w3.org/1999/xlink">
<g id="graph0" class="graph" transform="scale(1 1) rotate(0) translate(4 344.5)">
<title>/Users/felixschulke/Developement/Arduino/Modbus_RTU/Modbus_RTU/Modbus&#45;RTU/lib/Interface/CommInterface.h</title>
<!-- Node1 -->
<g id="Node000001" class="node">
<title>Node1</title>
<g id="a_Node000001"><a xlink:title=" ">
<polygon fill="#999999" stroke="#666666" points="191.75,-340.5 48.25,-340.5 48.25,-276.25 191.75,-276.25 191.75,-340.5"/>
<text text-anchor="start" x="56.25" y="-327" font-family="Helvetica,sans-Serif" font-size="10.00">/Users/felixschulke</text>
<text text-anchor="start" x="56.25" y="-315.75" font-family="Helvetica,sans-Serif" font-size="10.00">/Developement/Arduino</text>
<text text-anchor="start" x="56.25" y="-304.5" font-family="Helvetica,sans-Serif" font-size="10.00">/Modbus_RTU/Modbus_RTU</text>
<text text-anchor="start" x="56.25" y="-293.25" font-family="Helvetica,sans-Serif" font-size="10.00">/Modbus&#45;RTU/lib/Interface</text>
<text text-anchor="middle" x="120" y="-282" font-family="Helvetica,sans-Serif" font-size="10.00">/CommInterface.h</text>
</a>
</g>
</g>
<!-- Node2 -->
<g id="Node000002" class="node">
<title>Node2</title>
<g id="a_Node000002"><a xlink:href="mock_arduino_8h.html" target="_top" xlink:title=" ">
<polygon fill="white" stroke="#666666" points="216.62,-74.5 135.38,-74.5 135.38,-55.25 216.62,-55.25 216.62,-74.5"/>
<text text-anchor="middle" x="176" y="-61" font-family="Helvetica,sans-Serif" font-size="10.00">mockArduino.h</text>
</a>
</g>
</g>
<!-- Node1&#45;&gt;Node2 -->
<g id="edge1_Node000001_Node000002" class="edge">
<title>Node1&#45;&gt;Node2</title>
<g id="a_edge1_Node000001_Node000002"><a xlink:title=" ">
<path fill="none" stroke="#63b8ff" d="M98.12,-275.83C80.8,-246.73 61.84,-202.58 77,-165.75 92.19,-128.84 128.35,-98.34 152.51,-81.12"/>
<polygon fill="#63b8ff" stroke="#63b8ff" points="154.22,-84.19 160.47,-75.63 150.25,-78.42 154.22,-84.19"/>
</a>
</g>
</g>
<!-- Node9 -->
<g id="Node000009" class="node">
<title>Node9</title>
<g id="a_Node000009"><a xlink:href="_char_array_8h.html" target="_top" xlink:title=" ">
<polygon fill="white" stroke="#666666" points="153.5,-185 86.5,-185 86.5,-165.75 153.5,-165.75 153.5,-185"/>
<text text-anchor="middle" x="120" y="-171.5" font-family="Helvetica,sans-Serif" font-size="10.00">CharArray.h</text>
</a>
</g>
</g>
<!-- Node1&#45;&gt;Node9 -->
<g id="edge8_Node000001_Node000009" class="edge">
<title>Node1&#45;&gt;Node9</title>
<g id="a_edge8_Node000001_Node000009"><a xlink:title=" ">
<path fill="none" stroke="#63b8ff" d="M120,-276C120,-251.43 120,-217.96 120,-196.76"/>
<polygon fill="#63b8ff" stroke="#63b8ff" points="123.5,-196.85 120,-186.85 116.5,-196.85 123.5,-196.85"/>
</a>
</g>
</g>
<!-- Node10 -->
<g id="Node000010" class="node">
<title>Node10</title>
<g id="a_Node000010"><a xlink:href="_error_state_8h.html" target="_top" xlink:title=" ">
<polygon fill="white" stroke="#666666" points="405.25,-240.25 336.75,-240.25 336.75,-221 405.25,-221 405.25,-240.25"/>
<text text-anchor="middle" x="371" y="-226.75" font-family="Helvetica,sans-Serif" font-size="10.00">ErrorState.h</text>
</a>
</g>
</g>
<!-- Node1&#45;&gt;Node10 -->
<g id="edge10_Node000001_Node000010" class="edge">
<title>Node1&#45;&gt;Node10</title>
<g id="a_edge10_Node000001_Node000010"><a xlink:title=" ">
<path fill="none" stroke="#63b8ff" d="M191.93,-285.67C236.69,-272.16 292.66,-255.27 329.99,-244"/>
<polygon fill="#63b8ff" stroke="#63b8ff" points="330.94,-247.37 339.5,-241.13 328.91,-240.67 330.94,-247.37"/>
</a>
</g>
</g>
<!-- Node3 -->
<g id="Node000003" class="node">
<title>Node3</title>
<g id="a_Node000003"><a xlink:title=" ">
<polygon fill="#e0e0e0" stroke="#999999" points="380.75,-19.25 327.25,-19.25 327.25,0 380.75,0 380.75,-19.25"/>
<text text-anchor="middle" x="354" y="-5.75" font-family="Helvetica,sans-Serif" font-size="10.00">iostream</text>
</a>
</g>
</g>
<!-- Node2&#45;&gt;Node3 -->
<g id="edge2_Node000002_Node000003" class="edge">
<title>Node2&#45;&gt;Node3</title>
<g id="a_edge2_Node000002_Node000003"><a xlink:title=" ">
<path fill="none" stroke="#63b8ff" d="M206.2,-54.84C236.45,-45.79 283.12,-31.83 315.9,-22.02"/>
<polygon fill="#63b8ff" stroke="#63b8ff" points="316.84,-25.39 325.42,-19.17 314.84,-18.69 316.84,-25.39"/>
</a>
</g>
</g>
<!-- Node4 -->
<g id="Node000004" class="node">
<title>Node4</title>
<g id="a_Node000004"><a xlink:title=" ">
<polygon fill="#e0e0e0" stroke="#999999" points="40,-19.25 0,-19.25 0,0 40,0 40,-19.25"/>
<text text-anchor="middle" x="20" y="-5.75" font-family="Helvetica,sans-Serif" font-size="10.00">string</text>
</a>
</g>
</g>
<!-- Node2&#45;&gt;Node4 -->
<g id="edge3_Node000002_Node000004" class="edge">
<title>Node2&#45;&gt;Node4</title>
<g id="a_edge3_Node000002_Node000004"><a xlink:title=" ">
<path fill="none" stroke="#63b8ff" d="M149.54,-54.84C122.22,-45.52 79.63,-30.98 50.81,-21.14"/>
<polygon fill="#63b8ff" stroke="#63b8ff" points="52.16,-17.9 41.56,-17.99 49.9,-24.53 52.16,-17.9"/>
</a>
</g>
</g>
<!-- Node5 -->
<g id="Node000005" class="node">
<title>Node5</title>
<g id="a_Node000005"><a xlink:title=" ">
<polygon fill="#e0e0e0" stroke="#999999" points="109.62,-19.25 58.38,-19.25 58.38,0 109.62,0 109.62,-19.25"/>
<text text-anchor="middle" x="84" y="-5.75" font-family="Helvetica,sans-Serif" font-size="10.00">sstream</text>
</a>
</g>
</g>
<!-- Node2&#45;&gt;Node5 -->
<g id="edge4_Node000002_Node000005" class="edge">
<title>Node2&#45;&gt;Node5</title>
<g id="a_edge4_Node000002_Node000005"><a xlink:title=" ">
<path fill="none" stroke="#63b8ff" d="M160.39,-54.84C146.38,-46.73 125.57,-34.68 109.2,-25.21"/>
<polygon fill="#63b8ff" stroke="#63b8ff" points="111.4,-22.44 100.99,-20.46 107.89,-28.5 111.4,-22.44"/>
</a>
</g>
</g>
<!-- Node6 -->
<g id="Node000006" class="node">
<title>Node6</title>
<g id="a_Node000006"><a xlink:title=" ">
<polygon fill="#e0e0e0" stroke="#999999" points="172.62,-19.25 127.38,-19.25 127.38,0 172.62,0 172.62,-19.25"/>
<text text-anchor="middle" x="150" y="-5.75" font-family="Helvetica,sans-Serif" font-size="10.00">chrono</text>
</a>
</g>
</g>
<!-- Node2&#45;&gt;Node6 -->
<g id="edge5_Node000002_Node000006" class="edge">
<title>Node2&#45;&gt;Node6</title>
<g id="a_edge5_Node000002_Node000006"><a xlink:title=" ">
<path fill="none" stroke="#63b8ff" d="M171.71,-55.08C168.38,-48.26 163.64,-38.56 159.44,-29.95"/>
<polygon fill="#63b8ff" stroke="#63b8ff" points="162.58,-28.42 155.05,-20.97 156.29,-31.49 162.58,-28.42"/>
</a>
</g>
</g>
<!-- Node7 -->
<g id="Node000007" class="node">
<title>Node7</title>
<g id="a_Node000007"><a xlink:title=" ">
<polygon fill="#e0e0e0" stroke="#999999" points="233.12,-19.25 190.88,-19.25 190.88,0 233.12,0 233.12,-19.25"/>
<text text-anchor="middle" x="212" y="-5.75" font-family="Helvetica,sans-Serif" font-size="10.00">queue</text>
</a>
</g>
</g>
<!-- Node2&#45;&gt;Node7 -->
<g id="edge6_Node000002_Node000007" class="edge">
<title>Node2&#45;&gt;Node7</title>
<g id="a_edge6_Node000002_Node000007"><a xlink:title=" ">
<path fill="none" stroke="#63b8ff" d="M181.94,-55.08C186.71,-48.03 193.56,-37.9 199.52,-29.08"/>
<polygon fill="#63b8ff" stroke="#63b8ff" points="202.38,-31.11 205.08,-20.86 196.58,-27.19 202.38,-31.11"/>
</a>
</g>
</g>
<!-- Node8 -->
<g id="Node000008" class="node">
<title>Node8</title>
<g id="a_Node000008"><a xlink:title=" ">
<polygon fill="#e0e0e0" stroke="#999999" points="309,-19.25 251,-19.25 251,0 309,0 309,-19.25"/>
<text text-anchor="middle" x="280" y="-5.75" font-family="Helvetica,sans-Serif" font-size="10.00">functional</text>
</a>
</g>
</g>
<!-- Node2&#45;&gt;Node8 -->
<g id="edge7_Node000002_Node000008" class="edge">
<title>Node2&#45;&gt;Node8</title>
<g id="a_edge7_Node000002_Node000008"><a xlink:title=" ">
<path fill="none" stroke="#63b8ff" d="M193.64,-54.84C209.63,-46.66 233.46,-34.46 252.04,-24.94"/>
<polygon fill="#63b8ff" stroke="#63b8ff" points="253.62,-28.07 260.92,-20.39 250.43,-21.83 253.62,-28.07"/>
</a>
</g>
</g>
<!-- Node9&#45;&gt;Node2 -->
<g id="edge9_Node000009_Node000002" class="edge">
<title>Node9&#45;&gt;Node2</title>
<g id="a_edge9_Node000009_Node000002"><a xlink:title=" ">
<path fill="none" stroke="#63b8ff" d="M124.58,-165.5C133.61,-148.01 153.86,-108.77 166.08,-85.09"/>
<polygon fill="#63b8ff" stroke="#63b8ff" points="169.18,-86.71 170.66,-76.22 162.96,-83.5 169.18,-86.71"/>
</a>
</g>
</g>
<!-- Node10&#45;&gt;Node2 -->
<g id="edge14_Node000010_Node000002" class="edge">
<title>Node10&#45;&gt;Node2</title>
<g id="a_edge14_Node000010_Node000002"><a xlink:title=" ">
<path fill="none" stroke="#63b8ff" d="M348.25,-220.57C314,-205.95 248.85,-174.24 208,-129.75 196.19,-116.89 187.69,-98.86 182.44,-85.23"/>
<polygon fill="#63b8ff" stroke="#63b8ff" points="185.82,-84.3 179.16,-76.06 179.23,-86.65 185.82,-84.3"/>
</a>
</g>
</g>
<!-- Node10&#45;&gt;Node3 -->
<g id="edge11_Node000010_Node000003" class="edge">
<title>Node10&#45;&gt;Node3</title>
<g id="a_edge11_Node000010_Node000003"><a xlink:title=" ">
<path fill="none" stroke="#63b8ff" d="M389.01,-220.57C403.06,-212.75 422.27,-200.31 435,-185 457.32,-158.14 472.39,-143.15 460,-110.5 445.43,-72.1 406.67,-42.22 380.29,-25.51"/>
<polygon fill="#63b8ff" stroke="#63b8ff" points="382.17,-22.56 371.81,-20.35 378.53,-28.54 382.17,-22.56"/>
</a>
</g>
</g>
<!-- Node11 -->
<g id="Node000011" class="node">
<title>Node11</title>
<g id="a_Node000011"><a xlink:title=" ">
<polygon fill="#e0e0e0" stroke="#999999" points="401.62,-74.5 356.38,-74.5 356.38,-55.25 401.62,-55.25 401.62,-74.5"/>
<text text-anchor="middle" x="379" y="-61" font-family="Helvetica,sans-Serif" font-size="10.00">cstring</text>
</a>
</g>
</g>
<!-- Node10&#45;&gt;Node11 -->
<g id="edge12_Node000010_Node000011" class="edge">
<title>Node10&#45;&gt;Node11</title>
<g id="a_edge12_Node000010_Node000011"><a xlink:title=" ">
<path fill="none" stroke="#63b8ff" d="M381.07,-220.69C398.33,-204.58 432.9,-168.7 445,-129.75 447.54,-121.58 449.01,-118.06 445,-110.5 437.89,-97.1 424.75,-86.99 412.06,-79.81"/>
<polygon fill="#63b8ff" stroke="#63b8ff" points="413.94,-76.85 403.45,-75.37 410.73,-83.07 413.94,-76.85"/>
</a>
</g>
</g>
<!-- Node12 -->
<g id="Node000012" class="node">
<title>Node12</title>
<g id="a_Node000012"><a xlink:title=" ">
<polygon fill="#e0e0e0" stroke="#999999" points="436.12,-129.75 393.88,-129.75 393.88,-110.5 436.12,-110.5 436.12,-129.75"/>
<text text-anchor="middle" x="415" y="-116.25" font-family="Helvetica,sans-Serif" font-size="10.00">cstdio</text>
</a>
</g>
</g>
<!-- Node10&#45;&gt;Node12 -->
<g id="edge13_Node000010_Node000012" class="edge">
<title>Node10&#45;&gt;Node12</title>
<g id="a_edge13_Node000010_Node000012"><a xlink:title=" ">
<path fill="none" stroke="#63b8ff" d="M374.6,-220.75C381.66,-203.34 397.46,-164.37 407.08,-140.66"/>
<polygon fill="#63b8ff" stroke="#63b8ff" points="410.27,-142.11 410.78,-131.53 403.78,-139.48 410.27,-142.11"/>
</a>
</g>
</g>
<!-- Node13 -->
<g id="Node000013" class="node">
<title>Node13</title>
<g id="a_Node000013"><a xlink:href="_error_8h.html" target="_top" xlink:title=" ">
<polygon fill="white" stroke="#666666" points="359.25,-185 314.75,-185 314.75,-165.75 359.25,-165.75 359.25,-185"/>
<text text-anchor="middle" x="337" y="-171.5" font-family="Helvetica,sans-Serif" font-size="10.00">Error.h</text>
</a>
</g>
</g>
<!-- Node10&#45;&gt;Node13 -->
<g id="edge15_Node000010_Node000013" class="edge">
<title>Node10&#45;&gt;Node13</title>
<g id="a_edge15_Node000010_Node000013"><a xlink:title=" ">
<path fill="none" stroke="#63b8ff" d="M365.39,-220.83C360.88,-213.78 354.41,-203.65 348.79,-194.83"/>
<polygon fill="#63b8ff" stroke="#63b8ff" points="351.88,-193.18 343.55,-186.63 345.98,-196.95 351.88,-193.18"/>
</a>
</g>
</g>
<!-- Node13&#45;&gt;Node2 -->
<g id="edge19_Node000013_Node000002" class="edge">
<title>Node13&#45;&gt;Node2</title>
<g id="a_edge19_Node000013_Node000002"><a xlink:title=" ">
<path fill="none" stroke="#63b8ff" d="M314.44,-167.87C292.33,-160.79 258.36,-148 233,-129.75 215.33,-117.04 199.22,-97.96 188.67,-83.97"/>
<polygon fill="#63b8ff" stroke="#63b8ff" points="191.64,-82.09 182.92,-76.06 185.98,-86.21 191.64,-82.09"/>
</a>
</g>
</g>
<!-- Node13&#45;&gt;Node3 -->
<g id="edge16_Node000013_Node000003" class="edge">
<title>Node13&#45;&gt;Node3</title>
<g id="a_edge16_Node000013_Node000003"><a xlink:title=" ">
<path fill="none" stroke="#63b8ff" d="M337.53,-165.39C338.76,-145.49 342.07,-96.26 347,-55.25 347.97,-47.17 349.31,-38.31 350.55,-30.63"/>
<polygon fill="#63b8ff" stroke="#63b8ff" points="353.96,-31.42 352.17,-20.98 347.06,-30.26 353.96,-31.42"/>
</a>
</g>
</g>
<!-- Node13&#45;&gt;Node11 -->
<g id="edge17_Node000013_Node000011" class="edge">
<title>Node13&#45;&gt;Node11</title>
<g id="a_edge17_Node000013_Node000011"><a xlink:title=" ">
<path fill="none" stroke="#63b8ff" d="M340.44,-165.5C347.17,-148.09 362.26,-109.12 371.44,-85.41"/>
<polygon fill="#63b8ff" stroke="#63b8ff" points="374.62,-86.88 374.97,-76.29 368.1,-84.35 374.62,-86.88"/>
</a>
</g>
</g>
<!-- Node13&#45;&gt;Node12 -->
<g id="edge18_Node000013_Node000012" class="edge">
<title>Node13&#45;&gt;Node12</title>
<g id="a_edge18_Node000013_Node000012"><a xlink:title=" ">
<path fill="none" stroke="#63b8ff" d="M350.23,-165.34C361.77,-157.46 378.77,-145.86 392.45,-136.52"/>
<polygon fill="#63b8ff" stroke="#63b8ff" points="394.17,-139.58 400.45,-131.06 390.22,-133.8 394.17,-139.58"/>
</a>
</g>
</g>
<!-- Node14 -->
<g id="Node000014" class="node">
<title>Node14</title>
<g id="a_Node000014"><a xlink:href="_content_8h.html" target="_top" xlink:title=" ">
<polygon fill="white" stroke="#666666" points="300.38,-129.75 241.62,-129.75 241.62,-110.5 300.38,-110.5 300.38,-129.75"/>
<text text-anchor="middle" x="271" y="-116.25" font-family="Helvetica,sans-Serif" font-size="10.00">Content.h</text>
</a>
</g>
</g>
<!-- Node13&#45;&gt;Node14 -->
<g id="edge20_Node000013_Node000014" class="edge">
<title>Node13&#45;&gt;Node14</title>
<g id="a_edge20_Node000013_Node000014"><a xlink:title=" ">
<path fill="none" stroke="#63b8ff" d="M325.8,-165.34C316.26,-157.65 302.33,-146.4 290.89,-137.18"/>
<polygon fill="#63b8ff" stroke="#63b8ff" points="293.19,-134.53 283.21,-130.98 288.79,-139.98 293.19,-134.53"/>
</a>
</g>
</g>
<!-- Node14&#45;&gt;Node2 -->
<g id="edge21_Node000014_Node000002" class="edge">
<title>Node14&#45;&gt;Node2</title>
<g id="a_edge21_Node000014_Node000002"><a xlink:title=" ">
<path fill="none" stroke="#63b8ff" d="M254.88,-110.09C240.42,-101.98 218.92,-89.93 202.02,-80.46"/>
<polygon fill="#63b8ff" stroke="#63b8ff" points="203.95,-77.53 193.51,-75.69 200.53,-83.64 203.95,-77.53"/>
</a>
</g>
</g>
<!-- Node14&#45;&gt;Node11 -->
<g id="edge22_Node000014_Node000011" class="edge">
<title>Node14&#45;&gt;Node11</title>
<g id="a_edge22_Node000014_Node000011"><a xlink:title=" ">
<path fill="none" stroke="#63b8ff" d="M289.32,-110.09C306.08,-101.83 331.13,-89.48 350.5,-79.93"/>
<polygon fill="#63b8ff" stroke="#63b8ff" points="351.81,-83.18 359.23,-75.62 348.72,-76.9 351.81,-83.18"/>
</a>
</g>
</g>
</g>
</svg>
