<?xml version="1.0" encoding="UTF-8" standalone="no"?>
<!DOCTYPE svg PUBLIC "-//W3C//DTD SVG 1.1//EN"
 "http://www.w3.org/Graphics/SVG/1.1/DTD/svg11.dtd">
<!-- Generated by graphviz version 12.1.2 (20240928.0832)
 -->
<!-- Title: /Users/felixschulke/Developement/Arduino/Modbus_RTU/Modbus_RTU/Modbus&#45;RTU/lib/Service/Content.h Pages: 1 -->
<svg width="1443pt" height="674pt"
 viewBox="0.00 0.00 1442.62 673.75" xmlns="http://www.w3.org/2000/svg" xmlns:xlink="http://www.w3.org/1999/xlink">
<g id="graph0" class="graph" transform="scale(1 1) rotate(0) translate(4 669.75)">
<title>/Users/felixschulke/Developement/Arduino/Modbus_RTU/Modbus_RTU/Modbus&#45;RTU/lib/Service/Content.h</title>
<!-- Node1 -->
<g id="Node000001" class="node">
<title>Node1</title>
<g id="a_Node000001"><a xlink:title=" ">
<polygon fill="#999999" stroke="#666666" points="725.38,-665.75 581.88,-665.75 581.88,-601.5 725.38,-601.5 725.38,-665.75"/>
<text text-anchor="start" x="589.88" y="-652.25" font-family="Helvetica,sans-Serif" font-size="10.00">/Users/felixschulke</text>
<text text-anchor="start" x="589.88" y="-641" font-family="Helvetica,sans-Serif" font-size="10.00">/Developement/Arduino</text>
<text text-anchor="start" x="589.88" y="-629.75" font-family="Helvetica,sans-Serif" font-size="10.00">/Modbus_RTU/Modbus_RTU</text>
<text text-anchor="start" x="589.88" y="-618.5" font-family="Helvetica,sans-Serif" font-size="10.00">/Modbus&#45;RTU/lib/Service</text>
<text text-anchor="middle" x="653.62" y="-607.25" font-family="Helvetica,sans-Serif" font-size="10.00">/Content.h</text>
</a>
</g>
</g>
<!-- Node2 -->
<g id="Node000002" class="node">
<title>Node2</title>
<g id="a_Node000002"><a xlink:href="_error_8h.html" target="_top" xlink:title=" ">
<polygon fill="white" stroke="#666666" points="442.25,-565.5 295,-565.5 295,-501.25 442.25,-501.25 442.25,-565.5"/>
<text text-anchor="start" x="303" y="-552" font-family="Helvetica,sans-Serif" font-size="10.00">/Users/felixschulke</text>
<text text-anchor="start" x="303" y="-540.75" font-family="Helvetica,sans-Serif" font-size="10.00">/Developement/Arduino</text>
<text text-anchor="start" x="303" y="-529.5" font-family="Helvetica,sans-Serif" font-size="10.00">/Modbus_RTU/Modbus_RTU</text>
<text text-anchor="start" x="303" y="-518.25" font-family="Helvetica,sans-Serif" font-size="10.00">/Modbus&#45;RTU/lib/ErrorService</text>
<text text-anchor="middle" x="368.62" y="-507" font-family="Helvetica,sans-Serif" font-size="10.00">/Error.h</text>
</a>
</g>
</g>
<!-- Node1&#45;&gt;Node2 -->
<g id="edge1_Node000001_Node000002" class="edge">
<title>Node1&#45;&gt;Node2</title>
<g id="a_edge1_Node000001_Node000002"><a xlink:title=" ">
<path fill="none" stroke="#63b8ff" d="M571.02,-604.15C530.41,-590.15 481.87,-573.42 442.51,-559.84"/>
<polygon fill="#63b8ff" stroke="#63b8ff" points="569.68,-607.39 580.28,-607.34 571.96,-600.77 569.68,-607.39"/>
</a>
</g>
</g>
<!-- Node16 -->
<g id="Node000016" class="node">
<title>Node16</title>
<g id="a_Node000016"><a xlink:href="_frame_8h.html" target="_top" xlink:title=" ">
<polygon fill="white" stroke="#666666" points="851.62,-459.62 691.62,-459.62 691.62,-406.62 851.62,-406.62 851.62,-459.62"/>
<text text-anchor="start" x="699.62" y="-446.12" font-family="Helvetica,sans-Serif" font-size="10.00">/Users/felixschulke</text>
<text text-anchor="start" x="699.62" y="-434.88" font-family="Helvetica,sans-Serif" font-size="10.00">/Developement/Arduino</text>
<text text-anchor="start" x="699.62" y="-423.62" font-family="Helvetica,sans-Serif" font-size="10.00">/Modbus_RTU/Modbus_RTU</text>
<text text-anchor="middle" x="771.62" y="-412.38" font-family="Helvetica,sans-Serif" font-size="10.00">/Modbus&#45;RTU/lib/Frame/Frame.h</text>
</a>
</g>
</g>
<!-- Node1&#45;&gt;Node16 -->
<g id="edge21_Node000001_Node000016" class="edge">
<title>Node1&#45;&gt;Node16</title>
<g id="a_edge21_Node000001_Node000016"><a xlink:title=" ">
<path fill="none" stroke="#63b8ff" d="M678.19,-591.31C701.68,-551.79 736.37,-493.42 756.21,-460.05"/>
<polygon fill="#63b8ff" stroke="#63b8ff" points="675.2,-589.49 673.1,-599.87 681.21,-593.06 675.2,-589.49"/>
</a>
</g>
</g>
<!-- Node20 -->
<g id="Node000020" class="node">
<title>Node20</title>
<g id="a_Node000020"><a xlink:href="_message_8h.html" target="_top" xlink:title=" ">
<polygon fill="white" stroke="#666666" points="1250.62,-465.25 1084.62,-465.25 1084.62,-401 1250.62,-401 1250.62,-465.25"/>
<text text-anchor="start" x="1092.62" y="-451.75" font-family="Helvetica,sans-Serif" font-size="10.00">/Users/felixschulke</text>
<text text-anchor="start" x="1092.62" y="-440.5" font-family="Helvetica,sans-Serif" font-size="10.00">/Developement/Arduino</text>
<text text-anchor="start" x="1092.62" y="-429.25" font-family="Helvetica,sans-Serif" font-size="10.00">/Modbus_RTU/Modbus_RTU</text>
<text text-anchor="start" x="1092.62" y="-418" font-family="Helvetica,sans-Serif" font-size="10.00">/Modbus&#45;RTU/lib/MessageService</text>
<text text-anchor="middle" x="1167.62" y="-406.75" font-family="Helvetica,sans-Serif" font-size="10.00">/Message.h</text>
</a>
</g>
</g>
<!-- Node1&#45;&gt;Node20 -->
<g id="edge28_Node000001_Node000020" class="edge">
<title>Node1&#45;&gt;Node20</title>
<g id="a_edge28_Node000001_Node000020"><a xlink:title=" ">
<path fill="none" stroke="#63b8ff" d="M736.18,-600.74C832.32,-563.61 990.15,-502.66 1085.92,-465.68"/>
<polygon fill="#63b8ff" stroke="#63b8ff" points="735.12,-597.4 727.05,-604.27 737.64,-603.93 735.12,-597.4"/>
</a>
</g>
</g>
<!-- Node24 -->
<g id="Node000024" class="node">
<title>Node24</title>
<g id="a_Node000024"><a xlink:href="_service_8h.html" target="_top" xlink:title=" ">
<polygon fill="white" stroke="#666666" points="673.38,-465.25 529.88,-465.25 529.88,-401 673.38,-401 673.38,-465.25"/>
<text text-anchor="start" x="537.88" y="-451.75" font-family="Helvetica,sans-Serif" font-size="10.00">/Users/felixschulke</text>
<text text-anchor="start" x="537.88" y="-440.5" font-family="Helvetica,sans-Serif" font-size="10.00">/Developement/Arduino</text>
<text text-anchor="start" x="537.88" y="-429.25" font-family="Helvetica,sans-Serif" font-size="10.00">/Modbus_RTU/Modbus_RTU</text>
<text text-anchor="start" x="537.88" y="-418" font-family="Helvetica,sans-Serif" font-size="10.00">/Modbus&#45;RTU/lib/Service</text>
<text text-anchor="middle" x="601.62" y="-406.75" font-family="Helvetica,sans-Serif" font-size="10.00">/Service.h</text>
</a>
</g>
</g>
<!-- Node1&#45;&gt;Node24 -->
<g id="edge34_Node000001_Node000024" class="edge">
<title>Node1&#45;&gt;Node24</title>
<g id="a_edge34_Node000001_Node000024"><a xlink:title=" ">
<path fill="none" stroke="#63b8ff" d="M642.49,-590.12C632.69,-552.69 618.63,-499.06 609.83,-465.43"/>
<polygon fill="#63b8ff" stroke="#63b8ff" points="639.08,-590.92 645,-599.71 645.85,-589.15 639.08,-590.92"/>
</a>
</g>
</g>
<!-- Node3 -->
<g id="Node000003" class="node">
<title>Node3</title>
<g id="a_Node000003"><a xlink:href="_error_8cpp.html" target="_top" xlink:title=" ">
<polygon fill="white" stroke="#666666" points="289.25,-465.25 142,-465.25 142,-401 289.25,-401 289.25,-465.25"/>
<text text-anchor="start" x="150" y="-451.75" font-family="Helvetica,sans-Serif" font-size="10.00">/Users/felixschulke</text>
<text text-anchor="start" x="150" y="-440.5" font-family="Helvetica,sans-Serif" font-size="10.00">/Developement/Arduino</text>
<text text-anchor="start" x="150" y="-429.25" font-family="Helvetica,sans-Serif" font-size="10.00">/Modbus_RTU/Modbus_RTU</text>
<text text-anchor="start" x="150" y="-418" font-family="Helvetica,sans-Serif" font-size="10.00">/Modbus&#45;RTU/lib/ErrorService</text>
<text text-anchor="middle" x="215.62" y="-406.75" font-family="Helvetica,sans-Serif" font-size="10.00">/Error.cpp</text>
</a>
</g>
</g>
<!-- Node2&#45;&gt;Node3 -->
<g id="edge2_Node000002_Node000003" class="edge">
<title>Node2&#45;&gt;Node3</title>
<g id="a_edge2_Node000002_Node000003"><a xlink:title=" ">
<path fill="none" stroke="#63b8ff" d="M310.13,-494.81C295.16,-485.2 279.22,-474.96 264.78,-465.69"/>
<polygon fill="#63b8ff" stroke="#63b8ff" points="308.21,-497.74 318.52,-500.2 312,-491.85 308.21,-497.74"/>
</a>
</g>
</g>
<!-- Node4 -->
<g id="Node000004" class="node">
<title>Node4</title>
<g id="a_Node000004"><a xlink:href="_error_service_8h.html" target="_top" xlink:title=" ">
<polygon fill="white" stroke="#666666" points="147.25,-365 0,-365 0,-300.75 147.25,-300.75 147.25,-365"/>
<text text-anchor="start" x="8" y="-351.5" font-family="Helvetica,sans-Serif" font-size="10.00">/Users/felixschulke</text>
<text text-anchor="start" x="8" y="-340.25" font-family="Helvetica,sans-Serif" font-size="10.00">/Developement/Arduino</text>
<text text-anchor="start" x="8" y="-329" font-family="Helvetica,sans-Serif" font-size="10.00">/Modbus_RTU/Modbus_RTU</text>
<text text-anchor="start" x="8" y="-317.75" font-family="Helvetica,sans-Serif" font-size="10.00">/Modbus&#45;RTU/lib/ErrorService</text>
<text text-anchor="middle" x="73.62" y="-306.5" font-family="Helvetica,sans-Serif" font-size="10.00">/ErrorService.h</text>
</a>
</g>
</g>
<!-- Node2&#45;&gt;Node4 -->
<g id="edge3_Node000002_Node000004" class="edge">
<title>Node2&#45;&gt;Node4</title>
<g id="a_edge3_Node000002_Node000004"><a xlink:title=" ">
<path fill="none" stroke="#63b8ff" d="M348.44,-490.49C330.71,-454.42 306.54,-407.2 298.62,-401 247.01,-360.61 218.14,-384.66 155.62,-365 153.01,-364.18 150.36,-363.32 147.69,-362.43"/>
<polygon fill="#63b8ff" stroke="#63b8ff" points="345.27,-491.99 352.81,-499.43 351.56,-488.91 345.27,-491.99"/>
</a>
</g>
</g>
<!-- Node10 -->
<g id="Node000010" class="node">
<title>Node10</title>
<g id="a_Node000010"><a xlink:href="_error_state_8h.html" target="_top" xlink:title=" ">
<polygon fill="white" stroke="#666666" points="493.25,-465.25 346,-465.25 346,-401 493.25,-401 493.25,-465.25"/>
<text text-anchor="start" x="354" y="-451.75" font-family="Helvetica,sans-Serif" font-size="10.00">/Users/felixschulke</text>
<text text-anchor="start" x="354" y="-440.5" font-family="Helvetica,sans-Serif" font-size="10.00">/Developement/Arduino</text>
<text text-anchor="start" x="354" y="-429.25" font-family="Helvetica,sans-Serif" font-size="10.00">/Modbus_RTU/Modbus_RTU</text>
<text text-anchor="start" x="354" y="-418" font-family="Helvetica,sans-Serif" font-size="10.00">/Modbus&#45;RTU/lib/ErrorService</text>
<text text-anchor="middle" x="419.62" y="-406.75" font-family="Helvetica,sans-Serif" font-size="10.00">/ErrorState.h</text>
</a>
</g>
</g>
<!-- Node2&#45;&gt;Node10 -->
<g id="edge10_Node000002_Node000010" class="edge">
<title>Node2&#45;&gt;Node10</title>
<g id="a_edge10_Node000002_Node000010"><a xlink:title=" ">
<path fill="none" stroke="#63b8ff" d="M390.16,-490.88C394.57,-482.39 399.14,-473.59 403.33,-465.52"/>
<polygon fill="#63b8ff" stroke="#63b8ff" points="387.1,-489.19 385.6,-499.67 393.31,-492.41 387.1,-489.19"/>
</a>
</g>
</g>
<!-- Node5 -->
<g id="Node000005" class="node">
<title>Node5</title>
<g id="a_Node000005"><a xlink:href="_error_service_8cpp.html" target="_top" xlink:title=" ">
<polygon fill="white" stroke="#666666" points="147.25,-264.75 0,-264.75 0,-200.5 147.25,-200.5 147.25,-264.75"/>
<text text-anchor="start" x="8" y="-251.25" font-family="Helvetica,sans-Serif" font-size="10.00">/Users/felixschulke</text>
<text text-anchor="start" x="8" y="-240" font-family="Helvetica,sans-Serif" font-size="10.00">/Developement/Arduino</text>
<text text-anchor="start" x="8" y="-228.75" font-family="Helvetica,sans-Serif" font-size="10.00">/Modbus_RTU/Modbus_RTU</text>
<text text-anchor="start" x="8" y="-217.5" font-family="Helvetica,sans-Serif" font-size="10.00">/Modbus&#45;RTU/lib/ErrorService</text>
<text text-anchor="middle" x="73.62" y="-206.25" font-family="Helvetica,sans-Serif" font-size="10.00">/ErrorService.cpp</text>
</a>
</g>
</g>
<!-- Node4&#45;&gt;Node5 -->
<g id="edge4_Node000004_Node000005" class="edge">
<title>Node4&#45;&gt;Node5</title>
<g id="a_edge4_Node000004_Node000005"><a xlink:title=" ">
<path fill="none" stroke="#63b8ff" d="M73.62,-289.26C73.62,-281.12 73.62,-272.73 73.62,-265.02"/>
<polygon fill="#63b8ff" stroke="#63b8ff" points="70.13,-289 73.63,-299 77.13,-289 70.13,-289"/>
</a>
</g>
</g>
<!-- Node6 -->
<g id="Node000006" class="node">
<title>Node6</title>
<g id="a_Node000006"><a xlink:href="_service_interface_8h.html" target="_top" xlink:title=" ">
<polygon fill="white" stroke="#666666" points="641.38,-264.75 497.88,-264.75 497.88,-200.5 641.38,-200.5 641.38,-264.75"/>
<text text-anchor="start" x="505.88" y="-251.25" font-family="Helvetica,sans-Serif" font-size="10.00">/Users/felixschulke</text>
<text text-anchor="start" x="505.88" y="-240" font-family="Helvetica,sans-Serif" font-size="10.00">/Developement/Arduino</text>
<text text-anchor="start" x="505.88" y="-228.75" font-family="Helvetica,sans-Serif" font-size="10.00">/Modbus_RTU/Modbus_RTU</text>
<text text-anchor="start" x="505.88" y="-217.5" font-family="Helvetica,sans-Serif" font-size="10.00">/Modbus&#45;RTU/lib/Interface</text>
<text text-anchor="middle" x="569.62" y="-206.25" font-family="Helvetica,sans-Serif" font-size="10.00">/ServiceInterface.h</text>
</a>
</g>
</g>
<!-- Node4&#45;&gt;Node6 -->
<g id="edge5_Node000004_Node000006" class="edge">
<title>Node4&#45;&gt;Node6</title>
<g id="a_edge5_Node000004_Node000006"><a xlink:title=" ">
<path fill="none" stroke="#63b8ff" d="M158.56,-300.28C302.57,-267.66 347.47,-298.89 488.62,-264.75 491.55,-264.04 494.52,-263.25 497.5,-262.4"/>
<polygon fill="#63b8ff" stroke="#63b8ff" points="157.97,-296.82 149.03,-302.5 159.56,-303.63 157.97,-296.82"/>
</a>
</g>
</g>
<!-- Node9 -->
<g id="Node000009" class="node">
<title>Node9</title>
<g id="a_Node000009"><a xlink:href="main_8cpp.html" target="_top" xlink:title="This main is an example&#45;implementation of a simple modbus&#45;messenger to demonstrate the usage of a lay...">
<polygon fill="white" stroke="#666666" points="528.38,-58.62 384.88,-58.62 384.88,-5.62 528.38,-5.62 528.38,-58.62"/>
<text text-anchor="start" x="392.88" y="-45.12" font-family="Helvetica,sans-Serif" font-size="10.00">/Users/felixschulke</text>
<text text-anchor="start" x="392.88" y="-33.88" font-family="Helvetica,sans-Serif" font-size="10.00">/Developement/Arduino</text>
<text text-anchor="start" x="392.88" y="-22.62" font-family="Helvetica,sans-Serif" font-size="10.00">/Modbus_RTU/Modbus_RTU</text>
<text text-anchor="middle" x="456.62" y="-11.38" font-family="Helvetica,sans-Serif" font-size="10.00">/Modbus&#45;RTU/src/main.cpp</text>
</a>
</g>
</g>
<!-- Node4&#45;&gt;Node9 -->
<g id="edge9_Node000004_Node000009" class="edge">
<title>Node4&#45;&gt;Node9</title>
<g id="a_edge9_Node000004_Node000009"><a xlink:title=" ">
<path fill="none" stroke="#63b8ff" d="M127.17,-293.31C137.57,-284.55 147.92,-274.84 156.62,-264.75 212.06,-200.48 187.56,-153.53 253.62,-100.25 291.19,-69.96 342.95,-53.12 384.8,-43.89"/>
<polygon fill="#63b8ff" stroke="#63b8ff" points="125.16,-290.43 119.63,-299.46 129.59,-295.85 125.16,-290.43"/>
</a>
</g>
</g>
<!-- Node7 -->
<g id="Node000007" class="node">
<title>Node7</title>
<g id="a_Node000007"><a xlink:href="_service_interface__modbus_r_t_u_8h.html" target="_top" xlink:title=" ">
<polygon fill="white" stroke="#666666" points="680.25,-164.5 521,-164.5 521,-100.25 680.25,-100.25 680.25,-164.5"/>
<text text-anchor="start" x="529" y="-151" font-family="Helvetica,sans-Serif" font-size="10.00">/Users/felixschulke</text>
<text text-anchor="start" x="529" y="-139.75" font-family="Helvetica,sans-Serif" font-size="10.00">/Developement/Arduino</text>
<text text-anchor="start" x="529" y="-128.5" font-family="Helvetica,sans-Serif" font-size="10.00">/Modbus_RTU/Modbus_RTU</text>
<text text-anchor="start" x="529" y="-117.25" font-family="Helvetica,sans-Serif" font-size="10.00">/Modbus&#45;RTU/lib/ModbusRTU</text>
<text text-anchor="middle" x="600.62" y="-106" font-family="Helvetica,sans-Serif" font-size="10.00">/ServiceInterface_modbusRTU.h</text>
</a>
</g>
</g>
<!-- Node6&#45;&gt;Node7 -->
<g id="edge6_Node000006_Node000007" class="edge">
<title>Node6&#45;&gt;Node7</title>
<g id="a_edge6_Node000006_Node000007"><a xlink:title=" ">
<path fill="none" stroke="#63b8ff" d="M582.98,-189.29C585.58,-181.06 588.26,-172.57 590.72,-164.77"/>
<polygon fill="#63b8ff" stroke="#63b8ff" points="579.65,-188.23 579.97,-198.82 586.32,-190.34 579.65,-188.23"/>
</a>
</g>
</g>
<!-- Node8 -->
<g id="Node000008" class="node">
<title>Node8</title>
<g id="a_Node000008"><a xlink:href="_service_interface__modbus_r_t_u_8cpp.html" target="_top" xlink:title=" ">
<polygon fill="white" stroke="#666666" points="716.5,-64.25 546.75,-64.25 546.75,0 716.5,0 716.5,-64.25"/>
<text text-anchor="start" x="554.75" y="-50.75" font-family="Helvetica,sans-Serif" font-size="10.00">/Users/felixschulke</text>
<text text-anchor="start" x="554.75" y="-39.5" font-family="Helvetica,sans-Serif" font-size="10.00">/Developement/Arduino</text>
<text text-anchor="start" x="554.75" y="-28.25" font-family="Helvetica,sans-Serif" font-size="10.00">/Modbus_RTU/Modbus_RTU</text>
<text text-anchor="start" x="554.75" y="-17" font-family="Helvetica,sans-Serif" font-size="10.00">/Modbus&#45;RTU/lib/ModbusRTU</text>
<text text-anchor="middle" x="631.62" y="-5.75" font-family="Helvetica,sans-Serif" font-size="10.00">/ServiceInterface_modbusRTU.cpp</text>
</a>
</g>
</g>
<!-- Node7&#45;&gt;Node8 -->
<g id="edge7_Node000007_Node000008" class="edge">
<title>Node7&#45;&gt;Node8</title>
<g id="a_edge7_Node000007_Node000008"><a xlink:title=" ">
<path fill="none" stroke="#63b8ff" d="M613.98,-89.04C616.58,-80.81 619.26,-72.32 621.72,-64.52"/>
<polygon fill="#63b8ff" stroke="#63b8ff" points="610.65,-87.98 610.97,-98.57 617.32,-90.09 610.65,-87.98"/>
</a>
</g>
</g>
<!-- Node7&#45;&gt;Node9 -->
<g id="edge8_Node000007_Node000009" class="edge">
<title>Node7&#45;&gt;Node9</title>
<g id="a_edge8_Node000007_Node000009"><a xlink:title=" ">
<path fill="none" stroke="#63b8ff" d="M545.37,-93.68C528.35,-82.06 510.01,-69.55 494.44,-58.93"/>
<polygon fill="#63b8ff" stroke="#63b8ff" points="543.18,-96.42 553.42,-99.16 547.13,-90.64 543.18,-96.42"/>
</a>
</g>
</g>
<!-- Node10&#45;&gt;Node6 -->
<g id="edge18_Node000010_Node000006" class="edge">
<title>Node10&#45;&gt;Node6</title>
<g id="a_edge18_Node000010_Node000006"><a xlink:title=" ">
<path fill="none" stroke="#63b8ff" d="M459.52,-392.48C467.54,-383.73 475.64,-374.3 482.62,-365 502.54,-338.47 502.38,-328.46 520.62,-300.75 528.48,-288.82 537.59,-276.08 545.81,-264.94"/>
<polygon fill="#63b8ff" stroke="#63b8ff" points="457.21,-389.82 452.93,-399.51 462.32,-394.61 457.21,-389.82"/>
</a>
</g>
</g>
<!-- Node11 -->
<g id="Node000011" class="node">
<title>Node11</title>
<g id="a_Node000011"><a xlink:href="_error_state_8cpp.html" target="_top" xlink:title=" ">
<polygon fill="white" stroke="#666666" points="312.25,-365 165,-365 165,-300.75 312.25,-300.75 312.25,-365"/>
<text text-anchor="start" x="173" y="-351.5" font-family="Helvetica,sans-Serif" font-size="10.00">/Users/felixschulke</text>
<text text-anchor="start" x="173" y="-340.25" font-family="Helvetica,sans-Serif" font-size="10.00">/Developement/Arduino</text>
<text text-anchor="start" x="173" y="-329" font-family="Helvetica,sans-Serif" font-size="10.00">/Modbus_RTU/Modbus_RTU</text>
<text text-anchor="start" x="173" y="-317.75" font-family="Helvetica,sans-Serif" font-size="10.00">/Modbus&#45;RTU/lib/ErrorService</text>
<text text-anchor="middle" x="238.62" y="-306.5" font-family="Helvetica,sans-Serif" font-size="10.00">/ErrorState.cpp</text>
</a>
</g>
</g>
<!-- Node10&#45;&gt;Node11 -->
<g id="edge11_Node000010_Node000011" class="edge">
<title>Node10&#45;&gt;Node11</title>
<g id="a_edge11_Node000010_Node000011"><a xlink:title=" ">
<path fill="none" stroke="#63b8ff" d="M351.94,-395.38C333.8,-385.54 314.35,-374.98 296.77,-365.44"/>
<polygon fill="#63b8ff" stroke="#63b8ff" points="350.07,-398.35 360.53,-400.05 353.41,-392.2 350.07,-398.35"/>
</a>
</g>
</g>
<!-- Node12 -->
<g id="Node000012" class="node">
<title>Node12</title>
<g id="a_Node000012"><a xlink:href="_comm_interface_8h.html" target="_top" xlink:title=" ">
<polygon fill="white" stroke="#666666" points="473.38,-365 329.88,-365 329.88,-300.75 473.38,-300.75 473.38,-365"/>
<text text-anchor="start" x="337.88" y="-351.5" font-family="Helvetica,sans-Serif" font-size="10.00">/Users/felixschulke</text>
<text text-anchor="start" x="337.88" y="-340.25" font-family="Helvetica,sans-Serif" font-size="10.00">/Developement/Arduino</text>
<text text-anchor="start" x="337.88" y="-329" font-family="Helvetica,sans-Serif" font-size="10.00">/Modbus_RTU/Modbus_RTU</text>
<text text-anchor="start" x="337.88" y="-317.75" font-family="Helvetica,sans-Serif" font-size="10.00">/Modbus&#45;RTU/lib/Interface</text>
<text text-anchor="middle" x="401.62" y="-306.5" font-family="Helvetica,sans-Serif" font-size="10.00">/CommInterface.h</text>
</a>
</g>
</g>
<!-- Node10&#45;&gt;Node12 -->
<g id="edge12_Node000010_Node000012" class="edge">
<title>Node10&#45;&gt;Node12</title>
<g id="a_edge12_Node000010_Node000012"><a xlink:title=" ">
<path fill="none" stroke="#63b8ff" d="M411.82,-389.51C410.33,-381.37 408.79,-372.98 407.38,-365.27"/>
<polygon fill="#63b8ff" stroke="#63b8ff" points="408.36,-390.07 413.61,-399.28 415.25,-388.81 408.36,-390.07"/>
</a>
</g>
</g>
<!-- Node15 -->
<g id="Node000015" class="node">
<title>Node15</title>
<g id="a_Node000015"><a xlink:href="_service_cluster_8h.html" target="_top" xlink:title=" ">
<polygon fill="white" stroke="#666666" points="673.38,-365 529.88,-365 529.88,-300.75 673.38,-300.75 673.38,-365"/>
<text text-anchor="start" x="537.88" y="-351.5" font-family="Helvetica,sans-Serif" font-size="10.00">/Users/felixschulke</text>
<text text-anchor="start" x="537.88" y="-340.25" font-family="Helvetica,sans-Serif" font-size="10.00">/Developement/Arduino</text>
<text text-anchor="start" x="537.88" y="-329" font-family="Helvetica,sans-Serif" font-size="10.00">/Modbus_RTU/Modbus_RTU</text>
<text text-anchor="start" x="537.88" y="-317.75" font-family="Helvetica,sans-Serif" font-size="10.00">/Modbus&#45;RTU/lib/Service</text>
<text text-anchor="middle" x="601.62" y="-306.5" font-family="Helvetica,sans-Serif" font-size="10.00">/ServiceCluster.h</text>
</a>
</g>
</g>
<!-- Node10&#45;&gt;Node15 -->
<g id="edge19_Node000010_Node000015" class="edge">
<title>Node10&#45;&gt;Node15</title>
<g id="a_edge19_Node000010_Node000015"><a xlink:title=" ">
<path fill="none" stroke="#63b8ff" d="M487.93,-395.25C506.15,-385.41 525.67,-374.88 543.31,-365.36"/>
<polygon fill="#63b8ff" stroke="#63b8ff" points="486.43,-392.08 479.29,-399.91 489.76,-398.24 486.43,-392.08"/>
</a>
</g>
</g>
<!-- Node12&#45;&gt;Node6 -->
<g id="edge13_Node000012_Node000006" class="edge">
<title>Node12&#45;&gt;Node6</title>
<g id="a_edge13_Node000012_Node000006"><a xlink:title=" ">
<path fill="none" stroke="#63b8ff" d="M464.92,-294.86C481.62,-285.09 499.49,-274.64 515.65,-265.19"/>
<polygon fill="#63b8ff" stroke="#63b8ff" points="463.41,-291.68 456.55,-299.75 466.95,-297.73 463.41,-291.68"/>
</a>
</g>
</g>
<!-- Node13 -->
<g id="Node000013" class="node">
<title>Node13</title>
<g id="a_Node000013"><a xlink:href="_comm_interface__modbus_r_t_u_8h.html" target="_top" xlink:title=" ">
<polygon fill="white" stroke="#666666" points="479.38,-264.75 323.88,-264.75 323.88,-200.5 479.38,-200.5 479.38,-264.75"/>
<text text-anchor="start" x="331.88" y="-251.25" font-family="Helvetica,sans-Serif" font-size="10.00">/Users/felixschulke</text>
<text text-anchor="start" x="331.88" y="-240" font-family="Helvetica,sans-Serif" font-size="10.00">/Developement/Arduino</text>
<text text-anchor="start" x="331.88" y="-228.75" font-family="Helvetica,sans-Serif" font-size="10.00">/Modbus_RTU/Modbus_RTU</text>
<text text-anchor="start" x="331.88" y="-217.5" font-family="Helvetica,sans-Serif" font-size="10.00">/Modbus&#45;RTU/lib/ModbusRTU</text>
<text text-anchor="middle" x="401.62" y="-206.25" font-family="Helvetica,sans-Serif" font-size="10.00">/CommInterface_modbusRTU.h</text>
</a>
</g>
</g>
<!-- Node12&#45;&gt;Node13 -->
<g id="edge14_Node000012_Node000013" class="edge">
<title>Node12&#45;&gt;Node13</title>
<g id="a_edge14_Node000012_Node000013"><a xlink:title=" ">
<path fill="none" stroke="#63b8ff" d="M401.62,-289.26C401.62,-281.12 401.62,-272.73 401.62,-265.02"/>
<polygon fill="#63b8ff" stroke="#63b8ff" points="398.13,-289 401.63,-299 405.13,-289 398.13,-289"/>
</a>
</g>
</g>
<!-- Node13&#45;&gt;Node7 -->
<g id="edge16_Node000013_Node000007" class="edge">
<title>Node13&#45;&gt;Node7</title>
<g id="a_edge16_Node000013_Node000007"><a xlink:title=" ">
<path fill="none" stroke="#63b8ff" d="M475.48,-195.16C495.64,-185.21 517.31,-174.51 536.86,-164.86"/>
<polygon fill="#63b8ff" stroke="#63b8ff" points="474.19,-191.9 466.77,-199.46 477.28,-198.17 474.19,-191.9"/>
</a>
</g>
</g>
<!-- Node13&#45;&gt;Node9 -->
<g id="edge17_Node000013_Node000009" class="edge">
<title>Node13&#45;&gt;Node9</title>
<g id="a_edge17_Node000013_Node000009"><a xlink:title=" ">
<path fill="none" stroke="#63b8ff" d="M426.77,-190.09C430.93,-181.83 434.81,-173.07 437.62,-164.5 449.3,-129.04 453.8,-85.85 455.54,-58.91"/>
<polygon fill="#63b8ff" stroke="#63b8ff" points="423.7,-188.4 422.11,-198.87 429.89,-191.68 423.7,-188.4"/>
</a>
</g>
</g>
<!-- Node14 -->
<g id="Node000014" class="node">
<title>Node14</title>
<g id="a_Node000014"><a xlink:href="_comm_interface__modbus_r_t_u_8cpp.html" target="_top" xlink:title=" ">
<polygon fill="white" stroke="#666666" points="428.62,-164.5 262.62,-164.5 262.62,-100.25 428.62,-100.25 428.62,-164.5"/>
<text text-anchor="start" x="270.62" y="-151" font-family="Helvetica,sans-Serif" font-size="10.00">/Users/felixschulke</text>
<text text-anchor="start" x="270.62" y="-139.75" font-family="Helvetica,sans-Serif" font-size="10.00">/Developement/Arduino</text>
<text text-anchor="start" x="270.62" y="-128.5" font-family="Helvetica,sans-Serif" font-size="10.00">/Modbus_RTU/Modbus_RTU</text>
<text text-anchor="start" x="270.62" y="-117.25" font-family="Helvetica,sans-Serif" font-size="10.00">/Modbus&#45;RTU/lib/ModbusRTU</text>
<text text-anchor="middle" x="345.62" y="-106" font-family="Helvetica,sans-Serif" font-size="10.00">/CommInterface_modbusRTU.cpp</text>
</a>
</g>
</g>
<!-- Node13&#45;&gt;Node14 -->
<g id="edge15_Node000013_Node000014" class="edge">
<title>Node13&#45;&gt;Node14</title>
<g id="a_edge15_Node000013_Node000014"><a xlink:title=" ">
<path fill="none" stroke="#63b8ff" d="M378.14,-190.41C373.25,-181.84 368.17,-172.93 363.52,-164.77"/>
<polygon fill="#63b8ff" stroke="#63b8ff" points="375.01,-192 383,-198.95 381.09,-188.53 375.01,-192"/>
</a>
</g>
</g>
<!-- Node15&#45;&gt;Node6 -->
<g id="edge20_Node000015_Node000006" class="edge">
<title>Node15&#45;&gt;Node6</title>
<g id="a_edge20_Node000015_Node000006"><a xlink:title=" ">
<path fill="none" stroke="#63b8ff" d="M587.93,-289.82C585.22,-281.51 582.42,-272.91 579.85,-265.02"/>
<polygon fill="#63b8ff" stroke="#63b8ff" points="584.52,-290.65 590.94,-299.08 591.17,-288.49 584.52,-290.65"/>
</a>
</g>
</g>
<!-- Node16&#45;&gt;Node6 -->
<g id="edge23_Node000016_Node000006" class="edge">
<title>Node16&#45;&gt;Node6</title>
<g id="a_edge23_Node000016_Node000006"><a xlink:title=" ">
<path fill="none" stroke="#63b8ff" d="M743.86,-397.17C736.09,-386.97 727.81,-375.69 720.62,-365 702.11,-337.47 706.06,-324.23 682.62,-300.75 668.92,-287.02 651.86,-275.01 635.18,-265.09"/>
<polygon fill="#63b8ff" stroke="#63b8ff" points="741,-399.19 749.88,-404.98 746.55,-394.92 741,-399.19"/>
</a>
</g>
</g>
<!-- Node16&#45;&gt;Node15 -->
<g id="edge27_Node000016_Node000015" class="edge">
<title>Node16&#45;&gt;Node15</title>
<g id="a_edge27_Node000016_Node000015"><a xlink:title=" ">
<path fill="none" stroke="#63b8ff" d="M717.05,-400.58C697.62,-389.35 675.74,-376.71 656.31,-365.48"/>
<polygon fill="#63b8ff" stroke="#63b8ff" points="715.24,-403.58 725.65,-405.55 718.74,-397.52 715.24,-403.58"/>
</a>
</g>
</g>
<!-- Node17 -->
<g id="Node000017" class="node">
<title>Node17</title>
<g id="a_Node000017"><a xlink:href="_frame_8cpp.html" target="_top" xlink:title=" ">
<polygon fill="white" stroke="#666666" points="1066.88,-359.38 896.38,-359.38 896.38,-306.38 1066.88,-306.38 1066.88,-359.38"/>
<text text-anchor="start" x="904.38" y="-345.88" font-family="Helvetica,sans-Serif" font-size="10.00">/Users/felixschulke</text>
<text text-anchor="start" x="904.38" y="-334.62" font-family="Helvetica,sans-Serif" font-size="10.00">/Developement/Arduino</text>
<text text-anchor="start" x="904.38" y="-323.38" font-family="Helvetica,sans-Serif" font-size="10.00">/Modbus_RTU/Modbus_RTU</text>
<text text-anchor="middle" x="981.62" y="-312.12" font-family="Helvetica,sans-Serif" font-size="10.00">/Modbus&#45;RTU/lib/Frame/Frame.cpp</text>
</a>
</g>
</g>
<!-- Node16&#45;&gt;Node17 -->
<g id="edge22_Node000016_Node000017" class="edge">
<title>Node16&#45;&gt;Node17</title>
<g id="a_edge22_Node000016_Node000017"><a xlink:title=" ">
<path fill="none" stroke="#63b8ff" d="M837.37,-401.37C865.9,-388.02 898.96,-372.55 926.23,-359.79"/>
<polygon fill="#63b8ff" stroke="#63b8ff" points="836.02,-398.13 828.45,-405.54 838.99,-404.47 836.02,-398.13"/>
</a>
</g>
</g>
<!-- Node18 -->
<g id="Node000018" class="node">
<title>Node18</title>
<g id="a_Node000018"><a xlink:href="_frame__modbus_r_t_u_8h.html" target="_top" xlink:title=" ">
<polygon fill="white" stroke="#666666" points="878,-365 729.25,-365 729.25,-300.75 878,-300.75 878,-365"/>
<text text-anchor="start" x="737.25" y="-351.5" font-family="Helvetica,sans-Serif" font-size="10.00">/Users/felixschulke</text>
<text text-anchor="start" x="737.25" y="-340.25" font-family="Helvetica,sans-Serif" font-size="10.00">/Developement/Arduino</text>
<text text-anchor="start" x="737.25" y="-329" font-family="Helvetica,sans-Serif" font-size="10.00">/Modbus_RTU/Modbus_RTU</text>
<text text-anchor="start" x="737.25" y="-317.75" font-family="Helvetica,sans-Serif" font-size="10.00">/Modbus&#45;RTU/lib/ModbusRTU</text>
<text text-anchor="middle" x="803.62" y="-306.5" font-family="Helvetica,sans-Serif" font-size="10.00">/Frame_modbusRTU.h</text>
</a>
</g>
</g>
<!-- Node16&#45;&gt;Node18 -->
<g id="edge24_Node000016_Node000018" class="edge">
<title>Node16&#45;&gt;Node18</title>
<g id="a_edge24_Node000016_Node000018"><a xlink:title=" ">
<path fill="none" stroke="#63b8ff" d="M783.54,-395.55C786.75,-385.67 790.21,-375.06 793.33,-365.48"/>
<polygon fill="#63b8ff" stroke="#63b8ff" points="780.27,-394.28 780.5,-404.87 786.93,-396.45 780.27,-394.28"/>
</a>
</g>
</g>
<!-- Node18&#45;&gt;Node7 -->
<g id="edge26_Node000018_Node000007" class="edge">
<title>Node18&#45;&gt;Node7</title>
<g id="a_edge26_Node000018_Node000007"><a xlink:title=" ">
<path fill="none" stroke="#63b8ff" d="M821.46,-289.66C830.19,-261.78 835.28,-225.83 816.62,-200.5 785.6,-158.37 728.35,-141.91 680.58,-135.81"/>
<polygon fill="#63b8ff" stroke="#63b8ff" points="818.23,-288.27 818.32,-298.87 824.86,-290.53 818.23,-288.27"/>
</a>
</g>
</g>
<!-- Node19 -->
<g id="Node000019" class="node">
<title>Node19</title>
<g id="a_Node000019"><a xlink:href="_frame__modbus_r_t_u_8cpp.html" target="_top" xlink:title=" ">
<polygon fill="white" stroke="#666666" points="808,-264.75 659.25,-264.75 659.25,-200.5 808,-200.5 808,-264.75"/>
<text text-anchor="start" x="667.25" y="-251.25" font-family="Helvetica,sans-Serif" font-size="10.00">/Users/felixschulke</text>
<text text-anchor="start" x="667.25" y="-240" font-family="Helvetica,sans-Serif" font-size="10.00">/Developement/Arduino</text>
<text text-anchor="start" x="667.25" y="-228.75" font-family="Helvetica,sans-Serif" font-size="10.00">/Modbus_RTU/Modbus_RTU</text>
<text text-anchor="start" x="667.25" y="-217.5" font-family="Helvetica,sans-Serif" font-size="10.00">/Modbus&#45;RTU/lib/ModbusRTU</text>
<text text-anchor="middle" x="733.62" y="-206.25" font-family="Helvetica,sans-Serif" font-size="10.00">/Frame_modbusRTU.cpp</text>
</a>
</g>
</g>
<!-- Node18&#45;&gt;Node19 -->
<g id="edge25_Node000018_Node000019" class="edge">
<title>Node18&#45;&gt;Node19</title>
<g id="a_edge25_Node000018_Node000019"><a xlink:title=" ">
<path fill="none" stroke="#63b8ff" d="M774.66,-291.22C768.43,-282.47 761.93,-273.35 755.99,-265.02"/>
<polygon fill="#63b8ff" stroke="#63b8ff" points="771.75,-293.17 780.41,-299.29 777.45,-289.11 771.75,-293.17"/>
</a>
</g>
</g>
<!-- Node21 -->
<g id="Node000021" class="node">
<title>Node21</title>
<g id="a_Node000021"><a xlink:href="_message_8cpp.html" target="_top" xlink:title=" ">
<polygon fill="white" stroke="#666666" points="1434.62,-365 1268.62,-365 1268.62,-300.75 1434.62,-300.75 1434.62,-365"/>
<text text-anchor="start" x="1276.62" y="-351.5" font-family="Helvetica,sans-Serif" font-size="10.00">/Users/felixschulke</text>
<text text-anchor="start" x="1276.62" y="-340.25" font-family="Helvetica,sans-Serif" font-size="10.00">/Developement/Arduino</text>
<text text-anchor="start" x="1276.62" y="-329" font-family="Helvetica,sans-Serif" font-size="10.00">/Modbus_RTU/Modbus_RTU</text>
<text text-anchor="start" x="1276.62" y="-317.75" font-family="Helvetica,sans-Serif" font-size="10.00">/Modbus&#45;RTU/lib/MessageService</text>
<text text-anchor="middle" x="1351.62" y="-306.5" font-family="Helvetica,sans-Serif" font-size="10.00">/Message.cpp</text>
</a>
</g>
</g>
<!-- Node20&#45;&gt;Node21 -->
<g id="edge29_Node000020_Node000021" class="edge">
<title>Node20&#45;&gt;Node21</title>
<g id="a_edge29_Node000020_Node000021"><a xlink:title=" ">
<path fill="none" stroke="#63b8ff" d="M1236.68,-395.25C1255.11,-385.41 1274.84,-374.88 1292.67,-365.36"/>
<polygon fill="#63b8ff" stroke="#63b8ff" points="1235.11,-392.12 1227.94,-399.92 1238.41,-398.3 1235.11,-392.12"/>
</a>
</g>
</g>
<!-- Node22 -->
<g id="Node000022" class="node">
<title>Node22</title>
<g id="a_Node000022"><a xlink:href="_message_service_8h.html" target="_top" xlink:title=" ">
<polygon fill="white" stroke="#666666" points="1250.62,-365 1084.62,-365 1084.62,-300.75 1250.62,-300.75 1250.62,-365"/>
<text text-anchor="start" x="1092.62" y="-351.5" font-family="Helvetica,sans-Serif" font-size="10.00">/Users/felixschulke</text>
<text text-anchor="start" x="1092.62" y="-340.25" font-family="Helvetica,sans-Serif" font-size="10.00">/Developement/Arduino</text>
<text text-anchor="start" x="1092.62" y="-329" font-family="Helvetica,sans-Serif" font-size="10.00">/Modbus_RTU/Modbus_RTU</text>
<text text-anchor="start" x="1092.62" y="-317.75" font-family="Helvetica,sans-Serif" font-size="10.00">/Modbus&#45;RTU/lib/MessageService</text>
<text text-anchor="middle" x="1167.62" y="-306.5" font-family="Helvetica,sans-Serif" font-size="10.00">/MessageService.h</text>
</a>
</g>
</g>
<!-- Node20&#45;&gt;Node22 -->
<g id="edge30_Node000020_Node000022" class="edge">
<title>Node20&#45;&gt;Node22</title>
<g id="a_edge30_Node000020_Node000022"><a xlink:title=" ">
<path fill="none" stroke="#63b8ff" d="M1167.62,-389.51C1167.62,-381.37 1167.62,-372.98 1167.62,-365.27"/>
<polygon fill="#63b8ff" stroke="#63b8ff" points="1164.13,-389.25 1167.63,-399.25 1171.13,-389.25 1164.13,-389.25"/>
</a>
</g>
</g>
<!-- Node22&#45;&gt;Node7 -->
<g id="edge32_Node000022_Node000007" class="edge">
<title>Node22&#45;&gt;Node7</title>
<g id="a_edge32_Node000022_Node000007"><a xlink:title=" ">
<path fill="none" stroke="#63b8ff" d="M1080.67,-296.21C999.16,-262.99 883.08,-216.28 836.62,-200.5 785.3,-183.06 726.69,-166.38 680.72,-154"/>
<polygon fill="#63b8ff" stroke="#63b8ff" points="1078.95,-299.29 1089.53,-299.83 1081.6,-292.81 1078.95,-299.29"/>
</a>
</g>
</g>
<!-- Node22&#45;&gt;Node9 -->
<g id="edge33_Node000022_Node000009" class="edge">
<title>Node22&#45;&gt;Node9</title>
<g id="a_edge33_Node000022_Node000009"><a xlink:title=" ">
<path fill="none" stroke="#63b8ff" d="M1104.81,-294.75C1057.39,-267.33 990.33,-229.82 929.62,-200.5 825.54,-150.22 799.57,-135.97 689.62,-100.25 623.6,-78.8 603.95,-84.75 537.62,-64.25 532.44,-62.65 527.12,-60.88 521.79,-59.03"/>
<polygon fill="#63b8ff" stroke="#63b8ff" points="1102.91,-297.69 1113.31,-299.68 1106.42,-291.64 1102.91,-297.69"/>
</a>
</g>
</g>
<!-- Node23 -->
<g id="Node000023" class="node">
<title>Node23</title>
<g id="a_Node000023"><a xlink:href="_message_service_8cpp.html" target="_top" xlink:title=" ">
<polygon fill="white" stroke="#666666" points="1250.62,-264.75 1084.62,-264.75 1084.62,-200.5 1250.62,-200.5 1250.62,-264.75"/>
<text text-anchor="start" x="1092.62" y="-251.25" font-family="Helvetica,sans-Serif" font-size="10.00">/Users/felixschulke</text>
<text text-anchor="start" x="1092.62" y="-240" font-family="Helvetica,sans-Serif" font-size="10.00">/Developement/Arduino</text>
<text text-anchor="start" x="1092.62" y="-228.75" font-family="Helvetica,sans-Serif" font-size="10.00">/Modbus_RTU/Modbus_RTU</text>
<text text-anchor="start" x="1092.62" y="-217.5" font-family="Helvetica,sans-Serif" font-size="10.00">/Modbus&#45;RTU/lib/MessageService</text>
<text text-anchor="middle" x="1167.62" y="-206.25" font-family="Helvetica,sans-Serif" font-size="10.00">/MessageService.cpp</text>
</a>
</g>
</g>
<!-- Node22&#45;&gt;Node23 -->
<g id="edge31_Node000022_Node000023" class="edge">
<title>Node22&#45;&gt;Node23</title>
<g id="a_edge31_Node000022_Node000023"><a xlink:title=" ">
<path fill="none" stroke="#63b8ff" d="M1167.62,-289.26C1167.62,-281.12 1167.62,-272.73 1167.62,-265.02"/>
<polygon fill="#63b8ff" stroke="#63b8ff" points="1164.13,-289 1167.63,-299 1171.13,-289 1164.13,-289"/>
</a>
</g>
</g>
<!-- Node24&#45;&gt;Node4 -->
<g id="edge35_Node000024_Node000004" class="edge">
<title>Node24&#45;&gt;Node4</title>
<g id="a_edge35_Node000024_Node000004"><a xlink:title=" ">
<path fill="none" stroke="#63b8ff" d="M518.59,-404.7C513.22,-403.33 507.86,-402.08 502.62,-401 350.79,-369.59 306.48,-400.81 155.62,-365 152.96,-364.37 150.26,-363.67 147.55,-362.92"/>
<polygon fill="#63b8ff" stroke="#63b8ff" points="517.59,-408.05 528.15,-407.25 519.4,-401.29 517.59,-408.05"/>
</a>
</g>
</g>
<!-- Node24&#45;&gt;Node15 -->
<g id="edge37_Node000024_Node000015" class="edge">
<title>Node24&#45;&gt;Node15</title>
<g id="a_edge37_Node000024_Node000015"><a xlink:title=" ">
<path fill="none" stroke="#63b8ff" d="M601.62,-389.51C601.62,-381.37 601.62,-372.98 601.62,-365.27"/>
<polygon fill="#63b8ff" stroke="#63b8ff" points="598.13,-389.25 601.63,-399.25 605.13,-389.25 598.13,-389.25"/>
</a>
</g>
</g>
<!-- Node24&#45;&gt;Node22 -->
<g id="edge36_Node000024_Node000022" class="edge">
<title>Node24&#45;&gt;Node22</title>
<g id="a_edge36_Node000024_Node000022"><a xlink:title=" ">
<path fill="none" stroke="#63b8ff" d="M684.89,-400.74C855.62,-362.82 907.64,-400.59 1075.62,-365 1078.51,-364.39 1081.43,-363.71 1084.37,-362.99"/>
<polygon fill="#63b8ff" stroke="#63b8ff" points="684.18,-397.31 675.21,-402.95 685.74,-404.13 684.18,-397.31"/>
</a>
</g>
</g>
</g>
</svg>
