<?xml version="1.0" encoding="UTF-8" standalone="no"?>
<!DOCTYPE svg PUBLIC "-//W3C//DTD SVG 1.1//EN"
 "http://www.w3.org/Graphics/SVG/1.1/DTD/svg11.dtd">
<!-- Generated by graphviz version 12.1.2 (20240928.0832)
 -->
<!-- Title: /Users/felixschulke/Developement/Arduino/Modbus_RTU/Modbus_RTU/Modbus&#45;RTU/lib/Service/Content.h Pages: 1 -->
<svg width="1277pt" height="674pt"
 viewBox="0.00 0.00 1276.75 673.75" xmlns="http://www.w3.org/2000/svg" xmlns:xlink="http://www.w3.org/1999/xlink">
<g id="graph0" class="graph" transform="scale(1 1) rotate(0) translate(4 669.75)">
<title>/Users/felixschulke/Developement/Arduino/Modbus_RTU/Modbus_RTU/Modbus&#45;RTU/lib/Service/Content.h</title>
<!-- Node1 -->
<g id="Node000001" class="node">
<title>Node1</title>
<g id="a_Node000001"><a xlink:title=" ">
<polygon fill="#999999" stroke="#666666" points="818.5,-665.75 675,-665.75 675,-601.5 818.5,-601.5 818.5,-665.75"/>
<text text-anchor="start" x="683" y="-652.25" font-family="Helvetica,sans-Serif" font-size="10.00">/Users/felixschulke</text>
<text text-anchor="start" x="683" y="-641" font-family="Helvetica,sans-Serif" font-size="10.00">/Developement/Arduino</text>
<text text-anchor="start" x="683" y="-629.75" font-family="Helvetica,sans-Serif" font-size="10.00">/Modbus_RTU/Modbus_RTU</text>
<text text-anchor="start" x="683" y="-618.5" font-family="Helvetica,sans-Serif" font-size="10.00">/Modbus&#45;RTU/lib/Service</text>
<text text-anchor="middle" x="746.75" y="-607.25" font-family="Helvetica,sans-Serif" font-size="10.00">/Content.h</text>
</a>
</g>
</g>
<!-- Node2 -->
<g id="Node000002" class="node">
<title>Node2</title>
<g id="a_Node000002"><a xlink:href="_error_8h.html" target="_top" xlink:title=" ">
<polygon fill="white" stroke="#666666" points="531.38,-565.5 384.12,-565.5 384.12,-501.25 531.38,-501.25 531.38,-565.5"/>
<text text-anchor="start" x="392.12" y="-552" font-family="Helvetica,sans-Serif" font-size="10.00">/Users/felixschulke</text>
<text text-anchor="start" x="392.12" y="-540.75" font-family="Helvetica,sans-Serif" font-size="10.00">/Developement/Arduino</text>
<text text-anchor="start" x="392.12" y="-529.5" font-family="Helvetica,sans-Serif" font-size="10.00">/Modbus_RTU/Modbus_RTU</text>
<text text-anchor="start" x="392.12" y="-518.25" font-family="Helvetica,sans-Serif" font-size="10.00">/Modbus&#45;RTU/lib/ErrorService</text>
<text text-anchor="middle" x="457.75" y="-507" font-family="Helvetica,sans-Serif" font-size="10.00">/Error.h</text>
</a>
</g>
</g>
<!-- Node1&#45;&gt;Node2 -->
<g id="edge1_Node000001_Node000002" class="edge">
<title>Node1&#45;&gt;Node2</title>
<g id="a_edge1_Node000001_Node000002"><a xlink:title=" ">
<path fill="none" stroke="#63b8ff" d="M663.89,-604.46C622.22,-590.29 572.14,-573.26 531.78,-559.54"/>
<polygon fill="#63b8ff" stroke="#63b8ff" points="662.54,-607.69 673.14,-607.6 664.79,-601.07 662.54,-607.69"/>
</a>
</g>
</g>
<!-- Node15 -->
<g id="Node000015" class="node">
<title>Node15</title>
<g id="a_Node000015"><a xlink:href="_frame_8h.html" target="_top" xlink:title=" ">
<polygon fill="white" stroke="#666666" points="851.75,-359.38 691.75,-359.38 691.75,-306.38 851.75,-306.38 851.75,-359.38"/>
<text text-anchor="start" x="699.75" y="-345.88" font-family="Helvetica,sans-Serif" font-size="10.00">/Users/felixschulke</text>
<text text-anchor="start" x="699.75" y="-334.62" font-family="Helvetica,sans-Serif" font-size="10.00">/Developement/Arduino</text>
<text text-anchor="start" x="699.75" y="-323.38" font-family="Helvetica,sans-Serif" font-size="10.00">/Modbus_RTU/Modbus_RTU</text>
<text text-anchor="middle" x="771.75" y="-312.12" font-family="Helvetica,sans-Serif" font-size="10.00">/Modbus&#45;RTU/lib/Frame/Frame.h</text>
</a>
</g>
</g>
<!-- Node1&#45;&gt;Node15 -->
<g id="edge19_Node000001_Node000015" class="edge">
<title>Node1&#45;&gt;Node15</title>
<g id="a_edge19_Node000001_Node000015"><a xlink:title=" ">
<path fill="none" stroke="#63b8ff" d="M750.31,-590.12C755.57,-527.2 765.28,-411.2 769.59,-359.69"/>
<polygon fill="#63b8ff" stroke="#63b8ff" points="746.85,-589.45 749.5,-599.71 753.83,-590.04 746.85,-589.45"/>
</a>
</g>
</g>
<!-- Node19 -->
<g id="Node000019" class="node">
<title>Node19</title>
<g id="a_Node000019"><a xlink:href="_message_8h.html" target="_top" xlink:title=" ">
<polygon fill="white" stroke="#666666" points="1084.75,-465.25 918.75,-465.25 918.75,-401 1084.75,-401 1084.75,-465.25"/>
<text text-anchor="start" x="926.75" y="-451.75" font-family="Helvetica,sans-Serif" font-size="10.00">/Users/felixschulke</text>
<text text-anchor="start" x="926.75" y="-440.5" font-family="Helvetica,sans-Serif" font-size="10.00">/Developement/Arduino</text>
<text text-anchor="start" x="926.75" y="-429.25" font-family="Helvetica,sans-Serif" font-size="10.00">/Modbus_RTU/Modbus_RTU</text>
<text text-anchor="start" x="926.75" y="-418" font-family="Helvetica,sans-Serif" font-size="10.00">/Modbus&#45;RTU/lib/MessageService</text>
<text text-anchor="middle" x="1001.75" y="-406.75" font-family="Helvetica,sans-Serif" font-size="10.00">/Message.h</text>
</a>
</g>
</g>
<!-- Node1&#45;&gt;Node19 -->
<g id="edge25_Node000001_Node000019" class="edge">
<title>Node1&#45;&gt;Node19</title>
<g id="a_edge25_Node000001_Node000019"><a xlink:title=" ">
<path fill="none" stroke="#63b8ff" d="M796.16,-594.16C844.35,-556.65 916.75,-500.29 961.53,-465.43"/>
<polygon fill="#63b8ff" stroke="#63b8ff" points="794.09,-591.34 788.35,-600.24 798.39,-596.86 794.09,-591.34"/>
</a>
</g>
</g>
<!-- Node23 -->
<g id="Node000023" class="node">
<title>Node23</title>
<g id="a_Node000023"><a xlink:href="_service_8h.html" target="_top" xlink:title=" ">
<polygon fill="white" stroke="#666666" points="743.5,-465.25 600,-465.25 600,-401 743.5,-401 743.5,-465.25"/>
<text text-anchor="start" x="608" y="-451.75" font-family="Helvetica,sans-Serif" font-size="10.00">/Users/felixschulke</text>
<text text-anchor="start" x="608" y="-440.5" font-family="Helvetica,sans-Serif" font-size="10.00">/Developement/Arduino</text>
<text text-anchor="start" x="608" y="-429.25" font-family="Helvetica,sans-Serif" font-size="10.00">/Modbus_RTU/Modbus_RTU</text>
<text text-anchor="start" x="608" y="-418" font-family="Helvetica,sans-Serif" font-size="10.00">/Modbus&#45;RTU/lib/Service</text>
<text text-anchor="middle" x="671.75" y="-406.75" font-family="Helvetica,sans-Serif" font-size="10.00">/Service.h</text>
</a>
</g>
</g>
<!-- Node1&#45;&gt;Node23 -->
<g id="edge31_Node000001_Node000023" class="edge">
<title>Node1&#45;&gt;Node23</title>
<g id="a_edge31_Node000001_Node000023"><a xlink:title=" ">
<path fill="none" stroke="#63b8ff" d="M730.87,-590.6C716.72,-553.16 696.34,-499.2 683.58,-465.43"/>
<polygon fill="#63b8ff" stroke="#63b8ff" points="727.52,-591.64 734.33,-599.76 734.07,-589.16 727.52,-591.64"/>
</a>
</g>
</g>
<!-- Node3 -->
<g id="Node000003" class="node">
<title>Node3</title>
<g id="a_Node000003"><a xlink:href="_error_8cpp.html" target="_top" xlink:title=" ">
<polygon fill="white" stroke="#666666" points="582.38,-465.25 435.12,-465.25 435.12,-401 582.38,-401 582.38,-465.25"/>
<text text-anchor="start" x="443.12" y="-451.75" font-family="Helvetica,sans-Serif" font-size="10.00">/Users/felixschulke</text>
<text text-anchor="start" x="443.12" y="-440.5" font-family="Helvetica,sans-Serif" font-size="10.00">/Developement/Arduino</text>
<text text-anchor="start" x="443.12" y="-429.25" font-family="Helvetica,sans-Serif" font-size="10.00">/Modbus_RTU/Modbus_RTU</text>
<text text-anchor="start" x="443.12" y="-418" font-family="Helvetica,sans-Serif" font-size="10.00">/Modbus&#45;RTU/lib/ErrorService</text>
<text text-anchor="middle" x="508.75" y="-406.75" font-family="Helvetica,sans-Serif" font-size="10.00">/Error.cpp</text>
</a>
</g>
</g>
<!-- Node2&#45;&gt;Node3 -->
<g id="edge2_Node000002_Node000003" class="edge">
<title>Node2&#45;&gt;Node3</title>
<g id="a_edge2_Node000002_Node000003"><a xlink:title=" ">
<path fill="none" stroke="#63b8ff" d="M479.29,-490.88C483.7,-482.39 488.27,-473.59 492.45,-465.52"/>
<polygon fill="#63b8ff" stroke="#63b8ff" points="476.23,-489.19 474.72,-499.67 482.44,-492.41 476.23,-489.19"/>
</a>
</g>
</g>
<!-- Node4 -->
<g id="Node000004" class="node">
<title>Node4</title>
<g id="a_Node000004"><a xlink:href="_error_service_8h.html" target="_top" xlink:title=" ">
<polygon fill="white" stroke="#666666" points="673.38,-365 526.12,-365 526.12,-300.75 673.38,-300.75 673.38,-365"/>
<text text-anchor="start" x="534.12" y="-351.5" font-family="Helvetica,sans-Serif" font-size="10.00">/Users/felixschulke</text>
<text text-anchor="start" x="534.12" y="-340.25" font-family="Helvetica,sans-Serif" font-size="10.00">/Developement/Arduino</text>
<text text-anchor="start" x="534.12" y="-329" font-family="Helvetica,sans-Serif" font-size="10.00">/Modbus_RTU/Modbus_RTU</text>
<text text-anchor="start" x="534.12" y="-317.75" font-family="Helvetica,sans-Serif" font-size="10.00">/Modbus&#45;RTU/lib/ErrorService</text>
<text text-anchor="middle" x="599.75" y="-306.5" font-family="Helvetica,sans-Serif" font-size="10.00">/ErrorService.h</text>
</a>
</g>
</g>
<!-- Node2&#45;&gt;Node4 -->
<g id="edge3_Node000002_Node000004" class="edge">
<title>Node2&#45;&gt;Node4</title>
<g id="a_edge3_Node000002_Node000004"><a xlink:title=" ">
<path fill="none" stroke="#63b8ff" d="M431.64,-490.79C418,-463.28 407.56,-427.52 425.75,-401 426.15,-400.41 478.52,-380.25 525.7,-362.18"/>
<polygon fill="#63b8ff" stroke="#63b8ff" points="428.5,-492.35 436.27,-499.56 434.69,-489.08 428.5,-492.35"/>
</a>
</g>
</g>
<!-- Node10 -->
<g id="Node000010" class="node">
<title>Node10</title>
<g id="a_Node000010"><a xlink:href="_error_state_8h.html" target="_top" xlink:title=" ">
<polygon fill="white" stroke="#666666" points="296.38,-465.25 149.12,-465.25 149.12,-401 296.38,-401 296.38,-465.25"/>
<text text-anchor="start" x="157.12" y="-451.75" font-family="Helvetica,sans-Serif" font-size="10.00">/Users/felixschulke</text>
<text text-anchor="start" x="157.12" y="-440.5" font-family="Helvetica,sans-Serif" font-size="10.00">/Developement/Arduino</text>
<text text-anchor="start" x="157.12" y="-429.25" font-family="Helvetica,sans-Serif" font-size="10.00">/Modbus_RTU/Modbus_RTU</text>
<text text-anchor="start" x="157.12" y="-418" font-family="Helvetica,sans-Serif" font-size="10.00">/Modbus&#45;RTU/lib/ErrorService</text>
<text text-anchor="middle" x="222.75" y="-406.75" font-family="Helvetica,sans-Serif" font-size="10.00">/ErrorState.h</text>
</a>
</g>
</g>
<!-- Node2&#45;&gt;Node10 -->
<g id="edge10_Node000002_Node000010" class="edge">
<title>Node2&#45;&gt;Node10</title>
<g id="a_edge10_Node000002_Node000010"><a xlink:title=" ">
<path fill="none" stroke="#63b8ff" d="M373.16,-497.01C348.19,-486.57 321.07,-475.23 296.81,-465.09"/>
<polygon fill="#63b8ff" stroke="#63b8ff" points="371.74,-500.21 382.32,-500.84 374.44,-493.75 371.74,-500.21"/>
</a>
</g>
</g>
<!-- Node5 -->
<g id="Node000005" class="node">
<title>Node5</title>
<g id="a_Node000005"><a xlink:href="_error_service_8cpp.html" target="_top" xlink:title=" ">
<polygon fill="white" stroke="#666666" points="618.38,-264.75 471.12,-264.75 471.12,-200.5 618.38,-200.5 618.38,-264.75"/>
<text text-anchor="start" x="479.12" y="-251.25" font-family="Helvetica,sans-Serif" font-size="10.00">/Users/felixschulke</text>
<text text-anchor="start" x="479.12" y="-240" font-family="Helvetica,sans-Serif" font-size="10.00">/Developement/Arduino</text>
<text text-anchor="start" x="479.12" y="-228.75" font-family="Helvetica,sans-Serif" font-size="10.00">/Modbus_RTU/Modbus_RTU</text>
<text text-anchor="start" x="479.12" y="-217.5" font-family="Helvetica,sans-Serif" font-size="10.00">/Modbus&#45;RTU/lib/ErrorService</text>
<text text-anchor="middle" x="544.75" y="-206.25" font-family="Helvetica,sans-Serif" font-size="10.00">/ErrorService.cpp</text>
</a>
</g>
</g>
<!-- Node4&#45;&gt;Node5 -->
<g id="edge4_Node000004_Node000005" class="edge">
<title>Node4&#45;&gt;Node5</title>
<g id="a_edge4_Node000004_Node000005"><a xlink:title=" ">
<path fill="none" stroke="#63b8ff" d="M576.68,-290.66C571.88,-282.09 566.89,-273.18 562.33,-265.02"/>
<polygon fill="#63b8ff" stroke="#63b8ff" points="573.52,-292.18 581.46,-299.2 579.63,-288.76 573.52,-292.18"/>
</a>
</g>
</g>
<!-- Node6 -->
<g id="Node000006" class="node">
<title>Node6</title>
<g id="a_Node000006"><a xlink:href="_service_interface_8h.html" target="_top" xlink:title=" ">
<polygon fill="white" stroke="#666666" points="414.5,-264.75 271,-264.75 271,-200.5 414.5,-200.5 414.5,-264.75"/>
<text text-anchor="start" x="279" y="-251.25" font-family="Helvetica,sans-Serif" font-size="10.00">/Users/felixschulke</text>
<text text-anchor="start" x="279" y="-240" font-family="Helvetica,sans-Serif" font-size="10.00">/Developement/Arduino</text>
<text text-anchor="start" x="279" y="-228.75" font-family="Helvetica,sans-Serif" font-size="10.00">/Modbus_RTU/Modbus_RTU</text>
<text text-anchor="start" x="279" y="-217.5" font-family="Helvetica,sans-Serif" font-size="10.00">/Modbus&#45;RTU/lib/Interface</text>
<text text-anchor="middle" x="342.75" y="-206.25" font-family="Helvetica,sans-Serif" font-size="10.00">/ServiceInterface.h</text>
</a>
</g>
</g>
<!-- Node4&#45;&gt;Node6 -->
<g id="edge5_Node000004_Node000006" class="edge">
<title>Node4&#45;&gt;Node6</title>
<g id="a_edge5_Node000004_Node000006"><a xlink:title=" ">
<path fill="none" stroke="#63b8ff" d="M515.38,-299.62C482.89,-287.2 446.12,-273.14 414.89,-261.2"/>
<polygon fill="#63b8ff" stroke="#63b8ff" points="513.76,-302.75 524.35,-303.05 516.26,-296.21 513.76,-302.75"/>
</a>
</g>
</g>
<!-- Node9 -->
<g id="Node000009" class="node">
<title>Node9</title>
<g id="a_Node000009"><a xlink:href="main_8cpp.html" target="_top" xlink:title="This main is an example&#45;implementation of a simple modbus&#45;messenger to demonstrate the usage of a lay...">
<polygon fill="white" stroke="#666666" points="514.5,-58.62 371,-58.62 371,-5.62 514.5,-5.62 514.5,-58.62"/>
<text text-anchor="start" x="379" y="-45.12" font-family="Helvetica,sans-Serif" font-size="10.00">/Users/felixschulke</text>
<text text-anchor="start" x="379" y="-33.88" font-family="Helvetica,sans-Serif" font-size="10.00">/Developement/Arduino</text>
<text text-anchor="start" x="379" y="-22.62" font-family="Helvetica,sans-Serif" font-size="10.00">/Modbus_RTU/Modbus_RTU</text>
<text text-anchor="middle" x="442.75" y="-11.38" font-family="Helvetica,sans-Serif" font-size="10.00">/Modbus&#45;RTU/src/main.cpp</text>
</a>
</g>
</g>
<!-- Node4&#45;&gt;Node9 -->
<g id="edge9_Node000004_Node000009" class="edge">
<title>Node4&#45;&gt;Node9</title>
<g id="a_edge9_Node000004_Node000009"><a xlink:title=" ">
<path fill="none" stroke="#63b8ff" d="M515.68,-299.19C491.27,-288 469.15,-275.57 461.75,-264.75 418.58,-201.64 428.91,-105.05 437.19,-59.12"/>
<polygon fill="#63b8ff" stroke="#63b8ff" points="513.94,-302.24 524.49,-303.12 516.79,-295.85 513.94,-302.24"/>
</a>
</g>
</g>
<!-- Node7 -->
<g id="Node000007" class="node">
<title>Node7</title>
<g id="a_Node000007"><a xlink:href="_service_interface__modbus_r_t_u_8h.html" target="_top" xlink:title=" ">
<polygon fill="white" stroke="#666666" points="664.38,-164.5 505.12,-164.5 505.12,-100.25 664.38,-100.25 664.38,-164.5"/>
<text text-anchor="start" x="513.12" y="-151" font-family="Helvetica,sans-Serif" font-size="10.00">/Users/felixschulke</text>
<text text-anchor="start" x="513.12" y="-139.75" font-family="Helvetica,sans-Serif" font-size="10.00">/Developement/Arduino</text>
<text text-anchor="start" x="513.12" y="-128.5" font-family="Helvetica,sans-Serif" font-size="10.00">/Modbus_RTU/Modbus_RTU</text>
<text text-anchor="start" x="513.12" y="-117.25" font-family="Helvetica,sans-Serif" font-size="10.00">/Modbus&#45;RTU/lib/ModbusRTU</text>
<text text-anchor="middle" x="584.75" y="-106" font-family="Helvetica,sans-Serif" font-size="10.00">/ServiceInterface_modbusRTU.h</text>
</a>
</g>
</g>
<!-- Node6&#45;&gt;Node7 -->
<g id="edge6_Node000006_Node000007" class="edge">
<title>Node6&#45;&gt;Node7</title>
<g id="a_edge6_Node000006_Node000007"><a xlink:title=" ">
<path fill="none" stroke="#63b8ff" d="M425.11,-198.19C451.66,-187.41 480.98,-175.5 507.17,-164.87"/>
<polygon fill="#63b8ff" stroke="#63b8ff" points="424.05,-194.84 416.11,-201.84 426.69,-201.32 424.05,-194.84"/>
</a>
</g>
</g>
<!-- Node8 -->
<g id="Node000008" class="node">
<title>Node8</title>
<g id="a_Node000008"><a xlink:href="_service_interface__modbus_r_t_u_8cpp.html" target="_top" xlink:title=" ">
<polygon fill="white" stroke="#666666" points="702.62,-64.25 532.88,-64.25 532.88,0 702.62,0 702.62,-64.25"/>
<text text-anchor="start" x="540.88" y="-50.75" font-family="Helvetica,sans-Serif" font-size="10.00">/Users/felixschulke</text>
<text text-anchor="start" x="540.88" y="-39.5" font-family="Helvetica,sans-Serif" font-size="10.00">/Developement/Arduino</text>
<text text-anchor="start" x="540.88" y="-28.25" font-family="Helvetica,sans-Serif" font-size="10.00">/Modbus_RTU/Modbus_RTU</text>
<text text-anchor="start" x="540.88" y="-17" font-family="Helvetica,sans-Serif" font-size="10.00">/Modbus&#45;RTU/lib/ModbusRTU</text>
<text text-anchor="middle" x="617.75" y="-5.75" font-family="Helvetica,sans-Serif" font-size="10.00">/ServiceInterface_modbusRTU.cpp</text>
</a>
</g>
</g>
<!-- Node7&#45;&gt;Node8 -->
<g id="edge7_Node000007_Node000008" class="edge">
<title>Node7&#45;&gt;Node8</title>
<g id="a_edge7_Node000007_Node000008"><a xlink:title=" ">
<path fill="none" stroke="#63b8ff" d="M598.87,-89.32C601.67,-81.01 604.55,-72.41 607.2,-64.52"/>
<polygon fill="#63b8ff" stroke="#63b8ff" points="595.63,-87.99 595.76,-98.58 602.27,-90.22 595.63,-87.99"/>
</a>
</g>
</g>
<!-- Node7&#45;&gt;Node9 -->
<g id="edge8_Node000007_Node000009" class="edge">
<title>Node7&#45;&gt;Node9</title>
<g id="a_edge8_Node000007_Node000009"><a xlink:title=" ">
<path fill="none" stroke="#63b8ff" d="M530.27,-93.68C513.48,-82.06 495.39,-69.55 480.04,-58.93"/>
<polygon fill="#63b8ff" stroke="#63b8ff" points="527.97,-96.35 538.19,-99.16 531.95,-90.59 527.97,-96.35"/>
</a>
</g>
</g>
<!-- Node10&#45;&gt;Node6 -->
<g id="edge18_Node000010_Node000006" class="edge">
<title>Node10&#45;&gt;Node6</title>
<g id="a_edge18_Node000010_Node000006"><a xlink:title=" ">
<path fill="none" stroke="#63b8ff" d="M196.92,-390.55C183.52,-363.19 173.25,-327.61 190.75,-300.75 195.79,-293.02 233.79,-276.23 270.53,-261.39"/>
<polygon fill="#63b8ff" stroke="#63b8ff" points="193.73,-392.01 201.46,-399.26 199.94,-388.77 193.73,-392.01"/>
</a>
</g>
</g>
<!-- Node11 -->
<g id="Node000011" class="node">
<title>Node11</title>
<g id="a_Node000011"><a xlink:href="_error_state_8cpp.html" target="_top" xlink:title=" ">
<polygon fill="white" stroke="#666666" points="347.38,-365 200.12,-365 200.12,-300.75 347.38,-300.75 347.38,-365"/>
<text text-anchor="start" x="208.12" y="-351.5" font-family="Helvetica,sans-Serif" font-size="10.00">/Users/felixschulke</text>
<text text-anchor="start" x="208.12" y="-340.25" font-family="Helvetica,sans-Serif" font-size="10.00">/Developement/Arduino</text>
<text text-anchor="start" x="208.12" y="-329" font-family="Helvetica,sans-Serif" font-size="10.00">/Modbus_RTU/Modbus_RTU</text>
<text text-anchor="start" x="208.12" y="-317.75" font-family="Helvetica,sans-Serif" font-size="10.00">/Modbus&#45;RTU/lib/ErrorService</text>
<text text-anchor="middle" x="273.75" y="-306.5" font-family="Helvetica,sans-Serif" font-size="10.00">/ErrorState.cpp</text>
</a>
</g>
</g>
<!-- Node10&#45;&gt;Node11 -->
<g id="edge11_Node000010_Node000011" class="edge">
<title>Node10&#45;&gt;Node11</title>
<g id="a_edge11_Node000010_Node000011"><a xlink:title=" ">
<path fill="none" stroke="#63b8ff" d="M244.29,-390.63C248.7,-382.14 253.27,-373.34 257.45,-365.27"/>
<polygon fill="#63b8ff" stroke="#63b8ff" points="241.23,-388.94 239.72,-399.42 247.44,-392.16 241.23,-388.94"/>
</a>
</g>
</g>
<!-- Node12 -->
<g id="Node000012" class="node">
<title>Node12</title>
<g id="a_Node000012"><a xlink:href="_comm_interface_8h.html" target="_top" xlink:title=" ">
<polygon fill="white" stroke="#666666" points="143.5,-365 0,-365 0,-300.75 143.5,-300.75 143.5,-365"/>
<text text-anchor="start" x="8" y="-351.5" font-family="Helvetica,sans-Serif" font-size="10.00">/Users/felixschulke</text>
<text text-anchor="start" x="8" y="-340.25" font-family="Helvetica,sans-Serif" font-size="10.00">/Developement/Arduino</text>
<text text-anchor="start" x="8" y="-329" font-family="Helvetica,sans-Serif" font-size="10.00">/Modbus_RTU/Modbus_RTU</text>
<text text-anchor="start" x="8" y="-317.75" font-family="Helvetica,sans-Serif" font-size="10.00">/Modbus&#45;RTU/lib/Interface</text>
<text text-anchor="middle" x="71.75" y="-306.5" font-family="Helvetica,sans-Serif" font-size="10.00">/CommInterface.h</text>
</a>
</g>
</g>
<!-- Node10&#45;&gt;Node12 -->
<g id="edge12_Node000010_Node000012" class="edge">
<title>Node10&#45;&gt;Node12</title>
<g id="a_edge12_Node000010_Node000012"><a xlink:title=" ">
<path fill="none" stroke="#63b8ff" d="M165.02,-394.56C150.25,-384.95 134.52,-374.71 120.26,-365.44"/>
<polygon fill="#63b8ff" stroke="#63b8ff" points="163,-397.42 173.29,-399.94 166.82,-391.56 163,-397.42"/>
</a>
</g>
</g>
<!-- Node12&#45;&gt;Node6 -->
<g id="edge13_Node000012_Node000006" class="edge">
<title>Node12&#45;&gt;Node6</title>
<g id="a_edge13_Node000012_Node000006"><a xlink:title=" ">
<path fill="none" stroke="#63b8ff" d="M154.79,-301.8C155.78,-301.45 156.77,-301.1 157.75,-300.75 203.86,-284.43 215.8,-281.52 261.75,-264.75 264.72,-263.67 267.75,-262.55 270.81,-261.41"/>
<polygon fill="#63b8ff" stroke="#63b8ff" points="153.66,-298.49 145.41,-305.14 156.01,-305.08 153.66,-298.49"/>
</a>
</g>
</g>
<!-- Node13 -->
<g id="Node000013" class="node">
<title>Node13</title>
<g id="a_Node000013"><a xlink:href="_comm_interface__modbus_r_t_u_8h.html" target="_top" xlink:title=" ">
<polygon fill="white" stroke="#666666" points="252.5,-264.75 97,-264.75 97,-200.5 252.5,-200.5 252.5,-264.75"/>
<text text-anchor="start" x="105" y="-251.25" font-family="Helvetica,sans-Serif" font-size="10.00">/Users/felixschulke</text>
<text text-anchor="start" x="105" y="-240" font-family="Helvetica,sans-Serif" font-size="10.00">/Developement/Arduino</text>
<text text-anchor="start" x="105" y="-228.75" font-family="Helvetica,sans-Serif" font-size="10.00">/Modbus_RTU/Modbus_RTU</text>
<text text-anchor="start" x="105" y="-217.5" font-family="Helvetica,sans-Serif" font-size="10.00">/Modbus&#45;RTU/lib/ModbusRTU</text>
<text text-anchor="middle" x="174.75" y="-206.25" font-family="Helvetica,sans-Serif" font-size="10.00">/CommInterface_modbusRTU.h</text>
</a>
</g>
</g>
<!-- Node12&#45;&gt;Node13 -->
<g id="edge14_Node000012_Node000013" class="edge">
<title>Node12&#45;&gt;Node13</title>
<g id="a_edge14_Node000012_Node000013"><a xlink:title=" ">
<path fill="none" stroke="#63b8ff" d="M112.91,-292.62C122.52,-283.45 132.64,-273.8 141.84,-265.02"/>
<polygon fill="#63b8ff" stroke="#63b8ff" points="110.54,-290.04 105.72,-299.47 115.37,-295.1 110.54,-290.04"/>
</a>
</g>
</g>
<!-- Node13&#45;&gt;Node7 -->
<g id="edge16_Node000013_Node000007" class="edge">
<title>Node13&#45;&gt;Node7</title>
<g id="a_edge16_Node000013_Node000007"><a xlink:title=" ">
<path fill="none" stroke="#63b8ff" d="M263.75,-200.07C351.08,-176.01 441.51,-158.16 504.7,-146.82"/>
<polygon fill="#63b8ff" stroke="#63b8ff" points="262.99,-196.65 254.3,-202.7 264.87,-203.39 262.99,-196.65"/>
</a>
</g>
</g>
<!-- Node13&#45;&gt;Node9 -->
<g id="edge17_Node000013_Node000009" class="edge">
<title>Node13&#45;&gt;Node9</title>
<g id="a_edge17_Node000013_Node000009"><a xlink:title=" ">
<path fill="none" stroke="#63b8ff" d="M227.14,-193.55C240.11,-184.09 253.95,-173.95 266.75,-164.5 316.14,-128.05 373.02,-85.48 408.43,-58.91"/>
<polygon fill="#63b8ff" stroke="#63b8ff" points="225.12,-190.69 219.1,-199.41 229.25,-196.35 225.12,-190.69"/>
</a>
</g>
</g>
<!-- Node14 -->
<g id="Node000014" class="node">
<title>Node14</title>
<g id="a_Node000014"><a xlink:href="_comm_interface__modbus_r_t_u_8cpp.html" target="_top" xlink:title=" ">
<polygon fill="white" stroke="#666666" points="257.75,-164.5 91.75,-164.5 91.75,-100.25 257.75,-100.25 257.75,-164.5"/>
<text text-anchor="start" x="99.75" y="-151" font-family="Helvetica,sans-Serif" font-size="10.00">/Users/felixschulke</text>
<text text-anchor="start" x="99.75" y="-139.75" font-family="Helvetica,sans-Serif" font-size="10.00">/Developement/Arduino</text>
<text text-anchor="start" x="99.75" y="-128.5" font-family="Helvetica,sans-Serif" font-size="10.00">/Modbus_RTU/Modbus_RTU</text>
<text text-anchor="start" x="99.75" y="-117.25" font-family="Helvetica,sans-Serif" font-size="10.00">/Modbus&#45;RTU/lib/ModbusRTU</text>
<text text-anchor="middle" x="174.75" y="-106" font-family="Helvetica,sans-Serif" font-size="10.00">/CommInterface_modbusRTU.cpp</text>
</a>
</g>
</g>
<!-- Node13&#45;&gt;Node14 -->
<g id="edge15_Node000013_Node000014" class="edge">
<title>Node13&#45;&gt;Node14</title>
<g id="a_edge15_Node000013_Node000014"><a xlink:title=" ">
<path fill="none" stroke="#63b8ff" d="M174.75,-189.01C174.75,-180.87 174.75,-172.48 174.75,-164.77"/>
<polygon fill="#63b8ff" stroke="#63b8ff" points="171.25,-188.75 174.75,-198.75 178.25,-188.75 171.25,-188.75"/>
</a>
</g>
</g>
<!-- Node15&#45;&gt;Node6 -->
<g id="edge21_Node000015_Node000006" class="edge">
<title>Node15&#45;&gt;Node6</title>
<g id="a_edge21_Node000015_Node000006"><a xlink:title=" ">
<path fill="none" stroke="#63b8ff" d="M690.17,-302.73C687.68,-302.03 685.2,-301.37 682.75,-300.75 586.3,-276.23 559.11,-285.36 461.75,-264.75 446.5,-261.52 430.27,-257.6 414.86,-253.65"/>
<polygon fill="#63b8ff" stroke="#63b8ff" points="689.13,-306.07 699.71,-305.51 691.1,-299.35 689.13,-306.07"/>
</a>
</g>
</g>
<!-- Node16 -->
<g id="Node000016" class="node">
<title>Node16</title>
<g id="a_Node000016"><a xlink:href="_frame_8cpp.html" target="_top" xlink:title=" ">
<polygon fill="white" stroke="#666666" points="807,-259.12 636.5,-259.12 636.5,-206.12 807,-206.12 807,-259.12"/>
<text text-anchor="start" x="644.5" y="-245.62" font-family="Helvetica,sans-Serif" font-size="10.00">/Users/felixschulke</text>
<text text-anchor="start" x="644.5" y="-234.38" font-family="Helvetica,sans-Serif" font-size="10.00">/Developement/Arduino</text>
<text text-anchor="start" x="644.5" y="-223.12" font-family="Helvetica,sans-Serif" font-size="10.00">/Modbus_RTU/Modbus_RTU</text>
<text text-anchor="middle" x="721.75" y="-211.88" font-family="Helvetica,sans-Serif" font-size="10.00">/Modbus&#45;RTU/lib/Frame/Frame.cpp</text>
</a>
</g>
</g>
<!-- Node15&#45;&gt;Node16 -->
<g id="edge20_Node000015_Node000016" class="edge">
<title>Node15&#45;&gt;Node16</title>
<g id="a_edge20_Node000015_Node000016"><a xlink:title=" ">
<path fill="none" stroke="#63b8ff" d="M753.43,-295.87C747.31,-283.86 740.62,-270.71 734.97,-259.61"/>
<polygon fill="#63b8ff" stroke="#63b8ff" points="750.27,-297.39 757.93,-304.71 756.51,-294.21 750.27,-297.39"/>
</a>
</g>
</g>
<!-- Node17 -->
<g id="Node000017" class="node">
<title>Node17</title>
<g id="a_Node000017"><a xlink:href="_frame__modbus_r_t_u_8h.html" target="_top" xlink:title=" ">
<polygon fill="white" stroke="#666666" points="974.12,-264.75 825.38,-264.75 825.38,-200.5 974.12,-200.5 974.12,-264.75"/>
<text text-anchor="start" x="833.38" y="-251.25" font-family="Helvetica,sans-Serif" font-size="10.00">/Users/felixschulke</text>
<text text-anchor="start" x="833.38" y="-240" font-family="Helvetica,sans-Serif" font-size="10.00">/Developement/Arduino</text>
<text text-anchor="start" x="833.38" y="-228.75" font-family="Helvetica,sans-Serif" font-size="10.00">/Modbus_RTU/Modbus_RTU</text>
<text text-anchor="start" x="833.38" y="-217.5" font-family="Helvetica,sans-Serif" font-size="10.00">/Modbus&#45;RTU/lib/ModbusRTU</text>
<text text-anchor="middle" x="899.75" y="-206.25" font-family="Helvetica,sans-Serif" font-size="10.00">/Frame_modbusRTU.h</text>
</a>
</g>
</g>
<!-- Node15&#45;&gt;Node17 -->
<g id="edge22_Node000015_Node000017" class="edge">
<title>Node15&#45;&gt;Node17</title>
<g id="a_edge22_Node000015_Node000017"><a xlink:title=" ">
<path fill="none" stroke="#63b8ff" d="M814.46,-299.09C828.68,-288.18 844.48,-276.05 858.58,-265.23"/>
<polygon fill="#63b8ff" stroke="#63b8ff" points="812.38,-296.27 806.58,-305.14 816.64,-301.83 812.38,-296.27"/>
</a>
</g>
</g>
<!-- Node17&#45;&gt;Node7 -->
<g id="edge24_Node000017_Node000007" class="edge">
<title>Node17&#45;&gt;Node7</title>
<g id="a_edge24_Node000017_Node000007"><a xlink:title=" ">
<path fill="none" stroke="#63b8ff" d="M814.47,-200.15C759.18,-182.09 706.79,-166.86 664.83,-155.11"/>
<polygon fill="#63b8ff" stroke="#63b8ff" points="813.16,-203.41 823.76,-203.21 815.35,-196.76 813.16,-203.41"/>
</a>
</g>
</g>
<!-- Node18 -->
<g id="Node000018" class="node">
<title>Node18</title>
<g id="a_Node000018"><a xlink:href="_frame__modbus_r_t_u_8cpp.html" target="_top" xlink:title=" ">
<polygon fill="white" stroke="#666666" points="974.12,-164.5 825.38,-164.5 825.38,-100.25 974.12,-100.25 974.12,-164.5"/>
<text text-anchor="start" x="833.38" y="-151" font-family="Helvetica,sans-Serif" font-size="10.00">/Users/felixschulke</text>
<text text-anchor="start" x="833.38" y="-139.75" font-family="Helvetica,sans-Serif" font-size="10.00">/Developement/Arduino</text>
<text text-anchor="start" x="833.38" y="-128.5" font-family="Helvetica,sans-Serif" font-size="10.00">/Modbus_RTU/Modbus_RTU</text>
<text text-anchor="start" x="833.38" y="-117.25" font-family="Helvetica,sans-Serif" font-size="10.00">/Modbus&#45;RTU/lib/ModbusRTU</text>
<text text-anchor="middle" x="899.75" y="-106" font-family="Helvetica,sans-Serif" font-size="10.00">/Frame_modbusRTU.cpp</text>
</a>
</g>
</g>
<!-- Node17&#45;&gt;Node18 -->
<g id="edge23_Node000017_Node000018" class="edge">
<title>Node17&#45;&gt;Node18</title>
<g id="a_edge23_Node000017_Node000018"><a xlink:title=" ">
<path fill="none" stroke="#63b8ff" d="M899.75,-189.01C899.75,-180.87 899.75,-172.48 899.75,-164.77"/>
<polygon fill="#63b8ff" stroke="#63b8ff" points="896.25,-188.75 899.75,-198.75 903.25,-188.75 896.25,-188.75"/>
</a>
</g>
</g>
<!-- Node20 -->
<g id="Node000020" class="node">
<title>Node20</title>
<g id="a_Node000020"><a xlink:href="_message_8cpp.html" target="_top" xlink:title=" ">
<polygon fill="white" stroke="#666666" points="1268.75,-365 1102.75,-365 1102.75,-300.75 1268.75,-300.75 1268.75,-365"/>
<text text-anchor="start" x="1110.75" y="-351.5" font-family="Helvetica,sans-Serif" font-size="10.00">/Users/felixschulke</text>
<text text-anchor="start" x="1110.75" y="-340.25" font-family="Helvetica,sans-Serif" font-size="10.00">/Developement/Arduino</text>
<text text-anchor="start" x="1110.75" y="-329" font-family="Helvetica,sans-Serif" font-size="10.00">/Modbus_RTU/Modbus_RTU</text>
<text text-anchor="start" x="1110.75" y="-317.75" font-family="Helvetica,sans-Serif" font-size="10.00">/Modbus&#45;RTU/lib/MessageService</text>
<text text-anchor="middle" x="1185.75" y="-306.5" font-family="Helvetica,sans-Serif" font-size="10.00">/Message.cpp</text>
</a>
</g>
</g>
<!-- Node19&#45;&gt;Node20 -->
<g id="edge26_Node000019_Node000020" class="edge">
<title>Node19&#45;&gt;Node20</title>
<g id="a_edge26_Node000019_Node000020"><a xlink:title=" ">
<path fill="none" stroke="#63b8ff" d="M1070.81,-395.25C1089.23,-385.41 1108.96,-374.88 1126.79,-365.36"/>
<polygon fill="#63b8ff" stroke="#63b8ff" points="1069.24,-392.12 1062.06,-399.92 1072.53,-398.3 1069.24,-392.12"/>
</a>
</g>
</g>
<!-- Node21 -->
<g id="Node000021" class="node">
<title>Node21</title>
<g id="a_Node000021"><a xlink:href="_message_service_8h.html" target="_top" xlink:title=" ">
<polygon fill="white" stroke="#666666" points="1084.75,-365 918.75,-365 918.75,-300.75 1084.75,-300.75 1084.75,-365"/>
<text text-anchor="start" x="926.75" y="-351.5" font-family="Helvetica,sans-Serif" font-size="10.00">/Users/felixschulke</text>
<text text-anchor="start" x="926.75" y="-340.25" font-family="Helvetica,sans-Serif" font-size="10.00">/Developement/Arduino</text>
<text text-anchor="start" x="926.75" y="-329" font-family="Helvetica,sans-Serif" font-size="10.00">/Modbus_RTU/Modbus_RTU</text>
<text text-anchor="start" x="926.75" y="-317.75" font-family="Helvetica,sans-Serif" font-size="10.00">/Modbus&#45;RTU/lib/MessageService</text>
<text text-anchor="middle" x="1001.75" y="-306.5" font-family="Helvetica,sans-Serif" font-size="10.00">/MessageService.h</text>
</a>
</g>
</g>
<!-- Node19&#45;&gt;Node21 -->
<g id="edge27_Node000019_Node000021" class="edge">
<title>Node19&#45;&gt;Node21</title>
<g id="a_edge27_Node000019_Node000021"><a xlink:title=" ">
<path fill="none" stroke="#63b8ff" d="M1001.75,-389.51C1001.75,-381.37 1001.75,-372.98 1001.75,-365.27"/>
<polygon fill="#63b8ff" stroke="#63b8ff" points="998.25,-389.25 1001.75,-399.25 1005.25,-389.25 998.25,-389.25"/>
</a>
</g>
</g>
<!-- Node21&#45;&gt;Node7 -->
<g id="edge29_Node000021_Node000007" class="edge">
<title>Node21&#45;&gt;Node7</title>
<g id="a_edge29_Node000021_Node000007"><a xlink:title=" ">
<path fill="none" stroke="#63b8ff" d="M1007.5,-288.91C1008.8,-260.11 1005.11,-223.39 982.75,-200.5 971.69,-189.17 777.84,-160.38 664.83,-144.43"/>
<polygon fill="#63b8ff" stroke="#63b8ff" points="1004.02,-288.58 1006.82,-298.8 1011,-289.06 1004.02,-288.58"/>
</a>
</g>
</g>
<!-- Node21&#45;&gt;Node9 -->
<g id="edge30_Node000021_Node000009" class="edge">
<title>Node21&#45;&gt;Node9</title>
<g id="a_edge30_Node000021_Node000009"><a xlink:title=" ">
<path fill="none" stroke="#63b8ff" d="M1013.76,-289.46C1026.02,-235.89 1036.47,-145.29 982.75,-100.25 904.34,-34.52 623.54,-86.83 523.75,-64.25 517.58,-62.85 511.25,-61.08 504.99,-59.08"/>
<polygon fill="#63b8ff" stroke="#63b8ff" points="1010.37,-288.6 1011.42,-299.15 1017.17,-290.25 1010.37,-288.6"/>
</a>
</g>
</g>
<!-- Node22 -->
<g id="Node000022" class="node">
<title>Node22</title>
<g id="a_Node000022"><a xlink:href="_message_service_8cpp.html" target="_top" xlink:title=" ">
<polygon fill="white" stroke="#666666" points="1233.75,-264.75 1067.75,-264.75 1067.75,-200.5 1233.75,-200.5 1233.75,-264.75"/>
<text text-anchor="start" x="1075.75" y="-251.25" font-family="Helvetica,sans-Serif" font-size="10.00">/Users/felixschulke</text>
<text text-anchor="start" x="1075.75" y="-240" font-family="Helvetica,sans-Serif" font-size="10.00">/Developement/Arduino</text>
<text text-anchor="start" x="1075.75" y="-228.75" font-family="Helvetica,sans-Serif" font-size="10.00">/Modbus_RTU/Modbus_RTU</text>
<text text-anchor="start" x="1075.75" y="-217.5" font-family="Helvetica,sans-Serif" font-size="10.00">/Modbus&#45;RTU/lib/MessageService</text>
<text text-anchor="middle" x="1150.75" y="-206.25" font-family="Helvetica,sans-Serif" font-size="10.00">/MessageService.cpp</text>
</a>
</g>
</g>
<!-- Node21&#45;&gt;Node22 -->
<g id="edge28_Node000021_Node000022" class="edge">
<title>Node21&#45;&gt;Node22</title>
<g id="a_edge28_Node000021_Node000022"><a xlink:title=" ">
<path fill="none" stroke="#63b8ff" d="M1058.72,-294.31C1073.29,-284.7 1088.82,-274.46 1102.88,-265.19"/>
<polygon fill="#63b8ff" stroke="#63b8ff" points="1056.99,-291.26 1050.57,-299.68 1060.84,-297.1 1056.99,-291.26"/>
</a>
</g>
</g>
<!-- Node23&#45;&gt;Node4 -->
<g id="edge32_Node000023_Node000004" class="edge">
<title>Node23&#45;&gt;Node4</title>
<g id="a_edge32_Node000023_Node000004"><a xlink:title=" ">
<path fill="none" stroke="#63b8ff" d="M642.16,-391.75C635.69,-382.92 628.93,-373.69 622.76,-365.27"/>
<polygon fill="#63b8ff" stroke="#63b8ff" points="639.14,-393.55 647.88,-399.55 644.79,-389.41 639.14,-393.55"/>
</a>
</g>
</g>
<!-- Node23&#45;&gt;Node21 -->
<g id="edge33_Node000023_Node000021" class="edge">
<title>Node23&#45;&gt;Node21</title>
<g id="a_edge33_Node000023_Node000021"><a xlink:title=" ">
<path fill="none" stroke="#63b8ff" d="M754.56,-407.47C804.67,-392.55 868.36,-373.59 918.54,-358.65"/>
<polygon fill="#63b8ff" stroke="#63b8ff" points="753.8,-404.05 745.21,-410.25 755.8,-410.75 753.8,-404.05"/>
</a>
</g>
</g>
<!-- Node24 -->
<g id="Node000024" class="node">
<title>Node24</title>
<g id="a_Node000024"><a xlink:href="_service_cluster_8h.html" target="_top" xlink:title=" ">
<polygon fill="white" stroke="#666666" points="508.5,-365 365,-365 365,-300.75 508.5,-300.75 508.5,-365"/>
<text text-anchor="start" x="373" y="-351.5" font-family="Helvetica,sans-Serif" font-size="10.00">/Users/felixschulke</text>
<text text-anchor="start" x="373" y="-340.25" font-family="Helvetica,sans-Serif" font-size="10.00">/Developement/Arduino</text>
<text text-anchor="start" x="373" y="-329" font-family="Helvetica,sans-Serif" font-size="10.00">/Modbus_RTU/Modbus_RTU</text>
<text text-anchor="start" x="373" y="-317.75" font-family="Helvetica,sans-Serif" font-size="10.00">/Modbus&#45;RTU/lib/Service</text>
<text text-anchor="middle" x="436.75" y="-306.5" font-family="Helvetica,sans-Serif" font-size="10.00">/ServiceCluster.h</text>
</a>
</g>
</g>
<!-- Node23&#45;&gt;Node24 -->
<g id="edge34_Node000023_Node000024" class="edge">
<title>Node23&#45;&gt;Node24</title>
<g id="a_edge34_Node000023_Node000024"><a xlink:title=" ">
<path fill="none" stroke="#63b8ff" d="M589.33,-397.67C563.05,-386.68 534.2,-374.62 508.72,-363.96"/>
<polygon fill="#63b8ff" stroke="#63b8ff" points="587.67,-400.77 598.25,-401.4 590.37,-394.31 587.67,-400.77"/>
</a>
</g>
</g>
<!-- Node24&#45;&gt;Node6 -->
<g id="edge35_Node000024_Node000006" class="edge">
<title>Node24&#45;&gt;Node6</title>
<g id="a_edge35_Node000024_Node000006"><a xlink:title=" ">
<path fill="none" stroke="#63b8ff" d="M398.92,-292.34C390.23,-283.25 381.1,-273.71 372.79,-265.02"/>
<polygon fill="#63b8ff" stroke="#63b8ff" points="396.26,-294.62 405.7,-299.42 401.32,-289.78 396.26,-294.62"/>
</a>
</g>
</g>
</g>
</svg>
