<?xml version="1.0" encoding="UTF-8" standalone="no"?>
<!DOCTYPE svg PUBLIC "-//W3C//DTD SVG 1.1//EN"
 "http://www.w3.org/Graphics/SVG/1.1/DTD/svg11.dtd">
<!-- Generated by graphviz version 12.1.2 (20240928.0832)
 -->
<!-- Title: /Users/felixschulke/Developement/Arduino/Modbus_RTU/Modbus_RTU/Modbus&#45;RTU/lib/ErrorService/ErrorState.h Pages: 1 -->
<svg width="531pt" height="473pt"
 viewBox="0.00 0.00 530.62 473.25" xmlns="http://www.w3.org/2000/svg" xmlns:xlink="http://www.w3.org/1999/xlink">
<g id="graph0" class="graph" transform="scale(1 1) rotate(0) translate(4 469.25)">
<title>/Users/felixschulke/Developement/Arduino/Modbus_RTU/Modbus_RTU/Modbus&#45;RTU/lib/ErrorService/ErrorState.h</title>
<!-- Node1 -->
<g id="Node000001" class="node">
<title>Node1</title>
<g id="a_Node000001"><a xlink:title=" ">
<polygon fill="#999999" stroke="#666666" points="249.25,-465.25 102,-465.25 102,-401 249.25,-401 249.25,-465.25"/>
<text text-anchor="start" x="110" y="-451.75" font-family="Helvetica,sans-Serif" font-size="10.00">/Users/felixschulke</text>
<text text-anchor="start" x="110" y="-440.5" font-family="Helvetica,sans-Serif" font-size="10.00">/Developement/Arduino</text>
<text text-anchor="start" x="110" y="-429.25" font-family="Helvetica,sans-Serif" font-size="10.00">/Modbus_RTU/Modbus_RTU</text>
<text text-anchor="start" x="110" y="-418" font-family="Helvetica,sans-Serif" font-size="10.00">/Modbus&#45;RTU/lib/ErrorService</text>
<text text-anchor="middle" x="175.62" y="-406.75" font-family="Helvetica,sans-Serif" font-size="10.00">/ErrorState.h</text>
</a>
</g>
</g>
<!-- Node2 -->
<g id="Node000002" class="node">
<title>Node2</title>
<g id="a_Node000002"><a xlink:href="_error_state_8cpp.html" target="_top" xlink:title=" ">
<polygon fill="white" stroke="#666666" points="147.25,-365 0,-365 0,-300.75 147.25,-300.75 147.25,-365"/>
<text text-anchor="start" x="8" y="-351.5" font-family="Helvetica,sans-Serif" font-size="10.00">/Users/felixschulke</text>
<text text-anchor="start" x="8" y="-340.25" font-family="Helvetica,sans-Serif" font-size="10.00">/Developement/Arduino</text>
<text text-anchor="start" x="8" y="-329" font-family="Helvetica,sans-Serif" font-size="10.00">/Modbus_RTU/Modbus_RTU</text>
<text text-anchor="start" x="8" y="-317.75" font-family="Helvetica,sans-Serif" font-size="10.00">/Modbus&#45;RTU/lib/ErrorService</text>
<text text-anchor="middle" x="73.62" y="-306.5" font-family="Helvetica,sans-Serif" font-size="10.00">/ErrorState.cpp</text>
</a>
</g>
</g>
<!-- Node1&#45;&gt;Node2 -->
<g id="edge1_Node000001_Node000002" class="edge">
<title>Node1&#45;&gt;Node2</title>
<g id="a_edge1_Node000001_Node000002"><a xlink:title=" ">
<path fill="none" stroke="#63b8ff" d="M134.87,-392.87C125.35,-383.7 115.33,-374.05 106.22,-365.27"/>
<polygon fill="#63b8ff" stroke="#63b8ff" points="132.35,-395.3 141.98,-399.72 137.21,-390.26 132.35,-395.3"/>
</a>
</g>
</g>
<!-- Node3 -->
<g id="Node000003" class="node">
<title>Node3</title>
<g id="a_Node000003"><a xlink:href="_comm_interface_8h.html" target="_top" xlink:title=" ">
<polygon fill="white" stroke="#666666" points="347.38,-365 203.88,-365 203.88,-300.75 347.38,-300.75 347.38,-365"/>
<text text-anchor="start" x="211.88" y="-351.5" font-family="Helvetica,sans-Serif" font-size="10.00">/Users/felixschulke</text>
<text text-anchor="start" x="211.88" y="-340.25" font-family="Helvetica,sans-Serif" font-size="10.00">/Developement/Arduino</text>
<text text-anchor="start" x="211.88" y="-329" font-family="Helvetica,sans-Serif" font-size="10.00">/Modbus_RTU/Modbus_RTU</text>
<text text-anchor="start" x="211.88" y="-317.75" font-family="Helvetica,sans-Serif" font-size="10.00">/Modbus&#45;RTU/lib/Interface</text>
<text text-anchor="middle" x="275.62" y="-306.5" font-family="Helvetica,sans-Serif" font-size="10.00">/CommInterface.h</text>
</a>
</g>
</g>
<!-- Node1&#45;&gt;Node3 -->
<g id="edge2_Node000001_Node000003" class="edge">
<title>Node1&#45;&gt;Node3</title>
<g id="a_edge2_Node000001_Node000003"><a xlink:title=" ">
<path fill="none" stroke="#63b8ff" d="M215.58,-392.87C224.92,-383.7 234.74,-374.05 243.67,-365.27"/>
<polygon fill="#63b8ff" stroke="#63b8ff" points="213.3,-390.2 208.62,-399.71 218.21,-395.2 213.3,-390.2"/>
</a>
</g>
</g>
<!-- Node4 -->
<g id="Node000004" class="node">
<title>Node4</title>
<g id="a_Node000004"><a xlink:href="_service_interface_8h.html" target="_top" xlink:title=" ">
<polygon fill="white" stroke="#666666" points="247.38,-264.75 103.88,-264.75 103.88,-200.5 247.38,-200.5 247.38,-264.75"/>
<text text-anchor="start" x="111.88" y="-251.25" font-family="Helvetica,sans-Serif" font-size="10.00">/Users/felixschulke</text>
<text text-anchor="start" x="111.88" y="-240" font-family="Helvetica,sans-Serif" font-size="10.00">/Developement/Arduino</text>
<text text-anchor="start" x="111.88" y="-228.75" font-family="Helvetica,sans-Serif" font-size="10.00">/Modbus_RTU/Modbus_RTU</text>
<text text-anchor="start" x="111.88" y="-217.5" font-family="Helvetica,sans-Serif" font-size="10.00">/Modbus&#45;RTU/lib/Interface</text>
<text text-anchor="middle" x="175.62" y="-206.25" font-family="Helvetica,sans-Serif" font-size="10.00">/ServiceInterface.h</text>
</a>
</g>
</g>
<!-- Node1&#45;&gt;Node4 -->
<g id="edge11_Node000001_Node000004" class="edge">
<title>Node1&#45;&gt;Node4</title>
<g id="a_edge11_Node000001_Node000004"><a xlink:title=" ">
<path fill="none" stroke="#63b8ff" d="M175.62,-389.62C175.62,-352.19 175.62,-298.56 175.62,-264.93"/>
<polygon fill="#63b8ff" stroke="#63b8ff" points="172.13,-389.16 175.63,-399.16 179.13,-389.16 172.13,-389.16"/>
</a>
</g>
</g>
<!-- Node3&#45;&gt;Node4 -->
<g id="edge3_Node000003_Node000004" class="edge">
<title>Node3&#45;&gt;Node4</title>
<g id="a_edge3_Node000003_Node000004"><a xlink:title=" ">
<path fill="none" stroke="#63b8ff" d="M235.67,-292.62C226.33,-283.45 216.51,-273.8 207.58,-265.02"/>
<polygon fill="#63b8ff" stroke="#63b8ff" points="233.04,-294.95 242.63,-299.46 237.95,-289.95 233.04,-294.95"/>
</a>
</g>
</g>
<!-- Node8 -->
<g id="Node000008" class="node">
<title>Node8</title>
<g id="a_Node000008"><a xlink:href="_comm_interface__modbus_r_t_u_8h.html" target="_top" xlink:title=" ">
<polygon fill="white" stroke="#666666" points="421.38,-264.75 265.88,-264.75 265.88,-200.5 421.38,-200.5 421.38,-264.75"/>
<text text-anchor="start" x="273.88" y="-251.25" font-family="Helvetica,sans-Serif" font-size="10.00">/Users/felixschulke</text>
<text text-anchor="start" x="273.88" y="-240" font-family="Helvetica,sans-Serif" font-size="10.00">/Developement/Arduino</text>
<text text-anchor="start" x="273.88" y="-228.75" font-family="Helvetica,sans-Serif" font-size="10.00">/Modbus_RTU/Modbus_RTU</text>
<text text-anchor="start" x="273.88" y="-217.5" font-family="Helvetica,sans-Serif" font-size="10.00">/Modbus&#45;RTU/lib/ModbusRTU</text>
<text text-anchor="middle" x="343.62" y="-206.25" font-family="Helvetica,sans-Serif" font-size="10.00">/CommInterface_modbusRTU.h</text>
</a>
</g>
</g>
<!-- Node3&#45;&gt;Node8 -->
<g id="edge7_Node000003_Node000008" class="edge">
<title>Node3&#45;&gt;Node8</title>
<g id="a_edge7_Node000003_Node000008"><a xlink:title=" ">
<path fill="none" stroke="#63b8ff" d="M303.76,-291.22C309.82,-282.47 316.13,-273.35 321.9,-265.02"/>
<polygon fill="#63b8ff" stroke="#63b8ff" points="301,-289.06 298.19,-299.27 306.76,-293.04 301,-289.06"/>
</a>
</g>
</g>
<!-- Node5 -->
<g id="Node000005" class="node">
<title>Node5</title>
<g id="a_Node000005"><a xlink:href="_service_interface__modbus_r_t_u_8h.html" target="_top" xlink:title=" ">
<polygon fill="white" stroke="#666666" points="285.25,-164.5 126,-164.5 126,-100.25 285.25,-100.25 285.25,-164.5"/>
<text text-anchor="start" x="134" y="-151" font-family="Helvetica,sans-Serif" font-size="10.00">/Users/felixschulke</text>
<text text-anchor="start" x="134" y="-139.75" font-family="Helvetica,sans-Serif" font-size="10.00">/Developement/Arduino</text>
<text text-anchor="start" x="134" y="-128.5" font-family="Helvetica,sans-Serif" font-size="10.00">/Modbus_RTU/Modbus_RTU</text>
<text text-anchor="start" x="134" y="-117.25" font-family="Helvetica,sans-Serif" font-size="10.00">/Modbus&#45;RTU/lib/ModbusRTU</text>
<text text-anchor="middle" x="205.62" y="-106" font-family="Helvetica,sans-Serif" font-size="10.00">/ServiceInterface_modbusRTU.h</text>
</a>
</g>
</g>
<!-- Node4&#45;&gt;Node5 -->
<g id="edge4_Node000004_Node000005" class="edge">
<title>Node4&#45;&gt;Node5</title>
<g id="a_edge4_Node000004_Node000005"><a xlink:title=" ">
<path fill="none" stroke="#63b8ff" d="M188.55,-189.29C191.06,-181.06 193.66,-172.57 196.04,-164.77"/>
<polygon fill="#63b8ff" stroke="#63b8ff" points="185.21,-188.23 185.64,-198.82 191.91,-190.28 185.21,-188.23"/>
</a>
</g>
</g>
<!-- Node6 -->
<g id="Node000006" class="node">
<title>Node6</title>
<g id="a_Node000006"><a xlink:href="_service_interface__modbus_r_t_u_8cpp.html" target="_top" xlink:title=" ">
<polygon fill="white" stroke="#666666" points="238.5,-64.25 68.75,-64.25 68.75,0 238.5,0 238.5,-64.25"/>
<text text-anchor="start" x="76.75" y="-50.75" font-family="Helvetica,sans-Serif" font-size="10.00">/Users/felixschulke</text>
<text text-anchor="start" x="76.75" y="-39.5" font-family="Helvetica,sans-Serif" font-size="10.00">/Developement/Arduino</text>
<text text-anchor="start" x="76.75" y="-28.25" font-family="Helvetica,sans-Serif" font-size="10.00">/Modbus_RTU/Modbus_RTU</text>
<text text-anchor="start" x="76.75" y="-17" font-family="Helvetica,sans-Serif" font-size="10.00">/Modbus&#45;RTU/lib/ModbusRTU</text>
<text text-anchor="middle" x="153.62" y="-5.75" font-family="Helvetica,sans-Serif" font-size="10.00">/ServiceInterface_modbusRTU.cpp</text>
</a>
</g>
</g>
<!-- Node5&#45;&gt;Node6 -->
<g id="edge5_Node000005_Node000006" class="edge">
<title>Node5&#45;&gt;Node6</title>
<g id="a_edge5_Node000005_Node000006"><a xlink:title=" ">
<path fill="none" stroke="#63b8ff" d="M183.67,-89.88C179.17,-81.39 174.51,-72.59 170.24,-64.52"/>
<polygon fill="#63b8ff" stroke="#63b8ff" points="180.55,-91.48 188.32,-98.68 186.74,-88.2 180.55,-91.48"/>
</a>
</g>
</g>
<!-- Node7 -->
<g id="Node000007" class="node">
<title>Node7</title>
<g id="a_Node000007"><a xlink:href="main_8cpp.html" target="_top" xlink:title="This main is an example&#45;implementation of a simple modbus&#45;messenger to demonstrate the usage of a lay...">
<polygon fill="white" stroke="#666666" points="400.38,-58.62 256.88,-58.62 256.88,-5.62 400.38,-5.62 400.38,-58.62"/>
<text text-anchor="start" x="264.88" y="-45.12" font-family="Helvetica,sans-Serif" font-size="10.00">/Users/felixschulke</text>
<text text-anchor="start" x="264.88" y="-33.88" font-family="Helvetica,sans-Serif" font-size="10.00">/Developement/Arduino</text>
<text text-anchor="start" x="264.88" y="-22.62" font-family="Helvetica,sans-Serif" font-size="10.00">/Modbus_RTU/Modbus_RTU</text>
<text text-anchor="middle" x="328.62" y="-11.38" font-family="Helvetica,sans-Serif" font-size="10.00">/Modbus&#45;RTU/src/main.cpp</text>
</a>
</g>
</g>
<!-- Node5&#45;&gt;Node7 -->
<g id="edge6_Node000005_Node000007" class="edge">
<title>Node5&#45;&gt;Node7</title>
<g id="a_edge6_Node000005_Node000007"><a xlink:title=" ">
<path fill="none" stroke="#63b8ff" d="M253.63,-93.03C267.94,-81.6 283.27,-69.35 296.32,-58.93"/>
<polygon fill="#63b8ff" stroke="#63b8ff" points="251.69,-90.1 246.06,-99.07 256.06,-95.57 251.69,-90.1"/>
</a>
</g>
</g>
<!-- Node8&#45;&gt;Node5 -->
<g id="edge9_Node000008_Node000005" class="edge">
<title>Node8&#45;&gt;Node5</title>
<g id="a_edge9_Node000008_Node000005"><a xlink:title=" ">
<path fill="none" stroke="#63b8ff" d="M290.43,-193.75C276.98,-184.17 262.67,-173.99 249.72,-164.77"/>
<polygon fill="#63b8ff" stroke="#63b8ff" points="288.17,-196.44 298.35,-199.39 292.23,-190.74 288.17,-196.44"/>
</a>
</g>
</g>
<!-- Node8&#45;&gt;Node7 -->
<g id="edge10_Node000008_Node000007" class="edge">
<title>Node8&#45;&gt;Node7</title>
<g id="a_edge10_Node000008_Node000007"><a xlink:title=" ">
<path fill="none" stroke="#63b8ff" d="M340.39,-188.79C337.4,-149.31 333.07,-92 330.58,-59.05"/>
<polygon fill="#63b8ff" stroke="#63b8ff" points="336.89,-188.96 341.13,-198.66 343.87,-188.43 336.89,-188.96"/>
</a>
</g>
</g>
<!-- Node9 -->
<g id="Node000009" class="node">
<title>Node9</title>
<g id="a_Node000009"><a xlink:href="_comm_interface__modbus_r_t_u_8cpp.html" target="_top" xlink:title=" ">
<polygon fill="white" stroke="#666666" points="522.62,-164.5 356.62,-164.5 356.62,-100.25 522.62,-100.25 522.62,-164.5"/>
<text text-anchor="start" x="364.62" y="-151" font-family="Helvetica,sans-Serif" font-size="10.00">/Users/felixschulke</text>
<text text-anchor="start" x="364.62" y="-139.75" font-family="Helvetica,sans-Serif" font-size="10.00">/Developement/Arduino</text>
<text text-anchor="start" x="364.62" y="-128.5" font-family="Helvetica,sans-Serif" font-size="10.00">/Modbus_RTU/Modbus_RTU</text>
<text text-anchor="start" x="364.62" y="-117.25" font-family="Helvetica,sans-Serif" font-size="10.00">/Modbus&#45;RTU/lib/ModbusRTU</text>
<text text-anchor="middle" x="439.62" y="-106" font-family="Helvetica,sans-Serif" font-size="10.00">/CommInterface_modbusRTU.cpp</text>
</a>
</g>
</g>
<!-- Node8&#45;&gt;Node9 -->
<g id="edge8_Node000008_Node000009" class="edge">
<title>Node8&#45;&gt;Node9</title>
<g id="a_edge8_Node000008_Node000009"><a xlink:title=" ">
<path fill="none" stroke="#63b8ff" d="M382.26,-192.09C391.14,-183 400.46,-173.46 408.95,-164.77"/>
<polygon fill="#63b8ff" stroke="#63b8ff" points="379.81,-189.59 375.32,-199.19 384.81,-194.48 379.81,-189.59"/>
</a>
</g>
</g>
</g>
</svg>
