<?xml version="1.0" encoding="UTF-8" standalone="no"?>
<!DOCTYPE svg PUBLIC "-//W3C//DTD SVG 1.1//EN"
 "http://www.w3.org/Graphics/SVG/1.1/DTD/svg11.dtd">
<!-- Generated by graphviz version 12.1.2 (20240928.0832)
 -->
<!-- Title: /Users/felixschulke/Developement/Arduino/Modbus_RTU/Modbus_RTU/Modbus&#45;RTU/lib/ErrorService/Error.h Pages: 1 -->
<svg width="696pt" height="574pt"
 viewBox="0.00 0.00 696.37 573.50" xmlns="http://www.w3.org/2000/svg" xmlns:xlink="http://www.w3.org/1999/xlink">
<g id="graph0" class="graph" transform="scale(1 1) rotate(0) translate(4 569.5)">
<title>/Users/felixschulke/Developement/Arduino/Modbus_RTU/Modbus_RTU/Modbus&#45;RTU/lib/ErrorService/Error.h</title>
<!-- Node1 -->
<g id="Node000001" class="node">
<title>Node1</title>
<g id="a_Node000001"><a xlink:title=" ">
<polygon fill="#999999" stroke="#666666" points="332.85,-565.5 185.6,-565.5 185.6,-501.25 332.85,-501.25 332.85,-565.5"/>
<text text-anchor="start" x="193.6" y="-552" font-family="Helvetica,sans-Serif" font-size="10.00">/Users/felixschulke</text>
<text text-anchor="start" x="193.6" y="-540.75" font-family="Helvetica,sans-Serif" font-size="10.00">/Developement/Arduino</text>
<text text-anchor="start" x="193.6" y="-529.5" font-family="Helvetica,sans-Serif" font-size="10.00">/Modbus_RTU/Modbus_RTU</text>
<text text-anchor="start" x="193.6" y="-518.25" font-family="Helvetica,sans-Serif" font-size="10.00">/Modbus&#45;RTU/lib/ErrorService</text>
<text text-anchor="middle" x="259.22" y="-507" font-family="Helvetica,sans-Serif" font-size="10.00">/Error.h</text>
</a>
</g>
</g>
<!-- Node2 -->
<g id="Node000002" class="node">
<title>Node2</title>
<g id="a_Node000002"><a xlink:href="_error_8cpp.html" target="_top" xlink:title=" ">
<polygon fill="white" stroke="#666666" points="167.85,-465.25 20.6,-465.25 20.6,-401 167.85,-401 167.85,-465.25"/>
<text text-anchor="start" x="28.6" y="-451.75" font-family="Helvetica,sans-Serif" font-size="10.00">/Users/felixschulke</text>
<text text-anchor="start" x="28.6" y="-440.5" font-family="Helvetica,sans-Serif" font-size="10.00">/Developement/Arduino</text>
<text text-anchor="start" x="28.6" y="-429.25" font-family="Helvetica,sans-Serif" font-size="10.00">/Modbus_RTU/Modbus_RTU</text>
<text text-anchor="start" x="28.6" y="-418" font-family="Helvetica,sans-Serif" font-size="10.00">/Modbus&#45;RTU/lib/ErrorService</text>
<text text-anchor="middle" x="94.22" y="-406.75" font-family="Helvetica,sans-Serif" font-size="10.00">/Error.cpp</text>
</a>
</g>
</g>
<!-- Node1&#45;&gt;Node2 -->
<g id="edge1_Node000001_Node000002" class="edge">
<title>Node1&#45;&gt;Node2</title>
<g id="a_edge1_Node000001_Node000002"><a xlink:title=" ">
<path fill="none" stroke="#63b8ff" d="M197.06,-495.36C180.65,-485.59 163.1,-475.14 147.23,-465.69"/>
<polygon fill="#63b8ff" stroke="#63b8ff" points="194.88,-498.13 205.26,-500.24 198.46,-492.12 194.88,-498.13"/>
</a>
</g>
</g>
<!-- Node3 -->
<g id="Node000003" class="node">
<title>Node3</title>
<g id="a_Node000003"><a xlink:href="_error_service_8h.html" target="_top" xlink:title=" ">
<polygon fill="white" stroke="#666666" points="660.85,-365 513.6,-365 513.6,-300.75 660.85,-300.75 660.85,-365"/>
<text text-anchor="start" x="521.6" y="-351.5" font-family="Helvetica,sans-Serif" font-size="10.00">/Users/felixschulke</text>
<text text-anchor="start" x="521.6" y="-340.25" font-family="Helvetica,sans-Serif" font-size="10.00">/Developement/Arduino</text>
<text text-anchor="start" x="521.6" y="-329" font-family="Helvetica,sans-Serif" font-size="10.00">/Modbus_RTU/Modbus_RTU</text>
<text text-anchor="start" x="521.6" y="-317.75" font-family="Helvetica,sans-Serif" font-size="10.00">/Modbus&#45;RTU/lib/ErrorService</text>
<text text-anchor="middle" x="587.22" y="-306.5" font-family="Helvetica,sans-Serif" font-size="10.00">/ErrorService.h</text>
</a>
</g>
</g>
<!-- Node1&#45;&gt;Node3 -->
<g id="edge2_Node000001_Node000003" class="edge">
<title>Node1&#45;&gt;Node3</title>
<g id="a_edge2_Node000001_Node000003"><a xlink:title=" ">
<path fill="none" stroke="#63b8ff" d="M320.84,-495.09C382.71,-457.64 477,-400.58 535.22,-365.34"/>
<polygon fill="#63b8ff" stroke="#63b8ff" points="319.23,-491.97 312.49,-500.14 322.86,-497.96 319.23,-491.97"/>
</a>
</g>
</g>
<!-- Node9 -->
<g id="Node000009" class="node">
<title>Node9</title>
<g id="a_Node000009"><a xlink:href="_error_state_8h.html" target="_top" xlink:title=" ">
<polygon fill="white" stroke="#666666" points="332.85,-465.25 185.6,-465.25 185.6,-401 332.85,-401 332.85,-465.25"/>
<text text-anchor="start" x="193.6" y="-451.75" font-family="Helvetica,sans-Serif" font-size="10.00">/Users/felixschulke</text>
<text text-anchor="start" x="193.6" y="-440.5" font-family="Helvetica,sans-Serif" font-size="10.00">/Developement/Arduino</text>
<text text-anchor="start" x="193.6" y="-429.25" font-family="Helvetica,sans-Serif" font-size="10.00">/Modbus_RTU/Modbus_RTU</text>
<text text-anchor="start" x="193.6" y="-418" font-family="Helvetica,sans-Serif" font-size="10.00">/Modbus&#45;RTU/lib/ErrorService</text>
<text text-anchor="middle" x="259.22" y="-406.75" font-family="Helvetica,sans-Serif" font-size="10.00">/ErrorState.h</text>
</a>
</g>
</g>
<!-- Node1&#45;&gt;Node9 -->
<g id="edge9_Node000001_Node000009" class="edge">
<title>Node1&#45;&gt;Node9</title>
<g id="a_edge9_Node000001_Node000009"><a xlink:title=" ">
<path fill="none" stroke="#63b8ff" d="M259.22,-489.76C259.22,-481.62 259.22,-473.23 259.22,-465.52"/>
<polygon fill="#63b8ff" stroke="#63b8ff" points="255.72,-489.5 259.22,-499.5 262.72,-489.5 255.72,-489.5"/>
</a>
</g>
</g>
<!-- Node4 -->
<g id="Node000004" class="node">
<title>Node4</title>
<g id="a_Node000004"><a xlink:href="_error_service_8cpp.html" target="_top" xlink:title=" ">
<polygon fill="white" stroke="#666666" points="663.85,-264.75 516.6,-264.75 516.6,-200.5 663.85,-200.5 663.85,-264.75"/>
<text text-anchor="start" x="524.6" y="-251.25" font-family="Helvetica,sans-Serif" font-size="10.00">/Users/felixschulke</text>
<text text-anchor="start" x="524.6" y="-240" font-family="Helvetica,sans-Serif" font-size="10.00">/Developement/Arduino</text>
<text text-anchor="start" x="524.6" y="-228.75" font-family="Helvetica,sans-Serif" font-size="10.00">/Modbus_RTU/Modbus_RTU</text>
<text text-anchor="start" x="524.6" y="-217.5" font-family="Helvetica,sans-Serif" font-size="10.00">/Modbus&#45;RTU/lib/ErrorService</text>
<text text-anchor="middle" x="590.22" y="-206.25" font-family="Helvetica,sans-Serif" font-size="10.00">/ErrorService.cpp</text>
</a>
</g>
</g>
<!-- Node3&#45;&gt;Node4 -->
<g id="edge3_Node000003_Node000004" class="edge">
<title>Node3&#45;&gt;Node4</title>
<g id="a_edge3_Node000003_Node000004"><a xlink:title=" ">
<path fill="none" stroke="#63b8ff" d="M588.52,-289.26C588.77,-281.12 589.03,-272.73 589.26,-265.02"/>
<polygon fill="#63b8ff" stroke="#63b8ff" points="585.03,-288.9 588.23,-299.01 592.03,-289.12 585.03,-288.9"/>
</a>
</g>
</g>
<!-- Node5 -->
<g id="Node000005" class="node">
<title>Node5</title>
<g id="a_Node000005"><a xlink:href="_service_interface_8h.html" target="_top" xlink:title=" ">
<polygon fill="white" stroke="#666666" points="324.97,-264.75 181.47,-264.75 181.47,-200.5 324.97,-200.5 324.97,-264.75"/>
<text text-anchor="start" x="189.47" y="-251.25" font-family="Helvetica,sans-Serif" font-size="10.00">/Users/felixschulke</text>
<text text-anchor="start" x="189.47" y="-240" font-family="Helvetica,sans-Serif" font-size="10.00">/Developement/Arduino</text>
<text text-anchor="start" x="189.47" y="-228.75" font-family="Helvetica,sans-Serif" font-size="10.00">/Modbus_RTU/Modbus_RTU</text>
<text text-anchor="start" x="189.47" y="-217.5" font-family="Helvetica,sans-Serif" font-size="10.00">/Modbus&#45;RTU/lib/Interface</text>
<text text-anchor="middle" x="253.22" y="-206.25" font-family="Helvetica,sans-Serif" font-size="10.00">/ServiceInterface.h</text>
</a>
</g>
</g>
<!-- Node3&#45;&gt;Node5 -->
<g id="edge4_Node000003_Node000005" class="edge">
<title>Node3&#45;&gt;Node5</title>
<g id="a_edge4_Node000003_Node000005"><a xlink:title=" ">
<path fill="none" stroke="#63b8ff" d="M502.56,-300.85C502.45,-300.82 502.34,-300.78 502.22,-300.75 428.86,-279.57 407.42,-286.51 334.22,-264.75 331.34,-263.89 328.4,-262.98 325.45,-262.02"/>
<polygon fill="#63b8ff" stroke="#63b8ff" points="501.22,-304.1 511.8,-303.66 503.25,-297.4 501.22,-304.1"/>
</a>
</g>
</g>
<!-- Node8 -->
<g id="Node000008" class="node">
<title>Node8</title>
<g id="a_Node000008"><a xlink:href="main_8cpp.html" target="_top" xlink:title="This main is an example&#45;implementation of a simple modbus&#45;messenger to demonstrate the usage of a lay...">
<polygon fill="white" stroke="#666666" points="509.97,-58.62 366.47,-58.62 366.47,-5.62 509.97,-5.62 509.97,-58.62"/>
<text text-anchor="start" x="374.47" y="-45.12" font-family="Helvetica,sans-Serif" font-size="10.00">/Users/felixschulke</text>
<text text-anchor="start" x="374.47" y="-33.88" font-family="Helvetica,sans-Serif" font-size="10.00">/Developement/Arduino</text>
<text text-anchor="start" x="374.47" y="-22.62" font-family="Helvetica,sans-Serif" font-size="10.00">/Modbus_RTU/Modbus_RTU</text>
<text text-anchor="middle" x="438.22" y="-11.38" font-family="Helvetica,sans-Serif" font-size="10.00">/Modbus&#45;RTU/src/main.cpp</text>
</a>
</g>
</g>
<!-- Node3&#45;&gt;Node8 -->
<g id="edge8_Node000003_Node000008" class="edge">
<title>Node3&#45;&gt;Node8</title>
<g id="a_edge8_Node000003_Node000008"><a xlink:title=" ">
<path fill="none" stroke="#63b8ff" d="M651.6,-292.89C660.34,-284.72 668.06,-275.33 673.22,-264.75 706.68,-196.19 681.01,-151.19 624.22,-100.25 592.54,-71.82 547.91,-55.18 510.31,-45.59"/>
<polygon fill="#63b8ff" stroke="#63b8ff" points="649.4,-290.17 644.11,-299.35 653.97,-295.47 649.4,-290.17"/>
</a>
</g>
</g>
<!-- Node6 -->
<g id="Node000006" class="node">
<title>Node6</title>
<g id="a_Node000006"><a xlink:href="_service_interface__modbus_r_t_u_8h.html" target="_top" xlink:title=" ">
<polygon fill="white" stroke="#666666" points="375.85,-164.5 216.6,-164.5 216.6,-100.25 375.85,-100.25 375.85,-164.5"/>
<text text-anchor="start" x="224.6" y="-151" font-family="Helvetica,sans-Serif" font-size="10.00">/Users/felixschulke</text>
<text text-anchor="start" x="224.6" y="-139.75" font-family="Helvetica,sans-Serif" font-size="10.00">/Developement/Arduino</text>
<text text-anchor="start" x="224.6" y="-128.5" font-family="Helvetica,sans-Serif" font-size="10.00">/Modbus_RTU/Modbus_RTU</text>
<text text-anchor="start" x="224.6" y="-117.25" font-family="Helvetica,sans-Serif" font-size="10.00">/Modbus&#45;RTU/lib/ModbusRTU</text>
<text text-anchor="middle" x="296.22" y="-106" font-family="Helvetica,sans-Serif" font-size="10.00">/ServiceInterface_modbusRTU.h</text>
</a>
</g>
</g>
<!-- Node5&#45;&gt;Node6 -->
<g id="edge5_Node000005_Node000006" class="edge">
<title>Node5&#45;&gt;Node6</title>
<g id="a_edge5_Node000005_Node000006"><a xlink:title=" ">
<path fill="none" stroke="#63b8ff" d="M271.5,-189.85C275.18,-181.45 278.99,-172.75 282.48,-164.77"/>
<polygon fill="#63b8ff" stroke="#63b8ff" points="268.36,-188.32 267.55,-198.88 274.77,-191.12 268.36,-188.32"/>
</a>
</g>
</g>
<!-- Node7 -->
<g id="Node000007" class="node">
<title>Node7</title>
<g id="a_Node000007"><a xlink:href="_service_interface__modbus_r_t_u_8cpp.html" target="_top" xlink:title=" ">
<polygon fill="white" stroke="#666666" points="348.1,-64.25 178.35,-64.25 178.35,0 348.1,0 348.1,-64.25"/>
<text text-anchor="start" x="186.35" y="-50.75" font-family="Helvetica,sans-Serif" font-size="10.00">/Users/felixschulke</text>
<text text-anchor="start" x="186.35" y="-39.5" font-family="Helvetica,sans-Serif" font-size="10.00">/Developement/Arduino</text>
<text text-anchor="start" x="186.35" y="-28.25" font-family="Helvetica,sans-Serif" font-size="10.00">/Modbus_RTU/Modbus_RTU</text>
<text text-anchor="start" x="186.35" y="-17" font-family="Helvetica,sans-Serif" font-size="10.00">/Modbus&#45;RTU/lib/ModbusRTU</text>
<text text-anchor="middle" x="263.22" y="-5.75" font-family="Helvetica,sans-Serif" font-size="10.00">/ServiceInterface_modbusRTU.cpp</text>
</a>
</g>
</g>
<!-- Node6&#45;&gt;Node7 -->
<g id="edge6_Node000006_Node000007" class="edge">
<title>Node6&#45;&gt;Node7</title>
<g id="a_edge6_Node000006_Node000007"><a xlink:title=" ">
<path fill="none" stroke="#63b8ff" d="M282.1,-89.32C279.31,-81.01 276.42,-72.41 273.77,-64.52"/>
<polygon fill="#63b8ff" stroke="#63b8ff" points="278.71,-90.22 285.21,-98.58 285.34,-87.99 278.71,-90.22"/>
</a>
</g>
</g>
<!-- Node6&#45;&gt;Node8 -->
<g id="edge7_Node000006_Node000008" class="edge">
<title>Node6&#45;&gt;Node8</title>
<g id="a_edge7_Node000006_Node000008"><a xlink:title=" ">
<path fill="none" stroke="#63b8ff" d="M350.71,-93.68C367.49,-82.06 385.58,-69.55 400.93,-58.93"/>
<polygon fill="#63b8ff" stroke="#63b8ff" points="349.02,-90.59 342.79,-99.16 353,-96.35 349.02,-90.59"/>
</a>
</g>
</g>
<!-- Node9&#45;&gt;Node5 -->
<g id="edge17_Node000009_Node000005" class="edge">
<title>Node9&#45;&gt;Node5</title>
<g id="a_edge17_Node000009_Node000005"><a xlink:title=" ">
<path fill="none" stroke="#63b8ff" d="M174.23,-400.55C101.42,-383.55 57.8,-420.42 13.22,-365 -4.67,-342.75 -4.04,-323.5 13.22,-300.75 33.59,-273.91 118.01,-254.88 181,-244.1"/>
<polygon fill="#63b8ff" stroke="#63b8ff" points="173.17,-403.89 183.73,-403.08 174.97,-397.13 173.17,-403.89"/>
</a>
</g>
</g>
<!-- Node10 -->
<g id="Node000010" class="node">
<title>Node10</title>
<g id="a_Node000010"><a xlink:href="_error_state_8cpp.html" target="_top" xlink:title=" ">
<polygon fill="white" stroke="#666666" points="169.85,-365 22.6,-365 22.6,-300.75 169.85,-300.75 169.85,-365"/>
<text text-anchor="start" x="30.6" y="-351.5" font-family="Helvetica,sans-Serif" font-size="10.00">/Users/felixschulke</text>
<text text-anchor="start" x="30.6" y="-340.25" font-family="Helvetica,sans-Serif" font-size="10.00">/Developement/Arduino</text>
<text text-anchor="start" x="30.6" y="-329" font-family="Helvetica,sans-Serif" font-size="10.00">/Modbus_RTU/Modbus_RTU</text>
<text text-anchor="start" x="30.6" y="-317.75" font-family="Helvetica,sans-Serif" font-size="10.00">/Modbus&#45;RTU/lib/ErrorService</text>
<text text-anchor="middle" x="96.22" y="-306.5" font-family="Helvetica,sans-Serif" font-size="10.00">/ErrorState.cpp</text>
</a>
</g>
</g>
<!-- Node9&#45;&gt;Node10 -->
<g id="edge10_Node000009_Node000010" class="edge">
<title>Node9&#45;&gt;Node10</title>
<g id="a_edge10_Node000009_Node000010"><a xlink:title=" ">
<path fill="none" stroke="#63b8ff" d="M197.36,-394.83C181.28,-385.14 164.12,-374.8 148.59,-365.44"/>
<polygon fill="#63b8ff" stroke="#63b8ff" points="195.53,-397.82 205.9,-399.99 199.15,-391.83 195.53,-397.82"/>
</a>
</g>
</g>
<!-- Node11 -->
<g id="Node000011" class="node">
<title>Node11</title>
<g id="a_Node000011"><a xlink:href="_comm_interface_8h.html" target="_top" xlink:title=" ">
<polygon fill="white" stroke="#666666" points="492.97,-365 349.47,-365 349.47,-300.75 492.97,-300.75 492.97,-365"/>
<text text-anchor="start" x="357.47" y="-351.5" font-family="Helvetica,sans-Serif" font-size="10.00">/Users/felixschulke</text>
<text text-anchor="start" x="357.47" y="-340.25" font-family="Helvetica,sans-Serif" font-size="10.00">/Developement/Arduino</text>
<text text-anchor="start" x="357.47" y="-329" font-family="Helvetica,sans-Serif" font-size="10.00">/Modbus_RTU/Modbus_RTU</text>
<text text-anchor="start" x="357.47" y="-317.75" font-family="Helvetica,sans-Serif" font-size="10.00">/Modbus&#45;RTU/lib/Interface</text>
<text text-anchor="middle" x="421.22" y="-306.5" font-family="Helvetica,sans-Serif" font-size="10.00">/CommInterface.h</text>
</a>
</g>
</g>
<!-- Node9&#45;&gt;Node11 -->
<g id="edge11_Node000009_Node000011" class="edge">
<title>Node9&#45;&gt;Node11</title>
<g id="a_edge11_Node000009_Node000011"><a xlink:title=" ">
<path fill="none" stroke="#63b8ff" d="M320.71,-394.83C336.69,-385.14 353.74,-374.8 369.18,-365.44"/>
<polygon fill="#63b8ff" stroke="#63b8ff" points="318.96,-391.8 312.22,-399.98 322.59,-397.79 318.96,-391.8"/>
</a>
</g>
</g>
<!-- Node14 -->
<g id="Node000014" class="node">
<title>Node14</title>
<g id="a_Node000014"><a xlink:href="_service_cluster_8h.html" target="_top" xlink:title=" ">
<polygon fill="white" stroke="#666666" points="330.97,-365 187.47,-365 187.47,-300.75 330.97,-300.75 330.97,-365"/>
<text text-anchor="start" x="195.47" y="-351.5" font-family="Helvetica,sans-Serif" font-size="10.00">/Users/felixschulke</text>
<text text-anchor="start" x="195.47" y="-340.25" font-family="Helvetica,sans-Serif" font-size="10.00">/Developement/Arduino</text>
<text text-anchor="start" x="195.47" y="-329" font-family="Helvetica,sans-Serif" font-size="10.00">/Modbus_RTU/Modbus_RTU</text>
<text text-anchor="start" x="195.47" y="-317.75" font-family="Helvetica,sans-Serif" font-size="10.00">/Modbus&#45;RTU/lib/Service</text>
<text text-anchor="middle" x="259.22" y="-306.5" font-family="Helvetica,sans-Serif" font-size="10.00">/ServiceCluster.h</text>
</a>
</g>
</g>
<!-- Node9&#45;&gt;Node14 -->
<g id="edge18_Node000009_Node000014" class="edge">
<title>Node9&#45;&gt;Node14</title>
<g id="a_edge18_Node000009_Node000014"><a xlink:title=" ">
<path fill="none" stroke="#63b8ff" d="M259.22,-389.51C259.22,-381.37 259.22,-372.98 259.22,-365.27"/>
<polygon fill="#63b8ff" stroke="#63b8ff" points="255.72,-389.25 259.22,-399.25 262.72,-389.25 255.72,-389.25"/>
</a>
</g>
</g>
<!-- Node11&#45;&gt;Node5 -->
<g id="edge12_Node000011_Node000005" class="edge">
<title>Node11&#45;&gt;Node5</title>
<g id="a_edge12_Node000011_Node000005"><a xlink:title=" ">
<path fill="none" stroke="#63b8ff" d="M357.93,-294.86C341.22,-285.09 323.36,-274.64 307.2,-265.19"/>
<polygon fill="#63b8ff" stroke="#63b8ff" points="355.9,-297.73 366.3,-299.75 359.43,-291.68 355.9,-297.73"/>
</a>
</g>
</g>
<!-- Node12 -->
<g id="Node000012" class="node">
<title>Node12</title>
<g id="a_Node000012"><a xlink:href="_comm_interface__modbus_r_t_u_8h.html" target="_top" xlink:title=" ">
<polygon fill="white" stroke="#666666" points="498.97,-264.75 343.47,-264.75 343.47,-200.5 498.97,-200.5 498.97,-264.75"/>
<text text-anchor="start" x="351.47" y="-251.25" font-family="Helvetica,sans-Serif" font-size="10.00">/Users/felixschulke</text>
<text text-anchor="start" x="351.47" y="-240" font-family="Helvetica,sans-Serif" font-size="10.00">/Developement/Arduino</text>
<text text-anchor="start" x="351.47" y="-228.75" font-family="Helvetica,sans-Serif" font-size="10.00">/Modbus_RTU/Modbus_RTU</text>
<text text-anchor="start" x="351.47" y="-217.5" font-family="Helvetica,sans-Serif" font-size="10.00">/Modbus&#45;RTU/lib/ModbusRTU</text>
<text text-anchor="middle" x="421.22" y="-206.25" font-family="Helvetica,sans-Serif" font-size="10.00">/CommInterface_modbusRTU.h</text>
</a>
</g>
</g>
<!-- Node11&#45;&gt;Node12 -->
<g id="edge13_Node000011_Node000012" class="edge">
<title>Node11&#45;&gt;Node12</title>
<g id="a_edge13_Node000011_Node000012"><a xlink:title=" ">
<path fill="none" stroke="#63b8ff" d="M421.22,-289.26C421.22,-281.12 421.22,-272.73 421.22,-265.02"/>
<polygon fill="#63b8ff" stroke="#63b8ff" points="417.72,-289 421.22,-299 424.72,-289 417.72,-289"/>
</a>
</g>
</g>
<!-- Node12&#45;&gt;Node6 -->
<g id="edge15_Node000012_Node000006" class="edge">
<title>Node12&#45;&gt;Node6</title>
<g id="a_edge15_Node000012_Node000006"><a xlink:title=" ">
<path fill="none" stroke="#63b8ff" d="M372.34,-193.2C360.35,-183.78 347.67,-173.81 336.17,-164.77"/>
<polygon fill="#63b8ff" stroke="#63b8ff" points="370.11,-195.9 380.14,-199.33 374.44,-190.4 370.11,-195.9"/>
</a>
</g>
</g>
<!-- Node12&#45;&gt;Node8 -->
<g id="edge16_Node000012_Node000008" class="edge">
<title>Node12&#45;&gt;Node8</title>
<g id="a_edge16_Node000012_Node000008"><a xlink:title=" ">
<path fill="none" stroke="#63b8ff" d="M424.89,-188.79C428.27,-149.31 433.18,-92 436,-59.05"/>
<polygon fill="#63b8ff" stroke="#63b8ff" points="421.41,-188.4 424.05,-198.66 428.39,-189 421.41,-188.4"/>
</a>
</g>
</g>
<!-- Node13 -->
<g id="Node000013" class="node">
<title>Node13</title>
<g id="a_Node000013"><a xlink:href="_comm_interface__modbus_r_t_u_8cpp.html" target="_top" xlink:title=" ">
<polygon fill="white" stroke="#666666" points="615.22,-164.5 449.22,-164.5 449.22,-100.25 615.22,-100.25 615.22,-164.5"/>
<text text-anchor="start" x="457.22" y="-151" font-family="Helvetica,sans-Serif" font-size="10.00">/Users/felixschulke</text>
<text text-anchor="start" x="457.22" y="-139.75" font-family="Helvetica,sans-Serif" font-size="10.00">/Developement/Arduino</text>
<text text-anchor="start" x="457.22" y="-128.5" font-family="Helvetica,sans-Serif" font-size="10.00">/Modbus_RTU/Modbus_RTU</text>
<text text-anchor="start" x="457.22" y="-117.25" font-family="Helvetica,sans-Serif" font-size="10.00">/Modbus&#45;RTU/lib/ModbusRTU</text>
<text text-anchor="middle" x="532.22" y="-106" font-family="Helvetica,sans-Serif" font-size="10.00">/CommInterface_modbusRTU.cpp</text>
</a>
</g>
</g>
<!-- Node12&#45;&gt;Node13 -->
<g id="edge14_Node000012_Node000013" class="edge">
<title>Node12&#45;&gt;Node13</title>
<g id="a_edge14_Node000012_Node000013"><a xlink:title=" ">
<path fill="none" stroke="#63b8ff" d="M465.26,-192.64C475.72,-183.39 486.74,-173.64 496.75,-164.77"/>
<polygon fill="#63b8ff" stroke="#63b8ff" points="462.95,-190.02 457.78,-199.26 467.59,-195.26 462.95,-190.02"/>
</a>
</g>
</g>
<!-- Node14&#45;&gt;Node5 -->
<g id="edge19_Node000014_Node000005" class="edge">
<title>Node14&#45;&gt;Node5</title>
<g id="a_edge19_Node000014_Node000005"><a xlink:title=" ">
<path fill="none" stroke="#63b8ff" d="M256.62,-289.26C256.12,-281.12 255.61,-272.73 255.14,-265.02"/>
<polygon fill="#63b8ff" stroke="#63b8ff" points="253.11,-289.24 257.22,-299.01 260.1,-288.81 253.11,-289.24"/>
</a>
</g>
</g>
</g>
</svg>
