<?xml version="1.0" encoding="UTF-8" standalone="no"?>
<!DOCTYPE svg PUBLIC "-//W3C//DTD SVG 1.1//EN"
 "http://www.w3.org/Graphics/SVG/1.1/DTD/svg11.dtd">
<!-- Generated by graphviz version 12.1.2 (20240928.0832)
 -->
<!-- Title: /Users/felixschulke/Developement/Arduino/Modbus_RTU/Modbus_RTU/Modbus&#45;RTU/lib/ErrorService/Error.h Pages: 1 -->
<svg width="389pt" height="238pt"
 viewBox="0.00 0.00 388.75 238.00" xmlns="http://www.w3.org/2000/svg" xmlns:xlink="http://www.w3.org/1999/xlink">
<g id="graph0" class="graph" transform="scale(1 1) rotate(0) translate(4 234)">
<title>/Users/felixschulke/Developement/Arduino/Modbus_RTU/Modbus_RTU/Modbus&#45;RTU/lib/ErrorService/Error.h</title>
<!-- Node1 -->
<g id="Node000001" class="node">
<title>Node1</title>
<g id="a_Node000001"><a xlink:title=" ">
<polygon fill="#999999" stroke="#666666" points="187.38,-230 40.12,-230 40.12,-165.75 187.38,-165.75 187.38,-230"/>
<text text-anchor="start" x="48.12" y="-216.5" font-family="Helvetica,sans-Serif" font-size="10.00">/Users/felixschulke</text>
<text text-anchor="start" x="48.12" y="-205.25" font-family="Helvetica,sans-Serif" font-size="10.00">/Developement/Arduino</text>
<text text-anchor="start" x="48.12" y="-194" font-family="Helvetica,sans-Serif" font-size="10.00">/Modbus_RTU/Modbus_RTU</text>
<text text-anchor="start" x="48.12" y="-182.75" font-family="Helvetica,sans-Serif" font-size="10.00">/Modbus&#45;RTU/lib/ErrorService</text>
<text text-anchor="middle" x="113.75" y="-171.5" font-family="Helvetica,sans-Serif" font-size="10.00">/Error.h</text>
</a>
</g>
</g>
<!-- Node2 -->
<g id="Node000002" class="node">
<title>Node2</title>
<g id="a_Node000002"><a xlink:title=" ">
<polygon fill="#e0e0e0" stroke="#999999" points="53.5,-19.25 0,-19.25 0,0 53.5,0 53.5,-19.25"/>
<text text-anchor="middle" x="26.75" y="-5.75" font-family="Helvetica,sans-Serif" font-size="10.00">iostream</text>
</a>
</g>
</g>
<!-- Node1&#45;&gt;Node2 -->
<g id="edge1_Node000001_Node000002" class="edge">
<title>Node1&#45;&gt;Node2</title>
<g id="a_edge1_Node000001_Node000002"><a xlink:title=" ">
<path fill="none" stroke="#63b8ff" d="M96.74,-165.35C90.87,-154.19 84.36,-141.49 78.75,-129.75 62.18,-95.09 44.65,-53.85 34.77,-30.11"/>
<polygon fill="#63b8ff" stroke="#63b8ff" points="38.09,-28.99 31.03,-21.09 31.62,-31.66 38.09,-28.99"/>
</a>
</g>
</g>
<!-- Node3 -->
<g id="Node000003" class="node">
<title>Node3</title>
<g id="a_Node000003"><a xlink:title=" ">
<polygon fill="#e0e0e0" stroke="#999999" points="131.38,-74.5 86.12,-74.5 86.12,-55.25 131.38,-55.25 131.38,-74.5"/>
<text text-anchor="middle" x="108.75" y="-61" font-family="Helvetica,sans-Serif" font-size="10.00">cstring</text>
</a>
</g>
</g>
<!-- Node1&#45;&gt;Node3 -->
<g id="edge2_Node000001_Node000003" class="edge">
<title>Node1&#45;&gt;Node3</title>
<g id="a_edge2_Node000001_Node000003"><a xlink:title=" ">
<path fill="none" stroke="#63b8ff" d="M96.4,-165.37C91.27,-154.43 86.33,-141.86 83.75,-129.75 81.97,-121.38 81.59,-118.78 83.75,-110.5 86.16,-101.28 90.93,-91.96 95.67,-84.23"/>
<polygon fill="#63b8ff" stroke="#63b8ff" points="98.45,-86.38 101.05,-76.11 92.61,-82.51 98.45,-86.38"/>
</a>
</g>
</g>
<!-- Node4 -->
<g id="Node000004" class="node">
<title>Node4</title>
<g id="a_Node000004"><a xlink:title=" ">
<polygon fill="#e0e0e0" stroke="#999999" points="134.88,-129.75 92.62,-129.75 92.62,-110.5 134.88,-110.5 134.88,-129.75"/>
<text text-anchor="middle" x="113.75" y="-116.25" font-family="Helvetica,sans-Serif" font-size="10.00">cstdio</text>
</a>
</g>
</g>
<!-- Node1&#45;&gt;Node4 -->
<g id="edge3_Node000001_Node000004" class="edge">
<title>Node1&#45;&gt;Node4</title>
<g id="a_edge3_Node000001_Node000004"><a xlink:title=" ">
<path fill="none" stroke="#63b8ff" d="M113.75,-165.63C113.75,-157.48 113.75,-148.91 113.75,-141.48"/>
<polygon fill="#63b8ff" stroke="#63b8ff" points="117.25,-141.55 113.75,-131.55 110.25,-141.55 117.25,-141.55"/>
</a>
</g>
</g>
<!-- Node5 -->
<g id="Node000005" class="node">
<title>Node5</title>
<g id="a_Node000005"><a xlink:href="mock_arduino_8h.html" target="_top" xlink:title=" ">
<polygon fill="white" stroke="#666666" points="242.38,-74.5 161.12,-74.5 161.12,-55.25 242.38,-55.25 242.38,-74.5"/>
<text text-anchor="middle" x="201.75" y="-61" font-family="Helvetica,sans-Serif" font-size="10.00">mockArduino.h</text>
</a>
</g>
</g>
<!-- Node1&#45;&gt;Node5 -->
<g id="edge4_Node000001_Node000005" class="edge">
<title>Node1&#45;&gt;Node5</title>
<g id="a_edge4_Node000001_Node000005"><a xlink:title=" ">
<path fill="none" stroke="#63b8ff" d="M186.37,-165.43C200.14,-156.02 212.74,-144.24 220.75,-129.75 228.7,-115.37 221.98,-97.29 214.42,-84.03"/>
<polygon fill="#63b8ff" stroke="#63b8ff" points="217.57,-82.45 209.26,-75.88 211.65,-86.2 217.57,-82.45"/>
</a>
</g>
</g>
<!-- Node11 -->
<g id="Node000011" class="node">
<title>Node11</title>
<g id="a_Node000011"><a xlink:href="_content_8h.html" target="_top" xlink:title=" ">
<polygon fill="white" stroke="#666666" points="212.12,-129.75 153.38,-129.75 153.38,-110.5 212.12,-110.5 212.12,-129.75"/>
<text text-anchor="middle" x="182.75" y="-116.25" font-family="Helvetica,sans-Serif" font-size="10.00">Content.h</text>
</a>
</g>
</g>
<!-- Node1&#45;&gt;Node11 -->
<g id="edge11_Node000001_Node000011" class="edge">
<title>Node1&#45;&gt;Node11</title>
<g id="a_edge11_Node000001_Node000011"><a xlink:title=" ">
<path fill="none" stroke="#63b8ff" d="M142.21,-165.63C150.64,-156.37 159.57,-146.57 166.9,-138.53"/>
<polygon fill="#63b8ff" stroke="#63b8ff" points="169.47,-140.9 173.61,-131.15 164.29,-136.19 169.47,-140.9"/>
</a>
</g>
</g>
<!-- Node5&#45;&gt;Node2 -->
<g id="edge5_Node000005_Node000002" class="edge">
<title>Node5&#45;&gt;Node2</title>
<g id="a_edge5_Node000005_Node000002"><a xlink:title=" ">
<path fill="none" stroke="#63b8ff" d="M172.06,-54.84C142.49,-45.84 96.97,-31.99 64.77,-22.2"/>
<polygon fill="#63b8ff" stroke="#63b8ff" points="66.02,-18.92 55.44,-19.35 63.98,-25.61 66.02,-18.92"/>
</a>
</g>
</g>
<!-- Node6 -->
<g id="Node000006" class="node">
<title>Node6</title>
<g id="a_Node000006"><a xlink:title=" ">
<polygon fill="#e0e0e0" stroke="#999999" points="111.75,-19.25 71.75,-19.25 71.75,0 111.75,0 111.75,-19.25"/>
<text text-anchor="middle" x="91.75" y="-5.75" font-family="Helvetica,sans-Serif" font-size="10.00">string</text>
</a>
</g>
</g>
<!-- Node5&#45;&gt;Node6 -->
<g id="edge6_Node000005_Node000006" class="edge">
<title>Node5&#45;&gt;Node6</title>
<g id="a_edge6_Node000005_Node000006"><a xlink:title=" ">
<path fill="none" stroke="#63b8ff" d="M183.09,-54.84C166.02,-46.58 140.51,-34.23 120.78,-24.68"/>
<polygon fill="#63b8ff" stroke="#63b8ff" points="122.39,-21.57 111.86,-20.36 119.34,-27.87 122.39,-21.57"/>
</a>
</g>
</g>
<!-- Node7 -->
<g id="Node000007" class="node">
<title>Node7</title>
<g id="a_Node000007"><a xlink:title=" ">
<polygon fill="#e0e0e0" stroke="#999999" points="181.38,-19.25 130.12,-19.25 130.12,0 181.38,0 181.38,-19.25"/>
<text text-anchor="middle" x="155.75" y="-5.75" font-family="Helvetica,sans-Serif" font-size="10.00">sstream</text>
</a>
</g>
</g>
<!-- Node5&#45;&gt;Node7 -->
<g id="edge7_Node000005_Node000007" class="edge">
<title>Node5&#45;&gt;Node7</title>
<g id="a_edge7_Node000005_Node000007"><a xlink:title=" ">
<path fill="none" stroke="#63b8ff" d="M194.15,-55.08C187.87,-47.8 178.74,-37.23 170.95,-28.23"/>
<polygon fill="#63b8ff" stroke="#63b8ff" points="173.69,-26.03 164.5,-20.75 168.39,-30.61 173.69,-26.03"/>
</a>
</g>
</g>
<!-- Node8 -->
<g id="Node000008" class="node">
<title>Node8</title>
<g id="a_Node000008"><a xlink:title=" ">
<polygon fill="#e0e0e0" stroke="#999999" points="244.38,-19.25 199.12,-19.25 199.12,0 244.38,0 244.38,-19.25"/>
<text text-anchor="middle" x="221.75" y="-5.75" font-family="Helvetica,sans-Serif" font-size="10.00">chrono</text>
</a>
</g>
</g>
<!-- Node5&#45;&gt;Node8 -->
<g id="edge8_Node000005_Node000008" class="edge">
<title>Node5&#45;&gt;Node8</title>
<g id="a_edge8_Node000005_Node000008"><a xlink:title=" ">
<path fill="none" stroke="#63b8ff" d="M205.05,-55.08C207.58,-48.34 211.18,-38.77 214.38,-30.24"/>
<polygon fill="#63b8ff" stroke="#63b8ff" points="217.6,-31.62 217.84,-21.03 211.05,-29.16 217.6,-31.62"/>
</a>
</g>
</g>
<!-- Node9 -->
<g id="Node000009" class="node">
<title>Node9</title>
<g id="a_Node000009"><a xlink:title=" ">
<polygon fill="#e0e0e0" stroke="#999999" points="304.88,-19.25 262.62,-19.25 262.62,0 304.88,0 304.88,-19.25"/>
<text text-anchor="middle" x="283.75" y="-5.75" font-family="Helvetica,sans-Serif" font-size="10.00">queue</text>
</a>
</g>
</g>
<!-- Node5&#45;&gt;Node9 -->
<g id="edge9_Node000005_Node000009" class="edge">
<title>Node5&#45;&gt;Node9</title>
<g id="a_edge9_Node000005_Node000009"><a xlink:title=" ">
<path fill="none" stroke="#63b8ff" d="M215.66,-54.84C227.91,-46.89 246,-35.14 260.46,-25.75"/>
<polygon fill="#63b8ff" stroke="#63b8ff" points="262.02,-28.91 268.5,-20.53 258.21,-23.04 262.02,-28.91"/>
</a>
</g>
</g>
<!-- Node10 -->
<g id="Node000010" class="node">
<title>Node10</title>
<g id="a_Node000010"><a xlink:title=" ">
<polygon fill="#e0e0e0" stroke="#999999" points="380.75,-19.25 322.75,-19.25 322.75,0 380.75,0 380.75,-19.25"/>
<text text-anchor="middle" x="351.75" y="-5.75" font-family="Helvetica,sans-Serif" font-size="10.00">functional</text>
</a>
</g>
</g>
<!-- Node5&#45;&gt;Node10 -->
<g id="edge10_Node000005_Node000010" class="edge">
<title>Node5&#45;&gt;Node10</title>
<g id="a_edge10_Node000005_Node000010"><a xlink:title=" ">
<path fill="none" stroke="#63b8ff" d="M227.2,-54.84C251.44,-46.24 288.18,-33.19 315.49,-23.5"/>
<polygon fill="#63b8ff" stroke="#63b8ff" points="316.5,-26.85 324.75,-20.21 314.16,-20.26 316.5,-26.85"/>
</a>
</g>
</g>
<!-- Node11&#45;&gt;Node3 -->
<g id="edge13_Node000011_Node000003" class="edge">
<title>Node11&#45;&gt;Node3</title>
<g id="a_edge13_Node000011_Node000003"><a xlink:title=" ">
<path fill="none" stroke="#63b8ff" d="M170.2,-110.09C159.29,-102.24 143.25,-90.7 130.29,-81.37"/>
<polygon fill="#63b8ff" stroke="#63b8ff" points="132.51,-78.66 122.35,-75.66 128.42,-84.34 132.51,-78.66"/>
</a>
</g>
</g>
<!-- Node11&#45;&gt;Node5 -->
<g id="edge12_Node000011_Node000005" class="edge">
<title>Node11&#45;&gt;Node5</title>
<g id="a_edge12_Node000011_Node000005"><a xlink:title=" ">
<path fill="none" stroke="#63b8ff" d="M185.89,-110.33C188.29,-103.59 191.71,-94.02 194.75,-85.49"/>
<polygon fill="#63b8ff" stroke="#63b8ff" points="197.97,-86.88 198.04,-76.28 191.38,-84.53 197.97,-86.88"/>
</a>
</g>
</g>
</g>
</svg>
