<?xml version="1.0" encoding="UTF-8" standalone="no"?>
<!DOCTYPE svg PUBLIC "-//W3C//DTD SVG 1.1//EN"
 "http://www.w3.org/Graphics/SVG/1.1/DTD/svg11.dtd">
<!-- Generated by graphviz version 12.1.2 (20240928.0832)
 -->
<!-- Title: /Users/felixschulke/Developement/Arduino/Modbus_RTU/Modbus_RTU/Modbus&#45;RTU/lib/ErrorService/ErrorState.h Pages: 1 -->
<svg width="388pt" height="293pt"
 viewBox="0.00 0.00 388.38 293.25" xmlns="http://www.w3.org/2000/svg" xmlns:xlink="http://www.w3.org/1999/xlink">
<g id="graph0" class="graph" transform="scale(1 1) rotate(0) translate(4 289.25)">
<title>/Users/felixschulke/Developement/Arduino/Modbus_RTU/Modbus_RTU/Modbus&#45;RTU/lib/ErrorService/ErrorState.h</title>
<!-- Node1 -->
<g id="Node000001" class="node">
<title>Node1</title>
<g id="a_Node000001"><a xlink:title=" ">
<polygon fill="#999999" stroke="#666666" points="265.38,-285.25 118.12,-285.25 118.12,-221 265.38,-221 265.38,-285.25"/>
<text text-anchor="start" x="126.12" y="-271.75" font-family="Helvetica,sans-Serif" font-size="10.00">/Users/felixschulke</text>
<text text-anchor="start" x="126.12" y="-260.5" font-family="Helvetica,sans-Serif" font-size="10.00">/Developement/Arduino</text>
<text text-anchor="start" x="126.12" y="-249.25" font-family="Helvetica,sans-Serif" font-size="10.00">/Modbus_RTU/Modbus_RTU</text>
<text text-anchor="start" x="126.12" y="-238" font-family="Helvetica,sans-Serif" font-size="10.00">/Modbus&#45;RTU/lib/ErrorService</text>
<text text-anchor="middle" x="191.75" y="-226.75" font-family="Helvetica,sans-Serif" font-size="10.00">/ErrorState.h</text>
</a>
</g>
</g>
<!-- Node2 -->
<g id="Node000002" class="node">
<title>Node2</title>
<g id="a_Node000002"><a xlink:title=" ">
<polygon fill="#e0e0e0" stroke="#999999" points="53.5,-19.25 0,-19.25 0,0 53.5,0 53.5,-19.25"/>
<text text-anchor="middle" x="26.75" y="-5.75" font-family="Helvetica,sans-Serif" font-size="10.00">iostream</text>
</a>
</g>
</g>
<!-- Node1&#45;&gt;Node2 -->
<g id="edge1_Node000001_Node000002" class="edge">
<title>Node1&#45;&gt;Node2</title>
<g id="a_edge1_Node000001_Node000002"><a xlink:title=" ">
<path fill="none" stroke="#63b8ff" d="M169.52,-220.52C144.71,-185.12 103.48,-125.96 68.75,-74.5 58.43,-59.2 46.92,-41.68 38.57,-28.86"/>
<polygon fill="#63b8ff" stroke="#63b8ff" points="41.6,-27.09 33.22,-20.62 35.73,-30.91 41.6,-27.09"/>
</a>
</g>
</g>
<!-- Node3 -->
<g id="Node000003" class="node">
<title>Node3</title>
<g id="a_Node000003"><a xlink:title=" ">
<polygon fill="#e0e0e0" stroke="#999999" points="271.38,-74.5 226.12,-74.5 226.12,-55.25 271.38,-55.25 271.38,-74.5"/>
<text text-anchor="middle" x="248.75" y="-61" font-family="Helvetica,sans-Serif" font-size="10.00">cstring</text>
</a>
</g>
</g>
<!-- Node1&#45;&gt;Node3 -->
<g id="edge2_Node000001_Node000003" class="edge">
<title>Node1&#45;&gt;Node3</title>
<g id="a_edge2_Node000001_Node000003"><a xlink:title=" ">
<path fill="none" stroke="#63b8ff" d="M245.06,-220.59C275.55,-199.24 310.97,-168 327.75,-129.75 338.58,-105.05 308.28,-87.06 282.12,-76.59"/>
<polygon fill="#63b8ff" stroke="#63b8ff" points="283.68,-73.43 273.09,-73.22 281.23,-79.99 283.68,-73.43"/>
</a>
</g>
</g>
<!-- Node4 -->
<g id="Node000004" class="node">
<title>Node4</title>
<g id="a_Node000004"><a xlink:title=" ">
<polygon fill="#e0e0e0" stroke="#999999" points="318.88,-129.75 276.62,-129.75 276.62,-110.5 318.88,-110.5 318.88,-129.75"/>
<text text-anchor="middle" x="297.75" y="-116.25" font-family="Helvetica,sans-Serif" font-size="10.00">cstdio</text>
</a>
</g>
</g>
<!-- Node1&#45;&gt;Node4 -->
<g id="edge3_Node000001_Node000004" class="edge">
<title>Node1&#45;&gt;Node4</title>
<g id="a_edge3_Node000001_Node000004"><a xlink:title=" ">
<path fill="none" stroke="#63b8ff" d="M217.14,-220.75C237.87,-195.13 266.41,-159.86 283.38,-138.88"/>
<polygon fill="#63b8ff" stroke="#63b8ff" points="285.98,-141.24 289.55,-131.26 280.53,-136.84 285.98,-141.24"/>
</a>
</g>
</g>
<!-- Node5 -->
<g id="Node000005" class="node">
<title>Node5</title>
<g id="a_Node000005"><a xlink:href="mock_arduino_8h.html" target="_top" xlink:title=" ">
<polygon fill="white" stroke="#666666" points="206.38,-74.5 125.12,-74.5 125.12,-55.25 206.38,-55.25 206.38,-74.5"/>
<text text-anchor="middle" x="165.75" y="-61" font-family="Helvetica,sans-Serif" font-size="10.00">mockArduino.h</text>
</a>
</g>
</g>
<!-- Node1&#45;&gt;Node5 -->
<g id="edge4_Node000001_Node000005" class="edge">
<title>Node1&#45;&gt;Node5</title>
<g id="a_edge4_Node000001_Node000005"><a xlink:title=" ">
<path fill="none" stroke="#63b8ff" d="M175.7,-220.53C170.48,-209.47 164.95,-196.86 160.75,-185 152.29,-161.12 149.89,-154.89 146.75,-129.75 145.69,-121.26 145.04,-118.88 146.75,-110.5 148.54,-101.74 152.11,-92.57 155.68,-84.84"/>
<polygon fill="#63b8ff" stroke="#63b8ff" points="158.7,-86.62 160.02,-76.11 152.43,-83.5 158.7,-86.62"/>
</a>
</g>
</g>
<!-- Node11 -->
<g id="Node000011" class="node">
<title>Node11</title>
<g id="a_Node000011"><a xlink:href="_error_8h.html" target="_top" xlink:title=" ">
<polygon fill="white" stroke="#666666" points="214,-185 169.5,-185 169.5,-165.75 214,-165.75 214,-185"/>
<text text-anchor="middle" x="191.75" y="-171.5" font-family="Helvetica,sans-Serif" font-size="10.00">Error.h</text>
</a>
</g>
</g>
<!-- Node1&#45;&gt;Node11 -->
<g id="edge11_Node000001_Node000011" class="edge">
<title>Node1&#45;&gt;Node11</title>
<g id="a_edge11_Node000001_Node000011"><a xlink:title=" ">
<path fill="none" stroke="#63b8ff" d="M191.75,-220.88C191.75,-212.73 191.75,-204.16 191.75,-196.73"/>
<polygon fill="#63b8ff" stroke="#63b8ff" points="195.25,-196.8 191.75,-186.8 188.25,-196.8 195.25,-196.8"/>
</a>
</g>
</g>
<!-- Node5&#45;&gt;Node2 -->
<g id="edge5_Node000005_Node000002" class="edge">
<title>Node5&#45;&gt;Node2</title>
<g id="a_edge5_Node000005_Node000002"><a xlink:title=" ">
<path fill="none" stroke="#63b8ff" d="M142.17,-54.84C119.91,-46.31 86.26,-33.42 61.03,-23.76"/>
<polygon fill="#63b8ff" stroke="#63b8ff" points="62.45,-20.55 51.86,-20.24 59.94,-27.09 62.45,-20.55"/>
</a>
</g>
</g>
<!-- Node6 -->
<g id="Node000006" class="node">
<title>Node6</title>
<g id="a_Node000006"><a xlink:title=" ">
<polygon fill="#e0e0e0" stroke="#999999" points="247.75,-19.25 207.75,-19.25 207.75,0 247.75,0 247.75,-19.25"/>
<text text-anchor="middle" x="227.75" y="-5.75" font-family="Helvetica,sans-Serif" font-size="10.00">string</text>
</a>
</g>
</g>
<!-- Node5&#45;&gt;Node6 -->
<g id="edge6_Node000005_Node000006" class="edge">
<title>Node5&#45;&gt;Node6</title>
<g id="a_edge6_Node000005_Node000006"><a xlink:title=" ">
<path fill="none" stroke="#63b8ff" d="M176.27,-54.84C185.14,-47.22 198.06,-36.12 208.74,-26.95"/>
<polygon fill="#63b8ff" stroke="#63b8ff" points="210.93,-29.68 216.24,-20.51 206.37,-24.37 210.93,-29.68"/>
</a>
</g>
</g>
<!-- Node7 -->
<g id="Node000007" class="node">
<title>Node7</title>
<g id="a_Node000007"><a xlink:title=" ">
<polygon fill="#e0e0e0" stroke="#999999" points="317.38,-19.25 266.12,-19.25 266.12,0 317.38,0 317.38,-19.25"/>
<text text-anchor="middle" x="291.75" y="-5.75" font-family="Helvetica,sans-Serif" font-size="10.00">sstream</text>
</a>
</g>
</g>
<!-- Node5&#45;&gt;Node7 -->
<g id="edge7_Node000005_Node000007" class="edge">
<title>Node5&#45;&gt;Node7</title>
<g id="a_edge7_Node000005_Node000007"><a xlink:title=" ">
<path fill="none" stroke="#63b8ff" d="M187.12,-54.84C207.04,-46.43 236.99,-33.77 259.75,-24.15"/>
<polygon fill="#63b8ff" stroke="#63b8ff" points="261.03,-27.41 268.88,-20.29 258.3,-20.96 261.03,-27.41"/>
</a>
</g>
</g>
<!-- Node8 -->
<g id="Node000008" class="node">
<title>Node8</title>
<g id="a_Node000008"><a xlink:title=" ">
<polygon fill="#e0e0e0" stroke="#999999" points="380.38,-19.25 335.12,-19.25 335.12,0 380.38,0 380.38,-19.25"/>
<text text-anchor="middle" x="357.75" y="-5.75" font-family="Helvetica,sans-Serif" font-size="10.00">chrono</text>
</a>
</g>
</g>
<!-- Node5&#45;&gt;Node8 -->
<g id="edge8_Node000005_Node000008" class="edge">
<title>Node5&#45;&gt;Node8</title>
<g id="a_edge8_Node000005_Node000008"><a xlink:title=" ">
<path fill="none" stroke="#63b8ff" d="M198.44,-54.82C228.68,-46.45 275.19,-33.56 323.69,-20.1"/>
<polygon fill="#63b8ff" stroke="#63b8ff" points="324.57,-23.49 333.27,-17.44 322.7,-16.74 324.57,-23.49"/>
</a>
</g>
</g>
<!-- Node9 -->
<g id="Node000009" class="node">
<title>Node9</title>
<g id="a_Node000009"><a xlink:title=" ">
<polygon fill="#e0e0e0" stroke="#999999" points="113.88,-19.25 71.62,-19.25 71.62,0 113.88,0 113.88,-19.25"/>
<text text-anchor="middle" x="92.75" y="-5.75" font-family="Helvetica,sans-Serif" font-size="10.00">queue</text>
</a>
</g>
</g>
<!-- Node5&#45;&gt;Node9 -->
<g id="edge9_Node000005_Node000009" class="edge">
<title>Node5&#45;&gt;Node9</title>
<g id="a_edge9_Node000005_Node000009"><a xlink:title=" ">
<path fill="none" stroke="#63b8ff" d="M153.37,-54.84C142.6,-46.99 126.78,-35.45 114,-26.12"/>
<polygon fill="#63b8ff" stroke="#63b8ff" points="116.31,-23.48 106.17,-20.42 112.19,-29.14 116.31,-23.48"/>
</a>
</g>
</g>
<!-- Node10 -->
<g id="Node000010" class="node">
<title>Node10</title>
<g id="a_Node000010"><a xlink:title=" ">
<polygon fill="#e0e0e0" stroke="#999999" points="189.75,-19.25 131.75,-19.25 131.75,0 189.75,0 189.75,-19.25"/>
<text text-anchor="middle" x="160.75" y="-5.75" font-family="Helvetica,sans-Serif" font-size="10.00">functional</text>
</a>
</g>
</g>
<!-- Node5&#45;&gt;Node10 -->
<g id="edge10_Node000005_Node000010" class="edge">
<title>Node5&#45;&gt;Node10</title>
<g id="a_edge10_Node000005_Node000010"><a xlink:title=" ">
<path fill="none" stroke="#63b8ff" d="M164.92,-55.08C164.31,-48.49 163.43,-39.21 162.65,-30.82"/>
<polygon fill="#63b8ff" stroke="#63b8ff" points="166.15,-30.75 161.74,-21.12 159.19,-31.4 166.15,-30.75"/>
</a>
</g>
</g>
<!-- Node11&#45;&gt;Node2 -->
<g id="edge12_Node000011_Node000002" class="edge">
<title>Node11&#45;&gt;Node2</title>
<g id="a_edge12_Node000011_Node000002"><a xlink:title=" ">
<path fill="none" stroke="#63b8ff" d="M182.78,-165.49C173.7,-156.48 159.25,-142.15 146.75,-129.75 109.98,-93.27 66.89,-50.48 43.66,-27.41"/>
<polygon fill="#63b8ff" stroke="#63b8ff" points="46.42,-25.22 36.85,-20.66 41.48,-30.19 46.42,-25.22"/>
</a>
</g>
</g>
<!-- Node11&#45;&gt;Node3 -->
<g id="edge13_Node000011_Node000003" class="edge">
<title>Node11&#45;&gt;Node3</title>
<g id="a_edge13_Node000011_Node000003"><a xlink:title=" ">
<path fill="none" stroke="#63b8ff" d="M201.48,-165.33C210.04,-156.87 222.27,-143.52 229.75,-129.75 237.28,-115.88 242.18,-98.66 245.11,-85.59"/>
<polygon fill="#63b8ff" stroke="#63b8ff" points="248.49,-86.56 247.05,-76.07 241.63,-85.17 248.49,-86.56"/>
</a>
</g>
</g>
<!-- Node11&#45;&gt;Node4 -->
<g id="edge14_Node000011_Node000004" class="edge">
<title>Node11&#45;&gt;Node4</title>
<g id="a_edge14_Node000011_Node000004"><a xlink:title=" ">
<path fill="none" stroke="#63b8ff" d="M209.73,-165.34C226.1,-157.12 250.54,-144.84 269.51,-135.31"/>
<polygon fill="#63b8ff" stroke="#63b8ff" points="270.96,-138.5 278.33,-130.88 267.82,-132.24 270.96,-138.5"/>
</a>
</g>
</g>
<!-- Node11&#45;&gt;Node5 -->
<g id="edge15_Node000011_Node000005" class="edge">
<title>Node11&#45;&gt;Node5</title>
<g id="a_edge15_Node000011_Node000005"><a xlink:title=" ">
<path fill="none" stroke="#63b8ff" d="M180.68,-165.45C171.49,-157.28 159.09,-144.27 153.75,-129.75 148.44,-115.32 152.18,-98.15 156.85,-85.25"/>
<polygon fill="#63b8ff" stroke="#63b8ff" points="160,-86.78 160.58,-76.2 153.53,-84.11 160,-86.78"/>
</a>
</g>
</g>
<!-- Node12 -->
<g id="Node000012" class="node">
<title>Node12</title>
<g id="a_Node000012"><a xlink:href="_content_8h.html" target="_top" xlink:title=" ">
<polygon fill="white" stroke="#666666" points="221.12,-129.75 162.38,-129.75 162.38,-110.5 221.12,-110.5 221.12,-129.75"/>
<text text-anchor="middle" x="191.75" y="-116.25" font-family="Helvetica,sans-Serif" font-size="10.00">Content.h</text>
</a>
</g>
</g>
<!-- Node11&#45;&gt;Node12 -->
<g id="edge16_Node000011_Node000012" class="edge">
<title>Node11&#45;&gt;Node12</title>
<g id="a_edge16_Node000011_Node000012"><a xlink:title=" ">
<path fill="none" stroke="#63b8ff" d="M191.75,-165.58C191.75,-159.07 191.75,-149.92 191.75,-141.62"/>
<polygon fill="#63b8ff" stroke="#63b8ff" points="195.25,-141.62 191.75,-131.62 188.25,-141.62 195.25,-141.62"/>
</a>
</g>
</g>
<!-- Node12&#45;&gt;Node3 -->
<g id="edge18_Node000012_Node000003" class="edge">
<title>Node12&#45;&gt;Node3</title>
<g id="a_edge18_Node000012_Node000003"><a xlink:title=" ">
<path fill="none" stroke="#63b8ff" d="M201.42,-110.09C209.49,-102.55 221.22,-91.6 230.97,-82.48"/>
<polygon fill="#63b8ff" stroke="#63b8ff" points="233.2,-85.19 238.12,-75.81 228.42,-80.08 233.2,-85.19"/>
</a>
</g>
</g>
<!-- Node12&#45;&gt;Node5 -->
<g id="edge17_Node000012_Node000005" class="edge">
<title>Node12&#45;&gt;Node5</title>
<g id="a_edge17_Node000012_Node000005"><a xlink:title=" ">
<path fill="none" stroke="#63b8ff" d="M187.46,-110.33C184.13,-103.51 179.39,-93.81 175.19,-85.2"/>
<polygon fill="#63b8ff" stroke="#63b8ff" points="178.33,-83.67 170.8,-76.22 172.04,-86.74 178.33,-83.67"/>
</a>
</g>
</g>
</g>
</svg>
