<?xml version="1.0" encoding="UTF-8" standalone="no"?>
<!DOCTYPE svg PUBLIC "-//W3C//DTD SVG 1.1//EN"
 "http://www.w3.org/Graphics/SVG/1.1/DTD/svg11.dtd">
<!-- Generated by graphviz version 12.1.2 (20240928.0832)
 -->
<!-- Title: /Users/felixschulke/Developement/Arduino/Modbus_RTU/Modbus_RTU/Modbus&#45;RTU/lib/ModbusRTU/Frame_modbusRTU.h Pages: 1 -->
<svg width="389pt" height="293pt"
 viewBox="0.00 0.00 388.75 293.25" xmlns="http://www.w3.org/2000/svg" xmlns:xlink="http://www.w3.org/1999/xlink">
<g id="graph0" class="graph" transform="scale(1 1) rotate(0) translate(4 289.25)">
<title>/Users/felixschulke/Developement/Arduino/Modbus_RTU/Modbus_RTU/Modbus&#45;RTU/lib/ModbusRTU/Frame_modbusRTU.h</title>
<!-- Node1 -->
<g id="Node000001" class="node">
<title>Node1</title>
<g id="a_Node000001"><a xlink:title=" ">
<polygon fill="#999999" stroke="#666666" points="221.12,-285.25 72.38,-285.25 72.38,-221 221.12,-221 221.12,-285.25"/>
<text text-anchor="start" x="80.38" y="-271.75" font-family="Helvetica,sans-Serif" font-size="10.00">/Users/felixschulke</text>
<text text-anchor="start" x="80.38" y="-260.5" font-family="Helvetica,sans-Serif" font-size="10.00">/Developement/Arduino</text>
<text text-anchor="start" x="80.38" y="-249.25" font-family="Helvetica,sans-Serif" font-size="10.00">/Modbus_RTU/Modbus_RTU</text>
<text text-anchor="start" x="80.38" y="-238" font-family="Helvetica,sans-Serif" font-size="10.00">/Modbus&#45;RTU/lib/ModbusRTU</text>
<text text-anchor="middle" x="146.75" y="-226.75" font-family="Helvetica,sans-Serif" font-size="10.00">/Frame_modbusRTU.h</text>
</a>
</g>
</g>
<!-- Node2 -->
<g id="Node000002" class="node">
<title>Node2</title>
<g id="a_Node000002"><a xlink:href="mock_arduino_8h.html" target="_top" xlink:title=" ">
<polygon fill="white" stroke="#666666" points="229.38,-74.5 148.12,-74.5 148.12,-55.25 229.38,-55.25 229.38,-74.5"/>
<text text-anchor="middle" x="188.75" y="-61" font-family="Helvetica,sans-Serif" font-size="10.00">mockArduino.h</text>
</a>
</g>
</g>
<!-- Node1&#45;&gt;Node2 -->
<g id="edge1_Node000001_Node000002" class="edge">
<title>Node1&#45;&gt;Node2</title>
<g id="a_edge1_Node000001_Node000002"><a xlink:title=" ">
<path fill="none" stroke="#63b8ff" d="M150.54,-220.51C154.44,-191.55 161.4,-147.66 171.75,-110.5 174.08,-102.12 177.36,-93.11 180.41,-85.4"/>
<polygon fill="#63b8ff" stroke="#63b8ff" points="183.57,-86.92 184.15,-76.34 177.1,-84.25 183.57,-86.92"/>
</a>
</g>
</g>
<!-- Node9 -->
<g id="Node000009" class="node">
<title>Node9</title>
<g id="a_Node000009"><a xlink:href="_frame_8h.html" target="_top" xlink:title=" ">
<polygon fill="white" stroke="#666666" points="222.75,-185 170.75,-185 170.75,-165.75 222.75,-165.75 222.75,-185"/>
<text text-anchor="middle" x="196.75" y="-171.5" font-family="Helvetica,sans-Serif" font-size="10.00">Frame.h</text>
</a>
</g>
</g>
<!-- Node1&#45;&gt;Node9 -->
<g id="edge8_Node000001_Node000009" class="edge">
<title>Node1&#45;&gt;Node9</title>
<g id="a_edge8_Node000001_Node000009"><a xlink:title=" ">
<path fill="none" stroke="#63b8ff" d="M167.38,-220.88C173.22,-212.02 179.39,-202.67 184.56,-194.84"/>
<polygon fill="#63b8ff" stroke="#63b8ff" points="187.45,-196.82 190.04,-186.55 181.61,-192.97 187.45,-196.82"/>
</a>
</g>
</g>
<!-- Node3 -->
<g id="Node000003" class="node">
<title>Node3</title>
<g id="a_Node000003"><a xlink:title=" ">
<polygon fill="#e0e0e0" stroke="#999999" points="53.5,-19.25 0,-19.25 0,0 53.5,0 53.5,-19.25"/>
<text text-anchor="middle" x="26.75" y="-5.75" font-family="Helvetica,sans-Serif" font-size="10.00">iostream</text>
</a>
</g>
</g>
<!-- Node2&#45;&gt;Node3 -->
<g id="edge2_Node000002_Node000003" class="edge">
<title>Node2&#45;&gt;Node3</title>
<g id="a_edge2_Node000002_Node000003"><a xlink:title=" ">
<path fill="none" stroke="#63b8ff" d="M161.27,-54.84C134.69,-46.11 94.21,-32.8 64.59,-23.06"/>
<polygon fill="#63b8ff" stroke="#63b8ff" points="65.86,-19.8 55.26,-20 63.67,-26.45 65.86,-19.8"/>
</a>
</g>
</g>
<!-- Node4 -->
<g id="Node000004" class="node">
<title>Node4</title>
<g id="a_Node000004"><a xlink:title=" ">
<polygon fill="#e0e0e0" stroke="#999999" points="111.75,-19.25 71.75,-19.25 71.75,0 111.75,0 111.75,-19.25"/>
<text text-anchor="middle" x="91.75" y="-5.75" font-family="Helvetica,sans-Serif" font-size="10.00">string</text>
</a>
</g>
</g>
<!-- Node2&#45;&gt;Node4 -->
<g id="edge3_Node000002_Node000004" class="edge">
<title>Node2&#45;&gt;Node4</title>
<g id="a_edge3_Node000002_Node000004"><a xlink:title=" ">
<path fill="none" stroke="#63b8ff" d="M172.3,-54.84C157.52,-46.73 135.57,-34.68 118.32,-25.21"/>
<polygon fill="#63b8ff" stroke="#63b8ff" points="120.06,-22.18 109.61,-20.43 116.69,-28.31 120.06,-22.18"/>
</a>
</g>
</g>
<!-- Node5 -->
<g id="Node000005" class="node">
<title>Node5</title>
<g id="a_Node000005"><a xlink:title=" ">
<polygon fill="#e0e0e0" stroke="#999999" points="181.38,-19.25 130.12,-19.25 130.12,0 181.38,0 181.38,-19.25"/>
<text text-anchor="middle" x="155.75" y="-5.75" font-family="Helvetica,sans-Serif" font-size="10.00">sstream</text>
</a>
</g>
</g>
<!-- Node2&#45;&gt;Node5 -->
<g id="edge4_Node000002_Node000005" class="edge">
<title>Node2&#45;&gt;Node5</title>
<g id="a_edge4_Node000002_Node000005"><a xlink:title=" ">
<path fill="none" stroke="#63b8ff" d="M183.3,-55.08C178.98,-48.11 172.79,-38.12 167.37,-29.37"/>
<polygon fill="#63b8ff" stroke="#63b8ff" points="170.36,-27.55 162.11,-20.9 164.41,-31.24 170.36,-27.55"/>
</a>
</g>
</g>
<!-- Node6 -->
<g id="Node000006" class="node">
<title>Node6</title>
<g id="a_Node000006"><a xlink:title=" ">
<polygon fill="#e0e0e0" stroke="#999999" points="244.38,-19.25 199.12,-19.25 199.12,0 244.38,0 244.38,-19.25"/>
<text text-anchor="middle" x="221.75" y="-5.75" font-family="Helvetica,sans-Serif" font-size="10.00">chrono</text>
</a>
</g>
</g>
<!-- Node2&#45;&gt;Node6 -->
<g id="edge5_Node000002_Node000006" class="edge">
<title>Node2&#45;&gt;Node6</title>
<g id="a_edge5_Node000002_Node000006"><a xlink:title=" ">
<path fill="none" stroke="#63b8ff" d="M194.2,-55.08C198.52,-48.11 204.71,-38.12 210.13,-29.37"/>
<polygon fill="#63b8ff" stroke="#63b8ff" points="213.09,-31.24 215.39,-20.9 207.14,-27.55 213.09,-31.24"/>
</a>
</g>
</g>
<!-- Node7 -->
<g id="Node000007" class="node">
<title>Node7</title>
<g id="a_Node000007"><a xlink:title=" ">
<polygon fill="#e0e0e0" stroke="#999999" points="304.88,-19.25 262.62,-19.25 262.62,0 304.88,0 304.88,-19.25"/>
<text text-anchor="middle" x="283.75" y="-5.75" font-family="Helvetica,sans-Serif" font-size="10.00">queue</text>
</a>
</g>
</g>
<!-- Node2&#45;&gt;Node7 -->
<g id="edge6_Node000002_Node000007" class="edge">
<title>Node2&#45;&gt;Node7</title>
<g id="a_edge6_Node000002_Node000007"><a xlink:title=" ">
<path fill="none" stroke="#63b8ff" d="M204.87,-54.84C219.33,-46.73 240.83,-34.68 257.73,-25.21"/>
<polygon fill="#63b8ff" stroke="#63b8ff" points="259.22,-28.39 266.24,-20.44 255.8,-22.28 259.22,-28.39"/>
</a>
</g>
</g>
<!-- Node8 -->
<g id="Node000008" class="node">
<title>Node8</title>
<g id="a_Node000008"><a xlink:title=" ">
<polygon fill="#e0e0e0" stroke="#999999" points="380.75,-19.25 322.75,-19.25 322.75,0 380.75,0 380.75,-19.25"/>
<text text-anchor="middle" x="351.75" y="-5.75" font-family="Helvetica,sans-Serif" font-size="10.00">functional</text>
</a>
</g>
</g>
<!-- Node2&#45;&gt;Node8 -->
<g id="edge7_Node000002_Node000008" class="edge">
<title>Node2&#45;&gt;Node8</title>
<g id="a_edge7_Node000002_Node000008"><a xlink:title=" ">
<path fill="none" stroke="#63b8ff" d="M216.4,-54.84C242.98,-46.16 283.39,-32.96 313.14,-23.24"/>
<polygon fill="#63b8ff" stroke="#63b8ff" points="314.11,-26.6 322.52,-20.17 311.93,-19.95 314.11,-26.6"/>
</a>
</g>
</g>
<!-- Node9&#45;&gt;Node2 -->
<g id="edge9_Node000009_Node000002" class="edge">
<title>Node9&#45;&gt;Node2</title>
<g id="a_edge9_Node000009_Node000002"><a xlink:title=" ">
<path fill="none" stroke="#63b8ff" d="M191.43,-165.53C186.52,-156.79 179.56,-142.87 176.75,-129.75 173.57,-114.87 177.07,-97.93 181.1,-85.24"/>
<polygon fill="#63b8ff" stroke="#63b8ff" points="184.33,-86.6 184.41,-76.01 177.74,-84.24 184.33,-86.6"/>
</a>
</g>
</g>
<!-- Node10 -->
<g id="Node000010" class="node">
<title>Node10</title>
<g id="a_Node000010"><a xlink:href="_content_8h.html" target="_top" xlink:title=" ">
<polygon fill="white" stroke="#666666" points="330.12,-129.75 271.38,-129.75 271.38,-110.5 330.12,-110.5 330.12,-129.75"/>
<text text-anchor="middle" x="300.75" y="-116.25" font-family="Helvetica,sans-Serif" font-size="10.00">Content.h</text>
</a>
</g>
</g>
<!-- Node9&#45;&gt;Node10 -->
<g id="edge10_Node000009_Node000010" class="edge">
<title>Node9&#45;&gt;Node10</title>
<g id="a_edge10_Node000009_Node000010"><a xlink:title=" ">
<path fill="none" stroke="#63b8ff" d="M214.39,-165.34C230.38,-157.16 254.21,-144.96 272.79,-135.44"/>
<polygon fill="#63b8ff" stroke="#63b8ff" points="274.37,-138.57 281.67,-130.89 271.18,-132.33 274.37,-138.57"/>
</a>
</g>
</g>
<!-- Node12 -->
<g id="Node000012" class="node">
<title>Node12</title>
<g id="a_Node000012"><a xlink:href="_char_array_8h.html" target="_top" xlink:title=" ">
<polygon fill="white" stroke="#666666" points="253.25,-129.75 186.25,-129.75 186.25,-110.5 253.25,-110.5 253.25,-129.75"/>
<text text-anchor="middle" x="219.75" y="-116.25" font-family="Helvetica,sans-Serif" font-size="10.00">CharArray.h</text>
</a>
</g>
</g>
<!-- Node9&#45;&gt;Node12 -->
<g id="edge13_Node000009_Node000012" class="edge">
<title>Node9&#45;&gt;Node12</title>
<g id="a_edge13_Node000009_Node000012"><a xlink:title=" ">
<path fill="none" stroke="#63b8ff" d="M200.55,-165.58C203.49,-158.76 207.69,-149.06 211.4,-140.45"/>
<polygon fill="#63b8ff" stroke="#63b8ff" points="214.52,-142.07 215.27,-131.5 208.09,-139.29 214.52,-142.07"/>
</a>
</g>
</g>
<!-- Node10&#45;&gt;Node2 -->
<g id="edge11_Node000010_Node000002" class="edge">
<title>Node10&#45;&gt;Node2</title>
<g id="a_edge11_Node000010_Node000002"><a xlink:title=" ">
<path fill="none" stroke="#63b8ff" d="M281.75,-110.09C264.29,-101.79 238.15,-89.36 218.03,-79.79"/>
<polygon fill="#63b8ff" stroke="#63b8ff" points="219.74,-76.74 209.21,-75.6 216.74,-83.06 219.74,-76.74"/>
</a>
</g>
</g>
<!-- Node11 -->
<g id="Node000011" class="node">
<title>Node11</title>
<g id="a_Node000011"><a xlink:title=" ">
<polygon fill="#e0e0e0" stroke="#999999" points="323.38,-74.5 278.12,-74.5 278.12,-55.25 323.38,-55.25 323.38,-74.5"/>
<text text-anchor="middle" x="300.75" y="-61" font-family="Helvetica,sans-Serif" font-size="10.00">cstring</text>
</a>
</g>
</g>
<!-- Node10&#45;&gt;Node11 -->
<g id="edge12_Node000010_Node000011" class="edge">
<title>Node10&#45;&gt;Node11</title>
<g id="a_edge12_Node000010_Node000011"><a xlink:title=" ">
<path fill="none" stroke="#63b8ff" d="M300.75,-110.33C300.75,-103.82 300.75,-94.67 300.75,-86.37"/>
<polygon fill="#63b8ff" stroke="#63b8ff" points="304.25,-86.37 300.75,-76.37 297.25,-86.37 304.25,-86.37"/>
</a>
</g>
</g>
<!-- Node12&#45;&gt;Node2 -->
<g id="edge14_Node000012_Node000002" class="edge">
<title>Node12&#45;&gt;Node2</title>
<g id="a_edge14_Node000012_Node000002"><a xlink:title=" ">
<path fill="none" stroke="#63b8ff" d="M214.63,-110.33C210.57,-103.36 204.76,-93.37 199.66,-84.62"/>
<polygon fill="#63b8ff" stroke="#63b8ff" points="202.8,-83.05 194.74,-76.17 196.75,-86.57 202.8,-83.05"/>
</a>
</g>
</g>
</g>
</svg>
