<?xml version="1.0" encoding="UTF-8" standalone="no"?>
<!DOCTYPE svg PUBLIC "-//W3C//DTD SVG 1.1//EN"
 "http://www.w3.org/Graphics/SVG/1.1/DTD/svg11.dtd">
<!-- Generated by graphviz version 12.1.2 (20240928.0832)
 -->
<!-- Title: /Users/felixschulke/Developement/Arduino/Modbus_RTU/Modbus_RTU/Modbus&#45;RTU/lib/Frame/Frame.cpp Pages: 1 -->
<svg width="389pt" height="282pt"
 viewBox="0.00 0.00 388.75 282.00" xmlns="http://www.w3.org/2000/svg" xmlns:xlink="http://www.w3.org/1999/xlink">
<g id="graph0" class="graph" transform="scale(1 1) rotate(0) translate(4 278)">
<title>/Users/felixschulke/Developement/Arduino/Modbus_RTU/Modbus_RTU/Modbus&#45;RTU/lib/Frame/Frame.cpp</title>
<!-- Node1 -->
<g id="Node000001" class="node">
<title>Node1</title>
<g id="a_Node000001"><a xlink:title=" ">
<polygon fill="#999999" stroke="#666666" points="274,-274 103.5,-274 103.5,-221 274,-221 274,-274"/>
<text text-anchor="start" x="111.5" y="-260.5" font-family="Helvetica,sans-Serif" font-size="10.00">/Users/felixschulke</text>
<text text-anchor="start" x="111.5" y="-249.25" font-family="Helvetica,sans-Serif" font-size="10.00">/Developement/Arduino</text>
<text text-anchor="start" x="111.5" y="-238" font-family="Helvetica,sans-Serif" font-size="10.00">/Modbus_RTU/Modbus_RTU</text>
<text text-anchor="middle" x="188.75" y="-226.75" font-family="Helvetica,sans-Serif" font-size="10.00">/Modbus&#45;RTU/lib/Frame/Frame.cpp</text>
</a>
</g>
</g>
<!-- Node2 -->
<g id="Node000002" class="node">
<title>Node2</title>
<g id="a_Node000002"><a xlink:href="_frame_8h.html" target="_top" xlink:title=" ">
<polygon fill="white" stroke="#666666" points="214.75,-185 162.75,-185 162.75,-165.75 214.75,-165.75 214.75,-185"/>
<text text-anchor="middle" x="188.75" y="-171.5" font-family="Helvetica,sans-Serif" font-size="10.00">Frame.h</text>
</a>
</g>
</g>
<!-- Node1&#45;&gt;Node2 -->
<g id="edge1_Node000001_Node000002" class="edge">
<title>Node1&#45;&gt;Node2</title>
<g id="a_edge1_Node000001_Node000002"><a xlink:title=" ">
<path fill="none" stroke="#63b8ff" d="M188.75,-220.79C188.75,-212.87 188.75,-204.27 188.75,-196.77"/>
<polygon fill="#63b8ff" stroke="#63b8ff" points="192.25,-197 188.75,-187 185.25,-197 192.25,-197"/>
</a>
</g>
</g>
<!-- Node3 -->
<g id="Node000003" class="node">
<title>Node3</title>
<g id="a_Node000003"><a xlink:href="mock_arduino_8h.html" target="_top" xlink:title=" ">
<polygon fill="white" stroke="#666666" points="229.38,-74.5 148.12,-74.5 148.12,-55.25 229.38,-55.25 229.38,-74.5"/>
<text text-anchor="middle" x="188.75" y="-61" font-family="Helvetica,sans-Serif" font-size="10.00">mockArduino.h</text>
</a>
</g>
</g>
<!-- Node2&#45;&gt;Node3 -->
<g id="edge2_Node000002_Node000003" class="edge">
<title>Node2&#45;&gt;Node3</title>
<g id="a_edge2_Node000002_Node000003"><a xlink:title=" ">
<path fill="none" stroke="#63b8ff" d="M175.84,-165.46C165.51,-157.46 151.79,-144.72 145.75,-129.75 138.65,-112.16 152.64,-94.44 166.51,-82.14"/>
<polygon fill="#63b8ff" stroke="#63b8ff" points="168.68,-84.89 174.22,-75.86 164.26,-79.47 168.68,-84.89"/>
</a>
</g>
</g>
<!-- Node10 -->
<g id="Node000010" class="node">
<title>Node10</title>
<g id="a_Node000010"><a xlink:href="_content_8h.html" target="_top" xlink:title=" ">
<polygon fill="white" stroke="#666666" points="299.12,-129.75 240.38,-129.75 240.38,-110.5 299.12,-110.5 299.12,-129.75"/>
<text text-anchor="middle" x="269.75" y="-116.25" font-family="Helvetica,sans-Serif" font-size="10.00">Content.h</text>
</a>
</g>
</g>
<!-- Node2&#45;&gt;Node10 -->
<g id="edge9_Node000002_Node000010" class="edge">
<title>Node2&#45;&gt;Node10</title>
<g id="a_edge9_Node000002_Node000010"><a xlink:title=" ">
<path fill="none" stroke="#63b8ff" d="M202.49,-165.34C214.48,-157.46 232.12,-145.86 246.33,-136.52"/>
<polygon fill="#63b8ff" stroke="#63b8ff" points="248.24,-139.45 254.68,-131.03 244.4,-133.6 248.24,-139.45"/>
</a>
</g>
</g>
<!-- Node12 -->
<g id="Node000012" class="node">
<title>Node12</title>
<g id="a_Node000012"><a xlink:href="_char_array_8h.html" target="_top" xlink:title=" ">
<polygon fill="white" stroke="#666666" points="222.25,-129.75 155.25,-129.75 155.25,-110.5 222.25,-110.5 222.25,-129.75"/>
<text text-anchor="middle" x="188.75" y="-116.25" font-family="Helvetica,sans-Serif" font-size="10.00">CharArray.h</text>
</a>
</g>
</g>
<!-- Node2&#45;&gt;Node12 -->
<g id="edge12_Node000002_Node000012" class="edge">
<title>Node2&#45;&gt;Node12</title>
<g id="a_edge12_Node000002_Node000012"><a xlink:title=" ">
<path fill="none" stroke="#63b8ff" d="M188.75,-165.58C188.75,-159.07 188.75,-149.92 188.75,-141.62"/>
<polygon fill="#63b8ff" stroke="#63b8ff" points="192.25,-141.62 188.75,-131.62 185.25,-141.62 192.25,-141.62"/>
</a>
</g>
</g>
<!-- Node4 -->
<g id="Node000004" class="node">
<title>Node4</title>
<g id="a_Node000004"><a xlink:title=" ">
<polygon fill="#e0e0e0" stroke="#999999" points="53.5,-19.25 0,-19.25 0,0 53.5,0 53.5,-19.25"/>
<text text-anchor="middle" x="26.75" y="-5.75" font-family="Helvetica,sans-Serif" font-size="10.00">iostream</text>
</a>
</g>
</g>
<!-- Node3&#45;&gt;Node4 -->
<g id="edge3_Node000003_Node000004" class="edge">
<title>Node3&#45;&gt;Node4</title>
<g id="a_edge3_Node000003_Node000004"><a xlink:title=" ">
<path fill="none" stroke="#63b8ff" d="M161.27,-54.84C134.69,-46.11 94.21,-32.8 64.59,-23.06"/>
<polygon fill="#63b8ff" stroke="#63b8ff" points="65.86,-19.8 55.26,-20 63.67,-26.45 65.86,-19.8"/>
</a>
</g>
</g>
<!-- Node5 -->
<g id="Node000005" class="node">
<title>Node5</title>
<g id="a_Node000005"><a xlink:title=" ">
<polygon fill="#e0e0e0" stroke="#999999" points="111.75,-19.25 71.75,-19.25 71.75,0 111.75,0 111.75,-19.25"/>
<text text-anchor="middle" x="91.75" y="-5.75" font-family="Helvetica,sans-Serif" font-size="10.00">string</text>
</a>
</g>
</g>
<!-- Node3&#45;&gt;Node5 -->
<g id="edge4_Node000003_Node000005" class="edge">
<title>Node3&#45;&gt;Node5</title>
<g id="a_edge4_Node000003_Node000005"><a xlink:title=" ">
<path fill="none" stroke="#63b8ff" d="M172.3,-54.84C157.52,-46.73 135.57,-34.68 118.32,-25.21"/>
<polygon fill="#63b8ff" stroke="#63b8ff" points="120.06,-22.18 109.61,-20.43 116.69,-28.31 120.06,-22.18"/>
</a>
</g>
</g>
<!-- Node6 -->
<g id="Node000006" class="node">
<title>Node6</title>
<g id="a_Node000006"><a xlink:title=" ">
<polygon fill="#e0e0e0" stroke="#999999" points="181.38,-19.25 130.12,-19.25 130.12,0 181.38,0 181.38,-19.25"/>
<text text-anchor="middle" x="155.75" y="-5.75" font-family="Helvetica,sans-Serif" font-size="10.00">sstream</text>
</a>
</g>
</g>
<!-- Node3&#45;&gt;Node6 -->
<g id="edge5_Node000003_Node000006" class="edge">
<title>Node3&#45;&gt;Node6</title>
<g id="a_edge5_Node000003_Node000006"><a xlink:title=" ">
<path fill="none" stroke="#63b8ff" d="M183.3,-55.08C178.98,-48.11 172.79,-38.12 167.37,-29.37"/>
<polygon fill="#63b8ff" stroke="#63b8ff" points="170.36,-27.55 162.11,-20.9 164.41,-31.24 170.36,-27.55"/>
</a>
</g>
</g>
<!-- Node7 -->
<g id="Node000007" class="node">
<title>Node7</title>
<g id="a_Node000007"><a xlink:title=" ">
<polygon fill="#e0e0e0" stroke="#999999" points="244.38,-19.25 199.12,-19.25 199.12,0 244.38,0 244.38,-19.25"/>
<text text-anchor="middle" x="221.75" y="-5.75" font-family="Helvetica,sans-Serif" font-size="10.00">chrono</text>
</a>
</g>
</g>
<!-- Node3&#45;&gt;Node7 -->
<g id="edge6_Node000003_Node000007" class="edge">
<title>Node3&#45;&gt;Node7</title>
<g id="a_edge6_Node000003_Node000007"><a xlink:title=" ">
<path fill="none" stroke="#63b8ff" d="M194.2,-55.08C198.52,-48.11 204.71,-38.12 210.13,-29.37"/>
<polygon fill="#63b8ff" stroke="#63b8ff" points="213.09,-31.24 215.39,-20.9 207.14,-27.55 213.09,-31.24"/>
</a>
</g>
</g>
<!-- Node8 -->
<g id="Node000008" class="node">
<title>Node8</title>
<g id="a_Node000008"><a xlink:title=" ">
<polygon fill="#e0e0e0" stroke="#999999" points="304.88,-19.25 262.62,-19.25 262.62,0 304.88,0 304.88,-19.25"/>
<text text-anchor="middle" x="283.75" y="-5.75" font-family="Helvetica,sans-Serif" font-size="10.00">queue</text>
</a>
</g>
</g>
<!-- Node3&#45;&gt;Node8 -->
<g id="edge7_Node000003_Node000008" class="edge">
<title>Node3&#45;&gt;Node8</title>
<g id="a_edge7_Node000003_Node000008"><a xlink:title=" ">
<path fill="none" stroke="#63b8ff" d="M204.87,-54.84C219.33,-46.73 240.83,-34.68 257.73,-25.21"/>
<polygon fill="#63b8ff" stroke="#63b8ff" points="259.22,-28.39 266.24,-20.44 255.8,-22.28 259.22,-28.39"/>
</a>
</g>
</g>
<!-- Node9 -->
<g id="Node000009" class="node">
<title>Node9</title>
<g id="a_Node000009"><a xlink:title=" ">
<polygon fill="#e0e0e0" stroke="#999999" points="380.75,-19.25 322.75,-19.25 322.75,0 380.75,0 380.75,-19.25"/>
<text text-anchor="middle" x="351.75" y="-5.75" font-family="Helvetica,sans-Serif" font-size="10.00">functional</text>
</a>
</g>
</g>
<!-- Node3&#45;&gt;Node9 -->
<g id="edge8_Node000003_Node000009" class="edge">
<title>Node3&#45;&gt;Node9</title>
<g id="a_edge8_Node000003_Node000009"><a xlink:title=" ">
<path fill="none" stroke="#63b8ff" d="M216.4,-54.84C242.98,-46.16 283.39,-32.96 313.14,-23.24"/>
<polygon fill="#63b8ff" stroke="#63b8ff" points="314.11,-26.6 322.52,-20.17 311.93,-19.95 314.11,-26.6"/>
</a>
</g>
</g>
<!-- Node10&#45;&gt;Node3 -->
<g id="edge10_Node000010_Node000003" class="edge">
<title>Node10&#45;&gt;Node3</title>
<g id="a_edge10_Node000010_Node000003"><a xlink:title=" ">
<path fill="none" stroke="#63b8ff" d="M256.01,-110.09C244.02,-102.21 226.38,-90.61 212.17,-81.27"/>
<polygon fill="#63b8ff" stroke="#63b8ff" points="214.1,-78.35 203.82,-75.78 210.26,-84.2 214.1,-78.35"/>
</a>
</g>
</g>
<!-- Node11 -->
<g id="Node000011" class="node">
<title>Node11</title>
<g id="a_Node000011"><a xlink:title=" ">
<polygon fill="#e0e0e0" stroke="#999999" points="292.38,-74.5 247.12,-74.5 247.12,-55.25 292.38,-55.25 292.38,-74.5"/>
<text text-anchor="middle" x="269.75" y="-61" font-family="Helvetica,sans-Serif" font-size="10.00">cstring</text>
</a>
</g>
</g>
<!-- Node10&#45;&gt;Node11 -->
<g id="edge11_Node000010_Node000011" class="edge">
<title>Node10&#45;&gt;Node11</title>
<g id="a_edge11_Node000010_Node000011"><a xlink:title=" ">
<path fill="none" stroke="#63b8ff" d="M269.75,-110.33C269.75,-103.82 269.75,-94.67 269.75,-86.37"/>
<polygon fill="#63b8ff" stroke="#63b8ff" points="273.25,-86.37 269.75,-76.37 266.25,-86.37 273.25,-86.37"/>
</a>
</g>
</g>
<!-- Node12&#45;&gt;Node3 -->
<g id="edge13_Node000012_Node000003" class="edge">
<title>Node12&#45;&gt;Node3</title>
<g id="a_edge13_Node000012_Node000003"><a xlink:title=" ">
<path fill="none" stroke="#63b8ff" d="M188.75,-110.33C188.75,-103.82 188.75,-94.67 188.75,-86.37"/>
<polygon fill="#63b8ff" stroke="#63b8ff" points="192.25,-86.37 188.75,-76.37 185.25,-86.37 192.25,-86.37"/>
</a>
</g>
</g>
</g>
</svg>
