<?xml version="1.0" encoding="UTF-8" standalone="no"?>
<!DOCTYPE svg PUBLIC "-//W3C//DTD SVG 1.1//EN"
 "http://www.w3.org/Graphics/SVG/1.1/DTD/svg11.dtd">
<!-- Generated by graphviz version 12.1.2 (20240928.0832)
 -->
<!-- Title: /Users/felixschulke/Developement/Arduino/Modbus_RTU/Modbus_RTU/Modbus&#45;RTU/lib/MessageService/Message.h Pages: 1 -->
<svg width="455pt" height="373pt"
 viewBox="0.00 0.00 454.75 373.00" xmlns="http://www.w3.org/2000/svg" xmlns:xlink="http://www.w3.org/1999/xlink">
<g id="graph0" class="graph" transform="scale(1 1) rotate(0) translate(4 369)">
<title>/Users/felixschulke/Developement/Arduino/Modbus_RTU/Modbus_RTU/Modbus&#45;RTU/lib/MessageService/Message.h</title>
<!-- Node1 -->
<g id="Node000001" class="node">
<title>Node1</title>
<g id="a_Node000001"><a xlink:title=" ">
<polygon fill="#999999" stroke="#666666" points="258,-365 92,-365 92,-300.75 258,-300.75 258,-365"/>
<text text-anchor="start" x="100" y="-351.5" font-family="Helvetica,sans-Serif" font-size="10.00">/Users/felixschulke</text>
<text text-anchor="start" x="100" y="-340.25" font-family="Helvetica,sans-Serif" font-size="10.00">/Developement/Arduino</text>
<text text-anchor="start" x="100" y="-329" font-family="Helvetica,sans-Serif" font-size="10.00">/Modbus_RTU/Modbus_RTU</text>
<text text-anchor="start" x="100" y="-317.75" font-family="Helvetica,sans-Serif" font-size="10.00">/Modbus&#45;RTU/lib/MessageService</text>
<text text-anchor="middle" x="175" y="-306.5" font-family="Helvetica,sans-Serif" font-size="10.00">/Message.h</text>
</a>
</g>
</g>
<!-- Node2 -->
<g id="Node000002" class="node">
<title>Node2</title>
<g id="a_Node000002"><a xlink:href="_message_8cpp.html" target="_top" xlink:title=" ">
<polygon fill="white" stroke="#666666" points="166,-264.75 0,-264.75 0,-200.5 166,-200.5 166,-264.75"/>
<text text-anchor="start" x="8" y="-251.25" font-family="Helvetica,sans-Serif" font-size="10.00">/Users/felixschulke</text>
<text text-anchor="start" x="8" y="-240" font-family="Helvetica,sans-Serif" font-size="10.00">/Developement/Arduino</text>
<text text-anchor="start" x="8" y="-228.75" font-family="Helvetica,sans-Serif" font-size="10.00">/Modbus_RTU/Modbus_RTU</text>
<text text-anchor="start" x="8" y="-217.5" font-family="Helvetica,sans-Serif" font-size="10.00">/Modbus&#45;RTU/lib/MessageService</text>
<text text-anchor="middle" x="83" y="-206.25" font-family="Helvetica,sans-Serif" font-size="10.00">/Message.cpp</text>
</a>
</g>
</g>
<!-- Node1&#45;&gt;Node2 -->
<g id="edge1_Node000001_Node000002" class="edge">
<title>Node1&#45;&gt;Node2</title>
<g id="a_edge1_Node000001_Node000002"><a xlink:title=" ">
<path fill="none" stroke="#63b8ff" d="M137.98,-292.34C129.47,-283.25 120.53,-273.71 112.4,-265.02"/>
<polygon fill="#63b8ff" stroke="#63b8ff" points="135.21,-294.51 144.6,-299.41 140.32,-289.72 135.21,-294.51"/>
</a>
</g>
</g>
<!-- Node3 -->
<g id="Node000003" class="node">
<title>Node3</title>
<g id="a_Node000003"><a xlink:href="_message_service_8h.html" target="_top" xlink:title=" ">
<polygon fill="white" stroke="#666666" points="350,-264.75 184,-264.75 184,-200.5 350,-200.5 350,-264.75"/>
<text text-anchor="start" x="192" y="-251.25" font-family="Helvetica,sans-Serif" font-size="10.00">/Users/felixschulke</text>
<text text-anchor="start" x="192" y="-240" font-family="Helvetica,sans-Serif" font-size="10.00">/Developement/Arduino</text>
<text text-anchor="start" x="192" y="-228.75" font-family="Helvetica,sans-Serif" font-size="10.00">/Modbus_RTU/Modbus_RTU</text>
<text text-anchor="start" x="192" y="-217.5" font-family="Helvetica,sans-Serif" font-size="10.00">/Modbus&#45;RTU/lib/MessageService</text>
<text text-anchor="middle" x="267" y="-206.25" font-family="Helvetica,sans-Serif" font-size="10.00">/MessageService.h</text>
</a>
</g>
</g>
<!-- Node1&#45;&gt;Node3 -->
<g id="edge2_Node000001_Node000003" class="edge">
<title>Node1&#45;&gt;Node3</title>
<g id="a_edge2_Node000001_Node000003"><a xlink:title=" ">
<path fill="none" stroke="#63b8ff" d="M212.02,-292.34C220.53,-283.25 229.47,-273.71 237.6,-265.02"/>
<polygon fill="#63b8ff" stroke="#63b8ff" points="209.68,-289.72 205.4,-299.41 214.79,-294.51 209.68,-289.72"/>
</a>
</g>
</g>
<!-- Node4 -->
<g id="Node000004" class="node">
<title>Node4</title>
<g id="a_Node000004"><a xlink:href="_message_service_8cpp.html" target="_top" xlink:title=" ">
<polygon fill="white" stroke="#666666" points="169,-164.5 3,-164.5 3,-100.25 169,-100.25 169,-164.5"/>
<text text-anchor="start" x="11" y="-151" font-family="Helvetica,sans-Serif" font-size="10.00">/Users/felixschulke</text>
<text text-anchor="start" x="11" y="-139.75" font-family="Helvetica,sans-Serif" font-size="10.00">/Developement/Arduino</text>
<text text-anchor="start" x="11" y="-128.5" font-family="Helvetica,sans-Serif" font-size="10.00">/Modbus_RTU/Modbus_RTU</text>
<text text-anchor="start" x="11" y="-117.25" font-family="Helvetica,sans-Serif" font-size="10.00">/Modbus&#45;RTU/lib/MessageService</text>
<text text-anchor="middle" x="86" y="-106" font-family="Helvetica,sans-Serif" font-size="10.00">/MessageService.cpp</text>
</a>
</g>
</g>
<!-- Node3&#45;&gt;Node4 -->
<g id="edge3_Node000003_Node000004" class="edge">
<title>Node3&#45;&gt;Node4</title>
<g id="a_edge3_Node000003_Node000004"><a xlink:title=" ">
<path fill="none" stroke="#63b8ff" d="M199.31,-194.88C181.17,-185.04 161.72,-174.48 144.15,-164.94"/>
<polygon fill="#63b8ff" stroke="#63b8ff" points="197.44,-197.85 207.9,-199.55 200.78,-191.7 197.44,-197.85"/>
</a>
</g>
</g>
<!-- Node5 -->
<g id="Node000005" class="node">
<title>Node5</title>
<g id="a_Node000005"><a xlink:href="_service_interface__modbus_r_t_u_8h.html" target="_top" xlink:title=" ">
<polygon fill="white" stroke="#666666" points="346.62,-164.5 187.38,-164.5 187.38,-100.25 346.62,-100.25 346.62,-164.5"/>
<text text-anchor="start" x="195.38" y="-151" font-family="Helvetica,sans-Serif" font-size="10.00">/Users/felixschulke</text>
<text text-anchor="start" x="195.38" y="-139.75" font-family="Helvetica,sans-Serif" font-size="10.00">/Developement/Arduino</text>
<text text-anchor="start" x="195.38" y="-128.5" font-family="Helvetica,sans-Serif" font-size="10.00">/Modbus_RTU/Modbus_RTU</text>
<text text-anchor="start" x="195.38" y="-117.25" font-family="Helvetica,sans-Serif" font-size="10.00">/Modbus&#45;RTU/lib/ModbusRTU</text>
<text text-anchor="middle" x="267" y="-106" font-family="Helvetica,sans-Serif" font-size="10.00">/ServiceInterface_modbusRTU.h</text>
</a>
</g>
</g>
<!-- Node3&#45;&gt;Node5 -->
<g id="edge4_Node000003_Node000005" class="edge">
<title>Node3&#45;&gt;Node5</title>
<g id="a_edge4_Node000003_Node000005"><a xlink:title=" ">
<path fill="none" stroke="#63b8ff" d="M267,-189.01C267,-180.87 267,-172.48 267,-164.77"/>
<polygon fill="#63b8ff" stroke="#63b8ff" points="263.5,-188.75 267,-198.75 270.5,-188.75 263.5,-188.75"/>
</a>
</g>
</g>
<!-- Node7 -->
<g id="Node000007" class="node">
<title>Node7</title>
<g id="a_Node000007"><a xlink:href="main_8cpp.html" target="_top" xlink:title="This main is an example&#45;implementation of a simple modbus&#45;messenger to demonstrate the usage of a lay...">
<polygon fill="white" stroke="#666666" points="446.75,-58.62 303.25,-58.62 303.25,-5.62 446.75,-5.62 446.75,-58.62"/>
<text text-anchor="start" x="311.25" y="-45.12" font-family="Helvetica,sans-Serif" font-size="10.00">/Users/felixschulke</text>
<text text-anchor="start" x="311.25" y="-33.88" font-family="Helvetica,sans-Serif" font-size="10.00">/Developement/Arduino</text>
<text text-anchor="start" x="311.25" y="-22.62" font-family="Helvetica,sans-Serif" font-size="10.00">/Modbus_RTU/Modbus_RTU</text>
<text text-anchor="middle" x="375" y="-11.38" font-family="Helvetica,sans-Serif" font-size="10.00">/Modbus&#45;RTU/src/main.cpp</text>
</a>
</g>
</g>
<!-- Node3&#45;&gt;Node7 -->
<g id="edge7_Node000003_Node000007" class="edge">
<title>Node3&#45;&gt;Node7</title>
<g id="a_edge7_Node000003_Node000007"><a xlink:title=" ">
<path fill="none" stroke="#63b8ff" d="M331.66,-192.8C341.1,-184.55 349.74,-175.09 356,-164.5 375.3,-131.87 377.64,-86.93 376.85,-58.97"/>
<polygon fill="#63b8ff" stroke="#63b8ff" points="329.5,-190.04 323.97,-199.08 333.93,-195.46 329.5,-190.04"/>
</a>
</g>
</g>
<!-- Node6 -->
<g id="Node000006" class="node">
<title>Node6</title>
<g id="a_Node000006"><a xlink:href="_service_interface__modbus_r_t_u_8cpp.html" target="_top" xlink:title=" ">
<polygon fill="white" stroke="#666666" points="284.88,-64.25 115.12,-64.25 115.12,0 284.88,0 284.88,-64.25"/>
<text text-anchor="start" x="123.12" y="-50.75" font-family="Helvetica,sans-Serif" font-size="10.00">/Users/felixschulke</text>
<text text-anchor="start" x="123.12" y="-39.5" font-family="Helvetica,sans-Serif" font-size="10.00">/Developement/Arduino</text>
<text text-anchor="start" x="123.12" y="-28.25" font-family="Helvetica,sans-Serif" font-size="10.00">/Modbus_RTU/Modbus_RTU</text>
<text text-anchor="start" x="123.12" y="-17" font-family="Helvetica,sans-Serif" font-size="10.00">/Modbus&#45;RTU/lib/ModbusRTU</text>
<text text-anchor="middle" x="200" y="-5.75" font-family="Helvetica,sans-Serif" font-size="10.00">/ServiceInterface_modbusRTU.cpp</text>
</a>
</g>
</g>
<!-- Node5&#45;&gt;Node6 -->
<g id="edge5_Node000005_Node000006" class="edge">
<title>Node5&#45;&gt;Node6</title>
<g id="a_edge5_Node000005_Node000006"><a xlink:title=" ">
<path fill="none" stroke="#63b8ff" d="M239.28,-90.72C233.31,-81.97 227.09,-72.85 221.41,-64.52"/>
<polygon fill="#63b8ff" stroke="#63b8ff" points="236.24,-92.48 244.76,-98.77 242.02,-88.53 236.24,-92.48"/>
</a>
</g>
</g>
<!-- Node5&#45;&gt;Node7 -->
<g id="edge6_Node000005_Node000007" class="edge">
<title>Node5&#45;&gt;Node7</title>
<g id="a_edge6_Node000005_Node000007"><a xlink:title=" ">
<path fill="none" stroke="#63b8ff" d="M309.86,-92.38C322.22,-81.14 335.39,-69.16 346.64,-58.93"/>
<polygon fill="#63b8ff" stroke="#63b8ff" points="307.63,-89.68 302.59,-99 312.34,-94.86 307.63,-89.68"/>
</a>
</g>
</g>
</g>
</svg>
