<?xml version="1.0" encoding="UTF-8" standalone="no"?>
<!DOCTYPE svg PUBLIC "-//W3C//DTD SVG 1.1//EN"
 "http://www.w3.org/Graphics/SVG/1.1/DTD/svg11.dtd">
<!-- Generated by graphviz version 12.1.2 (20240928.0832)
 -->
<!-- Title: /Users/felixschulke/Developement/Arduino/Modbus_RTU/Modbus_RTU/Modbus&#45;RTU/lib/MessageService/MessageService.h Pages: 1 -->
<svg width="443pt" height="293pt"
 viewBox="0.00 0.00 443.14 293.25" xmlns="http://www.w3.org/2000/svg" xmlns:xlink="http://www.w3.org/1999/xlink">
<g id="graph0" class="graph" transform="scale(1 1) rotate(0) translate(4 289.25)">
<title>/Users/felixschulke/Developement/Arduino/Modbus_RTU/Modbus_RTU/Modbus&#45;RTU/lib/MessageService/MessageService.h</title>
<!-- Node1 -->
<g id="Node000001" class="node">
<title>Node1</title>
<g id="a_Node000001"><a xlink:title=" ">
<polygon fill="#999999" stroke="#666666" points="343.12,-285.25 177.12,-285.25 177.12,-221 343.12,-221 343.12,-285.25"/>
<text text-anchor="start" x="185.12" y="-271.75" font-family="Helvetica,sans-Serif" font-size="10.00">/Users/felixschulke</text>
<text text-anchor="start" x="185.12" y="-260.5" font-family="Helvetica,sans-Serif" font-size="10.00">/Developement/Arduino</text>
<text text-anchor="start" x="185.12" y="-249.25" font-family="Helvetica,sans-Serif" font-size="10.00">/Modbus_RTU/Modbus_RTU</text>
<text text-anchor="start" x="185.12" y="-238" font-family="Helvetica,sans-Serif" font-size="10.00">/Modbus&#45;RTU/lib/MessageService</text>
<text text-anchor="middle" x="260.12" y="-226.75" font-family="Helvetica,sans-Serif" font-size="10.00">/MessageService.h</text>
</a>
</g>
</g>
<!-- Node2 -->
<g id="Node000002" class="node">
<title>Node2</title>
<g id="a_Node000002"><a xlink:href="mock_arduino_8h.html" target="_top" xlink:title=" ">
<polygon fill="white" stroke="#666666" points="196.75,-74.5 115.5,-74.5 115.5,-55.25 196.75,-55.25 196.75,-74.5"/>
<text text-anchor="middle" x="156.12" y="-61" font-family="Helvetica,sans-Serif" font-size="10.00">mockArduino.h</text>
</a>
</g>
</g>
<!-- Node1&#45;&gt;Node2 -->
<g id="edge1_Node000001_Node000002" class="edge">
<title>Node1&#45;&gt;Node2</title>
<g id="a_edge1_Node000001_Node000002"><a xlink:title=" ">
<path fill="none" stroke="#63b8ff" d="M176.82,-223.67C134.08,-204.34 85.91,-174.09 61.12,-129.75 47.57,-105.49 77.16,-88.68 106.81,-78.41"/>
<polygon fill="#63b8ff" stroke="#63b8ff" points="107.77,-81.78 116.22,-75.39 105.63,-75.12 107.77,-81.78"/>
</a>
</g>
</g>
<!-- Node9 -->
<g id="Node000009" class="node">
<title>Node9</title>
<g id="a_Node000009"><a xlink:title=" ">
<polygon fill="#e0e0e0" stroke="#999999" points="292.75,-74.5 247.5,-74.5 247.5,-55.25 292.75,-55.25 292.75,-74.5"/>
<text text-anchor="middle" x="270.12" y="-61" font-family="Helvetica,sans-Serif" font-size="10.00">cstring</text>
</a>
</g>
</g>
<!-- Node1&#45;&gt;Node9 -->
<g id="edge8_Node000001_Node000009" class="edge">
<title>Node1&#45;&gt;Node9</title>
<g id="a_edge8_Node000001_Node000009"><a xlink:title=" ">
<path fill="none" stroke="#63b8ff" d="M343.41,-220.68C399.74,-194.54 458.33,-154.61 425.12,-110.5 410.61,-91.22 345.36,-77.67 304.28,-70.87"/>
<polygon fill="#63b8ff" stroke="#63b8ff" points="305.07,-67.46 294.64,-69.34 303.97,-74.37 305.07,-67.46"/>
</a>
</g>
</g>
<!-- Node10 -->
<g id="Node000010" class="node">
<title>Node10</title>
<g id="a_Node000010"><a xlink:href="_service_8h.html" target="_top" xlink:title=" ">
<polygon fill="white" stroke="#666666" points="241.75,-185 184.5,-185 184.5,-165.75 241.75,-165.75 241.75,-185"/>
<text text-anchor="middle" x="213.12" y="-171.5" font-family="Helvetica,sans-Serif" font-size="10.00">Service.h</text>
</a>
</g>
</g>
<!-- Node1&#45;&gt;Node10 -->
<g id="edge9_Node000001_Node000010" class="edge">
<title>Node1&#45;&gt;Node10</title>
<g id="a_edge9_Node000001_Node000010"><a xlink:title=" ">
<path fill="none" stroke="#63b8ff" d="M240.74,-220.88C235.24,-212.02 229.44,-202.67 224.58,-194.84"/>
<polygon fill="#63b8ff" stroke="#63b8ff" points="227.7,-193.22 219.45,-186.57 221.75,-196.91 227.7,-193.22"/>
</a>
</g>
</g>
<!-- Node13 -->
<g id="Node000013" class="node">
<title>Node13</title>
<g id="a_Node000013"><a xlink:href="_message_8h.html" target="_top" xlink:title=" ">
<polygon fill="white" stroke="#666666" points="359.12,-185 295.12,-185 295.12,-165.75 359.12,-165.75 359.12,-185"/>
<text text-anchor="middle" x="327.12" y="-171.5" font-family="Helvetica,sans-Serif" font-size="10.00">Message.h</text>
</a>
</g>
</g>
<!-- Node1&#45;&gt;Node13 -->
<g id="edge18_Node000001_Node000013" class="edge">
<title>Node1&#45;&gt;Node13</title>
<g id="a_edge18_Node000001_Node000013"><a xlink:title=" ">
<path fill="none" stroke="#63b8ff" d="M287.76,-220.88C295.95,-211.62 304.62,-201.82 311.73,-193.78"/>
<polygon fill="#63b8ff" stroke="#63b8ff" points="314.24,-196.23 318.24,-186.42 308.99,-191.59 314.24,-196.23"/>
</a>
</g>
</g>
<!-- Node3 -->
<g id="Node000003" class="node">
<title>Node3</title>
<g id="a_Node000003"><a xlink:title=" ">
<polygon fill="#e0e0e0" stroke="#999999" points="425.88,-19.25 372.38,-19.25 372.38,0 425.88,0 425.88,-19.25"/>
<text text-anchor="middle" x="399.12" y="-5.75" font-family="Helvetica,sans-Serif" font-size="10.00">iostream</text>
</a>
</g>
</g>
<!-- Node2&#45;&gt;Node3 -->
<g id="edge2_Node000002_Node000003" class="edge">
<title>Node2&#45;&gt;Node3</title>
<g id="a_edge2_Node000002_Node000003"><a xlink:title=" ">
<path fill="none" stroke="#63b8ff" d="M197.07,-54.9C242.76,-44.89 316.12,-28.81 360.74,-19.04"/>
<polygon fill="#63b8ff" stroke="#63b8ff" points="361.48,-22.46 370.5,-16.9 359.98,-15.62 361.48,-22.46"/>
</a>
</g>
</g>
<!-- Node4 -->
<g id="Node000004" class="node">
<title>Node4</title>
<g id="a_Node000004"><a xlink:title=" ">
<polygon fill="#e0e0e0" stroke="#999999" points="176.12,-19.25 136.12,-19.25 136.12,0 176.12,0 176.12,-19.25"/>
<text text-anchor="middle" x="156.12" y="-5.75" font-family="Helvetica,sans-Serif" font-size="10.00">string</text>
</a>
</g>
</g>
<!-- Node2&#45;&gt;Node4 -->
<g id="edge3_Node000002_Node000004" class="edge">
<title>Node2&#45;&gt;Node4</title>
<g id="a_edge3_Node000002_Node000004"><a xlink:title=" ">
<path fill="none" stroke="#63b8ff" d="M156.12,-55.08C156.12,-48.57 156.12,-39.42 156.12,-31.12"/>
<polygon fill="#63b8ff" stroke="#63b8ff" points="159.63,-31.12 156.13,-21.12 152.63,-31.12 159.63,-31.12"/>
</a>
</g>
</g>
<!-- Node5 -->
<g id="Node000005" class="node">
<title>Node5</title>
<g id="a_Node000005"><a xlink:title=" ">
<polygon fill="#e0e0e0" stroke="#999999" points="245.75,-19.25 194.5,-19.25 194.5,0 245.75,0 245.75,-19.25"/>
<text text-anchor="middle" x="220.12" y="-5.75" font-family="Helvetica,sans-Serif" font-size="10.00">sstream</text>
</a>
</g>
</g>
<!-- Node2&#45;&gt;Node5 -->
<g id="edge4_Node000002_Node000005" class="edge">
<title>Node2&#45;&gt;Node5</title>
<g id="a_edge4_Node000002_Node000005"><a xlink:title=" ">
<path fill="none" stroke="#63b8ff" d="M166.98,-54.84C176.23,-47.15 189.75,-35.9 200.83,-26.68"/>
<polygon fill="#63b8ff" stroke="#63b8ff" points="202.82,-29.58 208.27,-20.49 198.34,-24.2 202.82,-29.58"/>
</a>
</g>
</g>
<!-- Node6 -->
<g id="Node000006" class="node">
<title>Node6</title>
<g id="a_Node000006"><a xlink:title=" ">
<polygon fill="#e0e0e0" stroke="#999999" points="308.75,-19.25 263.5,-19.25 263.5,0 308.75,0 308.75,-19.25"/>
<text text-anchor="middle" x="286.12" y="-5.75" font-family="Helvetica,sans-Serif" font-size="10.00">chrono</text>
</a>
</g>
</g>
<!-- Node2&#45;&gt;Node6 -->
<g id="edge5_Node000002_Node000006" class="edge">
<title>Node2&#45;&gt;Node6</title>
<g id="a_edge5_Node000002_Node000006"><a xlink:title=" ">
<path fill="none" stroke="#63b8ff" d="M178.18,-54.84C198.81,-46.39 229.91,-33.65 253.43,-24.02"/>
<polygon fill="#63b8ff" stroke="#63b8ff" points="254.64,-27.31 262.56,-20.28 251.98,-20.83 254.64,-27.31"/>
</a>
</g>
</g>
<!-- Node7 -->
<g id="Node000007" class="node">
<title>Node7</title>
<g id="a_Node000007"><a xlink:title=" ">
<polygon fill="#e0e0e0" stroke="#999999" points="42.25,-19.25 0,-19.25 0,0 42.25,0 42.25,-19.25"/>
<text text-anchor="middle" x="21.12" y="-5.75" font-family="Helvetica,sans-Serif" font-size="10.00">queue</text>
</a>
</g>
</g>
<!-- Node2&#45;&gt;Node7 -->
<g id="edge6_Node000002_Node000007" class="edge">
<title>Node2&#45;&gt;Node7</title>
<g id="a_edge6_Node000002_Node000007"><a xlink:title=" ">
<path fill="none" stroke="#63b8ff" d="M133.22,-54.84C111.17,-46.14 77.63,-32.91 52.98,-23.19"/>
<polygon fill="#63b8ff" stroke="#63b8ff" points="54.35,-19.97 43.76,-19.55 51.78,-26.48 54.35,-19.97"/>
</a>
</g>
</g>
<!-- Node8 -->
<g id="Node000008" class="node">
<title>Node8</title>
<g id="a_Node000008"><a xlink:title=" ">
<polygon fill="#e0e0e0" stroke="#999999" points="118.12,-19.25 60.12,-19.25 60.12,0 118.12,0 118.12,-19.25"/>
<text text-anchor="middle" x="89.12" y="-5.75" font-family="Helvetica,sans-Serif" font-size="10.00">functional</text>
</a>
</g>
</g>
<!-- Node2&#45;&gt;Node8 -->
<g id="edge7_Node000002_Node000008" class="edge">
<title>Node2&#45;&gt;Node8</title>
<g id="a_edge7_Node000002_Node000008"><a xlink:title=" ">
<path fill="none" stroke="#63b8ff" d="M144.76,-54.84C135.08,-47.15 120.93,-35.9 109.32,-26.68"/>
<polygon fill="#63b8ff" stroke="#63b8ff" points="111.51,-23.95 101.51,-20.47 107.16,-29.43 111.51,-23.95"/>
</a>
</g>
</g>
<!-- Node10&#45;&gt;Node2 -->
<g id="edge10_Node000010_Node000002" class="edge">
<title>Node10&#45;&gt;Node2</title>
<g id="a_edge10_Node000010_Node000002"><a xlink:title=" ">
<path fill="none" stroke="#63b8ff" d="M184.23,-174.78C150.36,-173.49 95.52,-165.57 69.12,-129.75 52.79,-107.58 83.88,-89.82 113.32,-78.7"/>
<polygon fill="#63b8ff" stroke="#63b8ff" points="114.33,-82.06 122.58,-75.42 111.99,-75.47 114.33,-82.06"/>
</a>
</g>
</g>
<!-- Node10&#45;&gt;Node9 -->
<g id="edge11_Node000010_Node000009" class="edge">
<title>Node10&#45;&gt;Node9</title>
<g id="a_edge11_Node000010_Node000009"><a xlink:title=" ">
<path fill="none" stroke="#63b8ff" d="M222.86,-165.33C231.42,-156.87 243.65,-143.52 251.12,-129.75 258.65,-115.88 263.55,-98.66 266.49,-85.59"/>
<polygon fill="#63b8ff" stroke="#63b8ff" points="269.86,-86.56 268.42,-76.07 263,-85.17 269.86,-86.56"/>
</a>
</g>
</g>
<!-- Node11 -->
<g id="Node000011" class="node">
<title>Node11</title>
<g id="a_Node000011"><a xlink:href="_content_8h.html" target="_top" xlink:title=" ">
<polygon fill="white" stroke="#666666" points="242.5,-129.75 183.75,-129.75 183.75,-110.5 242.5,-110.5 242.5,-129.75"/>
<text text-anchor="middle" x="213.12" y="-116.25" font-family="Helvetica,sans-Serif" font-size="10.00">Content.h</text>
</a>
</g>
</g>
<!-- Node10&#45;&gt;Node11 -->
<g id="edge12_Node000010_Node000011" class="edge">
<title>Node10&#45;&gt;Node11</title>
<g id="a_edge12_Node000010_Node000011"><a xlink:title=" ">
<path fill="none" stroke="#63b8ff" d="M213.12,-165.58C213.12,-159.07 213.12,-149.92 213.12,-141.62"/>
<polygon fill="#63b8ff" stroke="#63b8ff" points="216.63,-141.62 213.13,-131.62 209.63,-141.62 216.63,-141.62"/>
</a>
</g>
</g>
<!-- Node12 -->
<g id="Node000012" class="node">
<title>Node12</title>
<g id="a_Node000012"><a xlink:href="_content__stack_8h.html" target="_top" xlink:title=" ">
<polygon fill="white" stroke="#666666" points="166.12,-129.75 78.12,-129.75 78.12,-110.5 166.12,-110.5 166.12,-129.75"/>
<text text-anchor="middle" x="122.12" y="-116.25" font-family="Helvetica,sans-Serif" font-size="10.00">Content_stack.h</text>
</a>
</g>
</g>
<!-- Node10&#45;&gt;Node12 -->
<g id="edge15_Node000010_Node000012" class="edge">
<title>Node10&#45;&gt;Node12</title>
<g id="a_edge15_Node000010_Node000012"><a xlink:title=" ">
<path fill="none" stroke="#63b8ff" d="M197.69,-165.34C183.96,-157.31 163.63,-145.41 147.51,-135.98"/>
<polygon fill="#63b8ff" stroke="#63b8ff" points="149.34,-133 138.94,-130.97 145.81,-139.04 149.34,-133"/>
</a>
</g>
</g>
<!-- Node11&#45;&gt;Node2 -->
<g id="edge13_Node000011_Node000002" class="edge">
<title>Node11&#45;&gt;Node2</title>
<g id="a_edge13_Node000011_Node000002"><a xlink:title=" ">
<path fill="none" stroke="#63b8ff" d="M203.46,-110.09C195.38,-102.55 183.66,-91.6 173.9,-82.48"/>
<polygon fill="#63b8ff" stroke="#63b8ff" points="176.45,-80.08 166.76,-75.81 171.68,-85.19 176.45,-80.08"/>
</a>
</g>
</g>
<!-- Node11&#45;&gt;Node9 -->
<g id="edge14_Node000011_Node000009" class="edge">
<title>Node11&#45;&gt;Node9</title>
<g id="a_edge14_Node000011_Node000009"><a xlink:title=" ">
<path fill="none" stroke="#63b8ff" d="M222.79,-110.09C230.87,-102.55 242.59,-91.6 252.35,-82.48"/>
<polygon fill="#63b8ff" stroke="#63b8ff" points="254.57,-85.19 259.49,-75.81 249.8,-80.08 254.57,-85.19"/>
</a>
</g>
</g>
<!-- Node12&#45;&gt;Node2 -->
<g id="edge16_Node000012_Node000002" class="edge">
<title>Node12&#45;&gt;Node2</title>
<g id="a_edge16_Node000012_Node000002"><a xlink:title=" ">
<path fill="none" stroke="#63b8ff" d="M127.74,-110.33C132.24,-103.28 138.71,-93.15 144.34,-84.33"/>
<polygon fill="#63b8ff" stroke="#63b8ff" points="147.14,-86.45 149.57,-76.13 141.24,-82.68 147.14,-86.45"/>
</a>
</g>
</g>
<!-- Node12&#45;&gt;Node9 -->
<g id="edge17_Node000012_Node000009" class="edge">
<title>Node12&#45;&gt;Node9</title>
<g id="a_edge17_Node000012_Node000009"><a xlink:title=" ">
<path fill="none" stroke="#63b8ff" d="M147.23,-110.09C171.88,-101.22 209.62,-87.65 236.77,-77.88"/>
<polygon fill="#63b8ff" stroke="#63b8ff" points="237.68,-81.27 245.91,-74.59 235.31,-74.68 237.68,-81.27"/>
</a>
</g>
</g>
<!-- Node13&#45;&gt;Node2 -->
<g id="edge22_Node000013_Node000002" class="edge">
<title>Node13&#45;&gt;Node2</title>
<g id="a_edge22_Node000013_Node000002"><a xlink:title=" ">
<path fill="none" stroke="#63b8ff" d="M318.37,-165.69C304.82,-152.56 277.55,-127.4 251.12,-110.5 231.88,-98.19 208.69,-87.23 190.05,-79.26"/>
<polygon fill="#63b8ff" stroke="#63b8ff" points="191.63,-76.12 181.05,-75.5 188.93,-82.58 191.63,-76.12"/>
</a>
</g>
</g>
<!-- Node13&#45;&gt;Node3 -->
<g id="edge19_Node000013_Node000003" class="edge">
<title>Node13&#45;&gt;Node3</title>
<g id="a_edge19_Node000013_Node000003"><a xlink:title=" ">
<path fill="none" stroke="#63b8ff" d="M359.57,-168.99C382.18,-163.36 410.76,-152.07 425.12,-129.75 445.28,-98.43 425.44,-53.88 411.07,-29.09"/>
<polygon fill="#63b8ff" stroke="#63b8ff" points="414.19,-27.48 405.99,-20.78 408.22,-31.14 414.19,-27.48"/>
</a>
</g>
</g>
<!-- Node13&#45;&gt;Node9 -->
<g id="edge20_Node000013_Node000009" class="edge">
<title>Node13&#45;&gt;Node9</title>
<g id="a_edge20_Node000013_Node000009"><a xlink:title=" ">
<path fill="none" stroke="#63b8ff" d="M328.46,-165.55C329.98,-152.68 331.19,-128.35 322.12,-110.5 316.17,-98.76 305.64,-88.84 295.62,-81.35"/>
<polygon fill="#63b8ff" stroke="#63b8ff" points="297.79,-78.59 287.57,-75.79 293.81,-84.35 297.79,-78.59"/>
</a>
</g>
</g>
<!-- Node13&#45;&gt;Node11 -->
<g id="edge23_Node000013_Node000011" class="edge">
<title>Node13&#45;&gt;Node11</title>
<g id="a_edge23_Node000013_Node000011"><a xlink:title=" ">
<path fill="none" stroke="#63b8ff" d="M307.79,-165.34C290.02,-157.04 263.41,-144.61 242.92,-135.04"/>
<polygon fill="#63b8ff" stroke="#63b8ff" points="244.47,-131.9 233.93,-130.84 241.51,-138.25 244.47,-131.9"/>
</a>
</g>
</g>
<!-- Node14 -->
<g id="Node000014" class="node">
<title>Node14</title>
<g id="a_Node000014"><a xlink:title=" ">
<polygon fill="#e0e0e0" stroke="#999999" points="416.25,-129.75 374,-129.75 374,-110.5 416.25,-110.5 416.25,-129.75"/>
<text text-anchor="middle" x="395.12" y="-116.25" font-family="Helvetica,sans-Serif" font-size="10.00">cstdio</text>
</a>
</g>
</g>
<!-- Node13&#45;&gt;Node14 -->
<g id="edge21_Node000013_Node000014" class="edge">
<title>Node13&#45;&gt;Node14</title>
<g id="a_edge21_Node000013_Node000014"><a xlink:title=" ">
<path fill="none" stroke="#63b8ff" d="M338.66,-165.34C348.59,-157.57 363.14,-146.17 374.98,-136.9"/>
<polygon fill="#63b8ff" stroke="#63b8ff" points="376.85,-139.88 382.57,-130.96 372.54,-134.37 376.85,-139.88"/>
</a>
</g>
</g>
</g>
</svg>
