<?xml version="1.0" encoding="UTF-8" standalone="no"?>
<!DOCTYPE svg PUBLIC "-//W3C//DTD SVG 1.1//EN"
 "http://www.w3.org/Graphics/SVG/1.1/DTD/svg11.dtd">
<!-- Generated by graphviz version 12.1.2 (20240928.0832)
 -->
<!-- Title: /Users/felixschulke/Developement/Arduino/Modbus_RTU/Modbus_RTU/Modbus&#45;RTU/lib/MessageService/MessageService.h Pages: 1 -->
<svg width="452pt" height="273pt"
 viewBox="0.00 0.00 451.75 272.75" xmlns="http://www.w3.org/2000/svg" xmlns:xlink="http://www.w3.org/1999/xlink">
<g id="graph0" class="graph" transform="scale(1 1) rotate(0) translate(4 268.75)">
<title>/Users/felixschulke/Developement/Arduino/Modbus_RTU/Modbus_RTU/Modbus&#45;RTU/lib/MessageService/MessageService.h</title>
<!-- Node1 -->
<g id="Node000001" class="node">
<title>Node1</title>
<g id="a_Node000001"><a xlink:title=" ">
<polygon fill="#999999" stroke="#666666" points="347,-264.75 181,-264.75 181,-200.5 347,-200.5 347,-264.75"/>
<text text-anchor="start" x="189" y="-251.25" font-family="Helvetica,sans-Serif" font-size="10.00">/Users/felixschulke</text>
<text text-anchor="start" x="189" y="-240" font-family="Helvetica,sans-Serif" font-size="10.00">/Developement/Arduino</text>
<text text-anchor="start" x="189" y="-228.75" font-family="Helvetica,sans-Serif" font-size="10.00">/Modbus_RTU/Modbus_RTU</text>
<text text-anchor="start" x="189" y="-217.5" font-family="Helvetica,sans-Serif" font-size="10.00">/Modbus&#45;RTU/lib/MessageService</text>
<text text-anchor="middle" x="264" y="-206.25" font-family="Helvetica,sans-Serif" font-size="10.00">/MessageService.h</text>
</a>
</g>
</g>
<!-- Node2 -->
<g id="Node000002" class="node">
<title>Node2</title>
<g id="a_Node000002"><a xlink:href="_message_service_8cpp.html" target="_top" xlink:title=" ">
<polygon fill="white" stroke="#666666" points="166,-164.5 0,-164.5 0,-100.25 166,-100.25 166,-164.5"/>
<text text-anchor="start" x="8" y="-151" font-family="Helvetica,sans-Serif" font-size="10.00">/Users/felixschulke</text>
<text text-anchor="start" x="8" y="-139.75" font-family="Helvetica,sans-Serif" font-size="10.00">/Developement/Arduino</text>
<text text-anchor="start" x="8" y="-128.5" font-family="Helvetica,sans-Serif" font-size="10.00">/Modbus_RTU/Modbus_RTU</text>
<text text-anchor="start" x="8" y="-117.25" font-family="Helvetica,sans-Serif" font-size="10.00">/Modbus&#45;RTU/lib/MessageService</text>
<text text-anchor="middle" x="83" y="-106" font-family="Helvetica,sans-Serif" font-size="10.00">/MessageService.cpp</text>
</a>
</g>
</g>
<!-- Node1&#45;&gt;Node2 -->
<g id="edge1_Node000001_Node000002" class="edge">
<title>Node1&#45;&gt;Node2</title>
<g id="a_edge1_Node000001_Node000002"><a xlink:title=" ">
<path fill="none" stroke="#63b8ff" d="M196.31,-194.88C178.17,-185.04 158.72,-174.48 141.15,-164.94"/>
<polygon fill="#63b8ff" stroke="#63b8ff" points="194.44,-197.85 204.9,-199.55 197.78,-191.7 194.44,-197.85"/>
</a>
</g>
</g>
<!-- Node3 -->
<g id="Node000003" class="node">
<title>Node3</title>
<g id="a_Node000003"><a xlink:href="_service_interface__modbus_r_t_u_8h.html" target="_top" xlink:title=" ">
<polygon fill="white" stroke="#666666" points="343.62,-164.5 184.38,-164.5 184.38,-100.25 343.62,-100.25 343.62,-164.5"/>
<text text-anchor="start" x="192.38" y="-151" font-family="Helvetica,sans-Serif" font-size="10.00">/Users/felixschulke</text>
<text text-anchor="start" x="192.38" y="-139.75" font-family="Helvetica,sans-Serif" font-size="10.00">/Developement/Arduino</text>
<text text-anchor="start" x="192.38" y="-128.5" font-family="Helvetica,sans-Serif" font-size="10.00">/Modbus_RTU/Modbus_RTU</text>
<text text-anchor="start" x="192.38" y="-117.25" font-family="Helvetica,sans-Serif" font-size="10.00">/Modbus&#45;RTU/lib/ModbusRTU</text>
<text text-anchor="middle" x="264" y="-106" font-family="Helvetica,sans-Serif" font-size="10.00">/ServiceInterface_modbusRTU.h</text>
</a>
</g>
</g>
<!-- Node1&#45;&gt;Node3 -->
<g id="edge2_Node000001_Node000003" class="edge">
<title>Node1&#45;&gt;Node3</title>
<g id="a_edge2_Node000001_Node000003"><a xlink:title=" ">
<path fill="none" stroke="#63b8ff" d="M264,-189.01C264,-180.87 264,-172.48 264,-164.77"/>
<polygon fill="#63b8ff" stroke="#63b8ff" points="260.5,-188.75 264,-198.75 267.5,-188.75 260.5,-188.75"/>
</a>
</g>
</g>
<!-- Node5 -->
<g id="Node000005" class="node">
<title>Node5</title>
<g id="a_Node000005"><a xlink:href="main_8cpp.html" target="_top" xlink:title="This main is an example&#45;implementation of a simple modbus&#45;messenger to demonstrate the usage of a lay...">
<polygon fill="white" stroke="#666666" points="443.75,-58.62 300.25,-58.62 300.25,-5.62 443.75,-5.62 443.75,-58.62"/>
<text text-anchor="start" x="308.25" y="-45.12" font-family="Helvetica,sans-Serif" font-size="10.00">/Users/felixschulke</text>
<text text-anchor="start" x="308.25" y="-33.88" font-family="Helvetica,sans-Serif" font-size="10.00">/Developement/Arduino</text>
<text text-anchor="start" x="308.25" y="-22.62" font-family="Helvetica,sans-Serif" font-size="10.00">/Modbus_RTU/Modbus_RTU</text>
<text text-anchor="middle" x="372" y="-11.38" font-family="Helvetica,sans-Serif" font-size="10.00">/Modbus&#45;RTU/src/main.cpp</text>
</a>
</g>
</g>
<!-- Node1&#45;&gt;Node5 -->
<g id="edge5_Node000001_Node000005" class="edge">
<title>Node1&#45;&gt;Node5</title>
<g id="a_edge5_Node000001_Node000005"><a xlink:title=" ">
<path fill="none" stroke="#63b8ff" d="M328.66,-192.8C338.1,-184.55 346.74,-175.09 353,-164.5 372.3,-131.87 374.64,-86.93 373.85,-58.97"/>
<polygon fill="#63b8ff" stroke="#63b8ff" points="326.5,-190.04 320.97,-199.08 330.93,-195.46 326.5,-190.04"/>
</a>
</g>
</g>
<!-- Node4 -->
<g id="Node000004" class="node">
<title>Node4</title>
<g id="a_Node000004"><a xlink:href="_service_interface__modbus_r_t_u_8cpp.html" target="_top" xlink:title=" ">
<polygon fill="white" stroke="#666666" points="281.88,-64.25 112.12,-64.25 112.12,0 281.88,0 281.88,-64.25"/>
<text text-anchor="start" x="120.12" y="-50.75" font-family="Helvetica,sans-Serif" font-size="10.00">/Users/felixschulke</text>
<text text-anchor="start" x="120.12" y="-39.5" font-family="Helvetica,sans-Serif" font-size="10.00">/Developement/Arduino</text>
<text text-anchor="start" x="120.12" y="-28.25" font-family="Helvetica,sans-Serif" font-size="10.00">/Modbus_RTU/Modbus_RTU</text>
<text text-anchor="start" x="120.12" y="-17" font-family="Helvetica,sans-Serif" font-size="10.00">/Modbus&#45;RTU/lib/ModbusRTU</text>
<text text-anchor="middle" x="197" y="-5.75" font-family="Helvetica,sans-Serif" font-size="10.00">/ServiceInterface_modbusRTU.cpp</text>
</a>
</g>
</g>
<!-- Node3&#45;&gt;Node4 -->
<g id="edge3_Node000003_Node000004" class="edge">
<title>Node3&#45;&gt;Node4</title>
<g id="a_edge3_Node000003_Node000004"><a xlink:title=" ">
<path fill="none" stroke="#63b8ff" d="M236.28,-90.72C230.31,-81.97 224.09,-72.85 218.41,-64.52"/>
<polygon fill="#63b8ff" stroke="#63b8ff" points="233.24,-92.48 241.76,-98.77 239.02,-88.53 233.24,-92.48"/>
</a>
</g>
</g>
<!-- Node3&#45;&gt;Node5 -->
<g id="edge4_Node000003_Node000005" class="edge">
<title>Node3&#45;&gt;Node5</title>
<g id="a_edge4_Node000003_Node000005"><a xlink:title=" ">
<path fill="none" stroke="#63b8ff" d="M306.86,-92.38C319.22,-81.14 332.39,-69.16 343.64,-58.93"/>
<polygon fill="#63b8ff" stroke="#63b8ff" points="304.63,-89.68 299.59,-99 309.34,-94.86 304.63,-89.68"/>
</a>
</g>
</g>
</g>
</svg>
