<?xml version="1.0" encoding="UTF-8" standalone="no"?>
<!DOCTYPE svg PUBLIC "-//W3C//DTD SVG 1.1//EN"
 "http://www.w3.org/Graphics/SVG/1.1/DTD/svg11.dtd">
<!-- Generated by graphviz version 12.1.2 (20240928.0832)
 -->
<!-- Title: /Users/felixschulke/Developement/Arduino/Modbus_RTU/Modbus_RTU/Modbus&#45;RTU/lib/MessageService/Message.cpp Pages: 1 -->
<svg width="389pt" height="293pt"
 viewBox="0.00 0.00 388.75 293.25" xmlns="http://www.w3.org/2000/svg" xmlns:xlink="http://www.w3.org/1999/xlink">
<g id="graph0" class="graph" transform="scale(1 1) rotate(0) translate(4 289.25)">
<title>/Users/felixschulke/Developement/Arduino/Modbus_RTU/Modbus_RTU/Modbus&#45;RTU/lib/MessageService/Message.cpp</title>
<!-- Node1 -->
<g id="Node000001" class="node">
<title>Node1</title>
<g id="a_Node000001"><a xlink:title=" ">
<polygon fill="#999999" stroke="#666666" points="196.75,-285.25 30.75,-285.25 30.75,-221 196.75,-221 196.75,-285.25"/>
<text text-anchor="start" x="38.75" y="-271.75" font-family="Helvetica,sans-Serif" font-size="10.00">/Users/felixschulke</text>
<text text-anchor="start" x="38.75" y="-260.5" font-family="Helvetica,sans-Serif" font-size="10.00">/Developement/Arduino</text>
<text text-anchor="start" x="38.75" y="-249.25" font-family="Helvetica,sans-Serif" font-size="10.00">/Modbus_RTU/Modbus_RTU</text>
<text text-anchor="start" x="38.75" y="-238" font-family="Helvetica,sans-Serif" font-size="10.00">/Modbus&#45;RTU/lib/MessageService</text>
<text text-anchor="middle" x="113.75" y="-226.75" font-family="Helvetica,sans-Serif" font-size="10.00">/Message.cpp</text>
</a>
</g>
</g>
<!-- Node2 -->
<g id="Node000002" class="node">
<title>Node2</title>
<g id="a_Node000002"><a xlink:href="_message_8h.html" target="_top" xlink:title=" ">
<polygon fill="white" stroke="#666666" points="145.75,-185 81.75,-185 81.75,-165.75 145.75,-165.75 145.75,-185"/>
<text text-anchor="middle" x="113.75" y="-171.5" font-family="Helvetica,sans-Serif" font-size="10.00">Message.h</text>
</a>
</g>
</g>
<!-- Node1&#45;&gt;Node2 -->
<g id="edge1_Node000001_Node000002" class="edge">
<title>Node1&#45;&gt;Node2</title>
<g id="a_edge1_Node000001_Node000002"><a xlink:title=" ">
<path fill="none" stroke="#63b8ff" d="M113.75,-220.88C113.75,-212.73 113.75,-204.16 113.75,-196.73"/>
<polygon fill="#63b8ff" stroke="#63b8ff" points="117.25,-196.8 113.75,-186.8 110.25,-196.8 117.25,-196.8"/>
</a>
</g>
</g>
<!-- Node3 -->
<g id="Node000003" class="node">
<title>Node3</title>
<g id="a_Node000003"><a xlink:title=" ">
<polygon fill="#e0e0e0" stroke="#999999" points="53.5,-19.25 0,-19.25 0,0 53.5,0 53.5,-19.25"/>
<text text-anchor="middle" x="26.75" y="-5.75" font-family="Helvetica,sans-Serif" font-size="10.00">iostream</text>
</a>
</g>
</g>
<!-- Node2&#45;&gt;Node3 -->
<g id="edge2_Node000002_Node000003" class="edge">
<title>Node2&#45;&gt;Node3</title>
<g id="a_edge2_Node000002_Node000003"><a xlink:title=" ">
<path fill="none" stroke="#63b8ff" d="M105.51,-165.3C97.9,-156.62 86.63,-142.94 78.75,-129.75 58.95,-96.6 42.39,-54.55 33.58,-30.31"/>
<polygon fill="#63b8ff" stroke="#63b8ff" points="36.96,-29.35 30.31,-21.1 30.36,-31.69 36.96,-29.35"/>
</a>
</g>
</g>
<!-- Node4 -->
<g id="Node000004" class="node">
<title>Node4</title>
<g id="a_Node000004"><a xlink:title=" ">
<polygon fill="#e0e0e0" stroke="#999999" points="131.38,-74.5 86.12,-74.5 86.12,-55.25 131.38,-55.25 131.38,-74.5"/>
<text text-anchor="middle" x="108.75" y="-61" font-family="Helvetica,sans-Serif" font-size="10.00">cstring</text>
</a>
</g>
</g>
<!-- Node2&#45;&gt;Node4 -->
<g id="edge3_Node000002_Node000004" class="edge">
<title>Node2&#45;&gt;Node4</title>
<g id="a_edge3_Node000002_Node000004"><a xlink:title=" ">
<path fill="none" stroke="#63b8ff" d="M105.25,-165.32C97.95,-156.86 87.94,-143.5 83.75,-129.75 78.97,-114.09 86.54,-96.82 94.57,-84.2"/>
<polygon fill="#63b8ff" stroke="#63b8ff" points="97.4,-86.25 100.29,-76.05 91.68,-82.22 97.4,-86.25"/>
</a>
</g>
</g>
<!-- Node5 -->
<g id="Node000005" class="node">
<title>Node5</title>
<g id="a_Node000005"><a xlink:title=" ">
<polygon fill="#e0e0e0" stroke="#999999" points="134.88,-129.75 92.62,-129.75 92.62,-110.5 134.88,-110.5 134.88,-129.75"/>
<text text-anchor="middle" x="113.75" y="-116.25" font-family="Helvetica,sans-Serif" font-size="10.00">cstdio</text>
</a>
</g>
</g>
<!-- Node2&#45;&gt;Node5 -->
<g id="edge4_Node000002_Node000005" class="edge">
<title>Node2&#45;&gt;Node5</title>
<g id="a_edge4_Node000002_Node000005"><a xlink:title=" ">
<path fill="none" stroke="#63b8ff" d="M113.75,-165.58C113.75,-159.07 113.75,-149.92 113.75,-141.62"/>
<polygon fill="#63b8ff" stroke="#63b8ff" points="117.25,-141.62 113.75,-131.62 110.25,-141.62 117.25,-141.62"/>
</a>
</g>
</g>
<!-- Node6 -->
<g id="Node000006" class="node">
<title>Node6</title>
<g id="a_Node000006"><a xlink:href="mock_arduino_8h.html" target="_top" xlink:title=" ">
<polygon fill="white" stroke="#666666" points="242.38,-74.5 161.12,-74.5 161.12,-55.25 242.38,-55.25 242.38,-74.5"/>
<text text-anchor="middle" x="201.75" y="-61" font-family="Helvetica,sans-Serif" font-size="10.00">mockArduino.h</text>
</a>
</g>
</g>
<!-- Node2&#45;&gt;Node6 -->
<g id="edge5_Node000002_Node000006" class="edge">
<title>Node2&#45;&gt;Node6</title>
<g id="a_edge5_Node000002_Node000006"><a xlink:title=" ">
<path fill="none" stroke="#63b8ff" d="M146.25,-170.43C171.27,-165.51 204.29,-154.45 220.75,-129.75 229.86,-116.08 223.02,-97.91 215.11,-84.45"/>
<polygon fill="#63b8ff" stroke="#63b8ff" points="218.06,-82.56 209.66,-76.11 212.2,-86.39 218.06,-82.56"/>
</a>
</g>
</g>
<!-- Node12 -->
<g id="Node000012" class="node">
<title>Node12</title>
<g id="a_Node000012"><a xlink:href="_content_8h.html" target="_top" xlink:title=" ">
<polygon fill="white" stroke="#666666" points="212.12,-129.75 153.38,-129.75 153.38,-110.5 212.12,-110.5 212.12,-129.75"/>
<text text-anchor="middle" x="182.75" y="-116.25" font-family="Helvetica,sans-Serif" font-size="10.00">Content.h</text>
</a>
</g>
</g>
<!-- Node2&#45;&gt;Node12 -->
<g id="edge12_Node000002_Node000012" class="edge">
<title>Node2&#45;&gt;Node12</title>
<g id="a_edge12_Node000002_Node000012"><a xlink:title=" ">
<path fill="none" stroke="#63b8ff" d="M125.45,-165.34C135.53,-157.57 150.29,-146.17 162.31,-136.9"/>
<polygon fill="#63b8ff" stroke="#63b8ff" points="164.24,-139.83 170.02,-130.95 159.96,-134.29 164.24,-139.83"/>
</a>
</g>
</g>
<!-- Node6&#45;&gt;Node3 -->
<g id="edge6_Node000006_Node000003" class="edge">
<title>Node6&#45;&gt;Node3</title>
<g id="a_edge6_Node000006_Node000003"><a xlink:title=" ">
<path fill="none" stroke="#63b8ff" d="M172.06,-54.84C142.49,-45.84 96.97,-31.99 64.77,-22.2"/>
<polygon fill="#63b8ff" stroke="#63b8ff" points="66.02,-18.92 55.44,-19.35 63.98,-25.61 66.02,-18.92"/>
</a>
</g>
</g>
<!-- Node7 -->
<g id="Node000007" class="node">
<title>Node7</title>
<g id="a_Node000007"><a xlink:title=" ">
<polygon fill="#e0e0e0" stroke="#999999" points="111.75,-19.25 71.75,-19.25 71.75,0 111.75,0 111.75,-19.25"/>
<text text-anchor="middle" x="91.75" y="-5.75" font-family="Helvetica,sans-Serif" font-size="10.00">string</text>
</a>
</g>
</g>
<!-- Node6&#45;&gt;Node7 -->
<g id="edge7_Node000006_Node000007" class="edge">
<title>Node6&#45;&gt;Node7</title>
<g id="a_edge7_Node000006_Node000007"><a xlink:title=" ">
<path fill="none" stroke="#63b8ff" d="M183.09,-54.84C166.02,-46.58 140.51,-34.23 120.78,-24.68"/>
<polygon fill="#63b8ff" stroke="#63b8ff" points="122.39,-21.57 111.86,-20.36 119.34,-27.87 122.39,-21.57"/>
</a>
</g>
</g>
<!-- Node8 -->
<g id="Node000008" class="node">
<title>Node8</title>
<g id="a_Node000008"><a xlink:title=" ">
<polygon fill="#e0e0e0" stroke="#999999" points="181.38,-19.25 130.12,-19.25 130.12,0 181.38,0 181.38,-19.25"/>
<text text-anchor="middle" x="155.75" y="-5.75" font-family="Helvetica,sans-Serif" font-size="10.00">sstream</text>
</a>
</g>
</g>
<!-- Node6&#45;&gt;Node8 -->
<g id="edge8_Node000006_Node000008" class="edge">
<title>Node6&#45;&gt;Node8</title>
<g id="a_edge8_Node000006_Node000008"><a xlink:title=" ">
<path fill="none" stroke="#63b8ff" d="M194.15,-55.08C187.87,-47.8 178.74,-37.23 170.95,-28.23"/>
<polygon fill="#63b8ff" stroke="#63b8ff" points="173.69,-26.03 164.5,-20.75 168.39,-30.61 173.69,-26.03"/>
</a>
</g>
</g>
<!-- Node9 -->
<g id="Node000009" class="node">
<title>Node9</title>
<g id="a_Node000009"><a xlink:title=" ">
<polygon fill="#e0e0e0" stroke="#999999" points="244.38,-19.25 199.12,-19.25 199.12,0 244.38,0 244.38,-19.25"/>
<text text-anchor="middle" x="221.75" y="-5.75" font-family="Helvetica,sans-Serif" font-size="10.00">chrono</text>
</a>
</g>
</g>
<!-- Node6&#45;&gt;Node9 -->
<g id="edge9_Node000006_Node000009" class="edge">
<title>Node6&#45;&gt;Node9</title>
<g id="a_edge9_Node000006_Node000009"><a xlink:title=" ">
<path fill="none" stroke="#63b8ff" d="M205.05,-55.08C207.58,-48.34 211.18,-38.77 214.38,-30.24"/>
<polygon fill="#63b8ff" stroke="#63b8ff" points="217.6,-31.62 217.84,-21.03 211.05,-29.16 217.6,-31.62"/>
</a>
</g>
</g>
<!-- Node10 -->
<g id="Node000010" class="node">
<title>Node10</title>
<g id="a_Node000010"><a xlink:title=" ">
<polygon fill="#e0e0e0" stroke="#999999" points="304.88,-19.25 262.62,-19.25 262.62,0 304.88,0 304.88,-19.25"/>
<text text-anchor="middle" x="283.75" y="-5.75" font-family="Helvetica,sans-Serif" font-size="10.00">queue</text>
</a>
</g>
</g>
<!-- Node6&#45;&gt;Node10 -->
<g id="edge10_Node000006_Node000010" class="edge">
<title>Node6&#45;&gt;Node10</title>
<g id="a_edge10_Node000006_Node000010"><a xlink:title=" ">
<path fill="none" stroke="#63b8ff" d="M215.66,-54.84C227.91,-46.89 246,-35.14 260.46,-25.75"/>
<polygon fill="#63b8ff" stroke="#63b8ff" points="262.02,-28.91 268.5,-20.53 258.21,-23.04 262.02,-28.91"/>
</a>
</g>
</g>
<!-- Node11 -->
<g id="Node000011" class="node">
<title>Node11</title>
<g id="a_Node000011"><a xlink:title=" ">
<polygon fill="#e0e0e0" stroke="#999999" points="380.75,-19.25 322.75,-19.25 322.75,0 380.75,0 380.75,-19.25"/>
<text text-anchor="middle" x="351.75" y="-5.75" font-family="Helvetica,sans-Serif" font-size="10.00">functional</text>
</a>
</g>
</g>
<!-- Node6&#45;&gt;Node11 -->
<g id="edge11_Node000006_Node000011" class="edge">
<title>Node6&#45;&gt;Node11</title>
<g id="a_edge11_Node000006_Node000011"><a xlink:title=" ">
<path fill="none" stroke="#63b8ff" d="M227.2,-54.84C251.44,-46.24 288.18,-33.19 315.49,-23.5"/>
<polygon fill="#63b8ff" stroke="#63b8ff" points="316.5,-26.85 324.75,-20.21 314.16,-20.26 316.5,-26.85"/>
</a>
</g>
</g>
<!-- Node12&#45;&gt;Node4 -->
<g id="edge14_Node000012_Node000004" class="edge">
<title>Node12&#45;&gt;Node4</title>
<g id="a_edge14_Node000012_Node000004"><a xlink:title=" ">
<path fill="none" stroke="#63b8ff" d="M170.2,-110.09C159.29,-102.24 143.25,-90.7 130.29,-81.37"/>
<polygon fill="#63b8ff" stroke="#63b8ff" points="132.51,-78.66 122.35,-75.66 128.42,-84.34 132.51,-78.66"/>
</a>
</g>
</g>
<!-- Node12&#45;&gt;Node6 -->
<g id="edge13_Node000012_Node000006" class="edge">
<title>Node12&#45;&gt;Node6</title>
<g id="a_edge13_Node000012_Node000006"><a xlink:title=" ">
<path fill="none" stroke="#63b8ff" d="M185.89,-110.33C188.29,-103.59 191.71,-94.02 194.75,-85.49"/>
<polygon fill="#63b8ff" stroke="#63b8ff" points="197.97,-86.88 198.04,-76.28 191.38,-84.53 197.97,-86.88"/>
</a>
</g>
</g>
</g>
</svg>
