<?xml version="1.0" encoding="UTF-8" standalone="no"?>
<!DOCTYPE svg PUBLIC "-//W3C//DTD SVG 1.1//EN"
 "http://www.w3.org/Graphics/SVG/1.1/DTD/svg11.dtd">
<!-- Generated by graphviz version 12.1.2 (20240928.0832)
 -->
<!-- Title: /Users/felixschulke/Developement/Arduino/Modbus_RTU/Modbus_RTU/Modbus&#45;RTU/lib/ModbusRTU/ServiceInterface_modbusRTU.cpp Pages: 1 -->
<svg width="1300pt" height="514pt"
 viewBox="0.00 0.00 1299.85 514.25" xmlns="http://www.w3.org/2000/svg" xmlns:xlink="http://www.w3.org/1999/xlink">
<g id="graph0" class="graph" transform="scale(1 1) rotate(0) translate(4 510.25)">
<title>/Users/felixschulke/Developement/Arduino/Modbus_RTU/Modbus_RTU/Modbus&#45;RTU/lib/ModbusRTU/ServiceInterface_modbusRTU.cpp</title>
<!-- Node1 -->
<g id="Node000001" class="node">
<title>Node1</title>
<g id="a_Node000001"><a xlink:title=" ">
<polygon fill="#999999" stroke="#666666" points="366.88,-506.25 197.12,-506.25 197.12,-442 366.88,-442 366.88,-506.25"/>
<text text-anchor="start" x="205.12" y="-492.75" font-family="Helvetica,sans-Serif" font-size="10.00">/Users/felixschulke</text>
<text text-anchor="start" x="205.12" y="-481.5" font-family="Helvetica,sans-Serif" font-size="10.00">/Developement/Arduino</text>
<text text-anchor="start" x="205.12" y="-470.25" font-family="Helvetica,sans-Serif" font-size="10.00">/Modbus_RTU/Modbus_RTU</text>
<text text-anchor="start" x="205.12" y="-459" font-family="Helvetica,sans-Serif" font-size="10.00">/Modbus&#45;RTU/lib/ModbusRTU</text>
<text text-anchor="middle" x="282" y="-447.75" font-family="Helvetica,sans-Serif" font-size="10.00">/ServiceInterface_modbusRTU.cpp</text>
</a>
</g>
</g>
<!-- Node2 -->
<g id="Node000002" class="node">
<title>Node2</title>
<g id="a_Node000002"><a xlink:href="_service_interface__modbus_r_t_u_8h.html" target="_top" xlink:title=" ">
<polygon fill="white" stroke="#666666" points="360.12,-406 203.88,-406 203.88,-386.75 360.12,-386.75 360.12,-406"/>
<text text-anchor="middle" x="282" y="-392.5" font-family="Helvetica,sans-Serif" font-size="10.00">ServiceInterface_modbusRTU.h</text>
</a>
</g>
</g>
<!-- Node1&#45;&gt;Node2 -->
<g id="edge1_Node000001_Node000002" class="edge">
<title>Node1&#45;&gt;Node2</title>
<g id="a_edge1_Node000001_Node000002"><a xlink:title=" ">
<path fill="none" stroke="#63b8ff" d="M282,-441.88C282,-433.73 282,-425.16 282,-417.73"/>
<polygon fill="#63b8ff" stroke="#63b8ff" points="285.5,-417.8 282,-407.8 278.5,-417.8 285.5,-417.8"/>
</a>
</g>
</g>
<!-- Node3 -->
<g id="Node000003" class="node">
<title>Node3</title>
<g id="a_Node000003"><a xlink:href="mock_arduino_8h.html" target="_top" xlink:title=" ">
<polygon fill="white" stroke="#666666" points="547.62,-74.5 466.38,-74.5 466.38,-55.25 547.62,-55.25 547.62,-74.5"/>
<text text-anchor="middle" x="507" y="-61" font-family="Helvetica,sans-Serif" font-size="10.00">mockArduino.h</text>
</a>
</g>
</g>
<!-- Node2&#45;&gt;Node3 -->
<g id="edge2_Node000002_Node000003" class="edge">
<title>Node2&#45;&gt;Node3</title>
<g id="a_edge2_Node000002_Node000003"><a xlink:title=" ">
<path fill="none" stroke="#63b8ff" d="M229.62,-386.29C148.07,-370.64 0,-335.53 0,-286.88 0,-286.88 0,-286.88 0,-174.38 0,-82.08 325.31,-68.03 454.77,-66.09"/>
<polygon fill="#63b8ff" stroke="#63b8ff" points="454.47,-69.59 464.43,-65.97 454.38,-62.6 454.47,-69.59"/>
</a>
</g>
</g>
<!-- Node10 -->
<g id="Node000010" class="node">
<title>Node10</title>
<g id="a_Node000010"><a xlink:href="_service_interface_8h.html" target="_top" xlink:title=" ">
<polygon fill="white" stroke="#666666" points="486.75,-350.75 391.25,-350.75 391.25,-331.5 486.75,-331.5 486.75,-350.75"/>
<text text-anchor="middle" x="439" y="-337.25" font-family="Helvetica,sans-Serif" font-size="10.00">ServiceInterface.h</text>
</a>
</g>
</g>
<!-- Node2&#45;&gt;Node10 -->
<g id="edge9_Node000002_Node000010" class="edge">
<title>Node2&#45;&gt;Node10</title>
<g id="a_edge9_Node000002_Node000010"><a xlink:title=" ">
<path fill="none" stroke="#63b8ff" d="M308.63,-386.34C334.12,-377.7 372.81,-364.57 401.43,-354.87"/>
<polygon fill="#63b8ff" stroke="#63b8ff" points="402.46,-358.22 410.8,-351.69 400.21,-351.59 402.46,-358.22"/>
</a>
</g>
</g>
<!-- Node23 -->
<g id="Node000023" class="node">
<title>Node23</title>
<g id="a_Node000023"><a xlink:href="_comm_interface__modbus_r_t_u_8h.html" target="_top" xlink:title=" ">
<polygon fill="white" stroke="#666666" points="358.25,-350.75 205.75,-350.75 205.75,-331.5 358.25,-331.5 358.25,-350.75"/>
<text text-anchor="middle" x="282" y="-337.25" font-family="Helvetica,sans-Serif" font-size="10.00">CommInterface_modbusRTU.h</text>
</a>
</g>
</g>
<!-- Node2&#45;&gt;Node23 -->
<g id="edge48_Node000002_Node000023" class="edge">
<title>Node2&#45;&gt;Node23</title>
<g id="a_edge48_Node000002_Node000023"><a xlink:title=" ">
<path fill="none" stroke="#63b8ff" d="M282,-386.58C282,-380.07 282,-370.92 282,-362.62"/>
<polygon fill="#63b8ff" stroke="#63b8ff" points="285.5,-362.62 282,-352.62 278.5,-362.62 285.5,-362.62"/>
</a>
</g>
</g>
<!-- Node25 -->
<g id="Node000025" class="node">
<title>Node25</title>
<g id="a_Node000025"><a xlink:href="_frame__modbus_r_t_u_8h.html" target="_top" xlink:title=" ">
<polygon fill="white" stroke="#666666" points="140.38,-240.25 27.62,-240.25 27.62,-221 140.38,-221 140.38,-240.25"/>
<text text-anchor="middle" x="84" y="-226.75" font-family="Helvetica,sans-Serif" font-size="10.00">Frame_modbusRTU.h</text>
</a>
</g>
</g>
<!-- Node2&#45;&gt;Node25 -->
<g id="edge54_Node000002_Node000025" class="edge">
<title>Node2&#45;&gt;Node25</title>
<g id="a_edge54_Node000002_Node000025"><a xlink:title=" ">
<path fill="none" stroke="#63b8ff" d="M260.25,-386.36C242.35,-378.39 216.81,-365.73 197,-350.75 156.46,-320.08 117.57,-274.34 97.7,-249.4"/>
<polygon fill="#63b8ff" stroke="#63b8ff" points="100.69,-247.55 91.77,-241.84 95.19,-251.87 100.69,-247.55"/>
</a>
</g>
</g>
<!-- Node26 -->
<g id="Node000026" class="node">
<title>Node26</title>
<g id="a_Node000026"><a xlink:href="_message_service_8h.html" target="_top" xlink:title=" ">
<polygon fill="white" stroke="#666666" points="983.5,-240.25 886.5,-240.25 886.5,-221 983.5,-221 983.5,-240.25"/>
<text text-anchor="middle" x="935" y="-226.75" font-family="Helvetica,sans-Serif" font-size="10.00">MessageService.h</text>
</a>
</g>
</g>
<!-- Node2&#45;&gt;Node26 -->
<g id="edge57_Node000002_Node000026" class="edge">
<title>Node2&#45;&gt;Node26</title>
<g id="a_edge57_Node000002_Node000026"><a xlink:title=" ">
<path fill="none" stroke="#63b8ff" d="M329.78,-386.26C373.27,-377.76 439.16,-364.37 496,-350.75 642.94,-315.53 815.47,-266.41 893.25,-243.84"/>
<polygon fill="#63b8ff" stroke="#63b8ff" points="893.95,-247.29 902.57,-241.13 891.99,-240.56 893.95,-247.29"/>
</a>
</g>
</g>
<!-- Node4 -->
<g id="Node000004" class="node">
<title>Node4</title>
<g id="a_Node000004"><a xlink:title=" ">
<polygon fill="#e0e0e0" stroke="#999999" points="823.75,-19.25 770.25,-19.25 770.25,0 823.75,0 823.75,-19.25"/>
<text text-anchor="middle" x="797" y="-5.75" font-family="Helvetica,sans-Serif" font-size="10.00">iostream</text>
</a>
</g>
</g>
<!-- Node3&#45;&gt;Node4 -->
<g id="edge3_Node000003_Node000004" class="edge">
<title>Node3&#45;&gt;Node4</title>
<g id="a_edge3_Node000003_Node000004"><a xlink:title=" ">
<path fill="none" stroke="#63b8ff" d="M547.93,-56.36C604.08,-46.05 704.23,-27.66 758.86,-17.63"/>
<polygon fill="#63b8ff" stroke="#63b8ff" points="759.43,-21.08 768.63,-15.83 758.17,-14.2 759.43,-21.08"/>
</a>
</g>
</g>
<!-- Node5 -->
<g id="Node000005" class="node">
<title>Node5</title>
<g id="a_Node000005"><a xlink:title=" ">
<polygon fill="#e0e0e0" stroke="#999999" points="397,-19.25 357,-19.25 357,0 397,0 397,-19.25"/>
<text text-anchor="middle" x="377" y="-5.75" font-family="Helvetica,sans-Serif" font-size="10.00">string</text>
</a>
</g>
</g>
<!-- Node3&#45;&gt;Node5 -->
<g id="edge4_Node000003_Node000005" class="edge">
<title>Node3&#45;&gt;Node5</title>
<g id="a_edge4_Node000003_Node000005"><a xlink:title=" ">
<path fill="none" stroke="#63b8ff" d="M484.95,-54.84C463.81,-46.18 431.71,-33.03 408,-23.32"/>
<polygon fill="#63b8ff" stroke="#63b8ff" points="409.43,-20.12 398.84,-19.57 406.77,-26.6 409.43,-20.12"/>
</a>
</g>
</g>
<!-- Node6 -->
<g id="Node000006" class="node">
<title>Node6</title>
<g id="a_Node000006"><a xlink:title=" ">
<polygon fill="#e0e0e0" stroke="#999999" points="466.62,-19.25 415.38,-19.25 415.38,0 466.62,0 466.62,-19.25"/>
<text text-anchor="middle" x="441" y="-5.75" font-family="Helvetica,sans-Serif" font-size="10.00">sstream</text>
</a>
</g>
</g>
<!-- Node3&#45;&gt;Node6 -->
<g id="edge5_Node000003_Node000006" class="edge">
<title>Node3&#45;&gt;Node6</title>
<g id="a_edge5_Node000003_Node000006"><a xlink:title=" ">
<path fill="none" stroke="#63b8ff" d="M495.8,-54.84C486.26,-47.15 472.33,-35.9 460.89,-26.68"/>
<polygon fill="#63b8ff" stroke="#63b8ff" points="463.19,-24.03 453.21,-20.48 458.79,-29.48 463.19,-24.03"/>
</a>
</g>
</g>
<!-- Node7 -->
<g id="Node000007" class="node">
<title>Node7</title>
<g id="a_Node000007"><a xlink:title=" ">
<polygon fill="#e0e0e0" stroke="#999999" points="529.62,-19.25 484.38,-19.25 484.38,0 529.62,0 529.62,-19.25"/>
<text text-anchor="middle" x="507" y="-5.75" font-family="Helvetica,sans-Serif" font-size="10.00">chrono</text>
</a>
</g>
</g>
<!-- Node3&#45;&gt;Node7 -->
<g id="edge6_Node000003_Node000007" class="edge">
<title>Node3&#45;&gt;Node7</title>
<g id="a_edge6_Node000003_Node000007"><a xlink:title=" ">
<path fill="none" stroke="#63b8ff" d="M507,-55.08C507,-48.57 507,-39.42 507,-31.12"/>
<polygon fill="#63b8ff" stroke="#63b8ff" points="510.5,-31.12 507,-21.12 503.5,-31.12 510.5,-31.12"/>
</a>
</g>
</g>
<!-- Node8 -->
<g id="Node000008" class="node">
<title>Node8</title>
<g id="a_Node000008"><a xlink:title=" ">
<polygon fill="#e0e0e0" stroke="#999999" points="590.12,-19.25 547.88,-19.25 547.88,0 590.12,0 590.12,-19.25"/>
<text text-anchor="middle" x="569" y="-5.75" font-family="Helvetica,sans-Serif" font-size="10.00">queue</text>
</a>
</g>
</g>
<!-- Node3&#45;&gt;Node8 -->
<g id="edge7_Node000003_Node000008" class="edge">
<title>Node3&#45;&gt;Node8</title>
<g id="a_edge7_Node000003_Node000008"><a xlink:title=" ">
<path fill="none" stroke="#63b8ff" d="M517.52,-54.84C526.39,-47.22 539.31,-36.12 549.99,-26.95"/>
<polygon fill="#63b8ff" stroke="#63b8ff" points="552.18,-29.68 557.49,-20.51 547.62,-24.37 552.18,-29.68"/>
</a>
</g>
</g>
<!-- Node9 -->
<g id="Node000009" class="node">
<title>Node9</title>
<g id="a_Node000009"><a xlink:title=" ">
<polygon fill="#e0e0e0" stroke="#999999" points="666,-19.25 608,-19.25 608,0 666,0 666,-19.25"/>
<text text-anchor="middle" x="637" y="-5.75" font-family="Helvetica,sans-Serif" font-size="10.00">functional</text>
</a>
</g>
</g>
<!-- Node3&#45;&gt;Node9 -->
<g id="edge8_Node000003_Node000009" class="edge">
<title>Node3&#45;&gt;Node9</title>
<g id="a_edge8_Node000003_Node000009"><a xlink:title=" ">
<path fill="none" stroke="#63b8ff" d="M529.05,-54.84C549.69,-46.39 580.78,-33.65 604.3,-24.02"/>
<polygon fill="#63b8ff" stroke="#63b8ff" points="605.51,-27.31 613.44,-20.28 602.86,-20.83 605.51,-27.31"/>
</a>
</g>
</g>
<!-- Node10&#45;&gt;Node3 -->
<g id="edge10_Node000010_Node000003" class="edge">
<title>Node10&#45;&gt;Node3</title>
<g id="a_edge10_Node000010_Node000003"><a xlink:title=" ">
<path fill="none" stroke="#63b8ff" d="M426.48,-331.06C392.41,-305.25 302.94,-229.15 339,-165.75 365.22,-119.65 422.05,-92.61 462.34,-78.54"/>
<polygon fill="#63b8ff" stroke="#63b8ff" points="463.41,-81.88 471.79,-75.39 461.2,-75.24 463.41,-81.88"/>
</a>
</g>
</g>
<!-- Node11 -->
<g id="Node000011" class="node">
<title>Node11</title>
<g id="a_Node000011"><a xlink:href="_comm_interface_8h.html" target="_top" xlink:title=" ">
<polygon fill="white" stroke="#666666" points="327.88,-295.5 236.12,-295.5 236.12,-276.25 327.88,-276.25 327.88,-295.5"/>
<text text-anchor="middle" x="282" y="-282" font-family="Helvetica,sans-Serif" font-size="10.00">CommInterface.h</text>
</a>
</g>
</g>
<!-- Node10&#45;&gt;Node11 -->
<g id="edge11_Node000010_Node000011" class="edge">
<title>Node10&#45;&gt;Node11</title>
<g id="a_edge11_Node000010_Node000011"><a xlink:title=" ">
<path fill="none" stroke="#63b8ff" d="M412.37,-331.09C386.88,-322.45 348.19,-309.32 319.57,-299.62"/>
<polygon fill="#63b8ff" stroke="#63b8ff" points="320.79,-296.34 310.2,-296.44 318.54,-302.97 320.79,-296.34"/>
</a>
</g>
</g>
<!-- Node13 -->
<g id="Node000013" class="node">
<title>Node13</title>
<g id="a_Node000013"><a xlink:href="_error_state_8h.html" target="_top" xlink:title=" ">
<polygon fill="white" stroke="#666666" points="612.25,-240.25 543.75,-240.25 543.75,-221 612.25,-221 612.25,-240.25"/>
<text text-anchor="middle" x="578" y="-226.75" font-family="Helvetica,sans-Serif" font-size="10.00">ErrorState.h</text>
</a>
</g>
</g>
<!-- Node10&#45;&gt;Node13 -->
<g id="edge47_Node000010_Node000013" class="edge">
<title>Node10&#45;&gt;Node13</title>
<g id="a_edge47_Node000010_Node000013"><a xlink:title=" ">
<path fill="none" stroke="#63b8ff" d="M450.37,-331.25C473.79,-312.97 527.68,-270.9 557.4,-247.71"/>
<polygon fill="#63b8ff" stroke="#63b8ff" points="559.55,-250.47 565.27,-241.56 555.24,-244.95 559.55,-250.47"/>
</a>
</g>
</g>
<!-- Node18 -->
<g id="Node000018" class="node">
<title>Node18</title>
<g id="a_Node000018"><a xlink:href="_service_cluster_8h.html" target="_top" xlink:title=" ">
<polygon fill="white" stroke="#666666" points="526,-240.25 438,-240.25 438,-221 526,-221 526,-240.25"/>
<text text-anchor="middle" x="482" y="-226.75" font-family="Helvetica,sans-Serif" font-size="10.00">ServiceCluster.h</text>
</a>
</g>
</g>
<!-- Node10&#45;&gt;Node18 -->
<g id="edge28_Node000010_Node000018" class="edge">
<title>Node10&#45;&gt;Node18</title>
<g id="a_edge28_Node000010_Node000018"><a xlink:title=" ">
<path fill="none" stroke="#63b8ff" d="M442.52,-331.25C449.42,-313.84 464.86,-274.87 474.26,-251.16"/>
<polygon fill="#63b8ff" stroke="#63b8ff" points="477.44,-252.62 477.87,-242.03 470.94,-250.04 477.44,-252.62"/>
</a>
</g>
</g>
<!-- Node20 -->
<g id="Node000020" class="node">
<title>Node20</title>
<g id="a_Node000020"><a xlink:href="_content__stack_8h.html" target="_top" xlink:title=" ">
<polygon fill="white" stroke="#666666" points="756,-129.75 668,-129.75 668,-110.5 756,-110.5 756,-129.75"/>
<text text-anchor="middle" x="712" y="-116.25" font-family="Helvetica,sans-Serif" font-size="10.00">Content_stack.h</text>
</a>
</g>
</g>
<!-- Node10&#45;&gt;Node20 -->
<g id="edge41_Node000010_Node000020" class="edge">
<title>Node10&#45;&gt;Node20</title>
<g id="a_edge41_Node000010_Node000020"><a xlink:title=" ">
<path fill="none" stroke="#63b8ff" d="M462.52,-331.08C499.22,-316.15 571.1,-283.66 621,-240.25 655.55,-210.2 685.6,-165.18 701.01,-139.96"/>
<polygon fill="#63b8ff" stroke="#63b8ff" points="703.95,-141.86 706.08,-131.48 697.94,-138.27 703.95,-141.86"/>
</a>
</g>
</g>
<!-- Node21 -->
<g id="Node000021" class="node">
<title>Node21</title>
<g id="a_Node000021"><a xlink:href="_frame_8h.html" target="_top" xlink:title=" ">
<polygon fill="white" stroke="#666666" points="216,-185 164,-185 164,-165.75 216,-165.75 216,-185"/>
<text text-anchor="middle" x="190" y="-171.5" font-family="Helvetica,sans-Serif" font-size="10.00">Frame.h</text>
</a>
</g>
</g>
<!-- Node10&#45;&gt;Node21 -->
<g id="edge37_Node000010_Node000021" class="edge">
<title>Node10&#45;&gt;Node21</title>
<g id="a_edge37_Node000010_Node000021"><a xlink:title=" ">
<path fill="none" stroke="#63b8ff" d="M390.9,-332.63C332.15,-323.08 239.06,-306.48 227,-295.5 198.93,-269.94 191.95,-223.52 190.34,-196.8"/>
<polygon fill="#63b8ff" stroke="#63b8ff" points="193.85,-196.82 189.97,-186.95 186.85,-197.08 193.85,-196.82"/>
</a>
</g>
</g>
<!-- Node22 -->
<g id="Node000022" class="node">
<title>Node22</title>
<g id="a_Node000022"><a xlink:href="_error_service_8h.html" target="_top" xlink:title=" ">
<polygon fill="white" stroke="#666666" points="868.12,-240.25 789.88,-240.25 789.88,-221 868.12,-221 868.12,-240.25"/>
<text text-anchor="middle" x="829" y="-226.75" font-family="Helvetica,sans-Serif" font-size="10.00">ErrorService.h</text>
</a>
</g>
</g>
<!-- Node10&#45;&gt;Node22 -->
<g id="edge42_Node000010_Node000022" class="edge">
<title>Node10&#45;&gt;Node22</title>
<g id="a_edge42_Node000010_Node000022"><a xlink:title=" ">
<path fill="none" stroke="#63b8ff" d="M486.88,-332.25C530.77,-324.54 597.35,-311.62 654,-295.5 704.81,-281.04 762.01,-259.03 796.78,-244.99"/>
<polygon fill="#63b8ff" stroke="#63b8ff" points="797.89,-248.32 805.84,-241.3 795.25,-241.83 797.89,-248.32"/>
</a>
</g>
</g>
<!-- Node11&#45;&gt;Node3 -->
<g id="edge12_Node000011_Node000003" class="edge">
<title>Node11&#45;&gt;Node3</title>
<g id="a_edge12_Node000011_Node000003"><a xlink:title=" ">
<path fill="none" stroke="#63b8ff" d="M281,-276.04C278.28,-247.42 273.95,-156.43 322,-110.5 340.91,-92.43 407.17,-79.64 455,-72.52"/>
<polygon fill="#63b8ff" stroke="#63b8ff" points="455.22,-76.02 464.61,-71.13 454.22,-69.09 455.22,-76.02"/>
</a>
</g>
</g>
<!-- Node12 -->
<g id="Node000012" class="node">
<title>Node12</title>
<g id="a_Node000012"><a xlink:href="_char_array_8h.html" target="_top" xlink:title=" ">
<polygon fill="white" stroke="#666666" points="269.5,-129.75 202.5,-129.75 202.5,-110.5 269.5,-110.5 269.5,-129.75"/>
<text text-anchor="middle" x="236" y="-116.25" font-family="Helvetica,sans-Serif" font-size="10.00">CharArray.h</text>
</a>
</g>
</g>
<!-- Node11&#45;&gt;Node12 -->
<g id="edge13_Node000011_Node000012" class="edge">
<title>Node11&#45;&gt;Node12</title>
<g id="a_edge13_Node000011_Node000012"><a xlink:title=" ">
<path fill="none" stroke="#63b8ff" d="M279.1,-276.02C276.19,-267.04 271.63,-252.72 268,-240.25 257.91,-205.57 247.22,-164.87 241.11,-141.14"/>
<polygon fill="#63b8ff" stroke="#63b8ff" points="244.53,-140.41 238.66,-131.59 237.75,-142.15 244.53,-140.41"/>
</a>
</g>
</g>
<!-- Node11&#45;&gt;Node13 -->
<g id="edge15_Node000011_Node000013" class="edge">
<title>Node11&#45;&gt;Node13</title>
<g id="a_edge15_Node000011_Node000013"><a xlink:title=" ">
<path fill="none" stroke="#63b8ff" d="M328.23,-277.06C376.71,-268.78 455.43,-255.13 532.43,-240.7"/>
<polygon fill="#63b8ff" stroke="#63b8ff" points="532.61,-244.23 541.79,-238.94 531.32,-237.35 532.61,-244.23"/>
</a>
</g>
</g>
<!-- Node12&#45;&gt;Node3 -->
<g id="edge14_Node000012_Node000003" class="edge">
<title>Node12&#45;&gt;Node3</title>
<g id="a_edge14_Node000012_Node000003"><a xlink:title=" ">
<path fill="none" stroke="#63b8ff" d="M269.77,-112.49C316.27,-103.35 400.42,-86.82 454.99,-76.1"/>
<polygon fill="#63b8ff" stroke="#63b8ff" points="455.53,-79.56 464.67,-74.19 454.18,-72.69 455.53,-79.56"/>
</a>
</g>
</g>
<!-- Node13&#45;&gt;Node3 -->
<g id="edge19_Node000013_Node000003" class="edge">
<title>Node13&#45;&gt;Node3</title>
<g id="a_edge19_Node000013_Node000003"><a xlink:title=" ">
<path fill="none" stroke="#63b8ff" d="M571.61,-220.72C565.51,-211.94 556.33,-197.99 550,-185 533.6,-151.34 519.99,-109.74 512.71,-85.66"/>
<polygon fill="#63b8ff" stroke="#63b8ff" points="516.13,-84.86 509.94,-76.26 509.41,-86.84 516.13,-84.86"/>
</a>
</g>
</g>
<!-- Node13&#45;&gt;Node4 -->
<g id="edge16_Node000013_Node000004" class="edge">
<title>Node13&#45;&gt;Node4</title>
<g id="a_edge16_Node000013_Node000004"><a xlink:title=" ">
<path fill="none" stroke="#63b8ff" d="M582.59,-220.8C593.72,-199.96 623.81,-146.74 659,-110.5 693.5,-74.98 741.9,-43.2 771.27,-25.46"/>
<polygon fill="#63b8ff" stroke="#63b8ff" points="773.05,-28.47 779.86,-20.35 769.48,-22.45 773.05,-28.47"/>
</a>
</g>
</g>
<!-- Node14 -->
<g id="Node000014" class="node">
<title>Node14</title>
<g id="a_Node000014"><a xlink:title=" ">
<polygon fill="#e0e0e0" stroke="#999999" points="1132.62,-74.5 1087.38,-74.5 1087.38,-55.25 1132.62,-55.25 1132.62,-74.5"/>
<text text-anchor="middle" x="1110" y="-61" font-family="Helvetica,sans-Serif" font-size="10.00">cstring</text>
</a>
</g>
</g>
<!-- Node13&#45;&gt;Node14 -->
<g id="edge17_Node000013_Node000014" class="edge">
<title>Node13&#45;&gt;Node14</title>
<g id="a_edge17_Node000013_Node000014"><a xlink:title=" ">
<path fill="none" stroke="#63b8ff" d="M612.74,-228.41C723.09,-224.31 1060.89,-209.83 1103,-185 1134.85,-166.22 1150.78,-145.86 1140,-110.5 1137.08,-100.94 1131.36,-91.57 1125.69,-83.9"/>
<polygon fill="#63b8ff" stroke="#63b8ff" points="1128.43,-81.73 1119.44,-76.11 1122.97,-86.11 1128.43,-81.73"/>
</a>
</g>
</g>
<!-- Node15 -->
<g id="Node000015" class="node">
<title>Node15</title>
<g id="a_Node000015"><a xlink:title=" ">
<polygon fill="#e0e0e0" stroke="#999999" points="816.12,-129.75 773.88,-129.75 773.88,-110.5 816.12,-110.5 816.12,-129.75"/>
<text text-anchor="middle" x="795" y="-116.25" font-family="Helvetica,sans-Serif" font-size="10.00">cstdio</text>
</a>
</g>
</g>
<!-- Node13&#45;&gt;Node15 -->
<g id="edge18_Node000013_Node000015" class="edge">
<title>Node13&#45;&gt;Node15</title>
<g id="a_edge18_Node000013_Node000015"><a xlink:title=" ">
<path fill="none" stroke="#63b8ff" d="M596.13,-220.56C633.94,-201.65 721.47,-157.89 766.75,-135.25"/>
<polygon fill="#63b8ff" stroke="#63b8ff" points="768.04,-138.52 775.42,-130.92 764.91,-132.26 768.04,-138.52"/>
</a>
</g>
</g>
<!-- Node16 -->
<g id="Node000016" class="node">
<title>Node16</title>
<g id="a_Node000016"><a xlink:href="_error_8h.html" target="_top" xlink:title=" ">
<polygon fill="white" stroke="#666666" points="866.25,-185 821.75,-185 821.75,-165.75 866.25,-165.75 866.25,-185"/>
<text text-anchor="middle" x="844" y="-171.5" font-family="Helvetica,sans-Serif" font-size="10.00">Error.h</text>
</a>
</g>
</g>
<!-- Node13&#45;&gt;Node16 -->
<g id="edge20_Node000013_Node000016" class="edge">
<title>Node13&#45;&gt;Node16</title>
<g id="a_edge20_Node000013_Node000016"><a xlink:title=" ">
<path fill="none" stroke="#63b8ff" d="M612.5,-222.72C663.89,-212.43 759.89,-193.21 810.62,-183.06"/>
<polygon fill="#63b8ff" stroke="#63b8ff" points="811,-186.55 820.12,-181.16 809.63,-179.69 811,-186.55"/>
</a>
</g>
</g>
<!-- Node16&#45;&gt;Node3 -->
<g id="edge24_Node000016_Node000003" class="edge">
<title>Node16&#45;&gt;Node3</title>
<g id="a_edge24_Node000016_Node000003"><a xlink:title=" ">
<path fill="none" stroke="#63b8ff" d="M844.17,-165.35C843.89,-151.31 841.14,-124.39 825,-110.5 786.13,-77.06 638.93,-68.63 559.15,-66.54"/>
<polygon fill="#63b8ff" stroke="#63b8ff" points="559.48,-63.05 549.4,-66.31 559.32,-70.05 559.48,-63.05"/>
</a>
</g>
</g>
<!-- Node16&#45;&gt;Node4 -->
<g id="edge21_Node000016_Node000004" class="edge">
<title>Node16&#45;&gt;Node4</title>
<g id="a_edge21_Node000016_Node000004"><a xlink:title=" ">
<path fill="none" stroke="#63b8ff" d="M845.44,-165.56C847.19,-153.11 849.39,-129.75 845,-110.5 838.14,-80.41 821.03,-48.82 809.21,-29.42"/>
<polygon fill="#63b8ff" stroke="#63b8ff" points="812.22,-27.63 803.94,-21.02 806.3,-31.35 812.22,-27.63"/>
</a>
</g>
</g>
<!-- Node16&#45;&gt;Node14 -->
<g id="edge22_Node000016_Node000014" class="edge">
<title>Node16&#45;&gt;Node14</title>
<g id="a_edge22_Node000016_Node000014"><a xlink:title=" ">
<path fill="none" stroke="#63b8ff" d="M860.91,-165.42C885.88,-152.38 934.28,-127.85 977,-110.5 1010.17,-97.03 1049.1,-84.32 1076.24,-75.93"/>
<polygon fill="#63b8ff" stroke="#63b8ff" points="1077.11,-79.32 1085.65,-73.05 1075.06,-72.63 1077.11,-79.32"/>
</a>
</g>
</g>
<!-- Node16&#45;&gt;Node15 -->
<g id="edge23_Node000016_Node000015" class="edge">
<title>Node16&#45;&gt;Node15</title>
<g id="a_edge23_Node000016_Node000015"><a xlink:title=" ">
<path fill="none" stroke="#63b8ff" d="M835.91,-165.58C829.14,-158.23 819.28,-147.51 810.94,-138.44"/>
<polygon fill="#63b8ff" stroke="#63b8ff" points="813.64,-136.21 804.29,-131.22 808.49,-140.95 813.64,-136.21"/>
</a>
</g>
</g>
<!-- Node17 -->
<g id="Node000017" class="node">
<title>Node17</title>
<g id="a_Node000017"><a xlink:href="_content_8h.html" target="_top" xlink:title=" ">
<polygon fill="white" stroke="#666666" points="1044.38,-129.75 985.62,-129.75 985.62,-110.5 1044.38,-110.5 1044.38,-129.75"/>
<text text-anchor="middle" x="1015" y="-116.25" font-family="Helvetica,sans-Serif" font-size="10.00">Content.h</text>
</a>
</g>
</g>
<!-- Node16&#45;&gt;Node17 -->
<g id="edge25_Node000016_Node000017" class="edge">
<title>Node16&#45;&gt;Node17</title>
<g id="a_edge25_Node000016_Node000017"><a xlink:title=" ">
<path fill="none" stroke="#63b8ff" d="M866.71,-167.3C894.3,-158.71 941.32,-144.07 975.03,-133.57"/>
<polygon fill="#63b8ff" stroke="#63b8ff" points="975.95,-136.95 984.45,-130.64 973.87,-130.27 975.95,-136.95"/>
</a>
</g>
</g>
<!-- Node17&#45;&gt;Node3 -->
<g id="edge26_Node000017_Node000003" class="edge">
<title>Node17&#45;&gt;Node3</title>
<g id="a_edge26_Node000017_Node000003"><a xlink:title=" ">
<path fill="none" stroke="#63b8ff" d="M985.38,-115.96C970.04,-114.32 951.02,-112.3 934,-110.5 798.88,-96.25 639.69,-79.67 559.21,-71.3"/>
<polygon fill="#63b8ff" stroke="#63b8ff" points="559.74,-67.83 549.43,-70.28 559.01,-74.8 559.74,-67.83"/>
</a>
</g>
</g>
<!-- Node17&#45;&gt;Node14 -->
<g id="edge27_Node000017_Node000014" class="edge">
<title>Node17&#45;&gt;Node14</title>
<g id="a_edge27_Node000017_Node000014"><a xlink:title=" ">
<path fill="none" stroke="#63b8ff" d="M1031.12,-110.09C1045.58,-101.98 1067.08,-89.93 1083.98,-80.46"/>
<polygon fill="#63b8ff" stroke="#63b8ff" points="1085.47,-83.64 1092.49,-75.69 1082.05,-77.53 1085.47,-83.64"/>
</a>
</g>
</g>
<!-- Node18&#45;&gt;Node3 -->
<g id="edge29_Node000018_Node000003" class="edge">
<title>Node18&#45;&gt;Node3</title>
<g id="a_edge29_Node000018_Node000003"><a xlink:title=" ">
<path fill="none" stroke="#63b8ff" d="M483.34,-220.82C487.21,-195.5 498.43,-122 503.91,-86.09"/>
<polygon fill="#63b8ff" stroke="#63b8ff" points="507.37,-86.63 505.42,-76.22 500.45,-85.58 507.37,-86.63"/>
</a>
</g>
</g>
<!-- Node19 -->
<g id="Node000019" class="node">
<title>Node19</title>
<g id="a_Node000019"><a xlink:href="_service_8h.html" target="_top" xlink:title=" ">
<polygon fill="white" stroke="#666666" points="948.62,-185 891.38,-185 891.38,-165.75 948.62,-165.75 948.62,-185"/>
<text text-anchor="middle" x="920" y="-171.5" font-family="Helvetica,sans-Serif" font-size="10.00">Service.h</text>
</a>
</g>
</g>
<!-- Node18&#45;&gt;Node19 -->
<g id="edge30_Node000018_Node000019" class="edge">
<title>Node18&#45;&gt;Node19</title>
<g id="a_edge30_Node000018_Node000019"><a xlink:title=" ">
<path fill="none" stroke="#63b8ff" d="M526.22,-222.24C529.19,-221.8 532.14,-221.38 535,-221 685.61,-200.79 724.69,-207.32 875,-185 876.54,-184.77 878.11,-184.53 879.69,-184.27"/>
<polygon fill="#63b8ff" stroke="#63b8ff" points="880.27,-187.72 889.52,-182.56 879.07,-180.83 880.27,-187.72"/>
</a>
</g>
</g>
<!-- Node19&#45;&gt;Node3 -->
<g id="edge31_Node000019_Node000003" class="edge">
<title>Node19&#45;&gt;Node3</title>
<g id="a_edge31_Node000019_Node000003"><a xlink:title=" ">
<path fill="none" stroke="#63b8ff" d="M912.76,-165.56C900.49,-151.29 874.07,-123.42 845,-110.5 795.01,-88.27 640.97,-74.88 559.22,-69.15"/>
<polygon fill="#63b8ff" stroke="#63b8ff" points="559.67,-65.67 549.45,-68.48 559.19,-72.66 559.67,-65.67"/>
</a>
</g>
</g>
<!-- Node19&#45;&gt;Node14 -->
<g id="edge32_Node000019_Node000014" class="edge">
<title>Node19&#45;&gt;Node14</title>
<g id="a_edge32_Node000019_Node000014"><a xlink:title=" ">
<path fill="none" stroke="#63b8ff" d="M948.89,-169.19C977.2,-163.12 1020.67,-151.07 1053,-129.75 1071.37,-117.64 1087.56,-98.17 1097.94,-83.9"/>
<polygon fill="#63b8ff" stroke="#63b8ff" points="1100.71,-86.06 1103.56,-75.86 1094.97,-82.05 1100.71,-86.06"/>
</a>
</g>
</g>
<!-- Node19&#45;&gt;Node17 -->
<g id="edge33_Node000019_Node000017" class="edge">
<title>Node19&#45;&gt;Node17</title>
<g id="a_edge33_Node000019_Node000017"><a xlink:title=" ">
<path fill="none" stroke="#63b8ff" d="M936.12,-165.34C950.58,-157.23 972.08,-145.18 988.98,-135.71"/>
<polygon fill="#63b8ff" stroke="#63b8ff" points="990.47,-138.89 997.49,-130.94 987.05,-132.78 990.47,-138.89"/>
</a>
</g>
</g>
<!-- Node19&#45;&gt;Node20 -->
<g id="edge34_Node000019_Node000020" class="edge">
<title>Node19&#45;&gt;Node20</title>
<g id="a_edge34_Node000019_Node000020"><a xlink:title=" ">
<path fill="none" stroke="#63b8ff" d="M891.08,-166.97C856.8,-158.19 799.21,-143.45 758.61,-133.06"/>
<polygon fill="#63b8ff" stroke="#63b8ff" points="759.66,-129.71 749.1,-130.62 757.92,-136.49 759.66,-129.71"/>
</a>
</g>
</g>
<!-- Node20&#45;&gt;Node3 -->
<g id="edge35_Node000020_Node000003" class="edge">
<title>Node20&#45;&gt;Node3</title>
<g id="a_edge35_Node000020_Node000003"><a xlink:title=" ">
<path fill="none" stroke="#63b8ff" d="M677.22,-110.09C642.91,-101.18 590.28,-87.51 552.63,-77.73"/>
<polygon fill="#63b8ff" stroke="#63b8ff" points="553.97,-74.46 543.41,-75.33 552.21,-81.23 553.97,-74.46"/>
</a>
</g>
</g>
<!-- Node20&#45;&gt;Node14 -->
<g id="edge36_Node000020_Node000014" class="edge">
<title>Node20&#45;&gt;Node14</title>
<g id="a_edge36_Node000020_Node000014"><a xlink:title=" ">
<path fill="none" stroke="#63b8ff" d="M756.23,-111.82C759.2,-111.36 762.14,-110.92 765,-110.5 878.69,-93.9 1013.93,-77.33 1075.91,-69.91"/>
<polygon fill="#63b8ff" stroke="#63b8ff" points="1075.93,-73.43 1085.45,-68.77 1075.1,-66.48 1075.93,-73.43"/>
</a>
</g>
</g>
<!-- Node21&#45;&gt;Node3 -->
<g id="edge38_Node000021_Node000003" class="edge">
<title>Node21&#45;&gt;Node3</title>
<g id="a_edge38_Node000021_Node000003"><a xlink:title=" ">
<path fill="none" stroke="#63b8ff" d="M187.32,-165.64C183.72,-152 179.25,-125.61 193,-110.5 227.13,-72.99 374.7,-66.36 454.8,-65.59"/>
<polygon fill="#63b8ff" stroke="#63b8ff" points="454.61,-69.09 464.59,-65.52 454.57,-62.09 454.61,-69.09"/>
</a>
</g>
</g>
<!-- Node21&#45;&gt;Node12 -->
<g id="edge40_Node000021_Node000012" class="edge">
<title>Node21&#45;&gt;Node12</title>
<g id="a_edge40_Node000021_Node000012"><a xlink:title=" ">
<path fill="none" stroke="#63b8ff" d="M197.6,-165.58C203.88,-158.3 213.01,-147.73 220.8,-138.73"/>
<polygon fill="#63b8ff" stroke="#63b8ff" points="223.36,-141.11 227.25,-131.25 218.06,-136.53 223.36,-141.11"/>
</a>
</g>
</g>
<!-- Node21&#45;&gt;Node17 -->
<g id="edge39_Node000021_Node000017" class="edge">
<title>Node21&#45;&gt;Node17</title>
<g id="a_edge39_Node000021_Node000017"><a xlink:title=" ">
<path fill="none" stroke="#63b8ff" d="M216.05,-172.69C335.14,-165.01 828.09,-133.19 974.09,-123.77"/>
<polygon fill="#63b8ff" stroke="#63b8ff" points="974.29,-127.26 984.05,-123.12 973.84,-120.27 974.29,-127.26"/>
</a>
</g>
</g>
<!-- Node22&#45;&gt;Node3 -->
<g id="edge43_Node000022_Node000003" class="edge">
<title>Node22&#45;&gt;Node3</title>
<g id="a_edge43_Node000022_Node000003"><a xlink:title=" ">
<path fill="none" stroke="#63b8ff" d="M797.47,-220.58C771.32,-212.6 733.46,-199.93 702,-185 636.11,-153.73 564.28,-105.93 529.03,-81.48"/>
<polygon fill="#63b8ff" stroke="#63b8ff" points="531.15,-78.68 520.95,-75.82 527.14,-84.42 531.15,-78.68"/>
</a>
</g>
</g>
<!-- Node22&#45;&gt;Node14 -->
<g id="edge44_Node000022_Node000014" class="edge">
<title>Node22&#45;&gt;Node14</title>
<g id="a_edge44_Node000022_Node000014"><a xlink:title=" ">
<path fill="none" stroke="#63b8ff" d="M868.55,-222.44C871.74,-221.93 874.92,-221.44 878,-221 949.27,-210.75 1152,-238.67 1200,-185 1222.07,-160.32 1217.45,-138.64 1200,-110.5 1187.8,-90.83 1164.07,-79.57 1144.03,-73.27"/>
<polygon fill="#63b8ff" stroke="#63b8ff" points="1145.11,-69.94 1134.54,-70.6 1143.22,-76.68 1145.11,-69.94"/>
</a>
</g>
</g>
<!-- Node22&#45;&gt;Node16 -->
<g id="edge46_Node000022_Node000016" class="edge">
<title>Node22&#45;&gt;Node16</title>
<g id="a_edge46_Node000022_Node000016"><a xlink:title=" ">
<path fill="none" stroke="#63b8ff" d="M831.48,-220.83C833.35,-214.17 836.01,-204.74 838.39,-196.28"/>
<polygon fill="#63b8ff" stroke="#63b8ff" points="841.72,-197.39 841.06,-186.82 834.98,-195.49 841.72,-197.39"/>
</a>
</g>
</g>
<!-- Node22&#45;&gt;Node19 -->
<g id="edge45_Node000022_Node000019" class="edge">
<title>Node22&#45;&gt;Node19</title>
<g id="a_edge45_Node000022_Node000019"><a xlink:title=" ">
<path fill="none" stroke="#63b8ff" d="M844.44,-220.59C858.16,-212.56 878.5,-200.66 894.62,-191.23"/>
<polygon fill="#63b8ff" stroke="#63b8ff" points="896.32,-194.29 903.18,-186.22 892.78,-188.25 896.32,-194.29"/>
</a>
</g>
</g>
<!-- Node23&#45;&gt;Node3 -->
<g id="edge52_Node000023_Node000003" class="edge">
<title>Node23&#45;&gt;Node3</title>
<g id="a_edge52_Node000023_Node000003"><a xlink:title=" ">
<path fill="none" stroke="#63b8ff" d="M260.24,-331.15C244.13,-323.61 222.53,-311.49 208,-295.5 152.11,-234.01 114.03,-159.69 181,-110.5 223.46,-79.32 373.94,-69.9 454.76,-67.08"/>
<polygon fill="#63b8ff" stroke="#63b8ff" points="454.77,-70.58 464.65,-66.75 454.54,-63.58 454.77,-70.58"/>
</a>
</g>
</g>
<!-- Node23&#45;&gt;Node11 -->
<g id="edge53_Node000023_Node000011" class="edge">
<title>Node23&#45;&gt;Node11</title>
<g id="a_edge53_Node000023_Node000011"><a xlink:title=" ">
<path fill="none" stroke="#63b8ff" d="M282,-331.33C282,-324.82 282,-315.67 282,-307.37"/>
<polygon fill="#63b8ff" stroke="#63b8ff" points="285.5,-307.37 282,-297.37 278.5,-307.37 285.5,-307.37"/>
</a>
</g>
</g>
<!-- Node24 -->
<g id="Node000024" class="node">
<title>Node24</title>
<g id="a_Node000024"><a xlink:href="mock_software_serial_8h.html" target="_top" xlink:title=" ">
<polygon fill="white" stroke="#666666" points="460,-185 348,-185 348,-165.75 460,-165.75 460,-185"/>
<text text-anchor="middle" x="404" y="-171.5" font-family="Helvetica,sans-Serif" font-size="10.00">mockSoftwareSerial.h</text>
</a>
</g>
</g>
<!-- Node23&#45;&gt;Node24 -->
<g id="edge49_Node000023_Node000024" class="edge">
<title>Node23&#45;&gt;Node24</title>
<g id="a_edge49_Node000023_Node000024"><a xlink:title=" ">
<path fill="none" stroke="#63b8ff" d="M295.89,-331.09C307.82,-322.84 324.95,-309.79 337,-295.5 363.55,-264.03 384.89,-220.49 395.88,-195.7"/>
<polygon fill="#63b8ff" stroke="#63b8ff" points="398.96,-197.42 399.71,-186.85 392.53,-194.64 398.96,-197.42"/>
</a>
</g>
</g>
<!-- Node24&#45;&gt;Node3 -->
<g id="edge50_Node000024_Node000003" class="edge">
<title>Node24&#45;&gt;Node3</title>
<g id="a_edge50_Node000024_Node000003"><a xlink:title=" ">
<path fill="none" stroke="#63b8ff" d="M412.43,-165.5C429.48,-147.53 468.33,-106.61 490.57,-83.19"/>
<polygon fill="#63b8ff" stroke="#63b8ff" points="493.07,-85.64 497.41,-75.97 487.99,-80.82 493.07,-85.64"/>
</a>
</g>
</g>
<!-- Node24&#45;&gt;Node20 -->
<g id="edge51_Node000024_Node000020" class="edge">
<title>Node24&#45;&gt;Node20</title>
<g id="a_edge51_Node000024_Node000020"><a xlink:title=" ">
<path fill="none" stroke="#63b8ff" d="M456.6,-165.28C512.21,-155.67 599.59,-140.56 656.34,-130.75"/>
<polygon fill="#63b8ff" stroke="#63b8ff" points="656.86,-134.21 666.12,-129.06 655.67,-127.31 656.86,-134.21"/>
</a>
</g>
</g>
<!-- Node25&#45;&gt;Node3 -->
<g id="edge55_Node000025_Node000003" class="edge">
<title>Node25&#45;&gt;Node3</title>
<g id="a_edge55_Node000025_Node000003"><a xlink:title=" ">
<path fill="none" stroke="#63b8ff" d="M83.83,-220.69C83.94,-198.16 87.64,-138.78 122,-110.5 171.57,-69.7 361.18,-64.93 454.5,-65.15"/>
<polygon fill="#63b8ff" stroke="#63b8ff" points="454.4,-68.65 464.41,-65.19 454.43,-61.65 454.4,-68.65"/>
</a>
</g>
</g>
<!-- Node25&#45;&gt;Node21 -->
<g id="edge56_Node000025_Node000021" class="edge">
<title>Node25&#45;&gt;Node21</title>
<g id="a_edge56_Node000025_Node000021"><a xlink:title=" ">
<path fill="none" stroke="#63b8ff" d="M101.98,-220.59C118.35,-212.37 142.79,-200.09 161.76,-190.56"/>
<polygon fill="#63b8ff" stroke="#63b8ff" points="163.21,-193.75 170.58,-186.13 160.07,-187.49 163.21,-193.75"/>
</a>
</g>
</g>
<!-- Node26&#45;&gt;Node3 -->
<g id="edge58_Node000026_Node000003" class="edge">
<title>Node26&#45;&gt;Node3</title>
<g id="a_edge58_Node000026_Node000003"><a xlink:title=" ">
<path fill="none" stroke="#63b8ff" d="M908.58,-220.56C859.24,-203.53 749.89,-165.27 659,-129.75 616.73,-113.23 568.53,-92.68 537.94,-79.42"/>
<polygon fill="#63b8ff" stroke="#63b8ff" points="539.47,-76.27 528.9,-75.49 536.68,-82.69 539.47,-76.27"/>
</a>
</g>
</g>
<!-- Node26&#45;&gt;Node14 -->
<g id="edge59_Node000026_Node000014" class="edge">
<title>Node26&#45;&gt;Node14</title>
<g id="a_edge59_Node000026_Node000014"><a xlink:title=" ">
<path fill="none" stroke="#63b8ff" d="M983.69,-226.76C1073.31,-220.98 1257.02,-206.62 1276,-185 1297.84,-160.11 1296.15,-136.78 1276,-110.5 1260.07,-89.73 1188.03,-76.47 1144.26,-70.18"/>
<polygon fill="#63b8ff" stroke="#63b8ff" points="1144.88,-66.73 1134.49,-68.83 1143.92,-73.67 1144.88,-66.73"/>
</a>
</g>
</g>
<!-- Node26&#45;&gt;Node19 -->
<g id="edge60_Node000026_Node000019" class="edge">
<title>Node26&#45;&gt;Node19</title>
<g id="a_edge60_Node000026_Node000019"><a xlink:title=" ">
<path fill="none" stroke="#63b8ff" d="M932.52,-220.83C930.65,-214.17 927.99,-204.74 925.61,-196.28"/>
<polygon fill="#63b8ff" stroke="#63b8ff" points="929.02,-195.49 922.94,-186.82 922.28,-197.39 929.02,-195.49"/>
</a>
</g>
</g>
<!-- Node27 -->
<g id="Node000027" class="node">
<title>Node27</title>
<g id="a_Node000027"><a xlink:href="_message_8h.html" target="_top" xlink:title=" ">
<polygon fill="white" stroke="#666666" points="1094,-185 1030,-185 1030,-165.75 1094,-165.75 1094,-185"/>
<text text-anchor="middle" x="1062" y="-171.5" font-family="Helvetica,sans-Serif" font-size="10.00">Message.h</text>
</a>
</g>
</g>
<!-- Node26&#45;&gt;Node27 -->
<g id="edge61_Node000026_Node000027" class="edge">
<title>Node26&#45;&gt;Node27</title>
<g id="a_edge61_Node000026_Node000027"><a xlink:title=" ">
<path fill="none" stroke="#63b8ff" d="M956.54,-220.59C976.61,-212.18 1006.8,-199.52 1029.75,-189.9"/>
<polygon fill="#63b8ff" stroke="#63b8ff" points="1031.09,-193.13 1038.95,-186.04 1028.38,-186.68 1031.09,-193.13"/>
</a>
</g>
</g>
<!-- Node27&#45;&gt;Node3 -->
<g id="edge65_Node000027_Node000003" class="edge">
<title>Node27&#45;&gt;Node3</title>
<g id="a_edge65_Node000027_Node000003"><a xlink:title=" ">
<path fill="none" stroke="#63b8ff" d="M1063.82,-165.41C1066.08,-151.45 1067.99,-124.64 1053,-110.5 1017.53,-77.05 688.55,-68.55 559.04,-66.5"/>
<polygon fill="#63b8ff" stroke="#63b8ff" points="559.43,-63 549.38,-66.35 559.33,-70 559.43,-63"/>
</a>
</g>
</g>
<!-- Node27&#45;&gt;Node4 -->
<g id="edge62_Node000027_Node000004" class="edge">
<title>Node27&#45;&gt;Node4</title>
<g id="a_edge62_Node000027_Node000004"><a xlink:title=" ">
<path fill="none" stroke="#63b8ff" d="M1092.07,-165.36C1109.25,-158.52 1129.43,-147.24 1140,-129.75 1157.13,-101.4 1163.87,-80.13 1142,-55.25 1121.98,-32.48 921.1,-17.97 835.41,-12.78"/>
<polygon fill="#63b8ff" stroke="#63b8ff" points="835.81,-9.3 825.62,-12.2 835.39,-16.28 835.81,-9.3"/>
</a>
</g>
</g>
<!-- Node27&#45;&gt;Node14 -->
<g id="edge63_Node000027_Node000014" class="edge">
<title>Node27&#45;&gt;Node14</title>
<g id="a_edge63_Node000027_Node000014"><a xlink:title=" ">
<path fill="none" stroke="#63b8ff" d="M1083.44,-165.37C1097.79,-158.07 1115.53,-146.27 1124,-129.75 1131.21,-115.68 1126.43,-98.03 1120.58,-84.84"/>
<polygon fill="#63b8ff" stroke="#63b8ff" points="1123.73,-83.32 1116.11,-75.96 1117.48,-86.47 1123.73,-83.32"/>
</a>
</g>
</g>
<!-- Node27&#45;&gt;Node15 -->
<g id="edge64_Node000027_Node000015" class="edge">
<title>Node27&#45;&gt;Node15</title>
<g id="a_edge64_Node000027_Node000015"><a xlink:title=" ">
<path fill="none" stroke="#63b8ff" d="M1029.53,-167.9C978.21,-157.66 878.94,-137.87 827.56,-127.62"/>
<polygon fill="#63b8ff" stroke="#63b8ff" points="828.45,-124.23 817.96,-125.7 827.08,-131.09 828.45,-124.23"/>
</a>
</g>
</g>
<!-- Node27&#45;&gt;Node17 -->
<g id="edge66_Node000027_Node000017" class="edge">
<title>Node27&#45;&gt;Node17</title>
<g id="a_edge66_Node000027_Node000017"><a xlink:title=" ">
<path fill="none" stroke="#63b8ff" d="M1054.24,-165.58C1047.81,-158.3 1038.49,-147.73 1030.54,-138.73"/>
<polygon fill="#63b8ff" stroke="#63b8ff" points="1033.17,-136.43 1023.93,-131.24 1027.92,-141.06 1033.17,-136.43"/>
</a>
</g>
</g>
</g>
</svg>
