<?xml version="1.0" encoding="UTF-8" standalone="no"?>
<!DOCTYPE svg PUBLIC "-//W3C//DTD SVG 1.1//EN"
 "http://www.w3.org/Graphics/SVG/1.1/DTD/svg11.dtd">
<!-- Generated by graphviz version 12.1.2 (20240928.0832)
 -->
<!-- Title: /Users/felixschulke/Developement/Arduino/Modbus_RTU/Modbus_RTU/Modbus&#45;RTU/lib/Service/ServiceCluster.h Pages: 1 -->
<svg width="639pt" height="349pt"
 viewBox="0.00 0.00 639.37 348.50" xmlns="http://www.w3.org/2000/svg" xmlns:xlink="http://www.w3.org/1999/xlink">
<g id="graph0" class="graph" transform="scale(1 1) rotate(0) translate(4 344.5)">
<title>/Users/felixschulke/Developement/Arduino/Modbus_RTU/Modbus_RTU/Modbus&#45;RTU/lib/Service/ServiceCluster.h</title>
<!-- Node1 -->
<g id="Node000001" class="node">
<title>Node1</title>
<g id="a_Node000001"><a xlink:title=" ">
<polygon fill="#999999" stroke="#666666" points="350.38,-340.5 206.88,-340.5 206.88,-276.25 350.38,-276.25 350.38,-340.5"/>
<text text-anchor="start" x="214.88" y="-327" font-family="Helvetica,sans-Serif" font-size="10.00">/Users/felixschulke</text>
<text text-anchor="start" x="214.88" y="-315.75" font-family="Helvetica,sans-Serif" font-size="10.00">/Developement/Arduino</text>
<text text-anchor="start" x="214.88" y="-304.5" font-family="Helvetica,sans-Serif" font-size="10.00">/Modbus_RTU/Modbus_RTU</text>
<text text-anchor="start" x="214.88" y="-293.25" font-family="Helvetica,sans-Serif" font-size="10.00">/Modbus&#45;RTU/lib/Service</text>
<text text-anchor="middle" x="278.62" y="-282" font-family="Helvetica,sans-Serif" font-size="10.00">/ServiceCluster.h</text>
</a>
</g>
</g>
<!-- Node2 -->
<g id="Node000002" class="node">
<title>Node2</title>
<g id="a_Node000002"><a xlink:href="mock_arduino_8h.html" target="_top" xlink:title=" ">
<polygon fill="white" stroke="#666666" points="226.25,-74.5 145,-74.5 145,-55.25 226.25,-55.25 226.25,-74.5"/>
<text text-anchor="middle" x="185.62" y="-61" font-family="Helvetica,sans-Serif" font-size="10.00">mockArduino.h</text>
</a>
</g>
</g>
<!-- Node1&#45;&gt;Node2 -->
<g id="edge1_Node000001_Node000002" class="edge">
<title>Node1&#45;&gt;Node2</title>
<g id="a_edge1_Node000001_Node000002"><a xlink:title=" ">
<path fill="none" stroke="#63b8ff" d="M207.57,-275.89C167.8,-255.11 120.05,-224.43 88.62,-185 72.35,-164.58 73.14,-155.47 68.62,-129.75 67.15,-121.32 63.77,-117.55 68.62,-110.5 83.26,-89.25 109.48,-78.11 133.39,-72.28"/>
<polygon fill="#63b8ff" stroke="#63b8ff" points="134,-75.73 143.05,-70.2 132.53,-68.88 134,-75.73"/>
</a>
</g>
</g>
<!-- Node9 -->
<g id="Node000009" class="node">
<title>Node9</title>
<g id="a_Node000009"><a xlink:href="_service_8h.html" target="_top" xlink:title=" ">
<polygon fill="white" stroke="#666666" points="498.25,-185 441,-185 441,-165.75 498.25,-165.75 498.25,-185"/>
<text text-anchor="middle" x="469.62" y="-171.5" font-family="Helvetica,sans-Serif" font-size="10.00">Service.h</text>
</a>
</g>
</g>
<!-- Node1&#45;&gt;Node9 -->
<g id="edge8_Node000001_Node000009" class="edge">
<title>Node1&#45;&gt;Node9</title>
<g id="a_edge8_Node000001_Node000009"><a xlink:title=" ">
<path fill="none" stroke="#63b8ff" d="M336.29,-275.83C354.68,-265.14 374.86,-252.73 392.62,-240.25 413.81,-225.37 436.43,-206.16 451.63,-192.71"/>
<polygon fill="#63b8ff" stroke="#63b8ff" points="453.81,-195.46 458.93,-186.18 449.15,-190.24 453.81,-195.46"/>
</a>
</g>
</g>
<!-- Node13 -->
<g id="Node000013" class="node">
<title>Node13</title>
<g id="a_Node000013"><a xlink:href="_error_state_8h.html" target="_top" xlink:title=" ">
<polygon fill="white" stroke="#666666" points="383.88,-240.25 315.38,-240.25 315.38,-221 383.88,-221 383.88,-240.25"/>
<text text-anchor="middle" x="349.62" y="-226.75" font-family="Helvetica,sans-Serif" font-size="10.00">ErrorState.h</text>
</a>
</g>
</g>
<!-- Node1&#45;&gt;Node13 -->
<g id="edge17_Node000001_Node000013" class="edge">
<title>Node1&#45;&gt;Node13</title>
<g id="a_edge17_Node000001_Node000013"><a xlink:title=" ">
<path fill="none" stroke="#63b8ff" d="M307.91,-276.13C316.68,-266.77 325.98,-256.86 333.56,-248.77"/>
<polygon fill="#63b8ff" stroke="#63b8ff" points="335.95,-251.33 340.24,-241.64 330.85,-246.54 335.95,-251.33"/>
</a>
</g>
</g>
<!-- Node16 -->
<g id="Node000016" class="node">
<title>Node16</title>
<g id="a_Node000016"><a xlink:href="_frame_8h.html" target="_top" xlink:title=" ">
<polygon fill="white" stroke="#666666" points="149.62,-185 97.62,-185 97.62,-165.75 149.62,-165.75 149.62,-185"/>
<text text-anchor="middle" x="123.62" y="-171.5" font-family="Helvetica,sans-Serif" font-size="10.00">Frame.h</text>
</a>
</g>
</g>
<!-- Node1&#45;&gt;Node16 -->
<g id="edge28_Node000001_Node000016" class="edge">
<title>Node1&#45;&gt;Node16</title>
<g id="a_edge28_Node000001_Node000016"><a xlink:title=" ">
<path fill="none" stroke="#63b8ff" d="M241.5,-276C210.5,-249.8 167.56,-213.51 142.98,-192.73"/>
<polygon fill="#63b8ff" stroke="#63b8ff" points="145.28,-190.1 135.39,-186.31 140.76,-195.44 145.28,-190.1"/>
</a>
</g>
</g>
<!-- Node3 -->
<g id="Node000003" class="node">
<title>Node3</title>
<g id="a_Node000003"><a xlink:title=" ">
<polygon fill="#e0e0e0" stroke="#999999" points="380.38,-19.25 326.88,-19.25 326.88,0 380.38,0 380.38,-19.25"/>
<text text-anchor="middle" x="353.62" y="-5.75" font-family="Helvetica,sans-Serif" font-size="10.00">iostream</text>
</a>
</g>
</g>
<!-- Node2&#45;&gt;Node3 -->
<g id="edge2_Node000002_Node000003" class="edge">
<title>Node2&#45;&gt;Node3</title>
<g id="a_edge2_Node000002_Node000003"><a xlink:title=" ">
<path fill="none" stroke="#63b8ff" d="M214.12,-54.84C242.05,-45.99 284.8,-32.44 315.62,-22.67"/>
<polygon fill="#63b8ff" stroke="#63b8ff" points="316.46,-26.08 324.94,-19.72 314.35,-19.4 316.46,-26.08"/>
</a>
</g>
</g>
<!-- Node4 -->
<g id="Node000004" class="node">
<title>Node4</title>
<g id="a_Node000004"><a xlink:title=" ">
<polygon fill="#e0e0e0" stroke="#999999" points="239.62,-19.25 199.62,-19.25 199.62,0 239.62,0 239.62,-19.25"/>
<text text-anchor="middle" x="219.62" y="-5.75" font-family="Helvetica,sans-Serif" font-size="10.00">string</text>
</a>
</g>
</g>
<!-- Node2&#45;&gt;Node4 -->
<g id="edge3_Node000002_Node000004" class="edge">
<title>Node2&#45;&gt;Node4</title>
<g id="a_edge3_Node000002_Node000004"><a xlink:title=" ">
<path fill="none" stroke="#63b8ff" d="M191.24,-55.08C195.74,-48.03 202.21,-37.9 207.84,-29.08"/>
<polygon fill="#63b8ff" stroke="#63b8ff" points="210.64,-31.2 213.07,-20.88 204.74,-27.43 210.64,-31.2"/>
</a>
</g>
</g>
<!-- Node5 -->
<g id="Node000005" class="node">
<title>Node5</title>
<g id="a_Node000005"><a xlink:title=" ">
<polygon fill="#e0e0e0" stroke="#999999" points="309.25,-19.25 258,-19.25 258,0 309.25,0 309.25,-19.25"/>
<text text-anchor="middle" x="283.62" y="-5.75" font-family="Helvetica,sans-Serif" font-size="10.00">sstream</text>
</a>
</g>
</g>
<!-- Node2&#45;&gt;Node5 -->
<g id="edge4_Node000002_Node000005" class="edge">
<title>Node2&#45;&gt;Node5</title>
<g id="a_edge4_Node000002_Node000005"><a xlink:title=" ">
<path fill="none" stroke="#63b8ff" d="M202.25,-54.84C217.31,-46.66 239.77,-34.46 257.28,-24.94"/>
<polygon fill="#63b8ff" stroke="#63b8ff" points="258.47,-28.27 265.59,-20.43 255.13,-22.12 258.47,-28.27"/>
</a>
</g>
</g>
<!-- Node6 -->
<g id="Node000006" class="node">
<title>Node6</title>
<g id="a_Node000006"><a xlink:title=" ">
<polygon fill="#e0e0e0" stroke="#999999" points="45.25,-19.25 0,-19.25 0,0 45.25,0 45.25,-19.25"/>
<text text-anchor="middle" x="22.62" y="-5.75" font-family="Helvetica,sans-Serif" font-size="10.00">chrono</text>
</a>
</g>
</g>
<!-- Node2&#45;&gt;Node6 -->
<g id="edge5_Node000002_Node000006" class="edge">
<title>Node2&#45;&gt;Node6</title>
<g id="a_edge5_Node000002_Node000006"><a xlink:title=" ">
<path fill="none" stroke="#63b8ff" d="M157.97,-54.84C129.95,-45.69 86.54,-31.5 56.47,-21.68"/>
<polygon fill="#63b8ff" stroke="#63b8ff" points="57.69,-18.4 47.1,-18.62 55.52,-25.05 57.69,-18.4"/>
</a>
</g>
</g>
<!-- Node7 -->
<g id="Node000007" class="node">
<title>Node7</title>
<g id="a_Node000007"><a xlink:title=" ">
<polygon fill="#e0e0e0" stroke="#999999" points="105.75,-19.25 63.5,-19.25 63.5,0 105.75,0 105.75,-19.25"/>
<text text-anchor="middle" x="84.62" y="-5.75" font-family="Helvetica,sans-Serif" font-size="10.00">queue</text>
</a>
</g>
</g>
<!-- Node2&#45;&gt;Node7 -->
<g id="edge6_Node000002_Node000007" class="edge">
<title>Node2&#45;&gt;Node7</title>
<g id="a_edge6_Node000002_Node000007"><a xlink:title=" ">
<path fill="none" stroke="#63b8ff" d="M168.49,-54.84C152.97,-46.66 129.82,-34.46 111.78,-24.94"/>
<polygon fill="#63b8ff" stroke="#63b8ff" points="113.66,-21.98 103.18,-20.41 110.39,-28.17 113.66,-21.98"/>
</a>
</g>
</g>
<!-- Node8 -->
<g id="Node000008" class="node">
<title>Node8</title>
<g id="a_Node000008"><a xlink:title=" ">
<polygon fill="#e0e0e0" stroke="#999999" points="181.62,-19.25 123.62,-19.25 123.62,0 181.62,0 181.62,-19.25"/>
<text text-anchor="middle" x="152.62" y="-5.75" font-family="Helvetica,sans-Serif" font-size="10.00">functional</text>
</a>
</g>
</g>
<!-- Node2&#45;&gt;Node8 -->
<g id="edge7_Node000002_Node000008" class="edge">
<title>Node2&#45;&gt;Node8</title>
<g id="a_edge7_Node000002_Node000008"><a xlink:title=" ">
<path fill="none" stroke="#63b8ff" d="M180.18,-55.08C175.85,-48.11 169.66,-38.12 164.24,-29.37"/>
<polygon fill="#63b8ff" stroke="#63b8ff" points="167.23,-27.55 158.99,-20.9 161.28,-31.24 167.23,-27.55"/>
</a>
</g>
</g>
<!-- Node9&#45;&gt;Node2 -->
<g id="edge9_Node000009_Node000002" class="edge">
<title>Node9&#45;&gt;Node2</title>
<g id="a_edge9_Node000009_Node000002"><a xlink:title=" ">
<path fill="none" stroke="#63b8ff" d="M469.75,-165.41C469.41,-151.43 466.57,-124.6 450.62,-110.5 419.86,-83.29 306.07,-72.4 238,-68.25"/>
<polygon fill="#63b8ff" stroke="#63b8ff" points="238.37,-64.77 228.19,-67.68 237.97,-71.75 238.37,-64.77"/>
</a>
</g>
</g>
<!-- Node10 -->
<g id="Node000010" class="node">
<title>Node10</title>
<g id="a_Node000010"><a xlink:title=" ">
<polygon fill="#e0e0e0" stroke="#999999" points="564.25,-74.5 519,-74.5 519,-55.25 564.25,-55.25 564.25,-74.5"/>
<text text-anchor="middle" x="541.62" y="-61" font-family="Helvetica,sans-Serif" font-size="10.00">cstring</text>
</a>
</g>
</g>
<!-- Node9&#45;&gt;Node10 -->
<g id="edge10_Node000009_Node000010" class="edge">
<title>Node9&#45;&gt;Node10</title>
<g id="a_edge10_Node000009_Node000010"><a xlink:title=" ">
<path fill="none" stroke="#63b8ff" d="M498.56,-173.14C528.23,-170.15 572.99,-160.45 594.62,-129.75 607,-112.2 587,-93.44 568.14,-80.82"/>
<polygon fill="#63b8ff" stroke="#63b8ff" points="570.17,-77.96 559.83,-75.62 566.45,-83.9 570.17,-77.96"/>
</a>
</g>
</g>
<!-- Node11 -->
<g id="Node000011" class="node">
<title>Node11</title>
<g id="a_Node000011"><a xlink:href="_content_8h.html" target="_top" xlink:title=" ">
<polygon fill="white" stroke="#666666" points="344,-129.75 285.25,-129.75 285.25,-110.5 344,-110.5 344,-129.75"/>
<text text-anchor="middle" x="314.62" y="-116.25" font-family="Helvetica,sans-Serif" font-size="10.00">Content.h</text>
</a>
</g>
</g>
<!-- Node9&#45;&gt;Node11 -->
<g id="edge11_Node000009_Node000011" class="edge">
<title>Node9&#45;&gt;Node11</title>
<g id="a_edge11_Node000009_Node000011"><a xlink:title=" ">
<path fill="none" stroke="#63b8ff" d="M443.33,-165.34C418.17,-156.7 379.97,-143.57 351.72,-133.87"/>
<polygon fill="#63b8ff" stroke="#63b8ff" points="353.07,-130.63 342.48,-130.69 350.8,-137.25 353.07,-130.63"/>
</a>
</g>
</g>
<!-- Node12 -->
<g id="Node000012" class="node">
<title>Node12</title>
<g id="a_Node000012"><a xlink:href="_content__stack_8h.html" target="_top" xlink:title=" ">
<polygon fill="white" stroke="#666666" points="585.62,-129.75 497.62,-129.75 497.62,-110.5 585.62,-110.5 585.62,-129.75"/>
<text text-anchor="middle" x="541.62" y="-116.25" font-family="Helvetica,sans-Serif" font-size="10.00">Content_stack.h</text>
</a>
</g>
</g>
<!-- Node9&#45;&gt;Node12 -->
<g id="edge14_Node000009_Node000012" class="edge">
<title>Node9&#45;&gt;Node12</title>
<g id="a_edge14_Node000009_Node000012"><a xlink:title=" ">
<path fill="none" stroke="#63b8ff" d="M481.84,-165.34C492.45,-157.49 508.06,-145.95 520.67,-136.62"/>
<polygon fill="#63b8ff" stroke="#63b8ff" points="522.42,-139.69 528.37,-130.92 518.25,-134.06 522.42,-139.69"/>
</a>
</g>
</g>
<!-- Node11&#45;&gt;Node2 -->
<g id="edge12_Node000011_Node000002" class="edge">
<title>Node11&#45;&gt;Node2</title>
<g id="a_edge12_Node000011_Node000002"><a xlink:title=" ">
<path fill="none" stroke="#63b8ff" d="M292.74,-110.09C272.26,-101.64 241.41,-88.9 218.07,-79.27"/>
<polygon fill="#63b8ff" stroke="#63b8ff" points="219.59,-76.11 209.01,-75.53 216.92,-82.58 219.59,-76.11"/>
</a>
</g>
</g>
<!-- Node11&#45;&gt;Node10 -->
<g id="edge13_Node000011_Node000010" class="edge">
<title>Node11&#45;&gt;Node10</title>
<g id="a_edge13_Node000011_Node000010"><a xlink:title=" ">
<path fill="none" stroke="#63b8ff" d="M344.3,-112.16C386.44,-102.28 463.42,-84.22 507.75,-73.82"/>
<polygon fill="#63b8ff" stroke="#63b8ff" points="508.39,-77.27 517.33,-71.57 506.79,-70.45 508.39,-77.27"/>
</a>
</g>
</g>
<!-- Node12&#45;&gt;Node2 -->
<g id="edge15_Node000012_Node000002" class="edge">
<title>Node12&#45;&gt;Node2</title>
<g id="a_edge15_Node000012_Node000002"><a xlink:title=" ">
<path fill="none" stroke="#63b8ff" d="M497.26,-112.49C431.4,-102.64 308.03,-84.18 237.89,-73.69"/>
<polygon fill="#63b8ff" stroke="#63b8ff" points="238.59,-70.26 228.18,-72.24 237.56,-77.18 238.59,-70.26"/>
</a>
</g>
</g>
<!-- Node12&#45;&gt;Node10 -->
<g id="edge16_Node000012_Node000010" class="edge">
<title>Node12&#45;&gt;Node10</title>
<g id="a_edge16_Node000012_Node000010"><a xlink:title=" ">
<path fill="none" stroke="#63b8ff" d="M541.62,-110.33C541.62,-103.82 541.62,-94.67 541.62,-86.37"/>
<polygon fill="#63b8ff" stroke="#63b8ff" points="545.13,-86.37 541.63,-76.37 538.13,-86.37 545.13,-86.37"/>
</a>
</g>
</g>
<!-- Node13&#45;&gt;Node2 -->
<g id="edge21_Node000013_Node000002" class="edge">
<title>Node13&#45;&gt;Node2</title>
<g id="a_edge21_Node000013_Node000002"><a xlink:title=" ">
<path fill="none" stroke="#63b8ff" d="M333.7,-220.7C307.06,-205.13 253,-170.72 218.62,-129.75 207.46,-116.44 198.67,-98.71 192.99,-85.31"/>
<polygon fill="#63b8ff" stroke="#63b8ff" points="196.34,-84.26 189.37,-76.28 189.84,-86.86 196.34,-84.26"/>
</a>
</g>
</g>
<!-- Node13&#45;&gt;Node3 -->
<g id="edge18_Node000013_Node000003" class="edge">
<title>Node13&#45;&gt;Node3</title>
<g id="a_edge18_Node000013_Node000003"><a xlink:title=" ">
<path fill="none" stroke="#63b8ff" d="M384.06,-229.88C431.31,-228.75 517.46,-221.32 579.62,-185 607.46,-168.74 615.5,-160.01 626.62,-129.75 662.35,-32.62 475.39,-14.55 392.07,-11.29"/>
<polygon fill="#63b8ff" stroke="#63b8ff" points="392.43,-7.8 382.32,-10.97 392.19,-14.8 392.43,-7.8"/>
</a>
</g>
</g>
<!-- Node13&#45;&gt;Node10 -->
<g id="edge19_Node000013_Node000010" class="edge">
<title>Node13&#45;&gt;Node10</title>
<g id="a_edge19_Node000013_Node000010"><a xlink:title=" ">
<path fill="none" stroke="#63b8ff" d="M384.22,-228.85C443.72,-225.37 563.54,-208.44 610.62,-129.75 622.98,-109.1 598.22,-91.05 575,-79.45"/>
<polygon fill="#63b8ff" stroke="#63b8ff" points="576.49,-76.29 565.95,-75.23 573.53,-82.63 576.49,-76.29"/>
</a>
</g>
</g>
<!-- Node14 -->
<g id="Node000014" class="node">
<title>Node14</title>
<g id="a_Node000014"><a xlink:title=" ">
<polygon fill="#e0e0e0" stroke="#999999" points="441.75,-129.75 399.5,-129.75 399.5,-110.5 441.75,-110.5 441.75,-129.75"/>
<text text-anchor="middle" x="420.62" y="-116.25" font-family="Helvetica,sans-Serif" font-size="10.00">cstdio</text>
</a>
</g>
</g>
<!-- Node13&#45;&gt;Node14 -->
<g id="edge20_Node000013_Node000014" class="edge">
<title>Node13&#45;&gt;Node14</title>
<g id="a_edge20_Node000013_Node000014"><a xlink:title=" ">
<path fill="none" stroke="#63b8ff" d="M355.44,-220.75C366.98,-203.1 393.03,-163.3 408.47,-139.7"/>
<polygon fill="#63b8ff" stroke="#63b8ff" points="411.36,-141.68 413.91,-131.39 405.5,-137.84 411.36,-141.68"/>
</a>
</g>
</g>
<!-- Node15 -->
<g id="Node000015" class="node">
<title>Node15</title>
<g id="a_Node000015"><a xlink:href="_error_8h.html" target="_top" xlink:title=" ">
<polygon fill="white" stroke="#666666" points="348.88,-185 304.38,-185 304.38,-165.75 348.88,-165.75 348.88,-185"/>
<text text-anchor="middle" x="326.62" y="-171.5" font-family="Helvetica,sans-Serif" font-size="10.00">Error.h</text>
</a>
</g>
</g>
<!-- Node13&#45;&gt;Node15 -->
<g id="edge22_Node000013_Node000015" class="edge">
<title>Node13&#45;&gt;Node15</title>
<g id="a_edge22_Node000013_Node000015"><a xlink:title=" ">
<path fill="none" stroke="#63b8ff" d="M345.83,-220.83C342.88,-214.01 338.69,-204.31 334.97,-195.7"/>
<polygon fill="#63b8ff" stroke="#63b8ff" points="338.28,-194.54 331.11,-186.75 331.86,-197.32 338.28,-194.54"/>
</a>
</g>
</g>
<!-- Node15&#45;&gt;Node2 -->
<g id="edge26_Node000015_Node000002" class="edge">
<title>Node15&#45;&gt;Node2</title>
<g id="a_edge26_Node000015_Node000002"><a xlink:title=" ">
<path fill="none" stroke="#63b8ff" d="M305.31,-165.37C287.8,-157.42 262.83,-144.76 243.62,-129.75 226.34,-116.24 209.85,-97.28 198.9,-83.53"/>
<polygon fill="#63b8ff" stroke="#63b8ff" points="201.8,-81.55 192.9,-75.79 196.26,-85.84 201.8,-81.55"/>
</a>
</g>
</g>
<!-- Node15&#45;&gt;Node3 -->
<g id="edge23_Node000015_Node000003" class="edge">
<title>Node15&#45;&gt;Node3</title>
<g id="a_edge23_Node000015_Node000003"><a xlink:title=" ">
<path fill="none" stroke="#63b8ff" d="M310.71,-165.33C298.85,-157.59 283.57,-145.25 276.62,-129.75 273.13,-121.94 273.87,-118.6 276.62,-110.5 288.15,-76.69 316.26,-45.4 335.14,-27.16"/>
<polygon fill="#63b8ff" stroke="#63b8ff" points="337.29,-29.94 342.2,-20.55 332.51,-24.83 337.29,-29.94"/>
</a>
</g>
</g>
<!-- Node15&#45;&gt;Node10 -->
<g id="edge24_Node000015_Node000010" class="edge">
<title>Node15&#45;&gt;Node10</title>
<g id="a_edge24_Node000015_Node000010"><a xlink:title=" ">
<path fill="none" stroke="#63b8ff" d="M333.07,-165.56C343.59,-151.79 365.79,-125.25 390.62,-110.5 427.47,-88.62 475.8,-76.8 507.75,-70.93"/>
<polygon fill="#63b8ff" stroke="#63b8ff" points="507.98,-74.44 517.23,-69.29 506.78,-67.55 507.98,-74.44"/>
</a>
</g>
</g>
<!-- Node15&#45;&gt;Node11 -->
<g id="edge27_Node000015_Node000011" class="edge">
<title>Node15&#45;&gt;Node11</title>
<g id="a_edge27_Node000015_Node000011"><a xlink:title=" ">
<path fill="none" stroke="#63b8ff" d="M324.64,-165.58C323.16,-158.99 321.07,-149.71 319.18,-141.32"/>
<polygon fill="#63b8ff" stroke="#63b8ff" points="322.6,-140.57 316.98,-131.59 315.77,-142.11 322.6,-140.57"/>
</a>
</g>
</g>
<!-- Node15&#45;&gt;Node14 -->
<g id="edge25_Node000015_Node000014" class="edge">
<title>Node15&#45;&gt;Node14</title>
<g id="a_edge25_Node000015_Node000014"><a xlink:title=" ">
<path fill="none" stroke="#63b8ff" d="M342.57,-165.34C356.89,-157.23 378.16,-145.18 394.88,-135.71"/>
<polygon fill="#63b8ff" stroke="#63b8ff" points="396.31,-138.92 403.28,-130.95 392.86,-132.83 396.31,-138.92"/>
</a>
</g>
</g>
<!-- Node16&#45;&gt;Node2 -->
<g id="edge29_Node000016_Node000002" class="edge">
<title>Node16&#45;&gt;Node2</title>
<g id="a_edge29_Node000016_Node000002"><a xlink:title=" ">
<path fill="none" stroke="#63b8ff" d="M108.77,-165.45C90.4,-153.27 63.12,-130.62 76.62,-110.5 89.48,-91.34 112.18,-80.4 133.55,-74.16"/>
<polygon fill="#63b8ff" stroke="#63b8ff" points="134.28,-77.59 143.07,-71.68 132.52,-70.81 134.28,-77.59"/>
</a>
</g>
</g>
<!-- Node16&#45;&gt;Node11 -->
<g id="edge30_Node000016_Node000011" class="edge">
<title>Node16&#45;&gt;Node11</title>
<g id="a_edge30_Node000016_Node000011"><a xlink:title=" ">
<path fill="none" stroke="#63b8ff" d="M149.78,-167.08C181.82,-158.15 236.44,-142.92 273.97,-132.46"/>
<polygon fill="#63b8ff" stroke="#63b8ff" points="274.87,-135.84 283.57,-129.78 272.99,-129.1 274.87,-135.84"/>
</a>
</g>
</g>
<!-- Node17 -->
<g id="Node000017" class="node">
<title>Node17</title>
<g id="a_Node000017"><a xlink:href="_char_array_8h.html" target="_top" xlink:title=" ">
<polygon fill="white" stroke="#666666" points="153.12,-129.75 86.12,-129.75 86.12,-110.5 153.12,-110.5 153.12,-129.75"/>
<text text-anchor="middle" x="119.62" y="-116.25" font-family="Helvetica,sans-Serif" font-size="10.00">CharArray.h</text>
</a>
</g>
</g>
<!-- Node16&#45;&gt;Node17 -->
<g id="edge31_Node000016_Node000017" class="edge">
<title>Node16&#45;&gt;Node17</title>
<g id="a_edge31_Node000016_Node000017"><a xlink:title=" ">
<path fill="none" stroke="#63b8ff" d="M122.96,-165.58C122.47,-158.99 121.77,-149.71 121.14,-141.32"/>
<polygon fill="#63b8ff" stroke="#63b8ff" points="124.65,-141.33 120.41,-131.62 117.67,-141.85 124.65,-141.33"/>
</a>
</g>
</g>
<!-- Node17&#45;&gt;Node2 -->
<g id="edge32_Node000017_Node000002" class="edge">
<title>Node17&#45;&gt;Node2</title>
<g id="a_edge32_Node000017_Node000002"><a xlink:title=" ">
<path fill="none" stroke="#63b8ff" d="M130.82,-110.09C140.36,-102.4 154.3,-91.15 165.73,-81.93"/>
<polygon fill="#63b8ff" stroke="#63b8ff" points="167.83,-84.73 173.42,-75.73 163.44,-79.28 167.83,-84.73"/>
</a>
</g>
</g>
</g>
</svg>
