<?xml version="1.0" encoding="UTF-8" standalone="no"?>
<!DOCTYPE svg PUBLIC "-//W3C//DTD SVG 1.1//EN"
 "http://www.w3.org/Graphics/SVG/1.1/DTD/svg11.dtd">
<!-- Generated by graphviz version 12.1.2 (20240928.0832)
 -->
<!-- Title: /Users/felixschulke/Developement/Arduino/Modbus_RTU/Modbus_RTU/Modbus&#45;RTU/lib/ModbusRTU/ServiceInterface_modbusRTU.h Pages: 1 -->
<svg width="1237pt" height="459pt"
 viewBox="0.00 0.00 1236.81 459.00" xmlns="http://www.w3.org/2000/svg" xmlns:xlink="http://www.w3.org/1999/xlink">
<g id="graph0" class="graph" transform="scale(1 1) rotate(0) translate(4 455)">
<title>/Users/felixschulke/Developement/Arduino/Modbus_RTU/Modbus_RTU/Modbus&#45;RTU/lib/ModbusRTU/ServiceInterface_modbusRTU.h</title>
<!-- Node1 -->
<g id="Node000001" class="node">
<title>Node1</title>
<g id="a_Node000001"><a xlink:title=" ">
<polygon fill="#999999" stroke="#666666" points="368.62,-451 209.38,-451 209.38,-386.75 368.62,-386.75 368.62,-451"/>
<text text-anchor="start" x="217.38" y="-437.5" font-family="Helvetica,sans-Serif" font-size="10.00">/Users/felixschulke</text>
<text text-anchor="start" x="217.38" y="-426.25" font-family="Helvetica,sans-Serif" font-size="10.00">/Developement/Arduino</text>
<text text-anchor="start" x="217.38" y="-415" font-family="Helvetica,sans-Serif" font-size="10.00">/Modbus_RTU/Modbus_RTU</text>
<text text-anchor="start" x="217.38" y="-403.75" font-family="Helvetica,sans-Serif" font-size="10.00">/Modbus&#45;RTU/lib/ModbusRTU</text>
<text text-anchor="middle" x="289" y="-392.5" font-family="Helvetica,sans-Serif" font-size="10.00">/ServiceInterface_modbusRTU.h</text>
</a>
</g>
</g>
<!-- Node2 -->
<g id="Node000002" class="node">
<title>Node2</title>
<g id="a_Node000002"><a xlink:href="mock_arduino_8h.html" target="_top" xlink:title=" ">
<polygon fill="white" stroke="#666666" points="503.62,-74.5 422.38,-74.5 422.38,-55.25 503.62,-55.25 503.62,-74.5"/>
<text text-anchor="middle" x="463" y="-61" font-family="Helvetica,sans-Serif" font-size="10.00">mockArduino.h</text>
</a>
</g>
</g>
<!-- Node1&#45;&gt;Node2 -->
<g id="edge1_Node000001_Node000002" class="edge">
<title>Node1&#45;&gt;Node2</title>
<g id="a_edge1_Node000001_Node000002"><a xlink:title=" ">
<path fill="none" stroke="#63b8ff" d="M208.88,-414.78C123.35,-406.67 0,-379.01 0,-286.88 0,-286.88 0,-286.88 0,-174.38 0,-135.12 25.82,-127.91 61,-110.5 121.27,-80.68 316.34,-70.5 410.8,-67.27"/>
<polygon fill="#63b8ff" stroke="#63b8ff" points="410.68,-70.77 420.56,-66.95 410.45,-63.78 410.68,-70.77"/>
</a>
</g>
</g>
<!-- Node9 -->
<g id="Node000009" class="node">
<title>Node9</title>
<g id="a_Node000009"><a xlink:href="_service_interface_8h.html" target="_top" xlink:title=" ">
<polygon fill="white" stroke="#666666" points="528.75,-350.75 433.25,-350.75 433.25,-331.5 528.75,-331.5 528.75,-350.75"/>
<text text-anchor="middle" x="481" y="-337.25" font-family="Helvetica,sans-Serif" font-size="10.00">ServiceInterface.h</text>
</a>
</g>
</g>
<!-- Node1&#45;&gt;Node9 -->
<g id="edge8_Node000001_Node000009" class="edge">
<title>Node1&#45;&gt;Node9</title>
<g id="a_edge8_Node000001_Node000009"><a xlink:title=" ">
<path fill="none" stroke="#63b8ff" d="M369.03,-386.3C396.55,-375.44 425.86,-363.88 447.59,-355.31"/>
<polygon fill="#63b8ff" stroke="#63b8ff" points="448.79,-358.6 456.81,-351.67 446.22,-352.08 448.79,-358.6"/>
</a>
</g>
</g>
<!-- Node22 -->
<g id="Node000022" class="node">
<title>Node22</title>
<g id="a_Node000022"><a xlink:href="_comm_interface__modbus_r_t_u_8h.html" target="_top" xlink:title=" ">
<polygon fill="white" stroke="#666666" points="212.25,-350.75 59.75,-350.75 59.75,-331.5 212.25,-331.5 212.25,-350.75"/>
<text text-anchor="middle" x="136" y="-337.25" font-family="Helvetica,sans-Serif" font-size="10.00">CommInterface_modbusRTU.h</text>
</a>
</g>
</g>
<!-- Node1&#45;&gt;Node22 -->
<g id="edge49_Node000001_Node000022" class="edge">
<title>Node1&#45;&gt;Node22</title>
<g id="a_edge49_Node000001_Node000022"><a xlink:title=" ">
<path fill="none" stroke="#63b8ff" d="M225.44,-386.41C204.09,-375.84 181.36,-364.58 164.15,-356.06"/>
<polygon fill="#63b8ff" stroke="#63b8ff" points="166.09,-353.12 155.57,-351.82 162.98,-359.39 166.09,-353.12"/>
</a>
</g>
</g>
<!-- Node24 -->
<g id="Node000024" class="node">
<title>Node24</title>
<g id="a_Node000024"><a xlink:href="_frame__modbus_r_t_u_8h.html" target="_top" xlink:title=" ">
<polygon fill="white" stroke="#666666" points="345.38,-295.5 232.62,-295.5 232.62,-276.25 345.38,-276.25 345.38,-295.5"/>
<text text-anchor="middle" x="289" y="-282" font-family="Helvetica,sans-Serif" font-size="10.00">Frame_modbusRTU.h</text>
</a>
</g>
</g>
<!-- Node1&#45;&gt;Node24 -->
<g id="edge55_Node000001_Node000024" class="edge">
<title>Node1&#45;&gt;Node24</title>
<g id="a_edge55_Node000001_Node000024"><a xlink:title=" ">
<path fill="none" stroke="#63b8ff" d="M289,-386.5C289,-361.93 289,-328.46 289,-307.26"/>
<polygon fill="#63b8ff" stroke="#63b8ff" points="292.5,-307.35 289,-297.35 285.5,-307.35 292.5,-307.35"/>
</a>
</g>
</g>
<!-- Node25 -->
<g id="Node000025" class="node">
<title>Node25</title>
<g id="a_Node000025"><a xlink:href="_message_service_8h.html" target="_top" xlink:title=" ">
<polygon fill="white" stroke="#666666" points="717.5,-240.25 620.5,-240.25 620.5,-221 717.5,-221 717.5,-240.25"/>
<text text-anchor="middle" x="669" y="-226.75" font-family="Helvetica,sans-Serif" font-size="10.00">MessageService.h</text>
</a>
</g>
</g>
<!-- Node1&#45;&gt;Node25 -->
<g id="edge58_Node000001_Node000025" class="edge">
<title>Node1&#45;&gt;Node25</title>
<g id="a_edge58_Node000001_Node000025"><a xlink:title=" ">
<path fill="none" stroke="#63b8ff" d="M368.89,-406.29C419.61,-396.59 485.37,-379.55 538,-350.75 587,-323.94 632.43,-275.18 654.68,-249.13"/>
<polygon fill="#63b8ff" stroke="#63b8ff" points="657.08,-251.72 660.82,-241.81 651.71,-247.22 657.08,-251.72"/>
</a>
</g>
</g>
<!-- Node3 -->
<g id="Node000003" class="node">
<title>Node3</title>
<g id="a_Node000003"><a xlink:title=" ">
<polygon fill="#e0e0e0" stroke="#999999" points="1043.75,-19.25 990.25,-19.25 990.25,0 1043.75,0 1043.75,-19.25"/>
<text text-anchor="middle" x="1017" y="-5.75" font-family="Helvetica,sans-Serif" font-size="10.00">iostream</text>
</a>
</g>
</g>
<!-- Node2&#45;&gt;Node3 -->
<g id="edge2_Node000002_Node000003" class="edge">
<title>Node2&#45;&gt;Node3</title>
<g id="a_edge2_Node000002_Node000003"><a xlink:title=" ">
<path fill="none" stroke="#63b8ff" d="M503.74,-59.96C606.99,-50.03 877.88,-24 978.58,-14.32"/>
<polygon fill="#63b8ff" stroke="#63b8ff" points="978.86,-17.81 988.48,-13.37 978.19,-10.84 978.86,-17.81"/>
</a>
</g>
</g>
<!-- Node4 -->
<g id="Node000004" class="node">
<title>Node4</title>
<g id="a_Node000004"><a xlink:title=" ">
<polygon fill="#e0e0e0" stroke="#999999" points="483,-19.25 443,-19.25 443,0 483,0 483,-19.25"/>
<text text-anchor="middle" x="463" y="-5.75" font-family="Helvetica,sans-Serif" font-size="10.00">string</text>
</a>
</g>
</g>
<!-- Node2&#45;&gt;Node4 -->
<g id="edge3_Node000002_Node000004" class="edge">
<title>Node2&#45;&gt;Node4</title>
<g id="a_edge3_Node000002_Node000004"><a xlink:title=" ">
<path fill="none" stroke="#63b8ff" d="M463,-55.08C463,-48.57 463,-39.42 463,-31.12"/>
<polygon fill="#63b8ff" stroke="#63b8ff" points="466.5,-31.12 463,-21.12 459.5,-31.12 466.5,-31.12"/>
</a>
</g>
</g>
<!-- Node5 -->
<g id="Node000005" class="node">
<title>Node5</title>
<g id="a_Node000005"><a xlink:title=" ">
<polygon fill="#e0e0e0" stroke="#999999" points="552.62,-19.25 501.38,-19.25 501.38,0 552.62,0 552.62,-19.25"/>
<text text-anchor="middle" x="527" y="-5.75" font-family="Helvetica,sans-Serif" font-size="10.00">sstream</text>
</a>
</g>
</g>
<!-- Node2&#45;&gt;Node5 -->
<g id="edge4_Node000002_Node000005" class="edge">
<title>Node2&#45;&gt;Node5</title>
<g id="a_edge4_Node000002_Node000005"><a xlink:title=" ">
<path fill="none" stroke="#63b8ff" d="M473.86,-54.84C483.11,-47.15 496.62,-35.9 507.71,-26.68"/>
<polygon fill="#63b8ff" stroke="#63b8ff" points="509.69,-29.58 515.14,-20.49 505.21,-24.2 509.69,-29.58"/>
</a>
</g>
</g>
<!-- Node6 -->
<g id="Node000006" class="node">
<title>Node6</title>
<g id="a_Node000006"><a xlink:title=" ">
<polygon fill="#e0e0e0" stroke="#999999" points="615.62,-19.25 570.38,-19.25 570.38,0 615.62,0 615.62,-19.25"/>
<text text-anchor="middle" x="593" y="-5.75" font-family="Helvetica,sans-Serif" font-size="10.00">chrono</text>
</a>
</g>
</g>
<!-- Node2&#45;&gt;Node6 -->
<g id="edge5_Node000002_Node000006" class="edge">
<title>Node2&#45;&gt;Node6</title>
<g id="a_edge5_Node000002_Node000006"><a xlink:title=" ">
<path fill="none" stroke="#63b8ff" d="M485.05,-54.84C505.69,-46.39 536.78,-33.65 560.3,-24.02"/>
<polygon fill="#63b8ff" stroke="#63b8ff" points="561.51,-27.31 569.44,-20.28 558.86,-20.83 561.51,-27.31"/>
</a>
</g>
</g>
<!-- Node7 -->
<g id="Node000007" class="node">
<title>Node7</title>
<g id="a_Node000007"><a xlink:title=" ">
<polygon fill="#e0e0e0" stroke="#999999" points="349.12,-19.25 306.88,-19.25 306.88,0 349.12,0 349.12,-19.25"/>
<text text-anchor="middle" x="328" y="-5.75" font-family="Helvetica,sans-Serif" font-size="10.00">queue</text>
</a>
</g>
</g>
<!-- Node2&#45;&gt;Node7 -->
<g id="edge6_Node000002_Node000007" class="edge">
<title>Node2&#45;&gt;Node7</title>
<g id="a_edge6_Node000002_Node000007"><a xlink:title=" ">
<path fill="none" stroke="#63b8ff" d="M440.1,-54.84C418.05,-46.14 384.51,-32.91 359.86,-23.19"/>
<polygon fill="#63b8ff" stroke="#63b8ff" points="361.23,-19.97 350.64,-19.55 358.66,-26.48 361.23,-19.97"/>
</a>
</g>
</g>
<!-- Node8 -->
<g id="Node000008" class="node">
<title>Node8</title>
<g id="a_Node000008"><a xlink:title=" ">
<polygon fill="#e0e0e0" stroke="#999999" points="425,-19.25 367,-19.25 367,0 425,0 425,-19.25"/>
<text text-anchor="middle" x="396" y="-5.75" font-family="Helvetica,sans-Serif" font-size="10.00">functional</text>
</a>
</g>
</g>
<!-- Node2&#45;&gt;Node8 -->
<g id="edge7_Node000002_Node000008" class="edge">
<title>Node2&#45;&gt;Node8</title>
<g id="a_edge7_Node000002_Node000008"><a xlink:title=" ">
<path fill="none" stroke="#63b8ff" d="M451.63,-54.84C441.95,-47.15 427.8,-35.9 416.19,-26.68"/>
<polygon fill="#63b8ff" stroke="#63b8ff" points="418.39,-23.95 408.38,-20.47 414.03,-29.43 418.39,-23.95"/>
</a>
</g>
</g>
<!-- Node9&#45;&gt;Node2 -->
<g id="edge9_Node000009_Node000002" class="edge">
<title>Node9&#45;&gt;Node2</title>
<g id="a_edge9_Node000009_Node000002"><a xlink:title=" ">
<path fill="none" stroke="#63b8ff" d="M485.52,-331.18C489.71,-322.36 495.63,-308.38 498,-295.5 499.55,-287.09 498.7,-284.78 498,-276.25 492.16,-205.61 475.49,-122.98 467.44,-85.79"/>
<polygon fill="#63b8ff" stroke="#63b8ff" points="470.88,-85.12 465.32,-76.11 464.04,-86.62 470.88,-85.12"/>
</a>
</g>
</g>
<!-- Node10 -->
<g id="Node000010" class="node">
<title>Node10</title>
<g id="a_Node000010"><a xlink:href="_comm_interface_8h.html" target="_top" xlink:title=" ">
<polygon fill="white" stroke="#666666" points="214.88,-295.5 123.12,-295.5 123.12,-276.25 214.88,-276.25 214.88,-295.5"/>
<text text-anchor="middle" x="169" y="-282" font-family="Helvetica,sans-Serif" font-size="10.00">CommInterface.h</text>
</a>
</g>
</g>
<!-- Node9&#45;&gt;Node10 -->
<g id="edge10_Node000009_Node000010" class="edge">
<title>Node9&#45;&gt;Node10</title>
<g id="a_edge10_Node000009_Node000010"><a xlink:title=" ">
<path fill="none" stroke="#63b8ff" d="M432.93,-331.92C377.29,-322.42 285.71,-306.8 226.39,-296.67"/>
<polygon fill="#63b8ff" stroke="#63b8ff" points="227.28,-293.27 216.83,-295.04 226.1,-300.17 227.28,-293.27"/>
</a>
</g>
</g>
<!-- Node12 -->
<g id="Node000012" class="node">
<title>Node12</title>
<g id="a_Node000012"><a xlink:href="_error_state_8h.html" target="_top" xlink:title=" ">
<polygon fill="white" stroke="#666666" points="970.25,-240.25 901.75,-240.25 901.75,-221 970.25,-221 970.25,-240.25"/>
<text text-anchor="middle" x="936" y="-226.75" font-family="Helvetica,sans-Serif" font-size="10.00">ErrorState.h</text>
</a>
</g>
</g>
<!-- Node9&#45;&gt;Node12 -->
<g id="edge48_Node000009_Node000012" class="edge">
<title>Node9&#45;&gt;Node12</title>
<g id="a_edge48_Node000009_Node000012"><a xlink:title=" ">
<path fill="none" stroke="#63b8ff" d="M519.01,-331.06C602.29,-311.2 800.56,-263.92 890.38,-242.5"/>
<polygon fill="#63b8ff" stroke="#63b8ff" points="891.16,-245.92 900.08,-240.19 889.54,-239.11 891.16,-245.92"/>
</a>
</g>
</g>
<!-- Node17 -->
<g id="Node000017" class="node">
<title>Node17</title>
<g id="a_Node000017"><a xlink:href="_service_cluster_8h.html" target="_top" xlink:title=" ">
<polygon fill="white" stroke="#666666" points="489,-295.5 401,-295.5 401,-276.25 489,-276.25 489,-295.5"/>
<text text-anchor="middle" x="445" y="-282" font-family="Helvetica,sans-Serif" font-size="10.00">ServiceCluster.h</text>
</a>
</g>
</g>
<!-- Node9&#45;&gt;Node17 -->
<g id="edge27_Node000009_Node000017" class="edge">
<title>Node9&#45;&gt;Node17</title>
<g id="a_edge27_Node000009_Node000017"><a xlink:title=" ">
<path fill="none" stroke="#63b8ff" d="M475.06,-331.33C470.29,-324.28 463.44,-314.15 457.48,-305.33"/>
<polygon fill="#63b8ff" stroke="#63b8ff" points="460.42,-303.44 451.92,-297.11 454.62,-307.36 460.42,-303.44"/>
</a>
</g>
</g>
<!-- Node19 -->
<g id="Node000019" class="node">
<title>Node19</title>
<g id="a_Node000019"><a xlink:href="_content__stack_8h.html" target="_top" xlink:title=" ">
<polygon fill="white" stroke="#666666" points="598,-129.75 510,-129.75 510,-110.5 598,-110.5 598,-129.75"/>
<text text-anchor="middle" x="554" y="-116.25" font-family="Helvetica,sans-Serif" font-size="10.00">Content_stack.h</text>
</a>
</g>
</g>
<!-- Node9&#45;&gt;Node19 -->
<g id="edge42_Node000009_Node000019" class="edge">
<title>Node9&#45;&gt;Node19</title>
<g id="a_edge42_Node000009_Node000019"><a xlink:title=" ">
<path fill="none" stroke="#63b8ff" d="M495.89,-331.13C507.49,-323.26 522.95,-310.72 531,-295.5 557.72,-245 557.67,-175.18 555.7,-141.25"/>
<polygon fill="#63b8ff" stroke="#63b8ff" points="559.22,-141.35 555.02,-131.63 552.24,-141.85 559.22,-141.35"/>
</a>
</g>
</g>
<!-- Node20 -->
<g id="Node000020" class="node">
<title>Node20</title>
<g id="a_Node000020"><a xlink:href="_frame_8h.html" target="_top" xlink:title=" ">
<polygon fill="white" stroke="#666666" points="417,-240.25 365,-240.25 365,-221 417,-221 417,-240.25"/>
<text text-anchor="middle" x="391" y="-226.75" font-family="Helvetica,sans-Serif" font-size="10.00">Frame.h</text>
</a>
</g>
</g>
<!-- Node9&#45;&gt;Node20 -->
<g id="edge41_Node000009_Node000020" class="edge">
<title>Node9&#45;&gt;Node20</title>
<g id="a_edge41_Node000009_Node000020"><a xlink:title=" ">
<path fill="none" stroke="#63b8ff" d="M443.05,-331.08C424.3,-324.51 403.31,-313.5 392,-295.5 383.87,-282.56 384.2,-265.04 386.24,-251.62"/>
<polygon fill="#63b8ff" stroke="#63b8ff" points="389.6,-252.68 388.11,-242.19 382.74,-251.32 389.6,-252.68"/>
</a>
</g>
</g>
<!-- Node21 -->
<g id="Node000021" class="node">
<title>Node21</title>
<g id="a_Node000021"><a xlink:href="_error_service_8h.html" target="_top" xlink:title=" ">
<polygon fill="white" stroke="#666666" points="814.12,-240.25 735.88,-240.25 735.88,-221 814.12,-221 814.12,-240.25"/>
<text text-anchor="middle" x="775" y="-226.75" font-family="Helvetica,sans-Serif" font-size="10.00">ErrorService.h</text>
</a>
</g>
</g>
<!-- Node9&#45;&gt;Node21 -->
<g id="edge43_Node000009_Node000021" class="edge">
<title>Node9&#45;&gt;Node21</title>
<g id="a_edge43_Node000009_Node000021"><a xlink:title=" ">
<path fill="none" stroke="#63b8ff" d="M497.79,-331.14C523.1,-317.85 572.76,-292.76 617,-276.25 652.44,-263.03 693.59,-251.52 725.01,-243.51"/>
<polygon fill="#63b8ff" stroke="#63b8ff" points="725.81,-246.91 734.65,-241.08 724.1,-240.13 725.81,-246.91"/>
</a>
</g>
</g>
<!-- Node10&#45;&gt;Node2 -->
<g id="edge11_Node000010_Node000002" class="edge">
<title>Node10&#45;&gt;Node2</title>
<g id="a_edge11_Node000010_Node000002"><a xlink:title=" ">
<path fill="none" stroke="#63b8ff" d="M161.56,-275.77C139.04,-247.09 75.95,-157.76 123,-110.5 162.21,-71.11 325.1,-65.44 410.39,-65.26"/>
<polygon fill="#63b8ff" stroke="#63b8ff" points="410.37,-68.76 420.37,-65.26 410.38,-61.76 410.37,-68.76"/>
</a>
</g>
</g>
<!-- Node11 -->
<g id="Node000011" class="node">
<title>Node11</title>
<g id="a_Node000011"><a xlink:href="_char_array_8h.html" target="_top" xlink:title=" ">
<polygon fill="white" stroke="#666666" points="339.5,-185 272.5,-185 272.5,-165.75 339.5,-165.75 339.5,-185"/>
<text text-anchor="middle" x="306" y="-171.5" font-family="Helvetica,sans-Serif" font-size="10.00">CharArray.h</text>
</a>
</g>
</g>
<!-- Node10&#45;&gt;Node11 -->
<g id="edge12_Node000010_Node000011" class="edge">
<title>Node10&#45;&gt;Node11</title>
<g id="a_edge12_Node000010_Node000011"><a xlink:title=" ">
<path fill="none" stroke="#63b8ff" d="M180.21,-276C203.29,-257.72 256.4,-215.65 285.69,-192.46"/>
<polygon fill="#63b8ff" stroke="#63b8ff" points="287.78,-195.27 293.45,-186.32 283.43,-189.78 287.78,-195.27"/>
</a>
</g>
</g>
<!-- Node10&#45;&gt;Node12 -->
<g id="edge14_Node000010_Node000012" class="edge">
<title>Node10&#45;&gt;Node12</title>
<g id="a_edge14_Node000010_Node000012"><a xlink:title=" ">
<path fill="none" stroke="#63b8ff" d="M215.17,-277.31C218.15,-276.92 221.12,-276.56 224,-276.25 489.15,-247.56 556.92,-258.4 823,-240.25 845.09,-238.74 869.6,-236.89 890.13,-235.3"/>
<polygon fill="#63b8ff" stroke="#63b8ff" points="890.19,-238.8 899.88,-234.53 889.64,-231.82 890.19,-238.8"/>
</a>
</g>
</g>
<!-- Node11&#45;&gt;Node2 -->
<g id="edge13_Node000011_Node000002" class="edge">
<title>Node11&#45;&gt;Node2</title>
<g id="a_edge13_Node000011_Node000002"><a xlink:title=" ">
<path fill="none" stroke="#63b8ff" d="M310.7,-165.32C318.19,-151.7 334.02,-125.93 354,-110.5 372.59,-96.15 396.44,-85.69 417.09,-78.52"/>
<polygon fill="#63b8ff" stroke="#63b8ff" points="418.02,-81.9 426.42,-75.45 415.83,-75.25 418.02,-81.9"/>
</a>
</g>
</g>
<!-- Node12&#45;&gt;Node2 -->
<g id="edge18_Node000012_Node000002" class="edge">
<title>Node12&#45;&gt;Node2</title>
<g id="a_edge18_Node000012_Node000002"><a xlink:title=" ">
<path fill="none" stroke="#63b8ff" d="M914.18,-220.52C847.64,-192.77 651.7,-111.05 650,-110.5 605.27,-95.95 553.12,-83.9 515.27,-76"/>
<polygon fill="#63b8ff" stroke="#63b8ff" points="515.99,-72.58 505.49,-73.99 514.58,-79.43 515.99,-72.58"/>
</a>
</g>
</g>
<!-- Node12&#45;&gt;Node3 -->
<g id="edge15_Node000012_Node000003" class="edge">
<title>Node12&#45;&gt;Node3</title>
<g id="a_edge15_Node000012_Node000003"><a xlink:title=" ">
<path fill="none" stroke="#63b8ff" d="M970.56,-229.41C1037.97,-228.18 1183.09,-221.27 1214,-185 1235.48,-159.8 1231.33,-138.71 1214,-110.5 1179.4,-54.17 1102.07,-28.42 1055.24,-17.6"/>
<polygon fill="#63b8ff" stroke="#63b8ff" points="1056.04,-14.19 1045.52,-15.49 1054.55,-21.03 1056.04,-14.19"/>
</a>
</g>
</g>
<!-- Node13 -->
<g id="Node000013" class="node">
<title>Node13</title>
<g id="a_Node000013"><a xlink:title=" ">
<polygon fill="#e0e0e0" stroke="#999999" points="978.62,-74.5 933.38,-74.5 933.38,-55.25 978.62,-55.25 978.62,-74.5"/>
<text text-anchor="middle" x="956" y="-61" font-family="Helvetica,sans-Serif" font-size="10.00">cstring</text>
</a>
</g>
</g>
<!-- Node12&#45;&gt;Node13 -->
<g id="edge16_Node000012_Node000013" class="edge">
<title>Node12&#45;&gt;Node13</title>
<g id="a_edge16_Node000012_Node000013"><a xlink:title=" ">
<path fill="none" stroke="#63b8ff" d="M970.55,-228.93C1034.14,-226.84 1165.82,-218.47 1194,-185 1215.32,-159.67 1215.15,-135.98 1194,-110.5 1168.51,-79.78 1049.85,-70.08 990.29,-67.12"/>
<polygon fill="#63b8ff" stroke="#63b8ff" points="990.54,-63.63 980.39,-66.67 990.22,-70.62 990.54,-63.63"/>
</a>
</g>
</g>
<!-- Node14 -->
<g id="Node000014" class="node">
<title>Node14</title>
<g id="a_Node000014"><a xlink:title=" ">
<polygon fill="#e0e0e0" stroke="#999999" points="1038.12,-129.75 995.88,-129.75 995.88,-110.5 1038.12,-110.5 1038.12,-129.75"/>
<text text-anchor="middle" x="1017" y="-116.25" font-family="Helvetica,sans-Serif" font-size="10.00">cstdio</text>
</a>
</g>
</g>
<!-- Node12&#45;&gt;Node14 -->
<g id="edge17_Node000012_Node000014" class="edge">
<title>Node12&#45;&gt;Node14</title>
<g id="a_edge17_Node000012_Node000014"><a xlink:title=" ">
<path fill="none" stroke="#63b8ff" d="M947.14,-220.51C957.08,-212.01 971.62,-198.63 982,-185 992.67,-171 1002.08,-153.33 1008.45,-140.13"/>
<polygon fill="#63b8ff" stroke="#63b8ff" points="1011.54,-141.8 1012.59,-131.26 1005.19,-138.84 1011.54,-141.8"/>
</a>
</g>
</g>
<!-- Node15 -->
<g id="Node000015" class="node">
<title>Node15</title>
<g id="a_Node000015"><a xlink:href="_error_8h.html" target="_top" xlink:title=" ">
<polygon fill="white" stroke="#666666" points="1078.25,-185 1033.75,-185 1033.75,-165.75 1078.25,-165.75 1078.25,-185"/>
<text text-anchor="middle" x="1056" y="-171.5" font-family="Helvetica,sans-Serif" font-size="10.00">Error.h</text>
</a>
</g>
</g>
<!-- Node12&#45;&gt;Node15 -->
<g id="edge19_Node000012_Node000015" class="edge">
<title>Node12&#45;&gt;Node15</title>
<g id="a_edge19_Node000012_Node000015"><a xlink:title=" ">
<path fill="none" stroke="#63b8ff" d="M956.36,-220.59C975.23,-212.22 1003.59,-199.63 1025.23,-190.03"/>
<polygon fill="#63b8ff" stroke="#63b8ff" points="1026.44,-193.32 1034.16,-186.07 1023.6,-186.92 1026.44,-193.32"/>
</a>
</g>
</g>
<!-- Node15&#45;&gt;Node2 -->
<g id="edge23_Node000015_Node000002" class="edge">
<title>Node15&#45;&gt;Node2</title>
<g id="a_edge23_Node000015_Node000002"><a xlink:title=" ">
<path fill="none" stroke="#63b8ff" d="M1057.83,-165.41C1060.1,-151.43 1062.03,-124.6 1047,-110.5 1008.68,-74.54 651.43,-67.56 515.32,-66.2"/>
<polygon fill="#63b8ff" stroke="#63b8ff" points="515.54,-62.7 505.51,-66.11 515.48,-69.7 515.54,-62.7"/>
</a>
</g>
</g>
<!-- Node15&#45;&gt;Node3 -->
<g id="edge20_Node000015_Node000003" class="edge">
<title>Node15&#45;&gt;Node3</title>
<g id="a_edge20_Node000015_Node000003"><a xlink:title=" ">
<path fill="none" stroke="#63b8ff" d="M1068.03,-165.26C1077.65,-157.14 1090.42,-144.33 1096,-129.75 1099.06,-121.76 1098.81,-118.58 1096,-110.5 1084.22,-76.61 1055.62,-45.55 1036.27,-27.35"/>
<polygon fill="#63b8ff" stroke="#63b8ff" points="1038.74,-24.87 1028.99,-20.73 1034.03,-30.05 1038.74,-24.87"/>
</a>
</g>
</g>
<!-- Node15&#45;&gt;Node13 -->
<g id="edge21_Node000015_Node000013" class="edge">
<title>Node15&#45;&gt;Node13</title>
<g id="a_edge21_Node000015_Node000013"><a xlink:title=" ">
<path fill="none" stroke="#63b8ff" d="M1064.33,-165.44C1075.42,-152.44 1092.26,-127.94 1080,-110.5 1059.88,-81.87 1019.55,-71.52 990.33,-67.83"/>
<polygon fill="#63b8ff" stroke="#63b8ff" points="990.78,-64.36 980.48,-66.81 990.06,-71.32 990.78,-64.36"/>
</a>
</g>
</g>
<!-- Node15&#45;&gt;Node14 -->
<g id="edge22_Node000015_Node000014" class="edge">
<title>Node15&#45;&gt;Node14</title>
<g id="a_edge22_Node000015_Node000014"><a xlink:title=" ">
<path fill="none" stroke="#63b8ff" d="M1049.56,-165.58C1044.34,-158.46 1036.81,-148.18 1030.31,-139.3"/>
<polygon fill="#63b8ff" stroke="#63b8ff" points="1033.21,-137.33 1024.47,-131.33 1027.56,-141.47 1033.21,-137.33"/>
</a>
</g>
</g>
<!-- Node16 -->
<g id="Node000016" class="node">
<title>Node16</title>
<g id="a_Node000016"><a xlink:href="_content_8h.html" target="_top" xlink:title=" ">
<polygon fill="white" stroke="#666666" points="864.38,-129.75 805.62,-129.75 805.62,-110.5 864.38,-110.5 864.38,-129.75"/>
<text text-anchor="middle" x="835" y="-116.25" font-family="Helvetica,sans-Serif" font-size="10.00">Content.h</text>
</a>
</g>
</g>
<!-- Node15&#45;&gt;Node16 -->
<g id="edge24_Node000015_Node000016" class="edge">
<title>Node15&#45;&gt;Node16</title>
<g id="a_edge24_Node000015_Node000016"><a xlink:title=" ">
<path fill="none" stroke="#63b8ff" d="M1033.59,-168.98C996.67,-160.08 922.5,-142.21 875.99,-131"/>
<polygon fill="#63b8ff" stroke="#63b8ff" points="876.82,-127.6 866.28,-128.66 875.18,-134.41 876.82,-127.6"/>
</a>
</g>
</g>
<!-- Node16&#45;&gt;Node2 -->
<g id="edge25_Node000016_Node000002" class="edge">
<title>Node16&#45;&gt;Node2</title>
<g id="a_edge25_Node000016_Node000002"><a xlink:title=" ">
<path fill="none" stroke="#63b8ff" d="M805.44,-112.94C800.94,-112.07 796.36,-111.23 792,-110.5 694.54,-94.13 580.05,-79.67 515.06,-71.91"/>
<polygon fill="#63b8ff" stroke="#63b8ff" points="515.75,-68.46 505.4,-70.76 514.92,-75.41 515.75,-68.46"/>
</a>
</g>
</g>
<!-- Node16&#45;&gt;Node13 -->
<g id="edge26_Node000016_Node000013" class="edge">
<title>Node16&#45;&gt;Node13</title>
<g id="a_edge26_Node000016_Node000013"><a xlink:title=" ">
<path fill="none" stroke="#63b8ff" d="M855.53,-110.09C874.56,-101.72 903.15,-89.13 924.97,-79.53"/>
<polygon fill="#63b8ff" stroke="#63b8ff" points="926.24,-82.79 933.99,-75.56 923.43,-76.39 926.24,-82.79"/>
</a>
</g>
</g>
<!-- Node17&#45;&gt;Node2 -->
<g id="edge28_Node000017_Node000002" class="edge">
<title>Node17&#45;&gt;Node2</title>
<g id="a_edge28_Node000017_Node000002"><a xlink:title=" ">
<path fill="none" stroke="#63b8ff" d="M445.73,-276.02C448.38,-243.76 457.56,-132.01 461.35,-85.96"/>
<polygon fill="#63b8ff" stroke="#63b8ff" points="464.83,-86.36 462.16,-76.11 457.85,-85.79 464.83,-86.36"/>
</a>
</g>
</g>
<!-- Node17&#45;&gt;Node12 -->
<g id="edge36_Node000017_Node000012" class="edge">
<title>Node17&#45;&gt;Node12</title>
<g id="a_edge36_Node000017_Node000012"><a xlink:title=" ">
<path fill="none" stroke="#63b8ff" d="M489.44,-280.06C582.25,-269.99 795.87,-246.82 890.01,-236.61"/>
<polygon fill="#63b8ff" stroke="#63b8ff" points="890.35,-240.1 899.91,-235.54 889.59,-233.14 890.35,-240.1"/>
</a>
</g>
</g>
<!-- Node18 -->
<g id="Node000018" class="node">
<title>Node18</title>
<g id="a_Node000018"><a xlink:href="_service_8h.html" target="_top" xlink:title=" ">
<polygon fill="white" stroke="#666666" points="639.62,-185 582.38,-185 582.38,-165.75 639.62,-165.75 639.62,-185"/>
<text text-anchor="middle" x="611" y="-171.5" font-family="Helvetica,sans-Serif" font-size="10.00">Service.h</text>
</a>
</g>
</g>
<!-- Node17&#45;&gt;Node18 -->
<g id="edge29_Node000017_Node000018" class="edge">
<title>Node17&#45;&gt;Node18</title>
<g id="a_edge29_Node000017_Node000018"><a xlink:title=" ">
<path fill="none" stroke="#63b8ff" d="M458.87,-275.81C487.38,-257.18 552.83,-214.4 587.87,-191.5"/>
<polygon fill="#63b8ff" stroke="#63b8ff" points="589.57,-194.57 596.02,-186.17 585.74,-188.71 589.57,-194.57"/>
</a>
</g>
</g>
<!-- Node17&#45;&gt;Node20 -->
<g id="edge37_Node000017_Node000020" class="edge">
<title>Node17&#45;&gt;Node20</title>
<g id="a_edge37_Node000017_Node000020"><a xlink:title=" ">
<path fill="none" stroke="#63b8ff" d="M436.08,-276.08C428.55,-268.65 417.53,-257.79 408.27,-248.66"/>
<polygon fill="#63b8ff" stroke="#63b8ff" points="410.77,-246.2 401.19,-241.67 405.85,-251.19 410.77,-246.2"/>
</a>
</g>
</g>
<!-- Node18&#45;&gt;Node2 -->
<g id="edge30_Node000018_Node000002" class="edge">
<title>Node18&#45;&gt;Node2</title>
<g id="a_edge30_Node000018_Node000002"><a xlink:title=" ">
<path fill="none" stroke="#63b8ff" d="M613.32,-165.43C616.25,-151.97 619.5,-126.4 607,-110.5 585.31,-82.92 546.86,-71.99 515.14,-67.83"/>
<polygon fill="#63b8ff" stroke="#63b8ff" points="515.63,-64.37 505.31,-66.75 514.87,-71.32 515.63,-64.37"/>
</a>
</g>
</g>
<!-- Node18&#45;&gt;Node13 -->
<g id="edge31_Node000018_Node000013" class="edge">
<title>Node18&#45;&gt;Node13</title>
<g id="a_edge31_Node000018_Node000013"><a xlink:title=" ">
<path fill="none" stroke="#63b8ff" d="M635.82,-165.34C671.34,-152.54 738.82,-128.64 797,-110.5 839.78,-97.16 889.6,-83.48 921.91,-74.84"/>
<polygon fill="#63b8ff" stroke="#63b8ff" points="922.74,-78.24 931.51,-72.28 920.94,-71.47 922.74,-78.24"/>
</a>
</g>
</g>
<!-- Node18&#45;&gt;Node16 -->
<g id="edge32_Node000018_Node000016" class="edge">
<title>Node18&#45;&gt;Node16</title>
<g id="a_edge32_Node000018_Node000016"><a xlink:title=" ">
<path fill="none" stroke="#63b8ff" d="M639.83,-167.52C679.07,-158.19 749.51,-141.45 794.18,-130.83"/>
<polygon fill="#63b8ff" stroke="#63b8ff" points="794.82,-134.27 803.74,-128.56 793.2,-127.46 794.82,-134.27"/>
</a>
</g>
</g>
<!-- Node18&#45;&gt;Node19 -->
<g id="edge33_Node000018_Node000019" class="edge">
<title>Node18&#45;&gt;Node19</title>
<g id="a_edge33_Node000018_Node000019"><a xlink:title=" ">
<path fill="none" stroke="#63b8ff" d="M601.33,-165.34C593.26,-157.8 581.53,-146.85 571.78,-137.73"/>
<polygon fill="#63b8ff" stroke="#63b8ff" points="574.33,-135.33 564.63,-131.06 569.55,-140.44 574.33,-135.33"/>
</a>
</g>
</g>
<!-- Node19&#45;&gt;Node2 -->
<g id="edge34_Node000019_Node000002" class="edge">
<title>Node19&#45;&gt;Node2</title>
<g id="a_edge34_Node000019_Node000002"><a xlink:title=" ">
<path fill="none" stroke="#63b8ff" d="M538.56,-110.09C524.84,-102.06 504.5,-90.16 488.38,-80.73"/>
<polygon fill="#63b8ff" stroke="#63b8ff" points="490.22,-77.75 479.82,-75.72 486.68,-83.79 490.22,-77.75"/>
</a>
</g>
</g>
<!-- Node19&#45;&gt;Node13 -->
<g id="edge35_Node000019_Node000013" class="edge">
<title>Node19&#45;&gt;Node13</title>
<g id="a_edge35_Node000019_Node000013"><a xlink:title=" ">
<path fill="none" stroke="#63b8ff" d="M598.17,-113.27C679.12,-102.55 849.6,-79.97 922.16,-70.36"/>
<polygon fill="#63b8ff" stroke="#63b8ff" points="922.38,-73.86 931.83,-69.08 921.46,-66.92 922.38,-73.86"/>
</a>
</g>
</g>
<!-- Node20&#45;&gt;Node2 -->
<g id="edge38_Node000020_Node000002" class="edge">
<title>Node20&#45;&gt;Node2</title>
<g id="a_edge38_Node000020_Node000002"><a xlink:title=" ">
<path fill="none" stroke="#63b8ff" d="M392.92,-220.57C397.46,-200.13 410.03,-149.17 430,-110.5 434.85,-101.11 441.6,-91.57 447.73,-83.74"/>
<polygon fill="#63b8ff" stroke="#63b8ff" points="450.41,-86 454.03,-76.04 444.99,-81.57 450.41,-86"/>
</a>
</g>
</g>
<!-- Node20&#45;&gt;Node11 -->
<g id="edge40_Node000020_Node000011" class="edge">
<title>Node20&#45;&gt;Node11</title>
<g id="a_edge40_Node000020_Node000011"><a xlink:title=" ">
<path fill="none" stroke="#63b8ff" d="M376.58,-220.59C363.88,-212.64 345.13,-200.89 330.14,-191.5"/>
<polygon fill="#63b8ff" stroke="#63b8ff" points="332.1,-188.6 321.77,-186.26 328.39,-194.53 332.1,-188.6"/>
</a>
</g>
</g>
<!-- Node20&#45;&gt;Node16 -->
<g id="edge39_Node000020_Node000016" class="edge">
<title>Node20&#45;&gt;Node16</title>
<g id="a_edge39_Node000020_Node000016"><a xlink:title=" ">
<path fill="none" stroke="#63b8ff" d="M417.29,-226.49C464.28,-220.57 565.56,-206.4 649,-185 703.55,-171.01 765.02,-148.53 801.85,-134.31"/>
<polygon fill="#63b8ff" stroke="#63b8ff" points="802.99,-137.62 811.04,-130.73 800.45,-131.1 802.99,-137.62"/>
</a>
</g>
</g>
<!-- Node21&#45;&gt;Node2 -->
<g id="edge44_Node000021_Node000002" class="edge">
<title>Node21&#45;&gt;Node2</title>
<g id="a_edge44_Node000021_Node000002"><a xlink:title=" ">
<path fill="none" stroke="#63b8ff" d="M753.67,-220.65C736.14,-212.7 711.17,-200.06 692,-185 656.98,-157.49 662.88,-133.91 625,-110.5 591.45,-89.76 548.14,-78.48 514.75,-72.45"/>
<polygon fill="#63b8ff" stroke="#63b8ff" points="515.77,-69.08 505.33,-70.86 514.6,-75.98 515.77,-69.08"/>
</a>
</g>
</g>
<!-- Node21&#45;&gt;Node13 -->
<g id="edge45_Node000021_Node000013" class="edge">
<title>Node21&#45;&gt;Node13</title>
<g id="a_edge45_Node000021_Node000013"><a xlink:title=" ">
<path fill="none" stroke="#63b8ff" d="M814.62,-226.56C894.26,-220.04 1067.81,-203.82 1087,-185 1110.81,-161.65 1115.68,-137.43 1096,-110.5 1072,-77.66 1023.6,-68.42 990.5,-66.12"/>
<polygon fill="#63b8ff" stroke="#63b8ff" points="990.74,-62.62 980.58,-65.63 990.39,-69.62 990.74,-62.62"/>
</a>
</g>
</g>
<!-- Node21&#45;&gt;Node15 -->
<g id="edge47_Node000021_Node000015" class="edge">
<title>Node21&#45;&gt;Node15</title>
<g id="a_edge47_Node000021_Node000015"><a xlink:title=" ">
<path fill="none" stroke="#63b8ff" d="M814.37,-222.16C869.84,-211.65 970.04,-192.66 1022.27,-182.77"/>
<polygon fill="#63b8ff" stroke="#63b8ff" points="1022.6,-186.27 1031.77,-180.97 1021.3,-179.39 1022.6,-186.27"/>
</a>
</g>
</g>
<!-- Node21&#45;&gt;Node18 -->
<g id="edge46_Node000021_Node000018" class="edge">
<title>Node21&#45;&gt;Node18</title>
<g id="a_edge46_Node000021_Node000018"><a xlink:title=" ">
<path fill="none" stroke="#63b8ff" d="M747.18,-220.59C720.44,-211.91 679.78,-198.71 649.85,-188.99"/>
<polygon fill="#63b8ff" stroke="#63b8ff" points="650.99,-185.68 640.4,-185.92 648.83,-192.34 650.99,-185.68"/>
</a>
</g>
</g>
<!-- Node22&#45;&gt;Node2 -->
<g id="edge53_Node000022_Node000002" class="edge">
<title>Node22&#45;&gt;Node2</title>
<g id="a_edge53_Node000022_Node000002"><a xlink:title=" ">
<path fill="none" stroke="#63b8ff" d="M118.48,-331.07C90.29,-315.11 38,-279.09 38,-231.62 38,-231.62 38,-231.62 38,-174.38 38,-132.59 69.12,-128.14 107,-110.5 159.77,-85.93 325.26,-73.45 410.74,-68.5"/>
<polygon fill="#63b8ff" stroke="#63b8ff" points="410.7,-72.01 420.49,-67.95 410.31,-65.02 410.7,-72.01"/>
</a>
</g>
</g>
<!-- Node22&#45;&gt;Node10 -->
<g id="edge54_Node000022_Node000010" class="edge">
<title>Node22&#45;&gt;Node10</title>
<g id="a_edge54_Node000022_Node000010"><a xlink:title=" ">
<path fill="none" stroke="#63b8ff" d="M141.45,-331.33C145.77,-324.36 151.96,-314.37 157.38,-305.62"/>
<polygon fill="#63b8ff" stroke="#63b8ff" points="160.34,-307.49 162.64,-297.15 154.39,-303.8 160.34,-307.49"/>
</a>
</g>
</g>
<!-- Node23 -->
<g id="Node000023" class="node">
<title>Node23</title>
<g id="a_Node000023"><a xlink:href="mock_software_serial_8h.html" target="_top" xlink:title=" ">
<polygon fill="white" stroke="#666666" points="254,-185 142,-185 142,-165.75 254,-165.75 254,-185"/>
<text text-anchor="middle" x="198" y="-171.5" font-family="Helvetica,sans-Serif" font-size="10.00">mockSoftwareSerial.h</text>
</a>
</g>
</g>
<!-- Node22&#45;&gt;Node23 -->
<g id="edge50_Node000022_Node000023" class="edge">
<title>Node22&#45;&gt;Node23</title>
<g id="a_edge50_Node000022_Node000023"><a xlink:title=" ">
<path fill="none" stroke="#63b8ff" d="M129.13,-331.41C120.28,-319.08 106.85,-295.86 114,-276.25 126.65,-241.55 157.26,-210.54 177.82,-192.59"/>
<polygon fill="#63b8ff" stroke="#63b8ff" points="179.92,-195.4 185.3,-186.28 175.4,-190.05 179.92,-195.4"/>
</a>
</g>
</g>
<!-- Node23&#45;&gt;Node2 -->
<g id="edge51_Node000023_Node000002" class="edge">
<title>Node23&#45;&gt;Node2</title>
<g id="a_edge51_Node000023_Node000002"><a xlink:title=" ">
<path fill="none" stroke="#63b8ff" d="M214.92,-165.43C239.89,-152.41 288.3,-127.9 331,-110.5 360.99,-98.28 395.71,-86.64 422.02,-78.31"/>
<polygon fill="#63b8ff" stroke="#63b8ff" points="422.8,-81.73 431.29,-75.4 420.7,-75.05 422.8,-81.73"/>
</a>
</g>
</g>
<!-- Node23&#45;&gt;Node19 -->
<g id="edge52_Node000023_Node000019" class="edge">
<title>Node23&#45;&gt;Node19</title>
<g id="a_edge52_Node000023_Node000019"><a xlink:title=" ">
<path fill="none" stroke="#63b8ff" d="M254.41,-165.94C321.32,-155.93 432.13,-139.35 498.59,-129.41"/>
<polygon fill="#63b8ff" stroke="#63b8ff" points="498.8,-132.92 508.17,-127.98 497.76,-126 498.8,-132.92"/>
</a>
</g>
</g>
<!-- Node24&#45;&gt;Node2 -->
<g id="edge56_Node000024_Node000002" class="edge">
<title>Node24&#45;&gt;Node2</title>
<g id="a_edge56_Node000024_Node000002"><a xlink:title=" ">
<path fill="none" stroke="#63b8ff" d="M294.99,-275.8C312.6,-249.33 366.26,-170.3 418,-110.5 426.44,-100.74 436.59,-90.56 445.11,-82.39"/>
<polygon fill="#63b8ff" stroke="#63b8ff" points="447.29,-85.15 452.16,-75.75 442.49,-80.06 447.29,-85.15"/>
</a>
</g>
</g>
<!-- Node24&#45;&gt;Node20 -->
<g id="edge57_Node000024_Node000020" class="edge">
<title>Node24&#45;&gt;Node20</title>
<g id="a_edge57_Node000024_Node000020"><a xlink:title=" ">
<path fill="none" stroke="#63b8ff" d="M306.3,-275.84C321.98,-267.66 345.35,-255.46 363.58,-245.94"/>
<polygon fill="#63b8ff" stroke="#63b8ff" points="365.03,-249.13 372.27,-241.4 361.79,-242.93 365.03,-249.13"/>
</a>
</g>
</g>
<!-- Node25&#45;&gt;Node2 -->
<g id="edge59_Node000025_Node000002" class="edge">
<title>Node25&#45;&gt;Node2</title>
<g id="a_edge59_Node000025_Node000002"><a xlink:title=" ">
<path fill="none" stroke="#63b8ff" d="M620.34,-227.35C491.36,-221.07 149.4,-202.82 133,-185 50.54,-95.39 298.14,-73.09 410.57,-67.62"/>
<polygon fill="#63b8ff" stroke="#63b8ff" points="410.63,-71.12 420.46,-67.17 410.31,-64.13 410.63,-71.12"/>
</a>
</g>
</g>
<!-- Node25&#45;&gt;Node13 -->
<g id="edge60_Node000025_Node000013" class="edge">
<title>Node25&#45;&gt;Node13</title>
<g id="a_edge60_Node000025_Node000013"><a xlink:title=" ">
<path fill="none" stroke="#63b8ff" d="M717.8,-221.88C786.33,-210.83 903.6,-191.18 911,-185 940.89,-160.03 950.95,-113.01 954.32,-86.12"/>
<polygon fill="#63b8ff" stroke="#63b8ff" points="957.8,-86.53 955.34,-76.22 950.83,-85.81 957.8,-86.53"/>
</a>
</g>
</g>
<!-- Node25&#45;&gt;Node18 -->
<g id="edge61_Node000025_Node000018" class="edge">
<title>Node25&#45;&gt;Node18</title>
<g id="a_edge61_Node000025_Node000018"><a xlink:title=" ">
<path fill="none" stroke="#63b8ff" d="M659.16,-220.59C650.95,-213.05 639.02,-202.1 629.09,-192.98"/>
<polygon fill="#63b8ff" stroke="#63b8ff" points="631.54,-190.48 621.81,-186.3 626.81,-195.64 631.54,-190.48"/>
</a>
</g>
</g>
<!-- Node26 -->
<g id="Node000026" class="node">
<title>Node26</title>
<g id="a_Node000026"><a xlink:href="_message_8h.html" target="_top" xlink:title=" ">
<polygon fill="white" stroke="#666666" points="902,-185 838,-185 838,-165.75 902,-165.75 902,-185"/>
<text text-anchor="middle" x="870" y="-171.5" font-family="Helvetica,sans-Serif" font-size="10.00">Message.h</text>
</a>
</g>
</g>
<!-- Node25&#45;&gt;Node26 -->
<g id="edge62_Node000025_Node000026" class="edge">
<title>Node25&#45;&gt;Node26</title>
<g id="a_edge62_Node000025_Node000026"><a xlink:title=" ">
<path fill="none" stroke="#63b8ff" d="M703.1,-220.59C737.2,-211.56 789.77,-197.63 826.78,-187.82"/>
<polygon fill="#63b8ff" stroke="#63b8ff" points="827.5,-191.26 836.27,-185.31 825.71,-184.49 827.5,-191.26"/>
</a>
</g>
</g>
<!-- Node26&#45;&gt;Node2 -->
<g id="edge66_Node000026_Node000002" class="edge">
<title>Node26&#45;&gt;Node2</title>
<g id="a_edge66_Node000026_Node000002"><a xlink:title=" ">
<path fill="none" stroke="#63b8ff" d="M851.98,-165.37C823.69,-151.6 766.85,-125.34 716,-110.5 647.93,-90.64 566.84,-78.24 515.14,-71.69"/>
<polygon fill="#63b8ff" stroke="#63b8ff" points="515.79,-68.24 505.44,-70.49 514.94,-75.19 515.79,-68.24"/>
</a>
</g>
</g>
<!-- Node26&#45;&gt;Node3 -->
<g id="edge63_Node000026_Node000003" class="edge">
<title>Node26&#45;&gt;Node3</title>
<g id="a_edge63_Node000026_Node000003"><a xlink:title=" ">
<path fill="none" stroke="#63b8ff" d="M871.84,-165.41C876.7,-143.8 891.76,-88.2 924,-55.25 939.11,-39.81 960.63,-29.01 979.17,-21.91"/>
<polygon fill="#63b8ff" stroke="#63b8ff" points="980.29,-25.22 988.53,-18.56 977.93,-18.63 980.29,-25.22"/>
</a>
</g>
</g>
<!-- Node26&#45;&gt;Node13 -->
<g id="edge64_Node000026_Node000013" class="edge">
<title>Node26&#45;&gt;Node13</title>
<g id="a_edge64_Node000026_Node000013"><a xlink:title=" ">
<path fill="none" stroke="#63b8ff" d="M877.21,-165.52C884.51,-156.53 896.09,-142.22 906,-129.75 918.43,-114.11 932.43,-96.19 942.45,-83.32"/>
<polygon fill="#63b8ff" stroke="#63b8ff" points="944.94,-85.82 948.32,-75.78 939.42,-81.53 944.94,-85.82"/>
</a>
</g>
</g>
<!-- Node26&#45;&gt;Node14 -->
<g id="edge65_Node000026_Node000014" class="edge">
<title>Node26&#45;&gt;Node14</title>
<g id="a_edge65_Node000026_Node000014"><a xlink:title=" ">
<path fill="none" stroke="#63b8ff" d="M894.94,-165.34C919.85,-156.32 958.23,-142.42 985.29,-132.61"/>
<polygon fill="#63b8ff" stroke="#63b8ff" points="986.13,-136.03 994.34,-129.33 983.75,-129.45 986.13,-136.03"/>
</a>
</g>
</g>
<!-- Node26&#45;&gt;Node16 -->
<g id="edge67_Node000026_Node000016" class="edge">
<title>Node26&#45;&gt;Node16</title>
<g id="a_edge67_Node000026_Node000016"><a xlink:title=" ">
<path fill="none" stroke="#63b8ff" d="M864.22,-165.58C859.59,-158.53 852.93,-148.4 847.13,-139.58"/>
<polygon fill="#63b8ff" stroke="#63b8ff" points="850.15,-137.81 841.74,-131.37 844.3,-141.65 850.15,-137.81"/>
</a>
</g>
</g>
</g>
</svg>
