<?xml version="1.0" encoding="UTF-8" standalone="no"?>
<!DOCTYPE svg PUBLIC "-//W3C//DTD SVG 1.1//EN"
 "http://www.w3.org/Graphics/SVG/1.1/DTD/svg11.dtd">
<!-- Generated by graphviz version 12.1.2 (20240928.0832)
 -->
<!-- Title: /Users/felixschulke/Developement/Arduino/Modbus_RTU/Modbus_RTU/Modbus&#45;RTU/lib/Service/Service.h Pages: 1 -->
<svg width="577pt" height="473pt"
 viewBox="0.00 0.00 576.75 473.25" xmlns="http://www.w3.org/2000/svg" xmlns:xlink="http://www.w3.org/1999/xlink">
<g id="graph0" class="graph" transform="scale(1 1) rotate(0) translate(4 469.25)">
<title>/Users/felixschulke/Developement/Arduino/Modbus_RTU/Modbus_RTU/Modbus&#45;RTU/lib/Service/Service.h</title>
<!-- Node1 -->
<g id="Node000001" class="node">
<title>Node1</title>
<g id="a_Node000001"><a xlink:title=" ">
<polygon fill="#999999" stroke="#666666" points="306.5,-465.25 163,-465.25 163,-401 306.5,-401 306.5,-465.25"/>
<text text-anchor="start" x="171" y="-451.75" font-family="Helvetica,sans-Serif" font-size="10.00">/Users/felixschulke</text>
<text text-anchor="start" x="171" y="-440.5" font-family="Helvetica,sans-Serif" font-size="10.00">/Developement/Arduino</text>
<text text-anchor="start" x="171" y="-429.25" font-family="Helvetica,sans-Serif" font-size="10.00">/Modbus_RTU/Modbus_RTU</text>
<text text-anchor="start" x="171" y="-418" font-family="Helvetica,sans-Serif" font-size="10.00">/Modbus&#45;RTU/lib/Service</text>
<text text-anchor="middle" x="234.75" y="-406.75" font-family="Helvetica,sans-Serif" font-size="10.00">/Service.h</text>
</a>
</g>
</g>
<!-- Node2 -->
<g id="Node000002" class="node">
<title>Node2</title>
<g id="a_Node000002"><a xlink:href="_error_service_8h.html" target="_top" xlink:title=" ">
<polygon fill="white" stroke="#666666" points="308.38,-365 161.12,-365 161.12,-300.75 308.38,-300.75 308.38,-365"/>
<text text-anchor="start" x="169.12" y="-351.5" font-family="Helvetica,sans-Serif" font-size="10.00">/Users/felixschulke</text>
<text text-anchor="start" x="169.12" y="-340.25" font-family="Helvetica,sans-Serif" font-size="10.00">/Developement/Arduino</text>
<text text-anchor="start" x="169.12" y="-329" font-family="Helvetica,sans-Serif" font-size="10.00">/Modbus_RTU/Modbus_RTU</text>
<text text-anchor="start" x="169.12" y="-317.75" font-family="Helvetica,sans-Serif" font-size="10.00">/Modbus&#45;RTU/lib/ErrorService</text>
<text text-anchor="middle" x="234.75" y="-306.5" font-family="Helvetica,sans-Serif" font-size="10.00">/ErrorService.h</text>
</a>
</g>
</g>
<!-- Node1&#45;&gt;Node2 -->
<g id="edge1_Node000001_Node000002" class="edge">
<title>Node1&#45;&gt;Node2</title>
<g id="a_edge1_Node000001_Node000002"><a xlink:title=" ">
<path fill="none" stroke="#63b8ff" d="M234.75,-389.51C234.75,-381.37 234.75,-372.98 234.75,-365.27"/>
<polygon fill="#63b8ff" stroke="#63b8ff" points="231.25,-389.25 234.75,-399.25 238.25,-389.25 231.25,-389.25"/>
</a>
</g>
</g>
<!-- Node8 -->
<g id="Node000008" class="node">
<title>Node8</title>
<g id="a_Node000008"><a xlink:href="_message_service_8h.html" target="_top" xlink:title=" ">
<polygon fill="white" stroke="#666666" points="530.75,-264.75 364.75,-264.75 364.75,-200.5 530.75,-200.5 530.75,-264.75"/>
<text text-anchor="start" x="372.75" y="-251.25" font-family="Helvetica,sans-Serif" font-size="10.00">/Users/felixschulke</text>
<text text-anchor="start" x="372.75" y="-240" font-family="Helvetica,sans-Serif" font-size="10.00">/Developement/Arduino</text>
<text text-anchor="start" x="372.75" y="-228.75" font-family="Helvetica,sans-Serif" font-size="10.00">/Modbus_RTU/Modbus_RTU</text>
<text text-anchor="start" x="372.75" y="-217.5" font-family="Helvetica,sans-Serif" font-size="10.00">/Modbus&#45;RTU/lib/MessageService</text>
<text text-anchor="middle" x="447.75" y="-206.25" font-family="Helvetica,sans-Serif" font-size="10.00">/MessageService.h</text>
</a>
</g>
</g>
<!-- Node1&#45;&gt;Node8 -->
<g id="edge8_Node000001_Node000008" class="edge">
<title>Node1&#45;&gt;Node8</title>
<g id="a_edge8_Node000001_Node000008"><a xlink:title=" ">
<path fill="none" stroke="#63b8ff" d="M284.42,-393.44C295.58,-384.34 307.23,-374.52 317.75,-365 353.8,-332.39 392.71,-292.37 418.47,-265.12"/>
<polygon fill="#63b8ff" stroke="#63b8ff" points="282.36,-390.61 276.78,-399.61 286.76,-396.05 282.36,-390.61"/>
</a>
</g>
</g>
<!-- Node10 -->
<g id="Node000010" class="node">
<title>Node10</title>
<g id="a_Node000010"><a xlink:href="_service_cluster_8h.html" target="_top" xlink:title=" ">
<polygon fill="white" stroke="#666666" points="143.5,-365 0,-365 0,-300.75 143.5,-300.75 143.5,-365"/>
<text text-anchor="start" x="8" y="-351.5" font-family="Helvetica,sans-Serif" font-size="10.00">/Users/felixschulke</text>
<text text-anchor="start" x="8" y="-340.25" font-family="Helvetica,sans-Serif" font-size="10.00">/Developement/Arduino</text>
<text text-anchor="start" x="8" y="-329" font-family="Helvetica,sans-Serif" font-size="10.00">/Modbus_RTU/Modbus_RTU</text>
<text text-anchor="start" x="8" y="-317.75" font-family="Helvetica,sans-Serif" font-size="10.00">/Modbus&#45;RTU/lib/Service</text>
<text text-anchor="middle" x="71.75" y="-306.5" font-family="Helvetica,sans-Serif" font-size="10.00">/ServiceCluster.h</text>
</a>
</g>
</g>
<!-- Node1&#45;&gt;Node10 -->
<g id="edge12_Node000001_Node000010" class="edge">
<title>Node1&#45;&gt;Node10</title>
<g id="a_edge12_Node000001_Node000010"><a xlink:title=" ">
<path fill="none" stroke="#63b8ff" d="M172.88,-394.83C156.81,-385.14 139.65,-374.8 124.12,-365.44"/>
<polygon fill="#63b8ff" stroke="#63b8ff" points="171.06,-397.82 181.43,-399.99 174.67,-391.83 171.06,-397.82"/>
</a>
</g>
</g>
<!-- Node3 -->
<g id="Node000003" class="node">
<title>Node3</title>
<g id="a_Node000003"><a xlink:href="_error_service_8cpp.html" target="_top" xlink:title=" ">
<polygon fill="white" stroke="#666666" points="308.38,-264.75 161.12,-264.75 161.12,-200.5 308.38,-200.5 308.38,-264.75"/>
<text text-anchor="start" x="169.12" y="-251.25" font-family="Helvetica,sans-Serif" font-size="10.00">/Users/felixschulke</text>
<text text-anchor="start" x="169.12" y="-240" font-family="Helvetica,sans-Serif" font-size="10.00">/Developement/Arduino</text>
<text text-anchor="start" x="169.12" y="-228.75" font-family="Helvetica,sans-Serif" font-size="10.00">/Modbus_RTU/Modbus_RTU</text>
<text text-anchor="start" x="169.12" y="-217.5" font-family="Helvetica,sans-Serif" font-size="10.00">/Modbus&#45;RTU/lib/ErrorService</text>
<text text-anchor="middle" x="234.75" y="-206.25" font-family="Helvetica,sans-Serif" font-size="10.00">/ErrorService.cpp</text>
</a>
</g>
</g>
<!-- Node2&#45;&gt;Node3 -->
<g id="edge2_Node000002_Node000003" class="edge">
<title>Node2&#45;&gt;Node3</title>
<g id="a_edge2_Node000002_Node000003"><a xlink:title=" ">
<path fill="none" stroke="#63b8ff" d="M234.75,-289.26C234.75,-281.12 234.75,-272.73 234.75,-265.02"/>
<polygon fill="#63b8ff" stroke="#63b8ff" points="231.25,-289 234.75,-299 238.25,-289 231.25,-289"/>
</a>
</g>
</g>
<!-- Node4 -->
<g id="Node000004" class="node">
<title>Node4</title>
<g id="a_Node000004"><a xlink:href="_service_interface_8h.html" target="_top" xlink:title=" ">
<polygon fill="white" stroke="#666666" points="143.5,-264.75 0,-264.75 0,-200.5 143.5,-200.5 143.5,-264.75"/>
<text text-anchor="start" x="8" y="-251.25" font-family="Helvetica,sans-Serif" font-size="10.00">/Users/felixschulke</text>
<text text-anchor="start" x="8" y="-240" font-family="Helvetica,sans-Serif" font-size="10.00">/Developement/Arduino</text>
<text text-anchor="start" x="8" y="-228.75" font-family="Helvetica,sans-Serif" font-size="10.00">/Modbus_RTU/Modbus_RTU</text>
<text text-anchor="start" x="8" y="-217.5" font-family="Helvetica,sans-Serif" font-size="10.00">/Modbus&#45;RTU/lib/Interface</text>
<text text-anchor="middle" x="71.75" y="-206.25" font-family="Helvetica,sans-Serif" font-size="10.00">/ServiceInterface.h</text>
</a>
</g>
</g>
<!-- Node2&#45;&gt;Node4 -->
<g id="edge3_Node000002_Node000004" class="edge">
<title>Node2&#45;&gt;Node4</title>
<g id="a_edge3_Node000002_Node000004"><a xlink:title=" ">
<path fill="none" stroke="#63b8ff" d="M172.88,-294.58C156.81,-284.89 139.65,-274.55 124.12,-265.19"/>
<polygon fill="#63b8ff" stroke="#63b8ff" points="171.06,-297.57 181.43,-299.74 174.67,-291.58 171.06,-297.57"/>
</a>
</g>
</g>
<!-- Node7 -->
<g id="Node000007" class="node">
<title>Node7</title>
<g id="a_Node000007"><a xlink:href="main_8cpp.html" target="_top" xlink:title="This main is an example&#45;implementation of a simple modbus&#45;messenger to demonstrate the usage of a lay...">
<polygon fill="white" stroke="#666666" points="427.5,-58.62 284,-58.62 284,-5.62 427.5,-5.62 427.5,-58.62"/>
<text text-anchor="start" x="292" y="-45.12" font-family="Helvetica,sans-Serif" font-size="10.00">/Users/felixschulke</text>
<text text-anchor="start" x="292" y="-33.88" font-family="Helvetica,sans-Serif" font-size="10.00">/Developement/Arduino</text>
<text text-anchor="start" x="292" y="-22.62" font-family="Helvetica,sans-Serif" font-size="10.00">/Modbus_RTU/Modbus_RTU</text>
<text text-anchor="middle" x="355.75" y="-11.38" font-family="Helvetica,sans-Serif" font-size="10.00">/Modbus&#45;RTU/src/main.cpp</text>
</a>
</g>
</g>
<!-- Node2&#45;&gt;Node7 -->
<g id="edge7_Node000002_Node000007" class="edge">
<title>Node2&#45;&gt;Node7</title>
<g id="a_edge7_Node000002_Node000007"><a xlink:title=" ">
<path fill="none" stroke="#63b8ff" d="M294.27,-292.96C303.34,-284.64 311.69,-275.18 317.75,-264.75 356.36,-198.35 358.71,-104.15 357.27,-59.09"/>
<polygon fill="#63b8ff" stroke="#63b8ff" points="292.22,-290.1 286.92,-299.28 296.79,-295.41 292.22,-290.1"/>
</a>
</g>
</g>
<!-- Node5 -->
<g id="Node000005" class="node">
<title>Node5</title>
<g id="a_Node000005"><a xlink:href="_service_interface__modbus_r_t_u_8h.html" target="_top" xlink:title=" ">
<polygon fill="white" stroke="#666666" points="274.38,-164.5 115.12,-164.5 115.12,-100.25 274.38,-100.25 274.38,-164.5"/>
<text text-anchor="start" x="123.12" y="-151" font-family="Helvetica,sans-Serif" font-size="10.00">/Users/felixschulke</text>
<text text-anchor="start" x="123.12" y="-139.75" font-family="Helvetica,sans-Serif" font-size="10.00">/Developement/Arduino</text>
<text text-anchor="start" x="123.12" y="-128.5" font-family="Helvetica,sans-Serif" font-size="10.00">/Modbus_RTU/Modbus_RTU</text>
<text text-anchor="start" x="123.12" y="-117.25" font-family="Helvetica,sans-Serif" font-size="10.00">/Modbus&#45;RTU/lib/ModbusRTU</text>
<text text-anchor="middle" x="194.75" y="-106" font-family="Helvetica,sans-Serif" font-size="10.00">/ServiceInterface_modbusRTU.h</text>
</a>
</g>
</g>
<!-- Node4&#45;&gt;Node5 -->
<g id="edge4_Node000004_Node000005" class="edge">
<title>Node4&#45;&gt;Node5</title>
<g id="a_edge4_Node000004_Node000005"><a xlink:title=" ">
<path fill="none" stroke="#63b8ff" d="M119.86,-193.2C131.65,-183.78 144.12,-173.81 155.44,-164.77"/>
<polygon fill="#63b8ff" stroke="#63b8ff" points="117.82,-190.35 112.19,-199.32 122.19,-195.82 117.82,-190.35"/>
</a>
</g>
</g>
<!-- Node6 -->
<g id="Node000006" class="node">
<title>Node6</title>
<g id="a_Node000006"><a xlink:href="_service_interface__modbus_r_t_u_8cpp.html" target="_top" xlink:title=" ">
<polygon fill="white" stroke="#666666" points="265.62,-64.25 95.88,-64.25 95.88,0 265.62,0 265.62,-64.25"/>
<text text-anchor="start" x="103.88" y="-50.75" font-family="Helvetica,sans-Serif" font-size="10.00">/Users/felixschulke</text>
<text text-anchor="start" x="103.88" y="-39.5" font-family="Helvetica,sans-Serif" font-size="10.00">/Developement/Arduino</text>
<text text-anchor="start" x="103.88" y="-28.25" font-family="Helvetica,sans-Serif" font-size="10.00">/Modbus_RTU/Modbus_RTU</text>
<text text-anchor="start" x="103.88" y="-17" font-family="Helvetica,sans-Serif" font-size="10.00">/Modbus&#45;RTU/lib/ModbusRTU</text>
<text text-anchor="middle" x="180.75" y="-5.75" font-family="Helvetica,sans-Serif" font-size="10.00">/ServiceInterface_modbusRTU.cpp</text>
</a>
</g>
</g>
<!-- Node5&#45;&gt;Node6 -->
<g id="edge5_Node000005_Node000006" class="edge">
<title>Node5&#45;&gt;Node6</title>
<g id="a_edge5_Node000005_Node000006"><a xlink:title=" ">
<path fill="none" stroke="#63b8ff" d="M188.68,-88.76C187.52,-80.62 186.32,-72.23 185.22,-64.52"/>
<polygon fill="#63b8ff" stroke="#63b8ff" points="185.19,-89.11 190.07,-98.52 192.12,-88.13 185.19,-89.11"/>
</a>
</g>
</g>
<!-- Node5&#45;&gt;Node7 -->
<g id="edge6_Node000005_Node000007" class="edge">
<title>Node5&#45;&gt;Node7</title>
<g id="a_edge6_Node000005_Node000007"><a xlink:title=" ">
<path fill="none" stroke="#63b8ff" d="M255.95,-94.03C275.05,-82.37 295.68,-69.78 313.2,-59.09"/>
<polygon fill="#63b8ff" stroke="#63b8ff" points="254.14,-91.03 247.43,-99.23 257.79,-97.01 254.14,-91.03"/>
</a>
</g>
</g>
<!-- Node8&#45;&gt;Node5 -->
<g id="edge10_Node000008_Node000005" class="edge">
<title>Node8&#45;&gt;Node5</title>
<g id="a_edge10_Node000008_Node000005"><a xlink:title=" ">
<path fill="none" stroke="#63b8ff" d="M356.15,-196.05C329.42,-185.67 300.45,-174.42 274.52,-164.35"/>
<polygon fill="#63b8ff" stroke="#63b8ff" points="354.66,-199.23 365.24,-199.58 357.19,-192.7 354.66,-199.23"/>
</a>
</g>
</g>
<!-- Node8&#45;&gt;Node7 -->
<g id="edge11_Node000008_Node000007" class="edge">
<title>Node8&#45;&gt;Node7</title>
<g id="a_edge11_Node000008_Node000007"><a xlink:title=" ">
<path fill="none" stroke="#63b8ff" d="M411.24,-191.44C404.76,-182.95 398.56,-173.76 393.75,-164.5 375.9,-130.16 365.37,-86.29 360.08,-58.95"/>
<polygon fill="#63b8ff" stroke="#63b8ff" points="408.41,-193.5 417.38,-199.14 413.88,-189.14 408.41,-193.5"/>
</a>
</g>
</g>
<!-- Node9 -->
<g id="Node000009" class="node">
<title>Node9</title>
<g id="a_Node000009"><a xlink:href="_message_service_8cpp.html" target="_top" xlink:title=" ">
<polygon fill="white" stroke="#666666" points="568.75,-164.5 402.75,-164.5 402.75,-100.25 568.75,-100.25 568.75,-164.5"/>
<text text-anchor="start" x="410.75" y="-151" font-family="Helvetica,sans-Serif" font-size="10.00">/Users/felixschulke</text>
<text text-anchor="start" x="410.75" y="-139.75" font-family="Helvetica,sans-Serif" font-size="10.00">/Developement/Arduino</text>
<text text-anchor="start" x="410.75" y="-128.5" font-family="Helvetica,sans-Serif" font-size="10.00">/Modbus_RTU/Modbus_RTU</text>
<text text-anchor="start" x="410.75" y="-117.25" font-family="Helvetica,sans-Serif" font-size="10.00">/Modbus&#45;RTU/lib/MessageService</text>
<text text-anchor="middle" x="485.75" y="-106" font-family="Helvetica,sans-Serif" font-size="10.00">/MessageService.cpp</text>
</a>
</g>
</g>
<!-- Node8&#45;&gt;Node9 -->
<g id="edge9_Node000008_Node000009" class="edge">
<title>Node8&#45;&gt;Node9</title>
<g id="a_edge9_Node000008_Node000009"><a xlink:title=" ">
<path fill="none" stroke="#63b8ff" d="M464.01,-189.57C467.23,-181.26 470.56,-172.66 473.61,-164.77"/>
<polygon fill="#63b8ff" stroke="#63b8ff" points="460.77,-188.27 460.42,-198.86 467.3,-190.79 460.77,-188.27"/>
</a>
</g>
</g>
<!-- Node10&#45;&gt;Node4 -->
<g id="edge13_Node000010_Node000004" class="edge">
<title>Node10&#45;&gt;Node4</title>
<g id="a_edge13_Node000010_Node000004"><a xlink:title=" ">
<path fill="none" stroke="#63b8ff" d="M71.75,-289.26C71.75,-281.12 71.75,-272.73 71.75,-265.02"/>
<polygon fill="#63b8ff" stroke="#63b8ff" points="68.25,-289 71.75,-299 75.25,-289 68.25,-289"/>
</a>
</g>
</g>
</g>
</svg>
