<?xml version="1.0" encoding="UTF-8" standalone="no"?>
<!DOCTYPE svg PUBLIC "-//W3C//DTD SVG 1.1//EN"
 "http://www.w3.org/Graphics/SVG/1.1/DTD/svg11.dtd">
<!-- Generated by graphviz version 12.1.2 (20240928.0832)
 -->
<!-- Title: /Users/felixschulke/Developement/Arduino/Modbus_RTU/Modbus_RTU/Modbus&#45;RTU/lib/Interface/ServiceInterface.h Pages: 1 -->
<svg width="821pt" height="404pt"
 viewBox="0.00 0.00 820.99 403.75" xmlns="http://www.w3.org/2000/svg" xmlns:xlink="http://www.w3.org/1999/xlink">
<g id="graph0" class="graph" transform="scale(1 1) rotate(0) translate(4 399.75)">
<title>/Users/felixschulke/Developement/Arduino/Modbus_RTU/Modbus_RTU/Modbus&#45;RTU/lib/Interface/ServiceInterface.h</title>
<!-- Node1 -->
<g id="Node000001" class="node">
<title>Node1</title>
<g id="a_Node000001"><a xlink:title=" ">
<polygon fill="#999999" stroke="#666666" points="315.75,-395.75 172.25,-395.75 172.25,-331.5 315.75,-331.5 315.75,-395.75"/>
<text text-anchor="start" x="180.25" y="-382.25" font-family="Helvetica,sans-Serif" font-size="10.00">/Users/felixschulke</text>
<text text-anchor="start" x="180.25" y="-371" font-family="Helvetica,sans-Serif" font-size="10.00">/Developement/Arduino</text>
<text text-anchor="start" x="180.25" y="-359.75" font-family="Helvetica,sans-Serif" font-size="10.00">/Modbus_RTU/Modbus_RTU</text>
<text text-anchor="start" x="180.25" y="-348.5" font-family="Helvetica,sans-Serif" font-size="10.00">/Modbus&#45;RTU/lib/Interface</text>
<text text-anchor="middle" x="244" y="-337.25" font-family="Helvetica,sans-Serif" font-size="10.00">/ServiceInterface.h</text>
</a>
</g>
</g>
<!-- Node2 -->
<g id="Node000002" class="node">
<title>Node2</title>
<g id="a_Node000002"><a xlink:href="mock_arduino_8h.html" target="_top" xlink:title=" ">
<polygon fill="white" stroke="#666666" points="278.62,-74.5 197.38,-74.5 197.38,-55.25 278.62,-55.25 278.62,-74.5"/>
<text text-anchor="middle" x="238" y="-61" font-family="Helvetica,sans-Serif" font-size="10.00">mockArduino.h</text>
</a>
</g>
</g>
<!-- Node1&#45;&gt;Node2 -->
<g id="edge1_Node000001_Node000002" class="edge">
<title>Node1&#45;&gt;Node2</title>
<g id="a_edge1_Node000001_Node000002"><a xlink:title=" ">
<path fill="none" stroke="#63b8ff" d="M171.78,-354.52C99.83,-341.97 0,-310.36 0,-231.62 0,-231.62 0,-231.62 0,-174.38 0,-93.29 115.79,-72.53 185.84,-67.39"/>
<polygon fill="#63b8ff" stroke="#63b8ff" points="185.82,-70.9 195.58,-66.77 185.37,-63.92 185.82,-70.9"/>
</a>
</g>
</g>
<!-- Node9 -->
<g id="Node000009" class="node">
<title>Node9</title>
<g id="a_Node000009"><a xlink:href="_comm_interface_8h.html" target="_top" xlink:title=" ">
<polygon fill="white" stroke="#666666" points="143.88,-295.5 52.12,-295.5 52.12,-276.25 143.88,-276.25 143.88,-295.5"/>
<text text-anchor="middle" x="98" y="-282" font-family="Helvetica,sans-Serif" font-size="10.00">CommInterface.h</text>
</a>
</g>
</g>
<!-- Node1&#45;&gt;Node9 -->
<g id="edge8_Node000001_Node000009" class="edge">
<title>Node1&#45;&gt;Node9</title>
<g id="a_edge8_Node000001_Node000009"><a xlink:title=" ">
<path fill="none" stroke="#63b8ff" d="M183.35,-331.16C163.17,-320.69 141.69,-309.54 125.33,-301.06"/>
<polygon fill="#63b8ff" stroke="#63b8ff" points="127.22,-298.09 116.73,-296.59 123.99,-304.3 127.22,-298.09"/>
</a>
</g>
</g>
<!-- Node11 -->
<g id="Node000011" class="node">
<title>Node11</title>
<g id="a_Node000011"><a xlink:href="_error_state_8h.html" target="_top" xlink:title=" ">
<polygon fill="white" stroke="#666666" points="349.25,-240.25 280.75,-240.25 280.75,-221 349.25,-221 349.25,-240.25"/>
<text text-anchor="middle" x="315" y="-226.75" font-family="Helvetica,sans-Serif" font-size="10.00">ErrorState.h</text>
</a>
</g>
</g>
<!-- Node1&#45;&gt;Node11 -->
<g id="edge46_Node000001_Node000011" class="edge">
<title>Node1&#45;&gt;Node11</title>
<g id="a_edge46_Node000001_Node000011"><a xlink:title=" ">
<path fill="none" stroke="#63b8ff" d="M272.92,-331.28C281.64,-320.55 290.59,-308.07 297,-295.5 304.06,-281.65 308.68,-264.67 311.47,-251.69"/>
<polygon fill="#63b8ff" stroke="#63b8ff" points="314.84,-252.68 313.31,-242.2 307.97,-251.35 314.84,-252.68"/>
</a>
</g>
</g>
<!-- Node16 -->
<g id="Node000016" class="node">
<title>Node16</title>
<g id="a_Node000016"><a xlink:href="_service_cluster_8h.html" target="_top" xlink:title=" ">
<polygon fill="white" stroke="#666666" points="288,-295.5 200,-295.5 200,-276.25 288,-276.25 288,-295.5"/>
<text text-anchor="middle" x="244" y="-282" font-family="Helvetica,sans-Serif" font-size="10.00">ServiceCluster.h</text>
</a>
</g>
</g>
<!-- Node1&#45;&gt;Node16 -->
<g id="edge25_Node000001_Node000016" class="edge">
<title>Node1&#45;&gt;Node16</title>
<g id="a_edge25_Node000001_Node000016"><a xlink:title=" ">
<path fill="none" stroke="#63b8ff" d="M244,-331.38C244,-323.23 244,-314.66 244,-307.23"/>
<polygon fill="#63b8ff" stroke="#63b8ff" points="247.5,-307.3 244,-297.3 240.5,-307.3 247.5,-307.3"/>
</a>
</g>
</g>
<!-- Node18 -->
<g id="Node000018" class="node">
<title>Node18</title>
<g id="a_Node000018"><a xlink:href="_content__stack_8h.html" target="_top" xlink:title=" ">
<polygon fill="white" stroke="#666666" points="718,-129.75 630,-129.75 630,-110.5 718,-110.5 718,-129.75"/>
<text text-anchor="middle" x="674" y="-116.25" font-family="Helvetica,sans-Serif" font-size="10.00">Content_stack.h</text>
</a>
</g>
</g>
<!-- Node1&#45;&gt;Node18 -->
<g id="edge40_Node000001_Node000018" class="edge">
<title>Node1&#45;&gt;Node18</title>
<g id="a_edge40_Node000001_Node000018"><a xlink:title=" ">
<path fill="none" stroke="#63b8ff" d="M315.97,-333.36C389.8,-301.8 506.47,-247.58 598,-185 619.21,-170.5 641.49,-151.23 656.4,-137.66"/>
<polygon fill="#63b8ff" stroke="#63b8ff" points="658.57,-140.42 663.54,-131.07 653.82,-135.28 658.57,-140.42"/>
</a>
</g>
</g>
<!-- Node19 -->
<g id="Node000019" class="node">
<title>Node19</title>
<g id="a_Node000019"><a xlink:href="_frame_8h.html" target="_top" xlink:title=" ">
<polygon fill="white" stroke="#666666" points="184,-240.25 132,-240.25 132,-221 184,-221 184,-240.25"/>
<text text-anchor="middle" x="158" y="-226.75" font-family="Helvetica,sans-Serif" font-size="10.00">Frame.h</text>
</a>
</g>
</g>
<!-- Node1&#45;&gt;Node19 -->
<g id="edge39_Node000001_Node000019" class="edge">
<title>Node1&#45;&gt;Node19</title>
<g id="a_edge39_Node000001_Node000019"><a xlink:title=" ">
<path fill="none" stroke="#63b8ff" d="M217.09,-331.12C208.3,-320.17 198.8,-307.61 191,-295.5 181.69,-281.06 172.85,-263.68 166.67,-250.69"/>
<polygon fill="#63b8ff" stroke="#63b8ff" points="170,-249.56 162.61,-241.97 163.65,-252.52 170,-249.56"/>
</a>
</g>
</g>
<!-- Node20 -->
<g id="Node000020" class="node">
<title>Node20</title>
<g id="a_Node000020"><a xlink:href="_error_service_8h.html" target="_top" xlink:title=" ">
<polygon fill="white" stroke="#666666" points="488.12,-240.25 409.88,-240.25 409.88,-221 488.12,-221 488.12,-240.25"/>
<text text-anchor="middle" x="449" y="-226.75" font-family="Helvetica,sans-Serif" font-size="10.00">ErrorService.h</text>
</a>
</g>
</g>
<!-- Node1&#45;&gt;Node20 -->
<g id="edge41_Node000001_Node000020" class="edge">
<title>Node1&#45;&gt;Node20</title>
<g id="a_edge41_Node000001_Node000020"><a xlink:title=" ">
<path fill="none" stroke="#63b8ff" d="M293.36,-331.08C335.27,-304.3 393.56,-267.05 425.59,-246.59"/>
<polygon fill="#63b8ff" stroke="#63b8ff" points="427.2,-249.71 433.74,-241.38 423.43,-243.81 427.2,-249.71"/>
</a>
</g>
</g>
<!-- Node3 -->
<g id="Node000003" class="node">
<title>Node3</title>
<g id="a_Node000003"><a xlink:title=" ">
<polygon fill="#e0e0e0" stroke="#999999" points="429.75,-19.25 376.25,-19.25 376.25,0 429.75,0 429.75,-19.25"/>
<text text-anchor="middle" x="403" y="-5.75" font-family="Helvetica,sans-Serif" font-size="10.00">iostream</text>
</a>
</g>
</g>
<!-- Node2&#45;&gt;Node3 -->
<g id="edge2_Node000002_Node000003" class="edge">
<title>Node2&#45;&gt;Node3</title>
<g id="a_edge2_Node000002_Node000003"><a xlink:title=" ">
<path fill="none" stroke="#63b8ff" d="M265.99,-54.84C293.34,-46.02 335.16,-32.52 365.4,-22.76"/>
<polygon fill="#63b8ff" stroke="#63b8ff" points="366.09,-26.22 374.53,-19.81 363.94,-19.55 366.09,-26.22"/>
</a>
</g>
</g>
<!-- Node4 -->
<g id="Node000004" class="node">
<title>Node4</title>
<g id="a_Node000004"><a xlink:title=" ">
<polygon fill="#e0e0e0" stroke="#999999" points="226,-19.25 186,-19.25 186,0 226,0 226,-19.25"/>
<text text-anchor="middle" x="206" y="-5.75" font-family="Helvetica,sans-Serif" font-size="10.00">string</text>
</a>
</g>
</g>
<!-- Node2&#45;&gt;Node4 -->
<g id="edge3_Node000002_Node000004" class="edge">
<title>Node2&#45;&gt;Node4</title>
<g id="a_edge3_Node000002_Node000004"><a xlink:title=" ">
<path fill="none" stroke="#63b8ff" d="M232.72,-55.08C228.53,-48.11 222.52,-38.12 217.27,-29.37"/>
<polygon fill="#63b8ff" stroke="#63b8ff" points="220.33,-27.68 212.18,-20.91 214.33,-31.28 220.33,-27.68"/>
</a>
</g>
</g>
<!-- Node5 -->
<g id="Node000005" class="node">
<title>Node5</title>
<g id="a_Node000005"><a xlink:title=" ">
<polygon fill="#e0e0e0" stroke="#999999" points="295.62,-19.25 244.38,-19.25 244.38,0 295.62,0 295.62,-19.25"/>
<text text-anchor="middle" x="270" y="-5.75" font-family="Helvetica,sans-Serif" font-size="10.00">sstream</text>
</a>
</g>
</g>
<!-- Node2&#45;&gt;Node5 -->
<g id="edge4_Node000002_Node000005" class="edge">
<title>Node2&#45;&gt;Node5</title>
<g id="a_edge4_Node000002_Node000005"><a xlink:title=" ">
<path fill="none" stroke="#63b8ff" d="M243.28,-55.08C247.47,-48.11 253.48,-38.12 258.73,-29.37"/>
<polygon fill="#63b8ff" stroke="#63b8ff" points="261.67,-31.28 263.82,-20.91 255.67,-27.68 261.67,-31.28"/>
</a>
</g>
</g>
<!-- Node6 -->
<g id="Node000006" class="node">
<title>Node6</title>
<g id="a_Node000006"><a xlink:title=" ">
<polygon fill="#e0e0e0" stroke="#999999" points="358.62,-19.25 313.38,-19.25 313.38,0 358.62,0 358.62,-19.25"/>
<text text-anchor="middle" x="336" y="-5.75" font-family="Helvetica,sans-Serif" font-size="10.00">chrono</text>
</a>
</g>
</g>
<!-- Node2&#45;&gt;Node6 -->
<g id="edge5_Node000002_Node000006" class="edge">
<title>Node2&#45;&gt;Node6</title>
<g id="a_edge5_Node000002_Node000006"><a xlink:title=" ">
<path fill="none" stroke="#63b8ff" d="M254.62,-54.84C269.69,-46.66 292.14,-34.46 309.65,-24.94"/>
<polygon fill="#63b8ff" stroke="#63b8ff" points="310.85,-28.27 317.96,-20.43 307.51,-22.12 310.85,-28.27"/>
</a>
</g>
</g>
<!-- Node7 -->
<g id="Node000007" class="node">
<title>Node7</title>
<g id="a_Node000007"><a xlink:title=" ">
<polygon fill="#e0e0e0" stroke="#999999" points="92.12,-19.25 49.88,-19.25 49.88,0 92.12,0 92.12,-19.25"/>
<text text-anchor="middle" x="71" y="-5.75" font-family="Helvetica,sans-Serif" font-size="10.00">queue</text>
</a>
</g>
</g>
<!-- Node2&#45;&gt;Node7 -->
<g id="edge6_Node000002_Node000007" class="edge">
<title>Node2&#45;&gt;Node7</title>
<g id="a_edge6_Node000002_Node000007"><a xlink:title=" ">
<path fill="none" stroke="#63b8ff" d="M209.67,-54.84C180.17,-45.43 134.02,-30.72 103.17,-20.88"/>
<polygon fill="#63b8ff" stroke="#63b8ff" points="104.58,-17.66 93.99,-17.96 102.46,-24.33 104.58,-17.66"/>
</a>
</g>
</g>
<!-- Node8 -->
<g id="Node000008" class="node">
<title>Node8</title>
<g id="a_Node000008"><a xlink:title=" ">
<polygon fill="#e0e0e0" stroke="#999999" points="168,-19.25 110,-19.25 110,0 168,0 168,-19.25"/>
<text text-anchor="middle" x="139" y="-5.75" font-family="Helvetica,sans-Serif" font-size="10.00">functional</text>
</a>
</g>
</g>
<!-- Node2&#45;&gt;Node8 -->
<g id="edge7_Node000002_Node000008" class="edge">
<title>Node2&#45;&gt;Node8</title>
<g id="a_edge7_Node000002_Node000008"><a xlink:title=" ">
<path fill="none" stroke="#63b8ff" d="M221.21,-54.84C205.99,-46.66 183.3,-34.46 165.62,-24.94"/>
<polygon fill="#63b8ff" stroke="#63b8ff" points="167.67,-22.07 157.21,-20.42 164.36,-28.24 167.67,-22.07"/>
</a>
</g>
</g>
<!-- Node9&#45;&gt;Node2 -->
<g id="edge9_Node000009_Node000002" class="edge">
<title>Node9&#45;&gt;Node2</title>
<g id="a_edge9_Node000009_Node000002"><a xlink:title=" ">
<path fill="none" stroke="#63b8ff" d="M90.25,-275.93C73.74,-255.71 38.06,-205.18 57,-165.75 80.92,-115.94 141.53,-89.92 186.05,-77.09"/>
<polygon fill="#63b8ff" stroke="#63b8ff" points="186.81,-80.51 195.53,-74.5 184.96,-73.76 186.81,-80.51"/>
</a>
</g>
</g>
<!-- Node10 -->
<g id="Node000010" class="node">
<title>Node10</title>
<g id="a_Node000010"><a xlink:href="_char_array_8h.html" target="_top" xlink:title=" ">
<polygon fill="white" stroke="#666666" points="133.5,-185 66.5,-185 66.5,-165.75 133.5,-165.75 133.5,-185"/>
<text text-anchor="middle" x="100" y="-171.5" font-family="Helvetica,sans-Serif" font-size="10.00">CharArray.h</text>
</a>
</g>
</g>
<!-- Node9&#45;&gt;Node10 -->
<g id="edge10_Node000009_Node000010" class="edge">
<title>Node9&#45;&gt;Node10</title>
<g id="a_edge10_Node000009_Node000010"><a xlink:title=" ">
<path fill="none" stroke="#63b8ff" d="M98.16,-276C98.48,-258.75 99.19,-220.33 99.63,-196.56"/>
<polygon fill="#63b8ff" stroke="#63b8ff" points="103.12,-196.95 99.81,-186.89 96.12,-196.82 103.12,-196.95"/>
</a>
</g>
</g>
<!-- Node9&#45;&gt;Node11 -->
<g id="edge12_Node000009_Node000011" class="edge">
<title>Node9&#45;&gt;Node11</title>
<g id="a_edge12_Node000009_Node000011"><a xlink:title=" ">
<path fill="none" stroke="#63b8ff" d="M134.81,-275.84C171.98,-266.72 229.46,-252.61 269.47,-242.8"/>
<polygon fill="#63b8ff" stroke="#63b8ff" points="270.17,-246.23 279.05,-240.45 268.5,-239.43 270.17,-246.23"/>
</a>
</g>
</g>
<!-- Node10&#45;&gt;Node2 -->
<g id="edge11_Node000010_Node000002" class="edge">
<title>Node10&#45;&gt;Node2</title>
<g id="a_edge11_Node000010_Node000002"><a xlink:title=" ">
<path fill="none" stroke="#63b8ff" d="M104.85,-165.49C112.51,-152.11 128.58,-126.63 148,-110.5 163.88,-97.3 184.33,-86.76 201.72,-79.25"/>
<polygon fill="#63b8ff" stroke="#63b8ff" points="202.78,-82.6 210.69,-75.54 200.11,-76.13 202.78,-82.6"/>
</a>
</g>
</g>
<!-- Node11&#45;&gt;Node2 -->
<g id="edge16_Node000011_Node000002" class="edge">
<title>Node11&#45;&gt;Node2</title>
<g id="a_edge16_Node000011_Node000002"><a xlink:title=" ">
<path fill="none" stroke="#63b8ff" d="M309.78,-220.73C299.79,-203.51 277.57,-164.29 262,-129.75 255.43,-115.18 249.12,-98.23 244.62,-85.46"/>
<polygon fill="#63b8ff" stroke="#63b8ff" points="247.97,-84.44 241.41,-76.13 241.36,-86.72 247.97,-84.44"/>
</a>
</g>
</g>
<!-- Node11&#45;&gt;Node3 -->
<g id="edge13_Node000011_Node000003" class="edge">
<title>Node11&#45;&gt;Node3</title>
<g id="a_edge13_Node000011_Node000003"><a xlink:title=" ">
<path fill="none" stroke="#63b8ff" d="M314.98,-220.59C315.21,-200.2 317.46,-149.34 333,-110.5 345.79,-78.55 370.55,-46.91 386.94,-28.06"/>
<polygon fill="#63b8ff" stroke="#63b8ff" points="389.37,-30.59 393.41,-20.8 384.15,-25.93 389.37,-30.59"/>
</a>
</g>
</g>
<!-- Node12 -->
<g id="Node000012" class="node">
<title>Node12</title>
<g id="a_Node000012"><a xlink:title=" ">
<polygon fill="#e0e0e0" stroke="#999999" points="732.62,-74.5 687.38,-74.5 687.38,-55.25 732.62,-55.25 732.62,-74.5"/>
<text text-anchor="middle" x="710" y="-61" font-family="Helvetica,sans-Serif" font-size="10.00">cstring</text>
</a>
</g>
</g>
<!-- Node11&#45;&gt;Node12 -->
<g id="edge14_Node000011_Node000012" class="edge">
<title>Node11&#45;&gt;Node12</title>
<g id="a_edge14_Node000011_Node000012"><a xlink:title=" ">
<path fill="none" stroke="#63b8ff" d="M349.45,-226.5C403.21,-221.1 510.02,-208.32 598,-185 665.06,-167.23 704.57,-186.83 744,-129.75 754.43,-114.66 741.9,-96 729.21,-82.76"/>
<polygon fill="#63b8ff" stroke="#63b8ff" points="731.8,-80.4 722.17,-75.98 726.95,-85.44 731.8,-80.4"/>
</a>
</g>
</g>
<!-- Node13 -->
<g id="Node000013" class="node">
<title>Node13</title>
<g id="a_Node000013"><a xlink:title=" ">
<polygon fill="#e0e0e0" stroke="#999999" points="384.12,-129.75 341.88,-129.75 341.88,-110.5 384.12,-110.5 384.12,-129.75"/>
<text text-anchor="middle" x="363" y="-116.25" font-family="Helvetica,sans-Serif" font-size="10.00">cstdio</text>
</a>
</g>
</g>
<!-- Node11&#45;&gt;Node13 -->
<g id="edge15_Node000011_Node000013" class="edge">
<title>Node11&#45;&gt;Node13</title>
<g id="a_edge15_Node000011_Node000013"><a xlink:title=" ">
<path fill="none" stroke="#63b8ff" d="M318.93,-220.75C326.66,-203.26 344.02,-164.02 354.5,-140.34"/>
<polygon fill="#63b8ff" stroke="#63b8ff" points="357.56,-142.07 358.41,-131.51 351.16,-139.24 357.56,-142.07"/>
</a>
</g>
</g>
<!-- Node14 -->
<g id="Node000014" class="node">
<title>Node14</title>
<g id="a_Node000014"><a xlink:href="_error_8h.html" target="_top" xlink:title=" ">
<polygon fill="white" stroke="#666666" points="471.25,-185 426.75,-185 426.75,-165.75 471.25,-165.75 471.25,-185"/>
<text text-anchor="middle" x="449" y="-171.5" font-family="Helvetica,sans-Serif" font-size="10.00">Error.h</text>
</a>
</g>
</g>
<!-- Node11&#45;&gt;Node14 -->
<g id="edge17_Node000011_Node000014" class="edge">
<title>Node11&#45;&gt;Node14</title>
<g id="a_edge17_Node000011_Node000014"><a xlink:title=" ">
<path fill="none" stroke="#63b8ff" d="M337.73,-220.59C359.23,-212.05 391.73,-199.13 416.07,-189.46"/>
<polygon fill="#63b8ff" stroke="#63b8ff" points="417.2,-192.78 425.2,-185.83 414.61,-186.27 417.2,-192.78"/>
</a>
</g>
</g>
<!-- Node14&#45;&gt;Node2 -->
<g id="edge21_Node000014_Node000002" class="edge">
<title>Node14&#45;&gt;Node2</title>
<g id="a_edge21_Node000014_Node000002"><a xlink:title=" ">
<path fill="none" stroke="#63b8ff" d="M443.64,-165.51C434.82,-151.68 415.91,-125.04 393,-110.5 361.84,-90.72 321.67,-79.48 290.04,-73.22"/>
<polygon fill="#63b8ff" stroke="#63b8ff" points="290.76,-69.8 280.29,-71.42 289.48,-76.68 290.76,-69.8"/>
</a>
</g>
</g>
<!-- Node14&#45;&gt;Node3 -->
<g id="edge18_Node000014_Node000003" class="edge">
<title>Node14&#45;&gt;Node3</title>
<g id="a_edge18_Node000014_Node000003"><a xlink:title=" ">
<path fill="none" stroke="#63b8ff" d="M446.53,-165.57C439.38,-140.14 418.58,-66.1 408.55,-30.37"/>
<polygon fill="#63b8ff" stroke="#63b8ff" points="411.97,-29.61 405.89,-20.93 405.23,-31.5 411.97,-29.61"/>
</a>
</g>
</g>
<!-- Node14&#45;&gt;Node12 -->
<g id="edge19_Node000014_Node000012" class="edge">
<title>Node14&#45;&gt;Node12</title>
<g id="a_edge19_Node000014_Node000012"><a xlink:title=" ">
<path fill="none" stroke="#63b8ff" d="M470.8,-165.31C516.77,-146.2 623.79,-101.71 677.72,-79.29"/>
<polygon fill="#63b8ff" stroke="#63b8ff" points="678.79,-82.64 686.68,-75.57 676.1,-76.18 678.79,-82.64"/>
</a>
</g>
</g>
<!-- Node14&#45;&gt;Node13 -->
<g id="edge20_Node000014_Node000013" class="edge">
<title>Node14&#45;&gt;Node13</title>
<g id="a_edge20_Node000014_Node000013"><a xlink:title=" ">
<path fill="none" stroke="#63b8ff" d="M434.41,-165.34C421.56,-157.39 402.59,-145.64 387.43,-136.25"/>
<polygon fill="#63b8ff" stroke="#63b8ff" points="389.29,-133.29 378.95,-131 385.61,-139.24 389.29,-133.29"/>
</a>
</g>
</g>
<!-- Node15 -->
<g id="Node000015" class="node">
<title>Node15</title>
<g id="a_Node000015"><a xlink:href="_content_8h.html" target="_top" xlink:title=" ">
<polygon fill="white" stroke="#666666" points="536.38,-129.75 477.62,-129.75 477.62,-110.5 536.38,-110.5 536.38,-129.75"/>
<text text-anchor="middle" x="507" y="-116.25" font-family="Helvetica,sans-Serif" font-size="10.00">Content.h</text>
</a>
</g>
</g>
<!-- Node14&#45;&gt;Node15 -->
<g id="edge22_Node000014_Node000015" class="edge">
<title>Node14&#45;&gt;Node15</title>
<g id="a_edge22_Node000014_Node000015"><a xlink:title=" ">
<path fill="none" stroke="#63b8ff" d="M458.84,-165.34C467.05,-157.8 478.98,-146.85 488.91,-137.73"/>
<polygon fill="#63b8ff" stroke="#63b8ff" points="491.19,-140.39 496.19,-131.05 486.46,-135.23 491.19,-140.39"/>
</a>
</g>
</g>
<!-- Node15&#45;&gt;Node2 -->
<g id="edge23_Node000015_Node000002" class="edge">
<title>Node15&#45;&gt;Node2</title>
<g id="a_edge23_Node000015_Node000002"><a xlink:title=" ">
<path fill="none" stroke="#63b8ff" d="M477.18,-113.22C432.01,-104.28 345.6,-87.17 289.94,-76.16"/>
<polygon fill="#63b8ff" stroke="#63b8ff" points="290.88,-72.77 280.39,-74.27 289.52,-79.64 290.88,-72.77"/>
</a>
</g>
</g>
<!-- Node15&#45;&gt;Node12 -->
<g id="edge24_Node000015_Node000012" class="edge">
<title>Node15&#45;&gt;Node12</title>
<g id="a_edge24_Node000015_Node000012"><a xlink:title=" ">
<path fill="none" stroke="#63b8ff" d="M536.52,-111.38C573.57,-101.66 636.99,-85.03 676.02,-74.79"/>
<polygon fill="#63b8ff" stroke="#63b8ff" points="676.81,-78.2 685.59,-72.28 675.03,-71.43 676.81,-78.2"/>
</a>
</g>
</g>
<!-- Node16&#45;&gt;Node2 -->
<g id="edge26_Node000016_Node000002" class="edge">
<title>Node16&#45;&gt;Node2</title>
<g id="a_edge26_Node000016_Node000002"><a xlink:title=" ">
<path fill="none" stroke="#63b8ff" d="M243.76,-276.02C242.87,-243.76 239.81,-132.01 238.55,-85.96"/>
<polygon fill="#63b8ff" stroke="#63b8ff" points="242.05,-86.01 238.28,-76.11 235.06,-86.21 242.05,-86.01"/>
</a>
</g>
</g>
<!-- Node16&#45;&gt;Node11 -->
<g id="edge34_Node000016_Node000011" class="edge">
<title>Node16&#45;&gt;Node11</title>
<g id="a_edge34_Node000016_Node000011"><a xlink:title=" ">
<path fill="none" stroke="#63b8ff" d="M256.04,-275.84C266.41,-268.07 281.6,-256.67 293.97,-247.4"/>
<polygon fill="#63b8ff" stroke="#63b8ff" points="296.02,-250.23 301.92,-241.43 291.82,-244.63 296.02,-250.23"/>
</a>
</g>
</g>
<!-- Node17 -->
<g id="Node000017" class="node">
<title>Node17</title>
<g id="a_Node000017"><a xlink:href="_service_8h.html" target="_top" xlink:title=" ">
<polygon fill="white" stroke="#666666" points="588.62,-185 531.38,-185 531.38,-165.75 588.62,-165.75 588.62,-185"/>
<text text-anchor="middle" x="560" y="-171.5" font-family="Helvetica,sans-Serif" font-size="10.00">Service.h</text>
</a>
</g>
</g>
<!-- Node16&#45;&gt;Node17 -->
<g id="edge27_Node000016_Node000017" class="edge">
<title>Node16&#45;&gt;Node17</title>
<g id="a_edge27_Node000016_Node000017"><a xlink:title=" ">
<path fill="none" stroke="#63b8ff" d="M268.15,-275.8C291.32,-267.01 327.23,-253.15 358,-240.25 377.31,-232.15 381.31,-228.13 401,-221 440.91,-206.55 487.84,-193.89 520.31,-185.78"/>
<polygon fill="#63b8ff" stroke="#63b8ff" points="520.82,-189.26 529.7,-183.47 519.15,-182.47 520.82,-189.26"/>
</a>
</g>
</g>
<!-- Node16&#45;&gt;Node19 -->
<g id="edge35_Node000016_Node000019" class="edge">
<title>Node16&#45;&gt;Node19</title>
<g id="a_edge35_Node000016_Node000019"><a xlink:title=" ">
<path fill="none" stroke="#63b8ff" d="M229.41,-275.84C216.56,-267.89 197.59,-256.14 182.43,-246.75"/>
<polygon fill="#63b8ff" stroke="#63b8ff" points="184.29,-243.79 173.95,-241.5 180.61,-249.74 184.29,-243.79"/>
</a>
</g>
</g>
<!-- Node17&#45;&gt;Node2 -->
<g id="edge28_Node000017_Node000002" class="edge">
<title>Node17&#45;&gt;Node2</title>
<g id="a_edge28_Node000017_Node000002"><a xlink:title=" ">
<path fill="none" stroke="#63b8ff" d="M560.77,-165.42C561.44,-151.47 560.45,-124.67 545,-110.5 508.8,-77.3 368.36,-68.76 290.58,-66.59"/>
<polygon fill="#63b8ff" stroke="#63b8ff" points="290.71,-63.09 280.63,-66.34 290.54,-70.09 290.71,-63.09"/>
</a>
</g>
</g>
<!-- Node17&#45;&gt;Node12 -->
<g id="edge29_Node000017_Node000012" class="edge">
<title>Node17&#45;&gt;Node12</title>
<g id="a_edge29_Node000017_Node000012"><a xlink:title=" ">
<path fill="none" stroke="#63b8ff" d="M588.91,-170.87C632.12,-164.97 710.28,-151.53 727,-129.75 737.14,-116.55 730.33,-97.81 722.53,-84.03"/>
<polygon fill="#63b8ff" stroke="#63b8ff" points="725.72,-82.53 717.43,-75.93 719.79,-86.26 725.72,-82.53"/>
</a>
</g>
</g>
<!-- Node17&#45;&gt;Node15 -->
<g id="edge30_Node000017_Node000015" class="edge">
<title>Node17&#45;&gt;Node15</title>
<g id="a_edge30_Node000017_Node000015"><a xlink:title=" ">
<path fill="none" stroke="#63b8ff" d="M551.25,-165.58C543.85,-158.15 533.04,-147.29 523.95,-138.16"/>
<polygon fill="#63b8ff" stroke="#63b8ff" points="526.54,-135.8 517.01,-131.18 521.58,-140.74 526.54,-135.8"/>
</a>
</g>
</g>
<!-- Node17&#45;&gt;Node18 -->
<g id="edge31_Node000017_Node000018" class="edge">
<title>Node17&#45;&gt;Node18</title>
<g id="a_edge31_Node000017_Node000018"><a xlink:title=" ">
<path fill="none" stroke="#63b8ff" d="M579.34,-165.34C597.11,-157.04 623.72,-144.61 644.2,-135.04"/>
<polygon fill="#63b8ff" stroke="#63b8ff" points="645.62,-138.25 653.2,-130.84 642.65,-131.9 645.62,-138.25"/>
</a>
</g>
</g>
<!-- Node18&#45;&gt;Node2 -->
<g id="edge32_Node000018_Node000002" class="edge">
<title>Node18&#45;&gt;Node2</title>
<g id="a_edge32_Node000018_Node000002"><a xlink:title=" ">
<path fill="none" stroke="#63b8ff" d="M629.69,-112.39C625.07,-111.74 620.44,-111.09 616,-110.5 499.73,-95 362.97,-79.54 290.03,-71.52"/>
<polygon fill="#63b8ff" stroke="#63b8ff" points="290.71,-68.07 280.39,-70.46 289.95,-75.03 290.71,-68.07"/>
</a>
</g>
</g>
<!-- Node18&#45;&gt;Node12 -->
<g id="edge33_Node000018_Node000012" class="edge">
<title>Node18&#45;&gt;Node12</title>
<g id="a_edge33_Node000018_Node000012"><a xlink:title=" ">
<path fill="none" stroke="#63b8ff" d="M679.94,-110.33C684.71,-103.28 691.56,-93.15 697.52,-84.33"/>
<polygon fill="#63b8ff" stroke="#63b8ff" points="700.38,-86.36 703.08,-76.11 694.58,-82.44 700.38,-86.36"/>
</a>
</g>
</g>
<!-- Node19&#45;&gt;Node2 -->
<g id="edge36_Node000019_Node000002" class="edge">
<title>Node19&#45;&gt;Node2</title>
<g id="a_edge36_Node000019_Node000002"><a xlink:title=" ">
<path fill="none" stroke="#63b8ff" d="M158.25,-220.54C159.21,-199.62 163.82,-146.99 186,-110.5 192.93,-99.1 203.77,-89.12 213.76,-81.51"/>
<polygon fill="#63b8ff" stroke="#63b8ff" points="215.59,-84.51 221.7,-75.85 211.52,-78.81 215.59,-84.51"/>
</a>
</g>
</g>
<!-- Node19&#45;&gt;Node10 -->
<g id="edge38_Node000019_Node000010" class="edge">
<title>Node19&#45;&gt;Node10</title>
<g id="a_edge38_Node000019_Node000010"><a xlink:title=" ">
<path fill="none" stroke="#63b8ff" d="M148.16,-220.59C139.95,-213.05 128.02,-202.1 118.09,-192.98"/>
<polygon fill="#63b8ff" stroke="#63b8ff" points="120.54,-190.48 110.81,-186.3 115.81,-195.64 120.54,-190.48"/>
</a>
</g>
</g>
<!-- Node19&#45;&gt;Node15 -->
<g id="edge37_Node000019_Node000015" class="edge">
<title>Node19&#45;&gt;Node15</title>
<g id="a_edge37_Node000019_Node000015"><a xlink:title=" ">
<path fill="none" stroke="#63b8ff" d="M184.23,-221.47C244.87,-202.62 395.07,-155.92 467.16,-133.51"/>
<polygon fill="#63b8ff" stroke="#63b8ff" points="468.07,-136.89 476.58,-130.58 466,-130.21 468.07,-136.89"/>
</a>
</g>
</g>
<!-- Node20&#45;&gt;Node2 -->
<g id="edge42_Node000020_Node000002" class="edge">
<title>Node20&#45;&gt;Node2</title>
<g id="a_edge42_Node000020_Node000002"><a xlink:title=" ">
<path fill="none" stroke="#63b8ff" d="M437.36,-220.59C403.06,-193.97 302.1,-115.62 258.47,-81.76"/>
<polygon fill="#63b8ff" stroke="#63b8ff" points="260.85,-79.18 250.8,-75.81 256.56,-84.71 260.85,-79.18"/>
</a>
</g>
</g>
<!-- Node20&#45;&gt;Node12 -->
<g id="edge43_Node000020_Node000012" class="edge">
<title>Node20&#45;&gt;Node12</title>
<g id="a_edge43_Node000020_Node000012"><a xlink:title=" ">
<path fill="none" stroke="#63b8ff" d="M488.57,-227.46C575.65,-222.3 777.79,-207.95 798,-185 819.88,-160.15 815.33,-138.72 798,-110.5 786.23,-91.34 763.4,-80.1 743.95,-73.69"/>
<polygon fill="#63b8ff" stroke="#63b8ff" points="745.02,-70.36 734.44,-70.88 743.04,-77.07 745.02,-70.36"/>
</a>
</g>
</g>
<!-- Node20&#45;&gt;Node14 -->
<g id="edge45_Node000020_Node000014" class="edge">
<title>Node20&#45;&gt;Node14</title>
<g id="a_edge45_Node000020_Node000014"><a xlink:title=" ">
<path fill="none" stroke="#63b8ff" d="M449,-220.83C449,-214.32 449,-205.17 449,-196.87"/>
<polygon fill="#63b8ff" stroke="#63b8ff" points="452.5,-196.87 449,-186.87 445.5,-196.87 452.5,-196.87"/>
</a>
</g>
</g>
<!-- Node20&#45;&gt;Node17 -->
<g id="edge44_Node000020_Node000017" class="edge">
<title>Node20&#45;&gt;Node17</title>
<g id="a_edge44_Node000020_Node000017"><a xlink:title=" ">
<path fill="none" stroke="#63b8ff" d="M467.83,-220.59C485.05,-212.33 510.8,-199.98 530.71,-190.43"/>
<polygon fill="#63b8ff" stroke="#63b8ff" points="532.21,-193.59 539.71,-186.11 529.18,-187.28 532.21,-193.59"/>
</a>
</g>
</g>
</g>
</svg>
