<?xml version="1.0" encoding="UTF-8" standalone="no"?>
<!DOCTYPE svg PUBLIC "-//W3C//DTD SVG 1.1//EN"
 "http://www.w3.org/Graphics/SVG/1.1/DTD/svg11.dtd">
<!-- Generated by graphviz version 12.1.2 (20240928.0832)
 -->
<!-- Title: /Users/felixschulke/Developement/Arduino/Modbus_RTU/Modbus_RTU/Modbus&#45;RTU/lib/Interface/ServiceInterface.h Pages: 1 -->
<svg width="821pt" height="404pt"
 viewBox="0.00 0.00 821.16 403.75" xmlns="http://www.w3.org/2000/svg" xmlns:xlink="http://www.w3.org/1999/xlink">
<g id="graph0" class="graph" transform="scale(1 1) rotate(0) translate(4 399.75)">
<title>/Users/felixschulke/Developement/Arduino/Modbus_RTU/Modbus_RTU/Modbus&#45;RTU/lib/Interface/ServiceInterface.h</title>
<!-- Node1 -->
<g id="Node000001" class="node">
<title>Node1</title>
<g id="a_Node000001"><a xlink:title=" ">
<polygon fill="#999999" stroke="#666666" points="494.75,-395.75 351.25,-395.75 351.25,-331.5 494.75,-331.5 494.75,-395.75"/>
<text text-anchor="start" x="359.25" y="-382.25" font-family="Helvetica,sans-Serif" font-size="10.00">/Users/felixschulke</text>
<text text-anchor="start" x="359.25" y="-371" font-family="Helvetica,sans-Serif" font-size="10.00">/Developement/Arduino</text>
<text text-anchor="start" x="359.25" y="-359.75" font-family="Helvetica,sans-Serif" font-size="10.00">/Modbus_RTU/Modbus_RTU</text>
<text text-anchor="start" x="359.25" y="-348.5" font-family="Helvetica,sans-Serif" font-size="10.00">/Modbus&#45;RTU/lib/Interface</text>
<text text-anchor="middle" x="423" y="-337.25" font-family="Helvetica,sans-Serif" font-size="10.00">/ServiceInterface.h</text>
</a>
</g>
</g>
<!-- Node2 -->
<g id="Node000002" class="node">
<title>Node2</title>
<g id="a_Node000002"><a xlink:href="mock_arduino_8h.html" target="_top" xlink:title=" ">
<polygon fill="white" stroke="#666666" points="390.62,-74.5 309.38,-74.5 309.38,-55.25 390.62,-55.25 390.62,-74.5"/>
<text text-anchor="middle" x="350" y="-61" font-family="Helvetica,sans-Serif" font-size="10.00">mockArduino.h</text>
</a>
</g>
</g>
<!-- Node1&#45;&gt;Node2 -->
<g id="edge1_Node000001_Node000002" class="edge">
<title>Node1&#45;&gt;Node2</title>
<g id="a_edge1_Node000001_Node000002"><a xlink:title=" ">
<path fill="none" stroke="#63b8ff" d="M350.76,-355.27C229.95,-340.96 0,-304.18 0,-231.62 0,-231.62 0,-231.62 0,-174.38 0,-112.78 200.23,-82.29 297.8,-71.09"/>
<polygon fill="#63b8ff" stroke="#63b8ff" points="298.11,-74.58 307.66,-69.99 297.33,-67.62 298.11,-74.58"/>
</a>
</g>
</g>
<!-- Node9 -->
<g id="Node000009" class="node">
<title>Node9</title>
<g id="a_Node000009"><a xlink:href="_comm_interface_8h.html" target="_top" xlink:title=" ">
<polygon fill="white" stroke="#666666" points="394.88,-295.5 303.12,-295.5 303.12,-276.25 394.88,-276.25 394.88,-295.5"/>
<text text-anchor="middle" x="349" y="-282" font-family="Helvetica,sans-Serif" font-size="10.00">CommInterface.h</text>
</a>
</g>
</g>
<!-- Node1&#45;&gt;Node9 -->
<g id="edge8_Node000001_Node000009" class="edge">
<title>Node1&#45;&gt;Node9</title>
<g id="a_edge8_Node000001_Node000009"><a xlink:title=" ">
<path fill="none" stroke="#63b8ff" d="M392.47,-331.38C383.33,-322.02 373.65,-312.11 365.75,-304.02"/>
<polygon fill="#63b8ff" stroke="#63b8ff" points="368.25,-301.58 358.76,-296.87 363.25,-306.47 368.25,-301.58"/>
</a>
</g>
</g>
<!-- Node11 -->
<g id="Node000011" class="node">
<title>Node11</title>
<g id="a_Node000011"><a xlink:href="_error_state_8h.html" target="_top" xlink:title=" ">
<polygon fill="white" stroke="#666666" points="309.25,-240.25 240.75,-240.25 240.75,-221 309.25,-221 309.25,-240.25"/>
<text text-anchor="middle" x="275" y="-226.75" font-family="Helvetica,sans-Serif" font-size="10.00">ErrorState.h</text>
</a>
</g>
</g>
<!-- Node1&#45;&gt;Node11 -->
<g id="edge44_Node000001_Node000011" class="edge">
<title>Node1&#45;&gt;Node11</title>
<g id="a_edge44_Node000001_Node000011"><a xlink:title=" ">
<path fill="none" stroke="#63b8ff" d="M350.88,-337.66C330.06,-327.42 308.95,-313.61 294,-295.5 283.74,-283.07 279.02,-265.24 276.85,-251.58"/>
<polygon fill="#63b8ff" stroke="#63b8ff" points="280.36,-251.48 275.67,-241.98 273.41,-252.33 280.36,-251.48"/>
</a>
</g>
</g>
<!-- Node16 -->
<g id="Node000016" class="node">
<title>Node16</title>
<g id="a_Node000016"><a xlink:href="_service_cluster_8h.html" target="_top" xlink:title=" ">
<polygon fill="white" stroke="#666666" points="466,-240.25 378,-240.25 378,-221 466,-221 466,-240.25"/>
<text text-anchor="middle" x="422" y="-226.75" font-family="Helvetica,sans-Serif" font-size="10.00">ServiceCluster.h</text>
</a>
</g>
</g>
<!-- Node1&#45;&gt;Node16 -->
<g id="edge25_Node000001_Node000016" class="edge">
<title>Node1&#45;&gt;Node16</title>
<g id="a_edge25_Node000001_Node000016"><a xlink:title=" ">
<path fill="none" stroke="#63b8ff" d="M422.76,-331.25C422.57,-306.68 422.32,-273.21 422.16,-252.01"/>
<polygon fill="#63b8ff" stroke="#63b8ff" points="425.66,-252.07 422.08,-242.1 418.66,-252.13 425.66,-252.07"/>
</a>
</g>
</g>
<!-- Node18 -->
<g id="Node000018" class="node">
<title>Node18</title>
<g id="a_Node000018"><a xlink:href="_content__stack_8h.html" target="_top" xlink:title=" ">
<polygon fill="white" stroke="#666666" points="756,-129.75 668,-129.75 668,-110.5 756,-110.5 756,-129.75"/>
<text text-anchor="middle" x="712" y="-116.25" font-family="Helvetica,sans-Serif" font-size="10.00">Content_stack.h</text>
</a>
</g>
</g>
<!-- Node1&#45;&gt;Node18 -->
<g id="edge38_Node000001_Node000018" class="edge">
<title>Node1&#45;&gt;Node18</title>
<g id="a_edge38_Node000001_Node000018"><a xlink:title=" ">
<path fill="none" stroke="#63b8ff" d="M474.65,-331.14C492.59,-320.04 512.78,-307.37 531,-295.5 567.51,-271.72 579.59,-269.38 612,-240.25 635.97,-218.7 638.26,-209.68 659,-185 672.15,-169.35 687,-151.43 697.63,-138.57"/>
<polygon fill="#63b8ff" stroke="#63b8ff" points="700.2,-140.94 703.87,-131 694.81,-136.48 700.2,-140.94"/>
</a>
</g>
</g>
<!-- Node19 -->
<g id="Node000019" class="node">
<title>Node19</title>
<g id="a_Node000019"><a xlink:href="_frame_8h.html" target="_top" xlink:title=" ">
<polygon fill="white" stroke="#666666" points="479,-185 427,-185 427,-165.75 479,-165.75 479,-185"/>
<text text-anchor="middle" x="453" y="-171.5" font-family="Helvetica,sans-Serif" font-size="10.00">Frame.h</text>
</a>
</g>
</g>
<!-- Node1&#45;&gt;Node19 -->
<g id="edge34_Node000001_Node000019" class="edge">
<title>Node1&#45;&gt;Node19</title>
<g id="a_edge34_Node000001_Node000019"><a xlink:title=" ">
<path fill="none" stroke="#63b8ff" d="M440.6,-331.05C452.96,-306.99 468.41,-272.6 475,-240.25 476.71,-231.87 476.94,-229.33 475,-221 472.92,-212.08 468.79,-202.89 464.66,-195.19"/>
<polygon fill="#63b8ff" stroke="#63b8ff" points="467.84,-193.69 459.81,-186.79 461.78,-197.2 467.84,-193.69"/>
</a>
</g>
</g>
<!-- Node20 -->
<g id="Node000020" class="node">
<title>Node20</title>
<g id="a_Node000020"><a xlink:href="_error_service_8h.html" target="_top" xlink:title=" ">
<polygon fill="white" stroke="#666666" points="603.12,-240.25 524.88,-240.25 524.88,-221 603.12,-221 603.12,-240.25"/>
<text text-anchor="middle" x="564" y="-226.75" font-family="Helvetica,sans-Serif" font-size="10.00">ErrorService.h</text>
</a>
</g>
</g>
<!-- Node1&#45;&gt;Node20 -->
<g id="edge39_Node000001_Node000020" class="edge">
<title>Node1&#45;&gt;Node20</title>
<g id="a_edge39_Node000001_Node000020"><a xlink:title=" ">
<path fill="none" stroke="#63b8ff" d="M465.77,-331.31C479.69,-320.48 494.91,-307.93 508,-295.5 523.49,-280.79 539.38,-262.28 550.25,-248.97"/>
<polygon fill="#63b8ff" stroke="#63b8ff" points="552.71,-251.5 556.26,-241.52 547.26,-247.11 552.71,-251.5"/>
</a>
</g>
</g>
<!-- Node3 -->
<g id="Node000003" class="node">
<title>Node3</title>
<g id="a_Node000003"><a xlink:title=" ">
<polygon fill="#e0e0e0" stroke="#999999" points="208.75,-19.25 155.25,-19.25 155.25,0 208.75,0 208.75,-19.25"/>
<text text-anchor="middle" x="182" y="-5.75" font-family="Helvetica,sans-Serif" font-size="10.00">iostream</text>
</a>
</g>
</g>
<!-- Node2&#45;&gt;Node3 -->
<g id="edge2_Node000002_Node000003" class="edge">
<title>Node2&#45;&gt;Node3</title>
<g id="a_edge2_Node000002_Node000003"><a xlink:title=" ">
<path fill="none" stroke="#63b8ff" d="M321.5,-54.84C293.57,-45.99 250.82,-32.44 220.01,-22.67"/>
<polygon fill="#63b8ff" stroke="#63b8ff" points="221.28,-19.4 210.69,-19.72 219.16,-26.08 221.28,-19.4"/>
</a>
</g>
</g>
<!-- Node4 -->
<g id="Node000004" class="node">
<title>Node4</title>
<g id="a_Node000004"><a xlink:title=" ">
<polygon fill="#e0e0e0" stroke="#999999" points="535,-19.25 495,-19.25 495,0 535,0 535,-19.25"/>
<text text-anchor="middle" x="515" y="-5.75" font-family="Helvetica,sans-Serif" font-size="10.00">string</text>
</a>
</g>
</g>
<!-- Node2&#45;&gt;Node4 -->
<g id="edge3_Node000002_Node000004" class="edge">
<title>Node2&#45;&gt;Node4</title>
<g id="a_edge3_Node000002_Node000004"><a xlink:title=" ">
<path fill="none" stroke="#63b8ff" d="M377.99,-54.84C407.34,-45.37 453.35,-30.52 483.84,-20.68"/>
<polygon fill="#63b8ff" stroke="#63b8ff" points="484.81,-24.04 493.26,-17.64 482.66,-17.38 484.81,-24.04"/>
</a>
</g>
</g>
<!-- Node5 -->
<g id="Node000005" class="node">
<title>Node5</title>
<g id="a_Node000005"><a xlink:title=" ">
<polygon fill="#e0e0e0" stroke="#999999" points="277.62,-19.25 226.38,-19.25 226.38,0 277.62,0 277.62,-19.25"/>
<text text-anchor="middle" x="252" y="-5.75" font-family="Helvetica,sans-Serif" font-size="10.00">sstream</text>
</a>
</g>
</g>
<!-- Node2&#45;&gt;Node5 -->
<g id="edge4_Node000002_Node000005" class="edge">
<title>Node2&#45;&gt;Node5</title>
<g id="a_edge4_Node000002_Node000005"><a xlink:title=" ">
<path fill="none" stroke="#63b8ff" d="M333.38,-54.84C318.31,-46.66 295.86,-34.46 278.35,-24.94"/>
<polygon fill="#63b8ff" stroke="#63b8ff" points="280.49,-22.12 270.04,-20.43 277.15,-28.27 280.49,-22.12"/>
</a>
</g>
</g>
<!-- Node6 -->
<g id="Node000006" class="node">
<title>Node6</title>
<g id="a_Node000006"><a xlink:title=" ">
<polygon fill="#e0e0e0" stroke="#999999" points="340.62,-19.25 295.38,-19.25 295.38,0 340.62,0 340.62,-19.25"/>
<text text-anchor="middle" x="318" y="-5.75" font-family="Helvetica,sans-Serif" font-size="10.00">chrono</text>
</a>
</g>
</g>
<!-- Node2&#45;&gt;Node6 -->
<g id="edge5_Node000002_Node000006" class="edge">
<title>Node2&#45;&gt;Node6</title>
<g id="a_edge5_Node000002_Node000006"><a xlink:title=" ">
<path fill="none" stroke="#63b8ff" d="M344.72,-55.08C340.53,-48.11 334.52,-38.12 329.27,-29.37"/>
<polygon fill="#63b8ff" stroke="#63b8ff" points="332.33,-27.68 324.18,-20.91 326.33,-31.28 332.33,-27.68"/>
</a>
</g>
</g>
<!-- Node7 -->
<g id="Node000007" class="node">
<title>Node7</title>
<g id="a_Node000007"><a xlink:title=" ">
<polygon fill="#e0e0e0" stroke="#999999" points="401.12,-19.25 358.88,-19.25 358.88,0 401.12,0 401.12,-19.25"/>
<text text-anchor="middle" x="380" y="-5.75" font-family="Helvetica,sans-Serif" font-size="10.00">queue</text>
</a>
</g>
</g>
<!-- Node2&#45;&gt;Node7 -->
<g id="edge6_Node000002_Node000007" class="edge">
<title>Node2&#45;&gt;Node7</title>
<g id="a_edge6_Node000002_Node000007"><a xlink:title=" ">
<path fill="none" stroke="#63b8ff" d="M354.95,-55.08C358.88,-48.11 364.51,-38.12 369.44,-29.37"/>
<polygon fill="#63b8ff" stroke="#63b8ff" points="372.34,-31.36 374.2,-20.93 366.24,-27.92 372.34,-31.36"/>
</a>
</g>
</g>
<!-- Node8 -->
<g id="Node000008" class="node">
<title>Node8</title>
<g id="a_Node000008"><a xlink:title=" ">
<polygon fill="#e0e0e0" stroke="#999999" points="477,-19.25 419,-19.25 419,0 477,0 477,-19.25"/>
<text text-anchor="middle" x="448" y="-5.75" font-family="Helvetica,sans-Serif" font-size="10.00">functional</text>
</a>
</g>
</g>
<!-- Node2&#45;&gt;Node8 -->
<g id="edge7_Node000002_Node000008" class="edge">
<title>Node2&#45;&gt;Node8</title>
<g id="a_edge7_Node000002_Node000008"><a xlink:title=" ">
<path fill="none" stroke="#63b8ff" d="M366.62,-54.84C381.69,-46.66 404.14,-34.46 421.65,-24.94"/>
<polygon fill="#63b8ff" stroke="#63b8ff" points="422.85,-28.27 429.96,-20.43 419.51,-22.12 422.85,-28.27"/>
</a>
</g>
</g>
<!-- Node9&#45;&gt;Node2 -->
<g id="edge9_Node000009_Node000002" class="edge">
<title>Node9&#45;&gt;Node2</title>
<g id="a_edge9_Node000009_Node000002"><a xlink:title=" ">
<path fill="none" stroke="#63b8ff" d="M315.89,-275.78C238.17,-252.87 55.3,-188.96 120,-110.5 142.12,-83.67 237.29,-72.77 298.07,-68.49"/>
<polygon fill="#63b8ff" stroke="#63b8ff" points="298.1,-72 307.85,-67.85 297.64,-65.02 298.1,-72"/>
</a>
</g>
</g>
<!-- Node10 -->
<g id="Node000010" class="node">
<title>Node10</title>
<g id="a_Node000010"><a xlink:href="_char_array_8h.html" target="_top" xlink:title=" ">
<polygon fill="white" stroke="#666666" points="383.5,-129.75 316.5,-129.75 316.5,-110.5 383.5,-110.5 383.5,-129.75"/>
<text text-anchor="middle" x="350" y="-116.25" font-family="Helvetica,sans-Serif" font-size="10.00">CharArray.h</text>
</a>
</g>
</g>
<!-- Node9&#45;&gt;Node10 -->
<g id="edge10_Node000009_Node000010" class="edge">
<title>Node9&#45;&gt;Node10</title>
<g id="a_edge10_Node000009_Node000010"><a xlink:title=" ">
<path fill="none" stroke="#63b8ff" d="M349.05,-276.07C349.21,-250.75 349.66,-177.25 349.88,-141.34"/>
<polygon fill="#63b8ff" stroke="#63b8ff" points="353.38,-141.51 349.94,-131.49 346.38,-141.46 353.38,-141.51"/>
</a>
</g>
</g>
<!-- Node9&#45;&gt;Node11 -->
<g id="edge12_Node000009_Node000011" class="edge">
<title>Node9&#45;&gt;Node11</title>
<g id="a_edge12_Node000009_Node000011"><a xlink:title=" ">
<path fill="none" stroke="#63b8ff" d="M336.45,-275.84C325.54,-267.99 309.5,-256.45 296.54,-247.12"/>
<polygon fill="#63b8ff" stroke="#63b8ff" points="298.76,-244.41 288.6,-241.41 294.67,-250.09 298.76,-244.41"/>
</a>
</g>
</g>
<!-- Node10&#45;&gt;Node2 -->
<g id="edge11_Node000010_Node000002" class="edge">
<title>Node10&#45;&gt;Node2</title>
<g id="a_edge11_Node000010_Node000002"><a xlink:title=" ">
<path fill="none" stroke="#63b8ff" d="M350,-110.33C350,-103.82 350,-94.67 350,-86.37"/>
<polygon fill="#63b8ff" stroke="#63b8ff" points="353.5,-86.37 350,-76.37 346.5,-86.37 353.5,-86.37"/>
</a>
</g>
</g>
<!-- Node11&#45;&gt;Node2 -->
<g id="edge16_Node000011_Node000002" class="edge">
<title>Node11&#45;&gt;Node2</title>
<g id="a_edge16_Node000011_Node000002"><a xlink:title=" ">
<path fill="none" stroke="#63b8ff" d="M247.11,-220.56C195.44,-202.35 93.55,-158.88 133,-110.5 153.41,-85.47 240.42,-74.08 297.87,-69.2"/>
<polygon fill="#63b8ff" stroke="#63b8ff" points="298.1,-72.69 307.78,-68.4 297.53,-65.71 298.1,-72.69"/>
</a>
</g>
</g>
<!-- Node11&#45;&gt;Node3 -->
<g id="edge13_Node000011_Node000003" class="edge">
<title>Node11&#45;&gt;Node3</title>
<g id="a_edge13_Node000011_Node000003"><a xlink:title=" ">
<path fill="none" stroke="#63b8ff" d="M240.41,-226.81C209.93,-222.56 166.25,-211.87 139,-185 114.67,-161.01 110.63,-143.36 120,-110.5 129.05,-78.75 151.43,-47.23 166.67,-28.34"/>
<polygon fill="#63b8ff" stroke="#63b8ff" points="169.21,-30.77 172.91,-20.84 163.83,-26.29 169.21,-30.77"/>
</a>
</g>
</g>
<!-- Node12 -->
<g id="Node000012" class="node">
<title>Node12</title>
<g id="a_Node000012"><a xlink:title=" ">
<polygon fill="#e0e0e0" stroke="#999999" points="698.62,-74.5 653.38,-74.5 653.38,-55.25 698.62,-55.25 698.62,-74.5"/>
<text text-anchor="middle" x="676" y="-61" font-family="Helvetica,sans-Serif" font-size="10.00">cstring</text>
</a>
</g>
</g>
<!-- Node11&#45;&gt;Node12 -->
<g id="edge14_Node000011_Node000012" class="edge">
<title>Node11&#45;&gt;Node12</title>
<g id="a_edge14_Node000011_Node000012"><a xlink:title=" ">
<path fill="none" stroke="#63b8ff" d="M309.44,-226.34C397.45,-217.86 625.96,-195.15 659,-185 709.78,-169.4 737.45,-175.18 765,-129.75 780.97,-103.42 741.14,-84.84 709.7,-74.75"/>
<polygon fill="#63b8ff" stroke="#63b8ff" points="711.07,-71.51 700.49,-71.97 709.05,-78.21 711.07,-71.51"/>
</a>
</g>
</g>
<!-- Node13 -->
<g id="Node000013" class="node">
<title>Node13</title>
<g id="a_Node000013"><a xlink:title=" ">
<polygon fill="#e0e0e0" stroke="#999999" points="184.12,-129.75 141.88,-129.75 141.88,-110.5 184.12,-110.5 184.12,-129.75"/>
<text text-anchor="middle" x="163" y="-116.25" font-family="Helvetica,sans-Serif" font-size="10.00">cstdio</text>
</a>
</g>
</g>
<!-- Node11&#45;&gt;Node13 -->
<g id="edge15_Node000011_Node000013" class="edge">
<title>Node11&#45;&gt;Node13</title>
<g id="a_edge15_Node000011_Node000013"><a xlink:title=" ">
<path fill="none" stroke="#63b8ff" d="M265.83,-220.75C247.21,-202.71 204.67,-161.5 180.55,-138.13"/>
<polygon fill="#63b8ff" stroke="#63b8ff" points="183,-135.62 173.38,-131.18 178.13,-140.65 183,-135.62"/>
</a>
</g>
</g>
<!-- Node14 -->
<g id="Node000014" class="node">
<title>Node14</title>
<g id="a_Node000014"><a xlink:href="_error_8h.html" target="_top" xlink:title=" ">
<polygon fill="white" stroke="#666666" points="322.25,-185 277.75,-185 277.75,-165.75 322.25,-165.75 322.25,-185"/>
<text text-anchor="middle" x="300" y="-171.5" font-family="Helvetica,sans-Serif" font-size="10.00">Error.h</text>
</a>
</g>
</g>
<!-- Node11&#45;&gt;Node14 -->
<g id="edge17_Node000011_Node000014" class="edge">
<title>Node11&#45;&gt;Node14</title>
<g id="a_edge17_Node000011_Node000014"><a xlink:title=" ">
<path fill="none" stroke="#63b8ff" d="M279.13,-220.83C282.33,-214.01 286.89,-204.31 290.93,-195.7"/>
<polygon fill="#63b8ff" stroke="#63b8ff" points="294.06,-197.27 295.14,-186.73 287.72,-194.29 294.06,-197.27"/>
</a>
</g>
</g>
<!-- Node14&#45;&gt;Node2 -->
<g id="edge21_Node000014_Node000002" class="edge">
<title>Node14&#45;&gt;Node2</title>
<g id="a_edge21_Node000014_Node000002"><a xlink:title=" ">
<path fill="none" stroke="#63b8ff" d="M299.43,-165.64C298.96,-152.89 299.43,-128.7 308,-110.5 313.06,-99.75 321.69,-89.9 329.82,-82.19"/>
<polygon fill="#63b8ff" stroke="#63b8ff" points="331.94,-84.99 337.11,-75.74 327.3,-79.74 331.94,-84.99"/>
</a>
</g>
</g>
<!-- Node14&#45;&gt;Node3 -->
<g id="edge18_Node000014_Node000003" class="edge">
<title>Node14&#45;&gt;Node3</title>
<g id="a_edge18_Node000014_Node000003"><a xlink:title=" ">
<path fill="none" stroke="#63b8ff" d="M293.66,-165.57C275.01,-139.69 220.1,-63.5 194.91,-28.53"/>
<polygon fill="#63b8ff" stroke="#63b8ff" points="197.95,-26.77 189.26,-20.7 192.27,-30.86 197.95,-26.77"/>
</a>
</g>
</g>
<!-- Node14&#45;&gt;Node12 -->
<g id="edge19_Node000014_Node000012" class="edge">
<title>Node14&#45;&gt;Node12</title>
<g id="a_edge19_Node000014_Node000012"><a xlink:title=" ">
<path fill="none" stroke="#63b8ff" d="M321,-165.28C352.61,-151.84 414.55,-126.56 469,-110.5 528.85,-92.84 600.34,-78.98 641.72,-71.65"/>
<polygon fill="#63b8ff" stroke="#63b8ff" points="642.31,-75.1 651.56,-69.93 641.11,-68.2 642.31,-75.1"/>
</a>
</g>
</g>
<!-- Node14&#45;&gt;Node13 -->
<g id="edge20_Node000014_Node000013" class="edge">
<title>Node14&#45;&gt;Node13</title>
<g id="a_edge20_Node000014_Node000013"><a xlink:title=" ">
<path fill="none" stroke="#63b8ff" d="M277.38,-165.58C254.87,-156.83 220.13,-143.33 194.84,-133.5"/>
<polygon fill="#63b8ff" stroke="#63b8ff" points="196.3,-130.31 185.71,-129.95 193.77,-136.84 196.3,-130.31"/>
</a>
</g>
</g>
<!-- Node15 -->
<g id="Node000015" class="node">
<title>Node15</title>
<g id="a_Node000015"><a xlink:href="_content_8h.html" target="_top" xlink:title=" ">
<polygon fill="white" stroke="#666666" points="536.38,-129.75 477.62,-129.75 477.62,-110.5 536.38,-110.5 536.38,-129.75"/>
<text text-anchor="middle" x="507" y="-116.25" font-family="Helvetica,sans-Serif" font-size="10.00">Content.h</text>
</a>
</g>
</g>
<!-- Node14&#45;&gt;Node15 -->
<g id="edge22_Node000014_Node000015" class="edge">
<title>Node14&#45;&gt;Node15</title>
<g id="a_edge22_Node000014_Node000015"><a xlink:title=" ">
<path fill="none" stroke="#63b8ff" d="M322.55,-168.57C356.98,-159.72 423.2,-142.68 466.22,-131.62"/>
<polygon fill="#63b8ff" stroke="#63b8ff" points="466.88,-135.06 475.69,-129.18 465.14,-128.28 466.88,-135.06"/>
</a>
</g>
</g>
<!-- Node15&#45;&gt;Node2 -->
<g id="edge23_Node000015_Node000002" class="edge">
<title>Node15&#45;&gt;Node2</title>
<g id="a_edge23_Node000015_Node000002"><a xlink:title=" ">
<path fill="none" stroke="#63b8ff" d="M480.37,-110.09C454.88,-101.45 416.19,-88.32 387.57,-78.62"/>
<polygon fill="#63b8ff" stroke="#63b8ff" points="388.79,-75.34 378.2,-75.44 386.54,-81.97 388.79,-75.34"/>
</a>
</g>
</g>
<!-- Node15&#45;&gt;Node12 -->
<g id="edge24_Node000015_Node000012" class="edge">
<title>Node15&#45;&gt;Node12</title>
<g id="a_edge24_Node000015_Node000012"><a xlink:title=" ">
<path fill="none" stroke="#63b8ff" d="M535.67,-110.09C565.11,-100.82 610.91,-86.38 642.12,-76.55"/>
<polygon fill="#63b8ff" stroke="#63b8ff" points="642.97,-79.95 651.46,-73.61 640.87,-73.27 642.97,-79.95"/>
</a>
</g>
</g>
<!-- Node16&#45;&gt;Node2 -->
<g id="edge26_Node000016_Node000002" class="edge">
<title>Node16&#45;&gt;Node2</title>
<g id="a_edge26_Node000016_Node000002"><a xlink:title=" ">
<path fill="none" stroke="#63b8ff" d="M377.67,-222.7C337.32,-215.39 282.12,-202.49 269,-185 241.8,-148.74 293.72,-104.11 326.36,-81.14"/>
<polygon fill="#63b8ff" stroke="#63b8ff" points="328.21,-84.11 334.51,-75.59 324.27,-78.32 328.21,-84.11"/>
</a>
</g>
</g>
<!-- Node17 -->
<g id="Node000017" class="node">
<title>Node17</title>
<g id="a_Node000017"><a xlink:href="_service_8h.html" target="_top" xlink:title=" ">
<polygon fill="white" stroke="#666666" points="649.62,-185 592.38,-185 592.38,-165.75 649.62,-165.75 649.62,-185"/>
<text text-anchor="middle" x="621" y="-171.5" font-family="Helvetica,sans-Serif" font-size="10.00">Service.h</text>
</a>
</g>
</g>
<!-- Node16&#45;&gt;Node17 -->
<g id="edge27_Node000016_Node000017" class="edge">
<title>Node16&#45;&gt;Node17</title>
<g id="a_edge27_Node000016_Node000017"><a xlink:title=" ">
<path fill="none" stroke="#63b8ff" d="M455.76,-220.59C490.43,-211.31 544.37,-196.88 581.13,-187.04"/>
<polygon fill="#63b8ff" stroke="#63b8ff" points="581.72,-190.51 590.48,-184.54 579.91,-183.75 581.72,-190.51"/>
</a>
</g>
</g>
<!-- Node17&#45;&gt;Node2 -->
<g id="edge28_Node000017_Node000002" class="edge">
<title>Node17&#45;&gt;Node2</title>
<g id="a_edge28_Node000017_Node000002"><a xlink:title=" ">
<path fill="none" stroke="#63b8ff" d="M617.57,-165.29C611.74,-151.15 598.5,-124.1 578,-110.5 549.72,-91.74 460.1,-78.36 402,-71.39"/>
<polygon fill="#63b8ff" stroke="#63b8ff" points="402.67,-67.95 392.33,-70.26 401.86,-74.9 402.67,-67.95"/>
</a>
</g>
</g>
<!-- Node17&#45;&gt;Node12 -->
<g id="edge29_Node000017_Node000012" class="edge">
<title>Node17&#45;&gt;Node12</title>
<g id="a_edge29_Node000017_Node000012"><a xlink:title=" ">
<path fill="none" stroke="#63b8ff" d="M625.5,-165.5C634.36,-148.01 654.26,-108.77 666.26,-85.09"/>
<polygon fill="#63b8ff" stroke="#63b8ff" points="669.35,-86.73 670.75,-76.23 663.11,-83.56 669.35,-86.73"/>
</a>
</g>
</g>
<!-- Node17&#45;&gt;Node15 -->
<g id="edge30_Node000017_Node000015" class="edge">
<title>Node17&#45;&gt;Node15</title>
<g id="a_edge30_Node000017_Node000015"><a xlink:title=" ">
<path fill="none" stroke="#63b8ff" d="M601.66,-165.34C583.89,-157.04 557.28,-144.61 536.8,-135.04"/>
<polygon fill="#63b8ff" stroke="#63b8ff" points="538.35,-131.9 527.8,-130.84 535.38,-138.25 538.35,-131.9"/>
</a>
</g>
</g>
<!-- Node17&#45;&gt;Node18 -->
<g id="edge31_Node000017_Node000018" class="edge">
<title>Node17&#45;&gt;Node18</title>
<g id="a_edge31_Node000017_Node000018"><a xlink:title=" ">
<path fill="none" stroke="#63b8ff" d="M636.44,-165.34C650.16,-157.31 670.5,-145.41 686.62,-135.98"/>
<polygon fill="#63b8ff" stroke="#63b8ff" points="688.32,-139.04 695.18,-130.97 684.78,-133 688.32,-139.04"/>
</a>
</g>
</g>
<!-- Node18&#45;&gt;Node2 -->
<g id="edge32_Node000018_Node000002" class="edge">
<title>Node18&#45;&gt;Node2</title>
<g id="a_edge32_Node000018_Node000002"><a xlink:title=" ">
<path fill="none" stroke="#63b8ff" d="M667.61,-112.6C600.5,-102.72 473.47,-84.04 402.08,-73.54"/>
<polygon fill="#63b8ff" stroke="#63b8ff" points="403.02,-70.14 392.62,-72.14 402,-77.06 403.02,-70.14"/>
</a>
</g>
</g>
<!-- Node18&#45;&gt;Node12 -->
<g id="edge33_Node000018_Node000012" class="edge">
<title>Node18&#45;&gt;Node12</title>
<g id="a_edge33_Node000018_Node000012"><a xlink:title=" ">
<path fill="none" stroke="#63b8ff" d="M706.06,-110.33C701.29,-103.28 694.44,-93.15 688.48,-84.33"/>
<polygon fill="#63b8ff" stroke="#63b8ff" points="691.42,-82.44 682.92,-76.11 685.62,-86.36 691.42,-82.44"/>
</a>
</g>
</g>
<!-- Node19&#45;&gt;Node2 -->
<g id="edge35_Node000019_Node000002" class="edge">
<title>Node19&#45;&gt;Node2</title>
<g id="a_edge35_Node000019_Node000002"><a xlink:title=" ">
<path fill="none" stroke="#63b8ff" d="M444.88,-165.66C433.38,-153.34 411.67,-130.12 393,-110.5 384.29,-101.34 374.51,-91.19 366.49,-82.88"/>
<polygon fill="#63b8ff" stroke="#63b8ff" points="369.12,-80.57 359.65,-75.82 364.09,-85.44 369.12,-80.57"/>
</a>
</g>
</g>
<!-- Node19&#45;&gt;Node10 -->
<g id="edge37_Node000019_Node000010" class="edge">
<title>Node19&#45;&gt;Node10</title>
<g id="a_edge37_Node000019_Node000010"><a xlink:title=" ">
<path fill="none" stroke="#63b8ff" d="M435.53,-165.34C419.69,-157.16 396.09,-144.96 377.69,-135.44"/>
<polygon fill="#63b8ff" stroke="#63b8ff" points="379.39,-132.38 368.9,-130.9 376.18,-138.6 379.39,-132.38"/>
</a>
</g>
</g>
<!-- Node19&#45;&gt;Node15 -->
<g id="edge36_Node000019_Node000015" class="edge">
<title>Node19&#45;&gt;Node15</title>
<g id="a_edge36_Node000019_Node000015"><a xlink:title=" ">
<path fill="none" stroke="#63b8ff" d="M461.92,-165.58C469.45,-158.15 480.47,-147.29 489.73,-138.16"/>
<polygon fill="#63b8ff" stroke="#63b8ff" points="492.15,-140.69 496.81,-131.17 487.23,-135.7 492.15,-140.69"/>
</a>
</g>
</g>
<!-- Node20&#45;&gt;Node2 -->
<g id="edge40_Node000020_Node000002" class="edge">
<title>Node20&#45;&gt;Node2</title>
<g id="a_edge40_Node000020_Node000002"><a xlink:title=" ">
<path fill="none" stroke="#63b8ff" d="M565.58,-220.74C568.92,-198.82 574.18,-141.7 545,-110.5 525.81,-89.99 453.01,-77.58 402.02,-71.22"/>
<polygon fill="#63b8ff" stroke="#63b8ff" points="402.7,-67.78 392.35,-70.07 401.87,-74.73 402.7,-67.78"/>
</a>
</g>
</g>
<!-- Node20&#45;&gt;Node12 -->
<g id="edge41_Node000020_Node000012" class="edge">
<title>Node20&#45;&gt;Node12</title>
<g id="a_edge41_Node000020_Node000012"><a xlink:title=" ">
<path fill="none" stroke="#63b8ff" d="M603.36,-227.98C663.47,-224.54 773.75,-214.32 798,-185 819.11,-159.49 816.97,-137.64 798,-110.5 778.35,-82.39 739.01,-71.93 710.29,-68.07"/>
<polygon fill="#63b8ff" stroke="#63b8ff" points="710.94,-64.62 700.61,-66.99 710.16,-71.58 710.94,-64.62"/>
</a>
</g>
</g>
<!-- Node20&#45;&gt;Node14 -->
<g id="edge43_Node000020_Node000014" class="edge">
<title>Node20&#45;&gt;Node14</title>
<g id="a_edge43_Node000020_Node000014"><a xlink:title=" ">
<path fill="none" stroke="#63b8ff" d="M524.48,-221.65C472.65,-211.2 382.61,-193.04 333.79,-183.19"/>
<polygon fill="#63b8ff" stroke="#63b8ff" points="334.58,-179.78 324.09,-181.23 333.2,-186.64 334.58,-179.78"/>
</a>
</g>
</g>
<!-- Node20&#45;&gt;Node17 -->
<g id="edge42_Node000020_Node000017" class="edge">
<title>Node20&#45;&gt;Node17</title>
<g id="a_edge42_Node000020_Node000017"><a xlink:title=" ">
<path fill="none" stroke="#63b8ff" d="M573.67,-220.59C581.74,-213.05 593.47,-202.1 603.22,-192.98"/>
<polygon fill="#63b8ff" stroke="#63b8ff" points="605.45,-195.69 610.37,-186.31 600.67,-190.58 605.45,-195.69"/>
</a>
</g>
</g>
</g>
</svg>
