<?xml version="1.0" encoding="UTF-8" standalone="no"?>
<!DOCTYPE svg PUBLIC "-//W3C//DTD SVG 1.1//EN"
 "http://www.w3.org/Graphics/SVG/1.1/DTD/svg11.dtd">
<!-- Generated by graphviz version 12.1.2 (20240928.0832)
 -->
<!-- Title: /Users/felixschulke/Developement/Arduino/Modbus_RTU/Modbus_RTU/Modbus&#45;RTU/lib/Service/Service.h Pages: 1 -->
<svg width="389pt" height="238pt"
 viewBox="0.00 0.00 388.75 238.00" xmlns="http://www.w3.org/2000/svg" xmlns:xlink="http://www.w3.org/1999/xlink">
<g id="graph0" class="graph" transform="scale(1 1) rotate(0) translate(4 234)">
<title>/Users/felixschulke/Developement/Arduino/Modbus_RTU/Modbus_RTU/Modbus&#45;RTU/lib/Service/Service.h</title>
<!-- Node1 -->
<g id="Node000001" class="node">
<title>Node1</title>
<g id="a_Node000001"><a xlink:title=" ">
<polygon fill="#999999" stroke="#666666" points="305.5,-230 162,-230 162,-165.75 305.5,-165.75 305.5,-230"/>
<text text-anchor="start" x="170" y="-216.5" font-family="Helvetica,sans-Serif" font-size="10.00">/Users/felixschulke</text>
<text text-anchor="start" x="170" y="-205.25" font-family="Helvetica,sans-Serif" font-size="10.00">/Developement/Arduino</text>
<text text-anchor="start" x="170" y="-194" font-family="Helvetica,sans-Serif" font-size="10.00">/Modbus_RTU/Modbus_RTU</text>
<text text-anchor="start" x="170" y="-182.75" font-family="Helvetica,sans-Serif" font-size="10.00">/Modbus&#45;RTU/lib/Service</text>
<text text-anchor="middle" x="233.75" y="-171.5" font-family="Helvetica,sans-Serif" font-size="10.00">/Service.h</text>
</a>
</g>
</g>
<!-- Node2 -->
<g id="Node000002" class="node">
<title>Node2</title>
<g id="a_Node000002"><a xlink:href="mock_arduino_8h.html" target="_top" xlink:title=" ">
<polygon fill="white" stroke="#666666" points="229.38,-74.5 148.12,-74.5 148.12,-55.25 229.38,-55.25 229.38,-74.5"/>
<text text-anchor="middle" x="188.75" y="-61" font-family="Helvetica,sans-Serif" font-size="10.00">mockArduino.h</text>
</a>
</g>
</g>
<!-- Node1&#45;&gt;Node2 -->
<g id="edge1_Node000001_Node000002" class="edge">
<title>Node1&#45;&gt;Node2</title>
<g id="a_edge1_Node000001_Node000002"><a xlink:title=" ">
<path fill="none" stroke="#63b8ff" d="M180.35,-165.36C168.43,-155.57 157.38,-143.63 150.75,-129.75 142.77,-113.03 155.69,-94.98 168.58,-82.34"/>
<polygon fill="#63b8ff" stroke="#63b8ff" points="170.63,-85.21 175.7,-75.91 165.93,-80.02 170.63,-85.21"/>
</a>
</g>
</g>
<!-- Node9 -->
<g id="Node000009" class="node">
<title>Node9</title>
<g id="a_Node000009"><a xlink:title=" ">
<polygon fill="#e0e0e0" stroke="#999999" points="302.38,-74.5 257.12,-74.5 257.12,-55.25 302.38,-55.25 302.38,-74.5"/>
<text text-anchor="middle" x="279.75" y="-61" font-family="Helvetica,sans-Serif" font-size="10.00">cstring</text>
</a>
</g>
</g>
<!-- Node1&#45;&gt;Node9 -->
<g id="edge8_Node000001_Node000009" class="edge">
<title>Node1&#45;&gt;Node9</title>
<g id="a_edge8_Node000001_Node000009"><a xlink:title=" ">
<path fill="none" stroke="#63b8ff" d="M299.77,-165.4C313.01,-155.88 325.16,-144.06 332.75,-129.75 342.55,-111.27 324.2,-93.22 306.48,-81.04"/>
<polygon fill="#63b8ff" stroke="#63b8ff" points="308.46,-78.16 298.15,-75.73 304.7,-84.06 308.46,-78.16"/>
</a>
</g>
</g>
<!-- Node10 -->
<g id="Node000010" class="node">
<title>Node10</title>
<g id="a_Node000010"><a xlink:href="_content_8h.html" target="_top" xlink:title=" ">
<polygon fill="white" stroke="#666666" points="218.12,-129.75 159.38,-129.75 159.38,-110.5 218.12,-110.5 218.12,-129.75"/>
<text text-anchor="middle" x="188.75" y="-116.25" font-family="Helvetica,sans-Serif" font-size="10.00">Content.h</text>
</a>
</g>
</g>
<!-- Node1&#45;&gt;Node10 -->
<g id="edge9_Node000001_Node000010" class="edge">
<title>Node1&#45;&gt;Node10</title>
<g id="a_edge9_Node000001_Node000010"><a xlink:title=" ">
<path fill="none" stroke="#63b8ff" d="M215.19,-165.63C209.99,-156.87 204.5,-147.63 199.88,-139.85"/>
<polygon fill="#63b8ff" stroke="#63b8ff" points="202.93,-138.15 194.82,-131.34 196.91,-141.72 202.93,-138.15"/>
</a>
</g>
</g>
<!-- Node11 -->
<g id="Node000011" class="node">
<title>Node11</title>
<g id="a_Node000011"><a xlink:href="_content__stack_8h.html" target="_top" xlink:title=" ">
<polygon fill="white" stroke="#666666" points="323.75,-129.75 235.75,-129.75 235.75,-110.5 323.75,-110.5 323.75,-129.75"/>
<text text-anchor="middle" x="279.75" y="-116.25" font-family="Helvetica,sans-Serif" font-size="10.00">Content_stack.h</text>
</a>
</g>
</g>
<!-- Node1&#45;&gt;Node11 -->
<g id="edge12_Node000001_Node000011" class="edge">
<title>Node1&#45;&gt;Node11</title>
<g id="a_edge12_Node000001_Node000011"><a xlink:title=" ">
<path fill="none" stroke="#63b8ff" d="M252.73,-165.63C258.04,-156.87 263.65,-147.63 268.38,-139.85"/>
<polygon fill="#63b8ff" stroke="#63b8ff" points="271.35,-141.69 273.55,-131.33 265.37,-138.06 271.35,-141.69"/>
</a>
</g>
</g>
<!-- Node3 -->
<g id="Node000003" class="node">
<title>Node3</title>
<g id="a_Node000003"><a xlink:title=" ">
<polygon fill="#e0e0e0" stroke="#999999" points="53.5,-19.25 0,-19.25 0,0 53.5,0 53.5,-19.25"/>
<text text-anchor="middle" x="26.75" y="-5.75" font-family="Helvetica,sans-Serif" font-size="10.00">iostream</text>
</a>
</g>
</g>
<!-- Node2&#45;&gt;Node3 -->
<g id="edge2_Node000002_Node000003" class="edge">
<title>Node2&#45;&gt;Node3</title>
<g id="a_edge2_Node000002_Node000003"><a xlink:title=" ">
<path fill="none" stroke="#63b8ff" d="M161.27,-54.84C134.69,-46.11 94.21,-32.8 64.59,-23.06"/>
<polygon fill="#63b8ff" stroke="#63b8ff" points="65.86,-19.8 55.26,-20 63.67,-26.45 65.86,-19.8"/>
</a>
</g>
</g>
<!-- Node4 -->
<g id="Node000004" class="node">
<title>Node4</title>
<g id="a_Node000004"><a xlink:title=" ">
<polygon fill="#e0e0e0" stroke="#999999" points="111.75,-19.25 71.75,-19.25 71.75,0 111.75,0 111.75,-19.25"/>
<text text-anchor="middle" x="91.75" y="-5.75" font-family="Helvetica,sans-Serif" font-size="10.00">string</text>
</a>
</g>
</g>
<!-- Node2&#45;&gt;Node4 -->
<g id="edge3_Node000002_Node000004" class="edge">
<title>Node2&#45;&gt;Node4</title>
<g id="a_edge3_Node000002_Node000004"><a xlink:title=" ">
<path fill="none" stroke="#63b8ff" d="M172.3,-54.84C157.52,-46.73 135.57,-34.68 118.32,-25.21"/>
<polygon fill="#63b8ff" stroke="#63b8ff" points="120.06,-22.18 109.61,-20.43 116.69,-28.31 120.06,-22.18"/>
</a>
</g>
</g>
<!-- Node5 -->
<g id="Node000005" class="node">
<title>Node5</title>
<g id="a_Node000005"><a xlink:title=" ">
<polygon fill="#e0e0e0" stroke="#999999" points="181.38,-19.25 130.12,-19.25 130.12,0 181.38,0 181.38,-19.25"/>
<text text-anchor="middle" x="155.75" y="-5.75" font-family="Helvetica,sans-Serif" font-size="10.00">sstream</text>
</a>
</g>
</g>
<!-- Node2&#45;&gt;Node5 -->
<g id="edge4_Node000002_Node000005" class="edge">
<title>Node2&#45;&gt;Node5</title>
<g id="a_edge4_Node000002_Node000005"><a xlink:title=" ">
<path fill="none" stroke="#63b8ff" d="M183.3,-55.08C178.98,-48.11 172.79,-38.12 167.37,-29.37"/>
<polygon fill="#63b8ff" stroke="#63b8ff" points="170.36,-27.55 162.11,-20.9 164.41,-31.24 170.36,-27.55"/>
</a>
</g>
</g>
<!-- Node6 -->
<g id="Node000006" class="node">
<title>Node6</title>
<g id="a_Node000006"><a xlink:title=" ">
<polygon fill="#e0e0e0" stroke="#999999" points="244.38,-19.25 199.12,-19.25 199.12,0 244.38,0 244.38,-19.25"/>
<text text-anchor="middle" x="221.75" y="-5.75" font-family="Helvetica,sans-Serif" font-size="10.00">chrono</text>
</a>
</g>
</g>
<!-- Node2&#45;&gt;Node6 -->
<g id="edge5_Node000002_Node000006" class="edge">
<title>Node2&#45;&gt;Node6</title>
<g id="a_edge5_Node000002_Node000006"><a xlink:title=" ">
<path fill="none" stroke="#63b8ff" d="M194.2,-55.08C198.52,-48.11 204.71,-38.12 210.13,-29.37"/>
<polygon fill="#63b8ff" stroke="#63b8ff" points="213.09,-31.24 215.39,-20.9 207.14,-27.55 213.09,-31.24"/>
</a>
</g>
</g>
<!-- Node7 -->
<g id="Node000007" class="node">
<title>Node7</title>
<g id="a_Node000007"><a xlink:title=" ">
<polygon fill="#e0e0e0" stroke="#999999" points="304.88,-19.25 262.62,-19.25 262.62,0 304.88,0 304.88,-19.25"/>
<text text-anchor="middle" x="283.75" y="-5.75" font-family="Helvetica,sans-Serif" font-size="10.00">queue</text>
</a>
</g>
</g>
<!-- Node2&#45;&gt;Node7 -->
<g id="edge6_Node000002_Node000007" class="edge">
<title>Node2&#45;&gt;Node7</title>
<g id="a_edge6_Node000002_Node000007"><a xlink:title=" ">
<path fill="none" stroke="#63b8ff" d="M204.87,-54.84C219.33,-46.73 240.83,-34.68 257.73,-25.21"/>
<polygon fill="#63b8ff" stroke="#63b8ff" points="259.22,-28.39 266.24,-20.44 255.8,-22.28 259.22,-28.39"/>
</a>
</g>
</g>
<!-- Node8 -->
<g id="Node000008" class="node">
<title>Node8</title>
<g id="a_Node000008"><a xlink:title=" ">
<polygon fill="#e0e0e0" stroke="#999999" points="380.75,-19.25 322.75,-19.25 322.75,0 380.75,0 380.75,-19.25"/>
<text text-anchor="middle" x="351.75" y="-5.75" font-family="Helvetica,sans-Serif" font-size="10.00">functional</text>
</a>
</g>
</g>
<!-- Node2&#45;&gt;Node8 -->
<g id="edge7_Node000002_Node000008" class="edge">
<title>Node2&#45;&gt;Node8</title>
<g id="a_edge7_Node000002_Node000008"><a xlink:title=" ">
<path fill="none" stroke="#63b8ff" d="M216.4,-54.84C242.98,-46.16 283.39,-32.96 313.14,-23.24"/>
<polygon fill="#63b8ff" stroke="#63b8ff" points="314.11,-26.6 322.52,-20.17 311.93,-19.95 314.11,-26.6"/>
</a>
</g>
</g>
<!-- Node10&#45;&gt;Node2 -->
<g id="edge10_Node000010_Node000002" class="edge">
<title>Node10&#45;&gt;Node2</title>
<g id="a_edge10_Node000010_Node000002"><a xlink:title=" ">
<path fill="none" stroke="#63b8ff" d="M188.75,-110.33C188.75,-103.82 188.75,-94.67 188.75,-86.37"/>
<polygon fill="#63b8ff" stroke="#63b8ff" points="192.25,-86.37 188.75,-76.37 185.25,-86.37 192.25,-86.37"/>
</a>
</g>
</g>
<!-- Node10&#45;&gt;Node9 -->
<g id="edge11_Node000010_Node000009" class="edge">
<title>Node10&#45;&gt;Node9</title>
<g id="a_edge11_Node000010_Node000009"><a xlink:title=" ">
<path fill="none" stroke="#63b8ff" d="M204.19,-110.09C217.91,-102.06 238.25,-90.16 254.37,-80.73"/>
<polygon fill="#63b8ff" stroke="#63b8ff" points="256.07,-83.79 262.93,-75.72 252.53,-77.75 256.07,-83.79"/>
</a>
</g>
</g>
<!-- Node11&#45;&gt;Node2 -->
<g id="edge13_Node000011_Node000002" class="edge">
<title>Node11&#45;&gt;Node2</title>
<g id="a_edge13_Node000011_Node000002"><a xlink:title=" ">
<path fill="none" stroke="#63b8ff" d="M264.31,-110.09C250.59,-102.06 230.25,-90.16 214.13,-80.73"/>
<polygon fill="#63b8ff" stroke="#63b8ff" points="215.97,-77.75 205.57,-75.72 212.43,-83.79 215.97,-77.75"/>
</a>
</g>
</g>
<!-- Node11&#45;&gt;Node9 -->
<g id="edge14_Node000011_Node000009" class="edge">
<title>Node11&#45;&gt;Node9</title>
<g id="a_edge14_Node000011_Node000009"><a xlink:title=" ">
<path fill="none" stroke="#63b8ff" d="M279.75,-110.33C279.75,-103.82 279.75,-94.67 279.75,-86.37"/>
<polygon fill="#63b8ff" stroke="#63b8ff" points="283.25,-86.37 279.75,-76.37 276.25,-86.37 283.25,-86.37"/>
</a>
</g>
</g>
</g>
</svg>
