<?xml version="1.0" encoding="UTF-8" standalone="no"?>
<!DOCTYPE svg PUBLIC "-//W3C//DTD SVG 1.1//EN"
 "http://www.w3.org/Graphics/SVG/1.1/DTD/svg11.dtd">
<!-- Generated by graphviz version 12.1.2 (20240928.0832)
 -->
<!-- Title: ServiceInterface_modbusRTU Pages: 1 -->
<svg width="1194pt" height="260pt"
 viewBox="0.00 0.00 1194.25 260.25" xmlns="http://www.w3.org/2000/svg" xmlns:xlink="http://www.w3.org/1999/xlink">
<g id="graph0" class="graph" transform="scale(1 1) rotate(0) translate(4 256.25)">
<title>ServiceInterface_modbusRTU</title>
<!-- Node1 -->
<g id="Node000001" class="node">
<title>Node1</title>
<g id="a_Node000001"><a xlink:title="Service&#45;Interface&#45;class for Modbus&#45;RTU: Impart incoming frames from the CommInterface to the designat...">
<polygon fill="#999999" stroke="#666666" points="1186.25,-106.88 1038.25,-106.88 1038.25,-87.62 1186.25,-87.62 1186.25,-106.88"/>
<text text-anchor="middle" x="1112.25" y="-93.38" font-family="Helvetica,sans-Serif" font-size="10.00">ServiceInterface_modbusRTU</text>
</a>
</g>
</g>
<!-- Node2 -->
<g id="Node000002" class="node">
<title>Node2</title>
<g id="a_Node000002"><a xlink:href="class_service_interface.html" target="_top" xlink:title=" ">
<polygon fill="white" stroke="#666666" points="1001.25,-112.5 821,-112.5 821,-82 1001.25,-82 1001.25,-112.5"/>
<text text-anchor="start" x="829" y="-99" font-family="Helvetica,sans-Serif" font-size="10.00">ServiceInterface&lt; CommInterface</text>
<text text-anchor="middle" x="911.12" y="-87.75" font-family="Helvetica,sans-Serif" font-size="10.00">_modbusRTU, Frame_modbusRTU &gt;</text>
</a>
</g>
</g>
<!-- Node2&#45;&gt;Node1 -->
<g id="edge1_Node000001_Node000002" class="edge">
<title>Node2&#45;&gt;Node1</title>
<g id="a_edge1_Node000001_Node000002"><a xlink:title=" ">
<path fill="none" stroke="#63b8ff" d="M1012.97,-97.25C1021.4,-97.25 1029.81,-97.25 1037.97,-97.25"/>
<polygon fill="#63b8ff" stroke="#63b8ff" points="1013.01,-93.75 1003.01,-97.25 1013.01,-100.75 1013.01,-93.75"/>
</a>
</g>
</g>
<!-- Node3 -->
<g id="Node000003" class="node">
<title>Node3</title>
<g id="a_Node000003"><a xlink:href="class_error_state.html" target="_top" xlink:title="A class to manage and track error states using error codes.">
<polygon fill="white" stroke="#666666" points="60.25,-242.88 0,-242.88 0,-223.62 60.25,-223.62 60.25,-242.88"/>
<text text-anchor="middle" x="30.12" y="-229.38" font-family="Helvetica,sans-Serif" font-size="10.00">ErrorState</text>
</a>
</g>
</g>
<!-- Node3&#45;&gt;Node2 -->
<g id="edge2_Node000002_Node000003" class="edge">
<title>Node3&#45;&gt;Node2</title>
<g id="a_edge2_Node000002_Node000003"><a xlink:title=" ">
<path fill="none" stroke="#63b8ff" d="M71.67,-242.28C97.14,-247.18 130.77,-252.25 160.88,-252.25 160.88,-252.25 160.88,-252.25 639.62,-252.25 750.85,-252.25 857.81,-152.37 895.68,-112.97"/>
<polygon fill="#63b8ff" stroke="#63b8ff" points="72.55,-238.89 62.06,-240.35 71.18,-245.75 72.55,-238.89"/>
</a>
</g>
</g>
<!-- Node6 -->
<g id="Node000006" class="node">
<title>Node6</title>
<g id="a_Node000006"><a xlink:href="class_comm_interface_base.html" target="_top" xlink:title="Communcation&#45;Interface&#45;Base&#45;Class of the CommInterface template specifies a standardized interface to...">
<polygon fill="white" stroke="#666666" points="214.88,-223.88 108.88,-223.88 108.88,-204.62 214.88,-204.62 214.88,-223.88"/>
<text text-anchor="middle" x="161.88" y="-210.38" font-family="Helvetica,sans-Serif" font-size="10.00">CommInterfaceBase</text>
</a>
</g>
</g>
<!-- Node3&#45;&gt;Node6 -->
<g id="edge6_Node000006_Node000003" class="edge">
<title>Node3&#45;&gt;Node6</title>
<g id="a_edge6_Node000006_Node000003"><a xlink:title=" ">
<path fill="none" stroke="#63b8ff" d="M71.77,-227.3C83.44,-225.59 96.34,-223.7 108.61,-221.9"/>
<polygon fill="#63b8ff" stroke="#63b8ff" points="71.45,-223.81 62.06,-228.72 72.47,-230.73 71.45,-223.81"/>
</a>
</g>
</g>
<!-- Node4 -->
<g id="Node000004" class="node">
<title>Node4</title>
<g id="a_Node000004"><a xlink:href="class_comm_interface__modbus_r_t_u.html" target="_top" xlink:title="The Modbus&#45;RTU CommInterface&#45;class specifies a communication interface with SoftwareSerial as interfa...">
<polygon fill="white" stroke="#666666" points="710.75,-154.88 566.5,-154.88 566.5,-135.62 710.75,-135.62 710.75,-154.88"/>
<text text-anchor="middle" x="638.62" y="-141.38" font-family="Helvetica,sans-Serif" font-size="10.00">CommInterface_modbusRTU</text>
</a>
</g>
</g>
<!-- Node4&#45;&gt;Node2 -->
<g id="edge3_Node000002_Node000004" class="edge">
<title>Node4&#45;&gt;Node2</title>
<g id="a_edge3_Node000002_Node000004"><a xlink:title=" ">
<path fill="none" stroke="#9a32cd" stroke-dasharray="5,2" d="M707.57,-133.19C742.08,-127.07 784.44,-119.55 821.48,-112.98"/>
<polygon fill="#9a32cd" stroke="#9a32cd" points="707.39,-129.67 698.15,-134.86 708.61,-136.56 707.39,-129.67"/>
</a>
</g>
<text text-anchor="middle" x="766.62" y="-130.1" font-family="Helvetica,sans-Serif" font-size="10.00" fill="grey"> comm_interface</text>
</g>
<!-- Node5 -->
<g id="Node000005" class="node">
<title>Node5</title>
<g id="a_Node000005"><a xlink:href="class_comm_interface.html" target="_top" xlink:title=" ">
<polygon fill="white" stroke="#666666" points="488.5,-174.88 323.25,-174.88 323.25,-155.62 488.5,-155.62 488.5,-174.88"/>
<text text-anchor="middle" x="405.88" y="-161.38" font-family="Helvetica,sans-Serif" font-size="10.00">CommInterface&lt; SoftwareSerial &gt;</text>
</a>
</g>
</g>
<!-- Node5&#45;&gt;Node4 -->
<g id="edge4_Node000004_Node000005" class="edge">
<title>Node5&#45;&gt;Node4</title>
<g id="a_edge4_Node000004_Node000005"><a xlink:title=" ">
<path fill="none" stroke="#63b8ff" d="M500.26,-157.16C522.26,-155.25 545.37,-153.25 566.22,-151.44"/>
<polygon fill="#63b8ff" stroke="#63b8ff" points="500.05,-153.66 490.39,-158.01 500.65,-160.64 500.05,-153.66"/>
</a>
</g>
</g>
<!-- Node6&#45;&gt;Node5 -->
<g id="edge5_Node000005_Node000006" class="edge">
<title>Node6&#45;&gt;Node5</title>
<g id="a_edge5_Node000005_Node000006"><a xlink:title=" ">
<path fill="none" stroke="#63b8ff" d="M223.83,-201.91C264.4,-193.69 317.04,-183.04 355.09,-175.33"/>
<polygon fill="#63b8ff" stroke="#63b8ff" points="223.31,-198.44 214.21,-203.86 224.7,-205.3 223.31,-198.44"/>
</a>
</g>
</g>
<!-- Node7 -->
<g id="Node000007" class="node">
<title>Node7</title>
<g id="a_Node000007"><a xlink:href="classarduino_mocking_1_1_software_serial.html" target="_top" xlink:title="Mock class to simulate the SoftwareSerial library for native builds.">
<polygon fill="white" stroke="#666666" points="226.5,-186.5 97.25,-186.5 97.25,-156 226.5,-156 226.5,-186.5"/>
<text text-anchor="start" x="105.25" y="-173" font-family="Helvetica,sans-Serif" font-size="10.00">arduinoMocking::Software</text>
<text text-anchor="middle" x="161.88" y="-161.75" font-family="Helvetica,sans-Serif" font-size="10.00">Serial</text>
</a>
</g>
</g>
<!-- Node7&#45;&gt;Node5 -->
<g id="edge7_Node000005_Node000007" class="edge">
<title>Node7&#45;&gt;Node5</title>
<g id="a_edge7_Node000005_Node000007"><a xlink:title=" ">
<path fill="none" stroke="#9a32cd" stroke-dasharray="5,2" d="M238.06,-169.39C264.93,-168.72 295.35,-167.97 322.77,-167.29"/>
<polygon fill="#9a32cd" stroke="#9a32cd" points="238.2,-165.88 228.29,-169.63 238.37,-172.88 238.2,-165.88"/>
</a>
</g>
<text text-anchor="middle" x="274.88" y="-170.89" font-family="Helvetica,sans-Serif" font-size="10.00" fill="grey"> interface</text>
</g>
<!-- Node8 -->
<g id="Node000008" class="node">
<title>Node8</title>
<g id="a_Node000008"><a xlink:href="class_char_array.html" target="_top" xlink:title="Class for storing char&#45;array (byte&#45;array) together with size. The Array is stored on Heap&#45;memory and ...">
<polygon fill="white" stroke="#666666" points="192,-128.88 131.75,-128.88 131.75,-109.62 192,-109.62 192,-128.88"/>
<text text-anchor="middle" x="161.88" y="-115.38" font-family="Helvetica,sans-Serif" font-size="10.00">CharArray</text>
</a>
</g>
</g>
<!-- Node8&#45;&gt;Node2 -->
<g id="edge11_Node000002_Node000008" class="edge">
<title>Node8&#45;&gt;Node2</title>
<g id="a_edge11_Node000002_Node000008"><a xlink:title=" ">
<path fill="none" stroke="#9a32cd" stroke-dasharray="5,2" d="M203.37,-118.06C319.89,-114.63 658.01,-104.67 820.66,-99.88"/>
<polygon fill="#9a32cd" stroke="#9a32cd" points="203.57,-114.55 193.68,-118.34 203.78,-121.55 203.57,-114.55"/>
</a>
</g>
<text text-anchor="middle" x="526.75" y="-122.01" font-family="Helvetica,sans-Serif" font-size="10.00" fill="grey"> recItem</text>
<text text-anchor="middle" x="526.75" y="-110.76" font-family="Helvetica,sans-Serif" font-size="10.00" fill="grey">sendItem</text>
</g>
<!-- Node8&#45;&gt;Node5 -->
<g id="edge8_Node000005_Node000008" class="edge">
<title>Node8&#45;&gt;Node5</title>
<g id="a_edge8_Node000005_Node000008"><a xlink:title=" ">
<path fill="none" stroke="#9a32cd" stroke-dasharray="5,2" d="M203.6,-124.86C232.15,-128.99 271.15,-135.04 305.25,-141.75 325.13,-145.66 347.06,-150.75 365.27,-155.19"/>
<polygon fill="#9a32cd" stroke="#9a32cd" points="204.33,-121.43 193.94,-123.48 203.34,-128.36 204.33,-121.43"/>
</a>
</g>
<text text-anchor="middle" x="274.88" y="-154.75" font-family="Helvetica,sans-Serif" font-size="10.00" fill="grey"> receiveBuffer</text>
<text text-anchor="middle" x="274.88" y="-143.5" font-family="Helvetica,sans-Serif" font-size="10.00" fill="grey">sendBuffer</text>
</g>
<!-- Node9 -->
<g id="Node000009" class="node">
<title>Node9</title>
<g id="a_Node000009"><a xlink:href="class_service_cluster_base.html" target="_top" xlink:title="ServiceCluster&#45;base&#45;class to add class&#45;functions to vtable.">
<polygon fill="white" stroke="#666666" points="690.12,-68.88 587.12,-68.88 587.12,-49.62 690.12,-49.62 690.12,-68.88"/>
<text text-anchor="middle" x="638.62" y="-55.38" font-family="Helvetica,sans-Serif" font-size="10.00">ServiceClusterBase</text>
</a>
</g>
</g>
<!-- Node9&#45;&gt;Node2 -->
<g id="edge9_Node000002_Node000009" class="edge">
<title>Node9&#45;&gt;Node2</title>
<g id="a_edge9_Node000002_Node000009"><a xlink:title=" ">
<path fill="none" stroke="#9a32cd" stroke-dasharray="5,2" d="M701.66,-61.84C732.29,-63.7 769.72,-66.81 803,-72 818.58,-74.43 835.24,-77.91 850.67,-81.52"/>
<polygon fill="#9a32cd" stroke="#9a32cd" points="701.97,-58.36 691.78,-61.28 701.57,-65.34 701.97,-58.36"/>
</a>
</g>
<text text-anchor="middle" x="766.62" y="-73.75" font-family="Helvetica,sans-Serif" font-size="10.00" fill="grey"> services</text>
</g>
<!-- Node10 -->
<g id="Node000010" class="node">
<title>Node10</title>
<g id="a_Node000010"><a xlink:href="class_content__stack.html" target="_top" xlink:title=" ">
<polygon fill="white" stroke="#666666" points="712.25,-30.5 565,-30.5 565,0 712.25,0 712.25,-30.5"/>
<text text-anchor="start" x="573" y="-17" font-family="Helvetica,sans-Serif" font-size="10.00">Content_stack&lt; Frame</text>
<text text-anchor="middle" x="638.62" y="-5.75" font-family="Helvetica,sans-Serif" font-size="10.00">_modbusRTU, STACKSIZE &gt;</text>
</a>
</g>
</g>
<!-- Node10&#45;&gt;Node2 -->
<g id="edge10_Node000002_Node000010" class="edge">
<title>Node10&#45;&gt;Node2</title>
<g id="a_edge10_Node000002_Node000010"><a xlink:title=" ">
<path fill="none" stroke="#9a32cd" stroke-dasharray="5,2" d="M723.82,-20.82C749.68,-24.13 777.92,-29.39 803,-37.75 834.28,-48.18 866.95,-67.79 887.87,-81.65"/>
<polygon fill="#9a32cd" stroke="#9a32cd" points="724.36,-17.36 714.02,-19.66 723.53,-24.31 724.36,-17.36"/>
</a>
</g>
<text text-anchor="middle" x="766.62" y="-50.75" font-family="Helvetica,sans-Serif" font-size="10.00" fill="grey"> recStack</text>
<text text-anchor="middle" x="766.62" y="-39.5" font-family="Helvetica,sans-Serif" font-size="10.00" fill="grey">sendStack</text>
</g>
</g>
</svg>
