<?xml version="1.0" encoding="UTF-8" standalone="no"?>
<!DOCTYPE svg PUBLIC "-//W3C//DTD SVG 1.1//EN"
 "http://www.w3.org/Graphics/SVG/1.1/DTD/svg11.dtd">
<!-- Generated by graphviz version 12.1.2 (20240928.0832)
 -->
<!-- Title: CommInterface&lt; interface_type &gt; Pages: 1 -->
<svg width="138pt" height="149pt"
 viewBox="0.00 0.00 138.00 149.00" xmlns="http://www.w3.org/2000/svg" xmlns:xlink="http://www.w3.org/1999/xlink">
<g id="graph0" class="graph" transform="scale(1 1) rotate(0) translate(4 145)">
<title>CommInterface&lt; interface_type &gt;</title>
<!-- Node1 -->
<g id="Node000001" class="node">
<title>Node1</title>
<g id="a_Node000001"><a xlink:title="Template for generic communication&#45;interface specifies a standardized interface to use for integratin...">
<polygon fill="#999999" stroke="#666666" points="130,-30.5 0,-30.5 0,0 130,0 130,-30.5"/>
<text text-anchor="start" x="8" y="-17" font-family="Helvetica,sans-Serif" font-size="10.00">CommInterface&lt; interface</text>
<text text-anchor="middle" x="65" y="-5.75" font-family="Helvetica,sans-Serif" font-size="10.00">_type &gt;</text>
</a>
</g>
</g>
<!-- Node2 -->
<g id="Node000002" class="node">
<title>Node2</title>
<g id="a_Node000002"><a xlink:href="class_comm_interface_base.html" target="_top" xlink:title="Communcation&#45;Interface&#45;Base&#45;Class of the CommInterface template specifies a standardized interface to...">
<polygon fill="white" stroke="#666666" points="118,-85.75 12,-85.75 12,-66.5 118,-66.5 118,-85.75"/>
<text text-anchor="middle" x="65" y="-72.25" font-family="Helvetica,sans-Serif" font-size="10.00">CommInterfaceBase</text>
</a>
</g>
</g>
<!-- Node2&#45;&gt;Node1 -->
<g id="edge1_Node000001_Node000002" class="edge">
<title>Node2&#45;&gt;Node1</title>
<g id="a_edge1_Node000001_Node000002"><a xlink:title=" ">
<path fill="none" stroke="#63b8ff" d="M65,-54.92C65,-46.99 65,-38.06 65,-30.78"/>
<polygon fill="#63b8ff" stroke="#63b8ff" points="61.5,-54.67 65,-64.67 68.5,-54.67 61.5,-54.67"/>
</a>
</g>
</g>
<!-- Node3 -->
<g id="Node000003" class="node">
<title>Node3</title>
<g id="a_Node000003"><a xlink:href="class_error_state.html" target="_top" xlink:title="A class to manage and track error states using error codes.">
<polygon fill="white" stroke="#666666" points="95.12,-141 34.88,-141 34.88,-121.75 95.12,-121.75 95.12,-141"/>
<text text-anchor="middle" x="65" y="-127.5" font-family="Helvetica,sans-Serif" font-size="10.00">ErrorState</text>
</a>
</g>
</g>
<!-- Node3&#45;&gt;Node2 -->
<g id="edge2_Node000002_Node000003" class="edge">
<title>Node3&#45;&gt;Node2</title>
<g id="a_edge2_Node000002_Node000003"><a xlink:title=" ">
<path fill="none" stroke="#63b8ff" d="M65,-110.13C65,-101.84 65,-92.67 65,-86.11"/>
<polygon fill="#63b8ff" stroke="#63b8ff" points="61.5,-110.07 65,-120.07 68.5,-110.07 61.5,-110.07"/>
</a>
</g>
</g>
</g>
</svg>
