<?xml version="1.0" encoding="UTF-8" standalone="no"?>
<!DOCTYPE svg PUBLIC "-//W3C//DTD SVG 1.1//EN"
 "http://www.w3.org/Graphics/SVG/1.1/DTD/svg11.dtd">
<!-- Generated by graphviz version 12.1.2 (20240928.0832)
 -->
<!-- Title: ErrorState::getErrorState Pages: 1 -->
<svg width="312pt" height="137pt"
 viewBox="0.00 0.00 312.25 136.50" xmlns="http://www.w3.org/2000/svg" xmlns:xlink="http://www.w3.org/1999/xlink">
<g id="graph0" class="graph" transform="scale(1 1) rotate(0) translate(4 132.5)">
<title>ErrorState::getErrorState</title>
<!-- Node1 -->
<g id="Node000001" class="node">
<title>Node1</title>
<g id="a_Node000001"><a xlink:title="Get the currently active error&#45;code.">
<polygon fill="#999999" stroke="#666666" points="304.25,-73.88 180.25,-73.88 180.25,-54.62 304.25,-54.62 304.25,-73.88"/>
<text text-anchor="middle" x="242.25" y="-60.38" font-family="Helvetica,sans-Serif" font-size="10.00">ErrorState::getErrorState</text>
</a>
</g>
</g>
<!-- Node2 -->
<g id="Node000002" class="node">
<title>Node2</title>
<g id="a_Node000002"><a xlink:href="class_service_interface.html#a7c5ec5e13af8a67d1b08c963fcd71214" target="_top" xlink:title="Add items received by the CommInterface to the recStack and execute the CommInterface&#39;s receiveCycle ...">
<polygon fill="white" stroke="#666666" points="136,-128.5 8.25,-128.5 8.25,-98 136,-98 136,-128.5"/>
<text text-anchor="start" x="16.25" y="-115" font-family="Helvetica,sans-Serif" font-size="10.00">ServiceInterface::process</text>
<text text-anchor="middle" x="72.12" y="-103.75" font-family="Helvetica,sans-Serif" font-size="10.00">RecStack</text>
</a>
</g>
</g>
<!-- Node1&#45;&gt;Node2 -->
<g id="edge1_Node000001_Node000002" class="edge">
<title>Node1&#45;&gt;Node2</title>
<g id="a_edge1_Node000001_Node000002"><a xlink:title=" ">
<path fill="none" stroke="#63b8ff" d="M195.84,-77.49C174.62,-83.67 149.22,-91.07 127.04,-97.54"/>
<polygon fill="#63b8ff" stroke="#63b8ff" points="196.75,-80.87 205.37,-74.71 194.79,-74.15 196.75,-80.87"/>
</a>
</g>
</g>
<!-- Node3 -->
<g id="Node000003" class="node">
<title>Node3</title>
<g id="a_Node000003"><a xlink:href="class_service_interface.html#a23feb243ed1748e04dd757aa5f788b3e" target="_top" xlink:title="Send all Frames, stored in the sendStack. As long as the sendStack is not empty, the function is gett...">
<polygon fill="white" stroke="#666666" points="136,-79.5 8.25,-79.5 8.25,-49 136,-49 136,-79.5"/>
<text text-anchor="start" x="16.25" y="-66" font-family="Helvetica,sans-Serif" font-size="10.00">ServiceInterface::process</text>
<text text-anchor="middle" x="72.12" y="-54.75" font-family="Helvetica,sans-Serif" font-size="10.00">SendStack</text>
</a>
</g>
</g>
<!-- Node1&#45;&gt;Node3 -->
<g id="edge2_Node000001_Node000003" class="edge">
<title>Node1&#45;&gt;Node3</title>
<g id="a_edge2_Node000001_Node000003"><a xlink:title=" ">
<path fill="none" stroke="#63b8ff" d="M168.88,-64.25C158.01,-64.25 146.88,-64.25 136.23,-64.25"/>
<polygon fill="#63b8ff" stroke="#63b8ff" points="168.56,-67.75 178.56,-64.25 168.56,-60.75 168.56,-67.75"/>
</a>
</g>
</g>
<!-- Node4 -->
<g id="Node000004" class="node">
<title>Node4</title>
<g id="a_Node000004"><a xlink:href="class_comm_interface__modbus_r_t_u.html#a50b42ad0a40a82ebe5a7749313ca2283" target="_top" xlink:title="Receives a Modbus RTU frame and writes it to receiveBuffer.">
<polygon fill="white" stroke="#666666" points="144.25,-30.5 0,-30.5 0,0 144.25,0 144.25,-30.5"/>
<text text-anchor="start" x="8" y="-17" font-family="Helvetica,sans-Serif" font-size="10.00">CommInterface_modbusRTU</text>
<text text-anchor="middle" x="72.12" y="-5.75" font-family="Helvetica,sans-Serif" font-size="10.00">::receive</text>
</a>
</g>
</g>
<!-- Node1&#45;&gt;Node4 -->
<g id="edge3_Node000001_Node000004" class="edge">
<title>Node1&#45;&gt;Node4</title>
<g id="a_edge3_Node000001_Node000004"><a xlink:title=" ">
<path fill="none" stroke="#63b8ff" d="M195.84,-51.01C174.62,-44.83 149.22,-37.43 127.04,-30.96"/>
<polygon fill="#63b8ff" stroke="#63b8ff" points="194.79,-54.35 205.37,-53.79 196.75,-47.63 194.79,-54.35"/>
</a>
</g>
</g>
</g>
</svg>
