<?xml version="1.0" encoding="UTF-8" standalone="no"?>
<!DOCTYPE svg PUBLIC "-//W3C//DTD SVG 1.1//EN"
 "http://www.w3.org/Graphics/SVG/1.1/DTD/svg11.dtd">
<!-- Generated by graphviz version 12.1.2 (20240928.0832)
 -->
<!-- Title: MessageService::get_destinationId Pages: 1 -->
<svg width="288pt" height="64pt"
 viewBox="0.00 0.00 287.50 64.25" xmlns="http://www.w3.org/2000/svg" xmlns:xlink="http://www.w3.org/1999/xlink">
<g id="graph0" class="graph" transform="scale(1 1) rotate(0) translate(4 60.25)">
<title>MessageService::get_destinationId</title>
<!-- Node1 -->
<g id="Node000001" class="node">
<title>Node1</title>
<g id="a_Node000001"><a xlink:title="Retrieves the destination instance ID for the current response PDU in the send stack.">
<polygon fill="#999999" stroke="#666666" points="108.25,-42.88 0,-42.88 0,-12.37 108.25,-12.37 108.25,-42.88"/>
<text text-anchor="start" x="8" y="-29.38" font-family="Helvetica,sans-Serif" font-size="10.00">MessageService::get</text>
<text text-anchor="middle" x="54.12" y="-18.12" font-family="Helvetica,sans-Serif" font-size="10.00">_destinationId</text>
</a>
</g>
</g>
<!-- Node2 -->
<g id="Node000002" class="node">
<title>Node2</title>
<g id="a_Node000002"><a xlink:href="class_content.html#a5a3cdbe54fb690a53a5a4fda109fd044" target="_top" xlink:title="Get the address of the informations content of type content_type.">
<polygon fill="white" stroke="#666666" points="265.62,-56.25 158.12,-56.25 158.12,-37 265.62,-37 265.62,-56.25"/>
<text text-anchor="middle" x="211.88" y="-42.75" font-family="Helvetica,sans-Serif" font-size="10.00">Content::get_content</text>
</a>
</g>
</g>
<!-- Node1&#45;&gt;Node2 -->
<g id="edge1_Node000001_Node000002" class="edge">
<title>Node1&#45;&gt;Node2</title>
<g id="a_edge1_Node000001_Node000002"><a xlink:title=" ">
<path fill="none" stroke="#63b8ff" d="M108.73,-34.16C120.85,-35.64 133.85,-37.23 146.37,-38.76"/>
<polygon fill="#63b8ff" stroke="#63b8ff" points="145.85,-42.22 156.2,-39.96 146.7,-35.27 145.85,-42.22"/>
</a>
</g>
</g>
<!-- Node3 -->
<g id="Node000003" class="node">
<title>Node3</title>
<g id="a_Node000003"><a xlink:href="class_content__stack.html#a5ac2a896da7724281d9d85eb239f5084" target="_top" xlink:title="Get Pointer to element in the stack. Accepts positive and negative indexing.">
<polygon fill="white" stroke="#666666" points="279.5,-19.25 144.25,-19.25 144.25,0 279.5,0 279.5,-19.25"/>
<text text-anchor="middle" x="211.88" y="-5.75" font-family="Helvetica,sans-Serif" font-size="10.00">Content_stack::getElement</text>
</a>
</g>
</g>
<!-- Node1&#45;&gt;Node3 -->
<g id="edge2_Node000001_Node000003" class="edge">
<title>Node1&#45;&gt;Node3</title>
<g id="a_edge2_Node000001_Node000003"><a xlink:title=" ">
<path fill="none" stroke="#63b8ff" d="M108.73,-21.43C116.44,-20.54 124.51,-19.61 132.58,-18.67"/>
<polygon fill="#63b8ff" stroke="#63b8ff" points="132.93,-22.16 142.46,-17.53 132.13,-15.2 132.93,-22.16"/>
</a>
</g>
</g>
</g>
</svg>
