<?xml version="1.0" encoding="UTF-8" standalone="no"?>
<!DOCTYPE svg PUBLIC "-//W3C//DTD SVG 1.1//EN"
 "http://www.w3.org/Graphics/SVG/1.1/DTD/svg11.dtd">
<!-- Generated by graphviz version 12.1.2 (20240928.0832)
 -->
<!-- Title: Content_stack::getElement Pages: 1 -->
<svg width="527pt" height="432pt"
 viewBox="0.00 0.00 527.00 431.88" xmlns="http://www.w3.org/2000/svg" xmlns:xlink="http://www.w3.org/1999/xlink">
<g id="graph0" class="graph" transform="scale(1 1) rotate(0) translate(4 427.88)">
<title>Content_stack::getElement</title>
<!-- Node1 -->
<g id="Node000001" class="node">
<title>Node1</title>
<g id="a_Node000001"><a xlink:title="Get Pointer to element in the stack. Accepts positive and negative indexing.">
<polygon fill="#999999" stroke="#666666" points="519,-209.25 383.75,-209.25 383.75,-190 519,-190 519,-209.25"/>
<text text-anchor="middle" x="451.38" y="-195.75" font-family="Helvetica,sans-Serif" font-size="10.00">Content_stack::getElement</text>
</a>
</g>
</g>
<!-- Node2 -->
<g id="Node000002" class="node">
<title>Node2</title>
<g id="a_Node000002"><a xlink:href="class_service_interface.html#a48cffd1603069be11ee25c930a139c84" target="_top" xlink:title="Add PDUs from all received frames to the corresponding services.">
<polygon fill="white" stroke="#666666" points="329.38,-423.88 198.62,-423.88 198.62,-393.38 329.38,-393.38 329.38,-423.88"/>
<text text-anchor="start" x="206.62" y="-410.38" font-family="Helvetica,sans-Serif" font-size="10.00">ServiceInterface::addPDU</text>
<text text-anchor="middle" x="264" y="-399.12" font-family="Helvetica,sans-Serif" font-size="10.00">_to_services</text>
</a>
</g>
</g>
<!-- Node1&#45;&gt;Node2 -->
<g id="edge1_Node000001_Node000002" class="edge">
<title>Node1&#45;&gt;Node2</title>
<g id="a_edge1_Node000001_Node000002"><a xlink:title=" ">
<path fill="none" stroke="#63b8ff" d="M444.63,-220C432.89,-257.94 402.52,-339.55 347.75,-383.62 342.37,-387.95 336.26,-391.53 329.84,-394.49"/>
<polygon fill="#63b8ff" stroke="#63b8ff" points="447.88,-221.35 447.37,-210.77 441.17,-219.37 447.88,-221.35"/>
</a>
</g>
</g>
<!-- Node3 -->
<g id="Node000003" class="node">
<title>Node3</title>
<g id="a_Node000003"><a xlink:href="classarduino_mocking_1_1_software_serial.html#a5785050c0162a9c4285b822d1dd940a1" target="_top" xlink:title="Empties the internal queue and prints the flushed data to the console.">
<polygon fill="white" stroke="#666666" points="328.62,-374.88 199.38,-374.88 199.38,-344.38 328.62,-344.38 328.62,-374.88"/>
<text text-anchor="start" x="207.38" y="-361.38" font-family="Helvetica,sans-Serif" font-size="10.00">arduinoMocking::Software</text>
<text text-anchor="middle" x="264" y="-350.12" font-family="Helvetica,sans-Serif" font-size="10.00">Serial::flush</text>
</a>
</g>
</g>
<!-- Node1&#45;&gt;Node3 -->
<g id="edge2_Node000001_Node000003" class="edge">
<title>Node1&#45;&gt;Node3</title>
<g id="a_edge2_Node000001_Node000003"><a xlink:title=" ">
<path fill="none" stroke="#63b8ff" d="M440.58,-219.39C424.98,-248.85 391.7,-304.09 347.75,-334.62 341.96,-338.65 335.5,-342.04 328.82,-344.89"/>
<polygon fill="#63b8ff" stroke="#63b8ff" points="443.53,-221.3 444.99,-210.81 437.31,-218.11 443.53,-221.3"/>
</a>
</g>
</g>
<!-- Node5 -->
<g id="Node000005" class="node">
<title>Node5</title>
<g id="a_Node000005"><a xlink:href="class_message_service.html#acc78431dec13eaa6b2d6c325ad84578c" target="_top" xlink:title="Retrieves the destination instance ID for the current response PDU in the send stack.">
<polygon fill="white" stroke="#666666" points="318.12,-325.88 209.88,-325.88 209.88,-295.38 318.12,-295.38 318.12,-325.88"/>
<text text-anchor="start" x="217.88" y="-312.38" font-family="Helvetica,sans-Serif" font-size="10.00">MessageService::get</text>
<text text-anchor="middle" x="264" y="-301.12" font-family="Helvetica,sans-Serif" font-size="10.00">_destinationId</text>
</a>
</g>
</g>
<!-- Node1&#45;&gt;Node5 -->
<g id="edge4_Node000001_Node000005" class="edge">
<title>Node1&#45;&gt;Node5</title>
<g id="a_edge4_Node000001_Node000005"><a xlink:title=" ">
<path fill="none" stroke="#63b8ff" d="M433.78,-217.65C414.77,-237.29 381.84,-268.32 347.75,-286.62 338.66,-291.51 328.45,-295.5 318.4,-298.73"/>
<polygon fill="#63b8ff" stroke="#63b8ff" points="436.11,-220.29 440.45,-210.62 431.03,-215.47 436.11,-220.29"/>
</a>
</g>
</g>
<!-- Node6 -->
<g id="Node000006" class="node">
<title>Node6</title>
<g id="a_Node000006"><a xlink:href="class_service.html#a601e6d2878ce2b292a3b7c6428f0d51f" target="_top" xlink:title="Get the get the response&#45;payload, stored at the response_pdu of the service instance">
<polygon fill="white" stroke="#666666" points="320.75,-277.25 207.25,-277.25 207.25,-258 320.75,-258 320.75,-277.25"/>
<text text-anchor="middle" x="264" y="-263.75" font-family="Helvetica,sans-Serif" font-size="10.00">Service::get_response</text>
</a>
</g>
</g>
<!-- Node1&#45;&gt;Node6 -->
<g id="edge5_Node000001_Node000006" class="edge">
<title>Node1&#45;&gt;Node6</title>
<g id="a_edge5_Node000001_Node000006"><a xlink:title=" ">
<path fill="none" stroke="#63b8ff" d="M422.27,-215.11C402.04,-225.75 373.82,-239.53 347.75,-248.62 337.87,-252.07 327.1,-255.07 316.7,-257.6"/>
<polygon fill="#63b8ff" stroke="#63b8ff" points="423.85,-218.24 431.02,-210.44 420.55,-212.07 423.85,-218.24"/>
</a>
</g>
</g>
<!-- Node7 -->
<g id="Node000007" class="node">
<title>Node7</title>
<g id="a_Node000007"><a xlink:href="classarduino_mocking_1_1_software_serial.html#ae70b691c402eede6805828c476b96bf5" target="_top" xlink:title="Returns the next character in the queue without removing it.">
<polygon fill="white" stroke="#666666" points="328.62,-239.88 199.38,-239.88 199.38,-209.38 328.62,-209.38 328.62,-239.88"/>
<text text-anchor="start" x="207.38" y="-226.38" font-family="Helvetica,sans-Serif" font-size="10.00">arduinoMocking::Software</text>
<text text-anchor="middle" x="264" y="-215.12" font-family="Helvetica,sans-Serif" font-size="10.00">Serial::peek</text>
</a>
</g>
</g>
<!-- Node1&#45;&gt;Node7 -->
<g id="edge6_Node000001_Node000007" class="edge">
<title>Node1&#45;&gt;Node7</title>
<g id="a_edge6_Node000001_Node000007"><a xlink:title=" ">
<path fill="none" stroke="#63b8ff" d="M372.07,-210.18C357.73,-212.12 342.91,-214.12 329.04,-215.99"/>
<polygon fill="#63b8ff" stroke="#63b8ff" points="372.51,-213.66 381.95,-208.85 371.57,-206.72 372.51,-213.66"/>
</a>
</g>
</g>
<!-- Node9 -->
<g id="Node000009" class="node">
<title>Node9</title>
<g id="a_Node000009"><a xlink:href="class_service_interface.html#a23feb243ed1748e04dd757aa5f788b3e" target="_top" xlink:title="Send all Frames, stored in the sendStack. As long as the sendStack is not empty, the function is gett...">
<polygon fill="white" stroke="#666666" points="327.88,-190.88 200.12,-190.88 200.12,-160.38 327.88,-160.38 327.88,-190.88"/>
<text text-anchor="start" x="208.12" y="-177.38" font-family="Helvetica,sans-Serif" font-size="10.00">ServiceInterface::process</text>
<text text-anchor="middle" x="264" y="-166.12" font-family="Helvetica,sans-Serif" font-size="10.00">SendStack</text>
</a>
</g>
</g>
<!-- Node1&#45;&gt;Node9 -->
<g id="edge8_Node000001_Node000009" class="edge">
<title>Node1&#45;&gt;Node9</title>
<g id="a_edge8_Node000001_Node000009"><a xlink:title=" ">
<path fill="none" stroke="#63b8ff" d="M372.3,-189.52C357.57,-187.61 342.32,-185.64 328.12,-183.8"/>
<polygon fill="#63b8ff" stroke="#63b8ff" points="371.58,-192.95 381.95,-190.77 372.48,-186.01 371.58,-192.95"/>
</a>
</g>
</g>
<!-- Node10 -->
<g id="Node000010" class="node">
<title>Node10</title>
<g id="a_Node000010"><a xlink:href="classarduino_mocking_1_1_software_serial.html#a892a38a5eb6b0c115c2745098c9637ad" target="_top" xlink:title="Reads a character from the internal queue.">
<polygon fill="white" stroke="#666666" points="328.62,-141.88 199.38,-141.88 199.38,-111.38 328.62,-111.38 328.62,-141.88"/>
<text text-anchor="start" x="207.38" y="-128.38" font-family="Helvetica,sans-Serif" font-size="10.00">arduinoMocking::Software</text>
<text text-anchor="middle" x="264" y="-117.12" font-family="Helvetica,sans-Serif" font-size="10.00">Serial::read</text>
</a>
</g>
</g>
<!-- Node1&#45;&gt;Node10 -->
<g id="edge9_Node000001_Node000010" class="edge">
<title>Node1&#45;&gt;Node10</title>
<g id="a_edge9_Node000001_Node000010"><a xlink:title=" ">
<path fill="none" stroke="#63b8ff" d="M420.92,-184.47C400.67,-174.39 372.98,-161.28 347.75,-151.62 339.2,-148.35 330.03,-145.22 321.01,-142.35"/>
<polygon fill="#63b8ff" stroke="#63b8ff" points="419.21,-187.52 429.71,-188.89 422.35,-181.27 419.21,-187.52"/>
</a>
</g>
</g>
<!-- Node11 -->
<g id="Node000011" class="node">
<title>Node11</title>
<g id="a_Node000011"><a xlink:href="class_error_service.html#abdd6940a94fc8619c1ed31934b1cd3bd" target="_top" xlink:title="Processes all errors from the receive stack.">
<polygon fill="white" stroke="#666666" points="338.38,-93.25 189.62,-93.25 189.62,-74 338.38,-74 338.38,-93.25"/>
<text text-anchor="middle" x="264" y="-79.75" font-family="Helvetica,sans-Serif" font-size="10.00">ErrorService::stackProcessing</text>
</a>
</g>
</g>
<!-- Node1&#45;&gt;Node11 -->
<g id="edge11_Node000001_Node000011" class="edge">
<title>Node1&#45;&gt;Node11</title>
<g id="a_edge11_Node000001_Node000011"><a xlink:title=" ">
<path fill="none" stroke="#63b8ff" d="M435.81,-180.74C417.64,-158.56 384.46,-122.28 347.75,-102.62 340.99,-99.01 333.57,-96.08 326.02,-93.7"/>
<polygon fill="#63b8ff" stroke="#63b8ff" points="432.93,-182.75 441.91,-188.39 438.4,-178.39 432.93,-182.75"/>
</a>
</g>
</g>
<!-- Node12 -->
<g id="Node000012" class="node">
<title>Node12</title>
<g id="a_Node000012"><a xlink:href="class_message_service.html#ae02abdc8b83f6c62353dda1a42b2f1ff" target="_top" xlink:title="Processes all messages from the receive stack.">
<polygon fill="white" stroke="#666666" points="347.75,-56.25 180.25,-56.25 180.25,-37 347.75,-37 347.75,-56.25"/>
<text text-anchor="middle" x="264" y="-42.75" font-family="Helvetica,sans-Serif" font-size="10.00">MessageService::stackProcessing</text>
</a>
</g>
</g>
<!-- Node1&#45;&gt;Node12 -->
<g id="edge12_Node000001_Node000012" class="edge">
<title>Node1&#45;&gt;Node12</title>
<g id="a_edge12_Node000001_Node000012"><a xlink:title=" ">
<path fill="none" stroke="#63b8ff" d="M440.88,-179.42C425.66,-149.37 392.88,-93.39 347.75,-64.62 342.79,-61.46 337.36,-58.85 331.73,-56.69"/>
<polygon fill="#63b8ff" stroke="#63b8ff" points="437.63,-180.75 445.17,-188.19 443.92,-177.67 437.63,-180.75"/>
</a>
</g>
</g>
<!-- Node13 -->
<g id="Node000013" class="node">
<title>Node13</title>
<g id="a_Node000013"><a xlink:href="class_service.html#a3eafa52c7f4bfe29698ba4a91c75dc75" target="_top" xlink:title="Execute the service&#39;s functions for each item on the receive&#45;stack and add all response&#45;payloads to b...">
<polygon fill="white" stroke="#666666" points="327.88,-19.25 200.12,-19.25 200.12,0 327.88,0 327.88,-19.25"/>
<text text-anchor="middle" x="264" y="-5.75" font-family="Helvetica,sans-Serif" font-size="10.00">Service::stackProcessing</text>
</a>
</g>
</g>
<!-- Node1&#45;&gt;Node13 -->
<g id="edge13_Node000001_Node000013" class="edge">
<title>Node1&#45;&gt;Node13</title>
<g id="a_edge13_Node000001_Node000013"><a xlink:title=" ">
<path fill="none" stroke="#63b8ff" d="M444.04,-178.67C431.8,-141.92 401.26,-66.11 347.75,-27.62 341.9,-23.42 335.26,-20.16 328.34,-17.65"/>
<polygon fill="#63b8ff" stroke="#63b8ff" points="440.67,-179.61 447.04,-188.08 447.34,-177.49 440.67,-179.61"/>
</a>
</g>
</g>
<!-- Node4 -->
<g id="Node000004" class="node">
<title>Node4</title>
<g id="a_Node000004"><a xlink:href="class_comm_interface__modbus_r_t_u.html#a0e78a2a6e3b5b029609c2b16c21bd85b" target="_top" xlink:title="Override of CommInterface send&#45;function. Send the frame, sendBuffer is pointing to by writing and flu...">
<polygon fill="white" stroke="#666666" points="144.25,-374.88 0,-374.88 0,-344.38 144.25,-344.38 144.25,-374.88"/>
<text text-anchor="start" x="8" y="-361.38" font-family="Helvetica,sans-Serif" font-size="10.00">CommInterface_modbusRTU</text>
<text text-anchor="middle" x="72.12" y="-350.12" font-family="Helvetica,sans-Serif" font-size="10.00">::send</text>
</a>
</g>
</g>
<!-- Node3&#45;&gt;Node4 -->
<g id="edge3_Node000003_Node000004" class="edge">
<title>Node3&#45;&gt;Node4</title>
<g id="a_edge3_Node000003_Node000004"><a xlink:title=" ">
<path fill="none" stroke="#63b8ff" d="M187.76,-359.62C173.58,-359.62 158.78,-359.62 144.7,-359.62"/>
<polygon fill="#63b8ff" stroke="#63b8ff" points="187.47,-363.13 197.47,-359.63 187.47,-356.13 187.47,-363.13"/>
</a>
</g>
</g>
<!-- Node8 -->
<g id="Node000008" class="node">
<title>Node8</title>
<g id="a_Node000008"><a xlink:href="class_comm_interface__modbus_r_t_u.html#a50b42ad0a40a82ebe5a7749313ca2283" target="_top" xlink:title="Receives a Modbus RTU frame and writes it to receiveBuffer.">
<polygon fill="white" stroke="#666666" points="144.25,-190.88 0,-190.88 0,-160.38 144.25,-160.38 144.25,-190.88"/>
<text text-anchor="start" x="8" y="-177.38" font-family="Helvetica,sans-Serif" font-size="10.00">CommInterface_modbusRTU</text>
<text text-anchor="middle" x="72.12" y="-166.12" font-family="Helvetica,sans-Serif" font-size="10.00">::receive</text>
</a>
</g>
</g>
<!-- Node7&#45;&gt;Node8 -->
<g id="edge7_Node000007_Node000008" class="edge">
<title>Node7&#45;&gt;Node8</title>
<g id="a_edge7_Node000007_Node000008"><a xlink:title=" ">
<path fill="none" stroke="#63b8ff" d="M191.21,-206.1C172.35,-201.23 152.19,-196.03 133.97,-191.33"/>
<polygon fill="#63b8ff" stroke="#63b8ff" points="190.12,-209.43 200.67,-208.54 191.87,-202.65 190.12,-209.43"/>
</a>
</g>
</g>
<!-- Node10&#45;&gt;Node8 -->
<g id="edge10_Node000010_Node000008" class="edge">
<title>Node10&#45;&gt;Node8</title>
<g id="a_edge10_Node000010_Node000008"><a xlink:title=" ">
<path fill="none" stroke="#63b8ff" d="M191.21,-145.15C172.35,-150.02 152.19,-155.22 133.97,-159.92"/>
<polygon fill="#63b8ff" stroke="#63b8ff" points="191.87,-148.6 200.67,-142.71 190.12,-141.82 191.87,-148.6"/>
</a>
</g>
</g>
</g>
</svg>
