<?xml version="1.0" encoding="UTF-8" standalone="no"?>
<!DOCTYPE svg PUBLIC "-//W3C//DTD SVG 1.1//EN"
 "http://www.w3.org/Graphics/SVG/1.1/DTD/svg11.dtd">
<!-- Generated by graphviz version 12.1.2 (20240928.0832)
 -->
<!-- Title: ServiceInterface_modbusRTU Pages: 1 -->
<svg width="1237pt" height="251pt"
 viewBox="0.00 0.00 1236.50 251.25" xmlns="http://www.w3.org/2000/svg" xmlns:xlink="http://www.w3.org/1999/xlink">
<g id="graph0" class="graph" transform="scale(1 1) rotate(0) translate(4 247.25)">
<title>ServiceInterface_modbusRTU</title>
<!-- Node1 -->
<g id="Node000001" class="node">
<title>Node1</title>
<g id="a_Node000001"><a xlink:title="Service&#45;Interface&#45;class for Modbus&#45;RTU: Impart incoming frames from the CommInterface to the designat...">
<polygon fill="#999999" stroke="#666666" points="1228.5,-138.88 1080.5,-138.88 1080.5,-119.62 1228.5,-119.62 1228.5,-138.88"/>
<text text-anchor="middle" x="1154.5" y="-125.38" font-family="Helvetica,sans-Serif" font-size="10.00">ServiceInterface_modbusRTU</text>
</a>
</g>
</g>
<!-- Node2 -->
<g id="Node000002" class="node">
<title>Node2</title>
<g id="a_Node000002"><a xlink:href="class_service_interface.html" target="_top" xlink:title=" ">
<polygon fill="white" stroke="#666666" points="1043.5,-144.5 863.25,-144.5 863.25,-114 1043.5,-114 1043.5,-144.5"/>
<text text-anchor="start" x="871.25" y="-131" font-family="Helvetica,sans-Serif" font-size="10.00">ServiceInterface&lt; CommInterface</text>
<text text-anchor="middle" x="953.38" y="-119.75" font-family="Helvetica,sans-Serif" font-size="10.00">_modbusRTU, Frame_modbusRTU &gt;</text>
</a>
</g>
</g>
<!-- Node2&#45;&gt;Node1 -->
<g id="edge1_Node000001_Node000002" class="edge">
<title>Node2&#45;&gt;Node1</title>
<g id="a_edge1_Node000001_Node000002"><a xlink:title=" ">
<path fill="none" stroke="#63b8ff" d="M1055.22,-129.25C1063.65,-129.25 1072.06,-129.25 1080.22,-129.25"/>
<polygon fill="#63b8ff" stroke="#63b8ff" points="1055.26,-125.75 1045.26,-129.25 1055.26,-132.75 1055.26,-125.75"/>
</a>
</g>
</g>
<!-- Node3 -->
<g id="Node000003" class="node">
<title>Node3</title>
<g id="a_Node000003"><a xlink:href="class_error_state.html" target="_top" xlink:title="A class to manage and track error states using error codes.">
<polygon fill="white" stroke="#666666" points="60.25,-214.88 0,-214.88 0,-195.62 60.25,-195.62 60.25,-214.88"/>
<text text-anchor="middle" x="30.12" y="-201.38" font-family="Helvetica,sans-Serif" font-size="10.00">ErrorState</text>
</a>
</g>
</g>
<!-- Node3&#45;&gt;Node2 -->
<g id="edge2_Node000002_Node000003" class="edge">
<title>Node3&#45;&gt;Node2</title>
<g id="a_edge2_Node000002_Node000003"><a xlink:title=" ">
<path fill="none" stroke="#63b8ff" d="M61.98,-219.67C87.81,-230.42 125.96,-243.25 160.88,-243.25 160.88,-243.25 160.88,-243.25 681.88,-243.25 782.02,-243.25 887.8,-176.08 931.56,-144.86"/>
<polygon fill="#63b8ff" stroke="#63b8ff" points="63.66,-216.59 53.1,-215.83 60.89,-223.01 63.66,-216.59"/>
</a>
</g>
</g>
<!-- Node6 -->
<g id="Node000006" class="node">
<title>Node6</title>
<g id="a_Node000006"><a xlink:href="class_comm_interface_base.html" target="_top" xlink:title="Communcation&#45;Interface&#45;Base&#45;Class of the CommInterface template specifies a standardized interface to...">
<polygon fill="white" stroke="#666666" points="214.88,-128.88 108.88,-128.88 108.88,-109.62 214.88,-109.62 214.88,-128.88"/>
<text text-anchor="middle" x="161.88" y="-115.38" font-family="Helvetica,sans-Serif" font-size="10.00">CommInterfaceBase</text>
</a>
</g>
</g>
<!-- Node3&#45;&gt;Node6 -->
<g id="edge6_Node000006_Node000003" class="edge">
<title>Node3&#45;&gt;Node6</title>
<g id="a_edge6_Node000006_Node000003"><a xlink:title=" ">
<path fill="none" stroke="#63b8ff" d="M45.11,-186.58C57.33,-171.51 76.34,-150.82 97.25,-138.25 103.18,-134.69 109.82,-131.75 116.52,-129.34"/>
<polygon fill="#63b8ff" stroke="#63b8ff" points="42.45,-184.31 39.05,-194.34 47.96,-188.62 42.45,-184.31"/>
</a>
</g>
</g>
<!-- Node9 -->
<g id="Node000009" class="node">
<title>Node9</title>
<g id="a_Node000009"><a xlink:href="class_service_cluster_base.html" target="_top" xlink:title="ServiceCluster&#45;base&#45;class to add class&#45;functions to vtable.">
<polygon fill="white" stroke="#666666" points="347.5,-206.88 244.5,-206.88 244.5,-187.62 347.5,-187.62 347.5,-206.88"/>
<text text-anchor="middle" x="296" y="-193.38" font-family="Helvetica,sans-Serif" font-size="10.00">ServiceClusterBase</text>
</a>
</g>
</g>
<!-- Node3&#45;&gt;Node9 -->
<g id="edge10_Node000009_Node000003" class="edge">
<title>Node3&#45;&gt;Node9</title>
<g id="a_edge10_Node000009_Node000003"><a xlink:title=" ">
<path fill="none" stroke="#63b8ff" d="M72.02,-204.01C118.35,-202.61 193.91,-200.31 244.03,-198.8"/>
<polygon fill="#63b8ff" stroke="#63b8ff" points="72.03,-200.51 62.14,-204.31 72.24,-207.5 72.03,-200.51"/>
</a>
</g>
</g>
<!-- Node4 -->
<g id="Node000004" class="node">
<title>Node4</title>
<g id="a_Node000004"><a xlink:href="class_comm_interface__modbus_r_t_u.html" target="_top" xlink:title="The Modbus&#45;RTU CommInterface&#45;class specifies a communication interface with SoftwareSerial as interfa...">
<polygon fill="white" stroke="#666666" points="753,-138.88 608.75,-138.88 608.75,-119.62 753,-119.62 753,-138.88"/>
<text text-anchor="middle" x="680.88" y="-125.38" font-family="Helvetica,sans-Serif" font-size="10.00">CommInterface_modbusRTU</text>
</a>
</g>
</g>
<!-- Node4&#45;&gt;Node2 -->
<g id="edge3_Node000002_Node000004" class="edge">
<title>Node4&#45;&gt;Node2</title>
<g id="a_edge3_Node000002_Node000004"><a xlink:title=" ">
<path fill="none" stroke="#9a32cd" stroke-dasharray="5,2" d="M764.57,-129.25C795.75,-129.25 831.35,-129.25 863.1,-129.25"/>
<polygon fill="#9a32cd" stroke="#9a32cd" points="764.81,-125.75 754.81,-129.25 764.81,-132.75 764.81,-125.75"/>
</a>
</g>
<text text-anchor="middle" x="808.88" y="-131" font-family="Helvetica,sans-Serif" font-size="10.00" fill="grey"> comm_interface</text>
</g>
<!-- Node5 -->
<g id="Node000005" class="node">
<title>Node5</title>
<g id="a_Node000005"><a xlink:href="class_comm_interface.html" target="_top" xlink:title=" ">
<polygon fill="white" stroke="#666666" points="530.75,-138.88 365.5,-138.88 365.5,-119.62 530.75,-119.62 530.75,-138.88"/>
<text text-anchor="middle" x="448.12" y="-125.38" font-family="Helvetica,sans-Serif" font-size="10.00">CommInterface&lt; SoftwareSerial &gt;</text>
</a>
</g>
</g>
<!-- Node5&#45;&gt;Node4 -->
<g id="edge4_Node000004_Node000005" class="edge">
<title>Node5&#45;&gt;Node4</title>
<g id="a_edge4_Node000004_Node000005"><a xlink:title=" ">
<path fill="none" stroke="#63b8ff" d="M542.51,-129.25C564.51,-129.25 587.62,-129.25 608.47,-129.25"/>
<polygon fill="#63b8ff" stroke="#63b8ff" points="542.64,-125.75 532.64,-129.25 542.64,-132.75 542.64,-125.75"/>
</a>
</g>
</g>
<!-- Node6&#45;&gt;Node5 -->
<g id="edge5_Node000005_Node000006" class="edge">
<title>Node6&#45;&gt;Node5</title>
<g id="a_edge5_Node000005_Node000006"><a xlink:title=" ">
<path fill="none" stroke="#63b8ff" d="M226.79,-121.5C267.67,-122.94 321.09,-124.82 365.09,-126.36"/>
<polygon fill="#63b8ff" stroke="#63b8ff" points="226.97,-118 216.85,-121.15 226.73,-125 226.97,-118"/>
</a>
</g>
</g>
<!-- Node7 -->
<g id="Node000007" class="node">
<title>Node7</title>
<g id="a_Node000007"><a xlink:href="classarduino_mocking_1_1_software_serial.html" target="_top" xlink:title="Mock class to simulate the SoftwareSerial library for native builds.">
<polygon fill="white" stroke="#666666" points="226.5,-177.5 97.25,-177.5 97.25,-147 226.5,-147 226.5,-177.5"/>
<text text-anchor="start" x="105.25" y="-164" font-family="Helvetica,sans-Serif" font-size="10.00">arduinoMocking::Software</text>
<text text-anchor="middle" x="161.88" y="-152.75" font-family="Helvetica,sans-Serif" font-size="10.00">Serial</text>
</a>
</g>
</g>
<!-- Node7&#45;&gt;Node5 -->
<g id="edge7_Node000005_Node000007" class="edge">
<title>Node7&#45;&gt;Node5</title>
<g id="a_edge7_Node000005_Node000007"><a xlink:title=" ">
<path fill="none" stroke="#9a32cd" stroke-dasharray="5,2" d="M237.98,-153.53C277.13,-148.99 325.07,-143.42 365.17,-138.76"/>
<polygon fill="#9a32cd" stroke="#9a32cd" points="237.7,-150.04 228.17,-154.67 238.51,-156.99 237.7,-150.04"/>
</a>
</g>
<text text-anchor="middle" x="296" y="-154.25" font-family="Helvetica,sans-Serif" font-size="10.00" fill="grey"> interface</text>
</g>
<!-- Node8 -->
<g id="Node000008" class="node">
<title>Node8</title>
<g id="a_Node000008"><a xlink:href="class_char_array.html" target="_top" xlink:title="Class for storing char&#45;array (byte&#45;array) together with size. The Array is stored on Heap&#45;memory and ...">
<polygon fill="white" stroke="#666666" points="192,-79.88 131.75,-79.88 131.75,-60.62 192,-60.62 192,-79.88"/>
<text text-anchor="middle" x="161.88" y="-66.38" font-family="Helvetica,sans-Serif" font-size="10.00">CharArray</text>
</a>
</g>
</g>
<!-- Node8&#45;&gt;Node2 -->
<g id="edge12_Node000002_Node000008" class="edge">
<title>Node8&#45;&gt;Node2</title>
<g id="a_edge12_Node000002_Node000008"><a xlink:title=" ">
<path fill="none" stroke="#9a32cd" stroke-dasharray="5,2" d="M203.75,-70.36C241.18,-70.64 298.11,-71.53 347.5,-74.25 530.96,-84.34 744.91,-106.18 862.85,-119.09"/>
<polygon fill="#9a32cd" stroke="#9a32cd" points="203.85,-66.86 193.83,-70.29 203.81,-73.86 203.85,-66.86"/>
</a>
</g>
<text text-anchor="middle" x="569" y="-104.56" font-family="Helvetica,sans-Serif" font-size="10.00" fill="grey"> recItem</text>
<text text-anchor="middle" x="569" y="-93.31" font-family="Helvetica,sans-Serif" font-size="10.00" fill="grey">sendItem</text>
</g>
<!-- Node8&#45;&gt;Node5 -->
<g id="edge8_Node000005_Node000008" class="edge">
<title>Node8&#45;&gt;Node5</title>
<g id="a_edge8_Node000005_Node000008"><a xlink:title=" ">
<path fill="none" stroke="#9a32cd" stroke-dasharray="5,2" d="M203.31,-73.64C240.98,-77.31 298.54,-84.24 347.5,-95.75 373.26,-101.8 401.8,-111.75 421.71,-119.23"/>
<polygon fill="#9a32cd" stroke="#9a32cd" points="204.08,-70.19 193.79,-72.74 203.42,-77.16 204.08,-70.19"/>
</a>
</g>
<text text-anchor="middle" x="296" y="-108.75" font-family="Helvetica,sans-Serif" font-size="10.00" fill="grey"> receiveBuffer</text>
<text text-anchor="middle" x="296" y="-97.5" font-family="Helvetica,sans-Serif" font-size="10.00" fill="grey">sendBuffer</text>
</g>
<!-- Node9&#45;&gt;Node2 -->
<g id="edge9_Node000002_Node000009" class="edge">
<title>Node9&#45;&gt;Node2</title>
<g id="a_edge9_Node000002_Node000009"><a xlink:title=" ">
<path fill="none" stroke="#9a32cd" stroke-dasharray="5,2" d="M358.99,-192.13C460.69,-183.53 669.23,-165.07 845.25,-144.25 851.03,-143.57 856.98,-142.83 862.98,-142.06"/>
<polygon fill="#9a32cd" stroke="#9a32cd" points="358.9,-188.62 349.23,-192.95 359.49,-195.6 358.9,-188.62"/>
</a>
</g>
<text text-anchor="middle" x="569" y="-176.48" font-family="Helvetica,sans-Serif" font-size="10.00" fill="grey"> services</text>
</g>
<!-- Node10 -->
<g id="Node000010" class="node">
<title>Node10</title>
<g id="a_Node000010"><a xlink:href="class_content__stack.html" target="_top" xlink:title=" ">
<polygon fill="white" stroke="#666666" points="754.5,-30.5 607.25,-30.5 607.25,0 754.5,0 754.5,-30.5"/>
<text text-anchor="start" x="615.25" y="-17" font-family="Helvetica,sans-Serif" font-size="10.00">Content_stack&lt; Frame</text>
<text text-anchor="middle" x="680.88" y="-5.75" font-family="Helvetica,sans-Serif" font-size="10.00">_modbusRTU, STACKSIZE &gt;</text>
</a>
</g>
</g>
<!-- Node10&#45;&gt;Node2 -->
<g id="edge11_Node000002_Node000010" class="edge">
<title>Node10&#45;&gt;Node2</title>
<g id="a_edge11_Node000002_Node000010"><a xlink:title=" ">
<path fill="none" stroke="#9a32cd" stroke-dasharray="5,2" d="M766.29,-6.89C792.51,-7.33 820.91,-11.07 845.25,-21.75 889.89,-41.33 925.95,-88.75 942.53,-113.55"/>
<polygon fill="#9a32cd" stroke="#9a32cd" points="766.32,-3.39 756.32,-6.9 766.33,-10.39 766.32,-3.39"/>
</a>
</g>
<text text-anchor="middle" x="808.88" y="-34.75" font-family="Helvetica,sans-Serif" font-size="10.00" fill="grey"> recStack</text>
<text text-anchor="middle" x="808.88" y="-23.5" font-family="Helvetica,sans-Serif" font-size="10.00" fill="grey">sendStack</text>
</g>
</g>
</svg>
