<?xml version="1.0" encoding="UTF-8" standalone="no"?>
<!DOCTYPE svg PUBLIC "-//W3C//DTD SVG 1.1//EN"
 "http://www.w3.org/Graphics/SVG/1.1/DTD/svg11.dtd">
<!-- Generated by graphviz version 12.1.2 (20240928.0832)
 -->
<!-- Title: ErrorState::raiseError Pages: 1 -->
<svg width="463pt" height="137pt"
 viewBox="0.00 0.00 463.25 136.50" xmlns="http://www.w3.org/2000/svg" xmlns:xlink="http://www.w3.org/1999/xlink">
<g id="graph0" class="graph" transform="scale(1 1) rotate(0) translate(4 132.5)">
<title>ErrorState::raiseError</title>
<!-- Node1 -->
<g id="Node000001" class="node">
<title>Node1</title>
<g id="a_Node000001"><a xlink:title="raises a new error by setting the given error&#45;code as errorState">
<polygon fill="#999999" stroke="#666666" points="455.25,-73.88 347,-73.88 347,-54.62 455.25,-54.62 455.25,-73.88"/>
<text text-anchor="middle" x="401.12" y="-60.38" font-family="Helvetica,sans-Serif" font-size="10.00">ErrorState::raiseError</text>
</a>
</g>
</g>
<!-- Node2 -->
<g id="Node000002" class="node">
<title>Node2</title>
<g id="a_Node000002"><a xlink:href="class_service_cluster.html#a248bf50b452a17743e53f8e5eb3790f1" target="_top" xlink:title="Add the payload of the referenced Frame to the belonging Service (Multiplexing by Service&#45;ID)">
<polygon fill="white" stroke="#666666" points="304.25,-110.88 173.5,-110.88 173.5,-91.62 304.25,-91.62 304.25,-110.88"/>
<text text-anchor="middle" x="238.88" y="-97.38" font-family="Helvetica,sans-Serif" font-size="10.00">ServiceCluster::impartPdu</text>
</a>
</g>
</g>
<!-- Node1&#45;&gt;Node2 -->
<g id="edge1_Node000001_Node000002" class="edge">
<title>Node1&#45;&gt;Node2</title>
<g id="a_edge1_Node000001_Node000002"><a xlink:title=" ">
<path fill="none" stroke="#63b8ff" d="M345.14,-76.95C325.04,-81.59 302.59,-86.77 283.61,-91.15"/>
<polygon fill="#63b8ff" stroke="#63b8ff" points="345.91,-80.36 354.86,-74.7 344.33,-73.54 345.91,-80.36"/>
</a>
</g>
</g>
<!-- Node3 -->
<g id="Node000003" class="node">
<title>Node3</title>
<g id="a_Node000003"><a xlink:href="class_service_interface.html#a42226b8c236c344b6c5d171736a08f6e" target="_top" xlink:title="Check if an ErrorService is registered in the service cluster under the defined ERRORSERVICE_ID of th...">
<polygon fill="white" stroke="#666666" points="306.5,-73.88 171.25,-73.88 171.25,-54.62 306.5,-54.62 306.5,-73.88"/>
<text text-anchor="middle" x="238.88" y="-60.38" font-family="Helvetica,sans-Serif" font-size="10.00">ServiceInterface::raiseError</text>
</a>
</g>
</g>
<!-- Node1&#45;&gt;Node3 -->
<g id="edge2_Node000001_Node000003" class="edge">
<title>Node1&#45;&gt;Node3</title>
<g id="a_edge2_Node000001_Node000003"><a xlink:title=" ">
<path fill="none" stroke="#63b8ff" d="M335.49,-64.25C326.1,-64.25 316.41,-64.25 306.97,-64.25"/>
<polygon fill="#63b8ff" stroke="#63b8ff" points="335.25,-67.75 345.25,-64.25 335.25,-60.75 335.25,-67.75"/>
</a>
</g>
</g>
<!-- Node7 -->
<g id="Node000007" class="node">
<title>Node7</title>
<g id="a_Node000007"><a xlink:href="class_comm_interface__modbus_r_t_u.html#a50b42ad0a40a82ebe5a7749313ca2283" target="_top" xlink:title="Receives a Modbus RTU frame and writes it to receiveBuffer.">
<polygon fill="white" stroke="#666666" points="311,-36.5 166.75,-36.5 166.75,-6 311,-6 311,-36.5"/>
<text text-anchor="start" x="174.75" y="-23" font-family="Helvetica,sans-Serif" font-size="10.00">CommInterface_modbusRTU</text>
<text text-anchor="middle" x="238.88" y="-11.75" font-family="Helvetica,sans-Serif" font-size="10.00">::receive</text>
</a>
</g>
</g>
<!-- Node1&#45;&gt;Node7 -->
<g id="edge6_Node000001_Node000007" class="edge">
<title>Node1&#45;&gt;Node7</title>
<g id="a_edge6_Node000001_Node000007"><a xlink:title=" ">
<path fill="none" stroke="#63b8ff" d="M351.88,-51.3C335.09,-46.8 316.07,-41.7 298.54,-36.99"/>
<polygon fill="#63b8ff" stroke="#63b8ff" points="350.53,-54.56 361.09,-53.78 352.34,-47.8 350.53,-54.56"/>
</a>
</g>
</g>
<!-- Node4 -->
<g id="Node000004" class="node">
<title>Node4</title>
<g id="a_Node000004"><a xlink:href="class_service_interface.html#a48cffd1603069be11ee25c930a139c84" target="_top" xlink:title="Add PDUs from all received frames to the corresponding services.">
<polygon fill="white" stroke="#666666" points="130.75,-128.5 0,-128.5 0,-98 130.75,-98 130.75,-128.5"/>
<text text-anchor="start" x="8" y="-115" font-family="Helvetica,sans-Serif" font-size="10.00">ServiceInterface::addPDU</text>
<text text-anchor="middle" x="65.38" y="-103.75" font-family="Helvetica,sans-Serif" font-size="10.00">_to_services</text>
</a>
</g>
</g>
<!-- Node3&#45;&gt;Node4 -->
<g id="edge3_Node000003_Node000004" class="edge">
<title>Node3&#45;&gt;Node4</title>
<g id="a_edge3_Node000003_Node000004"><a xlink:title=" ">
<path fill="none" stroke="#63b8ff" d="M185.73,-77.12C179.32,-78.8 172.88,-80.53 166.75,-82.25 149.98,-86.96 131.75,-92.47 115.49,-97.53"/>
<polygon fill="#63b8ff" stroke="#63b8ff" points="186.14,-80.63 194.94,-74.74 184.39,-73.85 186.14,-80.63"/>
</a>
</g>
</g>
<!-- Node5 -->
<g id="Node000005" class="node">
<title>Node5</title>
<g id="a_Node000005"><a xlink:href="class_service_interface.html#a7c5ec5e13af8a67d1b08c963fcd71214" target="_top" xlink:title="Add items received by the CommInterface to the recStack and execute the CommInterface&#39;s receiveCycle ...">
<polygon fill="white" stroke="#666666" points="129.25,-79.5 1.5,-79.5 1.5,-49 129.25,-49 129.25,-79.5"/>
<text text-anchor="start" x="9.5" y="-66" font-family="Helvetica,sans-Serif" font-size="10.00">ServiceInterface::process</text>
<text text-anchor="middle" x="65.38" y="-54.75" font-family="Helvetica,sans-Serif" font-size="10.00">RecStack</text>
</a>
</g>
</g>
<!-- Node3&#45;&gt;Node5 -->
<g id="edge4_Node000003_Node000005" class="edge">
<title>Node3&#45;&gt;Node5</title>
<g id="a_edge4_Node000003_Node000005"><a xlink:title=" ">
<path fill="none" stroke="#63b8ff" d="M159.77,-64.25C149.67,-64.25 139.44,-64.25 129.62,-64.25"/>
<polygon fill="#63b8ff" stroke="#63b8ff" points="159.56,-67.75 169.56,-64.25 159.56,-60.75 159.56,-67.75"/>
</a>
</g>
</g>
<!-- Node6 -->
<g id="Node000006" class="node">
<title>Node6</title>
<g id="a_Node000006"><a xlink:href="class_service_interface.html#a23feb243ed1748e04dd757aa5f788b3e" target="_top" xlink:title="Send all Frames, stored in the sendStack. As long as the sendStack is not empty, the function is gett...">
<polygon fill="white" stroke="#666666" points="129.25,-30.5 1.5,-30.5 1.5,0 129.25,0 129.25,-30.5"/>
<text text-anchor="start" x="9.5" y="-17" font-family="Helvetica,sans-Serif" font-size="10.00">ServiceInterface::process</text>
<text text-anchor="middle" x="65.38" y="-5.75" font-family="Helvetica,sans-Serif" font-size="10.00">SendStack</text>
</a>
</g>
</g>
<!-- Node3&#45;&gt;Node6 -->
<g id="edge5_Node000003_Node000006" class="edge">
<title>Node3&#45;&gt;Node6</title>
<g id="a_edge5_Node000003_Node000006"><a xlink:title=" ">
<path fill="none" stroke="#63b8ff" d="M188.51,-51.26C181.2,-49.28 173.77,-47.24 166.75,-45.25 150.82,-40.74 133.54,-35.65 117.87,-30.96"/>
<polygon fill="#63b8ff" stroke="#63b8ff" points="187.4,-54.59 197.97,-53.81 189.22,-47.83 187.4,-54.59"/>
</a>
</g>
</g>
</g>
</svg>
