<?xml version="1.0" encoding="UTF-8" standalone="no"?>
<!DOCTYPE svg PUBLIC "-//W3C//DTD SVG 1.1//EN"
 "http://www.w3.org/Graphics/SVG/1.1/DTD/svg11.dtd">
<!-- Generated by graphviz version 12.1.2 (20240928.0832)
 -->
<!-- Title: ServiceClusterBase::getService_byID Pages: 1 -->
<svg width="449pt" height="137pt"
 viewBox="0.00 0.00 449.00 136.50" xmlns="http://www.w3.org/2000/svg" xmlns:xlink="http://www.w3.org/1999/xlink">
<g id="graph0" class="graph" transform="scale(1 1) rotate(0) translate(4 132.5)">
<title>ServiceClusterBase::getService_byID</title>
<!-- Node1 -->
<g id="Node000001" class="node">
<title>Node1</title>
<g id="a_Node000001"><a xlink:title="Get pointer to the service with the given service&#45;ID by iterating through the associated services and...">
<polygon fill="#999999" stroke="#666666" points="441,-79.5 338,-79.5 338,-49 441,-49 441,-79.5"/>
<text text-anchor="start" x="346" y="-66" font-family="Helvetica,sans-Serif" font-size="10.00">ServiceClusterBase</text>
<text text-anchor="middle" x="389.5" y="-54.75" font-family="Helvetica,sans-Serif" font-size="10.00">::getService_byID</text>
</a>
</g>
</g>
<!-- Node2 -->
<g id="Node000002" class="node">
<title>Node2</title>
<g id="a_Node000002"><a xlink:href="class_service_interface.html#a42226b8c236c344b6c5d171736a08f6e" target="_top" xlink:title="Check if an ErrorService is registered in the service cluster under the defined ERRORSERVICE_ID of th...">
<polygon fill="white" stroke="#666666" points="302,-73.88 166.75,-73.88 166.75,-54.62 302,-54.62 302,-73.88"/>
<text text-anchor="middle" x="234.38" y="-60.38" font-family="Helvetica,sans-Serif" font-size="10.00">ServiceInterface::raiseError</text>
</a>
</g>
</g>
<!-- Node1&#45;&gt;Node2 -->
<g id="edge1_Node000001_Node000002" class="edge">
<title>Node1&#45;&gt;Node2</title>
<g id="a_edge1_Node000001_Node000002"><a xlink:title=" ">
<path fill="none" stroke="#63b8ff" d="M326.24,-64.25C318.41,-64.25 310.38,-64.25 302.49,-64.25"/>
<polygon fill="#63b8ff" stroke="#63b8ff" points="326,-67.75 336,-64.25 326,-60.75 326,-67.75"/>
</a>
</g>
</g>
<!-- Node3 -->
<g id="Node000003" class="node">
<title>Node3</title>
<g id="a_Node000003"><a xlink:href="class_service_interface.html#a48cffd1603069be11ee25c930a139c84" target="_top" xlink:title="Add PDUs from all received frames to the corresponding services.">
<polygon fill="white" stroke="#666666" points="130.75,-128.5 0,-128.5 0,-98 130.75,-98 130.75,-128.5"/>
<text text-anchor="start" x="8" y="-115" font-family="Helvetica,sans-Serif" font-size="10.00">ServiceInterface::addPDU</text>
<text text-anchor="middle" x="65.38" y="-103.75" font-family="Helvetica,sans-Serif" font-size="10.00">_to_services</text>
</a>
</g>
</g>
<!-- Node2&#45;&gt;Node3 -->
<g id="edge2_Node000002_Node000003" class="edge">
<title>Node2&#45;&gt;Node3</title>
<g id="a_edge2_Node000002_Node000003"><a xlink:title=" ">
<path fill="none" stroke="#63b8ff" d="M188.26,-77.49C167.2,-83.67 141.96,-91.07 119.93,-97.54"/>
<polygon fill="#63b8ff" stroke="#63b8ff" points="189.11,-80.88 197.72,-74.71 187.14,-74.17 189.11,-80.88"/>
</a>
</g>
</g>
<!-- Node4 -->
<g id="Node000004" class="node">
<title>Node4</title>
<g id="a_Node000004"><a xlink:href="class_service_interface.html#a7c5ec5e13af8a67d1b08c963fcd71214" target="_top" xlink:title="Add items received by the CommInterface to the recStack and execute the CommInterface&#39;s receiveCycle ...">
<polygon fill="white" stroke="#666666" points="129.25,-79.5 1.5,-79.5 1.5,-49 129.25,-49 129.25,-79.5"/>
<text text-anchor="start" x="9.5" y="-66" font-family="Helvetica,sans-Serif" font-size="10.00">ServiceInterface::process</text>
<text text-anchor="middle" x="65.38" y="-54.75" font-family="Helvetica,sans-Serif" font-size="10.00">RecStack</text>
</a>
</g>
</g>
<!-- Node2&#45;&gt;Node4 -->
<g id="edge3_Node000002_Node000004" class="edge">
<title>Node2&#45;&gt;Node4</title>
<g id="a_edge3_Node000002_Node000004"><a xlink:title=" ">
<path fill="none" stroke="#63b8ff" d="M154.9,-64.25C146.41,-64.25 137.84,-64.25 129.56,-64.25"/>
<polygon fill="#63b8ff" stroke="#63b8ff" points="154.9,-67.75 164.9,-64.25 154.9,-60.75 154.9,-67.75"/>
</a>
</g>
</g>
<!-- Node5 -->
<g id="Node000005" class="node">
<title>Node5</title>
<g id="a_Node000005"><a xlink:href="class_service_interface.html#a23feb243ed1748e04dd757aa5f788b3e" target="_top" xlink:title="Send all Frames, stored in the sendStack. As long as the sendStack is not empty, the function is gett...">
<polygon fill="white" stroke="#666666" points="129.25,-30.5 1.5,-30.5 1.5,0 129.25,0 129.25,-30.5"/>
<text text-anchor="start" x="9.5" y="-17" font-family="Helvetica,sans-Serif" font-size="10.00">ServiceInterface::process</text>
<text text-anchor="middle" x="65.38" y="-5.75" font-family="Helvetica,sans-Serif" font-size="10.00">SendStack</text>
</a>
</g>
</g>
<!-- Node2&#45;&gt;Node5 -->
<g id="edge4_Node000002_Node000005" class="edge">
<title>Node2&#45;&gt;Node5</title>
<g id="a_edge4_Node000002_Node000005"><a xlink:title=" ">
<path fill="none" stroke="#63b8ff" d="M188.26,-51.01C167.2,-44.83 141.96,-37.43 119.93,-30.96"/>
<polygon fill="#63b8ff" stroke="#63b8ff" points="187.14,-54.33 197.72,-53.79 189.11,-47.62 187.14,-54.33"/>
</a>
</g>
</g>
</g>
</svg>
