<?xml version="1.0" encoding="UTF-8" standalone="no"?>
<!DOCTYPE svg PUBLIC "-//W3C//DTD SVG 1.1//EN"
 "http://www.w3.org/Graphics/SVG/1.1/DTD/svg11.dtd">
<!-- Generated by graphviz version 12.1.2 (20240928.0832)
 -->
<!-- Title: arduinoMocking::SoftwareSerial::flush Pages: 1 -->
<svg width="321pt" height="199pt"
 viewBox="0.00 0.00 321.25 198.88" xmlns="http://www.w3.org/2000/svg" xmlns:xlink="http://www.w3.org/1999/xlink">
<g id="graph0" class="graph" transform="scale(1 1) rotate(0) translate(4 194.88)">
<title>arduinoMocking::SoftwareSerial::flush</title>
<!-- Node1 -->
<g id="Node000001" class="node">
<title>Node1</title>
<g id="a_Node000001"><a xlink:title="Empties the internal queue and prints the flushed data to the console.">
<polygon fill="#999999" stroke="#666666" points="129.25,-122.5 0,-122.5 0,-92 129.25,-92 129.25,-122.5"/>
<text text-anchor="start" x="8" y="-109" font-family="Helvetica,sans-Serif" font-size="10.00">arduinoMocking::Software</text>
<text text-anchor="middle" x="64.62" y="-97.75" font-family="Helvetica,sans-Serif" font-size="10.00">Serial::flush</text>
</a>
</g>
</g>
<!-- Node2 -->
<g id="Node000002" class="node">
<title>Node2</title>
<g id="a_Node000002"><a xlink:href="class_content__stack.html#a7b2d11fd9ee9f45090a545031883edb6" target="_top" xlink:title="Delete item on index&#45;position from stack and shift all items with higher index, accepts only positive...">
<polygon fill="white" stroke="#666666" points="313.25,-190.88 165.25,-190.88 165.25,-171.62 313.25,-171.62 313.25,-190.88"/>
<text text-anchor="middle" x="239.25" y="-177.38" font-family="Helvetica,sans-Serif" font-size="10.00">Content_stack::deleteElement</text>
</a>
</g>
</g>
<!-- Node1&#45;&gt;Node2 -->
<g id="edge1_Node000001_Node000002" class="edge">
<title>Node1&#45;&gt;Node2</title>
<g id="a_edge1_Node000001_Node000002"><a xlink:title=" ">
<path fill="none" stroke="#63b8ff" d="M89.28,-122.97C108.92,-135.41 137.95,-152.44 165.25,-163.25 169.55,-164.95 174.06,-166.53 178.64,-167.98"/>
<polygon fill="#63b8ff" stroke="#63b8ff" points="177.34,-171.25 187.92,-170.72 179.32,-164.53 177.34,-171.25"/>
</a>
</g>
</g>
<!-- Node3 -->
<g id="Node000003" class="node">
<title>Node3</title>
<g id="a_Node000003"><a xlink:href="class_content__stack.html#a4710d468535ed030bf5f67052e68eebb" target="_top" xlink:title="Check if the Stack is empty (size is 0)">
<polygon fill="white" stroke="#666666" points="295.62,-153.88 182.88,-153.88 182.88,-134.62 295.62,-134.62 295.62,-153.88"/>
<text text-anchor="middle" x="239.25" y="-140.38" font-family="Helvetica,sans-Serif" font-size="10.00">Content_stack::empty</text>
</a>
</g>
</g>
<!-- Node1&#45;&gt;Node3 -->
<g id="edge2_Node000001_Node000003" class="edge">
<title>Node1&#45;&gt;Node3</title>
<g id="a_edge2_Node000001_Node000003"><a xlink:title=" ">
<path fill="none" stroke="#63b8ff" d="M129.41,-120.92C146.04,-124.48 163.86,-128.3 180.16,-131.8"/>
<polygon fill="#63b8ff" stroke="#63b8ff" points="179.19,-135.17 189.7,-133.84 180.66,-128.33 179.19,-135.17"/>
</a>
</g>
</g>
<!-- Node4 -->
<g id="Node000004" class="node">
<title>Node4</title>
<g id="a_Node000004"><a xlink:href="class_content__stack.html#a5ac2a896da7724281d9d85eb239f5084" target="_top" xlink:title="Get Pointer to element in the stack. Accepts positive and negative indexing.">
<polygon fill="white" stroke="#666666" points="306.88,-116.88 171.62,-116.88 171.62,-97.62 306.88,-97.62 306.88,-116.88"/>
<text text-anchor="middle" x="239.25" y="-103.38" font-family="Helvetica,sans-Serif" font-size="10.00">Content_stack::getElement</text>
</a>
</g>
</g>
<!-- Node1&#45;&gt;Node4 -->
<g id="edge3_Node000001_Node000004" class="edge">
<title>Node1&#45;&gt;Node4</title>
<g id="a_edge3_Node000001_Node000004"><a xlink:title=" ">
<path fill="none" stroke="#63b8ff" d="M129.41,-107.25C139.32,-107.25 149.66,-107.25 159.84,-107.25"/>
<polygon fill="#63b8ff" stroke="#63b8ff" points="159.74,-110.75 169.74,-107.25 159.74,-103.75 159.74,-110.75"/>
</a>
</g>
</g>
<!-- Node5 -->
<g id="Node000005" class="node">
<title>Node5</title>
<g id="a_Node000005"><a xlink:href="classarduino_mocking_1_1_mock_serial.html#a5574b127279fa6e099d1026d3a69a5d4" target="_top" xlink:title="Prints a string to the serial output.">
<polygon fill="white" stroke="#666666" points="308.75,-79.5 169.75,-79.5 169.75,-49 308.75,-49 308.75,-79.5"/>
<text text-anchor="start" x="177.75" y="-66" font-family="Helvetica,sans-Serif" font-size="10.00">arduinoMocking::MockSerial</text>
<text text-anchor="middle" x="239.25" y="-54.75" font-family="Helvetica,sans-Serif" font-size="10.00">::print</text>
</a>
</g>
</g>
<!-- Node1&#45;&gt;Node5 -->
<g id="edge4_Node000001_Node000005" class="edge">
<title>Node1&#45;&gt;Node5</title>
<g id="a_edge4_Node000001_Node000005"><a xlink:title=" ">
<path fill="none" stroke="#63b8ff" d="M128.43,-91.6C140.1,-88.7 152.38,-85.64 164.33,-82.66"/>
<polygon fill="#63b8ff" stroke="#63b8ff" points="164.87,-86.14 173.73,-80.32 163.18,-79.34 164.87,-86.14"/>
</a>
</g>
</g>
<!-- Node6 -->
<g id="Node000006" class="node">
<title>Node6</title>
<g id="a_Node000006"><a xlink:href="classarduino_mocking_1_1_mock_serial.html#a3ae50becfead299fa547d158a80544d4" target="_top" xlink:title="Prints a string followed by a newline to the serial output.">
<polygon fill="white" stroke="#666666" points="308.75,-30.5 169.75,-30.5 169.75,0 308.75,0 308.75,-30.5"/>
<text text-anchor="start" x="177.75" y="-17" font-family="Helvetica,sans-Serif" font-size="10.00">arduinoMocking::MockSerial</text>
<text text-anchor="middle" x="239.25" y="-5.75" font-family="Helvetica,sans-Serif" font-size="10.00">::println</text>
</a>
</g>
</g>
<!-- Node1&#45;&gt;Node6 -->
<g id="edge5_Node000001_Node000006" class="edge">
<title>Node1&#45;&gt;Node6</title>
<g id="a_edge5_Node000001_Node000006"><a xlink:title=" ">
<path fill="none" stroke="#63b8ff" d="M85.28,-91.75C104.72,-76.99 135.76,-54.9 165.25,-40.25 168.88,-38.45 172.68,-36.72 176.55,-35.07"/>
<polygon fill="#63b8ff" stroke="#63b8ff" points="177.51,-38.46 185.49,-31.49 174.9,-31.96 177.51,-38.46"/>
</a>
</g>
</g>
</g>
</svg>
