<?xml version="1.0" encoding="UTF-8" standalone="no"?>
<!DOCTYPE svg PUBLIC "-//W3C//DTD SVG 1.1//EN"
 "http://www.w3.org/Graphics/SVG/1.1/DTD/svg11.dtd">
<!-- Generated by graphviz version 12.1.2 (20240928.0832)
 -->
<!-- Title: Frame_modbusRTU Pages: 1 -->
<svg width="152pt" height="206pt"
 viewBox="0.00 0.00 152.25 206.25" xmlns="http://www.w3.org/2000/svg" xmlns:xlink="http://www.w3.org/1999/xlink">
<g id="graph0" class="graph" transform="scale(1 1) rotate(0) translate(4 202.25)">
<title>Frame_modbusRTU</title>
<!-- Node1 -->
<g id="Node000001" class="node">
<title>Node1</title>
<g id="a_Node000001"><a xlink:title="Class for defining the structure of the Modbus&#45;RTU&#45;Frame. Can be constructed by a given modbus&#45;frame ...">
<polygon fill="#999999" stroke="#666666" points="124.38,-19.25 19.88,-19.25 19.88,0 124.38,0 124.38,-19.25"/>
<text text-anchor="middle" x="72.12" y="-5.75" font-family="Helvetica,sans-Serif" font-size="10.00">Frame_modbusRTU</text>
</a>
</g>
</g>
<!-- Node2 -->
<g id="Node000002" class="node">
<title>Node2</title>
<g id="a_Node000002"><a xlink:href="class_frame.html" target="_top" xlink:title="Frame&#45;Class as derived class from Content The derived classes define: &#45;the conversion from a given pa...">
<polygon fill="white" stroke="#666666" points="94,-75.5 50.25,-75.5 50.25,-56.25 94,-56.25 94,-75.5"/>
<text text-anchor="middle" x="72.12" y="-62" font-family="Helvetica,sans-Serif" font-size="10.00">Frame</text>
</a>
</g>
</g>
<!-- Node2&#45;&gt;Node1 -->
<g id="edge1_Node000001_Node000002" class="edge">
<title>Node2&#45;&gt;Node1</title>
<g id="a_edge1_Node000001_Node000002"><a xlink:title=" ">
<path fill="none" stroke="#63b8ff" d="M72.12,-44.69C72.12,-35.98 72.12,-26.24 72.12,-19.42"/>
<polygon fill="#63b8ff" stroke="#63b8ff" points="68.63,-44.4 72.13,-54.4 75.63,-44.4 68.63,-44.4"/>
</a>
</g>
</g>
<!-- Node3 -->
<g id="Node000003" class="node">
<title>Node3</title>
<g id="a_Node000003"><a xlink:href="class_content.html" target="_top" xlink:title=" ">
<polygon fill="white" stroke="#666666" points="144.25,-131.75 0,-131.75 0,-112.5 144.25,-112.5 144.25,-131.75"/>
<text text-anchor="middle" x="72.12" y="-118.25" font-family="Helvetica,sans-Serif" font-size="10.00">Content&lt; String, CharArray &gt;</text>
</a>
</g>
</g>
<!-- Node3&#45;&gt;Node2 -->
<g id="edge2_Node000002_Node000003" class="edge">
<title>Node3&#45;&gt;Node2</title>
<g id="a_edge2_Node000002_Node000003"><a xlink:title=" ">
<path fill="none" stroke="#63b8ff" d="M72.12,-100.94C72.12,-92.23 72.12,-82.49 72.12,-75.67"/>
<polygon fill="#63b8ff" stroke="#63b8ff" points="68.63,-100.65 72.13,-110.65 75.63,-100.65 68.63,-100.65"/>
</a>
</g>
</g>
<!-- Node4 -->
<g id="Node000004" class="node">
<title>Node4</title>
<g id="a_Node000004"><a xlink:href="class_char_array.html" target="_top" xlink:title="Class for storing char&#45;array (byte&#45;array) together with size. The Array is stored on Heap&#45;memory and ...">
<polygon fill="white" stroke="#666666" points="102.25,-198.25 42,-198.25 42,-179 102.25,-179 102.25,-198.25"/>
<text text-anchor="middle" x="72.12" y="-184.75" font-family="Helvetica,sans-Serif" font-size="10.00">CharArray</text>
</a>
</g>
</g>
<!-- Node4&#45;&gt;Node3 -->
<g id="edge3_Node000003_Node000004" class="edge">
<title>Node4&#45;&gt;Node3</title>
<g id="a_edge3_Node000003_Node000004"><a xlink:title=" ">
<path fill="none" stroke="#9a32cd" stroke-dasharray="5,2" d="M72.12,-167.15C72.12,-155.32 72.12,-141.04 72.12,-132.02"/>
<polygon fill="#9a32cd" stroke="#9a32cd" points="68.63,-167.14 72.13,-177.14 75.63,-167.14 68.63,-167.14"/>
</a>
</g>
<text text-anchor="middle" x="104.38" y="-151.5" font-family="Helvetica,sans-Serif" font-size="10.00" fill="grey"> representation</text>
</g>
</g>
</svg>
