<?xml version="1.0" encoding="UTF-8" standalone="no"?>
<!DOCTYPE svg PUBLIC "-//W3C//DTD SVG 1.1//EN"
 "http://www.w3.org/Graphics/SVG/1.1/DTD/svg11.dtd">
<!-- Generated by graphviz version 12.1.2 (20240928.0832)
 -->
<!-- Title: ServiceInterface::processRecStack Pages: 1 -->
<svg width="638pt" height="352pt"
 viewBox="0.00 0.00 638.25 352.47" xmlns="http://www.w3.org/2000/svg" xmlns:xlink="http://www.w3.org/1999/xlink">
<g id="graph0" class="graph" transform="scale(1 1) rotate(0) translate(4 348.47)">
<title>ServiceInterface::processRecStack</title>
<!-- Node1 -->
<g id="Node000001" class="node">
<title>Node1</title>
<g id="a_Node000001"><a xlink:title="Add items received by the CommInterface to the recStack and execute the CommInterface&#39;s receiveCycle ...">
<polygon fill="#999999" stroke="#666666" points="127.75,-202.5 0,-202.5 0,-172 127.75,-172 127.75,-202.5"/>
<text text-anchor="start" x="8" y="-189" font-family="Helvetica,sans-Serif" font-size="10.00">ServiceInterface::process</text>
<text text-anchor="middle" x="63.88" y="-177.75" font-family="Helvetica,sans-Serif" font-size="10.00">RecStack</text>
</a>
</g>
</g>
<!-- Node2 -->
<g id="Node000002" class="node">
<title>Node2</title>
<g id="a_Node000002"><a xlink:href="class_content__stack.html#a3d5491c67763ef3c19780619d70cb59a" target="_top" xlink:title="Add item to stack.">
<polygon fill="white" stroke="#666666" points="630.25,-227.88 492.75,-227.88 492.75,-208.62 630.25,-208.62 630.25,-227.88"/>
<text text-anchor="middle" x="561.5" y="-214.38" font-family="Helvetica,sans-Serif" font-size="10.00">Content_stack::addElement</text>
</a>
</g>
</g>
<!-- Node1&#45;&gt;Node2 -->
<g id="edge1_Node000001_Node000002" class="edge">
<title>Node1&#45;&gt;Node2</title>
<g id="a_edge1_Node000001_Node000002"><a xlink:title=" ">
<path fill="none" stroke="#63b8ff" d="M70.58,-202.79C82.52,-232.7 113.29,-297.55 163.75,-323.25 295.76,-390.49 475.06,-279.24 537.75,-235.08"/>
<polygon fill="#63b8ff" stroke="#63b8ff" points="539.79,-237.93 545.87,-229.26 535.71,-232.24 539.79,-237.93"/>
</a>
</g>
</g>
<!-- Node3 -->
<g id="Node000003" class="node">
<title>Node3</title>
<g id="a_Node000003"><a xlink:href="class_error_state.html#a2a2b91200168f27971ff6e63a8ab0e38" target="_top" xlink:title="sets the current error&#45;state to &quot;no Error&quot;">
<polygon fill="white" stroke="#666666" points="299,-313.88 167.5,-313.88 167.5,-294.62 299,-294.62 299,-313.88"/>
<text text-anchor="middle" x="233.25" y="-300.38" font-family="Helvetica,sans-Serif" font-size="10.00">ErrorState::clearErrorState</text>
</a>
</g>
</g>
<!-- Node1&#45;&gt;Node3 -->
<g id="edge2_Node000001_Node000003" class="edge">
<title>Node1&#45;&gt;Node3</title>
<g id="a_edge2_Node000001_Node000003"><a xlink:title=" ">
<path fill="none" stroke="#63b8ff" d="M76.1,-202.85C92.73,-224.82 126.05,-264.59 163.75,-286.25 166.09,-287.59 168.53,-288.84 171.04,-289.99"/>
<polygon fill="#63b8ff" stroke="#63b8ff" points="169.65,-293.21 180.24,-293.68 172.26,-286.71 169.65,-293.21"/>
</a>
</g>
</g>
<!-- Node4 -->
<g id="Node000004" class="node">
<title>Node4</title>
<g id="a_Node000004"><a xlink:href="class_content__stack.html#a200a86b0f3bdfa24e4a56b5e02efb02a" target="_top" xlink:title="Check if the Stack is full (size reached MaxSize)">
<polygon fill="white" stroke="#666666" points="282.5,-276.88 184,-276.88 184,-257.62 282.5,-257.62 282.5,-276.88"/>
<text text-anchor="middle" x="233.25" y="-263.38" font-family="Helvetica,sans-Serif" font-size="10.00">Content_stack::full</text>
</a>
</g>
</g>
<!-- Node1&#45;&gt;Node4 -->
<g id="edge3_Node000001_Node000004" class="edge">
<title>Node1&#45;&gt;Node4</title>
<g id="a_edge3_Node000001_Node000004"><a xlink:title=" ">
<path fill="none" stroke="#63b8ff" d="M85.44,-202.76C104.76,-216.68 134.93,-236.77 163.75,-249.25 167.53,-250.88 171.49,-252.4 175.52,-253.8"/>
<polygon fill="#63b8ff" stroke="#63b8ff" points="174.24,-257.07 184.83,-256.77 176.37,-250.4 174.24,-257.07"/>
</a>
</g>
</g>
<!-- Node5 -->
<g id="Node000005" class="node">
<title>Node5</title>
<g id="a_Node000005"><a xlink:href="class_error_state.html#a55090bb1772cd8c20c936b5a9cf4f2ce" target="_top" xlink:title="Get the currently active error&#45;code.">
<polygon fill="white" stroke="#666666" points="295.25,-239.88 171.25,-239.88 171.25,-220.62 295.25,-220.62 295.25,-239.88"/>
<text text-anchor="middle" x="233.25" y="-226.38" font-family="Helvetica,sans-Serif" font-size="10.00">ErrorState::getErrorState</text>
</a>
</g>
</g>
<!-- Node1&#45;&gt;Node5 -->
<g id="edge4_Node000001_Node000005" class="edge">
<title>Node1&#45;&gt;Node5</title>
<g id="a_edge4_Node000001_Node000005"><a xlink:title=" ">
<path fill="none" stroke="#63b8ff" d="M125.77,-202.9C144.26,-207.65 164.36,-212.81 182.06,-217.36"/>
<polygon fill="#63b8ff" stroke="#63b8ff" points="181,-220.7 191.56,-219.8 182.74,-213.92 181,-220.7"/>
</a>
</g>
</g>
<!-- Node6 -->
<g id="Node000006" class="node">
<title>Node6</title>
<g id="a_Node000006"><a xlink:href="class_comm_interface_base.html#a24de53b6a6f3150b9c2f904fbf872ef5" target="_top" xlink:title="Define the destination, the next received Frame should be copied to ba a pointer to an empty String&#45;O...">
<polygon fill="white" stroke="#666666" points="289.25,-202.5 177.25,-202.5 177.25,-172 289.25,-172 289.25,-202.5"/>
<text text-anchor="start" x="185.25" y="-189" font-family="Helvetica,sans-Serif" font-size="10.00">CommInterfaceBase::</text>
<text text-anchor="middle" x="233.25" y="-177.75" font-family="Helvetica,sans-Serif" font-size="10.00">getReceivedFrame</text>
</a>
</g>
</g>
<!-- Node1&#45;&gt;Node6 -->
<g id="edge5_Node000001_Node000006" class="edge">
<title>Node1&#45;&gt;Node6</title>
<g id="a_edge5_Node000001_Node000006"><a xlink:title=" ">
<path fill="none" stroke="#63b8ff" d="M128.15,-187.25C140.41,-187.25 153.3,-187.25 165.66,-187.25"/>
<polygon fill="#63b8ff" stroke="#63b8ff" points="165.32,-190.75 175.32,-187.25 165.32,-183.75 165.32,-190.75"/>
</a>
</g>
</g>
<!-- Node7 -->
<g id="Node000007" class="node">
<title>Node7</title>
<g id="a_Node000007"><a xlink:href="class_char_array.html#a384344479de289fff7c98966f0b079be" target="_top" xlink:title="Retrieves the size of the char array.">
<polygon fill="white" stroke="#666666" points="282.88,-153.88 183.62,-153.88 183.62,-134.62 282.88,-134.62 282.88,-153.88"/>
<text text-anchor="middle" x="233.25" y="-140.38" font-family="Helvetica,sans-Serif" font-size="10.00">CharArray::getSize</text>
</a>
</g>
</g>
<!-- Node1&#45;&gt;Node7 -->
<g id="edge6_Node000001_Node000007" class="edge">
<title>Node1&#45;&gt;Node7</title>
<g id="a_edge6_Node000001_Node000007"><a xlink:title=" ">
<path fill="none" stroke="#63b8ff" d="M125.77,-171.6C144.26,-166.85 164.36,-161.69 182.06,-157.14"/>
<polygon fill="#63b8ff" stroke="#63b8ff" points="182.74,-160.58 191.56,-154.7 181,-153.8 182.74,-160.58"/>
</a>
</g>
</g>
<!-- Node8 -->
<g id="Node000008" class="node">
<title>Node8</title>
<g id="a_Node000008"><a xlink:href="classarduino_mocking_1_1_mock_serial.html#a3ae50becfead299fa547d158a80544d4" target="_top" xlink:title="Prints a string followed by a newline to the serial output.">
<polygon fill="white" stroke="#666666" points="302.75,-116.5 163.75,-116.5 163.75,-86 302.75,-86 302.75,-116.5"/>
<text text-anchor="start" x="171.75" y="-103" font-family="Helvetica,sans-Serif" font-size="10.00">arduinoMocking::MockSerial</text>
<text text-anchor="middle" x="233.25" y="-91.75" font-family="Helvetica,sans-Serif" font-size="10.00">::println</text>
</a>
</g>
</g>
<!-- Node1&#45;&gt;Node8 -->
<g id="edge7_Node000001_Node000008" class="edge">
<title>Node1&#45;&gt;Node8</title>
<g id="a_edge7_Node000001_Node000008"><a xlink:title=" ">
<path fill="none" stroke="#63b8ff" d="M86.45,-171.75C105.95,-158.21 135.82,-138.69 163.75,-125.25 166.62,-123.87 169.6,-122.52 172.63,-121.22"/>
<polygon fill="#63b8ff" stroke="#63b8ff" points="173.71,-124.56 181.66,-117.55 171.08,-118.08 173.71,-124.56"/>
</a>
</g>
</g>
<!-- Node9 -->
<g id="Node000009" class="node">
<title>Node9</title>
<g id="a_Node000009"><a xlink:href="class_service_interface.html#a42226b8c236c344b6c5d171736a08f6e" target="_top" xlink:title="Check if an ErrorService is registered in the service cluster under the defined ERRORSERVICE_ID of th...">
<polygon fill="white" stroke="#666666" points="300.88,-67.88 165.62,-67.88 165.62,-48.62 300.88,-48.62 300.88,-67.88"/>
<text text-anchor="middle" x="233.25" y="-54.38" font-family="Helvetica,sans-Serif" font-size="10.00">ServiceInterface::raiseError</text>
</a>
</g>
</g>
<!-- Node1&#45;&gt;Node9 -->
<g id="edge8_Node000001_Node000009" class="edge">
<title>Node1&#45;&gt;Node9</title>
<g id="a_edge8_Node000001_Node000009"><a xlink:title=" ">
<path fill="none" stroke="#63b8ff" d="M74.66,-171.55C90.44,-147.57 123.8,-102 163.75,-77.25 166.5,-75.54 169.41,-73.99 172.42,-72.57"/>
<polygon fill="#63b8ff" stroke="#63b8ff" points="173.59,-75.87 181.51,-68.83 170.93,-69.4 173.59,-75.87"/>
</a>
</g>
</g>
<!-- Node13 -->
<g id="Node000013" class="node">
<title>Node13</title>
<g id="a_Node000013"><a xlink:href="class_comm_interface_base.html#a08f93b5ea06e7ffb99571f4798108da2" target="_top" xlink:title="Check, if a new Frame was received.">
<polygon fill="white" stroke="#666666" points="289.25,-30.5 177.25,-30.5 177.25,0 289.25,0 289.25,-30.5"/>
<text text-anchor="start" x="185.25" y="-17" font-family="Helvetica,sans-Serif" font-size="10.00">CommInterfaceBase::</text>
<text text-anchor="middle" x="233.25" y="-5.75" font-family="Helvetica,sans-Serif" font-size="10.00">receivedNewFrame</text>
</a>
</g>
</g>
<!-- Node1&#45;&gt;Node13 -->
<g id="edge13_Node000001_Node000013" class="edge">
<title>Node1&#45;&gt;Node13</title>
<g id="a_edge13_Node000001_Node000013"><a xlink:title=" ">
<path fill="none" stroke="#63b8ff" d="M71.13,-171.87C84.02,-142.03 116.37,-75.98 163.75,-39.25 164.9,-38.36 166.08,-37.5 167.3,-36.67"/>
<polygon fill="#63b8ff" stroke="#63b8ff" points="168.95,-39.76 175.79,-31.67 165.4,-33.73 168.95,-39.76"/>
</a>
</g>
</g>
<!-- Node10 -->
<g id="Node000010" class="node">
<title>Node10</title>
<g id="a_Node000010"><a xlink:href="class_service_cluster_base.html#ae025282a6ef15d01eaba440bdf73a750" target="_top" xlink:title="Get pointer to the service with the given service&#45;ID by iterating through the associated services and...">
<polygon fill="white" stroke="#666666" points="449.25,-134.5 346.25,-134.5 346.25,-104 449.25,-104 449.25,-134.5"/>
<text text-anchor="start" x="354.25" y="-121" font-family="Helvetica,sans-Serif" font-size="10.00">ServiceClusterBase</text>
<text text-anchor="middle" x="397.75" y="-109.75" font-family="Helvetica,sans-Serif" font-size="10.00">::getService_byID</text>
</a>
</g>
</g>
<!-- Node9&#45;&gt;Node10 -->
<g id="edge9_Node000009_Node000010" class="edge">
<title>Node9&#45;&gt;Node10</title>
<g id="a_edge9_Node000009_Node000010"><a xlink:title=" ">
<path fill="none" stroke="#63b8ff" d="M275.6,-68.33C284.65,-70.92 294.11,-73.93 302.75,-77.25 319.45,-83.67 322.47,-87.83 338.75,-95.25 341.63,-96.56 344.61,-97.89 347.62,-99.21"/>
<polygon fill="#63b8ff" stroke="#63b8ff" points="345.94,-102.3 356.51,-103.03 348.7,-95.86 345.94,-102.3"/>
</a>
</g>
</g>
<!-- Node11 -->
<g id="Node000011" class="node">
<title>Node11</title>
<g id="a_Node000011"><a xlink:href="class_error_service.html#a4db0ae1a3ca53fe1e6290b87390098ba" target="_top" xlink:title="Adds an Error&#45;object for the local Instance&#45;Id to the Error&#45;services rec&#45;stack.">
<polygon fill="white" stroke="#666666" points="456.75,-85.88 338.75,-85.88 338.75,-66.62 456.75,-66.62 456.75,-85.88"/>
<text text-anchor="middle" x="397.75" y="-72.38" font-family="Helvetica,sans-Serif" font-size="10.00">ErrorService::raiseError</text>
</a>
</g>
</g>
<!-- Node9&#45;&gt;Node11 -->
<g id="edge10_Node000009_Node000011" class="edge">
<title>Node9&#45;&gt;Node11</title>
<g id="a_edge10_Node000009_Node000011"><a xlink:title=" ">
<path fill="none" stroke="#63b8ff" d="M301.28,-65.68C309.85,-66.62 318.64,-67.6 327.25,-68.55"/>
<polygon fill="#63b8ff" stroke="#63b8ff" points="326.6,-72 336.93,-69.62 327.38,-65.04 326.6,-72"/>
</a>
</g>
</g>
<!-- Node12 -->
<g id="Node000012" class="node">
<title>Node12</title>
<g id="a_Node000012"><a xlink:href="class_error_state.html#ab996befaa1eb1089914ab0fbfecfcf39" target="_top" xlink:title="raises a new error by setting the given error&#45;code as errorState">
<polygon fill="white" stroke="#666666" points="451.88,-48.88 343.62,-48.88 343.62,-29.62 451.88,-29.62 451.88,-48.88"/>
<text text-anchor="middle" x="397.75" y="-35.38" font-family="Helvetica,sans-Serif" font-size="10.00">ErrorState::raiseError</text>
</a>
</g>
</g>
<!-- Node9&#45;&gt;Node12 -->
<g id="edge12_Node000009_Node000012" class="edge">
<title>Node9&#45;&gt;Node12</title>
<g id="a_edge12_Node000009_Node000012"><a xlink:title=" ">
<path fill="none" stroke="#63b8ff" d="M301.28,-50.41C311.45,-49.22 321.92,-48 332.03,-46.82"/>
<polygon fill="#63b8ff" stroke="#63b8ff" points="332.23,-50.32 341.76,-45.68 331.42,-43.37 332.23,-50.32"/>
</a>
</g>
</g>
<!-- Node11&#45;&gt;Node2 -->
<g id="edge11_Node000011_Node000002" class="edge">
<title>Node11&#45;&gt;Node2</title>
<g id="a_edge11_Node000011_Node000002"><a xlink:title=" ">
<path fill="none" stroke="#63b8ff" d="M439.42,-86.36C445.49,-88.76 451.48,-91.7 456.75,-95.25 498.05,-123.1 532.16,-171.84 549.05,-198.84"/>
<polygon fill="#63b8ff" stroke="#63b8ff" points="545.86,-200.34 554.06,-207.06 551.84,-196.7 545.86,-200.34"/>
</a>
</g>
</g>
</g>
</svg>
