<?xml version="1.0" encoding="UTF-8" standalone="no"?>
<!DOCTYPE svg PUBLIC "-//W3C//DTD SVG 1.1//EN"
 "http://www.w3.org/Graphics/SVG/1.1/DTD/svg11.dtd">
<!-- Generated by graphviz version 12.1.2 (20240928.0832)
 -->
<!-- Title: Error Pages: 1 -->
<svg width="123pt" height="161pt"
 viewBox="0.00 0.00 123.00 161.25" xmlns="http://www.w3.org/2000/svg" xmlns:xlink="http://www.w3.org/1999/xlink">
<g id="graph0" class="graph" transform="scale(1 1) rotate(0) translate(4 157.25)">
<title>Error</title>
<!-- Node1 -->
<g id="Node000001" class="node">
<title>Node1</title>
<g id="a_Node000001"><a xlink:title="Represents an error with it&#39;s error&#45;content (error&#45;code and an error&#45;message), and provides methods f...">
<polygon fill="#999999" stroke="#666666" points="76,-19.25 39,-19.25 39,0 76,0 76,-19.25"/>
<text text-anchor="middle" x="57.5" y="-5.75" font-family="Helvetica,sans-Serif" font-size="10.00">Error</text>
</a>
</g>
</g>
<!-- Node2 -->
<g id="Node000002" class="node">
<title>Node2</title>
<g id="a_Node000002"><a xlink:href="class_content.html" target="_top" xlink:title=" ">
<polygon fill="white" stroke="#666666" points="115,-86.75 0,-86.75 0,-56.25 115,-56.25 115,-86.75"/>
<text text-anchor="start" x="8" y="-73.25" font-family="Helvetica,sans-Serif" font-size="10.00">Content&lt; ErrorContent</text>
<text text-anchor="middle" x="57.5" y="-62" font-family="Helvetica,sans-Serif" font-size="10.00">_t, String &gt;</text>
</a>
</g>
</g>
<!-- Node2&#45;&gt;Node1 -->
<g id="edge1_Node000001_Node000002" class="edge">
<title>Node2&#45;&gt;Node1</title>
<g id="a_edge1_Node000001_Node000002"><a xlink:title=" ">
<path fill="none" stroke="#63b8ff" d="M57.5,-44.77C57.5,-35.79 57.5,-26.29 57.5,-19.6"/>
<polygon fill="#63b8ff" stroke="#63b8ff" points="54,-44.49 57.5,-54.49 61,-44.49 54,-44.49"/>
</a>
</g>
</g>
<!-- Node3 -->
<g id="Node000003" class="node">
<title>Node3</title>
<g id="a_Node000003"><a xlink:href="struct_error_content__t.html" target="_top" xlink:title="Structure to hold an error code and its associated message.">
<polygon fill="white" stroke="#666666" points="97.38,-153.25 17.62,-153.25 17.62,-134 97.38,-134 97.38,-153.25"/>
<text text-anchor="middle" x="57.5" y="-139.75" font-family="Helvetica,sans-Serif" font-size="10.00">ErrorContent_t</text>
</a>
</g>
</g>
<!-- Node3&#45;&gt;Node2 -->
<g id="edge2_Node000002_Node000003" class="edge">
<title>Node3&#45;&gt;Node2</title>
<g id="a_edge2_Node000002_Node000003"><a xlink:title=" ">
<path fill="none" stroke="#9a32cd" stroke-dasharray="5,2" d="M57.5,-122.42C57.5,-111.16 57.5,-97.39 57.5,-87.17"/>
<polygon fill="#9a32cd" stroke="#9a32cd" points="54,-122.23 57.5,-132.23 61,-122.23 54,-122.23"/>
</a>
</g>
<text text-anchor="middle" x="75.12" y="-106.5" font-family="Helvetica,sans-Serif" font-size="10.00" fill="grey"> content</text>
</g>
</g>
</svg>
