<?xml version="1.0" encoding="UTF-8" standalone="no"?>
<!DOCTYPE svg PUBLIC "-//W3C//DTD SVG 1.1//EN"
 "http://www.w3.org/Graphics/SVG/1.1/DTD/svg11.dtd">
<!-- Generated by graphviz version 12.1.2 (20240928.0832)
 -->
<!-- Title: CommInterface_modbusRTU::receive Pages: 1 -->
<svg width="502pt" height="285pt"
 viewBox="0.00 0.00 501.50 284.88" xmlns="http://www.w3.org/2000/svg" xmlns:xlink="http://www.w3.org/1999/xlink">
<g id="graph0" class="graph" transform="scale(1 1) rotate(0) translate(4 280.88)">
<title>CommInterface_modbusRTU::receive</title>
<!-- Node1 -->
<g id="Node000001" class="node">
<title>Node1</title>
<g id="a_Node000001"><a xlink:title="Receives a Modbus RTU frame and writes it to receiveBuffer.">
<polygon fill="#999999" stroke="#666666" points="144.25,-135.88 0,-135.88 0,-105.38 144.25,-105.38 144.25,-135.88"/>
<text text-anchor="start" x="8" y="-122.38" font-family="Helvetica,sans-Serif" font-size="10.00">CommInterface_modbusRTU</text>
<text text-anchor="middle" x="72.12" y="-111.12" font-family="Helvetica,sans-Serif" font-size="10.00">::receive</text>
</a>
</g>
</g>
<!-- Node2 -->
<g id="Node000002" class="node">
<title>Node2</title>
<g id="a_Node000002"><a xlink:href="classarduino_mocking_1_1_software_serial.html#a17c94423c8f8cbfda9d5e6c4ae04ed69" target="_top" xlink:title="Returns the number of available bytes in the internal queue.">
<polygon fill="white" stroke="#666666" points="309.5,-276.88 180.25,-276.88 180.25,-246.38 309.5,-246.38 309.5,-276.88"/>
<text text-anchor="start" x="188.25" y="-263.38" font-family="Helvetica,sans-Serif" font-size="10.00">arduinoMocking::Software</text>
<text text-anchor="middle" x="244.88" y="-252.12" font-family="Helvetica,sans-Serif" font-size="10.00">Serial::available</text>
</a>
</g>
</g>
<!-- Node1&#45;&gt;Node2 -->
<g id="edge1_Node000001_Node000002" class="edge">
<title>Node1&#45;&gt;Node2</title>
<g id="a_edge1_Node000001_Node000002"><a xlink:title=" ">
<path fill="none" stroke="#63b8ff" d="M83.9,-136.23C101.49,-160.68 138.61,-208.15 180.25,-236.62 182.32,-238.04 184.48,-239.39 186.7,-240.68"/>
<polygon fill="#63b8ff" stroke="#63b8ff" points="184.94,-243.71 195.42,-245.24 188.18,-237.5 184.94,-243.71"/>
</a>
</g>
</g>
<!-- Node4 -->
<g id="Node000004" class="node">
<title>Node4</title>
<g id="a_Node000004"><a xlink:href="class_error_state.html#a55090bb1772cd8c20c936b5a9cf4f2ce" target="_top" xlink:title="Get the currently active error&#45;code.">
<polygon fill="white" stroke="#666666" points="306.88,-130.25 182.88,-130.25 182.88,-111 306.88,-111 306.88,-130.25"/>
<text text-anchor="middle" x="244.88" y="-116.75" font-family="Helvetica,sans-Serif" font-size="10.00">ErrorState::getErrorState</text>
</a>
</g>
</g>
<!-- Node1&#45;&gt;Node4 -->
<g id="edge3_Node000001_Node000004" class="edge">
<title>Node1&#45;&gt;Node4</title>
<g id="a_edge3_Node000001_Node000004"><a xlink:title=" ">
<path fill="none" stroke="#63b8ff" d="M144.55,-120.62C153.32,-120.62 162.29,-120.62 171.08,-120.62"/>
<polygon fill="#63b8ff" stroke="#63b8ff" points="170.98,-124.13 180.98,-120.63 170.98,-117.13 170.98,-124.13"/>
</a>
</g>
</g>
<!-- Node5 -->
<g id="Node000005" class="node">
<title>Node5</title>
<g id="a_Node000005"><a xlink:href="class_char_array.html#a384344479de289fff7c98966f0b079be" target="_top" xlink:title="Retrieves the size of the char array.">
<polygon fill="white" stroke="#666666" points="294.5,-93.25 195.25,-93.25 195.25,-74 294.5,-74 294.5,-93.25"/>
<text text-anchor="middle" x="244.88" y="-79.75" font-family="Helvetica,sans-Serif" font-size="10.00">CharArray::getSize</text>
</a>
</g>
</g>
<!-- Node1&#45;&gt;Node5 -->
<g id="edge4_Node000001_Node000005" class="edge">
<title>Node1&#45;&gt;Node5</title>
<g id="a_edge4_Node000001_Node000005"><a xlink:title=" ">
<path fill="none" stroke="#63b8ff" d="M144.55,-105.15C158.47,-102.13 172.9,-99 186.31,-96.1"/>
<polygon fill="#63b8ff" stroke="#63b8ff" points="186.78,-99.58 195.81,-94.04 185.3,-92.74 186.78,-99.58"/>
</a>
</g>
</g>
<!-- Node6 -->
<g id="Node000006" class="node">
<title>Node6</title>
<g id="a_Node000006"><a xlink:href="namespacearduino_mocking.html#a0e9de3c37e4e59ae09b1590268fa0e17" target="_top" xlink:title="Simulates the micros function to get the number of microseconds since the program started.">
<polygon fill="white" stroke="#666666" points="304.62,-56.25 185.12,-56.25 185.12,-37 304.62,-37 304.62,-56.25"/>
<text text-anchor="middle" x="244.88" y="-42.75" font-family="Helvetica,sans-Serif" font-size="10.00">arduinoMocking::micros</text>
</a>
</g>
</g>
<!-- Node1&#45;&gt;Node6 -->
<g id="edge5_Node000001_Node000006" class="edge">
<title>Node1&#45;&gt;Node6</title>
<g id="a_edge5_Node000001_Node000006"><a xlink:title=" ">
<path fill="none" stroke="#63b8ff" d="M99.26,-105.02C120.52,-92.8 151.59,-76.03 180.25,-64.62 184.27,-63.02 188.5,-61.5 192.77,-60.07"/>
<polygon fill="#63b8ff" stroke="#63b8ff" points="193.48,-63.52 201.96,-57.17 191.37,-56.84 193.48,-63.52"/>
</a>
</g>
</g>
<!-- Node8 -->
<g id="Node000008" class="node">
<title>Node8</title>
<g id="a_Node000008"><a xlink:href="classarduino_mocking_1_1_software_serial.html#ae70b691c402eede6805828c476b96bf5" target="_top" xlink:title="Returns the next character in the queue without removing it.">
<polygon fill="white" stroke="#666666" points="309.5,-227.88 180.25,-227.88 180.25,-197.38 309.5,-197.38 309.5,-227.88"/>
<text text-anchor="start" x="188.25" y="-214.38" font-family="Helvetica,sans-Serif" font-size="10.00">arduinoMocking::Software</text>
<text text-anchor="middle" x="244.88" y="-203.12" font-family="Helvetica,sans-Serif" font-size="10.00">Serial::peek</text>
</a>
</g>
</g>
<!-- Node1&#45;&gt;Node8 -->
<g id="edge7_Node000001_Node000008" class="edge">
<title>Node1&#45;&gt;Node8</title>
<g id="a_edge7_Node000001_Node000008"><a xlink:title=" ">
<path fill="none" stroke="#63b8ff" d="M95.4,-136.26C116.59,-150.72 149.69,-172.23 180.25,-187.62 183.48,-189.25 186.85,-190.85 190.27,-192.4"/>
<polygon fill="#63b8ff" stroke="#63b8ff" points="188.66,-195.51 199.23,-196.28 191.44,-189.09 188.66,-195.51"/>
</a>
</g>
</g>
<!-- Node10 -->
<g id="Node000010" class="node">
<title>Node10</title>
<g id="a_Node000010"><a xlink:href="class_error_state.html#ab996befaa1eb1089914ab0fbfecfcf39" target="_top" xlink:title="raises a new error by setting the given error&#45;code as errorState">
<polygon fill="white" stroke="#666666" points="299,-19.25 190.75,-19.25 190.75,0 299,0 299,-19.25"/>
<text text-anchor="middle" x="244.88" y="-5.75" font-family="Helvetica,sans-Serif" font-size="10.00">ErrorState::raiseError</text>
</a>
</g>
</g>
<!-- Node1&#45;&gt;Node10 -->
<g id="edge10_Node000001_Node000010" class="edge">
<title>Node1&#45;&gt;Node10</title>
<g id="a_edge10_Node000001_Node000010"><a xlink:title=" ">
<path fill="none" stroke="#63b8ff" d="M86.8,-105.09C105.78,-84.46 142.11,-48.23 180.25,-27.62 182.77,-26.26 185.4,-25 188.1,-23.82"/>
<polygon fill="#63b8ff" stroke="#63b8ff" points="189.27,-27.12 197.33,-20.25 186.74,-20.59 189.27,-27.12"/>
</a>
</g>
</g>
<!-- Node11 -->
<g id="Node000011" class="node">
<title>Node11</title>
<g id="a_Node000011"><a xlink:href="classarduino_mocking_1_1_software_serial.html#a892a38a5eb6b0c115c2745098c9637ad" target="_top" xlink:title="Reads a character from the internal queue.">
<polygon fill="white" stroke="#666666" points="309.5,-178.88 180.25,-178.88 180.25,-148.38 309.5,-148.38 309.5,-178.88"/>
<text text-anchor="start" x="188.25" y="-165.38" font-family="Helvetica,sans-Serif" font-size="10.00">arduinoMocking::Software</text>
<text text-anchor="middle" x="244.88" y="-154.12" font-family="Helvetica,sans-Serif" font-size="10.00">Serial::read</text>
</a>
</g>
</g>
<!-- Node1&#45;&gt;Node11 -->
<g id="edge11_Node000001_Node000011" class="edge">
<title>Node1&#45;&gt;Node11</title>
<g id="a_edge11_Node000001_Node000011"><a xlink:title=" ">
<path fill="none" stroke="#63b8ff" d="M135.25,-136.27C146.67,-139.15 158.69,-142.17 170.4,-145.12"/>
<polygon fill="#63b8ff" stroke="#63b8ff" points="169.49,-148.5 180.04,-147.55 171.2,-141.71 169.49,-148.5"/>
</a>
</g>
</g>
<!-- Node3 -->
<g id="Node000003" class="node">
<title>Node3</title>
<g id="a_Node000003"><a xlink:href="class_content__stack.html#a4710d468535ed030bf5f67052e68eebb" target="_top" xlink:title="Check if the Stack is empty (size is 0)">
<polygon fill="white" stroke="#666666" points="475.88,-234.25 363.12,-234.25 363.12,-215 475.88,-215 475.88,-234.25"/>
<text text-anchor="middle" x="419.5" y="-220.75" font-family="Helvetica,sans-Serif" font-size="10.00">Content_stack::empty</text>
</a>
</g>
</g>
<!-- Node2&#45;&gt;Node3 -->
<g id="edge2_Node000002_Node000003" class="edge">
<title>Node2&#45;&gt;Node3</title>
<g id="a_edge2_Node000002_Node000003"><a xlink:title=" ">
<path fill="none" stroke="#63b8ff" d="M309.66,-247.95C326.29,-244.39 344.11,-240.57 360.41,-237.07"/>
<polygon fill="#63b8ff" stroke="#63b8ff" points="360.91,-240.55 369.95,-235.03 359.44,-233.7 360.91,-240.55"/>
</a>
</g>
</g>
<!-- Node7 -->
<g id="Node000007" class="node">
<title>Node7</title>
<g id="a_Node000007"><a xlink:href="classarduino_mocking_1_1_mock_time.html#ab64e9362462abf0408b234e7b144c0fc" target="_top" xlink:title="Returns the simulated time in microseconds.">
<polygon fill="white" stroke="#666666" points="487.5,-61.88 351.5,-61.88 351.5,-31.38 487.5,-31.38 487.5,-61.88"/>
<text text-anchor="start" x="359.5" y="-48.38" font-family="Helvetica,sans-Serif" font-size="10.00">arduinoMocking::MockTime</text>
<text text-anchor="middle" x="419.5" y="-37.12" font-family="Helvetica,sans-Serif" font-size="10.00">::micros</text>
</a>
</g>
</g>
<!-- Node6&#45;&gt;Node7 -->
<g id="edge6_Node000006_Node000007" class="edge">
<title>Node6&#45;&gt;Node7</title>
<g id="a_edge6_Node000006_Node000007"><a xlink:title=" ">
<path fill="none" stroke="#63b8ff" d="M304.8,-46.62C316.12,-46.62 328.15,-46.62 339.98,-46.62"/>
<polygon fill="#63b8ff" stroke="#63b8ff" points="339.72,-50.13 349.72,-46.63 339.72,-43.13 339.72,-50.13"/>
</a>
</g>
</g>
<!-- Node8&#45;&gt;Node3 -->
<g id="edge8_Node000008_Node000003" class="edge">
<title>Node8&#45;&gt;Node3</title>
<g id="a_edge8_Node000008_Node000003"><a xlink:title=" ">
<path fill="none" stroke="#63b8ff" d="M309.66,-217.06C323.24,-218 337.63,-219 351.33,-219.96"/>
<polygon fill="#63b8ff" stroke="#63b8ff" points="350.92,-223.44 361.14,-220.64 351.41,-216.45 350.92,-223.44"/>
</a>
</g>
</g>
<!-- Node9 -->
<g id="Node000009" class="node">
<title>Node9</title>
<g id="a_Node000009"><a xlink:href="class_content__stack.html#a5ac2a896da7724281d9d85eb239f5084" target="_top" xlink:title="Get Pointer to element in the stack. Accepts positive and negative indexing.">
<polygon fill="white" stroke="#666666" points="487.12,-197.25 351.88,-197.25 351.88,-178 487.12,-178 487.12,-197.25"/>
<text text-anchor="middle" x="419.5" y="-183.75" font-family="Helvetica,sans-Serif" font-size="10.00">Content_stack::getElement</text>
</a>
</g>
</g>
<!-- Node8&#45;&gt;Node9 -->
<g id="edge9_Node000008_Node000009" class="edge">
<title>Node8&#45;&gt;Node9</title>
<g id="a_edge9_Node000008_Node000009"><a xlink:title=" ">
<path fill="none" stroke="#63b8ff" d="M309.66,-203.39C319.68,-201.94 330.13,-200.42 340.42,-198.93"/>
<polygon fill="#63b8ff" stroke="#63b8ff" points="340.61,-202.44 350,-197.54 339.61,-195.51 340.61,-202.44"/>
</a>
</g>
</g>
<!-- Node11&#45;&gt;Node3 -->
<g id="edge13_Node000011_Node000003" class="edge">
<title>Node11&#45;&gt;Node3</title>
<g id="a_edge13_Node000011_Node000003"><a xlink:title=" ">
<path fill="none" stroke="#63b8ff" d="M287.51,-179.37C294.88,-182.33 302.45,-185.49 309.5,-188.62 325.84,-195.9 328.71,-200.45 345.5,-206.62 350.17,-208.35 355.08,-209.95 360.04,-211.44"/>
<polygon fill="#63b8ff" stroke="#63b8ff" points="358.88,-214.75 369.46,-214.1 360.79,-208.02 358.88,-214.75"/>
</a>
</g>
</g>
<!-- Node11&#45;&gt;Node9 -->
<g id="edge14_Node000011_Node000009" class="edge">
<title>Node11&#45;&gt;Node9</title>
<g id="a_edge14_Node000011_Node000009"><a xlink:title=" ">
<path fill="none" stroke="#63b8ff" d="M309.66,-172.49C319.68,-173.89 330.13,-175.34 340.42,-176.77"/>
<polygon fill="#63b8ff" stroke="#63b8ff" points="339.62,-180.19 350,-178.1 340.58,-173.26 339.62,-180.19"/>
</a>
</g>
</g>
<!-- Node12 -->
<g id="Node000012" class="node">
<title>Node12</title>
<g id="a_Node000012"><a xlink:href="class_content__stack.html#a7b2d11fd9ee9f45090a545031883edb6" target="_top" xlink:title="Delete item on index&#45;position from stack and shift all items with higher index, accepts only positive...">
<polygon fill="white" stroke="#666666" points="493.5,-160.25 345.5,-160.25 345.5,-141 493.5,-141 493.5,-160.25"/>
<text text-anchor="middle" x="419.5" y="-146.75" font-family="Helvetica,sans-Serif" font-size="10.00">Content_stack::deleteElement</text>
</a>
</g>
</g>
<!-- Node11&#45;&gt;Node12 -->
<g id="edge12_Node000011_Node000012" class="edge">
<title>Node11&#45;&gt;Node12</title>
<g id="a_edge12_Node000011_Node000012"><a xlink:title=" ">
<path fill="none" stroke="#63b8ff" d="M309.66,-158.82C317.5,-158.23 325.6,-157.62 333.68,-157.01"/>
<polygon fill="#63b8ff" stroke="#63b8ff" points="333.85,-160.51 343.56,-156.27 333.32,-153.53 333.85,-160.51"/>
</a>
</g>
</g>
</g>
</svg>
