<?xml version="1.0" encoding="UTF-8" standalone="no"?>
<!DOCTYPE svg PUBLIC "-//W3C//DTD SVG 1.1//EN"
 "http://www.w3.org/Graphics/SVG/1.1/DTD/svg11.dtd">
<!-- Generated by graphviz version 12.1.2 (20240928.0832)
 -->
<!-- Title: ServiceInterface&lt; CommInterfaceBase, frameType &gt; Pages: 1 -->
<svg width="515pt" height="173pt"
 viewBox="0.00 0.00 515.25 173.25" xmlns="http://www.w3.org/2000/svg" xmlns:xlink="http://www.w3.org/1999/xlink">
<g id="graph0" class="graph" transform="scale(1 1) rotate(0) translate(4 169.25)">
<title>ServiceInterface&lt; CommInterfaceBase, frameType &gt;</title>
<!-- Node1 -->
<g id="Node000001" class="node">
<title>Node1</title>
<g id="a_Node000001"><a xlink:title="Template for generic Service&#45;Interface Defines the handling of incoming frames from CommInterface to ...">
<polygon fill="#999999" stroke="#666666" points="507.25,-116.88 343.5,-116.88 343.5,-86.38 507.25,-86.38 507.25,-116.88"/>
<text text-anchor="start" x="351.5" y="-103.38" font-family="Helvetica,sans-Serif" font-size="10.00">ServiceInterface&lt; CommInterface</text>
<text text-anchor="middle" x="425.38" y="-92.12" font-family="Helvetica,sans-Serif" font-size="10.00">Base, frameType &gt;</text>
</a>
</g>
</g>
<!-- Node2 -->
<g id="Node000002" class="node">
<title>Node2</title>
<g id="a_Node000002"><a xlink:href="class_error_state.html" target="_top" xlink:title="A class to manage and track error states using error codes.">
<polygon fill="white" stroke="#666666" points="60.25,-165.25 0,-165.25 0,-146 60.25,-146 60.25,-165.25"/>
<text text-anchor="middle" x="30.12" y="-151.75" font-family="Helvetica,sans-Serif" font-size="10.00">ErrorState</text>
</a>
</g>
</g>
<!-- Node2&#45;&gt;Node1 -->
<g id="edge1_Node000001_Node000002" class="edge">
<title>Node2&#45;&gt;Node1</title>
<g id="a_edge1_Node000001_Node000002"><a xlink:title=" ">
<path fill="none" stroke="#63b8ff" d="M72.02,-160.55C74.46,-160.63 76.89,-160.66 79.25,-160.62 189.08,-158.86 219.66,-169 325.5,-139.62 346.94,-133.67 370.2,-124.86 388.77,-117.22"/>
<polygon fill="#63b8ff" stroke="#63b8ff" points="72.31,-157.06 62.11,-159.91 71.86,-164.04 72.31,-157.06"/>
</a>
</g>
</g>
<!-- Node3 -->
<g id="Node000003" class="node">
<title>Node3</title>
<g id="a_Node000003"><a xlink:href="class_comm_interface_base.html" target="_top" xlink:title="Communcation&#45;Interface&#45;Base&#45;Class of the CommInterface template specifies a standardized interface to...">
<polygon fill="white" stroke="#666666" points="219,-146.25 113,-146.25 113,-127 219,-127 219,-146.25"/>
<text text-anchor="middle" x="166" y="-132.75" font-family="Helvetica,sans-Serif" font-size="10.00">CommInterfaceBase</text>
</a>
</g>
</g>
<!-- Node2&#45;&gt;Node3 -->
<g id="edge3_Node000003_Node000002" class="edge">
<title>Node2&#45;&gt;Node3</title>
<g id="a_edge3_Node000003_Node000002"><a xlink:title=" ">
<path fill="none" stroke="#63b8ff" d="M71.84,-149.85C84.74,-148.02 99.18,-145.97 112.76,-144.04"/>
<polygon fill="#63b8ff" stroke="#63b8ff" points="71.41,-146.37 62,-151.24 72.4,-153.3 71.41,-146.37"/>
</a>
</g>
</g>
<!-- Node3&#45;&gt;Node1 -->
<g id="edge2_Node000001_Node000003" class="edge">
<title>Node3&#45;&gt;Node1</title>
<g id="a_edge2_Node000001_Node000003"><a xlink:title=" ">
<path fill="none" stroke="#9a32cd" stroke-dasharray="5,2" d="M230.59,-127.98C264.58,-123.35 306.81,-117.61 343.16,-112.67"/>
<polygon fill="#9a32cd" stroke="#9a32cd" points="230.33,-124.48 220.89,-129.3 231.27,-131.42 230.33,-124.48"/>
</a>
</g>
<text text-anchor="middle" x="289.12" y="-126.06" font-family="Helvetica,sans-Serif" font-size="10.00" fill="grey"> comm_interface</text>
</g>
<!-- Node4 -->
<g id="Node000004" class="node">
<title>Node4</title>
<g id="a_Node000004"><a xlink:href="class_service_cluster_base.html" target="_top" xlink:title="ServiceCluster&#45;base&#45;class to add class&#45;functions to vtable.">
<polygon fill="white" stroke="#666666" points="217.5,-109.25 114.5,-109.25 114.5,-90 217.5,-90 217.5,-109.25"/>
<text text-anchor="middle" x="166" y="-95.75" font-family="Helvetica,sans-Serif" font-size="10.00">ServiceClusterBase</text>
</a>
</g>
</g>
<!-- Node4&#45;&gt;Node1 -->
<g id="edge4_Node000001_Node000004" class="edge">
<title>Node4&#45;&gt;Node1</title>
<g id="a_edge4_Node000001_Node000004"><a xlink:title=" ">
<path fill="none" stroke="#9a32cd" stroke-dasharray="5,2" d="M229.12,-100.11C263.38,-100.37 306.35,-100.71 343.24,-100.99"/>
<polygon fill="#9a32cd" stroke="#9a32cd" points="229.39,-96.61 219.36,-100.03 229.33,-103.61 229.39,-96.61"/>
</a>
</g>
<text text-anchor="middle" x="289.12" y="-102.55" font-family="Helvetica,sans-Serif" font-size="10.00" fill="grey"> services</text>
</g>
<!-- Node5 -->
<g id="Node000005" class="node">
<title>Node5</title>
<g id="a_Node000005"><a xlink:href="class_content__stack.html" target="_top" xlink:title=" ">
<polygon fill="white" stroke="#666666" points="234.75,-70.88 97.25,-70.88 97.25,-40.38 234.75,-40.38 234.75,-70.88"/>
<text text-anchor="start" x="105.25" y="-57.38" font-family="Helvetica,sans-Serif" font-size="10.00">Content_stack&lt; frameType,</text>
<text text-anchor="middle" x="166" y="-46.12" font-family="Helvetica,sans-Serif" font-size="10.00"> STACKSIZE &gt;</text>
</a>
</g>
</g>
<!-- Node5&#45;&gt;Node1 -->
<g id="edge5_Node000001_Node000005" class="edge">
<title>Node5&#45;&gt;Node1</title>
<g id="a_edge5_Node000001_Node000005"><a xlink:title=" ">
<path fill="none" stroke="#9a32cd" stroke-dasharray="5,2" d="M246.66,-62.48C271.99,-65.31 300.04,-69.13 325.5,-74.12 341.32,-77.23 358.32,-81.58 373.67,-85.9"/>
<polygon fill="#9a32cd" stroke="#9a32cd" points="247.06,-59 236.74,-61.41 246.31,-65.96 247.06,-59"/>
</a>
</g>
<text text-anchor="middle" x="289.12" y="-87.12" font-family="Helvetica,sans-Serif" font-size="10.00" fill="grey"> recStack</text>
<text text-anchor="middle" x="289.12" y="-75.88" font-family="Helvetica,sans-Serif" font-size="10.00" fill="grey">sendStack</text>
</g>
<!-- Node6 -->
<g id="Node000006" class="node">
<title>Node6</title>
<g id="a_Node000006"><a xlink:href="class_char_array.html" target="_top" xlink:title="Class for storing char&#45;array (byte&#45;array) together with size. The Array is stored on Heap&#45;memory and ...">
<polygon fill="white" stroke="#666666" points="196.12,-19.25 135.88,-19.25 135.88,0 196.12,0 196.12,-19.25"/>
<text text-anchor="middle" x="166" y="-5.75" font-family="Helvetica,sans-Serif" font-size="10.00">CharArray</text>
</a>
</g>
</g>
<!-- Node6&#45;&gt;Node1 -->
<g id="edge6_Node000001_Node000006" class="edge">
<title>Node6&#45;&gt;Node1</title>
<g id="a_edge6_Node000001_Node000006"><a xlink:title=" ">
<path fill="none" stroke="#9a32cd" stroke-dasharray="5,2" d="M207.99,-12.16C240.74,-15.26 287.31,-22.1 325.5,-37.12 355.82,-49.06 386.62,-71.05 405.61,-86"/>
<polygon fill="#9a32cd" stroke="#9a32cd" points="208.36,-8.68 198.1,-11.31 207.76,-15.66 208.36,-8.68"/>
</a>
</g>
<text text-anchor="middle" x="289.12" y="-50.12" font-family="Helvetica,sans-Serif" font-size="10.00" fill="grey"> recItem</text>
<text text-anchor="middle" x="289.12" y="-38.88" font-family="Helvetica,sans-Serif" font-size="10.00" fill="grey">sendItem</text>
</g>
</g>
</svg>
