<?xml version="1.0" encoding="UTF-8" standalone="no"?>
<!DOCTYPE svg PUBLIC "-//W3C//DTD SVG 1.1//EN"
 "http://www.w3.org/Graphics/SVG/1.1/DTD/svg11.dtd">
<!-- Generated by graphviz version 12.1.2 (20240928.0832)
 -->
<!-- Title: Content_stack::empty Pages: 1 -->
<svg width="505pt" height="420pt"
 viewBox="0.00 0.00 504.50 419.88" xmlns="http://www.w3.org/2000/svg" xmlns:xlink="http://www.w3.org/1999/xlink">
<g id="graph0" class="graph" transform="scale(1 1) rotate(0) translate(4 415.88)">
<title>Content_stack::empty</title>
<!-- Node1 -->
<g id="Node000001" class="node">
<title>Node1</title>
<g id="a_Node000001"><a xlink:title="Check if the Stack is empty (size is 0)">
<polygon fill="#999999" stroke="#666666" points="496.5,-197.25 383.75,-197.25 383.75,-178 496.5,-178 496.5,-197.25"/>
<text text-anchor="middle" x="440.12" y="-183.75" font-family="Helvetica,sans-Serif" font-size="10.00">Content_stack::empty</text>
</a>
</g>
</g>
<!-- Node2 -->
<g id="Node000002" class="node">
<title>Node2</title>
<g id="a_Node000002"><a xlink:href="classarduino_mocking_1_1_software_serial.html#a17c94423c8f8cbfda9d5e6c4ae04ed69" target="_top" xlink:title="Returns the number of available bytes in the internal queue.">
<polygon fill="white" stroke="#666666" points="328.62,-362.88 199.38,-362.88 199.38,-332.38 328.62,-332.38 328.62,-362.88"/>
<text text-anchor="start" x="207.38" y="-349.38" font-family="Helvetica,sans-Serif" font-size="10.00">arduinoMocking::Software</text>
<text text-anchor="middle" x="264" y="-338.12" font-family="Helvetica,sans-Serif" font-size="10.00">Serial::available</text>
</a>
</g>
</g>
<!-- Node1&#45;&gt;Node2 -->
<g id="edge1_Node000001_Node000002" class="edge">
<title>Node1&#45;&gt;Node2</title>
<g id="a_edge1_Node000001_Node000002"><a xlink:title=" ">
<path fill="none" stroke="#63b8ff" d="M430.89,-208C417.78,-237.86 389.32,-293.27 347.75,-323.62 342.07,-327.77 335.69,-331.2 329.05,-334.05"/>
<polygon fill="#63b8ff" stroke="#63b8ff" points="434.04,-209.54 434.71,-198.97 427.59,-206.82 434.04,-209.54"/>
</a>
</g>
</g>
<!-- Node4 -->
<g id="Node000004" class="node">
<title>Node4</title>
<g id="a_Node000004"><a xlink:href="classarduino_mocking_1_1_software_serial.html#a5785050c0162a9c4285b822d1dd940a1" target="_top" xlink:title="Empties the internal queue and prints the flushed data to the console.">
<polygon fill="white" stroke="#666666" points="328.62,-411.88 199.38,-411.88 199.38,-381.38 328.62,-381.38 328.62,-411.88"/>
<text text-anchor="start" x="207.38" y="-398.38" font-family="Helvetica,sans-Serif" font-size="10.00">arduinoMocking::Software</text>
<text text-anchor="middle" x="264" y="-387.12" font-family="Helvetica,sans-Serif" font-size="10.00">Serial::flush</text>
</a>
</g>
</g>
<!-- Node1&#45;&gt;Node4 -->
<g id="edge3_Node000001_Node000004" class="edge">
<title>Node1&#45;&gt;Node4</title>
<g id="a_edge3_Node000001_Node000004"><a xlink:title=" ">
<path fill="none" stroke="#63b8ff" d="M434.55,-208.51C425.12,-246.62 399.86,-327.59 347.75,-371.62 342.13,-376.37 335.64,-380.22 328.8,-383.33"/>
<polygon fill="#63b8ff" stroke="#63b8ff" points="437.86,-209.75 436.73,-199.21 431.04,-208.15 437.86,-209.75"/>
</a>
</g>
</g>
<!-- Node6 -->
<g id="Node000006" class="node">
<title>Node6</title>
<g id="a_Node000006"><a xlink:href="class_service.html#a601e6d2878ce2b292a3b7c6428f0d51f" target="_top" xlink:title="Get the get the response&#45;payload, stored at the response_pdu of the service instance">
<polygon fill="white" stroke="#666666" points="320.75,-314.25 207.25,-314.25 207.25,-295 320.75,-295 320.75,-314.25"/>
<text text-anchor="middle" x="264" y="-300.75" font-family="Helvetica,sans-Serif" font-size="10.00">Service::get_response</text>
</a>
</g>
</g>
<!-- Node1&#45;&gt;Node6 -->
<g id="edge5_Node000001_Node000006" class="edge">
<title>Node1&#45;&gt;Node6</title>
<g id="a_edge5_Node000001_Node000006"><a xlink:title=" ">
<path fill="none" stroke="#63b8ff" d="M426.5,-207C410.79,-229.48 381.85,-265.96 347.75,-285.62 339.58,-290.34 330.32,-293.88 321.03,-296.55"/>
<polygon fill="#63b8ff" stroke="#63b8ff" points="429.37,-208.99 432.08,-198.75 423.58,-205.07 429.37,-208.99"/>
</a>
</g>
</g>
<!-- Node7 -->
<g id="Node000007" class="node">
<title>Node7</title>
<g id="a_Node000007"><a xlink:href="classarduino_mocking_1_1_software_serial.html#ae70b691c402eede6805828c476b96bf5" target="_top" xlink:title="Returns the next character in the queue without removing it.">
<polygon fill="white" stroke="#666666" points="328.62,-276.88 199.38,-276.88 199.38,-246.38 328.62,-246.38 328.62,-276.88"/>
<text text-anchor="start" x="207.38" y="-263.38" font-family="Helvetica,sans-Serif" font-size="10.00">arduinoMocking::Software</text>
<text text-anchor="middle" x="264" y="-252.12" font-family="Helvetica,sans-Serif" font-size="10.00">Serial::peek</text>
</a>
</g>
</g>
<!-- Node1&#45;&gt;Node7 -->
<g id="edge6_Node000001_Node000007" class="edge">
<title>Node1&#45;&gt;Node7</title>
<g id="a_edge6_Node000001_Node000007"><a xlink:title=" ">
<path fill="none" stroke="#63b8ff" d="M413.05,-203.4C395.13,-213.8 370.55,-227.18 347.75,-236.62 339.57,-240.01 330.76,-243.17 322.06,-246.02"/>
<polygon fill="#63b8ff" stroke="#63b8ff" points="414.62,-206.54 421.47,-198.45 411.07,-200.51 414.62,-206.54"/>
</a>
</g>
</g>
<!-- Node8 -->
<g id="Node000008" class="node">
<title>Node8</title>
<g id="a_Node000008"><a xlink:href="class_service_interface.html#a23feb243ed1748e04dd757aa5f788b3e" target="_top" xlink:title="Send all Frames, stored in the sendStack. As long as the sendStack is not empty, the function is gett...">
<polygon fill="white" stroke="#666666" points="327.88,-227.88 200.12,-227.88 200.12,-197.38 327.88,-197.38 327.88,-227.88"/>
<text text-anchor="start" x="208.12" y="-214.38" font-family="Helvetica,sans-Serif" font-size="10.00">ServiceInterface::process</text>
<text text-anchor="middle" x="264" y="-203.12" font-family="Helvetica,sans-Serif" font-size="10.00">SendStack</text>
</a>
</g>
</g>
<!-- Node1&#45;&gt;Node8 -->
<g id="edge8_Node000001_Node000008" class="edge">
<title>Node1&#45;&gt;Node8</title>
<g id="a_edge8_Node000001_Node000008"><a xlink:title=" ">
<path fill="none" stroke="#63b8ff" d="M372.17,-197.24C357.73,-199.31 342.51,-201.5 328.22,-203.55"/>
<polygon fill="#63b8ff" stroke="#63b8ff" points="372.65,-200.7 382.05,-195.82 371.66,-193.78 372.65,-200.7"/>
</a>
</g>
</g>
<!-- Node9 -->
<g id="Node000009" class="node">
<title>Node9</title>
<g id="a_Node000009"><a xlink:href="classarduino_mocking_1_1_software_serial.html#a892a38a5eb6b0c115c2745098c9637ad" target="_top" xlink:title="Reads a character from the internal queue.">
<polygon fill="white" stroke="#666666" points="328.62,-178.88 199.38,-178.88 199.38,-148.38 328.62,-148.38 328.62,-178.88"/>
<text text-anchor="start" x="207.38" y="-165.38" font-family="Helvetica,sans-Serif" font-size="10.00">arduinoMocking::Software</text>
<text text-anchor="middle" x="264" y="-154.12" font-family="Helvetica,sans-Serif" font-size="10.00">Serial::read</text>
</a>
</g>
</g>
<!-- Node1&#45;&gt;Node9 -->
<g id="edge9_Node000001_Node000009" class="edge">
<title>Node1&#45;&gt;Node9</title>
<g id="a_edge9_Node000001_Node000009"><a xlink:title=" ">
<path fill="none" stroke="#63b8ff" d="M372.3,-178.41C358.03,-176.45 342.99,-174.37 328.83,-172.42"/>
<polygon fill="#63b8ff" stroke="#63b8ff" points="371.67,-181.86 382.05,-179.76 372.62,-174.93 371.67,-181.86"/>
</a>
</g>
</g>
<!-- Node10 -->
<g id="Node000010" class="node">
<title>Node10</title>
<g id="a_Node000010"><a xlink:href="class_service.html#ad0a6407e13cd84f81393d96273212822" target="_top" xlink:title="Check, if a response of the service is available (services sendStack not empty)">
<polygon fill="white" stroke="#666666" points="331.25,-130.25 196.75,-130.25 196.75,-111 331.25,-111 331.25,-130.25"/>
<text text-anchor="middle" x="264" y="-116.75" font-family="Helvetica,sans-Serif" font-size="10.00">Service::responseAvailable</text>
</a>
</g>
</g>
<!-- Node1&#45;&gt;Node10 -->
<g id="edge11_Node000001_Node000010" class="edge">
<title>Node1&#45;&gt;Node10</title>
<g id="a_edge11_Node000001_Node000010"><a xlink:title=" ">
<path fill="none" stroke="#63b8ff" d="M413.53,-171.89C395.66,-161.48 370.93,-148.21 347.75,-139.62 338.35,-136.14 328.11,-133.17 318.13,-130.68"/>
<polygon fill="#63b8ff" stroke="#63b8ff" points="411.52,-174.76 421.9,-176.86 415.09,-168.75 411.52,-174.76"/>
</a>
</g>
</g>
<!-- Node11 -->
<g id="Node000011" class="node">
<title>Node11</title>
<g id="a_Node000011"><a xlink:href="class_error_service.html#abdd6940a94fc8619c1ed31934b1cd3bd" target="_top" xlink:title="Processes all errors from the receive stack.">
<polygon fill="white" stroke="#666666" points="338.38,-93.25 189.62,-93.25 189.62,-74 338.38,-74 338.38,-93.25"/>
<text text-anchor="middle" x="264" y="-79.75" font-family="Helvetica,sans-Serif" font-size="10.00">ErrorService::stackProcessing</text>
</a>
</g>
</g>
<!-- Node1&#45;&gt;Node11 -->
<g id="edge12_Node000001_Node000011" class="edge">
<title>Node1&#45;&gt;Node11</title>
<g id="a_edge12_Node000001_Node000011"><a xlink:title=" ">
<path fill="none" stroke="#63b8ff" d="M424.49,-168.79C408.02,-148.94 379.39,-118.28 347.75,-101.62 341.77,-98.47 335.26,-95.87 328.61,-93.73"/>
<polygon fill="#63b8ff" stroke="#63b8ff" points="421.61,-170.79 430.61,-176.38 427.06,-166.4 421.61,-170.79"/>
</a>
</g>
</g>
<!-- Node12 -->
<g id="Node000012" class="node">
<title>Node12</title>
<g id="a_Node000012"><a xlink:href="class_message_service.html#ae02abdc8b83f6c62353dda1a42b2f1ff" target="_top" xlink:title="Processes all messages from the receive stack.">
<polygon fill="white" stroke="#666666" points="347.75,-56.25 180.25,-56.25 180.25,-37 347.75,-37 347.75,-56.25"/>
<text text-anchor="middle" x="264" y="-42.75" font-family="Helvetica,sans-Serif" font-size="10.00">MessageService::stackProcessing</text>
</a>
</g>
</g>
<!-- Node1&#45;&gt;Node12 -->
<g id="edge13_Node000001_Node000012" class="edge">
<title>Node1&#45;&gt;Node12</title>
<g id="a_edge13_Node000001_Node000012"><a xlink:title=" ">
<path fill="none" stroke="#63b8ff" d="M430.02,-167.67C416.31,-139.97 387.63,-90.36 347.75,-64.62 342.81,-61.44 337.39,-58.8 331.77,-56.63"/>
<polygon fill="#63b8ff" stroke="#63b8ff" points="426.72,-168.87 434.18,-176.39 433.04,-165.86 426.72,-168.87"/>
</a>
</g>
</g>
<!-- Node13 -->
<g id="Node000013" class="node">
<title>Node13</title>
<g id="a_Node000013"><a xlink:href="class_service.html#a3eafa52c7f4bfe29698ba4a91c75dc75" target="_top" xlink:title="Execute the service&#39;s functions for each item on the receive&#45;stack and add all response&#45;payloads to b...">
<polygon fill="white" stroke="#666666" points="327.88,-19.25 200.12,-19.25 200.12,0 327.88,0 327.88,-19.25"/>
<text text-anchor="middle" x="264" y="-5.75" font-family="Helvetica,sans-Serif" font-size="10.00">Service::stackProcessing</text>
</a>
</g>
</g>
<!-- Node1&#45;&gt;Node13 -->
<g id="edge14_Node000001_Node000013" class="edge">
<title>Node1&#45;&gt;Node13</title>
<g id="a_edge14_Node000001_Node000013"><a xlink:title=" ">
<path fill="none" stroke="#63b8ff" d="M433.45,-167.2C422.75,-132.7 396.2,-63.17 347.75,-27.62 341.82,-23.28 335.06,-19.94 328,-17.39"/>
<polygon fill="#63b8ff" stroke="#63b8ff" points="429.97,-167.78 436.15,-176.38 436.68,-165.8 429.97,-167.78"/>
</a>
</g>
</g>
<!-- Node3 -->
<g id="Node000003" class="node">
<title>Node3</title>
<g id="a_Node000003"><a xlink:href="class_comm_interface__modbus_r_t_u.html#a50b42ad0a40a82ebe5a7749313ca2283" target="_top" xlink:title="Receives a Modbus RTU frame and writes it to receiveBuffer.">
<polygon fill="white" stroke="#666666" points="144.25,-276.88 0,-276.88 0,-246.38 144.25,-246.38 144.25,-276.88"/>
<text text-anchor="start" x="8" y="-263.38" font-family="Helvetica,sans-Serif" font-size="10.00">CommInterface_modbusRTU</text>
<text text-anchor="middle" x="72.12" y="-252.12" font-family="Helvetica,sans-Serif" font-size="10.00">::receive</text>
</a>
</g>
</g>
<!-- Node2&#45;&gt;Node3 -->
<g id="edge2_Node000002_Node000003" class="edge">
<title>Node2&#45;&gt;Node3</title>
<g id="a_edge2_Node000002_Node000003"><a xlink:title=" ">
<path fill="none" stroke="#63b8ff" d="M192.01,-328.28C187.99,-326.8 184.05,-325.25 180.25,-323.62 149.82,-310.63 117.23,-290.84 96.1,-277.12"/>
<polygon fill="#63b8ff" stroke="#63b8ff" points="190.71,-331.53 201.3,-331.51 193.01,-324.92 190.71,-331.53"/>
</a>
</g>
</g>
<!-- Node5 -->
<g id="Node000005" class="node">
<title>Node5</title>
<g id="a_Node000005"><a xlink:href="class_comm_interface__modbus_r_t_u.html#a0e78a2a6e3b5b029609c2b16c21bd85b" target="_top" xlink:title="Override of CommInterface send&#45;function. Send the frame, sendBuffer is pointing to by writing and flu...">
<polygon fill="white" stroke="#666666" points="144.25,-411.88 0,-411.88 0,-381.38 144.25,-381.38 144.25,-411.88"/>
<text text-anchor="start" x="8" y="-398.38" font-family="Helvetica,sans-Serif" font-size="10.00">CommInterface_modbusRTU</text>
<text text-anchor="middle" x="72.12" y="-387.12" font-family="Helvetica,sans-Serif" font-size="10.00">::send</text>
</a>
</g>
</g>
<!-- Node4&#45;&gt;Node5 -->
<g id="edge4_Node000004_Node000005" class="edge">
<title>Node4&#45;&gt;Node5</title>
<g id="a_edge4_Node000004_Node000005"><a xlink:title=" ">
<path fill="none" stroke="#63b8ff" d="M187.76,-396.62C173.58,-396.62 158.78,-396.62 144.7,-396.62"/>
<polygon fill="#63b8ff" stroke="#63b8ff" points="187.47,-400.13 197.47,-396.63 187.47,-393.13 187.47,-400.13"/>
</a>
</g>
</g>
<!-- Node7&#45;&gt;Node3 -->
<g id="edge7_Node000007_Node000003" class="edge">
<title>Node7&#45;&gt;Node3</title>
<g id="a_edge7_Node000007_Node000003"><a xlink:title=" ">
<path fill="none" stroke="#63b8ff" d="M187.76,-261.62C173.58,-261.62 158.78,-261.62 144.7,-261.62"/>
<polygon fill="#63b8ff" stroke="#63b8ff" points="187.47,-265.13 197.47,-261.63 187.47,-258.13 187.47,-265.13"/>
</a>
</g>
</g>
<!-- Node9&#45;&gt;Node3 -->
<g id="edge10_Node000009_Node000003" class="edge">
<title>Node9&#45;&gt;Node3</title>
<g id="a_edge10_Node000009_Node000003"><a xlink:title=" ">
<path fill="none" stroke="#63b8ff" d="M192.69,-183.22C188.43,-184.91 184.25,-186.71 180.25,-188.62 147.15,-204.44 112.77,-229.71 92.16,-245.98"/>
<polygon fill="#63b8ff" stroke="#63b8ff" points="193.83,-186.53 201.98,-179.76 191.39,-179.97 193.83,-186.53"/>
</a>
</g>
</g>
</g>
</svg>
