<?xml version="1.0" encoding="UTF-8" standalone="no"?>
<!DOCTYPE svg PUBLIC "-//W3C//DTD SVG 1.1//EN"
 "http://www.w3.org/Graphics/SVG/1.1/DTD/svg11.dtd">
<!-- Generated by graphviz version 12.1.2 (20240928.0832)
 -->
<!-- Title: ServiceInterface::addPDU_to_services Pages: 1 -->
<svg width="650pt" height="261pt"
 viewBox="0.00 0.00 650.25 261.25" xmlns="http://www.w3.org/2000/svg" xmlns:xlink="http://www.w3.org/1999/xlink">
<g id="graph0" class="graph" transform="scale(1 1) rotate(0) translate(4 257.25)">
<title>ServiceInterface::addPDU_to_services</title>
<!-- Node1 -->
<g id="Node000001" class="node">
<title>Node1</title>
<g id="a_Node000001"><a xlink:title="Add PDUs from all received frames to the corresponding services.">
<polygon fill="#999999" stroke="#666666" points="130.75,-165.88 0,-165.88 0,-135.38 130.75,-135.38 130.75,-165.88"/>
<text text-anchor="start" x="8" y="-152.38" font-family="Helvetica,sans-Serif" font-size="10.00">ServiceInterface::addPDU</text>
<text text-anchor="middle" x="65.38" y="-141.12" font-family="Helvetica,sans-Serif" font-size="10.00">_to_services</text>
</a>
</g>
</g>
<!-- Node2 -->
<g id="Node000002" class="node">
<title>Node2</title>
<g id="a_Node000002"><a xlink:href="class_error_state.html#a2a2b91200168f27971ff6e63a8ab0e38" target="_top" xlink:title="sets the current error&#45;state to &quot;no Error&quot;">
<polygon fill="white" stroke="#666666" points="306.5,-253.25 175,-253.25 175,-234 306.5,-234 306.5,-253.25"/>
<text text-anchor="middle" x="240.75" y="-239.75" font-family="Helvetica,sans-Serif" font-size="10.00">ErrorState::clearErrorState</text>
</a>
</g>
</g>
<!-- Node1&#45;&gt;Node2 -->
<g id="edge1_Node000001_Node000002" class="edge">
<title>Node1&#45;&gt;Node2</title>
<g id="a_edge1_Node000001_Node000002"><a xlink:title=" ">
<path fill="none" stroke="#63b8ff" d="M82.77,-166.19C101.59,-183.24 134.11,-210.19 166.75,-225.62 170.05,-227.19 173.51,-228.62 177.04,-229.94"/>
<polygon fill="#63b8ff" stroke="#63b8ff" points="175.77,-233.21 186.37,-233.07 178,-226.57 175.77,-233.21"/>
</a>
</g>
</g>
<!-- Node3 -->
<g id="Node000003" class="node">
<title>Node3</title>
<g id="a_Node000003"><a xlink:href="class_content__stack.html#a7b2d11fd9ee9f45090a545031883edb6" target="_top" xlink:title="Delete item on index&#45;position from stack and shift all items with higher index, accepts only positive...">
<polygon fill="white" stroke="#666666" points="314.75,-216.25 166.75,-216.25 166.75,-197 314.75,-197 314.75,-216.25"/>
<text text-anchor="middle" x="240.75" y="-202.75" font-family="Helvetica,sans-Serif" font-size="10.00">Content_stack::deleteElement</text>
</a>
</g>
</g>
<!-- Node1&#45;&gt;Node3 -->
<g id="edge2_Node000001_Node000003" class="edge">
<title>Node1&#45;&gt;Node3</title>
<g id="a_edge2_Node000001_Node000003"><a xlink:title=" ">
<path fill="none" stroke="#63b8ff" d="M104.61,-166.34C123.18,-173.65 145.93,-182.14 166.75,-188.62 172.44,-190.4 178.41,-192.11 184.4,-193.72"/>
<polygon fill="#63b8ff" stroke="#63b8ff" points="183.1,-197 193.66,-196.14 184.86,-190.23 183.1,-197"/>
</a>
</g>
</g>
<!-- Node4 -->
<g id="Node000004" class="node">
<title>Node4</title>
<g id="a_Node000004"><a xlink:href="class_content__stack.html#a4710d468535ed030bf5f67052e68eebb" target="_top" xlink:title="Check if the Stack is empty (size is 0)">
<polygon fill="white" stroke="#666666" points="297.12,-179.25 184.38,-179.25 184.38,-160 297.12,-160 297.12,-179.25"/>
<text text-anchor="middle" x="240.75" y="-165.75" font-family="Helvetica,sans-Serif" font-size="10.00">Content_stack::empty</text>
</a>
</g>
</g>
<!-- Node1&#45;&gt;Node4 -->
<g id="edge3_Node000001_Node000004" class="edge">
<title>Node1&#45;&gt;Node4</title>
<g id="a_edge3_Node000001_Node000004"><a xlink:title=" ">
<path fill="none" stroke="#63b8ff" d="M130.93,-157.7C144.55,-159.19 158.94,-160.77 172.65,-162.27"/>
<polygon fill="#63b8ff" stroke="#63b8ff" points="172.14,-165.74 182.46,-163.35 172.9,-158.78 172.14,-165.74"/>
</a>
</g>
</g>
<!-- Node5 -->
<g id="Node000005" class="node">
<title>Node5</title>
<g id="a_Node000005"><a xlink:href="class_content__stack.html#a5ac2a896da7724281d9d85eb239f5084" target="_top" xlink:title="Get Pointer to element in the stack. Accepts positive and negative indexing.">
<polygon fill="white" stroke="#666666" points="308.38,-142.25 173.12,-142.25 173.12,-123 308.38,-123 308.38,-142.25"/>
<text text-anchor="middle" x="240.75" y="-128.75" font-family="Helvetica,sans-Serif" font-size="10.00">Content_stack::getElement</text>
</a>
</g>
</g>
<!-- Node1&#45;&gt;Node5 -->
<g id="edge4_Node000001_Node000005" class="edge">
<title>Node1&#45;&gt;Node5</title>
<g id="a_edge4_Node000001_Node000005"><a xlink:title=" ">
<path fill="none" stroke="#63b8ff" d="M130.93,-143.92C140.87,-142.89 151.21,-141.82 161.41,-140.76"/>
<polygon fill="#63b8ff" stroke="#63b8ff" points="161.73,-144.24 171.31,-139.73 161.01,-137.28 161.73,-144.24"/>
</a>
</g>
</g>
<!-- Node6 -->
<g id="Node000006" class="node">
<title>Node6</title>
<g id="a_Node000006"><a xlink:href="class_service_cluster_base.html#a2f017c39e944dc2d134b02c3f763d219" target="_top" xlink:title="Add the payload of the referenced Frame to the belonging Service.">
<polygon fill="white" stroke="#666666" points="292.25,-104.88 189.25,-104.88 189.25,-74.38 292.25,-74.38 292.25,-104.88"/>
<text text-anchor="start" x="197.25" y="-91.38" font-family="Helvetica,sans-Serif" font-size="10.00">ServiceClusterBase</text>
<text text-anchor="middle" x="240.75" y="-80.12" font-family="Helvetica,sans-Serif" font-size="10.00">::impartPdu</text>
</a>
</g>
</g>
<!-- Node1&#45;&gt;Node6 -->
<g id="edge5_Node000001_Node000006" class="edge">
<title>Node1&#45;&gt;Node6</title>
<g id="a_edge5_Node000001_Node000006"><a xlink:title=" ">
<path fill="none" stroke="#63b8ff" d="M107.77,-134.99C125.83,-128.27 147.28,-120.41 166.75,-113.62 171.21,-112.07 175.84,-110.48 180.5,-108.91"/>
<polygon fill="#63b8ff" stroke="#63b8ff" points="181.57,-112.24 189.93,-105.74 179.34,-105.6 181.57,-112.24"/>
</a>
</g>
</g>
<!-- Node7 -->
<g id="Node000007" class="node">
<title>Node7</title>
<g id="a_Node000007"><a xlink:href="class_service_interface.html#a42226b8c236c344b6c5d171736a08f6e" target="_top" xlink:title="Check if an ErrorService is registered in the service cluster under the defined ERRORSERVICE_ID of th...">
<polygon fill="white" stroke="#666666" points="308.38,-56.25 173.12,-56.25 173.12,-37 308.38,-37 308.38,-56.25"/>
<text text-anchor="middle" x="240.75" y="-42.75" font-family="Helvetica,sans-Serif" font-size="10.00">ServiceInterface::raiseError</text>
</a>
</g>
</g>
<!-- Node1&#45;&gt;Node7 -->
<g id="edge6_Node000001_Node000007" class="edge">
<title>Node1&#45;&gt;Node7</title>
<g id="a_edge6_Node000001_Node000007"><a xlink:title=" ">
<path fill="none" stroke="#63b8ff" d="M80.44,-135.02C98.56,-115.87 131.89,-83.71 166.75,-65.62 170.39,-63.73 174.24,-62.02 178.18,-60.47"/>
<polygon fill="#63b8ff" stroke="#63b8ff" points="179.08,-63.87 187.35,-57.24 176.76,-57.26 179.08,-63.87"/>
</a>
</g>
</g>
<!-- Node8 -->
<g id="Node000008" class="node">
<title>Node8</title>
<g id="a_Node000008"><a xlink:href="class_service_cluster_base.html#ae025282a6ef15d01eaba440bdf73a750" target="_top" xlink:title="Get pointer to the service with the given service&#45;ID by iterating through the associated services and...">
<polygon fill="white" stroke="#666666" points="461.25,-104.88 358.25,-104.88 358.25,-74.38 461.25,-74.38 461.25,-104.88"/>
<text text-anchor="start" x="366.25" y="-91.38" font-family="Helvetica,sans-Serif" font-size="10.00">ServiceClusterBase</text>
<text text-anchor="middle" x="409.75" y="-80.12" font-family="Helvetica,sans-Serif" font-size="10.00">::getService_byID</text>
</a>
</g>
</g>
<!-- Node7&#45;&gt;Node8 -->
<g id="edge7_Node000007_Node000008" class="edge">
<title>Node7&#45;&gt;Node8</title>
<g id="a_edge7_Node000007_Node000008"><a xlink:title=" ">
<path fill="none" stroke="#63b8ff" d="M280.9,-56.71C300.53,-61.76 324.77,-68 346.84,-73.68"/>
<polygon fill="#63b8ff" stroke="#63b8ff" points="345.79,-77.03 356.34,-76.13 347.53,-70.25 345.79,-77.03"/>
</a>
</g>
</g>
<!-- Node9 -->
<g id="Node000009" class="node">
<title>Node9</title>
<g id="a_Node000009"><a xlink:href="class_error_service.html#a4db0ae1a3ca53fe1e6290b87390098ba" target="_top" xlink:title="Adds an Error&#45;object for the local Instance&#45;Id to the Error&#45;services rec&#45;stack.">
<polygon fill="white" stroke="#666666" points="468.75,-56.25 350.75,-56.25 350.75,-37 468.75,-37 468.75,-56.25"/>
<text text-anchor="middle" x="409.75" y="-42.75" font-family="Helvetica,sans-Serif" font-size="10.00">ErrorService::raiseError</text>
</a>
</g>
</g>
<!-- Node7&#45;&gt;Node9 -->
<g id="edge8_Node000007_Node000009" class="edge">
<title>Node7&#45;&gt;Node9</title>
<g id="a_edge8_Node000007_Node000009"><a xlink:title=" ">
<path fill="none" stroke="#63b8ff" d="M308.71,-46.62C318.73,-46.62 329.09,-46.62 339.16,-46.62"/>
<polygon fill="#63b8ff" stroke="#63b8ff" points="338.87,-50.13 348.87,-46.63 338.87,-43.13 338.87,-50.13"/>
</a>
</g>
</g>
<!-- Node11 -->
<g id="Node000011" class="node">
<title>Node11</title>
<g id="a_Node000011"><a xlink:href="class_error_state.html#ab996befaa1eb1089914ab0fbfecfcf39" target="_top" xlink:title="raises a new error by setting the given error&#45;code as errorState">
<polygon fill="white" stroke="#666666" points="463.88,-19.25 355.62,-19.25 355.62,0 463.88,0 463.88,-19.25"/>
<text text-anchor="middle" x="409.75" y="-5.75" font-family="Helvetica,sans-Serif" font-size="10.00">ErrorState::raiseError</text>
</a>
</g>
</g>
<!-- Node7&#45;&gt;Node11 -->
<g id="edge10_Node000007_Node000011" class="edge">
<title>Node7&#45;&gt;Node11</title>
<g id="a_edge10_Node000007_Node000011"><a xlink:title=" ">
<path fill="none" stroke="#63b8ff" d="M287.38,-36.51C307.36,-32.09 331,-26.85 352.09,-22.18"/>
<polygon fill="#63b8ff" stroke="#63b8ff" points="352.69,-25.63 361.69,-20.05 351.17,-18.8 352.69,-25.63"/>
</a>
</g>
</g>
<!-- Node10 -->
<g id="Node000010" class="node">
<title>Node10</title>
<g id="a_Node000010"><a xlink:href="class_content__stack.html#a3d5491c67763ef3c19780619d70cb59a" target="_top" xlink:title="Add item to stack.">
<polygon fill="white" stroke="#666666" points="642.25,-56.25 504.75,-56.25 504.75,-37 642.25,-37 642.25,-56.25"/>
<text text-anchor="middle" x="573.5" y="-42.75" font-family="Helvetica,sans-Serif" font-size="10.00">Content_stack::addElement</text>
</a>
</g>
</g>
<!-- Node9&#45;&gt;Node10 -->
<g id="edge9_Node000009_Node000010" class="edge">
<title>Node9&#45;&gt;Node10</title>
<g id="a_edge9_Node000009_Node000010"><a xlink:title=" ">
<path fill="none" stroke="#63b8ff" d="M469.15,-46.62C476.9,-46.62 484.94,-46.62 492.98,-46.62"/>
<polygon fill="#63b8ff" stroke="#63b8ff" points="492.77,-50.13 502.77,-46.63 492.77,-43.13 492.77,-50.13"/>
</a>
</g>
</g>
</g>
</svg>
