<?xml version="1.0" encoding="UTF-8" standalone="no"?>
<!DOCTYPE svg PUBLIC "-//W3C//DTD SVG 1.1//EN"
 "http://www.w3.org/Graphics/SVG/1.1/DTD/svg11.dtd">
<!-- Generated by graphviz version 12.1.2 (20240928.0832)
 -->
<!-- Title: ErrorState Pages: 1 -->
<svg width="666pt" height="183pt"
 viewBox="0.00 0.00 666.00 182.88" xmlns="http://www.w3.org/2000/svg" xmlns:xlink="http://www.w3.org/1999/xlink">
<g id="graph0" class="graph" transform="scale(1 1) rotate(0) translate(4 178.88)">
<title>ErrorState</title>
<!-- Node1 -->
<g id="Node000001" class="node">
<title>Node1</title>
<g id="a_Node000001"><a xlink:title="A class to manage and track error states using error codes.">
<polygon fill="#999999" stroke="#666666" points="60.25,-85.88 0,-85.88 0,-66.62 60.25,-66.62 60.25,-85.88"/>
<text text-anchor="middle" x="30.12" y="-72.38" font-family="Helvetica,sans-Serif" font-size="10.00">ErrorState</text>
</a>
</g>
</g>
<!-- Node2 -->
<g id="Node000002" class="node">
<title>Node2</title>
<g id="a_Node000002"><a xlink:href="class_service_interface.html" target="_top" xlink:title=" ">
<polygon fill="white" stroke="#666666" points="276.5,-171.5 96.25,-171.5 96.25,-141 276.5,-141 276.5,-171.5"/>
<text text-anchor="start" x="104.25" y="-158" font-family="Helvetica,sans-Serif" font-size="10.00">ServiceInterface&lt; CommInterface</text>
<text text-anchor="middle" x="186.38" y="-146.75" font-family="Helvetica,sans-Serif" font-size="10.00">_modbusRTU, Frame_modbusRTU &gt;</text>
</a>
</g>
</g>
<!-- Node1&#45;&gt;Node2 -->
<g id="edge1_Node000001_Node000002" class="edge">
<title>Node1&#45;&gt;Node2</title>
<g id="a_edge1_Node000001_Node000002"><a xlink:title=" ">
<path fill="none" stroke="#63b8ff" d="M57.16,-92.14C68.96,-99.16 83.17,-107.37 96.25,-114.25 113.81,-123.49 133.76,-132.98 150.32,-140.59"/>
<polygon fill="#63b8ff" stroke="#63b8ff" points="59.17,-89.27 48.79,-87.12 55.56,-95.27 59.17,-89.27"/>
</a>
</g>
</g>
<!-- Node4 -->
<g id="Node000004" class="node">
<title>Node4</title>
<g id="a_Node000004"><a xlink:href="class_comm_interface_base.html" target="_top" xlink:title="Communcation&#45;Interface&#45;Base&#45;Class of the CommInterface template specifies a standardized interface to...">
<polygon fill="white" stroke="#666666" points="239.38,-104.88 133.38,-104.88 133.38,-85.62 239.38,-85.62 239.38,-104.88"/>
<text text-anchor="middle" x="186.38" y="-91.38" font-family="Helvetica,sans-Serif" font-size="10.00">CommInterfaceBase</text>
</a>
</g>
</g>
<!-- Node1&#45;&gt;Node4 -->
<g id="edge3_Node000001_Node000004" class="edge">
<title>Node1&#45;&gt;Node4</title>
<g id="a_edge3_Node000001_Node000004"><a xlink:title=" ">
<path fill="none" stroke="#63b8ff" d="M71.91,-81.27C90.63,-83.58 113.05,-86.34 133,-88.8"/>
<polygon fill="#63b8ff" stroke="#63b8ff" points="72.36,-77.8 62,-80.05 71.5,-84.75 72.36,-77.8"/>
</a>
</g>
</g>
<!-- Node8 -->
<g id="Node000008" class="node">
<title>Node8</title>
<g id="a_Node000008"><a xlink:href="class_service_cluster_base.html" target="_top" xlink:title="ServiceCluster&#45;base&#45;class to add class&#45;functions to vtable.">
<polygon fill="white" stroke="#666666" points="237.88,-67.88 134.88,-67.88 134.88,-48.62 237.88,-48.62 237.88,-67.88"/>
<text text-anchor="middle" x="186.38" y="-54.38" font-family="Helvetica,sans-Serif" font-size="10.00">ServiceClusterBase</text>
</a>
</g>
</g>
<!-- Node1&#45;&gt;Node8 -->
<g id="edge7_Node000001_Node000008" class="edge">
<title>Node1&#45;&gt;Node8</title>
<g id="a_edge7_Node000001_Node000008"><a xlink:title=" ">
<path fill="none" stroke="#63b8ff" d="M71.9,-71.49C91.1,-69.25 114.21,-66.55 134.55,-64.18"/>
<polygon fill="#63b8ff" stroke="#63b8ff" points="71.53,-68.01 62,-72.65 72.34,-74.96 71.53,-68.01"/>
</a>
</g>
</g>
<!-- Node10 -->
<g id="Node000010" class="node">
<title>Node10</title>
<g id="a_Node000010"><a xlink:href="class_service_interface.html" target="_top" xlink:title="Template for generic Service&#45;Interface Defines the handling of incoming frames from CommInterface to ...">
<polygon fill="white" stroke="#666666" points="268.25,-30.5 104.5,-30.5 104.5,0 268.25,0 268.25,-30.5"/>
<text text-anchor="start" x="112.5" y="-17" font-family="Helvetica,sans-Serif" font-size="10.00">ServiceInterface&lt; CommInterface</text>
<text text-anchor="middle" x="186.38" y="-5.75" font-family="Helvetica,sans-Serif" font-size="10.00">Base, frameType &gt;</text>
</a>
</g>
</g>
<!-- Node1&#45;&gt;Node10 -->
<g id="edge9_Node000001_Node000010" class="edge">
<title>Node1&#45;&gt;Node10</title>
<g id="a_edge9_Node000001_Node000010"><a xlink:title=" ">
<path fill="none" stroke="#63b8ff" d="M55.73,-60.3C67.61,-53.12 82.3,-44.98 96.25,-39.25 103.66,-36.2 111.58,-33.43 119.52,-30.95"/>
<polygon fill="#63b8ff" stroke="#63b8ff" points="54.03,-57.24 47.38,-65.49 57.72,-63.18 54.03,-57.24"/>
</a>
</g>
</g>
<!-- Node3 -->
<g id="Node000003" class="node">
<title>Node3</title>
<g id="a_Node000003"><a xlink:href="class_service_interface__modbus_r_t_u.html" target="_top" xlink:title="Service&#45;Interface&#45;class for Modbus&#45;RTU: Impart incoming frames from the CommInterface to the designat...">
<polygon fill="white" stroke="#666666" points="469.12,-174.88 321.12,-174.88 321.12,-155.62 469.12,-155.62 469.12,-174.88"/>
<text text-anchor="middle" x="395.12" y="-161.38" font-family="Helvetica,sans-Serif" font-size="10.00">ServiceInterface_modbusRTU</text>
</a>
</g>
</g>
<!-- Node2&#45;&gt;Node3 -->
<g id="edge2_Node000002_Node000003" class="edge">
<title>Node2&#45;&gt;Node3</title>
<g id="a_edge2_Node000002_Node000003"><a xlink:title=" ">
<path fill="none" stroke="#63b8ff" d="M288.22,-160.64C299.16,-161.12 310.14,-161.59 320.66,-162.05"/>
<polygon fill="#63b8ff" stroke="#63b8ff" points="288.51,-157.15 278.37,-160.21 288.21,-164.14 288.51,-157.15"/>
</a>
</g>
</g>
<!-- Node5 -->
<g id="Node000005" class="node">
<title>Node5</title>
<g id="a_Node000005"><a xlink:href="class_comm_interface.html" target="_top" xlink:title=" ">
<polygon fill="white" stroke="#666666" points="477.75,-137.88 312.5,-137.88 312.5,-118.62 477.75,-118.62 477.75,-137.88"/>
<text text-anchor="middle" x="395.12" y="-124.38" font-family="Helvetica,sans-Serif" font-size="10.00">CommInterface&lt; SoftwareSerial &gt;</text>
</a>
</g>
</g>
<!-- Node4&#45;&gt;Node5 -->
<g id="edge4_Node000004_Node000005" class="edge">
<title>Node4&#45;&gt;Node5</title>
<g id="a_edge4_Node000004_Node000005"><a xlink:title=" ">
<path fill="none" stroke="#63b8ff" d="M250.85,-105.38C276.32,-109.45 305.62,-114.12 331.05,-118.18"/>
<polygon fill="#63b8ff" stroke="#63b8ff" points="251.74,-101.98 241.31,-103.86 250.63,-108.89 251.74,-101.98"/>
</a>
</g>
</g>
<!-- Node7 -->
<g id="Node000007" class="node">
<title>Node7</title>
<g id="a_Node000007"><a xlink:href="class_comm_interface.html" target="_top" xlink:title="Template for generic communication&#45;interface specifies a standardized interface to use for integratin...">
<polygon fill="white" stroke="#666666" points="460.12,-100.5 330.12,-100.5 330.12,-70 460.12,-70 460.12,-100.5"/>
<text text-anchor="start" x="338.12" y="-87" font-family="Helvetica,sans-Serif" font-size="10.00">CommInterface&lt; interface</text>
<text text-anchor="middle" x="395.12" y="-75.75" font-family="Helvetica,sans-Serif" font-size="10.00">_type &gt;</text>
</a>
</g>
</g>
<!-- Node4&#45;&gt;Node7 -->
<g id="edge6_Node000004_Node000007" class="edge">
<title>Node4&#45;&gt;Node7</title>
<g id="a_edge6_Node000004_Node000007"><a xlink:title=" ">
<path fill="none" stroke="#63b8ff" d="M251.04,-92.17C276.09,-90.96 304.81,-89.57 329.92,-88.36"/>
<polygon fill="#63b8ff" stroke="#63b8ff" points="251.15,-88.66 241.33,-92.64 251.48,-95.65 251.15,-88.66"/>
</a>
</g>
</g>
<!-- Node6 -->
<g id="Node000006" class="node">
<title>Node6</title>
<g id="a_Node000006"><a xlink:href="class_comm_interface__modbus_r_t_u.html" target="_top" xlink:title="The Modbus&#45;RTU CommInterface&#45;class specifies a communication interface with SoftwareSerial as interfa...">
<polygon fill="white" stroke="#666666" points="658,-137.88 513.75,-137.88 513.75,-118.62 658,-118.62 658,-137.88"/>
<text text-anchor="middle" x="585.88" y="-124.38" font-family="Helvetica,sans-Serif" font-size="10.00">CommInterface_modbusRTU</text>
</a>
</g>
</g>
<!-- Node5&#45;&gt;Node6 -->
<g id="edge5_Node000005_Node000006" class="edge">
<title>Node5&#45;&gt;Node6</title>
<g id="a_edge5_Node000005_Node000006"><a xlink:title=" ">
<path fill="none" stroke="#63b8ff" d="M489.43,-128.25C497.47,-128.25 505.52,-128.25 513.35,-128.25"/>
<polygon fill="#63b8ff" stroke="#63b8ff" points="489.6,-124.75 479.6,-128.25 489.6,-131.75 489.6,-124.75"/>
</a>
</g>
</g>
<!-- Node9 -->
<g id="Node000009" class="node">
<title>Node9</title>
<g id="a_Node000009"><a xlink:href="class_service_cluster.html" target="_top" xlink:title="The ServiceCluster provides functions to manage multiple services. The ServiceCluster is added to the...">
<polygon fill="white" stroke="#666666" points="456,-51.5 334.25,-51.5 334.25,-21 456,-21 456,-51.5"/>
<text text-anchor="start" x="342.25" y="-38" font-family="Helvetica,sans-Serif" font-size="10.00">ServiceCluster&lt; number</text>
<text text-anchor="middle" x="395.12" y="-26.75" font-family="Helvetica,sans-Serif" font-size="10.00">_of_services &gt;</text>
</a>
</g>
</g>
<!-- Node8&#45;&gt;Node9 -->
<g id="edge8_Node000008_Node000009" class="edge">
<title>Node8&#45;&gt;Node9</title>
<g id="a_edge8_Node000008_Node000009"><a xlink:title=" ">
<path fill="none" stroke="#63b8ff" d="M249.39,-51.65C276.16,-48.8 307.36,-45.48 333.92,-42.66"/>
<polygon fill="#63b8ff" stroke="#63b8ff" points="249.3,-48.14 239.72,-52.68 250.04,-55.1 249.3,-48.14"/>
</a>
</g>
</g>
</g>
</svg>
