<?xml version="1.0" encoding="UTF-8" standalone="no"?>
<!DOCTYPE svg PUBLIC "-//W3C//DTD SVG 1.1//EN"
 "http://www.w3.org/Graphics/SVG/1.1/DTD/svg11.dtd">
<!-- Generated by graphviz version 12.1.2 (20240928.0832)
 -->
<!-- Title: ServiceCluster::impartPdu Pages: 1 -->
<svg width="300pt" height="138pt"
 viewBox="0.00 0.00 300.25 138.25" xmlns="http://www.w3.org/2000/svg" xmlns:xlink="http://www.w3.org/1999/xlink">
<g id="graph0" class="graph" transform="scale(1 1) rotate(0) translate(4 134.25)">
<title>ServiceCluster::impartPdu</title>
<!-- Node1 -->
<g id="Node000001" class="node">
<title>Node1</title>
<g id="a_Node000001"><a xlink:title="Add the payload of the referenced Frame to the belonging Service (Multiplexing by Service&#45;ID)">
<polygon fill="#999999" stroke="#666666" points="130.75,-74.25 0,-74.25 0,-55 130.75,-55 130.75,-74.25"/>
<text text-anchor="middle" x="65.38" y="-60.75" font-family="Helvetica,sans-Serif" font-size="10.00">ServiceCluster::impartPdu</text>
</a>
</g>
</g>
<!-- Node2 -->
<g id="Node000002" class="node">
<title>Node2</title>
<g id="a_Node000002"><a xlink:href="class_content.html#a5a3cdbe54fb690a53a5a4fda109fd044" target="_top" xlink:title="Get the address of the informations content of type content_type.">
<polygon fill="white" stroke="#666666" points="283.25,-130.25 175.75,-130.25 175.75,-111 283.25,-111 283.25,-130.25"/>
<text text-anchor="middle" x="229.5" y="-116.75" font-family="Helvetica,sans-Serif" font-size="10.00">Content::get_content</text>
</a>
</g>
</g>
<!-- Node1&#45;&gt;Node2 -->
<g id="edge1_Node000001_Node000002" class="edge">
<title>Node1&#45;&gt;Node2</title>
<g id="a_edge1_Node000001_Node000002"><a xlink:title=" ">
<path fill="none" stroke="#63b8ff" d="M91.34,-74.7C111.53,-82.7 140.77,-93.94 166.75,-102.62 171.46,-104.2 176.41,-105.77 181.35,-107.3"/>
<polygon fill="#63b8ff" stroke="#63b8ff" points="180.08,-110.57 190.66,-110.1 182.09,-103.86 180.08,-110.57"/>
</a>
</g>
</g>
<!-- Node3 -->
<g id="Node000003" class="node">
<title>Node3</title>
<g id="a_Node000003"><a xlink:href="class_error_state.html#a55090bb1772cd8c20c936b5a9cf4f2ce" target="_top" xlink:title="Get the currently active error&#45;code.">
<polygon fill="white" stroke="#666666" points="291.5,-93.25 167.5,-93.25 167.5,-74 291.5,-74 291.5,-93.25"/>
<text text-anchor="middle" x="229.5" y="-79.75" font-family="Helvetica,sans-Serif" font-size="10.00">ErrorState::getErrorState</text>
</a>
</g>
</g>
<!-- Node1&#45;&gt;Node3 -->
<g id="edge2_Node000001_Node000003" class="edge">
<title>Node1&#45;&gt;Node3</title>
<g id="a_edge2_Node000001_Node000003"><a xlink:title=" ">
<path fill="none" stroke="#63b8ff" d="M130.92,-72.19C139.11,-73.15 147.54,-74.14 155.86,-75.11"/>
<polygon fill="#63b8ff" stroke="#63b8ff" points="155.24,-78.56 165.58,-76.25 156.05,-71.61 155.24,-78.56"/>
</a>
</g>
</g>
<!-- Node4 -->
<g id="Node000004" class="node">
<title>Node4</title>
<g id="a_Node000004"><a xlink:href="class_service_base.html#a4d01083248ca9afc41bcd36faa8b966d" target="_top" xlink:title="Add a new Content&#45;Object created from a received payload to the services receive&#45;Stack....">
<polygon fill="white" stroke="#666666" points="292.25,-56.25 166.75,-56.25 166.75,-37 292.25,-37 292.25,-56.25"/>
<text text-anchor="middle" x="229.5" y="-42.75" font-family="Helvetica,sans-Serif" font-size="10.00">ServiceBase::impart_pdu</text>
</a>
</g>
</g>
<!-- Node1&#45;&gt;Node4 -->
<g id="edge3_Node000001_Node000004" class="edge">
<title>Node1&#45;&gt;Node4</title>
<g id="a_edge3_Node000001_Node000004"><a xlink:title=" ">
<path fill="none" stroke="#63b8ff" d="M130.92,-57.46C138.84,-56.58 146.98,-55.68 155.02,-54.78"/>
<polygon fill="#63b8ff" stroke="#63b8ff" points="155.24,-58.28 164.79,-53.7 154.46,-51.32 155.24,-58.28"/>
</a>
</g>
</g>
<!-- Node5 -->
<g id="Node000005" class="node">
<title>Node5</title>
<g id="a_Node000005"><a xlink:href="class_error_state.html#ab996befaa1eb1089914ab0fbfecfcf39" target="_top" xlink:title="raises a new error by setting the given error&#45;code as errorState">
<polygon fill="white" stroke="#666666" points="283.62,-19.25 175.38,-19.25 175.38,0 283.62,0 283.62,-19.25"/>
<text text-anchor="middle" x="229.5" y="-5.75" font-family="Helvetica,sans-Serif" font-size="10.00">ErrorState::raiseError</text>
</a>
</g>
</g>
<!-- Node1&#45;&gt;Node5 -->
<g id="edge4_Node000001_Node000005" class="edge">
<title>Node1&#45;&gt;Node5</title>
<g id="a_edge4_Node000001_Node000005"><a xlink:title=" ">
<path fill="none" stroke="#63b8ff" d="M92.2,-54.54C112.37,-46.81 141.17,-36.06 166.75,-27.62 171.53,-26.05 176.55,-24.47 181.56,-22.94"/>
<polygon fill="#63b8ff" stroke="#63b8ff" points="182.43,-26.33 191,-20.11 180.42,-19.63 182.43,-26.33"/>
</a>
</g>
</g>
</g>
</svg>
