<?xml version="1.0" encoding="UTF-8" standalone="no"?>
<!DOCTYPE svg PUBLIC "-//W3C//DTD SVG 1.1//EN"
 "http://www.w3.org/Graphics/SVG/1.1/DTD/svg11.dtd">
<!-- Generated by graphviz version 12.1.2 (20240928.0832)
 -->
<!-- Title: ErrorState::raiseError Pages: 1 -->
<svg width="460pt" height="106pt"
 viewBox="0.00 0.00 460.25 105.50" xmlns="http://www.w3.org/2000/svg" xmlns:xlink="http://www.w3.org/1999/xlink">
<g id="graph0" class="graph" transform="scale(1 1) rotate(0) translate(4 101.5)">
<title>ErrorState::raiseError</title>
<!-- Node1 -->
<g id="Node000001" class="node">
<title>Node1</title>
<g id="a_Node000001"><a xlink:title="raises a new error by setting the given error&#45;code as errorState">
<polygon fill="#999999" stroke="#666666" points="452.25,-45.88 344,-45.88 344,-26.62 452.25,-26.62 452.25,-45.88"/>
<text text-anchor="middle" x="398.12" y="-32.38" font-family="Helvetica,sans-Serif" font-size="10.00">ErrorState::raiseError</text>
</a>
</g>
</g>
<!-- Node2 -->
<g id="Node000002" class="node">
<title>Node2</title>
<g id="a_Node000002"><a xlink:href="class_service_interface.html#a42226b8c236c344b6c5d171736a08f6e" target="_top" xlink:title="Check if an ErrorService is registered in the service cluster under the defined ERRORSERVICE_ID of th...">
<polygon fill="white" stroke="#666666" points="303.5,-67.88 168.25,-67.88 168.25,-48.62 303.5,-48.62 303.5,-67.88"/>
<text text-anchor="middle" x="235.88" y="-54.38" font-family="Helvetica,sans-Serif" font-size="10.00">ServiceInterface::raiseError</text>
</a>
</g>
</g>
<!-- Node1&#45;&gt;Node2 -->
<g id="edge1_Node000001_Node000002" class="edge">
<title>Node1&#45;&gt;Node2</title>
<g id="a_edge1_Node000001_Node000002"><a xlink:title=" ">
<path fill="none" stroke="#63b8ff" d="M332.49,-45.12C323.1,-46.41 313.41,-47.74 303.97,-49.04"/>
<polygon fill="#63b8ff" stroke="#63b8ff" points="332.83,-48.61 342.26,-43.78 331.88,-41.67 332.83,-48.61"/>
</a>
</g>
</g>
<!-- Node5 -->
<g id="Node000005" class="node">
<title>Node5</title>
<g id="a_Node000005"><a xlink:href="class_comm_interface__modbus_r_t_u.html#a50b42ad0a40a82ebe5a7749313ca2283" target="_top" xlink:title="Receives a Modbus RTU frame and writes it to receiveBuffer.">
<polygon fill="white" stroke="#666666" points="308,-30.5 163.75,-30.5 163.75,0 308,0 308,-30.5"/>
<text text-anchor="start" x="171.75" y="-17" font-family="Helvetica,sans-Serif" font-size="10.00">CommInterface_modbusRTU</text>
<text text-anchor="middle" x="235.88" y="-5.75" font-family="Helvetica,sans-Serif" font-size="10.00">::receive</text>
</a>
</g>
</g>
<!-- Node1&#45;&gt;Node5 -->
<g id="edge4_Node000001_Node000005" class="edge">
<title>Node1&#45;&gt;Node5</title>
<g id="a_edge4_Node000001_Node000005"><a xlink:title=" ">
<path fill="none" stroke="#63b8ff" d="M332.61,-27.8C324.6,-26.75 316.37,-25.67 308.25,-24.6"/>
<polygon fill="#63b8ff" stroke="#63b8ff" points="331.89,-31.23 342.26,-29.06 332.8,-24.29 331.89,-31.23"/>
</a>
</g>
</g>
<!-- Node3 -->
<g id="Node000003" class="node">
<title>Node3</title>
<g id="a_Node000003"><a xlink:href="class_service_interface.html#a7c5ec5e13af8a67d1b08c963fcd71214" target="_top" xlink:title="Add items received by the CommInterface to the recStack and execute the CommInterface&#39;s receiveCycle ...">
<polygon fill="white" stroke="#666666" points="127.75,-97.5 0,-97.5 0,-67 127.75,-67 127.75,-97.5"/>
<text text-anchor="start" x="8" y="-84" font-family="Helvetica,sans-Serif" font-size="10.00">ServiceInterface::process</text>
<text text-anchor="middle" x="63.88" y="-72.75" font-family="Helvetica,sans-Serif" font-size="10.00">RecStack</text>
</a>
</g>
</g>
<!-- Node2&#45;&gt;Node3 -->
<g id="edge2_Node000002_Node000003" class="edge">
<title>Node2&#45;&gt;Node3</title>
<g id="a_edge2_Node000002_Node000003"><a xlink:title=" ">
<path fill="none" stroke="#63b8ff" d="M156.91,-69.26C147.25,-70.62 137.46,-72 128.05,-73.33"/>
<polygon fill="#63b8ff" stroke="#63b8ff" points="157.26,-72.74 166.68,-67.88 156.28,-65.81 157.26,-72.74"/>
</a>
</g>
</g>
<!-- Node4 -->
<g id="Node000004" class="node">
<title>Node4</title>
<g id="a_Node000004"><a xlink:href="class_service_interface.html#a23feb243ed1748e04dd757aa5f788b3e" target="_top" xlink:title="Send all Frames, stored in the sendStack. As long as the sendStack is not empty, the function is gett...">
<polygon fill="white" stroke="#666666" points="127.75,-48.5 0,-48.5 0,-18 127.75,-18 127.75,-48.5"/>
<text text-anchor="start" x="8" y="-35" font-family="Helvetica,sans-Serif" font-size="10.00">ServiceInterface::process</text>
<text text-anchor="middle" x="63.88" y="-23.75" font-family="Helvetica,sans-Serif" font-size="10.00">SendStack</text>
</a>
</g>
</g>
<!-- Node2&#45;&gt;Node4 -->
<g id="edge3_Node000002_Node000004" class="edge">
<title>Node2&#45;&gt;Node4</title>
<g id="a_edge3_Node000002_Node000004"><a xlink:title=" ">
<path fill="none" stroke="#63b8ff" d="M156.91,-46.78C147.25,-45.36 137.46,-43.92 128.05,-42.54"/>
<polygon fill="#63b8ff" stroke="#63b8ff" points="156.27,-50.23 166.68,-48.22 157.29,-43.3 156.27,-50.23"/>
</a>
</g>
</g>
</g>
</svg>
