<?xml version="1.0" encoding="UTF-8" standalone="no"?>
<!DOCTYPE svg PUBLIC "-//W3C//DTD SVG 1.1//EN"
 "http://www.w3.org/Graphics/SVG/1.1/DTD/svg11.dtd">
<!-- Generated by graphviz version 12.1.2 (20240928.0832)
 -->
<!-- Title: ServiceCluster&lt; number_of_services &gt; Pages: 1 -->
<svg width="130pt" height="149pt"
 viewBox="0.00 0.00 129.75 149.00" xmlns="http://www.w3.org/2000/svg" xmlns:xlink="http://www.w3.org/1999/xlink">
<g id="graph0" class="graph" transform="scale(1 1) rotate(0) translate(4 145)">
<title>ServiceCluster&lt; number_of_services &gt;</title>
<!-- Node1 -->
<g id="Node000001" class="node">
<title>Node1</title>
<g id="a_Node000001"><a xlink:title="The ServiceCluster provides functions to manage multiple services. The ServiceCluster is added to the...">
<polygon fill="#999999" stroke="#666666" points="121.75,-30.5 0,-30.5 0,0 121.75,0 121.75,-30.5"/>
<text text-anchor="start" x="8" y="-17" font-family="Helvetica,sans-Serif" font-size="10.00">ServiceCluster&lt; number</text>
<text text-anchor="middle" x="60.88" y="-5.75" font-family="Helvetica,sans-Serif" font-size="10.00">_of_services &gt;</text>
</a>
</g>
</g>
<!-- Node2 -->
<g id="Node000002" class="node">
<title>Node2</title>
<g id="a_Node000002"><a xlink:href="class_service_cluster_base.html" target="_top" xlink:title="ServiceCluster&#45;base&#45;class to add class&#45;functions to vtable.">
<polygon fill="white" stroke="#666666" points="112.38,-85.75 9.38,-85.75 9.38,-66.5 112.38,-66.5 112.38,-85.75"/>
<text text-anchor="middle" x="60.88" y="-72.25" font-family="Helvetica,sans-Serif" font-size="10.00">ServiceClusterBase</text>
</a>
</g>
</g>
<!-- Node2&#45;&gt;Node1 -->
<g id="edge1_Node000001_Node000002" class="edge">
<title>Node2&#45;&gt;Node1</title>
<g id="a_edge1_Node000001_Node000002"><a xlink:title=" ">
<path fill="none" stroke="#63b8ff" d="M60.88,-54.92C60.88,-46.99 60.88,-38.06 60.88,-30.78"/>
<polygon fill="#63b8ff" stroke="#63b8ff" points="57.38,-54.67 60.88,-64.67 64.38,-54.67 57.38,-54.67"/>
</a>
</g>
</g>
<!-- Node3 -->
<g id="Node000003" class="node">
<title>Node3</title>
<g id="a_Node000003"><a xlink:href="class_error_state.html" target="_top" xlink:title="A class to manage and track error states using error codes.">
<polygon fill="white" stroke="#666666" points="91,-141 30.75,-141 30.75,-121.75 91,-121.75 91,-141"/>
<text text-anchor="middle" x="60.88" y="-127.5" font-family="Helvetica,sans-Serif" font-size="10.00">ErrorState</text>
</a>
</g>
</g>
<!-- Node3&#45;&gt;Node2 -->
<g id="edge2_Node000002_Node000003" class="edge">
<title>Node3&#45;&gt;Node2</title>
<g id="a_edge2_Node000002_Node000003"><a xlink:title=" ">
<path fill="none" stroke="#63b8ff" d="M60.88,-110.13C60.88,-101.84 60.88,-92.67 60.88,-86.11"/>
<polygon fill="#63b8ff" stroke="#63b8ff" points="57.38,-110.07 60.88,-120.07 64.38,-110.07 57.38,-110.07"/>
</a>
</g>
</g>
</g>
</svg>
