<?xml version="1.0" encoding="UTF-8" standalone="no"?>
<!DOCTYPE svg PUBLIC "-//W3C//DTD SVG 1.1//EN"
 "http://www.w3.org/Graphics/SVG/1.1/DTD/svg11.dtd">
<!-- Generated by graphviz version 12.1.2 (20240928.0832)
 -->
<!-- Title: Content::get_content Pages: 1 -->
<svg width="319pt" height="150pt"
 viewBox="0.00 0.00 319.00 149.88" xmlns="http://www.w3.org/2000/svg" xmlns:xlink="http://www.w3.org/1999/xlink">
<g id="graph0" class="graph" transform="scale(1 1) rotate(0) translate(4 145.88)">
<title>Content::get_content</title>
<!-- Node1 -->
<g id="Node000001" class="node">
<title>Node1</title>
<g id="a_Node000001"><a xlink:title="Get the address of the informations content of type content_type.">
<polygon fill="#999999" stroke="#666666" points="311,-74.25 203.5,-74.25 203.5,-55 311,-55 311,-74.25"/>
<text text-anchor="middle" x="257.25" y="-60.75" font-family="Helvetica,sans-Serif" font-size="10.00">Content::get_content</text>
</a>
</g>
</g>
<!-- Node2 -->
<g id="Node000002" class="node">
<title>Node2</title>
<g id="a_Node000002"><a xlink:href="class_message_service.html#acc78431dec13eaa6b2d6c325ad84578c" target="_top" xlink:title="Retrieves the destination instance ID for the current response PDU in the send stack.">
<polygon fill="white" stroke="#666666" points="137.88,-141.88 29.62,-141.88 29.62,-111.38 137.88,-111.38 137.88,-141.88"/>
<text text-anchor="start" x="37.62" y="-128.38" font-family="Helvetica,sans-Serif" font-size="10.00">MessageService::get</text>
<text text-anchor="middle" x="83.75" y="-117.12" font-family="Helvetica,sans-Serif" font-size="10.00">_destinationId</text>
</a>
</g>
</g>
<!-- Node1&#45;&gt;Node2 -->
<g id="edge1_Node000001_Node000002" class="edge">
<title>Node1&#45;&gt;Node2</title>
<g id="a_edge1_Node000001_Node000002"><a xlink:title=" ">
<path fill="none" stroke="#63b8ff" d="M224.34,-79.41C207.61,-86.87 186.66,-95.77 167.5,-102.62 158.06,-106 147.9,-109.25 138.03,-112.21"/>
<polygon fill="#63b8ff" stroke="#63b8ff" points="225.61,-82.68 233.28,-75.37 222.73,-76.3 225.61,-82.68"/>
</a>
</g>
</g>
<!-- Node3 -->
<g id="Node000003" class="node">
<title>Node3</title>
<g id="a_Node000003"><a xlink:href="class_service_cluster.html#a248bf50b452a17743e53f8e5eb3790f1" target="_top" xlink:title="Add the payload of the referenced Frame to the belonging Service (Multiplexing by Service&#45;ID)">
<polygon fill="white" stroke="#666666" points="149.12,-93.25 18.38,-93.25 18.38,-74 149.12,-74 149.12,-93.25"/>
<text text-anchor="middle" x="83.75" y="-79.75" font-family="Helvetica,sans-Serif" font-size="10.00">ServiceCluster::impartPdu</text>
</a>
</g>
</g>
<!-- Node1&#45;&gt;Node3 -->
<g id="edge2_Node000001_Node000003" class="edge">
<title>Node1&#45;&gt;Node3</title>
<g id="a_edge2_Node000001_Node000003"><a xlink:title=" ">
<path fill="none" stroke="#63b8ff" d="M191.96,-71.75C178.09,-73.28 163.41,-74.91 149.52,-76.45"/>
<polygon fill="#63b8ff" stroke="#63b8ff" points="192.34,-75.23 201.89,-70.65 191.57,-68.27 192.34,-75.23"/>
</a>
</g>
</g>
<!-- Node4 -->
<g id="Node000004" class="node">
<title>Node4</title>
<g id="a_Node000004"><a xlink:href="class_error_service.html#abdd6940a94fc8619c1ed31934b1cd3bd" target="_top" xlink:title="Processes all errors from the receive stack.">
<polygon fill="white" stroke="#666666" points="158.12,-56.25 9.38,-56.25 9.38,-37 158.12,-37 158.12,-56.25"/>
<text text-anchor="middle" x="83.75" y="-42.75" font-family="Helvetica,sans-Serif" font-size="10.00">ErrorService::stackProcessing</text>
</a>
</g>
</g>
<!-- Node1&#45;&gt;Node4 -->
<g id="edge3_Node000001_Node000004" class="edge">
<title>Node1&#45;&gt;Node4</title>
<g id="a_edge3_Node000001_Node000004"><a xlink:title=" ">
<path fill="none" stroke="#63b8ff" d="M192.18,-57.9C181.22,-56.75 169.75,-55.55 158.55,-54.37"/>
<polygon fill="#63b8ff" stroke="#63b8ff" points="191.58,-61.36 201.89,-58.92 192.31,-54.39 191.58,-61.36"/>
</a>
</g>
</g>
<!-- Node5 -->
<g id="Node000005" class="node">
<title>Node5</title>
<g id="a_Node000005"><a xlink:href="class_message_service.html#ae02abdc8b83f6c62353dda1a42b2f1ff" target="_top" xlink:title="Processes all messages from the receive stack.">
<polygon fill="white" stroke="#666666" points="167.5,-19.25 0,-19.25 0,0 167.5,0 167.5,-19.25"/>
<text text-anchor="middle" x="83.75" y="-5.75" font-family="Helvetica,sans-Serif" font-size="10.00">MessageService::stackProcessing</text>
</a>
</g>
</g>
<!-- Node1&#45;&gt;Node5 -->
<g id="edge4_Node000001_Node000005" class="edge">
<title>Node1&#45;&gt;Node5</title>
<g id="a_edge4_Node000001_Node000005"><a xlink:title=" ">
<path fill="none" stroke="#63b8ff" d="M224.82,-49.89C208.07,-42.45 186.96,-33.74 167.5,-27.62 158.1,-24.67 147.96,-22.03 138.1,-19.74"/>
<polygon fill="#63b8ff" stroke="#63b8ff" points="223.2,-53 233.75,-53.92 226.08,-46.62 223.2,-53"/>
</a>
</g>
</g>
</g>
</svg>
