<?xml version="1.0" encoding="UTF-8" standalone="no"?>
<!DOCTYPE svg PUBLIC "-//W3C//DTD SVG 1.1//EN"
 "http://www.w3.org/Graphics/SVG/1.1/DTD/svg11.dtd">
<!-- Generated by graphviz version 12.1.2 (20240928.0832)
 -->
<!-- Title: CommInterface&lt; interface_type &gt; Pages: 1 -->
<svg width="214pt" height="173pt"
 viewBox="0.00 0.00 213.60 172.50" xmlns="http://www.w3.org/2000/svg" xmlns:xlink="http://www.w3.org/1999/xlink">
<g id="graph0" class="graph" transform="scale(1 1) rotate(0) translate(4 168.5)">
<title>CommInterface&lt; interface_type &gt;</title>
<!-- Node1 -->
<g id="Node000001" class="node">
<title>Node1</title>
<g id="a_Node000001"><a xlink:title="Template for generic communication&#45;interface specifies a standardized interface to use for integratin...">
<polygon fill="#999999" stroke="#666666" points="193,-30.5 63,-30.5 63,0 193,0 193,-30.5"/>
<text text-anchor="start" x="71" y="-17" font-family="Helvetica,sans-Serif" font-size="10.00">CommInterface&lt; interface</text>
<text text-anchor="middle" x="128" y="-5.75" font-family="Helvetica,sans-Serif" font-size="10.00">_type &gt;</text>
</a>
</g>
</g>
<!-- Node2 -->
<g id="Node000002" class="node">
<title>Node2</title>
<g id="a_Node000002"><a xlink:href="class_comm_interface_base.html" target="_top" xlink:title="Communcation&#45;Interface&#45;Base&#45;Class of the CommInterface template specifies a standardized interface to...">
<polygon fill="white" stroke="#666666" points="106,-108.25 0,-108.25 0,-89 106,-89 106,-108.25"/>
<text text-anchor="middle" x="53" y="-94.75" font-family="Helvetica,sans-Serif" font-size="10.00">CommInterfaceBase</text>
</a>
</g>
</g>
<!-- Node2&#45;&gt;Node1 -->
<g id="edge1_Node000001_Node000002" class="edge">
<title>Node2&#45;&gt;Node1</title>
<g id="a_edge1_Node000001_Node000002"><a xlink:title=" ">
<path fill="none" stroke="#63b8ff" d="M68.92,-80.35C82.49,-65.62 101.79,-44.68 114.6,-30.79"/>
<polygon fill="#63b8ff" stroke="#63b8ff" points="66.54,-77.77 62.34,-87.49 71.69,-82.51 66.54,-77.77"/>
</a>
</g>
</g>
<!-- Node3 -->
<g id="Node000003" class="node">
<title>Node3</title>
<g id="a_Node000003"><a xlink:href="class_error_state.html" target="_top" xlink:title="A class to manage and track error states using error codes.">
<polygon fill="white" stroke="#666666" points="83.12,-164.5 22.88,-164.5 22.88,-145.25 83.12,-145.25 83.12,-164.5"/>
<text text-anchor="middle" x="53" y="-151" font-family="Helvetica,sans-Serif" font-size="10.00">ErrorState</text>
</a>
</g>
</g>
<!-- Node3&#45;&gt;Node2 -->
<g id="edge2_Node000002_Node000003" class="edge">
<title>Node3&#45;&gt;Node2</title>
<g id="a_edge2_Node000002_Node000003"><a xlink:title=" ">
<path fill="none" stroke="#63b8ff" d="M53,-133.69C53,-124.98 53,-115.24 53,-108.42"/>
<polygon fill="#63b8ff" stroke="#63b8ff" points="49.5,-133.4 53,-143.4 56.5,-133.4 49.5,-133.4"/>
</a>
</g>
</g>
<!-- Node4 -->
<g id="Node000004" class="node">
<title>Node4</title>
<g id="a_Node000004"><a xlink:href="class_char_array.html" target="_top" xlink:title="Class for storing char&#45;array (byte&#45;array) together with size. The Array is stored on Heap&#45;memory and ...">
<polygon fill="white" stroke="#666666" points="184.12,-108.25 123.88,-108.25 123.88,-89 184.12,-89 184.12,-108.25"/>
<text text-anchor="middle" x="154" y="-94.75" font-family="Helvetica,sans-Serif" font-size="10.00">CharArray</text>
</a>
</g>
</g>
<!-- Node4&#45;&gt;Node1 -->
<g id="edge3_Node000001_Node000004" class="edge">
<title>Node4&#45;&gt;Node1</title>
<g id="a_edge3_Node000001_Node000004"><a xlink:title=" ">
<path fill="none" stroke="#9a32cd" stroke-dasharray="5,2" d="M147.66,-77.8C143.02,-63.28 136.83,-43.9 132.65,-30.79"/>
<polygon fill="#9a32cd" stroke="#9a32cd" points="144.28,-78.7 150.66,-87.16 150.95,-76.57 144.28,-78.7"/>
</a>
</g>
<text text-anchor="middle" x="175.22" y="-61.5" font-family="Helvetica,sans-Serif" font-size="10.00" fill="grey"> receiveBuffer</text>
<text text-anchor="middle" x="175.22" y="-50.25" font-family="Helvetica,sans-Serif" font-size="10.00" fill="grey">sendBuffer</text>
</g>
</g>
</svg>
