<?xml version="1.0" encoding="UTF-8" standalone="no"?>
<!DOCTYPE svg PUBLIC "-//W3C//DTD SVG 1.1//EN"
 "http://www.w3.org/Graphics/SVG/1.1/DTD/svg11.dtd">
<!-- Generated by graphviz version 12.1.2 (20240928.0832)
 -->
<!-- Title: MessageService::stackProcessing Pages: 1 -->
<svg width="360pt" height="138pt"
 viewBox="0.00 0.00 359.50 138.25" xmlns="http://www.w3.org/2000/svg" xmlns:xlink="http://www.w3.org/1999/xlink">
<g id="graph0" class="graph" transform="scale(1 1) rotate(0) translate(4 134.25)">
<title>MessageService::stackProcessing</title>
<!-- Node1 -->
<g id="Node000001" class="node">
<title>Node1</title>
<g id="a_Node000001"><a xlink:title="Processes all messages from the receive stack.">
<polygon fill="#999999" stroke="#666666" points="167.5,-74.25 0,-74.25 0,-55 167.5,-55 167.5,-74.25"/>
<text text-anchor="middle" x="83.75" y="-60.75" font-family="Helvetica,sans-Serif" font-size="10.00">MessageService::stackProcessing</text>
</a>
</g>
</g>
<!-- Node2 -->
<g id="Node000002" class="node">
<title>Node2</title>
<g id="a_Node000002"><a xlink:href="class_content__stack.html#a7b2d11fd9ee9f45090a545031883edb6" target="_top" xlink:title="Delete item on index&#45;position from stack and shift all items with higher index, accepts only positive...">
<polygon fill="white" stroke="#666666" points="351.5,-130.25 203.5,-130.25 203.5,-111 351.5,-111 351.5,-130.25"/>
<text text-anchor="middle" x="277.5" y="-116.75" font-family="Helvetica,sans-Serif" font-size="10.00">Content_stack::deleteElement</text>
</a>
</g>
</g>
<!-- Node1&#45;&gt;Node2 -->
<g id="edge1_Node000001_Node000002" class="edge">
<title>Node1&#45;&gt;Node2</title>
<g id="a_edge1_Node000001_Node000002"><a xlink:title=" ">
<path fill="none" stroke="#63b8ff" d="M114.35,-74.71C138.27,-82.72 172.88,-93.96 203.5,-102.62 209.7,-104.38 216.21,-106.12 222.7,-107.8"/>
<polygon fill="#63b8ff" stroke="#63b8ff" points="221.5,-111.11 232.06,-110.17 223.22,-104.32 221.5,-111.11"/>
</a>
</g>
</g>
<!-- Node3 -->
<g id="Node000003" class="node">
<title>Node3</title>
<g id="a_Node000003"><a xlink:href="class_content__stack.html#a4710d468535ed030bf5f67052e68eebb" target="_top" xlink:title="Check if the Stack is empty (size is 0)">
<polygon fill="white" stroke="#666666" points="333.88,-93.25 221.12,-93.25 221.12,-74 333.88,-74 333.88,-93.25"/>
<text text-anchor="middle" x="277.5" y="-79.75" font-family="Helvetica,sans-Serif" font-size="10.00">Content_stack::empty</text>
</a>
</g>
</g>
<!-- Node1&#45;&gt;Node3 -->
<g id="edge2_Node000001_Node000003" class="edge">
<title>Node1&#45;&gt;Node3</title>
<g id="a_edge2_Node000001_Node000003"><a xlink:title=" ">
<path fill="none" stroke="#63b8ff" d="M167.74,-72.85C181.74,-74.24 196.1,-75.66 209.62,-77"/>
<polygon fill="#63b8ff" stroke="#63b8ff" points="208.95,-80.45 219.25,-77.95 209.64,-73.48 208.95,-80.45"/>
</a>
</g>
</g>
<!-- Node4 -->
<g id="Node000004" class="node">
<title>Node4</title>
<g id="a_Node000004"><a xlink:href="class_content.html#a5a3cdbe54fb690a53a5a4fda109fd044" target="_top" xlink:title="Get the address of the informations content of type content_type.">
<polygon fill="white" stroke="#666666" points="331.25,-56.25 223.75,-56.25 223.75,-37 331.25,-37 331.25,-56.25"/>
<text text-anchor="middle" x="277.5" y="-42.75" font-family="Helvetica,sans-Serif" font-size="10.00">Content::get_content</text>
</a>
</g>
</g>
<!-- Node1&#45;&gt;Node4 -->
<g id="edge3_Node000001_Node000004" class="edge">
<title>Node1&#45;&gt;Node4</title>
<g id="a_edge3_Node000001_Node000004"><a xlink:title=" ">
<path fill="none" stroke="#63b8ff" d="M167.74,-56.83C182.59,-55.44 197.87,-54.01 212.1,-52.67"/>
<polygon fill="#63b8ff" stroke="#63b8ff" points="212.13,-56.18 221.76,-51.76 211.48,-49.21 212.13,-56.18"/>
</a>
</g>
</g>
<!-- Node5 -->
<g id="Node000005" class="node">
<title>Node5</title>
<g id="a_Node000005"><a xlink:href="class_content__stack.html#a5ac2a896da7724281d9d85eb239f5084" target="_top" xlink:title="Get Pointer to element in the stack. Accepts positive and negative indexing.">
<polygon fill="white" stroke="#666666" points="345.12,-19.25 209.88,-19.25 209.88,0 345.12,0 345.12,-19.25"/>
<text text-anchor="middle" x="277.5" y="-5.75" font-family="Helvetica,sans-Serif" font-size="10.00">Content_stack::getElement</text>
</a>
</g>
</g>
<!-- Node1&#45;&gt;Node5 -->
<g id="edge4_Node000001_Node000005" class="edge">
<title>Node1&#45;&gt;Node5</title>
<g id="a_edge4_Node000001_Node000005"><a xlink:title=" ">
<path fill="none" stroke="#63b8ff" d="M115.35,-54.53C139.25,-46.79 173.34,-36.03 203.5,-27.62 209.78,-25.87 216.39,-24.12 222.97,-22.43"/>
<polygon fill="#63b8ff" stroke="#63b8ff" points="223.62,-25.88 232.46,-20.03 221.91,-19.09 223.62,-25.88"/>
</a>
</g>
</g>
</g>
</svg>
