<?xml version="1.0" encoding="UTF-8" standalone="no"?>
<!DOCTYPE svg PUBLIC "-//W3C//DTD SVG 1.1//EN"
 "http://www.w3.org/Graphics/SVG/1.1/DTD/svg11.dtd">
<!-- Generated by graphviz version 12.1.2 (20240928.0832)
 -->
<!-- Title: ServiceCluster::impartPdu Pages: 1 -->
<svg width="334pt" height="212pt"
 viewBox="0.00 0.00 334.00 212.25" xmlns="http://www.w3.org/2000/svg" xmlns:xlink="http://www.w3.org/1999/xlink">
<g id="graph0" class="graph" transform="scale(1 1) rotate(0) translate(4 208.25)">
<title>ServiceCluster::impartPdu</title>
<!-- Node1 -->
<g id="Node000001" class="node">
<title>Node1</title>
<g id="a_Node000001"><a xlink:title="Add the payload of the referenced Frame to the belonging Service (Multiplexing by Service&#45;ID)">
<polygon fill="#999999" stroke="#666666" points="130.75,-111.25 0,-111.25 0,-92 130.75,-92 130.75,-111.25"/>
<text text-anchor="middle" x="65.38" y="-97.75" font-family="Helvetica,sans-Serif" font-size="10.00">ServiceCluster::impartPdu</text>
</a>
</g>
</g>
<!-- Node2 -->
<g id="Node000002" class="node">
<title>Node2</title>
<g id="a_Node000002"><a xlink:href="class_content.html#a5a3cdbe54fb690a53a5a4fda109fd044" target="_top" xlink:title="Get the address of the informations content of type content_type.">
<polygon fill="white" stroke="#666666" points="300.12,-204.25 192.62,-204.25 192.62,-185 300.12,-185 300.12,-204.25"/>
<text text-anchor="middle" x="246.38" y="-190.75" font-family="Helvetica,sans-Serif" font-size="10.00">Content::get_content</text>
</a>
</g>
</g>
<!-- Node1&#45;&gt;Node2 -->
<g id="edge1_Node000001_Node000002" class="edge">
<title>Node1&#45;&gt;Node2</title>
<g id="a_edge1_Node000001_Node000002"><a xlink:title=" ">
<path fill="none" stroke="#63b8ff" d="M76.55,-111.57C93.68,-127.74 130.03,-159.63 166.75,-176.62 171.5,-178.82 176.55,-180.77 181.69,-182.48"/>
<polygon fill="#63b8ff" stroke="#63b8ff" points="180.31,-185.72 190.89,-185.24 182.32,-179.01 180.31,-185.72"/>
</a>
</g>
</g>
<!-- Node3 -->
<g id="Node000003" class="node">
<title>Node3</title>
<g id="a_Node000003"><a xlink:href="class_error_state.html#a55090bb1772cd8c20c936b5a9cf4f2ce" target="_top" xlink:title="Get the currently active error&#45;code.">
<polygon fill="white" stroke="#666666" points="308.38,-167.25 184.38,-167.25 184.38,-148 308.38,-148 308.38,-167.25"/>
<text text-anchor="middle" x="246.38" y="-153.75" font-family="Helvetica,sans-Serif" font-size="10.00">ErrorState::getErrorState</text>
</a>
</g>
</g>
<!-- Node1&#45;&gt;Node3 -->
<g id="edge2_Node000001_Node000003" class="edge">
<title>Node1&#45;&gt;Node3</title>
<g id="a_edge2_Node000001_Node000003"><a xlink:title=" ">
<path fill="none" stroke="#63b8ff" d="M89.99,-111.62C110.13,-119.88 140,-131.54 166.75,-139.62 172.85,-141.47 179.26,-143.22 185.68,-144.87"/>
<polygon fill="#63b8ff" stroke="#63b8ff" points="184.43,-148.16 194.98,-147.15 186.11,-141.37 184.43,-148.16"/>
</a>
</g>
</g>
<!-- Node4 -->
<g id="Node000004" class="node">
<title>Node4</title>
<g id="a_Node000004"><a xlink:href="class_service_cluster.html#ae40a5207d621ccd428297ae8f3bbbf40" target="_top" xlink:title="Get pointer to the service with the given service&#45;ID by iterating through the associated services and...">
<polygon fill="white" stroke="#666666" points="326,-130.25 166.75,-130.25 166.75,-111 326,-111 326,-130.25"/>
<text text-anchor="middle" x="246.38" y="-116.75" font-family="Helvetica,sans-Serif" font-size="10.00">ServiceCluster::getService_byID</text>
</a>
</g>
</g>
<!-- Node1&#45;&gt;Node4 -->
<g id="edge3_Node000001_Node000004" class="edge">
<title>Node1&#45;&gt;Node4</title>
<g id="a_edge3_Node000001_Node000004"><a xlink:title=" ">
<path fill="none" stroke="#63b8ff" d="M131,-108.48C138.83,-109.32 146.93,-110.18 155.04,-111.04"/>
<polygon fill="#63b8ff" stroke="#63b8ff" points="154.67,-114.52 164.98,-112.09 155.41,-107.56 154.67,-114.52"/>
</a>
</g>
</g>
<!-- Node5 -->
<g id="Node000005" class="node">
<title>Node5</title>
<g id="a_Node000005"><a xlink:href="class_frame.html#ade5e8d615567b9e1198ee7397a42b026" target="_top" xlink:title="Get the ServiceId, the PDU of the Frame belongs to (necessary for Service&#45;multiplexing)....">
<polygon fill="white" stroke="#666666" points="298.62,-93.25 194.12,-93.25 194.12,-74 298.62,-74 298.62,-93.25"/>
<text text-anchor="middle" x="246.38" y="-79.75" font-family="Helvetica,sans-Serif" font-size="10.00">Frame::getServiceId</text>
</a>
</g>
</g>
<!-- Node1&#45;&gt;Node5 -->
<g id="edge4_Node000001_Node000005" class="edge">
<title>Node1&#45;&gt;Node5</title>
<g id="a_edge4_Node000001_Node000005"><a xlink:title=" ">
<path fill="none" stroke="#63b8ff" d="M131,-95.13C147.76,-93.44 165.78,-91.63 182.46,-89.95"/>
<polygon fill="#63b8ff" stroke="#63b8ff" points="182.65,-93.45 192.24,-88.97 181.94,-86.49 182.65,-93.45"/>
</a>
</g>
</g>
<!-- Node6 -->
<g id="Node000006" class="node">
<title>Node6</title>
<g id="a_Node000006"><a xlink:href="class_service_base.html#a4d01083248ca9afc41bcd36faa8b966d" target="_top" xlink:title="Add a new Content&#45;Object created from a received payload to the services receive&#45;Stack....">
<polygon fill="white" stroke="#666666" points="309.12,-56.25 183.62,-56.25 183.62,-37 309.12,-37 309.12,-56.25"/>
<text text-anchor="middle" x="246.38" y="-42.75" font-family="Helvetica,sans-Serif" font-size="10.00">ServiceBase::impart_pdu</text>
</a>
</g>
</g>
<!-- Node1&#45;&gt;Node6 -->
<g id="edge5_Node000001_Node000006" class="edge">
<title>Node1&#45;&gt;Node6</title>
<g id="a_edge5_Node000001_Node000006"><a xlink:title=" ">
<path fill="none" stroke="#63b8ff" d="M90.83,-91.61C110.97,-83.6 140.4,-72.46 166.75,-64.62 172.94,-62.78 179.45,-61.02 185.97,-59.37"/>
<polygon fill="#63b8ff" stroke="#63b8ff" points="186.53,-62.83 195.42,-57.06 184.87,-56.04 186.53,-62.83"/>
</a>
</g>
</g>
<!-- Node7 -->
<g id="Node000007" class="node">
<title>Node7</title>
<g id="a_Node000007"><a xlink:href="class_error_state.html#ab996befaa1eb1089914ab0fbfecfcf39" target="_top" xlink:title="raises a new error by setting the given error&#45;code as errorState">
<polygon fill="white" stroke="#666666" points="300.5,-19.25 192.25,-19.25 192.25,0 300.5,0 300.5,-19.25"/>
<text text-anchor="middle" x="246.38" y="-5.75" font-family="Helvetica,sans-Serif" font-size="10.00">ErrorState::raiseError</text>
</a>
</g>
</g>
<!-- Node1&#45;&gt;Node7 -->
<g id="edge6_Node000001_Node000007" class="edge">
<title>Node1&#45;&gt;Node7</title>
<g id="a_edge6_Node000001_Node000007"><a xlink:title=" ">
<path fill="none" stroke="#63b8ff" d="M76.85,-91.56C94.14,-75.54 130.35,-44.33 166.75,-27.62 171.31,-25.53 176.14,-23.67 181.06,-22.02"/>
<polygon fill="#63b8ff" stroke="#63b8ff" points="181.94,-25.41 190.5,-19.17 179.91,-18.71 181.94,-25.41"/>
</a>
</g>
</g>
</g>
</svg>
