<?xml version="1.0" encoding="UTF-8" standalone="no"?>
<!DOCTYPE svg PUBLIC "-//W3C//DTD SVG 1.1//EN"
 "http://www.w3.org/Graphics/SVG/1.1/DTD/svg11.dtd">
<!-- Generated by graphviz version 12.1.2 (20240928.0832)
 -->
<!-- Title: ServiceInterface_modbusRTU::communicate Pages: 1 -->
<svg width="363pt" height="170pt"
 viewBox="0.00 0.00 363.25 169.75" xmlns="http://www.w3.org/2000/svg" xmlns:xlink="http://www.w3.org/1999/xlink">
<g id="graph0" class="graph" transform="scale(1 1) rotate(0) translate(4 165.75)">
<title>ServiceInterface_modbusRTU::communicate</title>
<!-- Node1 -->
<g id="Node000001" class="node">
<title>Node1</title>
<g id="a_Node000001"><a xlink:title="Manages data transfer between the CommInterface and services.">
<polygon fill="#999999" stroke="#666666" points="148,-96.12 0,-96.12 0,-65.62 148,-65.62 148,-96.12"/>
<text text-anchor="start" x="8" y="-82.62" font-family="Helvetica,sans-Serif" font-size="10.00">ServiceInterface_modbusRTU</text>
<text text-anchor="middle" x="74" y="-71.38" font-family="Helvetica,sans-Serif" font-size="10.00">::communicate</text>
</a>
</g>
</g>
<!-- Node2 -->
<g id="Node000002" class="node">
<title>Node2</title>
<g id="a_Node000002"><a xlink:href="class_service_interface.html#a7c5ec5e13af8a67d1b08c963fcd71214" target="_top" xlink:title=" ">
<polygon fill="white" stroke="#666666" points="355.25,-161.75 184,-161.75 184,-120 355.25,-120 355.25,-161.75"/>
<text text-anchor="start" x="192" y="-148.25" font-family="Helvetica,sans-Serif" font-size="10.00">ServiceInterface&lt; CommInterface</text>
<text text-anchor="start" x="192" y="-137" font-family="Helvetica,sans-Serif" font-size="10.00">_modbusRTU, Frame_modbusRTU</text>
<text text-anchor="middle" x="269.62" y="-125.75" font-family="Helvetica,sans-Serif" font-size="10.00"> &gt;::processRecStack</text>
</a>
</g>
</g>
<!-- Node1&#45;&gt;Node2 -->
<g id="edge1_Node000001_Node000002" class="edge">
<title>Node1&#45;&gt;Node2</title>
<g id="a_edge1_Node000001_Node000002"><a xlink:title=" ">
<path fill="none" stroke="#63b8ff" d="M125.62,-96.56C144.98,-102.56 167.57,-109.56 188.99,-116.2"/>
<polygon fill="#63b8ff" stroke="#63b8ff" points="187.69,-119.46 198.28,-119.08 189.76,-112.77 187.69,-119.46"/>
</a>
</g>
</g>
<!-- Node3 -->
<g id="Node000003" class="node">
<title>Node3</title>
<g id="a_Node000003"><a xlink:href="class_service_interface.html#a23feb243ed1748e04dd757aa5f788b3e" target="_top" xlink:title=" ">
<polygon fill="white" stroke="#666666" points="355.25,-101.75 184,-101.75 184,-60 355.25,-60 355.25,-101.75"/>
<text text-anchor="start" x="192" y="-88.25" font-family="Helvetica,sans-Serif" font-size="10.00">ServiceInterface&lt; CommInterface</text>
<text text-anchor="start" x="192" y="-77" font-family="Helvetica,sans-Serif" font-size="10.00">_modbusRTU, Frame_modbusRTU</text>
<text text-anchor="middle" x="269.62" y="-65.75" font-family="Helvetica,sans-Serif" font-size="10.00"> &gt;::processSendStack</text>
</a>
</g>
</g>
<!-- Node1&#45;&gt;Node3 -->
<g id="edge2_Node000001_Node000003" class="edge">
<title>Node1&#45;&gt;Node3</title>
<g id="a_edge2_Node000001_Node000003"><a xlink:title=" ">
<path fill="none" stroke="#63b8ff" d="M148.48,-80.88C156.26,-80.88 164.25,-80.88 172.24,-80.88"/>
<polygon fill="#63b8ff" stroke="#63b8ff" points="172,-84.38 182,-80.88 172,-77.38 172,-84.38"/>
</a>
</g>
</g>
<!-- Node4 -->
<g id="Node000004" class="node">
<title>Node4</title>
<g id="a_Node000004"><a xlink:href="class_service_interface.html#a4dffc7c3e366b470e1075db65333b67e" target="_top" xlink:title=" ">
<polygon fill="white" stroke="#666666" points="355.25,-41.75 184,-41.75 184,0 355.25,0 355.25,-41.75"/>
<text text-anchor="start" x="192" y="-28.25" font-family="Helvetica,sans-Serif" font-size="10.00">ServiceInterface&lt; CommInterface</text>
<text text-anchor="start" x="192" y="-17" font-family="Helvetica,sans-Serif" font-size="10.00">_modbusRTU, Frame_modbusRTU</text>
<text text-anchor="middle" x="269.62" y="-5.75" font-family="Helvetica,sans-Serif" font-size="10.00"> &gt;::processServices</text>
</a>
</g>
</g>
<!-- Node1&#45;&gt;Node4 -->
<g id="edge3_Node000001_Node000004" class="edge">
<title>Node1&#45;&gt;Node4</title>
<g id="a_edge3_Node000001_Node000004"><a xlink:title=" ">
<path fill="none" stroke="#63b8ff" d="M125.62,-65.19C144.98,-59.19 167.57,-52.19 188.99,-45.55"/>
<polygon fill="#63b8ff" stroke="#63b8ff" points="189.76,-48.98 198.28,-42.67 187.69,-42.29 189.76,-48.98"/>
</a>
</g>
</g>
</g>
</svg>
