<?xml version="1.0" encoding="UTF-8" standalone="no"?>
<!DOCTYPE svg PUBLIC "-//W3C//DTD SVG 1.1//EN"
 "http://www.w3.org/Graphics/SVG/1.1/DTD/svg11.dtd">
<!-- Generated by graphviz version 12.1.2 (20240928.0832)
 -->
<!-- Title: Content_stack::deleteElement Pages: 1 -->
<svg width="540pt" height="285pt"
 viewBox="0.00 0.00 539.75 285.25" xmlns="http://www.w3.org/2000/svg" xmlns:xlink="http://www.w3.org/1999/xlink">
<g id="graph0" class="graph" transform="scale(1 1) rotate(0) translate(4 281.25)">
<title>Content_stack::deleteElement</title>
<!-- Node1 -->
<g id="Node000001" class="node">
<title>Node1</title>
<g id="a_Node000001"><a xlink:title="Delete item on index&#45;position from stack and shift all items with higher index, accepts only positive...">
<polygon fill="#999999" stroke="#666666" points="531.75,-136.25 383.75,-136.25 383.75,-117 531.75,-117 531.75,-136.25"/>
<text text-anchor="middle" x="457.75" y="-122.75" font-family="Helvetica,sans-Serif" font-size="10.00">Content_stack::deleteElement</text>
</a>
</g>
</g>
<!-- Node2 -->
<g id="Node000002" class="node">
<title>Node2</title>
<g id="a_Node000002"><a xlink:href="class_service.html#a75817b19f202f1696c3609a3f9578cb9" target="_top" xlink:title="Clear the response&#45;buffer (delete item, that was returned by get_response from the service&#45;sendStack)">
<polygon fill="white" stroke="#666666" points="324.12,-277.25 203.88,-277.25 203.88,-258 324.12,-258 324.12,-277.25"/>
<text text-anchor="middle" x="264" y="-263.75" font-family="Helvetica,sans-Serif" font-size="10.00">Service::clearResponse</text>
</a>
</g>
</g>
<!-- Node1&#45;&gt;Node2 -->
<g id="edge1_Node000001_Node000002" class="edge">
<title>Node1&#45;&gt;Node2</title>
<g id="a_edge1_Node000001_Node000002"><a xlink:title=" ">
<path fill="none" stroke="#63b8ff" d="M444.78,-146.39C427.1,-173.79 391.36,-222.86 347.75,-248.62 340.64,-252.82 332.69,-256.09 324.59,-258.64"/>
<polygon fill="#63b8ff" stroke="#63b8ff" points="447.69,-148.34 450.04,-138.01 441.76,-144.62 447.69,-148.34"/>
</a>
</g>
</g>
<!-- Node3 -->
<g id="Node000003" class="node">
<title>Node3</title>
<g id="a_Node000003"><a xlink:href="classarduino_mocking_1_1_software_serial.html#a5785050c0162a9c4285b822d1dd940a1" target="_top" xlink:title="Empties the internal queue and prints the flushed data to the console.">
<polygon fill="white" stroke="#666666" points="328.62,-239.88 199.38,-239.88 199.38,-209.38 328.62,-209.38 328.62,-239.88"/>
<text text-anchor="start" x="207.38" y="-226.38" font-family="Helvetica,sans-Serif" font-size="10.00">arduinoMocking::Software</text>
<text text-anchor="middle" x="264" y="-215.12" font-family="Helvetica,sans-Serif" font-size="10.00">Serial::flush</text>
</a>
</g>
</g>
<!-- Node1&#45;&gt;Node3 -->
<g id="edge2_Node000001_Node000003" class="edge">
<title>Node1&#45;&gt;Node3</title>
<g id="a_edge2_Node000001_Node000003"><a xlink:title=" ">
<path fill="none" stroke="#63b8ff" d="M435.35,-143.77C414.17,-160.04 380.28,-184.24 347.75,-199.62 340.42,-203.09 332.51,-206.21 324.57,-208.96"/>
<polygon fill="#63b8ff" stroke="#63b8ff" points="437.49,-146.55 443.21,-137.63 433.18,-141.03 437.49,-146.55"/>
</a>
</g>
</g>
<!-- Node5 -->
<g id="Node000005" class="node">
<title>Node5</title>
<g id="a_Node000005"><a xlink:href="class_service_interface.html#a23feb243ed1748e04dd757aa5f788b3e" target="_top" xlink:title="Send all Frames, stored in the sendStack. As long as the sendStack is not empty, the function is gett...">
<polygon fill="white" stroke="#666666" points="327.88,-190.88 200.12,-190.88 200.12,-160.38 327.88,-160.38 327.88,-190.88"/>
<text text-anchor="start" x="208.12" y="-177.38" font-family="Helvetica,sans-Serif" font-size="10.00">ServiceInterface::process</text>
<text text-anchor="middle" x="264" y="-166.12" font-family="Helvetica,sans-Serif" font-size="10.00">SendStack</text>
</a>
</g>
</g>
<!-- Node1&#45;&gt;Node5 -->
<g id="edge4_Node000001_Node000005" class="edge">
<title>Node1&#45;&gt;Node5</title>
<g id="a_edge4_Node000001_Node000005"><a xlink:title=" ">
<path fill="none" stroke="#63b8ff" d="M406.62,-139.44C382.1,-145.7 352.37,-153.3 326.49,-159.91"/>
<polygon fill="#63b8ff" stroke="#63b8ff" points="407.2,-142.9 416.02,-137.03 405.46,-136.12 407.2,-142.9"/>
</a>
</g>
</g>
<!-- Node6 -->
<g id="Node000006" class="node">
<title>Node6</title>
<g id="a_Node000006"><a xlink:href="classarduino_mocking_1_1_software_serial.html#a892a38a5eb6b0c115c2745098c9637ad" target="_top" xlink:title="Reads a character from the internal queue.">
<polygon fill="white" stroke="#666666" points="328.62,-141.88 199.38,-141.88 199.38,-111.38 328.62,-111.38 328.62,-141.88"/>
<text text-anchor="start" x="207.38" y="-128.38" font-family="Helvetica,sans-Serif" font-size="10.00">arduinoMocking::Software</text>
<text text-anchor="middle" x="264" y="-117.12" font-family="Helvetica,sans-Serif" font-size="10.00">Serial::read</text>
</a>
</g>
</g>
<!-- Node1&#45;&gt;Node6 -->
<g id="edge5_Node000001_Node000006" class="edge">
<title>Node1&#45;&gt;Node6</title>
<g id="a_edge5_Node000001_Node000006"><a xlink:title=" ">
<path fill="none" stroke="#63b8ff" d="M371.94,-126.62C357.48,-126.62 342.68,-126.62 328.88,-126.62"/>
<polygon fill="#63b8ff" stroke="#63b8ff" points="371.92,-130.13 381.92,-126.63 371.92,-123.13 371.92,-130.13"/>
</a>
</g>
</g>
<!-- Node8 -->
<g id="Node000008" class="node">
<title>Node8</title>
<g id="a_Node000008"><a xlink:href="class_error_service.html#abdd6940a94fc8619c1ed31934b1cd3bd" target="_top" xlink:title="Processes all errors from the receive stack.">
<polygon fill="white" stroke="#666666" points="338.38,-93.25 189.62,-93.25 189.62,-74 338.38,-74 338.38,-93.25"/>
<text text-anchor="middle" x="264" y="-79.75" font-family="Helvetica,sans-Serif" font-size="10.00">ErrorService::stackProcessing</text>
</a>
</g>
</g>
<!-- Node1&#45;&gt;Node8 -->
<g id="edge7_Node000001_Node000008" class="edge">
<title>Node1&#45;&gt;Node8</title>
<g id="a_edge7_Node000001_Node000008"><a xlink:title=" ">
<path fill="none" stroke="#63b8ff" d="M400.64,-114.04C371.78,-107.57 337.09,-99.79 310.01,-93.72"/>
<polygon fill="#63b8ff" stroke="#63b8ff" points="399.79,-117.44 410.32,-116.21 401.32,-110.61 399.79,-117.44"/>
</a>
</g>
</g>
<!-- Node9 -->
<g id="Node000009" class="node">
<title>Node9</title>
<g id="a_Node000009"><a xlink:href="class_message_service.html#ae02abdc8b83f6c62353dda1a42b2f1ff" target="_top" xlink:title="Processes all messages from the receive stack.">
<polygon fill="white" stroke="#666666" points="347.75,-56.25 180.25,-56.25 180.25,-37 347.75,-37 347.75,-56.25"/>
<text text-anchor="middle" x="264" y="-42.75" font-family="Helvetica,sans-Serif" font-size="10.00">MessageService::stackProcessing</text>
</a>
</g>
</g>
<!-- Node1&#45;&gt;Node9 -->
<g id="edge8_Node000001_Node000009" class="edge">
<title>Node1&#45;&gt;Node9</title>
<g id="a_edge8_Node000001_Node000009"><a xlink:title=" ">
<path fill="none" stroke="#63b8ff" d="M433.11,-110.37C411.7,-96.35 378.85,-76.53 347.75,-64.62 339.65,-61.52 330.89,-58.9 322.2,-56.69"/>
<polygon fill="#63b8ff" stroke="#63b8ff" points="431.12,-113.25 441.38,-115.88 435,-107.42 431.12,-113.25"/>
</a>
</g>
</g>
<!-- Node10 -->
<g id="Node000010" class="node">
<title>Node10</title>
<g id="a_Node000010"><a xlink:href="class_service.html#a3eafa52c7f4bfe29698ba4a91c75dc75" target="_top" xlink:title="Execute the service&#39;s functions for each item on the receive&#45;stack and add all response&#45;payloads to b...">
<polygon fill="white" stroke="#666666" points="327.88,-19.25 200.12,-19.25 200.12,0 327.88,0 327.88,-19.25"/>
<text text-anchor="middle" x="264" y="-5.75" font-family="Helvetica,sans-Serif" font-size="10.00">Service::stackProcessing</text>
</a>
</g>
</g>
<!-- Node1&#45;&gt;Node10 -->
<g id="edge9_Node000001_Node000010" class="edge">
<title>Node1&#45;&gt;Node10</title>
<g id="a_edge9_Node000001_Node000010"><a xlink:title=" ">
<path fill="none" stroke="#63b8ff" d="M441.7,-107.95C422.4,-85.31 386.72,-47.71 347.75,-27.62 341.61,-24.46 334.93,-21.85 328.12,-19.7"/>
<polygon fill="#63b8ff" stroke="#63b8ff" points="438.88,-110.03 447.97,-115.48 444.26,-105.55 438.88,-110.03"/>
</a>
</g>
</g>
<!-- Node4 -->
<g id="Node000004" class="node">
<title>Node4</title>
<g id="a_Node000004"><a xlink:href="class_comm_interface__modbus_r_t_u.html#a0e78a2a6e3b5b029609c2b16c21bd85b" target="_top" xlink:title="Override of CommInterface send&#45;function. Send the frame, sendBuffer is pointing to by writing and flu...">
<polygon fill="white" stroke="#666666" points="144.25,-239.88 0,-239.88 0,-209.38 144.25,-209.38 144.25,-239.88"/>
<text text-anchor="start" x="8" y="-226.38" font-family="Helvetica,sans-Serif" font-size="10.00">CommInterface_modbusRTU</text>
<text text-anchor="middle" x="72.12" y="-215.12" font-family="Helvetica,sans-Serif" font-size="10.00">::send</text>
</a>
</g>
</g>
<!-- Node3&#45;&gt;Node4 -->
<g id="edge3_Node000003_Node000004" class="edge">
<title>Node3&#45;&gt;Node4</title>
<g id="a_edge3_Node000003_Node000004"><a xlink:title=" ">
<path fill="none" stroke="#63b8ff" d="M187.76,-224.62C173.58,-224.62 158.78,-224.62 144.7,-224.62"/>
<polygon fill="#63b8ff" stroke="#63b8ff" points="187.47,-228.13 197.47,-224.63 187.47,-221.13 187.47,-228.13"/>
</a>
</g>
</g>
<!-- Node7 -->
<g id="Node000007" class="node">
<title>Node7</title>
<g id="a_Node000007"><a xlink:href="class_comm_interface__modbus_r_t_u.html#a50b42ad0a40a82ebe5a7749313ca2283" target="_top" xlink:title="Receives a Modbus RTU frame and writes it to receiveBuffer.">
<polygon fill="white" stroke="#666666" points="144.25,-141.88 0,-141.88 0,-111.38 144.25,-111.38 144.25,-141.88"/>
<text text-anchor="start" x="8" y="-128.38" font-family="Helvetica,sans-Serif" font-size="10.00">CommInterface_modbusRTU</text>
<text text-anchor="middle" x="72.12" y="-117.12" font-family="Helvetica,sans-Serif" font-size="10.00">::receive</text>
</a>
</g>
</g>
<!-- Node6&#45;&gt;Node7 -->
<g id="edge6_Node000006_Node000007" class="edge">
<title>Node6&#45;&gt;Node7</title>
<g id="a_edge6_Node000006_Node000007"><a xlink:title=" ">
<path fill="none" stroke="#63b8ff" d="M187.76,-126.62C173.58,-126.62 158.78,-126.62 144.7,-126.62"/>
<polygon fill="#63b8ff" stroke="#63b8ff" points="187.47,-130.13 197.47,-126.63 187.47,-123.13 187.47,-130.13"/>
</a>
</g>
</g>
</g>
</svg>
