<?xml version="1.0" encoding="UTF-8" standalone="no"?>
<!DOCTYPE svg PUBLIC "-//W3C//DTD SVG 1.1//EN"
 "http://www.w3.org/Graphics/SVG/1.1/DTD/svg11.dtd">
<!-- Generated by graphviz version 12.1.2 (20240928.0832)
 -->
<!-- Title: ServiceInterface&lt; CommInterfaceBase, frameType &gt; Pages: 1 -->
<svg width="515pt" height="171pt"
 viewBox="0.00 0.00 515.25 170.70" xmlns="http://www.w3.org/2000/svg" xmlns:xlink="http://www.w3.org/1999/xlink">
<g id="graph0" class="graph" transform="scale(1 1) rotate(0) translate(4 166.7)">
<title>ServiceInterface&lt; CommInterfaceBase, frameType &gt;</title>
<!-- Node1 -->
<g id="Node000001" class="node">
<title>Node1</title>
<g id="a_Node000001"><a xlink:title="Template for generic Service&#45;Interface Defines the handling of incoming frames from CommInterface to ...">
<polygon fill="#999999" stroke="#666666" points="507.25,-116.88 343.5,-116.88 343.5,-86.38 507.25,-86.38 507.25,-116.88"/>
<text text-anchor="start" x="351.5" y="-103.38" font-family="Helvetica,sans-Serif" font-size="10.00">ServiceInterface&lt; CommInterface</text>
<text text-anchor="middle" x="425.38" y="-92.12" font-family="Helvetica,sans-Serif" font-size="10.00">Base, frameType &gt;</text>
</a>
</g>
</g>
<!-- Node2 -->
<g id="Node000002" class="node">
<title>Node2</title>
<g id="a_Node000002"><a xlink:href="class_error_state.html" target="_top" xlink:title="A class to manage and track error states using error codes.">
<polygon fill="white" stroke="#666666" points="60.25,-145.25 0,-145.25 0,-126 60.25,-126 60.25,-145.25"/>
<text text-anchor="middle" x="30.12" y="-131.75" font-family="Helvetica,sans-Serif" font-size="10.00">ErrorState</text>
</a>
</g>
</g>
<!-- Node2&#45;&gt;Node1 -->
<g id="edge1_Node000001_Node000002" class="edge">
<title>Node2&#45;&gt;Node1</title>
<g id="a_edge1_Node000001_Node000002"><a xlink:title=" ">
<path fill="none" stroke="#63b8ff" d="M69.9,-148.87C78.78,-151.32 88.25,-153.46 97.25,-154.62 198.1,-167.67 227.39,-165.39 325.5,-138.62 346.37,-132.93 369,-124.63 387.35,-117.33"/>
<polygon fill="#63b8ff" stroke="#63b8ff" points="71.08,-145.57 60.5,-146.1 69.1,-152.29 71.08,-145.57"/>
</a>
</g>
</g>
<!-- Node3 -->
<g id="Node000003" class="node">
<title>Node3</title>
<g id="a_Node000003"><a xlink:href="class_comm_interface_base.html" target="_top" xlink:title="Communcation&#45;Interface&#45;Base&#45;Class of the CommInterface template specifies a standardized interface to...">
<polygon fill="white" stroke="#666666" points="219,-145.25 113,-145.25 113,-126 219,-126 219,-145.25"/>
<text text-anchor="middle" x="166" y="-131.75" font-family="Helvetica,sans-Serif" font-size="10.00">CommInterfaceBase</text>
</a>
</g>
</g>
<!-- Node2&#45;&gt;Node3 -->
<g id="edge3_Node000003_Node000002" class="edge">
<title>Node2&#45;&gt;Node3</title>
<g id="a_edge3_Node000003_Node000002"><a xlink:title=" ">
<path fill="none" stroke="#63b8ff" d="M71.84,-135.62C84.74,-135.62 99.18,-135.62 112.76,-135.62"/>
<polygon fill="#63b8ff" stroke="#63b8ff" points="72.02,-132.13 62.02,-135.63 72.02,-139.13 72.02,-132.13"/>
</a>
</g>
</g>
<!-- Node4 -->
<g id="Node000004" class="node">
<title>Node4</title>
<g id="a_Node000004"><a xlink:href="class_service_cluster_base.html" target="_top" xlink:title="ServiceCluster&#45;base&#45;class to add class&#45;functions to vtable.">
<polygon fill="white" stroke="#666666" points="217.5,-108.25 114.5,-108.25 114.5,-89 217.5,-89 217.5,-108.25"/>
<text text-anchor="middle" x="166" y="-94.75" font-family="Helvetica,sans-Serif" font-size="10.00">ServiceClusterBase</text>
</a>
</g>
</g>
<!-- Node2&#45;&gt;Node4 -->
<g id="edge5_Node000004_Node000002" class="edge">
<title>Node2&#45;&gt;Node4</title>
<g id="a_edge5_Node000004_Node000002"><a xlink:title=" ">
<path fill="none" stroke="#63b8ff" d="M71.54,-123.87C80.03,-121.44 88.92,-118.93 97.25,-116.62 106.75,-114 117.02,-111.23 126.63,-108.68"/>
<polygon fill="#63b8ff" stroke="#63b8ff" points="70.81,-120.44 62.17,-126.57 72.75,-127.17 70.81,-120.44"/>
</a>
</g>
</g>
<!-- Node3&#45;&gt;Node1 -->
<g id="edge2_Node000001_Node000003" class="edge">
<title>Node3&#45;&gt;Node1</title>
<g id="a_edge2_Node000001_Node000003"><a xlink:title=" ">
<path fill="none" stroke="#9a32cd" stroke-dasharray="5,2" d="M230.59,-127.22C264.58,-122.73 306.81,-117.16 343.16,-112.35"/>
<polygon fill="#9a32cd" stroke="#9a32cd" points="230.35,-123.73 220.89,-128.51 231.27,-130.67 230.35,-123.73"/>
</a>
</g>
<text text-anchor="middle" x="289.12" y="-125.41" font-family="Helvetica,sans-Serif" font-size="10.00" fill="grey"> comm_interface</text>
</g>
<!-- Node4&#45;&gt;Node1 -->
<g id="edge4_Node000001_Node000004" class="edge">
<title>Node4&#45;&gt;Node1</title>
<g id="a_edge4_Node000001_Node000004"><a xlink:title=" ">
<path fill="none" stroke="#9a32cd" stroke-dasharray="5,2" d="M229.12,-99.35C263.38,-99.75 306.35,-100.25 343.24,-100.68"/>
<polygon fill="#9a32cd" stroke="#9a32cd" points="229.4,-95.85 219.36,-99.24 229.32,-102.85 229.4,-95.85"/>
</a>
</g>
<text text-anchor="middle" x="289.12" y="-102.14" font-family="Helvetica,sans-Serif" font-size="10.00" fill="grey"> services</text>
</g>
<!-- Node5 -->
<g id="Node000005" class="node">
<title>Node5</title>
<g id="a_Node000005"><a xlink:href="class_content__stack.html" target="_top" xlink:title=" ">
<polygon fill="white" stroke="#666666" points="234.75,-70.88 97.25,-70.88 97.25,-40.38 234.75,-40.38 234.75,-70.88"/>
<text text-anchor="start" x="105.25" y="-57.38" font-family="Helvetica,sans-Serif" font-size="10.00">Content_stack&lt; frameType,</text>
<text text-anchor="middle" x="166" y="-46.12" font-family="Helvetica,sans-Serif" font-size="10.00"> STACKSIZE &gt;</text>
</a>
</g>
</g>
<!-- Node5&#45;&gt;Node1 -->
<g id="edge6_Node000001_Node000005" class="edge">
<title>Node5&#45;&gt;Node1</title>
<g id="a_edge6_Node000001_Node000005"><a xlink:title=" ">
<path fill="none" stroke="#9a32cd" stroke-dasharray="5,2" d="M246,-61.67C271.51,-64.33 299.83,-68.05 325.5,-73.12 342.15,-76.42 360.06,-81.19 376,-85.89"/>
<polygon fill="#9a32cd" stroke="#9a32cd" points="246.68,-58.22 236.38,-60.7 245.98,-65.18 246.68,-58.22"/>
</a>
</g>
<text text-anchor="middle" x="289.12" y="-86.12" font-family="Helvetica,sans-Serif" font-size="10.00" fill="grey"> recStack</text>
<text text-anchor="middle" x="289.12" y="-74.88" font-family="Helvetica,sans-Serif" font-size="10.00" fill="grey">sendStack</text>
</g>
<!-- Node6 -->
<g id="Node000006" class="node">
<title>Node6</title>
<g id="a_Node000006"><a xlink:href="class_char_array.html" target="_top" xlink:title="Class for storing char&#45;array (byte&#45;array) together with size. The Array is stored on Heap&#45;memory and ...">
<polygon fill="white" stroke="#666666" points="196.12,-19.25 135.88,-19.25 135.88,0 196.12,0 196.12,-19.25"/>
<text text-anchor="middle" x="166" y="-5.75" font-family="Helvetica,sans-Serif" font-size="10.00">CharArray</text>
</a>
</g>
</g>
<!-- Node6&#45;&gt;Node1 -->
<g id="edge7_Node000001_Node000006" class="edge">
<title>Node6&#45;&gt;Node1</title>
<g id="a_edge7_Node000001_Node000006"><a xlink:title=" ">
<path fill="none" stroke="#9a32cd" stroke-dasharray="5,2" d="M208.01,-11.77C240.78,-14.59 287.36,-21.09 325.5,-36.12 356.15,-48.2 387.11,-70.77 406.02,-86"/>
<polygon fill="#9a32cd" stroke="#9a32cd" points="208.36,-8.29 198.12,-11.01 207.82,-15.27 208.36,-8.29"/>
</a>
</g>
<text text-anchor="middle" x="289.12" y="-49.12" font-family="Helvetica,sans-Serif" font-size="10.00" fill="grey"> recItem</text>
<text text-anchor="middle" x="289.12" y="-37.88" font-family="Helvetica,sans-Serif" font-size="10.00" fill="grey">sendItem</text>
</g>
</g>
</svg>
