<?xml version="1.0" encoding="UTF-8" standalone="no"?>
<!DOCTYPE svg PUBLIC "-//W3C//DTD SVG 1.1//EN"
 "http://www.w3.org/Graphics/SVG/1.1/DTD/svg11.dtd">
<!-- Generated by graphviz version 12.1.2 (20240928.0832)
 -->
<!-- Title: arduinoMocking::SoftwareSerial::peek Pages: 1 -->
<svg width="309pt" height="64pt"
 viewBox="0.00 0.00 308.50 64.25" xmlns="http://www.w3.org/2000/svg" xmlns:xlink="http://www.w3.org/1999/xlink">
<g id="graph0" class="graph" transform="scale(1 1) rotate(0) translate(4 60.25)">
<title>arduinoMocking::SoftwareSerial::peek</title>
<!-- Node1 -->
<g id="Node000001" class="node">
<title>Node1</title>
<g id="a_Node000001"><a xlink:title="Returns the next character in the queue without removing it.">
<polygon fill="#999999" stroke="#666666" points="129.25,-42.88 0,-42.88 0,-12.37 129.25,-12.37 129.25,-42.88"/>
<text text-anchor="start" x="8" y="-29.38" font-family="Helvetica,sans-Serif" font-size="10.00">arduinoMocking::Software</text>
<text text-anchor="middle" x="64.62" y="-18.12" font-family="Helvetica,sans-Serif" font-size="10.00">Serial::peek</text>
</a>
</g>
</g>
<!-- Node2 -->
<g id="Node000002" class="node">
<title>Node2</title>
<g id="a_Node000002"><a xlink:href="class_content__stack.html#a4710d468535ed030bf5f67052e68eebb" target="_top" xlink:title="Check if the Stack is empty (size is 0)">
<polygon fill="white" stroke="#666666" points="289.25,-56.25 176.5,-56.25 176.5,-37 289.25,-37 289.25,-56.25"/>
<text text-anchor="middle" x="232.88" y="-42.75" font-family="Helvetica,sans-Serif" font-size="10.00">Content_stack::empty</text>
</a>
</g>
</g>
<!-- Node1&#45;&gt;Node2 -->
<g id="edge1_Node000001_Node000002" class="edge">
<title>Node1&#45;&gt;Node2</title>
<g id="a_edge1_Node000001_Node000002"><a xlink:title=" ">
<path fill="none" stroke="#63b8ff" d="M129.43,-34.92C141.08,-36.25 153.28,-37.64 165.02,-38.98"/>
<polygon fill="#63b8ff" stroke="#63b8ff" points="164.28,-42.42 174.61,-40.08 165.07,-35.47 164.28,-42.42"/>
</a>
</g>
</g>
<!-- Node3 -->
<g id="Node000003" class="node">
<title>Node3</title>
<g id="a_Node000003"><a xlink:href="class_content__stack.html#a5ac2a896da7724281d9d85eb239f5084" target="_top" xlink:title="Get Pointer to element in the stack. Accepts positive and negative indexing.">
<polygon fill="white" stroke="#666666" points="300.5,-19.25 165.25,-19.25 165.25,0 300.5,0 300.5,-19.25"/>
<text text-anchor="middle" x="232.88" y="-5.75" font-family="Helvetica,sans-Serif" font-size="10.00">Content_stack::getElement</text>
</a>
</g>
</g>
<!-- Node1&#45;&gt;Node3 -->
<g id="edge2_Node000001_Node000003" class="edge">
<title>Node1&#45;&gt;Node3</title>
<g id="a_edge2_Node000001_Node000003"><a xlink:title=" ">
<path fill="none" stroke="#63b8ff" d="M129.43,-20.72C137.33,-19.86 145.48,-18.98 153.57,-18.1"/>
<polygon fill="#63b8ff" stroke="#63b8ff" points="153.87,-21.59 163.43,-17.04 153.11,-14.63 153.87,-21.59"/>
</a>
</g>
</g>
</g>
</svg>
