<?xml version="1.0" encoding="UTF-8" standalone="no"?>
<!DOCTYPE svg PUBLIC "-//W3C//DTD SVG 1.1//EN"
 "http://www.w3.org/Graphics/SVG/1.1/DTD/svg11.dtd">
<!-- Generated by graphviz version 12.1.2 (20240928.0832)
 -->
<!-- Title: CommInterface_modbusRTU Pages: 1 -->
<svg width="173pt" height="193pt"
 viewBox="0.00 0.00 173.25 193.00" xmlns="http://www.w3.org/2000/svg" xmlns:xlink="http://www.w3.org/1999/xlink">
<g id="graph0" class="graph" transform="scale(1 1) rotate(0) translate(4 189)">
<title>CommInterface_modbusRTU</title>
<!-- Node1 -->
<g id="Node000001" class="node">
<title>Node1</title>
<g id="a_Node000001"><a xlink:title="The Modbus&#45;RTU CommInterface&#45;class specifies a communication interface with SoftwareSerial as interfa...">
<polygon fill="#999999" stroke="#666666" points="154.75,-19.25 10.5,-19.25 10.5,0 154.75,0 154.75,-19.25"/>
<text text-anchor="middle" x="82.62" y="-5.75" font-family="Helvetica,sans-Serif" font-size="10.00">CommInterface_modbusRTU</text>
</a>
</g>
</g>
<!-- Node2 -->
<g id="Node000002" class="node">
<title>Node2</title>
<g id="a_Node000002"><a xlink:href="class_comm_interface.html" target="_top" xlink:title=" ">
<polygon fill="white" stroke="#666666" points="165.25,-74.5 0,-74.5 0,-55.25 165.25,-55.25 165.25,-74.5"/>
<text text-anchor="middle" x="82.62" y="-61" font-family="Helvetica,sans-Serif" font-size="10.00">CommInterface&lt; SoftwareSerial &gt;</text>
</a>
</g>
</g>
<!-- Node2&#45;&gt;Node1 -->
<g id="edge1_Node000001_Node000002" class="edge">
<title>Node2&#45;&gt;Node1</title>
<g id="a_edge1_Node000001_Node000002"><a xlink:title=" ">
<path fill="none" stroke="#63b8ff" d="M82.62,-43.63C82.62,-35.34 82.62,-26.17 82.62,-19.61"/>
<polygon fill="#63b8ff" stroke="#63b8ff" points="79.13,-43.57 82.63,-53.57 86.13,-43.57 79.13,-43.57"/>
</a>
</g>
</g>
<!-- Node3 -->
<g id="Node000003" class="node">
<title>Node3</title>
<g id="a_Node000003"><a xlink:href="class_comm_interface_base.html" target="_top" xlink:title="Communcation&#45;Interface&#45;Base&#45;Class of the CommInterface template specifies a standardized interface to...">
<polygon fill="white" stroke="#666666" points="135.62,-129.75 29.62,-129.75 29.62,-110.5 135.62,-110.5 135.62,-129.75"/>
<text text-anchor="middle" x="82.62" y="-116.25" font-family="Helvetica,sans-Serif" font-size="10.00">CommInterfaceBase</text>
</a>
</g>
</g>
<!-- Node3&#45;&gt;Node2 -->
<g id="edge2_Node000002_Node000003" class="edge">
<title>Node3&#45;&gt;Node2</title>
<g id="a_edge2_Node000002_Node000003"><a xlink:title=" ">
<path fill="none" stroke="#63b8ff" d="M82.62,-98.88C82.62,-90.59 82.62,-81.42 82.62,-74.86"/>
<polygon fill="#63b8ff" stroke="#63b8ff" points="79.13,-98.82 82.63,-108.82 86.13,-98.82 79.13,-98.82"/>
</a>
</g>
</g>
<!-- Node4 -->
<g id="Node000004" class="node">
<title>Node4</title>
<g id="a_Node000004"><a xlink:href="class_error_state.html" target="_top" xlink:title="A class to manage and track error states using error codes.">
<polygon fill="white" stroke="#666666" points="112.75,-185 52.5,-185 52.5,-165.75 112.75,-165.75 112.75,-185"/>
<text text-anchor="middle" x="82.62" y="-171.5" font-family="Helvetica,sans-Serif" font-size="10.00">ErrorState</text>
</a>
</g>
</g>
<!-- Node4&#45;&gt;Node3 -->
<g id="edge3_Node000003_Node000004" class="edge">
<title>Node4&#45;&gt;Node3</title>
<g id="a_edge3_Node000003_Node000004"><a xlink:title=" ">
<path fill="none" stroke="#63b8ff" d="M82.62,-154.13C82.62,-145.84 82.62,-136.67 82.62,-130.11"/>
<polygon fill="#63b8ff" stroke="#63b8ff" points="79.13,-154.07 82.63,-164.07 86.13,-154.07 79.13,-154.07"/>
</a>
</g>
</g>
</g>
</svg>
