<?xml version="1.0" encoding="UTF-8" standalone="no"?>
<!DOCTYPE svg PUBLIC "-//W3C//DTD SVG 1.1//EN"
 "http://www.w3.org/Graphics/SVG/1.1/DTD/svg11.dtd">
<!-- Generated by graphviz version 12.1.2 (20240928.0832)
 -->
<!-- Title: ServiceInterface::raiseError Pages: 1 -->
<svg width="471pt" height="113pt"
 viewBox="0.00 0.00 470.75 112.88" xmlns="http://www.w3.org/2000/svg" xmlns:xlink="http://www.w3.org/1999/xlink">
<g id="graph0" class="graph" transform="scale(1 1) rotate(0) translate(4 108.88)">
<title>ServiceInterface::raiseError</title>
<!-- Node1 -->
<g id="Node000001" class="node">
<title>Node1</title>
<g id="a_Node000001"><a xlink:title="Check if an ErrorService is registered in the service cluster under the defined ERRORSERVICE_ID of th...">
<polygon fill="#999999" stroke="#666666" points="135.25,-56.25 0,-56.25 0,-37 135.25,-37 135.25,-56.25"/>
<text text-anchor="middle" x="67.62" y="-42.75" font-family="Helvetica,sans-Serif" font-size="10.00">ServiceInterface::raiseError</text>
</a>
</g>
</g>
<!-- Node2 -->
<g id="Node000002" class="node">
<title>Node2</title>
<g id="a_Node000002"><a xlink:href="class_service_cluster_base.html#ae025282a6ef15d01eaba440bdf73a750" target="_top" xlink:title="Get pointer to the service with the given service&#45;ID by iterating through the associated services and...">
<polygon fill="white" stroke="#666666" points="281.75,-104.88 178.75,-104.88 178.75,-74.38 281.75,-74.38 281.75,-104.88"/>
<text text-anchor="start" x="186.75" y="-91.38" font-family="Helvetica,sans-Serif" font-size="10.00">ServiceClusterBase</text>
<text text-anchor="middle" x="230.25" y="-80.12" font-family="Helvetica,sans-Serif" font-size="10.00">::getService_byID</text>
</a>
</g>
</g>
<!-- Node1&#45;&gt;Node2 -->
<g id="edge1_Node000001_Node000002" class="edge">
<title>Node1&#45;&gt;Node2</title>
<g id="a_edge1_Node000001_Node000002"><a xlink:title=" ">
<path fill="none" stroke="#63b8ff" d="M106.28,-56.71C124.52,-61.59 146.89,-67.58 167.52,-73.1"/>
<polygon fill="#63b8ff" stroke="#63b8ff" points="166.42,-76.43 176.99,-75.63 168.23,-69.67 166.42,-76.43"/>
</a>
</g>
</g>
<!-- Node3 -->
<g id="Node000003" class="node">
<title>Node3</title>
<g id="a_Node000003"><a xlink:href="class_error_service.html#a4db0ae1a3ca53fe1e6290b87390098ba" target="_top" xlink:title="Adds an Error&#45;object for the local Instance&#45;Id to the Error&#45;services rec&#45;stack.">
<polygon fill="white" stroke="#666666" points="289.25,-56.25 171.25,-56.25 171.25,-37 289.25,-37 289.25,-56.25"/>
<text text-anchor="middle" x="230.25" y="-42.75" font-family="Helvetica,sans-Serif" font-size="10.00">ErrorService::raiseError</text>
</a>
</g>
</g>
<!-- Node1&#45;&gt;Node3 -->
<g id="edge2_Node000001_Node000003" class="edge">
<title>Node1&#45;&gt;Node3</title>
<g id="a_edge2_Node000001_Node000003"><a xlink:title=" ">
<path fill="none" stroke="#63b8ff" d="M135.35,-46.62C143.38,-46.62 151.59,-46.62 159.65,-46.62"/>
<polygon fill="#63b8ff" stroke="#63b8ff" points="159.41,-50.13 169.41,-46.63 159.41,-43.13 159.41,-50.13"/>
</a>
</g>
</g>
<!-- Node5 -->
<g id="Node000005" class="node">
<title>Node5</title>
<g id="a_Node000005"><a xlink:href="class_error_state.html#ab996befaa1eb1089914ab0fbfecfcf39" target="_top" xlink:title="raises a new error by setting the given error&#45;code as errorState">
<polygon fill="white" stroke="#666666" points="284.38,-19.25 176.12,-19.25 176.12,0 284.38,0 284.38,-19.25"/>
<text text-anchor="middle" x="230.25" y="-5.75" font-family="Helvetica,sans-Serif" font-size="10.00">ErrorState::raiseError</text>
</a>
</g>
</g>
<!-- Node1&#45;&gt;Node5 -->
<g id="edge4_Node000001_Node000005" class="edge">
<title>Node1&#45;&gt;Node5</title>
<g id="a_edge4_Node000001_Node000005"><a xlink:title=" ">
<path fill="none" stroke="#63b8ff" d="M112.52,-36.51C131.64,-32.11 154.26,-26.9 174.47,-22.24"/>
<polygon fill="#63b8ff" stroke="#63b8ff" points="174.98,-25.72 183.94,-20.06 173.41,-18.9 174.98,-25.72"/>
</a>
</g>
</g>
<!-- Node4 -->
<g id="Node000004" class="node">
<title>Node4</title>
<g id="a_Node000004"><a xlink:href="class_content__stack.html#a3d5491c67763ef3c19780619d70cb59a" target="_top" xlink:title="Add item to stack.">
<polygon fill="white" stroke="#666666" points="462.75,-56.25 325.25,-56.25 325.25,-37 462.75,-37 462.75,-56.25"/>
<text text-anchor="middle" x="394" y="-42.75" font-family="Helvetica,sans-Serif" font-size="10.00">Content_stack::addElement</text>
</a>
</g>
</g>
<!-- Node3&#45;&gt;Node4 -->
<g id="edge3_Node000003_Node000004" class="edge">
<title>Node3&#45;&gt;Node4</title>
<g id="a_edge3_Node000003_Node000004"><a xlink:title=" ">
<path fill="none" stroke="#63b8ff" d="M289.65,-46.62C297.4,-46.62 305.44,-46.62 313.48,-46.62"/>
<polygon fill="#63b8ff" stroke="#63b8ff" points="313.27,-50.13 323.27,-46.63 313.27,-43.13 313.27,-50.13"/>
</a>
</g>
</g>
</g>
</svg>
