<?xml version="1.0" encoding="UTF-8" standalone="no"?>
<!DOCTYPE svg PUBLIC "-//W3C//DTD SVG 1.1//EN"
 "http://www.w3.org/Graphics/SVG/1.1/DTD/svg11.dtd">
<!-- Generated by graphviz version 12.1.2 (20240928.0832)
 -->
<!-- Title: Message Pages: 1 -->
<svg width="145pt" height="161pt"
 viewBox="0.00 0.00 144.75 161.25" xmlns="http://www.w3.org/2000/svg" xmlns:xlink="http://www.w3.org/1999/xlink">
<g id="graph0" class="graph" transform="scale(1 1) rotate(0) translate(4 157.25)">
<title>Message</title>
<!-- Node1 -->
<g id="Node000001" class="node">
<title>Node1</title>
<g id="a_Node000001"><a xlink:title="Represents a message with information for sender and receiver, and provides methods for converting be...">
<polygon fill="#999999" stroke="#666666" points="96.25,-19.25 40.5,-19.25 40.5,0 96.25,0 96.25,-19.25"/>
<text text-anchor="middle" x="68.38" y="-5.75" font-family="Helvetica,sans-Serif" font-size="10.00">Message</text>
</a>
</g>
</g>
<!-- Node2 -->
<g id="Node000002" class="node">
<title>Node2</title>
<g id="a_Node000002"><a xlink:href="class_content.html" target="_top" xlink:title=" ">
<polygon fill="white" stroke="#666666" points="136.75,-86.75 0,-86.75 0,-56.25 136.75,-56.25 136.75,-86.75"/>
<text text-anchor="start" x="8" y="-73.25" font-family="Helvetica,sans-Serif" font-size="10.00">Content&lt; Message_content</text>
<text text-anchor="middle" x="68.38" y="-62" font-family="Helvetica,sans-Serif" font-size="10.00">_t, String &gt;</text>
</a>
</g>
</g>
<!-- Node2&#45;&gt;Node1 -->
<g id="edge1_Node000001_Node000002" class="edge">
<title>Node2&#45;&gt;Node1</title>
<g id="a_edge1_Node000001_Node000002"><a xlink:title=" ">
<path fill="none" stroke="#63b8ff" d="M68.38,-44.77C68.38,-35.79 68.38,-26.29 68.38,-19.6"/>
<polygon fill="#63b8ff" stroke="#63b8ff" points="64.88,-44.49 68.38,-54.49 71.88,-44.49 64.88,-44.49"/>
</a>
</g>
</g>
<!-- Node3 -->
<g id="Node000003" class="node">
<title>Node3</title>
<g id="a_Node000003"><a xlink:href="struct_message__content__t.html" target="_top" xlink:title="Represents the content of a message with sender and receiver information.">
<polygon fill="white" stroke="#666666" points="119.12,-153.25 17.62,-153.25 17.62,-134 119.12,-134 119.12,-153.25"/>
<text text-anchor="middle" x="68.38" y="-139.75" font-family="Helvetica,sans-Serif" font-size="10.00">Message_content_t</text>
</a>
</g>
</g>
<!-- Node3&#45;&gt;Node2 -->
<g id="edge2_Node000002_Node000003" class="edge">
<title>Node3&#45;&gt;Node2</title>
<g id="a_edge2_Node000002_Node000003"><a xlink:title=" ">
<path fill="none" stroke="#9a32cd" stroke-dasharray="5,2" d="M68.38,-122.42C68.38,-111.16 68.38,-97.39 68.38,-87.17"/>
<polygon fill="#9a32cd" stroke="#9a32cd" points="64.88,-122.23 68.38,-132.23 71.88,-122.23 64.88,-122.23"/>
</a>
</g>
<text text-anchor="middle" x="86" y="-106.5" font-family="Helvetica,sans-Serif" font-size="10.00" fill="grey"> content</text>
</g>
</g>
</svg>
