<?xml version="1.0" encoding="UTF-8" standalone="no"?>
<!DOCTYPE svg PUBLIC "-//W3C//DTD SVG 1.1//EN"
 "http://www.w3.org/Graphics/SVG/1.1/DTD/svg11.dtd">
<!-- Generated by graphviz version 12.1.2 (20240928.0832)
 -->
<!-- Title: ErrorService Pages: 1 -->
<svg width="210pt" height="173pt"
 viewBox="0.00 0.00 209.75 172.50" xmlns="http://www.w3.org/2000/svg" xmlns:xlink="http://www.w3.org/1999/xlink">
<g id="graph0" class="graph" transform="scale(1 1) rotate(0) translate(4 168.5)">
<title>ErrorService</title>
<!-- Node1 -->
<g id="Node000001" class="node">
<title>Node1</title>
<g id="a_Node000001"><a xlink:title="Service class for handling Errors.">
<polygon fill="#999999" stroke="#666666" points="125.75,-19.25 55.75,-19.25 55.75,0 125.75,0 125.75,-19.25"/>
<text text-anchor="middle" x="90.75" y="-5.75" font-family="Helvetica,sans-Serif" font-size="10.00">ErrorService</text>
</a>
</g>
</g>
<!-- Node2 -->
<g id="Node000002" class="node">
<title>Node2</title>
<g id="a_Node000002"><a xlink:href="class_service.html" target="_top" xlink:title=" ">
<polygon fill="white" stroke="#666666" points="165.12,-75.5 16.38,-75.5 16.38,-56.25 165.12,-56.25 165.12,-75.5"/>
<text text-anchor="middle" x="90.75" y="-62" font-family="Helvetica,sans-Serif" font-size="10.00">Service&lt; Error, STACKSIZE &gt;</text>
</a>
</g>
</g>
<!-- Node2&#45;&gt;Node1 -->
<g id="edge1_Node000001_Node000002" class="edge">
<title>Node2&#45;&gt;Node1</title>
<g id="a_edge1_Node000001_Node000002"><a xlink:title=" ">
<path fill="none" stroke="#63b8ff" d="M90.75,-44.69C90.75,-35.98 90.75,-26.24 90.75,-19.42"/>
<polygon fill="#63b8ff" stroke="#63b8ff" points="87.25,-44.4 90.75,-54.4 94.25,-44.4 87.25,-44.4"/>
</a>
</g>
</g>
<!-- Node3 -->
<g id="Node000003" class="node">
<title>Node3</title>
<g id="a_Node000003"><a xlink:href="class_service_base.html" target="_top" xlink:title="Service&#45;base&#45;class to add class&#45;functions to vtable.">
<polygon fill="white" stroke="#666666" points="71.5,-158.88 0,-158.88 0,-139.62 71.5,-139.62 71.5,-158.88"/>
<text text-anchor="middle" x="35.75" y="-145.38" font-family="Helvetica,sans-Serif" font-size="10.00">ServiceBase</text>
</a>
</g>
</g>
<!-- Node3&#45;&gt;Node2 -->
<g id="edge2_Node000002_Node000003" class="edge">
<title>Node3&#45;&gt;Node2</title>
<g id="a_edge2_Node000002_Node000003"><a xlink:title=" ">
<path fill="none" stroke="#63b8ff" d="M48.2,-129.83C59.63,-112.92 76.07,-88.59 84.79,-75.69"/>
<polygon fill="#63b8ff" stroke="#63b8ff" points="45.39,-127.73 42.69,-137.98 51.19,-131.65 45.39,-127.73"/>
</a>
</g>
</g>
<!-- Node4 -->
<g id="Node000004" class="node">
<title>Node4</title>
<g id="a_Node000004"><a xlink:href="class_content__stack.html" target="_top" xlink:title=" ">
<polygon fill="white" stroke="#666666" points="201.75,-164.5 89.75,-164.5 89.75,-134 201.75,-134 201.75,-164.5"/>
<text text-anchor="start" x="97.75" y="-151" font-family="Helvetica,sans-Serif" font-size="10.00">Content_stack&lt; Error,</text>
<text text-anchor="middle" x="145.75" y="-139.75" font-family="Helvetica,sans-Serif" font-size="10.00"> stackSize &gt;</text>
</a>
</g>
</g>
<!-- Node4&#45;&gt;Node2 -->
<g id="edge3_Node000002_Node000004" class="edge">
<title>Node4&#45;&gt;Node2</title>
<g id="a_edge3_Node000002_Node000004"><a xlink:title=" ">
<path fill="none" stroke="#9a32cd" stroke-dasharray="5,2" d="M129.52,-124.23C118.5,-107.93 104.57,-87.32 96.76,-75.77"/>
<polygon fill="#9a32cd" stroke="#9a32cd" points="126.57,-126.12 135.07,-132.45 132.37,-122.2 126.57,-126.12"/>
</a>
</g>
<text text-anchor="middle" x="148.3" y="-106.5" font-family="Helvetica,sans-Serif" font-size="10.00" fill="grey"> rec_stack</text>
<text text-anchor="middle" x="148.3" y="-95.25" font-family="Helvetica,sans-Serif" font-size="10.00" fill="grey">send_stack</text>
</g>
</g>
</svg>
