<?xml version="1.0" encoding="UTF-8" standalone="no"?>
<!DOCTYPE svg PUBLIC "-//W3C//DTD SVG 1.1//EN"
 "http://www.w3.org/Graphics/SVG/1.1/DTD/svg11.dtd">
<!-- Generated by graphviz version 12.1.2 (20240928.0832)
 -->
<!-- Title: CommInterface_modbusRTU::send Pages: 1 -->
<svg width="502pt" height="236pt"
 viewBox="0.00 0.00 501.50 236.25" xmlns="http://www.w3.org/2000/svg" xmlns:xlink="http://www.w3.org/1999/xlink">
<g id="graph0" class="graph" transform="scale(1 1) rotate(0) translate(4 232.25)">
<title>CommInterface_modbusRTU::send</title>
<!-- Node1 -->
<g id="Node000001" class="node">
<title>Node1</title>
<g id="a_Node000001"><a xlink:title="Override of CommInterface send&#45;function. Send the frame, sendBuffer is pointing to by writing and flu...">
<polygon fill="#999999" stroke="#666666" points="144.25,-94.88 0,-94.88 0,-64.38 144.25,-64.38 144.25,-94.88"/>
<text text-anchor="start" x="8" y="-81.38" font-family="Helvetica,sans-Serif" font-size="10.00">CommInterface_modbusRTU</text>
<text text-anchor="middle" x="72.12" y="-70.12" font-family="Helvetica,sans-Serif" font-size="10.00">::send</text>
</a>
</g>
</g>
<!-- Node2 -->
<g id="Node000002" class="node">
<title>Node2</title>
<g id="a_Node000002"><a xlink:href="classarduino_mocking_1_1_software_serial.html#a5785050c0162a9c4285b822d1dd940a1" target="_top" xlink:title="Empties the internal queue and prints the flushed data to the console.">
<polygon fill="white" stroke="#666666" points="309.5,-157.88 180.25,-157.88 180.25,-127.38 309.5,-127.38 309.5,-157.88"/>
<text text-anchor="start" x="188.25" y="-144.38" font-family="Helvetica,sans-Serif" font-size="10.00">arduinoMocking::Software</text>
<text text-anchor="middle" x="244.88" y="-133.12" font-family="Helvetica,sans-Serif" font-size="10.00">Serial::flush</text>
</a>
</g>
</g>
<!-- Node1&#45;&gt;Node2 -->
<g id="edge1_Node000001_Node000002" class="edge">
<title>Node1&#45;&gt;Node2</title>
<g id="a_edge1_Node000001_Node000002"><a xlink:title=" ">
<path fill="none" stroke="#63b8ff" d="M115.77,-95.36C138.47,-103.74 166.6,-114.11 190.71,-123.01"/>
<polygon fill="#63b8ff" stroke="#63b8ff" points="189.46,-126.28 200.06,-126.46 191.89,-119.71 189.46,-126.28"/>
</a>
</g>
</g>
<!-- Node8 -->
<g id="Node000008" class="node">
<title>Node8</title>
<g id="a_Node000008"><a xlink:href="class_char_array.html#aca5000ba20e3e1a4b6efd128c8dd62dd" target="_top" xlink:title="Provides direct access to the internal char array.">
<polygon fill="white" stroke="#666666" points="295.25,-108.25 194.5,-108.25 194.5,-89 295.25,-89 295.25,-108.25"/>
<text text-anchor="middle" x="244.88" y="-94.75" font-family="Helvetica,sans-Serif" font-size="10.00">CharArray::getData</text>
</a>
</g>
</g>
<!-- Node1&#45;&gt;Node8 -->
<g id="edge7_Node000001_Node000008" class="edge">
<title>Node1&#45;&gt;Node8</title>
<g id="a_edge7_Node000001_Node000008"><a xlink:title=" ">
<path fill="none" stroke="#63b8ff" d="M144.55,-87.57C157.28,-88.99 170.44,-90.45 182.85,-91.83"/>
<polygon fill="#63b8ff" stroke="#63b8ff" points="182.18,-95.28 192.5,-92.91 182.95,-88.32 182.18,-95.28"/>
</a>
</g>
</g>
<!-- Node9 -->
<g id="Node000009" class="node">
<title>Node9</title>
<g id="a_Node000009"><a xlink:href="class_char_array.html#a384344479de289fff7c98966f0b079be" target="_top" xlink:title="Retrieves the size of the char array.">
<polygon fill="white" stroke="#666666" points="294.5,-71.25 195.25,-71.25 195.25,-52 294.5,-52 294.5,-71.25"/>
<text text-anchor="middle" x="244.88" y="-57.75" font-family="Helvetica,sans-Serif" font-size="10.00">CharArray::getSize</text>
</a>
</g>
</g>
<!-- Node1&#45;&gt;Node9 -->
<g id="edge8_Node000001_Node000009" class="edge">
<title>Node1&#45;&gt;Node9</title>
<g id="a_edge8_Node000001_Node000009"><a xlink:title=" ">
<path fill="none" stroke="#63b8ff" d="M144.55,-72.1C157.49,-70.73 170.88,-69.32 183.47,-67.99"/>
<polygon fill="#63b8ff" stroke="#63b8ff" points="183.69,-71.49 193.26,-66.96 182.95,-64.53 183.69,-71.49"/>
</a>
</g>
</g>
<!-- Node10 -->
<g id="Node000010" class="node">
<title>Node10</title>
<g id="a_Node000010"><a xlink:href="classarduino_mocking_1_1_software_serial.html#aaa6defec7b617c31998ba26a5a472458" target="_top" xlink:title="Writes data to the internal queue.">
<polygon fill="white" stroke="#666666" points="309.5,-30.88 180.25,-30.88 180.25,-0.37 309.5,-0.37 309.5,-30.88"/>
<text text-anchor="start" x="188.25" y="-17.38" font-family="Helvetica,sans-Serif" font-size="10.00">arduinoMocking::Software</text>
<text text-anchor="middle" x="244.88" y="-6.12" font-family="Helvetica,sans-Serif" font-size="10.00">Serial::write</text>
</a>
</g>
</g>
<!-- Node1&#45;&gt;Node10 -->
<g id="edge9_Node000001_Node000010" class="edge">
<title>Node1&#45;&gt;Node10</title>
<g id="a_edge9_Node000001_Node000010"><a xlink:title=" ">
<path fill="none" stroke="#63b8ff" d="M114.9,-63.97C137.94,-55.33 166.79,-44.52 191.35,-35.31"/>
<polygon fill="#63b8ff" stroke="#63b8ff" points="192.39,-38.66 200.53,-31.87 189.93,-32.11 192.39,-38.66"/>
</a>
</g>
</g>
<!-- Node3 -->
<g id="Node000003" class="node">
<title>Node3</title>
<g id="a_Node000003"><a xlink:href="class_content__stack.html#a7b2d11fd9ee9f45090a545031883edb6" target="_top" xlink:title="Delete item on index&#45;position from stack and shift all items with higher index, accepts only positive...">
<polygon fill="white" stroke="#666666" points="493.5,-228.25 345.5,-228.25 345.5,-209 493.5,-209 493.5,-228.25"/>
<text text-anchor="middle" x="419.5" y="-214.75" font-family="Helvetica,sans-Serif" font-size="10.00">Content_stack::deleteElement</text>
</a>
</g>
</g>
<!-- Node2&#45;&gt;Node3 -->
<g id="edge2_Node000002_Node000003" class="edge">
<title>Node2&#45;&gt;Node3</title>
<g id="a_edge2_Node000002_Node000003"><a xlink:title=" ">
<path fill="none" stroke="#63b8ff" d="M268.27,-158.17C287.86,-171.15 317.49,-189.29 345.5,-200.62 349.6,-202.29 353.9,-203.82 358.27,-205.24"/>
<polygon fill="#63b8ff" stroke="#63b8ff" points="357.16,-208.56 367.75,-208.08 359.17,-201.85 357.16,-208.56"/>
</a>
</g>
</g>
<!-- Node4 -->
<g id="Node000004" class="node">
<title>Node4</title>
<g id="a_Node000004"><a xlink:href="class_content__stack.html#a4710d468535ed030bf5f67052e68eebb" target="_top" xlink:title="Check if the Stack is empty (size is 0)">
<polygon fill="white" stroke="#666666" points="475.88,-191.25 363.12,-191.25 363.12,-172 475.88,-172 475.88,-191.25"/>
<text text-anchor="middle" x="419.5" y="-177.75" font-family="Helvetica,sans-Serif" font-size="10.00">Content_stack::empty</text>
</a>
</g>
</g>
<!-- Node2&#45;&gt;Node4 -->
<g id="edge3_Node000002_Node000004" class="edge">
<title>Node2&#45;&gt;Node4</title>
<g id="a_edge3_Node000002_Node000004"><a xlink:title=" ">
<path fill="none" stroke="#63b8ff" d="M309.66,-157.04C327.15,-160.99 345.97,-165.24 362.96,-169.08"/>
<polygon fill="#63b8ff" stroke="#63b8ff" points="361.82,-172.41 372.35,-171.2 363.37,-165.58 361.82,-172.41"/>
</a>
</g>
</g>
<!-- Node5 -->
<g id="Node000005" class="node">
<title>Node5</title>
<g id="a_Node000005"><a xlink:href="class_content__stack.html#a5ac2a896da7724281d9d85eb239f5084" target="_top" xlink:title="Get Pointer to element in the stack. Accepts positive and negative indexing.">
<polygon fill="white" stroke="#666666" points="487.12,-154.25 351.88,-154.25 351.88,-135 487.12,-135 487.12,-154.25"/>
<text text-anchor="middle" x="419.5" y="-140.75" font-family="Helvetica,sans-Serif" font-size="10.00">Content_stack::getElement</text>
</a>
</g>
</g>
<!-- Node2&#45;&gt;Node5 -->
<g id="edge4_Node000002_Node000005" class="edge">
<title>Node2&#45;&gt;Node5</title>
<g id="a_edge4_Node000002_Node000005"><a xlink:title=" ">
<path fill="none" stroke="#63b8ff" d="M309.66,-143.36C319.57,-143.48 329.91,-143.6 340.09,-143.72"/>
<polygon fill="#63b8ff" stroke="#63b8ff" points="339.95,-147.22 349.99,-143.83 340.03,-140.22 339.95,-147.22"/>
</a>
</g>
</g>
<!-- Node6 -->
<g id="Node000006" class="node">
<title>Node6</title>
<g id="a_Node000006"><a xlink:href="classarduino_mocking_1_1_mock_serial.html#a5574b127279fa6e099d1026d3a69a5d4" target="_top" xlink:title="Prints a string to the serial output.">
<polygon fill="white" stroke="#666666" points="489,-116.88 350,-116.88 350,-86.38 489,-86.38 489,-116.88"/>
<text text-anchor="start" x="358" y="-103.38" font-family="Helvetica,sans-Serif" font-size="10.00">arduinoMocking::MockSerial</text>
<text text-anchor="middle" x="419.5" y="-92.12" font-family="Helvetica,sans-Serif" font-size="10.00">::print</text>
</a>
</g>
</g>
<!-- Node2&#45;&gt;Node6 -->
<g id="edge5_Node000002_Node000006" class="edge">
<title>Node2&#45;&gt;Node6</title>
<g id="a_edge5_Node000002_Node000006"><a xlink:title=" ">
<path fill="none" stroke="#63b8ff" d="M309.66,-127.47C320,-125.02 330.8,-122.45 341.41,-119.93"/>
<polygon fill="#63b8ff" stroke="#63b8ff" points="341.98,-123.4 350.9,-117.68 340.36,-116.59 341.98,-123.4"/>
</a>
</g>
</g>
<!-- Node7 -->
<g id="Node000007" class="node">
<title>Node7</title>
<g id="a_Node000007"><a xlink:href="classarduino_mocking_1_1_mock_serial.html#a3ae50becfead299fa547d158a80544d4" target="_top" xlink:title="Prints a string followed by a newline to the serial output.">
<polygon fill="white" stroke="#666666" points="489,-67.88 350,-67.88 350,-37.38 489,-37.38 489,-67.88"/>
<text text-anchor="start" x="358" y="-54.38" font-family="Helvetica,sans-Serif" font-size="10.00">arduinoMocking::MockSerial</text>
<text text-anchor="middle" x="419.5" y="-43.12" font-family="Helvetica,sans-Serif" font-size="10.00">::println</text>
</a>
</g>
</g>
<!-- Node2&#45;&gt;Node7 -->
<g id="edge6_Node000002_Node000007" class="edge">
<title>Node2&#45;&gt;Node7</title>
<g id="a_edge6_Node000002_Node000007"><a xlink:title=" ">
<path fill="none" stroke="#63b8ff" d="M293.03,-127C298.79,-124.26 304.43,-121.14 309.5,-117.62 329.16,-104 325.55,-90.81 345.5,-77.62 347.76,-76.13 350.13,-74.71 352.56,-73.38"/>
<polygon fill="#63b8ff" stroke="#63b8ff" points="354.08,-76.53 361.5,-68.97 350.99,-70.25 354.08,-76.53"/>
</a>
</g>
</g>
<!-- Node11 -->
<g id="Node000011" class="node">
<title>Node11</title>
<g id="a_Node000011"><a xlink:href="class_content__stack.html#a3d5491c67763ef3c19780619d70cb59a" target="_top" xlink:title="Add item to stack.">
<polygon fill="white" stroke="#666666" points="488.25,-19.25 350.75,-19.25 350.75,0 488.25,0 488.25,-19.25"/>
<text text-anchor="middle" x="419.5" y="-5.75" font-family="Helvetica,sans-Serif" font-size="10.00">Content_stack::addElement</text>
</a>
</g>
</g>
<!-- Node10&#45;&gt;Node11 -->
<g id="edge10_Node000010_Node000011" class="edge">
<title>Node10&#45;&gt;Node11</title>
<g id="a_edge10_Node000010_Node000011"><a xlink:title=" ">
<path fill="none" stroke="#63b8ff" d="M309.66,-13.41C319.19,-13.08 329.11,-12.73 338.91,-12.39"/>
<polygon fill="#63b8ff" stroke="#63b8ff" points="338.95,-15.89 348.83,-12.05 338.71,-8.9 338.95,-15.89"/>
</a>
</g>
</g>
</g>
</svg>
