<?xml version="1.0" encoding="UTF-8" standalone="no"?>
<!DOCTYPE svg PUBLIC "-//W3C//DTD SVG 1.1//EN"
 "http://www.w3.org/Graphics/SVG/1.1/DTD/svg11.dtd">
<!-- Generated by graphviz version 12.1.2 (20240928.0832)
 -->
<!-- Title: Content_stack::deleteElement Pages: 1 -->
<svg width="540pt" height="334pt"
 viewBox="0.00 0.00 539.75 333.88" xmlns="http://www.w3.org/2000/svg" xmlns:xlink="http://www.w3.org/1999/xlink">
<g id="graph0" class="graph" transform="scale(1 1) rotate(0) translate(4 329.88)">
<title>Content_stack::deleteElement</title>
<!-- Node1 -->
<g id="Node000001" class="node">
<title>Node1</title>
<g id="a_Node000001"><a xlink:title="Delete item on index&#45;position from stack and shift all items with higher index, accepts only positive...">
<polygon fill="#999999" stroke="#666666" points="531.75,-160.25 383.75,-160.25 383.75,-141 531.75,-141 531.75,-160.25"/>
<text text-anchor="middle" x="457.75" y="-146.75" font-family="Helvetica,sans-Serif" font-size="10.00">Content_stack::deleteElement</text>
</a>
</g>
</g>
<!-- Node2 -->
<g id="Node000002" class="node">
<title>Node2</title>
<g id="a_Node000002"><a xlink:href="class_service_interface.html#a48cffd1603069be11ee25c930a139c84" target="_top" xlink:title="Add PDUs from all received frames to the corresponding services.">
<polygon fill="white" stroke="#666666" points="329.38,-325.88 198.62,-325.88 198.62,-295.38 329.38,-295.38 329.38,-325.88"/>
<text text-anchor="start" x="206.62" y="-312.38" font-family="Helvetica,sans-Serif" font-size="10.00">ServiceInterface::addPDU</text>
<text text-anchor="middle" x="264" y="-301.12" font-family="Helvetica,sans-Serif" font-size="10.00">_to_services</text>
</a>
</g>
</g>
<!-- Node1&#45;&gt;Node2 -->
<g id="edge1_Node000001_Node000002" class="edge">
<title>Node1&#45;&gt;Node2</title>
<g id="a_edge1_Node000001_Node000002"><a xlink:title=" ">
<path fill="none" stroke="#63b8ff" d="M446.11,-170.59C429.23,-200.34 393.49,-256.08 347.75,-286.62 342.15,-290.36 335.97,-293.53 329.57,-296.21"/>
<polygon fill="#63b8ff" stroke="#63b8ff" points="449.14,-172.34 450.91,-161.89 443.01,-168.96 449.14,-172.34"/>
</a>
</g>
</g>
<!-- Node3 -->
<g id="Node000003" class="node">
<title>Node3</title>
<g id="a_Node000003"><a xlink:href="class_service.html#a75817b19f202f1696c3609a3f9578cb9" target="_top" xlink:title="Clear the response&#45;buffer (delete item, that was returned by get_response from the service&#45;sendStack)">
<polygon fill="white" stroke="#666666" points="324.12,-277.25 203.88,-277.25 203.88,-258 324.12,-258 324.12,-277.25"/>
<text text-anchor="middle" x="264" y="-263.75" font-family="Helvetica,sans-Serif" font-size="10.00">Service::clearResponse</text>
</a>
</g>
</g>
<!-- Node1&#45;&gt;Node3 -->
<g id="edge2_Node000001_Node000003" class="edge">
<title>Node1&#45;&gt;Node3</title>
<g id="a_edge2_Node000001_Node000003"><a xlink:title=" ">
<path fill="none" stroke="#63b8ff" d="M441.62,-169.03C422.24,-191.36 386.48,-228.51 347.75,-248.62 340.42,-252.43 332.34,-255.48 324.19,-257.92"/>
<polygon fill="#63b8ff" stroke="#63b8ff" points="444.11,-171.51 447.91,-161.62 438.77,-166.98 444.11,-171.51"/>
</a>
</g>
</g>
<!-- Node4 -->
<g id="Node000004" class="node">
<title>Node4</title>
<g id="a_Node000004"><a xlink:href="classarduino_mocking_1_1_software_serial.html#a5785050c0162a9c4285b822d1dd940a1" target="_top" xlink:title="Empties the internal queue and prints the flushed data to the console.">
<polygon fill="white" stroke="#666666" points="328.62,-239.88 199.38,-239.88 199.38,-209.38 328.62,-209.38 328.62,-239.88"/>
<text text-anchor="start" x="207.38" y="-226.38" font-family="Helvetica,sans-Serif" font-size="10.00">arduinoMocking::Software</text>
<text text-anchor="middle" x="264" y="-215.12" font-family="Helvetica,sans-Serif" font-size="10.00">Serial::flush</text>
</a>
</g>
</g>
<!-- Node1&#45;&gt;Node4 -->
<g id="edge3_Node000001_Node000004" class="edge">
<title>Node1&#45;&gt;Node4</title>
<g id="a_edge3_Node000001_Node000004"><a xlink:title=" ">
<path fill="none" stroke="#63b8ff" d="M426.39,-165.55C404.76,-175.86 374.85,-189.49 347.75,-199.62 339.03,-202.88 329.69,-206.03 320.53,-208.93"/>
<polygon fill="#63b8ff" stroke="#63b8ff" points="427.73,-168.78 435.22,-161.29 424.7,-162.48 427.73,-168.78"/>
</a>
</g>
</g>
<!-- Node6 -->
<g id="Node000006" class="node">
<title>Node6</title>
<g id="a_Node000006"><a xlink:href="class_service_interface.html#a23feb243ed1748e04dd757aa5f788b3e" target="_top" xlink:title="Send all Frames, stored in the sendStack. As long as the sendStack is not empty, the function is gett...">
<polygon fill="white" stroke="#666666" points="327.88,-190.88 200.12,-190.88 200.12,-160.38 327.88,-160.38 327.88,-190.88"/>
<text text-anchor="start" x="208.12" y="-177.38" font-family="Helvetica,sans-Serif" font-size="10.00">ServiceInterface::process</text>
<text text-anchor="middle" x="264" y="-166.12" font-family="Helvetica,sans-Serif" font-size="10.00">SendStack</text>
</a>
</g>
</g>
<!-- Node1&#45;&gt;Node6 -->
<g id="edge5_Node000001_Node000006" class="edge">
<title>Node1&#45;&gt;Node6</title>
<g id="a_edge5_Node000001_Node000006"><a xlink:title=" ">
<path fill="none" stroke="#63b8ff" d="M372.24,-161.64C357.47,-163.57 342.33,-165.54 328.26,-167.38"/>
<polygon fill="#63b8ff" stroke="#63b8ff" points="372.47,-165.14 381.94,-160.38 371.57,-158.2 372.47,-165.14"/>
</a>
</g>
</g>
<!-- Node7 -->
<g id="Node000007" class="node">
<title>Node7</title>
<g id="a_Node000007"><a xlink:href="classarduino_mocking_1_1_software_serial.html#a892a38a5eb6b0c115c2745098c9637ad" target="_top" xlink:title="Reads a character from the internal queue.">
<polygon fill="white" stroke="#666666" points="328.62,-141.88 199.38,-141.88 199.38,-111.38 328.62,-111.38 328.62,-141.88"/>
<text text-anchor="start" x="207.38" y="-128.38" font-family="Helvetica,sans-Serif" font-size="10.00">arduinoMocking::Software</text>
<text text-anchor="middle" x="264" y="-117.12" font-family="Helvetica,sans-Serif" font-size="10.00">Serial::read</text>
</a>
</g>
</g>
<!-- Node1&#45;&gt;Node7 -->
<g id="edge6_Node000001_Node000007" class="edge">
<title>Node1&#45;&gt;Node7</title>
<g id="a_edge6_Node000001_Node000007"><a xlink:title=" ">
<path fill="none" stroke="#63b8ff" d="M372.37,-140.06C357.77,-138.24 342.82,-136.36 328.88,-134.62"/>
<polygon fill="#63b8ff" stroke="#63b8ff" points="371.58,-143.49 381.93,-141.26 372.45,-136.55 371.58,-143.49"/>
</a>
</g>
</g>
<!-- Node9 -->
<g id="Node000009" class="node">
<title>Node9</title>
<g id="a_Node000009"><a xlink:href="class_error_service.html#abdd6940a94fc8619c1ed31934b1cd3bd" target="_top" xlink:title="Processes all errors from the receive stack.">
<polygon fill="white" stroke="#666666" points="338.38,-93.25 189.62,-93.25 189.62,-74 338.38,-74 338.38,-93.25"/>
<text text-anchor="middle" x="264" y="-79.75" font-family="Helvetica,sans-Serif" font-size="10.00">ErrorService::stackProcessing</text>
</a>
</g>
</g>
<!-- Node1&#45;&gt;Node9 -->
<g id="edge8_Node000001_Node000009" class="edge">
<title>Node1&#45;&gt;Node9</title>
<g id="a_edge8_Node000001_Node000009"><a xlink:title=" ">
<path fill="none" stroke="#63b8ff" d="M426.95,-135.67C405.38,-125.3 375.28,-111.76 347.75,-102.62 337.54,-99.24 326.42,-96.24 315.74,-93.68"/>
<polygon fill="#63b8ff" stroke="#63b8ff" points="425.22,-138.72 435.75,-139.96 428.29,-132.43 425.22,-138.72"/>
</a>
</g>
</g>
<!-- Node10 -->
<g id="Node000010" class="node">
<title>Node10</title>
<g id="a_Node000010"><a xlink:href="class_message_service.html#ae02abdc8b83f6c62353dda1a42b2f1ff" target="_top" xlink:title="Processes all messages from the receive stack.">
<polygon fill="white" stroke="#666666" points="347.75,-56.25 180.25,-56.25 180.25,-37 347.75,-37 347.75,-56.25"/>
<text text-anchor="middle" x="264" y="-42.75" font-family="Helvetica,sans-Serif" font-size="10.00">MessageService::stackProcessing</text>
</a>
</g>
</g>
<!-- Node1&#45;&gt;Node10 -->
<g id="edge9_Node000001_Node000010" class="edge">
<title>Node1&#45;&gt;Node10</title>
<g id="a_edge9_Node000001_Node000010"><a xlink:title=" ">
<path fill="none" stroke="#63b8ff" d="M439.36,-132.68C419.18,-112.94 384.02,-81.75 347.75,-64.62 341.1,-61.49 333.89,-58.89 326.6,-56.74"/>
<polygon fill="#63b8ff" stroke="#63b8ff" points="436.67,-134.94 446.22,-139.54 441.62,-129.99 436.67,-134.94"/>
</a>
</g>
</g>
<!-- Node11 -->
<g id="Node000011" class="node">
<title>Node11</title>
<g id="a_Node000011"><a xlink:href="class_service.html#a3eafa52c7f4bfe29698ba4a91c75dc75" target="_top" xlink:title="Execute the service&#39;s functions for each item on the receive&#45;stack and add all response&#45;payloads to b...">
<polygon fill="white" stroke="#666666" points="327.88,-19.25 200.12,-19.25 200.12,0 327.88,0 327.88,-19.25"/>
<text text-anchor="middle" x="264" y="-5.75" font-family="Helvetica,sans-Serif" font-size="10.00">Service::stackProcessing</text>
</a>
</g>
</g>
<!-- Node1&#45;&gt;Node11 -->
<g id="edge10_Node000001_Node000011" class="edge">
<title>Node1&#45;&gt;Node11</title>
<g id="a_edge10_Node000001_Node000011"><a xlink:title=" ">
<path fill="none" stroke="#63b8ff" d="M445.12,-131.04C427.63,-103.41 391.87,-53.47 347.75,-27.62 341.66,-24.06 334.95,-21.2 328.05,-18.9"/>
<polygon fill="#63b8ff" stroke="#63b8ff" points="442.08,-132.78 450.3,-139.47 448.05,-129.12 442.08,-132.78"/>
</a>
</g>
</g>
<!-- Node5 -->
<g id="Node000005" class="node">
<title>Node5</title>
<g id="a_Node000005"><a xlink:href="class_comm_interface__modbus_r_t_u.html#a0e78a2a6e3b5b029609c2b16c21bd85b" target="_top" xlink:title="Override of CommInterface send&#45;function. Send the frame, sendBuffer is pointing to by writing and flu...">
<polygon fill="white" stroke="#666666" points="144.25,-239.88 0,-239.88 0,-209.38 144.25,-209.38 144.25,-239.88"/>
<text text-anchor="start" x="8" y="-226.38" font-family="Helvetica,sans-Serif" font-size="10.00">CommInterface_modbusRTU</text>
<text text-anchor="middle" x="72.12" y="-215.12" font-family="Helvetica,sans-Serif" font-size="10.00">::send</text>
</a>
</g>
</g>
<!-- Node4&#45;&gt;Node5 -->
<g id="edge4_Node000004_Node000005" class="edge">
<title>Node4&#45;&gt;Node5</title>
<g id="a_edge4_Node000004_Node000005"><a xlink:title=" ">
<path fill="none" stroke="#63b8ff" d="M187.76,-224.62C173.58,-224.62 158.78,-224.62 144.7,-224.62"/>
<polygon fill="#63b8ff" stroke="#63b8ff" points="187.47,-228.13 197.47,-224.63 187.47,-221.13 187.47,-228.13"/>
</a>
</g>
</g>
<!-- Node8 -->
<g id="Node000008" class="node">
<title>Node8</title>
<g id="a_Node000008"><a xlink:href="class_comm_interface__modbus_r_t_u.html#a50b42ad0a40a82ebe5a7749313ca2283" target="_top" xlink:title="Receives a Modbus RTU frame and writes it to receiveBuffer.">
<polygon fill="white" stroke="#666666" points="144.25,-141.88 0,-141.88 0,-111.38 144.25,-111.38 144.25,-141.88"/>
<text text-anchor="start" x="8" y="-128.38" font-family="Helvetica,sans-Serif" font-size="10.00">CommInterface_modbusRTU</text>
<text text-anchor="middle" x="72.12" y="-117.12" font-family="Helvetica,sans-Serif" font-size="10.00">::receive</text>
</a>
</g>
</g>
<!-- Node7&#45;&gt;Node8 -->
<g id="edge7_Node000007_Node000008" class="edge">
<title>Node7&#45;&gt;Node8</title>
<g id="a_edge7_Node000007_Node000008"><a xlink:title=" ">
<path fill="none" stroke="#63b8ff" d="M187.76,-126.62C173.58,-126.62 158.78,-126.62 144.7,-126.62"/>
<polygon fill="#63b8ff" stroke="#63b8ff" points="187.47,-130.13 197.47,-126.63 187.47,-123.13 187.47,-130.13"/>
</a>
</g>
</g>
</g>
</svg>
