<?xml version="1.0" encoding="UTF-8" standalone="no"?>
<!DOCTYPE svg PUBLIC "-//W3C//DTD SVG 1.1//EN"
 "http://www.w3.org/Graphics/SVG/1.1/DTD/svg11.dtd">
<!-- Generated by graphviz version 12.1.2 (20240928.0832)
 -->
<!-- Title: Content_stack::addElement Pages: 1 -->
<svg width="681pt" height="361pt"
 viewBox="0.00 0.00 681.00 360.88" xmlns="http://www.w3.org/2000/svg" xmlns:xlink="http://www.w3.org/1999/xlink">
<g id="graph0" class="graph" transform="scale(1 1) rotate(0) translate(4 356.88)">
<title>Content_stack::addElement</title>
<!-- Node1 -->
<g id="Node000001" class="node">
<title>Node1</title>
<g id="a_Node000001"><a xlink:title="Add item to stack.">
<polygon fill="#999999" stroke="#666666" points="673,-196.88 535.5,-196.88 535.5,-177.62 673,-177.62 673,-196.88"/>
<text text-anchor="middle" x="604.25" y="-183.38" font-family="Helvetica,sans-Serif" font-size="10.00">Content_stack::addElement</text>
</a>
</g>
</g>
<!-- Node2 -->
<g id="Node000002" class="node">
<title>Node2</title>
<g id="a_Node000002"><a xlink:href="class_service.html#ac0c60bc735c64547dee269c6c3a62767" target="_top" xlink:title="Add a new Content&#45;Object created from a received payload to the services receive&#45;Stack....">
<polygon fill="white" stroke="#666666" points="473.25,-352.88 370.25,-352.88 370.25,-333.62 473.25,-333.62 473.25,-352.88"/>
<text text-anchor="middle" x="421.75" y="-339.38" font-family="Helvetica,sans-Serif" font-size="10.00">Service::impart_pdu</text>
</a>
</g>
</g>
<!-- Node1&#45;&gt;Node2 -->
<g id="edge1_Node000001_Node000002" class="edge">
<title>Node1&#45;&gt;Node2</title>
<g id="a_edge1_Node000001_Node000002"><a xlink:title=" ">
<path fill="none" stroke="#63b8ff" d="M592.91,-206.94C576.77,-235.78 542.9,-289.31 499.5,-319.25 490.88,-325.2 480.72,-329.72 470.67,-333.14"/>
<polygon fill="#63b8ff" stroke="#63b8ff" points="595.78,-208.98 597.48,-198.53 589.63,-205.64 595.78,-208.98"/>
</a>
</g>
</g>
<!-- Node3 -->
<g id="Node000003" class="node">
<title>Node3</title>
<g id="a_Node000003"><a xlink:href="class_service_interface.html#a7c5ec5e13af8a67d1b08c963fcd71214" target="_top" xlink:title="Add items received by the CommInterface to the recStack and execute the CommInterface&#39;s receiveCycle ...">
<polygon fill="white" stroke="#666666" points="127.75,-320.5 0,-320.5 0,-290 127.75,-290 127.75,-320.5"/>
<text text-anchor="start" x="8" y="-307" font-family="Helvetica,sans-Serif" font-size="10.00">ServiceInterface::process</text>
<text text-anchor="middle" x="63.88" y="-295.75" font-family="Helvetica,sans-Serif" font-size="10.00">RecStack</text>
</a>
</g>
</g>
<!-- Node1&#45;&gt;Node3 -->
<g id="edge2_Node000001_Node000003" class="edge">
<title>Node1&#45;&gt;Node3</title>
<g id="a_edge2_Node000001_Node000003"><a xlink:title=" ">
<path fill="none" stroke="#63b8ff" d="M590.18,-206.29C572.67,-229.98 539.18,-269.34 499.5,-286.25 376.34,-338.73 215.37,-327.65 127.99,-315.86"/>
<polygon fill="#63b8ff" stroke="#63b8ff" points="592.82,-208.62 595.79,-198.45 587.12,-204.54 592.82,-208.62"/>
</a>
</g>
</g>
<!-- Node4 -->
<g id="Node000004" class="node">
<title>Node4</title>
<g id="a_Node000004"><a xlink:href="class_error_service.html#a4db0ae1a3ca53fe1e6290b87390098ba" target="_top" xlink:title="Adds an Error&#45;object for the local Instance&#45;Id to the Error&#45;services rec&#45;stack.">
<polygon fill="white" stroke="#666666" points="480.75,-276.88 362.75,-276.88 362.75,-257.62 480.75,-257.62 480.75,-276.88"/>
<text text-anchor="middle" x="421.75" y="-263.38" font-family="Helvetica,sans-Serif" font-size="10.00">ErrorService::raiseError</text>
</a>
</g>
</g>
<!-- Node1&#45;&gt;Node4 -->
<g id="edge3_Node000001_Node000004" class="edge">
<title>Node1&#45;&gt;Node4</title>
<g id="a_edge3_Node000001_Node000004"><a xlink:title=" ">
<path fill="none" stroke="#63b8ff" d="M580.2,-203.87C559.86,-217.82 528.95,-237.33 499.5,-249.25 491.89,-252.33 483.63,-254.96 475.44,-257.17"/>
<polygon fill="#63b8ff" stroke="#63b8ff" points="582.11,-206.8 588.3,-198.21 578.1,-201.07 582.11,-206.8"/>
</a>
</g>
</g>
<!-- Node7 -->
<g id="Node000007" class="node">
<title>Node7</title>
<g id="a_Node000007"><a xlink:href="class_message_service.html#ac8e64d87d453ae6a6631891bdce42bef" target="_top" xlink:title="Sends a new message.">
<polygon fill="white" stroke="#666666" points="499.5,-239.88 344,-239.88 344,-220.62 499.5,-220.62 499.5,-239.88"/>
<text text-anchor="middle" x="421.75" y="-226.38" font-family="Helvetica,sans-Serif" font-size="10.00">MessageService::sendMessage</text>
</a>
</g>
</g>
<!-- Node1&#45;&gt;Node7 -->
<g id="edge7_Node000001_Node000007" class="edge">
<title>Node1&#45;&gt;Node7</title>
<g id="a_edge7_Node000001_Node000007"><a xlink:title=" ">
<path fill="none" stroke="#63b8ff" d="M550.07,-199.92C522.98,-206.37 490.49,-214.11 465.12,-220.16"/>
<polygon fill="#63b8ff" stroke="#63b8ff" points="550.54,-203.4 559.46,-197.68 548.92,-196.6 550.54,-203.4"/>
</a>
</g>
</g>
<!-- Node8 -->
<g id="Node000008" class="node">
<title>Node8</title>
<g id="a_Node000008"><a xlink:href="classarduino_mocking_1_1_software_serial.html#af10cc233a2ac7f8a10f492af5b6b501b" target="_top" xlink:title="Simulates user input by adding characters to the internal queue.">
<polygon fill="white" stroke="#666666" points="486.38,-202.5 357.12,-202.5 357.12,-172 486.38,-172 486.38,-202.5"/>
<text text-anchor="start" x="365.12" y="-189" font-family="Helvetica,sans-Serif" font-size="10.00">arduinoMocking::Software</text>
<text text-anchor="middle" x="421.75" y="-177.75" font-family="Helvetica,sans-Serif" font-size="10.00">Serial::simulateInput</text>
</a>
</g>
</g>
<!-- Node1&#45;&gt;Node8 -->
<g id="edge8_Node000001_Node000008" class="edge">
<title>Node1&#45;&gt;Node8</title>
<g id="a_edge8_Node000001_Node000008"><a xlink:title=" ">
<path fill="none" stroke="#63b8ff" d="M523.72,-187.25C511.31,-187.25 498.62,-187.25 486.62,-187.25"/>
<polygon fill="#63b8ff" stroke="#63b8ff" points="523.5,-190.75 533.5,-187.25 523.5,-183.75 523.5,-190.75"/>
</a>
</g>
</g>
<!-- Node9 -->
<g id="Node000009" class="node">
<title>Node9</title>
<g id="a_Node000009"><a xlink:href="classarduino_mocking_1_1_software_serial.html#a3024f7685f0d7008557f0912f7baa1df" target="_top" xlink:title="Simulates user input by adding a predefined string to the internal queue.">
<polygon fill="white" stroke="#666666" points="486.38,-153.5 357.12,-153.5 357.12,-123 486.38,-123 486.38,-153.5"/>
<text text-anchor="start" x="365.12" y="-140" font-family="Helvetica,sans-Serif" font-size="10.00">arduinoMocking::Software</text>
<text text-anchor="middle" x="421.75" y="-128.75" font-family="Helvetica,sans-Serif" font-size="10.00">Serial::simulateInput</text>
</a>
</g>
</g>
<!-- Node1&#45;&gt;Node9 -->
<g id="edge9_Node000001_Node000009" class="edge">
<title>Node1&#45;&gt;Node9</title>
<g id="a_edge9_Node000001_Node000009"><a xlink:title=" ">
<path fill="none" stroke="#63b8ff" d="M555.43,-174.27C532.48,-168.04 504.77,-160.52 480.63,-153.96"/>
<polygon fill="#63b8ff" stroke="#63b8ff" points="554.26,-177.58 564.83,-176.82 556.09,-170.82 554.26,-177.58"/>
</a>
</g>
</g>
<!-- Node10 -->
<g id="Node000010" class="node">
<title>Node10</title>
<g id="a_Node000010"><a xlink:href="class_error_service.html#abdd6940a94fc8619c1ed31934b1cd3bd" target="_top" xlink:title="Processes all errors from the receive stack.">
<polygon fill="white" stroke="#666666" points="496.12,-104.88 347.38,-104.88 347.38,-85.62 496.12,-85.62 496.12,-104.88"/>
<text text-anchor="middle" x="421.75" y="-91.38" font-family="Helvetica,sans-Serif" font-size="10.00">ErrorService::stackProcessing</text>
</a>
</g>
</g>
<!-- Node1&#45;&gt;Node10 -->
<g id="edge10_Node000001_Node000010" class="edge">
<title>Node1&#45;&gt;Node10</title>
<g id="a_edge10_Node000001_Node000010"><a xlink:title=" ">
<path fill="none" stroke="#63b8ff" d="M583.24,-169.73C563.31,-153.15 531.19,-128.7 499.5,-114.25 491.76,-110.72 483.26,-107.78 474.83,-105.36"/>
<polygon fill="#63b8ff" stroke="#63b8ff" points="580.95,-172.38 590.84,-176.19 585.48,-167.05 580.95,-172.38"/>
</a>
</g>
</g>
<!-- Node11 -->
<g id="Node000011" class="node">
<title>Node11</title>
<g id="a_Node000011"><a xlink:href="class_service.html#a3eafa52c7f4bfe29698ba4a91c75dc75" target="_top" xlink:title="Execute the service&#39;s functions for each item on the receive&#45;stack and add all response&#45;payloads to b...">
<polygon fill="white" stroke="#666666" points="485.62,-67.88 357.88,-67.88 357.88,-48.62 485.62,-48.62 485.62,-67.88"/>
<text text-anchor="middle" x="421.75" y="-54.38" font-family="Helvetica,sans-Serif" font-size="10.00">Service::stackProcessing</text>
</a>
</g>
</g>
<!-- Node1&#45;&gt;Node11 -->
<g id="edge11_Node000001_Node000011" class="edge">
<title>Node1&#45;&gt;Node11</title>
<g id="a_edge11_Node000001_Node000011"><a xlink:title=" ">
<path fill="none" stroke="#63b8ff" d="M590.66,-167.89C573.26,-142.76 539.45,-99.38 499.5,-76.25 494.05,-73.1 488.08,-70.49 481.96,-68.35"/>
<polygon fill="#63b8ff" stroke="#63b8ff" points="587.75,-169.84 596.24,-176.18 593.56,-165.93 587.75,-169.84"/>
</a>
</g>
</g>
<!-- Node12 -->
<g id="Node000012" class="node">
<title>Node12</title>
<g id="a_Node000012"><a xlink:href="classarduino_mocking_1_1_software_serial.html#aaa6defec7b617c31998ba26a5a472458" target="_top" xlink:title="Writes data to the internal queue.">
<polygon fill="white" stroke="#666666" points="486.38,-30.5 357.12,-30.5 357.12,0 486.38,0 486.38,-30.5"/>
<text text-anchor="start" x="365.12" y="-17" font-family="Helvetica,sans-Serif" font-size="10.00">arduinoMocking::Software</text>
<text text-anchor="middle" x="421.75" y="-5.75" font-family="Helvetica,sans-Serif" font-size="10.00">Serial::write</text>
</a>
</g>
</g>
<!-- Node1&#45;&gt;Node12 -->
<g id="edge12_Node000001_Node000012" class="edge">
<title>Node1&#45;&gt;Node12</title>
<g id="a_edge12_Node000001_Node000012"><a xlink:title=" ">
<path fill="none" stroke="#63b8ff" d="M594.39,-166.99C579.45,-135.11 546.2,-73.39 499.5,-39.25 495.1,-36.04 490.27,-33.25 485.22,-30.82"/>
<polygon fill="#63b8ff" stroke="#63b8ff" points="591.12,-168.24 598.44,-175.89 597.49,-165.34 591.12,-168.24"/>
</a>
</g>
</g>
<!-- Node5 -->
<g id="Node000005" class="node">
<title>Node5</title>
<g id="a_Node000005"><a xlink:href="class_service_interface.html#a42226b8c236c344b6c5d171736a08f6e" target="_top" xlink:title="Check if an ErrorService is registered in the service cluster under the defined ERRORSERVICE_ID of th...">
<polygon fill="white" stroke="#666666" points="303.5,-276.88 168.25,-276.88 168.25,-257.62 303.5,-257.62 303.5,-276.88"/>
<text text-anchor="middle" x="235.88" y="-263.38" font-family="Helvetica,sans-Serif" font-size="10.00">ServiceInterface::raiseError</text>
</a>
</g>
</g>
<!-- Node4&#45;&gt;Node5 -->
<g id="edge4_Node000004_Node000005" class="edge">
<title>Node4&#45;&gt;Node5</title>
<g id="a_edge4_Node000004_Node000005"><a xlink:title=" ">
<path fill="none" stroke="#63b8ff" d="M351.2,-267.25C335.67,-267.25 319.23,-267.25 303.8,-267.25"/>
<polygon fill="#63b8ff" stroke="#63b8ff" points="350.8,-270.75 360.8,-267.25 350.8,-263.75 350.8,-270.75"/>
</a>
</g>
</g>
<!-- Node5&#45;&gt;Node3 -->
<g id="edge5_Node000005_Node000003" class="edge">
<title>Node5&#45;&gt;Node3</title>
<g id="a_edge5_Node000005_Node000003"><a xlink:title=" ">
<path fill="none" stroke="#63b8ff" d="M178.82,-279.78C162.59,-283.41 144.75,-287.39 128.12,-291.11"/>
<polygon fill="#63b8ff" stroke="#63b8ff" points="179.29,-283.26 188.29,-277.66 177.76,-276.43 179.29,-283.26"/>
</a>
</g>
</g>
<!-- Node6 -->
<g id="Node000006" class="node">
<title>Node6</title>
<g id="a_Node000006"><a xlink:href="class_service_interface.html#a23feb243ed1748e04dd757aa5f788b3e" target="_top" xlink:title="Send all Frames, stored in the sendStack. As long as the sendStack is not empty, the function is gett...">
<polygon fill="white" stroke="#666666" points="127.75,-271.5 0,-271.5 0,-241 127.75,-241 127.75,-271.5"/>
<text text-anchor="start" x="8" y="-258" font-family="Helvetica,sans-Serif" font-size="10.00">ServiceInterface::process</text>
<text text-anchor="middle" x="63.88" y="-246.75" font-family="Helvetica,sans-Serif" font-size="10.00">SendStack</text>
</a>
</g>
</g>
<!-- Node5&#45;&gt;Node6 -->
<g id="edge6_Node000005_Node000006" class="edge">
<title>Node5&#45;&gt;Node6</title>
<g id="a_edge6_Node000005_Node000006"><a xlink:title=" ">
<path fill="none" stroke="#63b8ff" d="M156.91,-262.21C147.25,-261.58 137.46,-260.95 128.05,-260.34"/>
<polygon fill="#63b8ff" stroke="#63b8ff" points="156.46,-265.68 166.66,-262.84 156.91,-258.7 156.46,-265.68"/>
</a>
</g>
</g>
<!-- Node13 -->
<g id="Node000013" class="node">
<title>Node13</title>
<g id="a_Node000013"><a xlink:href="class_comm_interface__modbus_r_t_u.html#a0e78a2a6e3b5b029609c2b16c21bd85b" target="_top" xlink:title="Override of CommInterface send&#45;function. Send the frame, sendBuffer is pointing to by writing and flu...">
<polygon fill="white" stroke="#666666" points="308,-30.5 163.75,-30.5 163.75,0 308,0 308,-30.5"/>
<text text-anchor="start" x="171.75" y="-17" font-family="Helvetica,sans-Serif" font-size="10.00">CommInterface_modbusRTU</text>
<text text-anchor="middle" x="235.88" y="-5.75" font-family="Helvetica,sans-Serif" font-size="10.00">::send</text>
</a>
</g>
</g>
<!-- Node12&#45;&gt;Node13 -->
<g id="edge13_Node000012_Node000013" class="edge">
<title>Node12&#45;&gt;Node13</title>
<g id="a_edge13_Node000012_Node000013"><a xlink:title=" ">
<path fill="none" stroke="#63b8ff" d="M345.52,-15.25C333.2,-15.25 320.46,-15.25 308.24,-15.25"/>
<polygon fill="#63b8ff" stroke="#63b8ff" points="345.18,-18.75 355.18,-15.25 345.18,-11.75 345.18,-18.75"/>
</a>
</g>
</g>
</g>
</svg>
