<?xml version="1.0" encoding="UTF-8" standalone="no"?>
<!DOCTYPE svg PUBLIC "-//W3C//DTD SVG 1.1//EN"
 "http://www.w3.org/Graphics/SVG/1.1/DTD/svg11.dtd">
<!-- Generated by graphviz version 12.1.2 (20240928.0832)
 -->
<!-- Title: CommInterface_modbusRTU Pages: 1 -->
<svg width="340pt" height="229pt"
 viewBox="0.00 0.00 340.12 228.75" xmlns="http://www.w3.org/2000/svg" xmlns:xlink="http://www.w3.org/1999/xlink">
<g id="graph0" class="graph" transform="scale(1 1) rotate(0) translate(4 224.75)">
<title>CommInterface_modbusRTU</title>
<!-- Node1 -->
<g id="Node000001" class="node">
<title>Node1</title>
<g id="a_Node000001"><a xlink:title="The Modbus&#45;RTU CommInterface&#45;class specifies a communication interface with SoftwareSerial as interfa...">
<polygon fill="#999999" stroke="#666666" points="261.12,-19.25 116.88,-19.25 116.88,0 261.12,0 261.12,-19.25"/>
<text text-anchor="middle" x="189" y="-5.75" font-family="Helvetica,sans-Serif" font-size="10.00">CommInterface_modbusRTU</text>
</a>
</g>
</g>
<!-- Node2 -->
<g id="Node000002" class="node">
<title>Node2</title>
<g id="a_Node000002"><a xlink:href="class_comm_interface.html" target="_top" xlink:title=" ">
<polygon fill="white" stroke="#666666" points="271.62,-75.5 106.38,-75.5 106.38,-56.25 271.62,-56.25 271.62,-75.5"/>
<text text-anchor="middle" x="189" y="-62" font-family="Helvetica,sans-Serif" font-size="10.00">CommInterface&lt; SoftwareSerial &gt;</text>
</a>
</g>
</g>
<!-- Node2&#45;&gt;Node1 -->
<g id="edge1_Node000001_Node000002" class="edge">
<title>Node2&#45;&gt;Node1</title>
<g id="a_edge1_Node000001_Node000002"><a xlink:title=" ">
<path fill="none" stroke="#63b8ff" d="M189,-44.69C189,-35.98 189,-26.24 189,-19.42"/>
<polygon fill="#63b8ff" stroke="#63b8ff" points="185.5,-44.4 189,-54.4 192.5,-44.4 185.5,-44.4"/>
</a>
</g>
</g>
<!-- Node3 -->
<g id="Node000003" class="node">
<title>Node3</title>
<g id="a_Node000003"><a xlink:href="class_comm_interface_base.html" target="_top" xlink:title="Communcation&#45;Interface&#45;Base&#45;Class of the CommInterface template specifies a standardized interface to...">
<polygon fill="white" stroke="#666666" points="106,-158.88 0,-158.88 0,-139.62 106,-139.62 106,-158.88"/>
<text text-anchor="middle" x="53" y="-145.38" font-family="Helvetica,sans-Serif" font-size="10.00">CommInterfaceBase</text>
</a>
</g>
</g>
<!-- Node3&#45;&gt;Node2 -->
<g id="edge2_Node000002_Node000003" class="edge">
<title>Node3&#45;&gt;Node2</title>
<g id="a_edge2_Node000002_Node000003"><a xlink:title=" ">
<path fill="none" stroke="#63b8ff" d="M77.93,-133.33C105.98,-116.55 150.64,-89.83 173.86,-75.93"/>
<polygon fill="#63b8ff" stroke="#63b8ff" points="76.16,-130.32 69.37,-138.45 79.75,-136.32 76.16,-130.32"/>
</a>
</g>
</g>
<!-- Node4 -->
<g id="Node000004" class="node">
<title>Node4</title>
<g id="a_Node000004"><a xlink:href="class_error_state.html" target="_top" xlink:title="A class to manage and track error states using error codes.">
<polygon fill="white" stroke="#666666" points="83.12,-220.75 22.88,-220.75 22.88,-201.5 83.12,-201.5 83.12,-220.75"/>
<text text-anchor="middle" x="53" y="-207.25" font-family="Helvetica,sans-Serif" font-size="10.00">ErrorState</text>
</a>
</g>
</g>
<!-- Node4&#45;&gt;Node3 -->
<g id="edge3_Node000003_Node000004" class="edge">
<title>Node4&#45;&gt;Node3</title>
<g id="a_edge3_Node000003_Node000004"><a xlink:title=" ">
<path fill="none" stroke="#63b8ff" d="M53,-189.55C53,-179.13 53,-167.03 53,-159.04"/>
<polygon fill="#63b8ff" stroke="#63b8ff" points="49.5,-189.52 53,-199.52 56.5,-189.52 49.5,-189.52"/>
</a>
</g>
</g>
<!-- Node5 -->
<g id="Node000005" class="node">
<title>Node5</title>
<g id="a_Node000005"><a xlink:href="classarduino_mocking_1_1_software_serial.html" target="_top" xlink:title="Mock class to simulate the SoftwareSerial library for native builds.">
<polygon fill="white" stroke="#666666" points="253.62,-164.5 124.38,-164.5 124.38,-134 253.62,-134 253.62,-164.5"/>
<text text-anchor="start" x="132.38" y="-151" font-family="Helvetica,sans-Serif" font-size="10.00">arduinoMocking::Software</text>
<text text-anchor="middle" x="189" y="-139.75" font-family="Helvetica,sans-Serif" font-size="10.00">Serial</text>
</a>
</g>
</g>
<!-- Node5&#45;&gt;Node2 -->
<g id="edge4_Node000002_Node000005" class="edge">
<title>Node5&#45;&gt;Node2</title>
<g id="a_edge4_Node000002_Node000005"><a xlink:title=" ">
<path fill="none" stroke="#9a32cd" stroke-dasharray="5,2" d="M189,-122.37C189,-106.39 189,-86.88 189,-75.77"/>
<polygon fill="#9a32cd" stroke="#9a32cd" points="185.5,-122.19 189,-132.19 192.5,-122.19 185.5,-122.19"/>
</a>
</g>
<text text-anchor="middle" x="209.25" y="-100.88" font-family="Helvetica,sans-Serif" font-size="10.00" fill="grey"> interface</text>
</g>
<!-- Node6 -->
<g id="Node000006" class="node">
<title>Node6</title>
<g id="a_Node000006"><a xlink:href="class_char_array.html" target="_top" xlink:title="Class for storing char&#45;array (byte&#45;array) together with size. The Array is stored on Heap&#45;memory and ...">
<polygon fill="white" stroke="#666666" points="332.12,-158.88 271.88,-158.88 271.88,-139.62 332.12,-139.62 332.12,-158.88"/>
<text text-anchor="middle" x="302" y="-145.38" font-family="Helvetica,sans-Serif" font-size="10.00">CharArray</text>
</a>
</g>
</g>
<!-- Node6&#45;&gt;Node2 -->
<g id="edge5_Node000002_Node000006" class="edge">
<title>Node6&#45;&gt;Node2</title>
<g id="a_edge5_Node000002_Node000006"><a xlink:title=" ">
<path fill="none" stroke="#9a32cd" stroke-dasharray="5,2" d="M283.05,-131.77C269.72,-120.48 251.24,-105.45 234,-93.5 224.9,-87.19 214.25,-80.85 205.6,-75.94"/>
<polygon fill="#9a32cd" stroke="#9a32cd" points="280.74,-134.4 290.61,-138.25 285.29,-129.08 280.74,-134.4"/>
</a>
</g>
<text text-anchor="middle" x="293.13" y="-106.5" font-family="Helvetica,sans-Serif" font-size="10.00" fill="grey"> receiveBuffer</text>
<text text-anchor="middle" x="293.13" y="-95.25" font-family="Helvetica,sans-Serif" font-size="10.00" fill="grey">sendBuffer</text>
</g>
</g>
</svg>
