<?xml version="1.0" encoding="UTF-8" standalone="no"?>
<!DOCTYPE svg PUBLIC "-//W3C//DTD SVG 1.1//EN"
 "http://www.w3.org/Graphics/SVG/1.1/DTD/svg11.dtd">
<!-- Generated by graphviz version 12.1.2 (20240928.0832)
 -->
<!-- Title: Service::get_response Pages: 1 -->
<svg width="293pt" height="64pt"
 viewBox="0.00 0.00 292.75 64.25" xmlns="http://www.w3.org/2000/svg" xmlns:xlink="http://www.w3.org/1999/xlink">
<g id="graph0" class="graph" transform="scale(1 1) rotate(0) translate(4 60.25)">
<title>Service::get_response</title>
<!-- Node1 -->
<g id="Node000001" class="node">
<title>Node1</title>
<g id="a_Node000001"><a xlink:title="Get the get the response&#45;payload, stored at the response_pdu of the service instance">
<polygon fill="#999999" stroke="#666666" points="113.5,-37.25 0,-37.25 0,-18 113.5,-18 113.5,-37.25"/>
<text text-anchor="middle" x="56.75" y="-23.75" font-family="Helvetica,sans-Serif" font-size="10.00">Service::get_response</text>
</a>
</g>
</g>
<!-- Node2 -->
<g id="Node000002" class="node">
<title>Node2</title>
<g id="a_Node000002"><a xlink:href="class_content__stack.html#a4710d468535ed030bf5f67052e68eebb" target="_top" xlink:title="Check if the Stack is empty (size is 0)">
<polygon fill="white" stroke="#666666" points="273.5,-56.25 160.75,-56.25 160.75,-37 273.5,-37 273.5,-56.25"/>
<text text-anchor="middle" x="217.12" y="-42.75" font-family="Helvetica,sans-Serif" font-size="10.00">Content_stack::empty</text>
</a>
</g>
</g>
<!-- Node1&#45;&gt;Node2 -->
<g id="edge1_Node000001_Node000002" class="edge">
<title>Node1&#45;&gt;Node2</title>
<g id="a_edge1_Node000001_Node000002"><a xlink:title=" ">
<path fill="none" stroke="#63b8ff" d="M113.59,-34.32C125.06,-35.7 137.25,-37.16 149.07,-38.58"/>
<polygon fill="#63b8ff" stroke="#63b8ff" points="148.41,-42.03 158.76,-39.74 149.24,-35.08 148.41,-42.03"/>
</a>
</g>
</g>
<!-- Node3 -->
<g id="Node000003" class="node">
<title>Node3</title>
<g id="a_Node000003"><a xlink:href="class_content__stack.html#a5ac2a896da7724281d9d85eb239f5084" target="_top" xlink:title="Get Pointer to element in the stack. Accepts positive and negative indexing.">
<polygon fill="white" stroke="#666666" points="284.75,-19.25 149.5,-19.25 149.5,0 284.75,0 284.75,-19.25"/>
<text text-anchor="middle" x="217.12" y="-5.75" font-family="Helvetica,sans-Serif" font-size="10.00">Content_stack::getElement</text>
</a>
</g>
</g>
<!-- Node1&#45;&gt;Node3 -->
<g id="edge2_Node000001_Node000003" class="edge">
<title>Node1&#45;&gt;Node3</title>
<g id="a_edge2_Node000001_Node000003"><a xlink:title=" ">
<path fill="none" stroke="#63b8ff" d="M113.59,-21.28C121.49,-20.38 129.72,-19.44 137.95,-18.51"/>
<polygon fill="#63b8ff" stroke="#63b8ff" points="138.08,-22.02 147.62,-17.41 137.29,-15.06 138.08,-22.02"/>
</a>
</g>
</g>
</g>
</svg>
