<?xml version="1.0" encoding="UTF-8" standalone="no"?>
<!DOCTYPE svg PUBLIC "-//W3C//DTD SVG 1.1//EN"
 "http://www.w3.org/Graphics/SVG/1.1/DTD/svg11.dtd">
<!-- Generated by graphviz version 12.1.2 (20240928.0832)
 -->
<!-- Title: ServiceInterface::processSendStack Pages: 1 -->
<svg width="647pt" height="396pt"
 viewBox="0.00 0.00 647.25 395.88" xmlns="http://www.w3.org/2000/svg" xmlns:xlink="http://www.w3.org/1999/xlink">
<g id="graph0" class="graph" transform="scale(1 1) rotate(0) translate(4 391.88)">
<title>ServiceInterface::processSendStack</title>
<!-- Node1 -->
<g id="Node000001" class="node">
<title>Node1</title>
<g id="a_Node000001"><a xlink:title="Send all Frames, stored in the sendStack. As long as the sendStack is not empty, the function is gett...">
<polygon fill="#999999" stroke="#666666" points="127.75,-214.5 0,-214.5 0,-184 127.75,-184 127.75,-214.5"/>
<text text-anchor="start" x="8" y="-201" font-family="Helvetica,sans-Serif" font-size="10.00">ServiceInterface::process</text>
<text text-anchor="middle" x="63.88" y="-189.75" font-family="Helvetica,sans-Serif" font-size="10.00">SendStack</text>
</a>
</g>
</g>
<!-- Node2 -->
<g id="Node000002" class="node">
<title>Node2</title>
<g id="a_Node000002"><a xlink:href="class_error_state.html#a2a2b91200168f27971ff6e63a8ab0e38" target="_top" xlink:title="sets the current error&#45;state to &quot;no Error&quot;">
<polygon fill="white" stroke="#666666" points="303.5,-387.88 172,-387.88 172,-368.62 303.5,-368.62 303.5,-387.88"/>
<text text-anchor="middle" x="237.75" y="-374.38" font-family="Helvetica,sans-Serif" font-size="10.00">ErrorState::clearErrorState</text>
</a>
</g>
</g>
<!-- Node1&#45;&gt;Node2 -->
<g id="edge1_Node000001_Node000002" class="edge">
<title>Node1&#45;&gt;Node2</title>
<g id="a_edge1_Node000001_Node000002"><a xlink:title=" ">
<path fill="none" stroke="#63b8ff" d="M69.9,-214.89C81.15,-247.34 111.57,-322.13 163.75,-360.25 165.1,-361.24 166.5,-362.17 167.94,-363.05"/>
<polygon fill="#63b8ff" stroke="#63b8ff" points="166.07,-366.03 176.57,-367.48 169.26,-359.8 166.07,-366.03"/>
</a>
</g>
</g>
<!-- Node3 -->
<g id="Node000003" class="node">
<title>Node3</title>
<g id="a_Node000003"><a xlink:href="class_content__stack.html#a7b2d11fd9ee9f45090a545031883edb6" target="_top" xlink:title="Delete item on index&#45;position from stack and shift all items with higher index, accepts only positive...">
<polygon fill="white" stroke="#666666" points="311.75,-350.88 163.75,-350.88 163.75,-331.62 311.75,-331.62 311.75,-350.88"/>
<text text-anchor="middle" x="237.75" y="-337.38" font-family="Helvetica,sans-Serif" font-size="10.00">Content_stack::deleteElement</text>
</a>
</g>
</g>
<!-- Node1&#45;&gt;Node3 -->
<g id="edge2_Node000001_Node000003" class="edge">
<title>Node1&#45;&gt;Node3</title>
<g id="a_edge2_Node000001_Node000003"><a xlink:title=" ">
<path fill="none" stroke="#63b8ff" d="M72.87,-214.94C87.27,-241.54 120.16,-295.33 163.75,-323.25 165.6,-324.44 167.53,-325.55 169.51,-326.58"/>
<polygon fill="#63b8ff" stroke="#63b8ff" points="167.86,-329.68 178.42,-330.56 170.72,-323.29 167.86,-329.68"/>
</a>
</g>
</g>
<!-- Node4 -->
<g id="Node000004" class="node">
<title>Node4</title>
<g id="a_Node000004"><a xlink:href="class_content__stack.html#a4710d468535ed030bf5f67052e68eebb" target="_top" xlink:title="Check if the Stack is empty (size is 0)">
<polygon fill="white" stroke="#666666" points="294.12,-313.88 181.38,-313.88 181.38,-294.62 294.12,-294.62 294.12,-313.88"/>
<text text-anchor="middle" x="237.75" y="-300.38" font-family="Helvetica,sans-Serif" font-size="10.00">Content_stack::empty</text>
</a>
</g>
</g>
<!-- Node1&#45;&gt;Node4 -->
<g id="edge3_Node000001_Node000004" class="edge">
<title>Node1&#45;&gt;Node4</title>
<g id="a_edge3_Node000001_Node000004"><a xlink:title=" ">
<path fill="none" stroke="#63b8ff" d="M78.34,-214.72C96.02,-234.07 128.94,-266.89 163.75,-285.25 167.38,-287.16 171.22,-288.9 175.15,-290.46"/>
<polygon fill="#63b8ff" stroke="#63b8ff" points="173.72,-293.66 184.31,-293.71 176.06,-287.06 173.72,-293.66"/>
</a>
</g>
</g>
<!-- Node5 -->
<g id="Node000005" class="node">
<title>Node5</title>
<g id="a_Node000005"><a xlink:href="class_comm_interface_base.html#ad0438ac0d164b6179f742dec21be715d" target="_top" xlink:title="Check, if the Frame was sent and the CommInterface is ready to send the next Frame.">
<polygon fill="white" stroke="#666666" points="293.75,-276.5 181.75,-276.5 181.75,-246 293.75,-246 293.75,-276.5"/>
<text text-anchor="start" x="189.75" y="-263" font-family="Helvetica,sans-Serif" font-size="10.00">CommInterfaceBase::</text>
<text text-anchor="middle" x="237.75" y="-251.75" font-family="Helvetica,sans-Serif" font-size="10.00">finishedSending</text>
</a>
</g>
</g>
<!-- Node1&#45;&gt;Node5 -->
<g id="edge4_Node000001_Node000005" class="edge">
<title>Node1&#45;&gt;Node5</title>
<g id="a_edge4_Node000001_Node000005"><a xlink:title=" ">
<path fill="none" stroke="#63b8ff" d="M104.16,-214.86C122.23,-221.91 144,-230.21 163.75,-237.25 168.13,-238.81 172.68,-240.39 177.26,-241.96"/>
<polygon fill="#63b8ff" stroke="#63b8ff" points="175.92,-245.2 186.51,-245.09 178.16,-238.57 175.92,-245.2"/>
</a>
</g>
</g>
<!-- Node6 -->
<g id="Node000006" class="node">
<title>Node6</title>
<g id="a_Node000006"><a xlink:href="class_content.html#a206c6c8ebf9f5f84c571d8d9dfbdd40c" target="_top" xlink:title="Get the address of the informations representation of type representation&#45;type.">
<polygon fill="white" stroke="#666666" points="306.12,-227.88 169.38,-227.88 169.38,-208.62 306.12,-208.62 306.12,-227.88"/>
<text text-anchor="middle" x="237.75" y="-214.38" font-family="Helvetica,sans-Serif" font-size="10.00">Content::get_representation</text>
</a>
</g>
</g>
<!-- Node1&#45;&gt;Node6 -->
<g id="edge5_Node000001_Node000006" class="edge">
<title>Node1&#45;&gt;Node6</title>
<g id="a_edge5_Node000001_Node000006"><a xlink:title=" ">
<path fill="none" stroke="#63b8ff" d="M127.9,-206.22C137.64,-207.29 147.81,-208.42 157.85,-209.53"/>
<polygon fill="#63b8ff" stroke="#63b8ff" points="157.28,-212.99 167.6,-210.61 158.05,-206.03 157.28,-212.99"/>
</a>
</g>
</g>
<!-- Node7 -->
<g id="Node000007" class="node">
<title>Node7</title>
<g id="a_Node000007"><a xlink:href="class_content__stack.html#a5ac2a896da7724281d9d85eb239f5084" target="_top" xlink:title="Get Pointer to element in the stack. Accepts positive and negative indexing.">
<polygon fill="white" stroke="#666666" points="305.38,-190.88 170.12,-190.88 170.12,-171.62 305.38,-171.62 305.38,-190.88"/>
<text text-anchor="middle" x="237.75" y="-177.38" font-family="Helvetica,sans-Serif" font-size="10.00">Content_stack::getElement</text>
</a>
</g>
</g>
<!-- Node1&#45;&gt;Node7 -->
<g id="edge6_Node000001_Node000007" class="edge">
<title>Node1&#45;&gt;Node7</title>
<g id="a_edge6_Node000001_Node000007"><a xlink:title=" ">
<path fill="none" stroke="#63b8ff" d="M127.9,-192.65C137.78,-191.61 148.1,-190.53 158.28,-189.47"/>
<polygon fill="#63b8ff" stroke="#63b8ff" points="158.6,-192.95 168.18,-188.43 157.87,-185.99 158.6,-192.95"/>
</a>
</g>
</g>
<!-- Node8 -->
<g id="Node000008" class="node">
<title>Node8</title>
<g id="a_Node000008"><a xlink:href="class_error_state.html#a55090bb1772cd8c20c936b5a9cf4f2ce" target="_top" xlink:title="Get the currently active error&#45;code.">
<polygon fill="white" stroke="#666666" points="299.75,-153.88 175.75,-153.88 175.75,-134.62 299.75,-134.62 299.75,-153.88"/>
<text text-anchor="middle" x="237.75" y="-140.38" font-family="Helvetica,sans-Serif" font-size="10.00">ErrorState::getErrorState</text>
</a>
</g>
</g>
<!-- Node1&#45;&gt;Node8 -->
<g id="edge7_Node000001_Node000008" class="edge">
<title>Node1&#45;&gt;Node8</title>
<g id="a_edge7_Node000001_Node000008"><a xlink:title=" ">
<path fill="none" stroke="#63b8ff" d="M103.49,-183.61C121.62,-176.58 143.61,-168.48 163.75,-162.25 169.52,-160.47 175.58,-158.74 181.65,-157.11"/>
<polygon fill="#63b8ff" stroke="#63b8ff" points="182.25,-160.57 191.05,-154.66 180.49,-153.79 182.25,-160.57"/>
</a>
</g>
</g>
<!-- Node9 -->
<g id="Node000009" class="node">
<title>Node9</title>
<g id="a_Node000009"><a xlink:href="classarduino_mocking_1_1_mock_serial.html#a3ae50becfead299fa547d158a80544d4" target="_top" xlink:title="Prints a string followed by a newline to the serial output.">
<polygon fill="white" stroke="#666666" points="307.25,-116.5 168.25,-116.5 168.25,-86 307.25,-86 307.25,-116.5"/>
<text text-anchor="start" x="176.25" y="-103" font-family="Helvetica,sans-Serif" font-size="10.00">arduinoMocking::MockSerial</text>
<text text-anchor="middle" x="237.75" y="-91.75" font-family="Helvetica,sans-Serif" font-size="10.00">::println</text>
</a>
</g>
</g>
<!-- Node1&#45;&gt;Node9 -->
<g id="edge8_Node000001_Node000009" class="edge">
<title>Node1&#45;&gt;Node9</title>
<g id="a_edge8_Node000001_Node000009"><a xlink:title=" ">
<path fill="none" stroke="#63b8ff" d="M81.92,-183.74C100.75,-167.29 132.56,-141.49 163.75,-125.25 166.43,-123.85 169.21,-122.52 172.05,-121.24"/>
<polygon fill="#63b8ff" stroke="#63b8ff" points="173.23,-124.54 181.11,-117.46 170.54,-118.08 173.23,-124.54"/>
</a>
</g>
</g>
<!-- Node10 -->
<g id="Node000010" class="node">
<title>Node10</title>
<g id="a_Node000010"><a xlink:href="class_service_interface.html#a42226b8c236c344b6c5d171736a08f6e" target="_top" xlink:title="Check if an ErrorService is registered in the service cluster under the defined ERRORSERVICE_ID of th...">
<polygon fill="white" stroke="#666666" points="305.38,-67.88 170.12,-67.88 170.12,-48.62 305.38,-48.62 305.38,-67.88"/>
<text text-anchor="middle" x="237.75" y="-54.38" font-family="Helvetica,sans-Serif" font-size="10.00">ServiceInterface::raiseError</text>
</a>
</g>
</g>
<!-- Node1&#45;&gt;Node10 -->
<g id="edge9_Node000001_Node000010" class="edge">
<title>Node1&#45;&gt;Node10</title>
<g id="a_edge9_Node000001_Node000010"><a xlink:title=" ">
<path fill="none" stroke="#63b8ff" d="M72.98,-183.87C87.53,-157.79 120.66,-105 163.75,-77.25 166.29,-75.61 168.97,-74.11 171.74,-72.74"/>
<polygon fill="#63b8ff" stroke="#63b8ff" points="172.87,-76.07 180.7,-68.93 170.13,-69.63 172.87,-76.07"/>
</a>
</g>
</g>
<!-- Node15 -->
<g id="Node000015" class="node">
<title>Node15</title>
<g id="a_Node000015"><a xlink:href="class_comm_interface_base.html#afb11f519c50f1e5a7ec22bd5f253a2ce" target="_top" xlink:title="Add a new Frame to the send&#45;buffer.">
<polygon fill="white" stroke="#666666" points="293.75,-30.5 181.75,-30.5 181.75,0 293.75,0 293.75,-30.5"/>
<text text-anchor="start" x="189.75" y="-17" font-family="Helvetica,sans-Serif" font-size="10.00">CommInterfaceBase::</text>
<text text-anchor="middle" x="237.75" y="-5.75" font-family="Helvetica,sans-Serif" font-size="10.00">sendNewFrame</text>
</a>
</g>
</g>
<!-- Node1&#45;&gt;Node15 -->
<g id="edge14_Node000001_Node000015" class="edge">
<title>Node1&#45;&gt;Node15</title>
<g id="a_edge14_Node000001_Node000015"><a xlink:title=" ">
<path fill="none" stroke="#63b8ff" d="M70.34,-183.53C82.23,-151.61 113.48,-78.87 163.75,-39.25 166.17,-37.34 168.75,-35.58 171.44,-33.96"/>
<polygon fill="#63b8ff" stroke="#63b8ff" points="172.98,-37.1 180.23,-29.37 169.74,-30.9 172.98,-37.1"/>
</a>
</g>
</g>
<!-- Node11 -->
<g id="Node000011" class="node">
<title>Node11</title>
<g id="a_Node000011"><a xlink:href="class_service_cluster_base.html#ae025282a6ef15d01eaba440bdf73a750" target="_top" xlink:title="Get pointer to the service with the given service&#45;ID by iterating through the associated services and...">
<polygon fill="white" stroke="#666666" points="458.25,-116.5 355.25,-116.5 355.25,-86 458.25,-86 458.25,-116.5"/>
<text text-anchor="start" x="363.25" y="-103" font-family="Helvetica,sans-Serif" font-size="10.00">ServiceClusterBase</text>
<text text-anchor="middle" x="406.75" y="-91.75" font-family="Helvetica,sans-Serif" font-size="10.00">::getService_byID</text>
</a>
</g>
</g>
<!-- Node10&#45;&gt;Node11 -->
<g id="edge10_Node000010_Node000011" class="edge">
<title>Node10&#45;&gt;Node11</title>
<g id="a_edge10_Node000010_Node000011"><a xlink:title=" ">
<path fill="none" stroke="#63b8ff" d="M277.9,-68.33C297.53,-73.39 321.77,-79.63 343.84,-85.31"/>
<polygon fill="#63b8ff" stroke="#63b8ff" points="342.79,-88.65 353.34,-87.76 344.53,-81.87 342.79,-88.65"/>
</a>
</g>
</g>
<!-- Node12 -->
<g id="Node000012" class="node">
<title>Node12</title>
<g id="a_Node000012"><a xlink:href="class_error_service.html#a4db0ae1a3ca53fe1e6290b87390098ba" target="_top" xlink:title="Adds an Error&#45;object for the local Instance&#45;Id to the Error&#45;services rec&#45;stack.">
<polygon fill="white" stroke="#666666" points="465.75,-67.88 347.75,-67.88 347.75,-48.62 465.75,-48.62 465.75,-67.88"/>
<text text-anchor="middle" x="406.75" y="-54.38" font-family="Helvetica,sans-Serif" font-size="10.00">ErrorService::raiseError</text>
</a>
</g>
</g>
<!-- Node10&#45;&gt;Node12 -->
<g id="edge11_Node000010_Node000012" class="edge">
<title>Node10&#45;&gt;Node12</title>
<g id="a_edge11_Node000010_Node000012"><a xlink:title=" ">
<path fill="none" stroke="#63b8ff" d="M305.71,-58.25C315.73,-58.25 326.09,-58.25 336.16,-58.25"/>
<polygon fill="#63b8ff" stroke="#63b8ff" points="335.87,-61.75 345.87,-58.25 335.87,-54.75 335.87,-61.75"/>
</a>
</g>
</g>
<!-- Node14 -->
<g id="Node000014" class="node">
<title>Node14</title>
<g id="a_Node000014"><a xlink:href="class_error_state.html#ab996befaa1eb1089914ab0fbfecfcf39" target="_top" xlink:title="raises a new error by setting the given error&#45;code as errorState">
<polygon fill="white" stroke="#666666" points="460.88,-30.88 352.62,-30.88 352.62,-11.62 460.88,-11.62 460.88,-30.88"/>
<text text-anchor="middle" x="406.75" y="-17.38" font-family="Helvetica,sans-Serif" font-size="10.00">ErrorState::raiseError</text>
</a>
</g>
</g>
<!-- Node10&#45;&gt;Node14 -->
<g id="edge13_Node000010_Node000014" class="edge">
<title>Node10&#45;&gt;Node14</title>
<g id="a_edge13_Node000010_Node000014"><a xlink:title=" ">
<path fill="none" stroke="#63b8ff" d="M284.38,-48.14C304.36,-43.71 328,-38.48 349.09,-33.8"/>
<polygon fill="#63b8ff" stroke="#63b8ff" points="349.69,-37.26 358.69,-31.68 348.17,-30.42 349.69,-37.26"/>
</a>
</g>
</g>
<!-- Node13 -->
<g id="Node000013" class="node">
<title>Node13</title>
<g id="a_Node000013"><a xlink:href="class_content__stack.html#a3d5491c67763ef3c19780619d70cb59a" target="_top" xlink:title="Add item to stack.">
<polygon fill="white" stroke="#666666" points="639.25,-67.88 501.75,-67.88 501.75,-48.62 639.25,-48.62 639.25,-67.88"/>
<text text-anchor="middle" x="570.5" y="-54.38" font-family="Helvetica,sans-Serif" font-size="10.00">Content_stack::addElement</text>
</a>
</g>
</g>
<!-- Node12&#45;&gt;Node13 -->
<g id="edge12_Node000012_Node000013" class="edge">
<title>Node12&#45;&gt;Node13</title>
<g id="a_edge12_Node000012_Node000013"><a xlink:title=" ">
<path fill="none" stroke="#63b8ff" d="M466.15,-58.25C473.9,-58.25 481.94,-58.25 489.98,-58.25"/>
<polygon fill="#63b8ff" stroke="#63b8ff" points="489.77,-61.75 499.77,-58.25 489.77,-54.75 489.77,-61.75"/>
</a>
</g>
</g>
</g>
</svg>
