<?xml version="1.0" encoding="UTF-8" standalone="no"?>
<!DOCTYPE svg PUBLIC "-//W3C//DTD SVG 1.1//EN"
 "http://www.w3.org/Graphics/SVG/1.1/DTD/svg11.dtd">
<!-- Generated by graphviz version 12.1.2 (20240928.0832)
 -->
<!-- Title: Content_stack::getElement Pages: 1 -->
<svg width="527pt" height="383pt"
 viewBox="0.00 0.00 527.00 382.88" xmlns="http://www.w3.org/2000/svg" xmlns:xlink="http://www.w3.org/1999/xlink">
<g id="graph0" class="graph" transform="scale(1 1) rotate(0) translate(4 378.88)">
<title>Content_stack::getElement</title>
<!-- Node1 -->
<g id="Node000001" class="node">
<title>Node1</title>
<g id="a_Node000001"><a xlink:title="Get Pointer to element in the stack. Accepts positive and negative indexing.">
<polygon fill="#999999" stroke="#666666" points="519,-185.25 383.75,-185.25 383.75,-166 519,-166 519,-185.25"/>
<text text-anchor="middle" x="451.38" y="-171.75" font-family="Helvetica,sans-Serif" font-size="10.00">Content_stack::getElement</text>
</a>
</g>
</g>
<!-- Node2 -->
<g id="Node000002" class="node">
<title>Node2</title>
<g id="a_Node000002"><a xlink:href="classarduino_mocking_1_1_software_serial.html#a5785050c0162a9c4285b822d1dd940a1" target="_top" xlink:title="Empties the internal queue and prints the flushed data to the console.">
<polygon fill="white" stroke="#666666" points="328.62,-374.88 199.38,-374.88 199.38,-344.38 328.62,-344.38 328.62,-374.88"/>
<text text-anchor="start" x="207.38" y="-361.38" font-family="Helvetica,sans-Serif" font-size="10.00">arduinoMocking::Software</text>
<text text-anchor="middle" x="264" y="-350.12" font-family="Helvetica,sans-Serif" font-size="10.00">Serial::flush</text>
</a>
</g>
</g>
<!-- Node1&#45;&gt;Node2 -->
<g id="edge1_Node000001_Node000002" class="edge">
<title>Node1&#45;&gt;Node2</title>
<g id="a_edge1_Node000001_Node000002"><a xlink:title=" ">
<path fill="none" stroke="#63b8ff" d="M442.71,-196.02C428.95,-229.89 396.81,-297.67 347.75,-334.62 342,-338.96 335.49,-342.55 328.72,-345.52"/>
<polygon fill="#63b8ff" stroke="#63b8ff" points="445.87,-197.55 446.26,-186.97 439.35,-195 445.87,-197.55"/>
</a>
</g>
</g>
<!-- Node4 -->
<g id="Node000004" class="node">
<title>Node4</title>
<g id="a_Node000004"><a xlink:href="class_message_service.html#acc78431dec13eaa6b2d6c325ad84578c" target="_top" xlink:title="Retrieves the destination instance ID for the current response PDU in the send stack.">
<polygon fill="white" stroke="#666666" points="318.12,-325.88 209.88,-325.88 209.88,-295.38 318.12,-295.38 318.12,-325.88"/>
<text text-anchor="start" x="217.88" y="-312.38" font-family="Helvetica,sans-Serif" font-size="10.00">MessageService::get</text>
<text text-anchor="middle" x="264" y="-301.12" font-family="Helvetica,sans-Serif" font-size="10.00">_destinationId</text>
</a>
</g>
</g>
<!-- Node1&#45;&gt;Node4 -->
<g id="edge3_Node000001_Node000004" class="edge">
<title>Node1&#45;&gt;Node4</title>
<g id="a_edge3_Node000001_Node000004"><a xlink:title=" ">
<path fill="none" stroke="#63b8ff" d="M437.53,-195.05C420.1,-219.91 386.63,-262.6 347.75,-286.62 338.84,-292.13 328.62,-296.42 318.47,-299.74"/>
<polygon fill="#63b8ff" stroke="#63b8ff" points="440.38,-197.08 443.13,-186.85 434.6,-193.13 440.38,-197.08"/>
</a>
</g>
</g>
<!-- Node5 -->
<g id="Node000005" class="node">
<title>Node5</title>
<g id="a_Node000005"><a xlink:href="class_service.html#a601e6d2878ce2b292a3b7c6428f0d51f" target="_top" xlink:title="Get the get the response&#45;payload, stored at the response_pdu of the service instance">
<polygon fill="white" stroke="#666666" points="320.75,-277.25 207.25,-277.25 207.25,-258 320.75,-258 320.75,-277.25"/>
<text text-anchor="middle" x="264" y="-263.75" font-family="Helvetica,sans-Serif" font-size="10.00">Service::get_response</text>
</a>
</g>
</g>
<!-- Node1&#45;&gt;Node5 -->
<g id="edge4_Node000001_Node000005" class="edge">
<title>Node1&#45;&gt;Node5</title>
<g id="a_edge4_Node000001_Node000005"><a xlink:title=" ">
<path fill="none" stroke="#63b8ff" d="M430.99,-193C411.37,-209.68 379.46,-234.39 347.75,-248.62 339.41,-252.37 330.26,-255.41 321.18,-257.88"/>
<polygon fill="#63b8ff" stroke="#63b8ff" points="433.19,-195.72 438.44,-186.53 428.6,-190.44 433.19,-195.72"/>
</a>
</g>
</g>
<!-- Node6 -->
<g id="Node000006" class="node">
<title>Node6</title>
<g id="a_Node000006"><a xlink:href="classarduino_mocking_1_1_software_serial.html#ae70b691c402eede6805828c476b96bf5" target="_top" xlink:title="Returns the next character in the queue without removing it.">
<polygon fill="white" stroke="#666666" points="328.62,-239.88 199.38,-239.88 199.38,-209.38 328.62,-209.38 328.62,-239.88"/>
<text text-anchor="start" x="207.38" y="-226.38" font-family="Helvetica,sans-Serif" font-size="10.00">arduinoMocking::Software</text>
<text text-anchor="middle" x="264" y="-215.12" font-family="Helvetica,sans-Serif" font-size="10.00">Serial::peek</text>
</a>
</g>
</g>
<!-- Node1&#45;&gt;Node6 -->
<g id="edge5_Node000001_Node000006" class="edge">
<title>Node1&#45;&gt;Node6</title>
<g id="a_edge5_Node000001_Node000006"><a xlink:title=" ">
<path fill="none" stroke="#63b8ff" d="M401.59,-188.52C377.95,-194.77 349.35,-202.33 324.45,-208.91"/>
<polygon fill="#63b8ff" stroke="#63b8ff" points="402.18,-191.99 410.95,-186.05 400.39,-185.22 402.18,-191.99"/>
</a>
</g>
</g>
<!-- Node8 -->
<g id="Node000008" class="node">
<title>Node8</title>
<g id="a_Node000008"><a xlink:href="class_service_interface.html#a23feb243ed1748e04dd757aa5f788b3e" target="_top" xlink:title="Send all Frames, stored in the sendStack. As long as the sendStack is not empty, the function is gett...">
<polygon fill="white" stroke="#666666" points="327.88,-190.88 200.12,-190.88 200.12,-160.38 327.88,-160.38 327.88,-190.88"/>
<text text-anchor="start" x="208.12" y="-177.38" font-family="Helvetica,sans-Serif" font-size="10.00">ServiceInterface::process</text>
<text text-anchor="middle" x="264" y="-166.12" font-family="Helvetica,sans-Serif" font-size="10.00">SendStack</text>
</a>
</g>
</g>
<!-- Node1&#45;&gt;Node8 -->
<g id="edge7_Node000001_Node000008" class="edge">
<title>Node1&#45;&gt;Node8</title>
<g id="a_edge7_Node000001_Node000008"><a xlink:title=" ">
<path fill="none" stroke="#63b8ff" d="M372.3,-175.62C357.57,-175.62 342.32,-175.62 328.12,-175.62"/>
<polygon fill="#63b8ff" stroke="#63b8ff" points="371.94,-179.13 381.94,-175.63 371.94,-172.13 371.94,-179.13"/>
</a>
</g>
</g>
<!-- Node9 -->
<g id="Node000009" class="node">
<title>Node9</title>
<g id="a_Node000009"><a xlink:href="classarduino_mocking_1_1_software_serial.html#a892a38a5eb6b0c115c2745098c9637ad" target="_top" xlink:title="Reads a character from the internal queue.">
<polygon fill="white" stroke="#666666" points="328.62,-141.88 199.38,-141.88 199.38,-111.38 328.62,-111.38 328.62,-141.88"/>
<text text-anchor="start" x="207.38" y="-128.38" font-family="Helvetica,sans-Serif" font-size="10.00">arduinoMocking::Software</text>
<text text-anchor="middle" x="264" y="-117.12" font-family="Helvetica,sans-Serif" font-size="10.00">Serial::read</text>
</a>
</g>
</g>
<!-- Node1&#45;&gt;Node9 -->
<g id="edge8_Node000001_Node000009" class="edge">
<title>Node1&#45;&gt;Node9</title>
<g id="a_edge8_Node000001_Node000009"><a xlink:title=" ">
<path fill="none" stroke="#63b8ff" d="M401.59,-162.73C377.95,-156.48 349.35,-148.92 324.45,-142.34"/>
<polygon fill="#63b8ff" stroke="#63b8ff" points="400.39,-166.03 410.95,-165.2 402.18,-159.26 400.39,-166.03"/>
</a>
</g>
</g>
<!-- Node10 -->
<g id="Node000010" class="node">
<title>Node10</title>
<g id="a_Node000010"><a xlink:href="class_error_service.html#abdd6940a94fc8619c1ed31934b1cd3bd" target="_top" xlink:title="Processes all errors from the receive stack.">
<polygon fill="white" stroke="#666666" points="338.38,-93.25 189.62,-93.25 189.62,-74 338.38,-74 338.38,-93.25"/>
<text text-anchor="middle" x="264" y="-79.75" font-family="Helvetica,sans-Serif" font-size="10.00">ErrorService::stackProcessing</text>
</a>
</g>
</g>
<!-- Node1&#45;&gt;Node10 -->
<g id="edge10_Node000001_Node000010" class="edge">
<title>Node1&#45;&gt;Node10</title>
<g id="a_edge10_Node000001_Node000010"><a xlink:title=" ">
<path fill="none" stroke="#63b8ff" d="M430.99,-158.25C411.37,-141.57 379.46,-116.86 347.75,-102.62 339.82,-99.06 331.14,-96.13 322.5,-93.73"/>
<polygon fill="#63b8ff" stroke="#63b8ff" points="428.6,-160.81 438.44,-164.72 433.19,-155.53 428.6,-160.81"/>
</a>
</g>
</g>
<!-- Node11 -->
<g id="Node000011" class="node">
<title>Node11</title>
<g id="a_Node000011"><a xlink:href="class_message_service.html#ae02abdc8b83f6c62353dda1a42b2f1ff" target="_top" xlink:title="Processes all messages from the receive stack.">
<polygon fill="white" stroke="#666666" points="347.75,-56.25 180.25,-56.25 180.25,-37 347.75,-37 347.75,-56.25"/>
<text text-anchor="middle" x="264" y="-42.75" font-family="Helvetica,sans-Serif" font-size="10.00">MessageService::stackProcessing</text>
</a>
</g>
</g>
<!-- Node1&#45;&gt;Node11 -->
<g id="edge11_Node000001_Node000011" class="edge">
<title>Node1&#45;&gt;Node11</title>
<g id="a_edge11_Node000001_Node000011"><a xlink:title=" ">
<path fill="none" stroke="#63b8ff" d="M438.03,-156.17C420.94,-130.92 387.62,-87.42 347.75,-64.62 342.13,-61.41 336,-58.78 329.7,-56.61"/>
<polygon fill="#63b8ff" stroke="#63b8ff" points="435.08,-158.06 443.5,-164.49 440.93,-154.21 435.08,-158.06"/>
</a>
</g>
</g>
<!-- Node12 -->
<g id="Node000012" class="node">
<title>Node12</title>
<g id="a_Node000012"><a xlink:href="class_service.html#a3eafa52c7f4bfe29698ba4a91c75dc75" target="_top" xlink:title="Execute the service&#39;s functions for each item on the receive&#45;stack and add all response&#45;payloads to b...">
<polygon fill="white" stroke="#666666" points="327.88,-19.25 200.12,-19.25 200.12,0 327.88,0 327.88,-19.25"/>
<text text-anchor="middle" x="264" y="-5.75" font-family="Helvetica,sans-Serif" font-size="10.00">Service::stackProcessing</text>
</a>
</g>
</g>
<!-- Node1&#45;&gt;Node12 -->
<g id="edge12_Node000001_Node000012" class="edge">
<title>Node1&#45;&gt;Node12</title>
<g id="a_edge12_Node000001_Node000012"><a xlink:title=" ">
<path fill="none" stroke="#63b8ff" d="M442.23,-155.34C428.1,-122.92 395.9,-59.82 347.75,-27.62 341.76,-23.62 335.03,-20.49 328.07,-18.05"/>
<polygon fill="#63b8ff" stroke="#63b8ff" points="438.92,-156.52 446.02,-164.38 445.38,-153.81 438.92,-156.52"/>
</a>
</g>
</g>
<!-- Node3 -->
<g id="Node000003" class="node">
<title>Node3</title>
<g id="a_Node000003"><a xlink:href="class_comm_interface__modbus_r_t_u.html#a0e78a2a6e3b5b029609c2b16c21bd85b" target="_top" xlink:title="Override of CommInterface send&#45;function. Send the frame, sendBuffer is pointing to by writing and flu...">
<polygon fill="white" stroke="#666666" points="144.25,-374.88 0,-374.88 0,-344.38 144.25,-344.38 144.25,-374.88"/>
<text text-anchor="start" x="8" y="-361.38" font-family="Helvetica,sans-Serif" font-size="10.00">CommInterface_modbusRTU</text>
<text text-anchor="middle" x="72.12" y="-350.12" font-family="Helvetica,sans-Serif" font-size="10.00">::send</text>
</a>
</g>
</g>
<!-- Node2&#45;&gt;Node3 -->
<g id="edge2_Node000002_Node000003" class="edge">
<title>Node2&#45;&gt;Node3</title>
<g id="a_edge2_Node000002_Node000003"><a xlink:title=" ">
<path fill="none" stroke="#63b8ff" d="M187.76,-359.62C173.58,-359.62 158.78,-359.62 144.7,-359.62"/>
<polygon fill="#63b8ff" stroke="#63b8ff" points="187.47,-363.13 197.47,-359.63 187.47,-356.13 187.47,-363.13"/>
</a>
</g>
</g>
<!-- Node7 -->
<g id="Node000007" class="node">
<title>Node7</title>
<g id="a_Node000007"><a xlink:href="class_comm_interface__modbus_r_t_u.html#a50b42ad0a40a82ebe5a7749313ca2283" target="_top" xlink:title="Receives a Modbus RTU frame and writes it to receiveBuffer.">
<polygon fill="white" stroke="#666666" points="144.25,-190.88 0,-190.88 0,-160.38 144.25,-160.38 144.25,-190.88"/>
<text text-anchor="start" x="8" y="-177.38" font-family="Helvetica,sans-Serif" font-size="10.00">CommInterface_modbusRTU</text>
<text text-anchor="middle" x="72.12" y="-166.12" font-family="Helvetica,sans-Serif" font-size="10.00">::receive</text>
</a>
</g>
</g>
<!-- Node6&#45;&gt;Node7 -->
<g id="edge6_Node000006_Node000007" class="edge">
<title>Node6&#45;&gt;Node7</title>
<g id="a_edge6_Node000006_Node000007"><a xlink:title=" ">
<path fill="none" stroke="#63b8ff" d="M191.21,-206.1C172.35,-201.23 152.19,-196.03 133.97,-191.33"/>
<polygon fill="#63b8ff" stroke="#63b8ff" points="190.12,-209.43 200.67,-208.54 191.87,-202.65 190.12,-209.43"/>
</a>
</g>
</g>
<!-- Node9&#45;&gt;Node7 -->
<g id="edge9_Node000009_Node000007" class="edge">
<title>Node9&#45;&gt;Node7</title>
<g id="a_edge9_Node000009_Node000007"><a xlink:title=" ">
<path fill="none" stroke="#63b8ff" d="M191.21,-145.15C172.35,-150.02 152.19,-155.22 133.97,-159.92"/>
<polygon fill="#63b8ff" stroke="#63b8ff" points="191.87,-148.6 200.67,-142.71 190.12,-141.82 191.87,-148.6"/>
</a>
</g>
</g>
</g>
</svg>
