<?xml version="1.0" encoding="UTF-8" standalone="no"?>
<!DOCTYPE svg PUBLIC "-//W3C//DTD SVG 1.1//EN"
 "http://www.w3.org/Graphics/SVG/1.1/DTD/svg11.dtd">
<!-- Generated by graphviz version 12.1.2 (20240928.0832)
 -->
<!-- Title: Service::stackProcessing Pages: 1 -->
<svg width="320pt" height="138pt"
 viewBox="0.00 0.00 319.75 138.25" xmlns="http://www.w3.org/2000/svg" xmlns:xlink="http://www.w3.org/1999/xlink">
<g id="graph0" class="graph" transform="scale(1 1) rotate(0) translate(4 134.25)">
<title>Service::stackProcessing</title>
<!-- Node1 -->
<g id="Node000001" class="node">
<title>Node1</title>
<g id="a_Node000001"><a xlink:title="Execute the service&#39;s functions for each item on the receive&#45;stack and add all response&#45;payloads to b...">
<polygon fill="#999999" stroke="#666666" points="127.75,-74.25 0,-74.25 0,-55 127.75,-55 127.75,-74.25"/>
<text text-anchor="middle" x="63.88" y="-60.75" font-family="Helvetica,sans-Serif" font-size="10.00">Service::stackProcessing</text>
</a>
</g>
</g>
<!-- Node2 -->
<g id="Node000002" class="node">
<title>Node2</title>
<g id="a_Node000002"><a xlink:href="class_content__stack.html#a3d5491c67763ef3c19780619d70cb59a" target="_top" xlink:title="Add item to stack.">
<polygon fill="white" stroke="#666666" points="306.5,-130.25 169,-130.25 169,-111 306.5,-111 306.5,-130.25"/>
<text text-anchor="middle" x="237.75" y="-116.75" font-family="Helvetica,sans-Serif" font-size="10.00">Content_stack::addElement</text>
</a>
</g>
</g>
<!-- Node1&#45;&gt;Node2 -->
<g id="edge1_Node000001_Node000002" class="edge">
<title>Node1&#45;&gt;Node2</title>
<g id="a_edge1_Node000001_Node000002"><a xlink:title=" ">
<path fill="none" stroke="#63b8ff" d="M88.55,-74.69C108.4,-82.89 137.61,-94.41 163.75,-102.62 169.43,-104.41 175.41,-106.13 181.39,-107.75"/>
<polygon fill="#63b8ff" stroke="#63b8ff" points="180.08,-111.03 190.64,-110.18 181.86,-104.26 180.08,-111.03"/>
</a>
</g>
</g>
<!-- Node3 -->
<g id="Node000003" class="node">
<title>Node3</title>
<g id="a_Node000003"><a xlink:href="class_content__stack.html#a7b2d11fd9ee9f45090a545031883edb6" target="_top" xlink:title="Delete item on index&#45;position from stack and shift all items with higher index, accepts only positive...">
<polygon fill="white" stroke="#666666" points="311.75,-93.25 163.75,-93.25 163.75,-74 311.75,-74 311.75,-93.25"/>
<text text-anchor="middle" x="237.75" y="-79.75" font-family="Helvetica,sans-Serif" font-size="10.00">Content_stack::deleteElement</text>
</a>
</g>
</g>
<!-- Node1&#45;&gt;Node3 -->
<g id="edge2_Node000001_Node000003" class="edge">
<title>Node1&#45;&gt;Node3</title>
<g id="a_edge2_Node000001_Node000003"><a xlink:title=" ">
<path fill="none" stroke="#63b8ff" d="M127.9,-71.59C135.71,-72.46 143.8,-73.35 151.87,-74.24"/>
<polygon fill="#63b8ff" stroke="#63b8ff" points="151.42,-77.71 161.75,-75.33 152.19,-70.76 151.42,-77.71"/>
</a>
</g>
</g>
<!-- Node4 -->
<g id="Node000004" class="node">
<title>Node4</title>
<g id="a_Node000004"><a xlink:href="class_content__stack.html#a4710d468535ed030bf5f67052e68eebb" target="_top" xlink:title="Check if the Stack is empty (size is 0)">
<polygon fill="white" stroke="#666666" points="294.12,-56.25 181.38,-56.25 181.38,-37 294.12,-37 294.12,-56.25"/>
<text text-anchor="middle" x="237.75" y="-42.75" font-family="Helvetica,sans-Serif" font-size="10.00">Content_stack::empty</text>
</a>
</g>
</g>
<!-- Node1&#45;&gt;Node4 -->
<g id="edge3_Node000001_Node000004" class="edge">
<title>Node1&#45;&gt;Node4</title>
<g id="a_edge3_Node000001_Node000004"><a xlink:title=" ">
<path fill="none" stroke="#63b8ff" d="M127.9,-58.02C141.52,-56.6 155.97,-55.08 169.74,-53.64"/>
<polygon fill="#63b8ff" stroke="#63b8ff" points="170.03,-57.13 179.61,-52.61 169.3,-50.17 170.03,-57.13"/>
</a>
</g>
</g>
<!-- Node5 -->
<g id="Node000005" class="node">
<title>Node5</title>
<g id="a_Node000005"><a xlink:href="class_content__stack.html#a5ac2a896da7724281d9d85eb239f5084" target="_top" xlink:title="Get Pointer to element in the stack. Accepts positive and negative indexing.">
<polygon fill="white" stroke="#666666" points="305.38,-19.25 170.12,-19.25 170.12,0 305.38,0 305.38,-19.25"/>
<text text-anchor="middle" x="237.75" y="-5.75" font-family="Helvetica,sans-Serif" font-size="10.00">Content_stack::getElement</text>
</a>
</g>
</g>
<!-- Node1&#45;&gt;Node5 -->
<g id="edge4_Node000001_Node000005" class="edge">
<title>Node1&#45;&gt;Node5</title>
<g id="a_edge4_Node000001_Node000005"><a xlink:title=" ">
<path fill="none" stroke="#63b8ff" d="M89.39,-54.54C109.23,-46.6 138.01,-35.58 163.75,-27.62 169.52,-25.84 175.58,-24.11 181.65,-22.48"/>
<polygon fill="#63b8ff" stroke="#63b8ff" points="182.25,-25.94 191.05,-20.04 180.49,-19.17 182.25,-25.94"/>
</a>
</g>
</g>
</g>
</svg>
