<?xml version="1.0" encoding="UTF-8" standalone="no"?>
<!DOCTYPE svg PUBLIC "-//W3C//DTD SVG 1.1//EN"
 "http://www.w3.org/Graphics/SVG/1.1/DTD/svg11.dtd">
<!-- Generated by graphviz version 12.1.2 (20240928.0832)
 -->
<!-- Title: Frame_modbusRTU::checkCRC16 Pages: 1 -->
<svg width="315pt" height="64pt"
 viewBox="0.00 0.00 314.50 64.25" xmlns="http://www.w3.org/2000/svg" xmlns:xlink="http://www.w3.org/1999/xlink">
<g id="graph0" class="graph" transform="scale(1 1) rotate(0) translate(4 60.25)">
<title>Frame_modbusRTU::checkCRC16</title>
<!-- Node1 -->
<g id="Node000001" class="node">
<title>Node1</title>
<g id="a_Node000001"><a xlink:title="Verifies the CRC16 checksum of the current Modbus RTU frame.">
<polygon fill="#999999" stroke="#666666" points="169.75,-37.25 0,-37.25 0,-18 169.75,-18 169.75,-37.25"/>
<text text-anchor="middle" x="84.88" y="-23.75" font-family="Helvetica,sans-Serif" font-size="10.00">Frame_modbusRTU::checkCRC16</text>
</a>
</g>
</g>
<!-- Node2 -->
<g id="Node000002" class="node">
<title>Node2</title>
<g id="a_Node000002"><a xlink:href="class_char_array.html#aca5000ba20e3e1a4b6efd128c8dd62dd" target="_top" xlink:title="Provides direct access to the internal char array.">
<polygon fill="white" stroke="#666666" points="306.5,-56.25 205.75,-56.25 205.75,-37 306.5,-37 306.5,-56.25"/>
<text text-anchor="middle" x="256.12" y="-42.75" font-family="Helvetica,sans-Serif" font-size="10.00">CharArray::getData</text>
</a>
</g>
</g>
<!-- Node1&#45;&gt;Node2 -->
<g id="edge1_Node000001_Node000002" class="edge">
<title>Node1&#45;&gt;Node2</title>
<g id="a_edge1_Node000001_Node000002"><a xlink:title=" ">
<path fill="none" stroke="#63b8ff" d="M170,-37.07C178.14,-37.98 186.29,-38.9 194.14,-39.78"/>
<polygon fill="#63b8ff" stroke="#63b8ff" points="193.56,-43.24 203.89,-40.87 194.34,-36.28 193.56,-43.24"/>
</a>
</g>
</g>
<!-- Node3 -->
<g id="Node000003" class="node">
<title>Node3</title>
<g id="a_Node000003"><a xlink:href="class_char_array.html#a384344479de289fff7c98966f0b079be" target="_top" xlink:title="Retrieves the size of the char array.">
<polygon fill="white" stroke="#666666" points="305.75,-19.25 206.5,-19.25 206.5,0 305.75,0 305.75,-19.25"/>
<text text-anchor="middle" x="256.12" y="-5.75" font-family="Helvetica,sans-Serif" font-size="10.00">CharArray::getSize</text>
</a>
</g>
</g>
<!-- Node1&#45;&gt;Node3 -->
<g id="edge2_Node000001_Node000003" class="edge">
<title>Node1&#45;&gt;Node3</title>
<g id="a_edge2_Node000001_Node000003"><a xlink:title=" ">
<path fill="none" stroke="#63b8ff" d="M170,-18.68C178.46,-17.78 186.93,-16.88 195.06,-16.01"/>
<polygon fill="#63b8ff" stroke="#63b8ff" points="195.23,-19.52 204.8,-14.98 194.48,-12.55 195.23,-19.52"/>
</a>
</g>
</g>
</g>
</svg>
