<?xml version="1.0" encoding="UTF-8" standalone="no"?>
<!DOCTYPE svg PUBLIC "-//W3C//DTD SVG 1.1//EN"
 "http://www.w3.org/Graphics/SVG/1.1/DTD/svg11.dtd">
<!-- Generated by graphviz version 12.1.2 (20240928.0832)
 -->
<!-- Title: ErrorState Pages: 1 -->
<svg width="666pt" height="125pt"
 viewBox="0.00 0.00 666.00 124.50" xmlns="http://www.w3.org/2000/svg" xmlns:xlink="http://www.w3.org/1999/xlink">
<g id="graph0" class="graph" transform="scale(1 1) rotate(0) translate(4 120.5)">
<title>ErrorState</title>
<!-- Node1 -->
<g id="Node000001" class="node">
<title>Node1</title>
<g id="a_Node000001"><a xlink:title="A class to manage and track error states using error codes.">
<polygon fill="#999999" stroke="#666666" points="60.25,-67.88 0,-67.88 0,-48.62 60.25,-48.62 60.25,-67.88"/>
<text text-anchor="middle" x="30.12" y="-54.38" font-family="Helvetica,sans-Serif" font-size="10.00">ErrorState</text>
</a>
</g>
</g>
<!-- Node2 -->
<g id="Node000002" class="node">
<title>Node2</title>
<g id="a_Node000002"><a xlink:href="class_service_interface.html" target="_top" xlink:title=" ">
<polygon fill="white" stroke="#666666" points="276.5,-116.5 96.25,-116.5 96.25,-86 276.5,-86 276.5,-116.5"/>
<text text-anchor="start" x="104.25" y="-103" font-family="Helvetica,sans-Serif" font-size="10.00">ServiceInterface&lt; CommInterface</text>
<text text-anchor="middle" x="186.38" y="-91.75" font-family="Helvetica,sans-Serif" font-size="10.00">_modbusRTU, Frame_modbusRTU &gt;</text>
</a>
</g>
</g>
<!-- Node1&#45;&gt;Node2 -->
<g id="edge1_Node000001_Node000002" class="edge">
<title>Node1&#45;&gt;Node2</title>
<g id="a_edge1_Node000001_Node000002"><a xlink:title=" ">
<path fill="none" stroke="#63b8ff" d="M71.45,-70.16C79.65,-72.54 88.22,-75 96.25,-77.25 105.97,-79.98 116.3,-82.81 126.36,-85.54"/>
<polygon fill="#63b8ff" stroke="#63b8ff" points="72.62,-66.85 62.04,-67.41 70.66,-73.57 72.62,-66.85"/>
</a>
</g>
</g>
<!-- Node4 -->
<g id="Node000004" class="node">
<title>Node4</title>
<g id="a_Node000004"><a xlink:href="class_comm_interface_base.html" target="_top" xlink:title="Communcation&#45;Interface&#45;Base&#45;Class of the CommInterface template specifies a standardized interface to...">
<polygon fill="white" stroke="#666666" points="239.38,-67.88 133.38,-67.88 133.38,-48.62 239.38,-48.62 239.38,-67.88"/>
<text text-anchor="middle" x="186.38" y="-54.38" font-family="Helvetica,sans-Serif" font-size="10.00">CommInterfaceBase</text>
</a>
</g>
</g>
<!-- Node1&#45;&gt;Node4 -->
<g id="edge3_Node000001_Node000004" class="edge">
<title>Node1&#45;&gt;Node4</title>
<g id="a_edge3_Node000001_Node000004"><a xlink:title=" ">
<path fill="none" stroke="#63b8ff" d="M71.91,-58.25C90.63,-58.25 113.05,-58.25 133,-58.25"/>
<polygon fill="#63b8ff" stroke="#63b8ff" points="72.01,-54.75 62.01,-58.25 72.01,-61.75 72.01,-54.75"/>
</a>
</g>
</g>
<!-- Node8 -->
<g id="Node000008" class="node">
<title>Node8</title>
<g id="a_Node000008"><a xlink:href="class_service_interface.html" target="_top" xlink:title="Template for generic Service&#45;Interface Defines the handling of incoming frames from CommInterface to ...">
<polygon fill="white" stroke="#666666" points="268.25,-30.5 104.5,-30.5 104.5,0 268.25,0 268.25,-30.5"/>
<text text-anchor="start" x="112.5" y="-17" font-family="Helvetica,sans-Serif" font-size="10.00">ServiceInterface&lt; CommInterface</text>
<text text-anchor="middle" x="186.38" y="-5.75" font-family="Helvetica,sans-Serif" font-size="10.00">Base, frameType &gt;</text>
</a>
</g>
</g>
<!-- Node1&#45;&gt;Node8 -->
<g id="edge7_Node000001_Node000008" class="edge">
<title>Node1&#45;&gt;Node8</title>
<g id="a_edge7_Node000001_Node000008"><a xlink:title=" ">
<path fill="none" stroke="#63b8ff" d="M71.45,-46.34C79.65,-43.96 88.22,-41.5 96.25,-39.25 105.97,-36.52 116.3,-33.69 126.36,-30.96"/>
<polygon fill="#63b8ff" stroke="#63b8ff" points="70.66,-42.93 62.04,-49.09 72.62,-49.65 70.66,-42.93"/>
</a>
</g>
</g>
<!-- Node3 -->
<g id="Node000003" class="node">
<title>Node3</title>
<g id="a_Node000003"><a xlink:href="class_service_interface__modbus_r_t_u.html" target="_top" xlink:title="Service&#45;Interface&#45;class for Modbus&#45;RTU: Impart incoming frames from the CommInterface to the designat...">
<polygon fill="white" stroke="#666666" points="469.12,-110.88 321.12,-110.88 321.12,-91.62 469.12,-91.62 469.12,-110.88"/>
<text text-anchor="middle" x="395.12" y="-97.38" font-family="Helvetica,sans-Serif" font-size="10.00">ServiceInterface_modbusRTU</text>
</a>
</g>
</g>
<!-- Node2&#45;&gt;Node3 -->
<g id="edge2_Node000002_Node000003" class="edge">
<title>Node2&#45;&gt;Node3</title>
<g id="a_edge2_Node000002_Node000003"><a xlink:title=" ">
<path fill="none" stroke="#63b8ff" d="M288.22,-101.25C299.16,-101.25 310.14,-101.25 320.66,-101.25"/>
<polygon fill="#63b8ff" stroke="#63b8ff" points="288.37,-97.75 278.37,-101.25 288.37,-104.75 288.37,-97.75"/>
</a>
</g>
</g>
<!-- Node5 -->
<g id="Node000005" class="node">
<title>Node5</title>
<g id="a_Node000005"><a xlink:href="class_comm_interface.html" target="_top" xlink:title=" ">
<polygon fill="white" stroke="#666666" points="477.75,-70.88 312.5,-70.88 312.5,-51.62 477.75,-51.62 477.75,-70.88"/>
<text text-anchor="middle" x="395.12" y="-57.38" font-family="Helvetica,sans-Serif" font-size="10.00">CommInterface&lt; SoftwareSerial &gt;</text>
</a>
</g>
</g>
<!-- Node4&#45;&gt;Node5 -->
<g id="edge4_Node000004_Node000005" class="edge">
<title>Node4&#45;&gt;Node5</title>
<g id="a_edge4_Node000004_Node000005"><a xlink:title=" ">
<path fill="none" stroke="#63b8ff" d="M251.23,-59.18C270.55,-59.46 292.05,-59.77 312.38,-60.06"/>
<polygon fill="#63b8ff" stroke="#63b8ff" points="251.38,-55.68 241.33,-59.03 251.28,-62.68 251.38,-55.68"/>
</a>
</g>
</g>
<!-- Node7 -->
<g id="Node000007" class="node">
<title>Node7</title>
<g id="a_Node000007"><a xlink:href="class_comm_interface.html" target="_top" xlink:title="Template for generic communication&#45;interface specifies a standardized interface to use for integratin...">
<polygon fill="white" stroke="#666666" points="460.12,-33.5 330.12,-33.5 330.12,-3 460.12,-3 460.12,-33.5"/>
<text text-anchor="start" x="338.12" y="-20" font-family="Helvetica,sans-Serif" font-size="10.00">CommInterface&lt; interface</text>
<text text-anchor="middle" x="395.12" y="-8.75" font-family="Helvetica,sans-Serif" font-size="10.00">_type &gt;</text>
</a>
</g>
</g>
<!-- Node4&#45;&gt;Node7 -->
<g id="edge6_Node000004_Node000007" class="edge">
<title>Node4&#45;&gt;Node7</title>
<g id="a_edge6_Node000004_Node000007"><a xlink:title=" ">
<path fill="none" stroke="#63b8ff" d="M250.77,-45.98C275.84,-41.14 304.61,-35.57 329.76,-30.7"/>
<polygon fill="#63b8ff" stroke="#63b8ff" points="250.19,-42.53 241.03,-47.87 251.52,-49.41 250.19,-42.53"/>
</a>
</g>
</g>
<!-- Node6 -->
<g id="Node000006" class="node">
<title>Node6</title>
<g id="a_Node000006"><a xlink:href="class_comm_interface__modbus_r_t_u.html" target="_top" xlink:title="The Modbus&#45;RTU CommInterface&#45;class specifies a communication interface with SoftwareSerial as interfa...">
<polygon fill="white" stroke="#666666" points="658,-70.88 513.75,-70.88 513.75,-51.62 658,-51.62 658,-70.88"/>
<text text-anchor="middle" x="585.88" y="-57.38" font-family="Helvetica,sans-Serif" font-size="10.00">CommInterface_modbusRTU</text>
</a>
</g>
</g>
<!-- Node5&#45;&gt;Node6 -->
<g id="edge5_Node000005_Node000006" class="edge">
<title>Node5&#45;&gt;Node6</title>
<g id="a_edge5_Node000005_Node000006"><a xlink:title=" ">
<path fill="none" stroke="#63b8ff" d="M489.43,-61.25C497.47,-61.25 505.52,-61.25 513.35,-61.25"/>
<polygon fill="#63b8ff" stroke="#63b8ff" points="489.6,-57.75 479.6,-61.25 489.6,-64.75 489.6,-57.75"/>
</a>
</g>
</g>
</g>
</svg>
