<?xml version="1.0" encoding="UTF-8" standalone="no"?>
<!DOCTYPE svg PUBLIC "-//W3C//DTD SVG 1.1//EN"
 "http://www.w3.org/Graphics/SVG/1.1/DTD/svg11.dtd">
<!-- Generated by graphviz version 12.1.2 (20240928.0832)
 -->
<!-- Title: MessageService Pages: 1 -->
<svg width="176pt" height="138pt"
 viewBox="0.00 0.00 176.25 137.75" xmlns="http://www.w3.org/2000/svg" xmlns:xlink="http://www.w3.org/1999/xlink">
<g id="graph0" class="graph" transform="scale(1 1) rotate(0) translate(4 133.75)">
<title>MessageService</title>
<!-- Node1 -->
<g id="Node000001" class="node">
<title>Node1</title>
<g id="a_Node000001"><a xlink:title="Service class for handling messages and acknowledgments.">
<polygon fill="#999999" stroke="#666666" points="128.5,-19.25 39.75,-19.25 39.75,0 128.5,0 128.5,-19.25"/>
<text text-anchor="middle" x="84.12" y="-5.75" font-family="Helvetica,sans-Serif" font-size="10.00">MessageService</text>
</a>
</g>
</g>
<!-- Node2 -->
<g id="Node000002" class="node">
<title>Node2</title>
<g id="a_Node000002"><a xlink:href="class_service.html" target="_top" xlink:title=" ">
<polygon fill="white" stroke="#666666" points="168.25,-74.5 0,-74.5 0,-55.25 168.25,-55.25 168.25,-74.5"/>
<text text-anchor="middle" x="84.12" y="-61" font-family="Helvetica,sans-Serif" font-size="10.00">Service&lt; Message, STACKSIZE &gt;</text>
</a>
</g>
</g>
<!-- Node2&#45;&gt;Node1 -->
<g id="edge1_Node000001_Node000002" class="edge">
<title>Node2&#45;&gt;Node1</title>
<g id="a_edge1_Node000001_Node000002"><a xlink:title=" ">
<path fill="none" stroke="#63b8ff" d="M84.12,-43.63C84.12,-35.34 84.12,-26.17 84.12,-19.61"/>
<polygon fill="#63b8ff" stroke="#63b8ff" points="80.63,-43.57 84.13,-53.57 87.63,-43.57 80.63,-43.57"/>
</a>
</g>
</g>
<!-- Node3 -->
<g id="Node000003" class="node">
<title>Node3</title>
<g id="a_Node000003"><a xlink:href="class_service_base.html" target="_top" xlink:title="Service&#45;base&#45;class to add class&#45;functions to vtable.">
<polygon fill="white" stroke="#666666" points="119.88,-129.75 48.38,-129.75 48.38,-110.5 119.88,-110.5 119.88,-129.75"/>
<text text-anchor="middle" x="84.12" y="-116.25" font-family="Helvetica,sans-Serif" font-size="10.00">ServiceBase</text>
</a>
</g>
</g>
<!-- Node3&#45;&gt;Node2 -->
<g id="edge2_Node000002_Node000003" class="edge">
<title>Node3&#45;&gt;Node2</title>
<g id="a_edge2_Node000002_Node000003"><a xlink:title=" ">
<path fill="none" stroke="#63b8ff" d="M84.12,-98.88C84.12,-90.59 84.12,-81.42 84.12,-74.86"/>
<polygon fill="#63b8ff" stroke="#63b8ff" points="80.63,-98.82 84.13,-108.82 87.63,-98.82 80.63,-98.82"/>
</a>
</g>
</g>
</g>
</svg>
