<?xml version="1.0" encoding="UTF-8" standalone="no"?>
<!DOCTYPE svg PUBLIC "-//W3C//DTD SVG 1.1//EN"
 "http://www.w3.org/Graphics/SVG/1.1/DTD/svg11.dtd">
<!-- Generated by graphviz version 12.1.2 (20240928.0832)
 -->
<!-- Title: ServiceInterface_modbusRTU::communicate Pages: 1 -->
<svg width="363pt" height="230pt"
 viewBox="0.00 0.00 363.25 229.75" xmlns="http://www.w3.org/2000/svg" xmlns:xlink="http://www.w3.org/1999/xlink">
<g id="graph0" class="graph" transform="scale(1 1) rotate(0) translate(4 225.75)">
<title>ServiceInterface_modbusRTU::communicate</title>
<!-- Node1 -->
<g id="Node000001" class="node">
<title>Node1</title>
<g id="a_Node000001"><a xlink:title="Manages data transfer between the CommInterface and services.">
<polygon fill="#999999" stroke="#666666" points="148,-126.12 0,-126.12 0,-95.62 148,-95.62 148,-126.12"/>
<text text-anchor="start" x="8" y="-112.62" font-family="Helvetica,sans-Serif" font-size="10.00">ServiceInterface_modbusRTU</text>
<text text-anchor="middle" x="74" y="-101.38" font-family="Helvetica,sans-Serif" font-size="10.00">::communicate</text>
</a>
</g>
</g>
<!-- Node2 -->
<g id="Node000002" class="node">
<title>Node2</title>
<g id="a_Node000002"><a xlink:href="class_service_interface.html#ac740850d1a24a1d8a96f7a7bbf4eb784" target="_top" xlink:title=" ">
<polygon fill="white" stroke="#666666" points="355.25,-221.75 184,-221.75 184,-180 355.25,-180 355.25,-221.75"/>
<text text-anchor="start" x="192" y="-208.25" font-family="Helvetica,sans-Serif" font-size="10.00">ServiceInterface&lt; CommInterface</text>
<text text-anchor="start" x="192" y="-197" font-family="Helvetica,sans-Serif" font-size="10.00">_modbusRTU, Frame_modbusRTU</text>
<text text-anchor="middle" x="269.62" y="-185.75" font-family="Helvetica,sans-Serif" font-size="10.00"> &gt;::addPDU_to_services</text>
</a>
</g>
</g>
<!-- Node1&#45;&gt;Node2 -->
<g id="edge1_Node000001_Node000002" class="edge">
<title>Node1&#45;&gt;Node2</title>
<g id="a_edge1_Node000001_Node000002"><a xlink:title=" ">
<path fill="none" stroke="#63b8ff" d="M100.38,-126.39C122.1,-139.29 154.44,-157.61 184,-170.88 187.34,-172.38 190.78,-173.85 194.28,-175.3"/>
<polygon fill="#63b8ff" stroke="#63b8ff" points="192.88,-178.51 203.47,-178.97 195.48,-172.01 192.88,-178.51"/>
</a>
</g>
</g>
<!-- Node3 -->
<g id="Node000003" class="node">
<title>Node3</title>
<g id="a_Node000003"><a xlink:href="class_service_interface.html#a7c5ec5e13af8a67d1b08c963fcd71214" target="_top" xlink:title=" ">
<polygon fill="white" stroke="#666666" points="355.25,-161.75 184,-161.75 184,-120 355.25,-120 355.25,-161.75"/>
<text text-anchor="start" x="192" y="-148.25" font-family="Helvetica,sans-Serif" font-size="10.00">ServiceInterface&lt; CommInterface</text>
<text text-anchor="start" x="192" y="-137" font-family="Helvetica,sans-Serif" font-size="10.00">_modbusRTU, Frame_modbusRTU</text>
<text text-anchor="middle" x="269.62" y="-125.75" font-family="Helvetica,sans-Serif" font-size="10.00"> &gt;::processRecStack</text>
</a>
</g>
</g>
<!-- Node1&#45;&gt;Node3 -->
<g id="edge2_Node000001_Node000003" class="edge">
<title>Node1&#45;&gt;Node3</title>
<g id="a_edge2_Node000001_Node000003"><a xlink:title=" ">
<path fill="none" stroke="#63b8ff" d="M148.48,-122.26C156.26,-123.46 164.25,-124.7 172.24,-125.94"/>
<polygon fill="#63b8ff" stroke="#63b8ff" points="171.6,-129.38 182.02,-127.46 172.67,-122.47 171.6,-129.38"/>
</a>
</g>
</g>
<!-- Node4 -->
<g id="Node000004" class="node">
<title>Node4</title>
<g id="a_Node000004"><a xlink:href="class_service_interface.html#a23feb243ed1748e04dd757aa5f788b3e" target="_top" xlink:title=" ">
<polygon fill="white" stroke="#666666" points="355.25,-101.75 184,-101.75 184,-60 355.25,-60 355.25,-101.75"/>
<text text-anchor="start" x="192" y="-88.25" font-family="Helvetica,sans-Serif" font-size="10.00">ServiceInterface&lt; CommInterface</text>
<text text-anchor="start" x="192" y="-77" font-family="Helvetica,sans-Serif" font-size="10.00">_modbusRTU, Frame_modbusRTU</text>
<text text-anchor="middle" x="269.62" y="-65.75" font-family="Helvetica,sans-Serif" font-size="10.00"> &gt;::processSendStack</text>
</a>
</g>
</g>
<!-- Node1&#45;&gt;Node4 -->
<g id="edge3_Node000001_Node000004" class="edge">
<title>Node1&#45;&gt;Node4</title>
<g id="a_edge3_Node000001_Node000004"><a xlink:title=" ">
<path fill="none" stroke="#63b8ff" d="M148.48,-99.49C156.26,-98.29 164.25,-97.05 172.24,-95.81"/>
<polygon fill="#63b8ff" stroke="#63b8ff" points="172.67,-99.28 182.02,-94.29 171.6,-92.37 172.67,-99.28"/>
</a>
</g>
</g>
<!-- Node5 -->
<g id="Node000005" class="node">
<title>Node5</title>
<g id="a_Node000005"><a xlink:href="class_service_interface.html#a4dffc7c3e366b470e1075db65333b67e" target="_top" xlink:title=" ">
<polygon fill="white" stroke="#666666" points="355.25,-41.75 184,-41.75 184,0 355.25,0 355.25,-41.75"/>
<text text-anchor="start" x="192" y="-28.25" font-family="Helvetica,sans-Serif" font-size="10.00">ServiceInterface&lt; CommInterface</text>
<text text-anchor="start" x="192" y="-17" font-family="Helvetica,sans-Serif" font-size="10.00">_modbusRTU, Frame_modbusRTU</text>
<text text-anchor="middle" x="269.62" y="-5.75" font-family="Helvetica,sans-Serif" font-size="10.00"> &gt;::processServices</text>
</a>
</g>
</g>
<!-- Node1&#45;&gt;Node5 -->
<g id="edge4_Node000001_Node000005" class="edge">
<title>Node1&#45;&gt;Node5</title>
<g id="a_edge4_Node000001_Node000005"><a xlink:title=" ">
<path fill="none" stroke="#63b8ff" d="M100.38,-95.36C122.1,-82.46 154.44,-64.14 184,-50.88 187.34,-49.37 190.78,-47.9 194.28,-46.45"/>
<polygon fill="#63b8ff" stroke="#63b8ff" points="195.48,-49.74 203.47,-42.78 192.88,-43.24 195.48,-49.74"/>
</a>
</g>
</g>
</g>
</svg>
