<?xml version="1.0" encoding="UTF-8" standalone="no"?>
<!DOCTYPE svg PUBLIC "-//W3C//DTD SVG 1.1//EN"
 "http://www.w3.org/Graphics/SVG/1.1/DTD/svg11.dtd">
<!-- Generated by graphviz version 12.1.2 (20240928.0832)
 -->
<!-- Title: Content_stack::empty Pages: 1 -->
<svg width="505pt" height="469pt"
 viewBox="0.00 0.00 504.50 468.88" xmlns="http://www.w3.org/2000/svg" xmlns:xlink="http://www.w3.org/1999/xlink">
<g id="graph0" class="graph" transform="scale(1 1) rotate(0) translate(4 464.88)">
<title>Content_stack::empty</title>
<!-- Node1 -->
<g id="Node000001" class="node">
<title>Node1</title>
<g id="a_Node000001"><a xlink:title="Check if the Stack is empty (size is 0)">
<polygon fill="#999999" stroke="#666666" points="496.5,-222.25 383.75,-222.25 383.75,-203 496.5,-203 496.5,-222.25"/>
<text text-anchor="middle" x="440.12" y="-208.75" font-family="Helvetica,sans-Serif" font-size="10.00">Content_stack::empty</text>
</a>
</g>
</g>
<!-- Node2 -->
<g id="Node000002" class="node">
<title>Node2</title>
<g id="a_Node000002"><a xlink:href="class_service_interface.html#a48cffd1603069be11ee25c930a139c84" target="_top" xlink:title="Add PDUs from all received frames to the corresponding services.">
<polygon fill="white" stroke="#666666" points="329.38,-460.88 198.62,-460.88 198.62,-430.38 329.38,-430.38 329.38,-460.88"/>
<text text-anchor="start" x="206.62" y="-447.38" font-family="Helvetica,sans-Serif" font-size="10.00">ServiceInterface::addPDU</text>
<text text-anchor="middle" x="264" y="-436.12" font-family="Helvetica,sans-Serif" font-size="10.00">_to_services</text>
</a>
</g>
</g>
<!-- Node1&#45;&gt;Node2 -->
<g id="edge1_Node000001_Node000002" class="edge">
<title>Node1&#45;&gt;Node2</title>
<g id="a_edge1_Node000001_Node000002"><a xlink:title=" ">
<path fill="none" stroke="#63b8ff" d="M435.82,-233.84C428.16,-275.78 405.27,-369.66 347.75,-420.62 342.47,-425.3 336.34,-429.11 329.85,-432.2"/>
<polygon fill="#63b8ff" stroke="#63b8ff" points="439.25,-234.53 437.47,-224.09 432.35,-233.36 439.25,-234.53"/>
</a>
</g>
</g>
<!-- Node3 -->
<g id="Node000003" class="node">
<title>Node3</title>
<g id="a_Node000003"><a xlink:href="classarduino_mocking_1_1_software_serial.html#a17c94423c8f8cbfda9d5e6c4ae04ed69" target="_top" xlink:title="Returns the number of available bytes in the internal queue.">
<polygon fill="white" stroke="#666666" points="328.62,-362.88 199.38,-362.88 199.38,-332.38 328.62,-332.38 328.62,-362.88"/>
<text text-anchor="start" x="207.38" y="-349.38" font-family="Helvetica,sans-Serif" font-size="10.00">arduinoMocking::Software</text>
<text text-anchor="middle" x="264" y="-338.12" font-family="Helvetica,sans-Serif" font-size="10.00">Serial::available</text>
</a>
</g>
</g>
<!-- Node1&#45;&gt;Node3 -->
<g id="edge2_Node000001_Node000003" class="edge">
<title>Node1&#45;&gt;Node3</title>
<g id="a_edge2_Node000001_Node000003"><a xlink:title=" ">
<path fill="none" stroke="#63b8ff" d="M428,-232.43C412.98,-257.37 383.89,-299.83 347.75,-323.62 342,-327.41 335.65,-330.61 329.09,-333.31"/>
<polygon fill="#63b8ff" stroke="#63b8ff" points="430.94,-234.33 432.96,-223.93 424.9,-230.8 430.94,-234.33"/>
</a>
</g>
</g>
<!-- Node5 -->
<g id="Node000005" class="node">
<title>Node5</title>
<g id="a_Node000005"><a xlink:href="classarduino_mocking_1_1_software_serial.html#a5785050c0162a9c4285b822d1dd940a1" target="_top" xlink:title="Empties the internal queue and prints the flushed data to the console.">
<polygon fill="white" stroke="#666666" points="328.62,-411.88 199.38,-411.88 199.38,-381.38 328.62,-381.38 328.62,-411.88"/>
<text text-anchor="start" x="207.38" y="-398.38" font-family="Helvetica,sans-Serif" font-size="10.00">arduinoMocking::Software</text>
<text text-anchor="middle" x="264" y="-387.12" font-family="Helvetica,sans-Serif" font-size="10.00">Serial::flush</text>
</a>
</g>
</g>
<!-- Node1&#45;&gt;Node5 -->
<g id="edge4_Node000001_Node000005" class="edge">
<title>Node1&#45;&gt;Node5</title>
<g id="a_edge4_Node000001_Node000005"><a xlink:title=" ">
<path fill="none" stroke="#63b8ff" d="M432.79,-233.45C421.39,-267.44 394.15,-334.76 347.75,-371.62 342.11,-376.11 335.67,-379.79 328.94,-382.81"/>
<polygon fill="#63b8ff" stroke="#63b8ff" points="436.1,-234.58 435.82,-223.99 429.44,-232.45 436.1,-234.58"/>
</a>
</g>
</g>
<!-- Node7 -->
<g id="Node000007" class="node">
<title>Node7</title>
<g id="a_Node000007"><a xlink:href="class_service.html#a601e6d2878ce2b292a3b7c6428f0d51f" target="_top" xlink:title="Get the get the response&#45;payload, stored at the response_pdu of the service instance">
<polygon fill="white" stroke="#666666" points="320.75,-314.25 207.25,-314.25 207.25,-295 320.75,-295 320.75,-314.25"/>
<text text-anchor="middle" x="264" y="-300.75" font-family="Helvetica,sans-Serif" font-size="10.00">Service::get_response</text>
</a>
</g>
</g>
<!-- Node1&#45;&gt;Node7 -->
<g id="edge6_Node000001_Node000007" class="edge">
<title>Node1&#45;&gt;Node7</title>
<g id="a_edge6_Node000001_Node000007"><a xlink:title=" ">
<path fill="none" stroke="#63b8ff" d="M421.76,-230.54C404.51,-247.28 376.55,-271.71 347.75,-285.62 339.39,-289.66 330.13,-292.86 320.92,-295.4"/>
<polygon fill="#63b8ff" stroke="#63b8ff" points="424.05,-233.19 428.67,-223.65 419.12,-228.23 424.05,-233.19"/>
</a>
</g>
</g>
<!-- Node8 -->
<g id="Node000008" class="node">
<title>Node8</title>
<g id="a_Node000008"><a xlink:href="classarduino_mocking_1_1_software_serial.html#ae70b691c402eede6805828c476b96bf5" target="_top" xlink:title="Returns the next character in the queue without removing it.">
<polygon fill="white" stroke="#666666" points="328.62,-276.88 199.38,-276.88 199.38,-246.38 328.62,-246.38 328.62,-276.88"/>
<text text-anchor="start" x="207.38" y="-263.38" font-family="Helvetica,sans-Serif" font-size="10.00">arduinoMocking::Software</text>
<text text-anchor="middle" x="264" y="-252.12" font-family="Helvetica,sans-Serif" font-size="10.00">Serial::peek</text>
</a>
</g>
</g>
<!-- Node1&#45;&gt;Node8 -->
<g id="edge7_Node000001_Node000008" class="edge">
<title>Node1&#45;&gt;Node8</title>
<g id="a_edge7_Node000001_Node000008"><a xlink:title=" ">
<path fill="none" stroke="#63b8ff" d="M392.39,-225.78C370.36,-231.97 343.91,-239.42 320.84,-245.91"/>
<polygon fill="#63b8ff" stroke="#63b8ff" points="393.33,-229.15 402.01,-223.07 391.44,-222.41 393.33,-229.15"/>
</a>
</g>
</g>
<!-- Node9 -->
<g id="Node000009" class="node">
<title>Node9</title>
<g id="a_Node000009"><a xlink:href="class_service_interface.html#a23feb243ed1748e04dd757aa5f788b3e" target="_top" xlink:title="Send all Frames, stored in the sendStack. As long as the sendStack is not empty, the function is gett...">
<polygon fill="white" stroke="#666666" points="327.88,-227.88 200.12,-227.88 200.12,-197.38 327.88,-197.38 327.88,-227.88"/>
<text text-anchor="start" x="208.12" y="-214.38" font-family="Helvetica,sans-Serif" font-size="10.00">ServiceInterface::process</text>
<text text-anchor="middle" x="264" y="-203.12" font-family="Helvetica,sans-Serif" font-size="10.00">SendStack</text>
</a>
</g>
</g>
<!-- Node1&#45;&gt;Node9 -->
<g id="edge9_Node000001_Node000009" class="edge">
<title>Node1&#45;&gt;Node9</title>
<g id="a_edge9_Node000001_Node000009"><a xlink:title=" ">
<path fill="none" stroke="#63b8ff" d="M372.17,-212.62C357.73,-212.62 342.51,-212.62 328.22,-212.62"/>
<polygon fill="#63b8ff" stroke="#63b8ff" points="372.04,-216.13 382.04,-212.63 372.04,-209.13 372.04,-216.13"/>
</a>
</g>
</g>
<!-- Node10 -->
<g id="Node000010" class="node">
<title>Node10</title>
<g id="a_Node000010"><a xlink:href="classarduino_mocking_1_1_software_serial.html#a892a38a5eb6b0c115c2745098c9637ad" target="_top" xlink:title="Reads a character from the internal queue.">
<polygon fill="white" stroke="#666666" points="328.62,-178.88 199.38,-178.88 199.38,-148.38 328.62,-148.38 328.62,-178.88"/>
<text text-anchor="start" x="207.38" y="-165.38" font-family="Helvetica,sans-Serif" font-size="10.00">arduinoMocking::Software</text>
<text text-anchor="middle" x="264" y="-154.12" font-family="Helvetica,sans-Serif" font-size="10.00">Serial::read</text>
</a>
</g>
</g>
<!-- Node1&#45;&gt;Node10 -->
<g id="edge10_Node000001_Node000010" class="edge">
<title>Node1&#45;&gt;Node10</title>
<g id="a_edge10_Node000001_Node000010"><a xlink:title=" ">
<path fill="none" stroke="#63b8ff" d="M392.39,-199.47C370.36,-193.28 343.91,-185.83 320.84,-179.34"/>
<polygon fill="#63b8ff" stroke="#63b8ff" points="391.44,-202.84 402.01,-202.18 393.33,-196.1 391.44,-202.84"/>
</a>
</g>
</g>
<!-- Node11 -->
<g id="Node000011" class="node">
<title>Node11</title>
<g id="a_Node000011"><a xlink:href="class_service.html#ad0a6407e13cd84f81393d96273212822" target="_top" xlink:title="Check, if a response of the service is available (services sendStack not empty)">
<polygon fill="white" stroke="#666666" points="331.25,-130.25 196.75,-130.25 196.75,-111 331.25,-111 331.25,-130.25"/>
<text text-anchor="middle" x="264" y="-116.75" font-family="Helvetica,sans-Serif" font-size="10.00">Service::responseAvailable</text>
</a>
</g>
</g>
<!-- Node1&#45;&gt;Node11 -->
<g id="edge12_Node000001_Node000011" class="edge">
<title>Node1&#45;&gt;Node11</title>
<g id="a_edge12_Node000001_Node000011"><a xlink:title=" ">
<path fill="none" stroke="#63b8ff" d="M421.76,-194.71C404.51,-177.97 376.55,-153.54 347.75,-139.62 340.32,-136.04 332.18,-133.11 323.99,-130.72"/>
<polygon fill="#63b8ff" stroke="#63b8ff" points="419.12,-197.02 428.67,-201.6 424.05,-192.06 419.12,-197.02"/>
</a>
</g>
</g>
<!-- Node12 -->
<g id="Node000012" class="node">
<title>Node12</title>
<g id="a_Node000012"><a xlink:href="class_error_service.html#abdd6940a94fc8619c1ed31934b1cd3bd" target="_top" xlink:title="Processes all errors from the receive stack.">
<polygon fill="white" stroke="#666666" points="338.38,-93.25 189.62,-93.25 189.62,-74 338.38,-74 338.38,-93.25"/>
<text text-anchor="middle" x="264" y="-79.75" font-family="Helvetica,sans-Serif" font-size="10.00">ErrorService::stackProcessing</text>
</a>
</g>
</g>
<!-- Node1&#45;&gt;Node12 -->
<g id="edge13_Node000001_Node000012" class="edge">
<title>Node1&#45;&gt;Node12</title>
<g id="a_edge13_Node000001_Node000012"><a xlink:title=" ">
<path fill="none" stroke="#63b8ff" d="M428.47,-192.82C413.78,-167.51 384.87,-124.28 347.75,-101.62 342.61,-98.48 336.99,-95.89 331.18,-93.74"/>
<polygon fill="#63b8ff" stroke="#63b8ff" points="425.35,-194.42 433.3,-201.43 431.46,-190.99 425.35,-194.42"/>
</a>
</g>
</g>
<!-- Node13 -->
<g id="Node000013" class="node">
<title>Node13</title>
<g id="a_Node000013"><a xlink:href="class_message_service.html#ae02abdc8b83f6c62353dda1a42b2f1ff" target="_top" xlink:title="Processes all messages from the receive stack.">
<polygon fill="white" stroke="#666666" points="347.75,-56.25 180.25,-56.25 180.25,-37 347.75,-37 347.75,-56.25"/>
<text text-anchor="middle" x="264" y="-42.75" font-family="Helvetica,sans-Serif" font-size="10.00">MessageService::stackProcessing</text>
</a>
</g>
</g>
<!-- Node1&#45;&gt;Node13 -->
<g id="edge14_Node000001_Node000013" class="edge">
<title>Node1&#45;&gt;Node13</title>
<g id="a_edge14_Node000001_Node000013"><a xlink:title=" ">
<path fill="none" stroke="#63b8ff" d="M432.35,-191.94C420.6,-159.44 393.21,-96.8 347.75,-64.62 343.31,-61.48 338.42,-58.87 333.32,-56.71"/>
<polygon fill="#63b8ff" stroke="#63b8ff" points="429.03,-193.05 435.61,-201.36 435.65,-190.77 429.03,-193.05"/>
</a>
</g>
</g>
<!-- Node14 -->
<g id="Node000014" class="node">
<title>Node14</title>
<g id="a_Node000014"><a xlink:href="class_service.html#a3eafa52c7f4bfe29698ba4a91c75dc75" target="_top" xlink:title="Execute the service&#39;s functions for each item on the receive&#45;stack and add all response&#45;payloads to b...">
<polygon fill="white" stroke="#666666" points="327.88,-19.25 200.12,-19.25 200.12,0 327.88,0 327.88,-19.25"/>
<text text-anchor="middle" x="264" y="-5.75" font-family="Helvetica,sans-Serif" font-size="10.00">Service::stackProcessing</text>
</a>
</g>
</g>
<!-- Node1&#45;&gt;Node14 -->
<g id="edge15_Node000001_Node000014" class="edge">
<title>Node1&#45;&gt;Node14</title>
<g id="a_edge15_Node000001_Node000014"><a xlink:title=" ">
<path fill="none" stroke="#63b8ff" d="M434.98,-191.53C426.2,-152.67 401.89,-69.92 347.75,-27.62 341.96,-23.1 335.27,-19.66 328.26,-17.04"/>
<polygon fill="#63b8ff" stroke="#63b8ff" points="431.54,-192.16 437.03,-201.21 438.39,-190.71 431.54,-192.16"/>
</a>
</g>
</g>
<!-- Node4 -->
<g id="Node000004" class="node">
<title>Node4</title>
<g id="a_Node000004"><a xlink:href="class_comm_interface__modbus_r_t_u.html#a50b42ad0a40a82ebe5a7749313ca2283" target="_top" xlink:title="Receives a Modbus RTU frame and writes it to receiveBuffer.">
<polygon fill="white" stroke="#666666" points="144.25,-276.88 0,-276.88 0,-246.38 144.25,-246.38 144.25,-276.88"/>
<text text-anchor="start" x="8" y="-263.38" font-family="Helvetica,sans-Serif" font-size="10.00">CommInterface_modbusRTU</text>
<text text-anchor="middle" x="72.12" y="-252.12" font-family="Helvetica,sans-Serif" font-size="10.00">::receive</text>
</a>
</g>
</g>
<!-- Node3&#45;&gt;Node4 -->
<g id="edge3_Node000003_Node000004" class="edge">
<title>Node3&#45;&gt;Node4</title>
<g id="a_edge3_Node000003_Node000004"><a xlink:title=" ">
<path fill="none" stroke="#63b8ff" d="M192.01,-328.28C187.99,-326.8 184.05,-325.25 180.25,-323.62 149.82,-310.63 117.23,-290.84 96.1,-277.12"/>
<polygon fill="#63b8ff" stroke="#63b8ff" points="190.71,-331.53 201.3,-331.51 193.01,-324.92 190.71,-331.53"/>
</a>
</g>
</g>
<!-- Node6 -->
<g id="Node000006" class="node">
<title>Node6</title>
<g id="a_Node000006"><a xlink:href="class_comm_interface__modbus_r_t_u.html#a0e78a2a6e3b5b029609c2b16c21bd85b" target="_top" xlink:title="Override of CommInterface send&#45;function. Send the frame, sendBuffer is pointing to by writing and flu...">
<polygon fill="white" stroke="#666666" points="144.25,-411.88 0,-411.88 0,-381.38 144.25,-381.38 144.25,-411.88"/>
<text text-anchor="start" x="8" y="-398.38" font-family="Helvetica,sans-Serif" font-size="10.00">CommInterface_modbusRTU</text>
<text text-anchor="middle" x="72.12" y="-387.12" font-family="Helvetica,sans-Serif" font-size="10.00">::send</text>
</a>
</g>
</g>
<!-- Node5&#45;&gt;Node6 -->
<g id="edge5_Node000005_Node000006" class="edge">
<title>Node5&#45;&gt;Node6</title>
<g id="a_edge5_Node000005_Node000006"><a xlink:title=" ">
<path fill="none" stroke="#63b8ff" d="M187.76,-396.62C173.58,-396.62 158.78,-396.62 144.7,-396.62"/>
<polygon fill="#63b8ff" stroke="#63b8ff" points="187.47,-400.13 197.47,-396.63 187.47,-393.13 187.47,-400.13"/>
</a>
</g>
</g>
<!-- Node8&#45;&gt;Node4 -->
<g id="edge8_Node000008_Node000004" class="edge">
<title>Node8&#45;&gt;Node4</title>
<g id="a_edge8_Node000008_Node000004"><a xlink:title=" ">
<path fill="none" stroke="#63b8ff" d="M187.76,-261.62C173.58,-261.62 158.78,-261.62 144.7,-261.62"/>
<polygon fill="#63b8ff" stroke="#63b8ff" points="187.47,-265.13 197.47,-261.63 187.47,-258.13 187.47,-265.13"/>
</a>
</g>
</g>
<!-- Node10&#45;&gt;Node4 -->
<g id="edge11_Node000010_Node000004" class="edge">
<title>Node10&#45;&gt;Node4</title>
<g id="a_edge11_Node000010_Node000004"><a xlink:title=" ">
<path fill="none" stroke="#63b8ff" d="M192.69,-183.22C188.43,-184.91 184.25,-186.71 180.25,-188.62 147.15,-204.44 112.77,-229.71 92.16,-245.98"/>
<polygon fill="#63b8ff" stroke="#63b8ff" points="193.83,-186.53 201.98,-179.76 191.39,-179.97 193.83,-186.53"/>
</a>
</g>
</g>
</g>
</svg>
