<?xml version="1.0" encoding="UTF-8" standalone="no"?>
<!DOCTYPE svg PUBLIC "-//W3C//DTD SVG 1.1//EN"
 "http://www.w3.org/Graphics/SVG/1.1/DTD/svg11.dtd">
<!-- Generated by graphviz version 12.1.2 (20240928.0832)
 -->
<!-- Title: Content::get_content Pages: 1 -->
<svg width="319pt" height="113pt"
 viewBox="0.00 0.00 319.00 112.88" xmlns="http://www.w3.org/2000/svg" xmlns:xlink="http://www.w3.org/1999/xlink">
<g id="graph0" class="graph" transform="scale(1 1) rotate(0) translate(4 108.88)">
<title>Content::get_content</title>
<!-- Node1 -->
<g id="Node000001" class="node">
<title>Node1</title>
<g id="a_Node000001"><a xlink:title="Get the address of the informations content of type content_type.">
<polygon fill="#999999" stroke="#666666" points="311,-56.25 203.5,-56.25 203.5,-37 311,-37 311,-56.25"/>
<text text-anchor="middle" x="257.25" y="-42.75" font-family="Helvetica,sans-Serif" font-size="10.00">Content::get_content</text>
</a>
</g>
</g>
<!-- Node2 -->
<g id="Node000002" class="node">
<title>Node2</title>
<g id="a_Node000002"><a xlink:href="class_message_service.html#acc78431dec13eaa6b2d6c325ad84578c" target="_top" xlink:title="Retrieves the destination instance ID for the current response PDU in the send stack.">
<polygon fill="white" stroke="#666666" points="137.88,-104.88 29.62,-104.88 29.62,-74.38 137.88,-74.38 137.88,-104.88"/>
<text text-anchor="start" x="37.62" y="-91.38" font-family="Helvetica,sans-Serif" font-size="10.00">MessageService::get</text>
<text text-anchor="middle" x="83.75" y="-80.12" font-family="Helvetica,sans-Serif" font-size="10.00">_destinationId</text>
</a>
</g>
</g>
<!-- Node1&#45;&gt;Node2 -->
<g id="edge1_Node000001_Node000002" class="edge">
<title>Node1&#45;&gt;Node2</title>
<g id="a_edge1_Node000001_Node000002"><a xlink:title=" ">
<path fill="none" stroke="#63b8ff" d="M205.06,-59.46C184.01,-64.74 159.63,-70.85 138.35,-76.19"/>
<polygon fill="#63b8ff" stroke="#63b8ff" points="205.72,-62.9 214.57,-57.07 204.02,-56.11 205.72,-62.9"/>
</a>
</g>
</g>
<!-- Node3 -->
<g id="Node000003" class="node">
<title>Node3</title>
<g id="a_Node000003"><a xlink:href="class_error_service.html#abdd6940a94fc8619c1ed31934b1cd3bd" target="_top" xlink:title="Processes all errors from the receive stack.">
<polygon fill="white" stroke="#666666" points="158.12,-56.25 9.38,-56.25 9.38,-37 158.12,-37 158.12,-56.25"/>
<text text-anchor="middle" x="83.75" y="-42.75" font-family="Helvetica,sans-Serif" font-size="10.00">ErrorService::stackProcessing</text>
</a>
</g>
</g>
<!-- Node1&#45;&gt;Node3 -->
<g id="edge2_Node000001_Node000003" class="edge">
<title>Node1&#45;&gt;Node3</title>
<g id="a_edge2_Node000001_Node000003"><a xlink:title=" ">
<path fill="none" stroke="#63b8ff" d="M192.18,-46.62C181.22,-46.62 169.75,-46.62 158.55,-46.62"/>
<polygon fill="#63b8ff" stroke="#63b8ff" points="191.88,-50.13 201.88,-46.63 191.88,-43.13 191.88,-50.13"/>
</a>
</g>
</g>
<!-- Node4 -->
<g id="Node000004" class="node">
<title>Node4</title>
<g id="a_Node000004"><a xlink:href="class_message_service.html#ae02abdc8b83f6c62353dda1a42b2f1ff" target="_top" xlink:title="Processes all messages from the receive stack.">
<polygon fill="white" stroke="#666666" points="167.5,-19.25 0,-19.25 0,0 167.5,0 167.5,-19.25"/>
<text text-anchor="middle" x="83.75" y="-5.75" font-family="Helvetica,sans-Serif" font-size="10.00">MessageService::stackProcessing</text>
</a>
</g>
</g>
<!-- Node1&#45;&gt;Node4 -->
<g id="edge3_Node000001_Node000004" class="edge">
<title>Node1&#45;&gt;Node4</title>
<g id="a_edge3_Node000001_Node000004"><a xlink:title=" ">
<path fill="none" stroke="#63b8ff" d="M198.3,-34.12C176.56,-29.43 152.16,-24.17 131.56,-19.72"/>
<polygon fill="#63b8ff" stroke="#63b8ff" points="197.39,-37.51 207.91,-36.2 198.87,-30.67 197.39,-37.51"/>
</a>
</g>
</g>
</g>
</svg>
