<?xml version="1.0" encoding="UTF-8" standalone="no"?>
<!DOCTYPE svg PUBLIC "-//W3C//DTD SVG 1.1//EN"
 "http://www.w3.org/Graphics/SVG/1.1/DTD/svg11.dtd">
<!-- Generated by graphviz version 12.1.2 (20240928.0832)
 -->
<!-- Title: ServiceClusterBase::getService_byID Pages: 1 -->
<svg width="446pt" height="88pt"
 viewBox="0.00 0.00 446.00 87.50" xmlns="http://www.w3.org/2000/svg" xmlns:xlink="http://www.w3.org/1999/xlink">
<g id="graph0" class="graph" transform="scale(1 1) rotate(0) translate(4 83.5)">
<title>ServiceClusterBase::getService_byID</title>
<!-- Node1 -->
<g id="Node000001" class="node">
<title>Node1</title>
<g id="a_Node000001"><a xlink:title="Get pointer to the service with the given service&#45;ID by iterating through the associated services and...">
<polygon fill="#999999" stroke="#666666" points="438,-54.5 335,-54.5 335,-24 438,-24 438,-54.5"/>
<text text-anchor="start" x="343" y="-41" font-family="Helvetica,sans-Serif" font-size="10.00">ServiceClusterBase</text>
<text text-anchor="middle" x="386.5" y="-29.75" font-family="Helvetica,sans-Serif" font-size="10.00">::getService_byID</text>
</a>
</g>
</g>
<!-- Node2 -->
<g id="Node000002" class="node">
<title>Node2</title>
<g id="a_Node000002"><a xlink:href="class_service_interface.html#a42226b8c236c344b6c5d171736a08f6e" target="_top" xlink:title="Check if an ErrorService is registered in the service cluster under the defined ERRORSERVICE_ID of th...">
<polygon fill="white" stroke="#666666" points="299,-48.88 163.75,-48.88 163.75,-29.62 299,-29.62 299,-48.88"/>
<text text-anchor="middle" x="231.38" y="-35.38" font-family="Helvetica,sans-Serif" font-size="10.00">ServiceInterface::raiseError</text>
</a>
</g>
</g>
<!-- Node1&#45;&gt;Node2 -->
<g id="edge1_Node000001_Node000002" class="edge">
<title>Node1&#45;&gt;Node2</title>
<g id="a_edge1_Node000001_Node000002"><a xlink:title=" ">
<path fill="none" stroke="#63b8ff" d="M323.24,-39.25C315.41,-39.25 307.38,-39.25 299.49,-39.25"/>
<polygon fill="#63b8ff" stroke="#63b8ff" points="323,-42.75 333,-39.25 323,-35.75 323,-42.75"/>
</a>
</g>
</g>
<!-- Node3 -->
<g id="Node000003" class="node">
<title>Node3</title>
<g id="a_Node000003"><a xlink:href="class_service_interface.html#a7c5ec5e13af8a67d1b08c963fcd71214" target="_top" xlink:title="Add items received by the CommInterface to the recStack and execute the CommInterface&#39;s receiveCycle ...">
<polygon fill="white" stroke="#666666" points="127.75,-79.5 0,-79.5 0,-49 127.75,-49 127.75,-79.5"/>
<text text-anchor="start" x="8" y="-66" font-family="Helvetica,sans-Serif" font-size="10.00">ServiceInterface::process</text>
<text text-anchor="middle" x="63.88" y="-54.75" font-family="Helvetica,sans-Serif" font-size="10.00">RecStack</text>
</a>
</g>
</g>
<!-- Node2&#45;&gt;Node3 -->
<g id="edge2_Node000002_Node000003" class="edge">
<title>Node2&#45;&gt;Node3</title>
<g id="a_edge2_Node000002_Node000003"><a xlink:title=" ">
<path fill="none" stroke="#63b8ff" d="M152.23,-51.05C144.18,-52.27 136.07,-53.5 128.21,-54.68"/>
<polygon fill="#63b8ff" stroke="#63b8ff" points="152.68,-54.53 162.04,-49.57 151.63,-47.61 152.68,-54.53"/>
</a>
</g>
</g>
<!-- Node4 -->
<g id="Node000004" class="node">
<title>Node4</title>
<g id="a_Node000004"><a xlink:href="class_service_interface.html#a23feb243ed1748e04dd757aa5f788b3e" target="_top" xlink:title="Send all Frames, stored in the sendStack. As long as the sendStack is not empty, the function is gett...">
<polygon fill="white" stroke="#666666" points="127.75,-30.5 0,-30.5 0,0 127.75,0 127.75,-30.5"/>
<text text-anchor="start" x="8" y="-17" font-family="Helvetica,sans-Serif" font-size="10.00">ServiceInterface::process</text>
<text text-anchor="middle" x="63.88" y="-5.75" font-family="Helvetica,sans-Serif" font-size="10.00">SendStack</text>
</a>
</g>
</g>
<!-- Node2&#45;&gt;Node4 -->
<g id="edge3_Node000002_Node000004" class="edge">
<title>Node2&#45;&gt;Node4</title>
<g id="a_edge3_Node000002_Node000004"><a xlink:title=" ">
<path fill="none" stroke="#63b8ff" d="M152.23,-27.92C144.18,-26.75 136.07,-25.57 128.21,-24.43"/>
<polygon fill="#63b8ff" stroke="#63b8ff" points="151.64,-31.37 162.04,-29.34 152.64,-24.44 151.64,-31.37"/>
</a>
</g>
</g>
</g>
</svg>
