<?xml version="1.0" encoding="UTF-8" standalone="no"?>
<!DOCTYPE svg PUBLIC "-//W3C//DTD SVG 1.1//EN"
 "http://www.w3.org/Graphics/SVG/1.1/DTD/svg11.dtd">
<!-- Generated by graphviz version 12.1.2 (20240928.0832)
 -->
<!-- Title: ErrorState::getErrorState Pages: 1 -->
<svg width="312pt" height="174pt"
 viewBox="0.00 0.00 312.25 173.88" xmlns="http://www.w3.org/2000/svg" xmlns:xlink="http://www.w3.org/1999/xlink">
<g id="graph0" class="graph" transform="scale(1 1) rotate(0) translate(4 169.88)">
<title>ErrorState::getErrorState</title>
<!-- Node1 -->
<g id="Node000001" class="node">
<title>Node1</title>
<g id="a_Node000001"><a xlink:title="Get the currently active error&#45;code.">
<polygon fill="#999999" stroke="#666666" points="304.25,-97.88 180.25,-97.88 180.25,-78.62 304.25,-78.62 304.25,-97.88"/>
<text text-anchor="middle" x="242.25" y="-84.38" font-family="Helvetica,sans-Serif" font-size="10.00">ErrorState::getErrorState</text>
</a>
</g>
</g>
<!-- Node2 -->
<g id="Node000002" class="node">
<title>Node2</title>
<g id="a_Node000002"><a xlink:href="class_service_cluster.html#a248bf50b452a17743e53f8e5eb3790f1" target="_top" xlink:title="Add the payload of the referenced Frame to the belonging Service (Multiplexing by Service&#45;ID)">
<polygon fill="white" stroke="#666666" points="137.5,-165.88 6.75,-165.88 6.75,-146.62 137.5,-146.62 137.5,-165.88"/>
<text text-anchor="middle" x="72.12" y="-152.38" font-family="Helvetica,sans-Serif" font-size="10.00">ServiceCluster::impartPdu</text>
</a>
</g>
</g>
<!-- Node1&#45;&gt;Node2 -->
<g id="edge1_Node000001_Node000002" class="edge">
<title>Node1&#45;&gt;Node2</title>
<g id="a_edge1_Node000001_Node000002"><a xlink:title=" ">
<path fill="none" stroke="#63b8ff" d="M214.43,-103.69C195.33,-114.22 168.79,-127.89 144.25,-137.25 135.41,-140.62 125.74,-143.63 116.46,-146.21"/>
<polygon fill="#63b8ff" stroke="#63b8ff" points="215.88,-106.89 222.9,-98.96 212.46,-100.78 215.88,-106.89"/>
</a>
</g>
</g>
<!-- Node3 -->
<g id="Node000003" class="node">
<title>Node3</title>
<g id="a_Node000003"><a xlink:href="class_service_interface.html#a7c5ec5e13af8a67d1b08c963fcd71214" target="_top" xlink:title="Add items received by the CommInterface to the recStack and execute the CommInterface&#39;s receiveCycle ...">
<polygon fill="white" stroke="#666666" points="136,-128.5 8.25,-128.5 8.25,-98 136,-98 136,-128.5"/>
<text text-anchor="start" x="16.25" y="-115" font-family="Helvetica,sans-Serif" font-size="10.00">ServiceInterface::process</text>
<text text-anchor="middle" x="72.12" y="-103.75" font-family="Helvetica,sans-Serif" font-size="10.00">RecStack</text>
</a>
</g>
</g>
<!-- Node1&#45;&gt;Node3 -->
<g id="edge2_Node000001_Node000003" class="edge">
<title>Node1&#45;&gt;Node3</title>
<g id="a_edge2_Node000001_Node000003"><a xlink:title=" ">
<path fill="none" stroke="#63b8ff" d="M168.88,-99.01C158.01,-100.63 146.88,-102.28 136.23,-103.87"/>
<polygon fill="#63b8ff" stroke="#63b8ff" points="169.2,-102.5 178.58,-97.57 168.17,-95.58 169.2,-102.5"/>
</a>
</g>
</g>
<!-- Node4 -->
<g id="Node000004" class="node">
<title>Node4</title>
<g id="a_Node000004"><a xlink:href="class_service_interface.html#a23feb243ed1748e04dd757aa5f788b3e" target="_top" xlink:title="Send all Frames, stored in the sendStack. As long as the sendStack is not empty, the function is gett...">
<polygon fill="white" stroke="#666666" points="136,-79.5 8.25,-79.5 8.25,-49 136,-49 136,-79.5"/>
<text text-anchor="start" x="16.25" y="-66" font-family="Helvetica,sans-Serif" font-size="10.00">ServiceInterface::process</text>
<text text-anchor="middle" x="72.12" y="-54.75" font-family="Helvetica,sans-Serif" font-size="10.00">SendStack</text>
</a>
</g>
</g>
<!-- Node1&#45;&gt;Node4 -->
<g id="edge3_Node000001_Node000004" class="edge">
<title>Node1&#45;&gt;Node4</title>
<g id="a_edge3_Node000001_Node000004"><a xlink:title=" ">
<path fill="none" stroke="#63b8ff" d="M168.88,-77.92C158.01,-76.37 146.88,-74.78 136.23,-73.26"/>
<polygon fill="#63b8ff" stroke="#63b8ff" points="168.18,-81.36 178.58,-79.3 169.17,-74.43 168.18,-81.36"/>
</a>
</g>
</g>
<!-- Node5 -->
<g id="Node000005" class="node">
<title>Node5</title>
<g id="a_Node000005"><a xlink:href="class_comm_interface__modbus_r_t_u.html#a50b42ad0a40a82ebe5a7749313ca2283" target="_top" xlink:title="Receives a Modbus RTU frame and writes it to receiveBuffer.">
<polygon fill="white" stroke="#666666" points="144.25,-30.5 0,-30.5 0,0 144.25,0 144.25,-30.5"/>
<text text-anchor="start" x="8" y="-17" font-family="Helvetica,sans-Serif" font-size="10.00">CommInterface_modbusRTU</text>
<text text-anchor="middle" x="72.12" y="-5.75" font-family="Helvetica,sans-Serif" font-size="10.00">::receive</text>
</a>
</g>
</g>
<!-- Node1&#45;&gt;Node5 -->
<g id="edge4_Node000001_Node000005" class="edge">
<title>Node1&#45;&gt;Node5</title>
<g id="a_edge4_Node000001_Node000005"><a xlink:title=" ">
<path fill="none" stroke="#63b8ff" d="M212.48,-72.86C193.4,-62.95 167.66,-50.11 144.25,-40.25 136.65,-37.05 128.48,-33.91 120.49,-30.99"/>
<polygon fill="#63b8ff" stroke="#63b8ff" points="210.79,-75.93 221.27,-77.47 214.04,-69.73 210.79,-75.93"/>
</a>
</g>
</g>
</g>
</svg>
