<?xml version="1.0" encoding="UTF-8" standalone="no"?>
<!DOCTYPE svg PUBLIC "-//W3C//DTD SVG 1.1//EN"
 "http://www.w3.org/Graphics/SVG/1.1/DTD/svg11.dtd">
<!-- Generated by graphviz version 12.1.2 (20240928.0832)
 -->
<!-- Title: CommInterfaceBase Pages: 1 -->
<svg width="322pt" height="204pt"
 viewBox="0.00 0.00 321.62 204.25" xmlns="http://www.w3.org/2000/svg" xmlns:xlink="http://www.w3.org/1999/xlink">
<g id="graph0" class="graph" transform="scale(1 1) rotate(0) translate(4 200.25)">
<title>CommInterfaceBase</title>
<!-- Node1 -->
<g id="Node000001" class="node">
<title>Node1</title>
<g id="a_Node000001"><a xlink:title="Communcation&#45;Interface&#45;Base&#45;Class of the CommInterface template specifies a standardized interface to...">
<polygon fill="#999999" stroke="#666666" points="218.62,-141 112.62,-141 112.62,-121.75 218.62,-121.75 218.62,-141"/>
<text text-anchor="middle" x="165.62" y="-127.5" font-family="Helvetica,sans-Serif" font-size="10.00">CommInterfaceBase</text>
</a>
</g>
</g>
<!-- Node3 -->
<g id="Node000003" class="node">
<title>Node3</title>
<g id="a_Node000003"><a xlink:href="class_comm_interface.html" target="_top" xlink:title=" ">
<polygon fill="white" stroke="#666666" points="165.25,-80.12 0,-80.12 0,-60.88 165.25,-60.88 165.25,-80.12"/>
<text text-anchor="middle" x="82.62" y="-66.62" font-family="Helvetica,sans-Serif" font-size="10.00">CommInterface&lt; SoftwareSerial &gt;</text>
</a>
</g>
</g>
<!-- Node1&#45;&gt;Node3 -->
<g id="edge2_Node000001_Node000003" class="edge">
<title>Node1&#45;&gt;Node3</title>
<g id="a_edge2_Node000001_Node000003"><a xlink:title=" ">
<path fill="none" stroke="#63b8ff" d="M143.69,-114.81C128.27,-103.88 108.19,-89.64 95.35,-80.53"/>
<polygon fill="#63b8ff" stroke="#63b8ff" points="141.6,-117.63 151.78,-120.56 145.65,-111.92 141.6,-117.63"/>
</a>
</g>
</g>
<!-- Node5 -->
<g id="Node000005" class="node">
<title>Node5</title>
<g id="a_Node000005"><a xlink:href="class_comm_interface.html" target="_top" xlink:title="Template for generic communication&#45;interface specifies a standardized interface to use for integratin...">
<polygon fill="white" stroke="#666666" points="313.62,-85.75 183.62,-85.75 183.62,-55.25 313.62,-55.25 313.62,-85.75"/>
<text text-anchor="start" x="191.62" y="-72.25" font-family="Helvetica,sans-Serif" font-size="10.00">CommInterface&lt; interface</text>
<text text-anchor="middle" x="248.62" y="-61" font-family="Helvetica,sans-Serif" font-size="10.00">_type &gt;</text>
</a>
</g>
</g>
<!-- Node1&#45;&gt;Node5 -->
<g id="edge4_Node000001_Node000005" class="edge">
<title>Node1&#45;&gt;Node5</title>
<g id="a_edge4_Node000001_Node000005"><a xlink:title=" ">
<path fill="none" stroke="#63b8ff" d="M187.53,-114.84C200.11,-105.92 215.8,-94.78 228.14,-86.03"/>
<polygon fill="#63b8ff" stroke="#63b8ff" points="185.6,-111.92 179.47,-120.56 189.65,-117.63 185.6,-111.92"/>
</a>
</g>
</g>
<!-- Node2 -->
<g id="Node000002" class="node">
<title>Node2</title>
<g id="a_Node000002"><a xlink:href="class_error_state.html" target="_top" xlink:title="A class to manage and track error states using error codes.">
<polygon fill="white" stroke="#666666" points="195.75,-196.25 135.5,-196.25 135.5,-177 195.75,-177 195.75,-196.25"/>
<text text-anchor="middle" x="165.62" y="-182.75" font-family="Helvetica,sans-Serif" font-size="10.00">ErrorState</text>
</a>
</g>
</g>
<!-- Node2&#45;&gt;Node1 -->
<g id="edge1_Node000001_Node000002" class="edge">
<title>Node2&#45;&gt;Node1</title>
<g id="a_edge1_Node000001_Node000002"><a xlink:title=" ">
<path fill="none" stroke="#63b8ff" d="M165.62,-165.38C165.62,-157.09 165.62,-147.92 165.62,-141.36"/>
<polygon fill="#63b8ff" stroke="#63b8ff" points="162.13,-165.32 165.63,-175.32 169.13,-165.32 162.13,-165.32"/>
</a>
</g>
</g>
<!-- Node4 -->
<g id="Node000004" class="node">
<title>Node4</title>
<g id="a_Node000004"><a xlink:href="class_comm_interface__modbus_r_t_u.html" target="_top" xlink:title="The Modbus&#45;RTU CommInterface&#45;class specifies a communication interface with SoftwareSerial as interfa...">
<polygon fill="white" stroke="#666666" points="154.75,-19.25 10.5,-19.25 10.5,0 154.75,0 154.75,-19.25"/>
<text text-anchor="middle" x="82.62" y="-5.75" font-family="Helvetica,sans-Serif" font-size="10.00">CommInterface_modbusRTU</text>
</a>
</g>
</g>
<!-- Node3&#45;&gt;Node4 -->
<g id="edge3_Node000003_Node000004" class="edge">
<title>Node3&#45;&gt;Node4</title>
<g id="a_edge3_Node000003_Node000004"><a xlink:title=" ">
<path fill="none" stroke="#63b8ff" d="M82.62,-49.07C82.62,-39.04 82.62,-27.46 82.62,-19.65"/>
<polygon fill="#63b8ff" stroke="#63b8ff" points="79.13,-49.04 82.63,-59.04 86.13,-49.04 79.13,-49.04"/>
</a>
</g>
</g>
</g>
</svg>
