<?xml version="1.0" encoding="UTF-8" standalone="no"?>
<!DOCTYPE svg PUBLIC "-//W3C//DTD SVG 1.1//EN"
 "http://www.w3.org/Graphics/SVG/1.1/DTD/svg11.dtd">
<!-- Generated by graphviz version 12.1.2 (20240928.0832)
 -->
<!-- Title: ErrorService::stackProcessing Pages: 1 -->
<svg width="341pt" height="175pt"
 viewBox="0.00 0.00 340.75 175.25" xmlns="http://www.w3.org/2000/svg" xmlns:xlink="http://www.w3.org/1999/xlink">
<g id="graph0" class="graph" transform="scale(1 1) rotate(0) translate(4 171.25)">
<title>ErrorService::stackProcessing</title>
<!-- Node1 -->
<g id="Node000001" class="node">
<title>Node1</title>
<g id="a_Node000001"><a xlink:title="Processes all errors from the receive stack.">
<polygon fill="#999999" stroke="#666666" points="148.75,-93.25 0,-93.25 0,-74 148.75,-74 148.75,-93.25"/>
<text text-anchor="middle" x="74.38" y="-79.75" font-family="Helvetica,sans-Serif" font-size="10.00">ErrorService::stackProcessing</text>
</a>
</g>
</g>
<!-- Node2 -->
<g id="Node000002" class="node">
<title>Node2</title>
<g id="a_Node000002"><a xlink:href="class_content__stack.html#a3d5491c67763ef3c19780619d70cb59a" target="_top" xlink:title="Add item to stack.">
<polygon fill="white" stroke="#666666" points="327.5,-167.25 190,-167.25 190,-148 327.5,-148 327.5,-167.25"/>
<text text-anchor="middle" x="258.75" y="-153.75" font-family="Helvetica,sans-Serif" font-size="10.00">Content_stack::addElement</text>
</a>
</g>
</g>
<!-- Node1&#45;&gt;Node2 -->
<g id="edge1_Node000001_Node000002" class="edge">
<title>Node1&#45;&gt;Node2</title>
<g id="a_edge1_Node000001_Node000002"><a xlink:title=" ">
<path fill="none" stroke="#63b8ff" d="M91.87,-93.61C112.82,-105.92 150.38,-126.79 184.75,-139.62 189.42,-141.37 194.31,-142.99 199.27,-144.49"/>
<polygon fill="#63b8ff" stroke="#63b8ff" points="198.11,-147.8 208.69,-147.17 200.02,-141.07 198.11,-147.8"/>
</a>
</g>
</g>
<!-- Node3 -->
<g id="Node000003" class="node">
<title>Node3</title>
<g id="a_Node000003"><a xlink:href="class_content__stack.html#a7b2d11fd9ee9f45090a545031883edb6" target="_top" xlink:title="Delete item on index&#45;position from stack and shift all items with higher index, accepts only positive...">
<polygon fill="white" stroke="#666666" points="332.75,-130.25 184.75,-130.25 184.75,-111 332.75,-111 332.75,-130.25"/>
<text text-anchor="middle" x="258.75" y="-116.75" font-family="Helvetica,sans-Serif" font-size="10.00">Content_stack::deleteElement</text>
</a>
</g>
</g>
<!-- Node1&#45;&gt;Node3 -->
<g id="edge2_Node000001_Node000003" class="edge">
<title>Node1&#45;&gt;Node3</title>
<g id="a_edge2_Node000001_Node000003"><a xlink:title=" ">
<path fill="none" stroke="#63b8ff" d="M125.21,-93.74C147.32,-98.22 173.56,-103.54 196.82,-108.26"/>
<polygon fill="#63b8ff" stroke="#63b8ff" points="196,-111.67 206.49,-110.23 197.39,-104.81 196,-111.67"/>
</a>
</g>
</g>
<!-- Node4 -->
<g id="Node000004" class="node">
<title>Node4</title>
<g id="a_Node000004"><a xlink:href="class_content__stack.html#a4710d468535ed030bf5f67052e68eebb" target="_top" xlink:title="Check if the Stack is empty (size is 0)">
<polygon fill="white" stroke="#666666" points="315.12,-93.25 202.38,-93.25 202.38,-74 315.12,-74 315.12,-93.25"/>
<text text-anchor="middle" x="258.75" y="-79.75" font-family="Helvetica,sans-Serif" font-size="10.00">Content_stack::empty</text>
</a>
</g>
</g>
<!-- Node1&#45;&gt;Node4 -->
<g id="edge3_Node000001_Node000004" class="edge">
<title>Node1&#45;&gt;Node4</title>
<g id="a_edge3_Node000001_Node000004"><a xlink:title=" ">
<path fill="none" stroke="#63b8ff" d="M149.03,-83.62C162.85,-83.62 177.24,-83.62 190.84,-83.62"/>
<polygon fill="#63b8ff" stroke="#63b8ff" points="190.55,-87.13 200.55,-83.63 190.55,-80.13 190.55,-87.13"/>
</a>
</g>
</g>
<!-- Node5 -->
<g id="Node000005" class="node">
<title>Node5</title>
<g id="a_Node000005"><a xlink:href="class_content.html#a5a3cdbe54fb690a53a5a4fda109fd044" target="_top" xlink:title="Get the address of the informations content of type content_type.">
<polygon fill="white" stroke="#666666" points="312.5,-56.25 205,-56.25 205,-37 312.5,-37 312.5,-56.25"/>
<text text-anchor="middle" x="258.75" y="-42.75" font-family="Helvetica,sans-Serif" font-size="10.00">Content::get_content</text>
</a>
</g>
</g>
<!-- Node1&#45;&gt;Node5 -->
<g id="edge4_Node000001_Node000005" class="edge">
<title>Node1&#45;&gt;Node5</title>
<g id="a_edge4_Node000001_Node000005"><a xlink:title=" ">
<path fill="none" stroke="#63b8ff" d="M125.21,-73.51C147.32,-69.03 173.56,-63.71 196.82,-58.99"/>
<polygon fill="#63b8ff" stroke="#63b8ff" points="197.39,-62.44 206.49,-57.02 196,-55.58 197.39,-62.44"/>
</a>
</g>
</g>
<!-- Node6 -->
<g id="Node000006" class="node">
<title>Node6</title>
<g id="a_Node000006"><a xlink:href="class_content__stack.html#a5ac2a896da7724281d9d85eb239f5084" target="_top" xlink:title="Get Pointer to element in the stack. Accepts positive and negative indexing.">
<polygon fill="white" stroke="#666666" points="326.38,-19.25 191.12,-19.25 191.12,0 326.38,0 326.38,-19.25"/>
<text text-anchor="middle" x="258.75" y="-5.75" font-family="Helvetica,sans-Serif" font-size="10.00">Content_stack::getElement</text>
</a>
</g>
</g>
<!-- Node1&#45;&gt;Node6 -->
<g id="edge5_Node000001_Node000006" class="edge">
<title>Node1&#45;&gt;Node6</title>
<g id="a_edge5_Node000001_Node000006"><a xlink:title=" ">
<path fill="none" stroke="#63b8ff" d="M91.87,-73.64C112.82,-61.33 150.38,-40.46 184.75,-27.62 189.42,-25.88 194.31,-24.26 199.27,-22.76"/>
<polygon fill="#63b8ff" stroke="#63b8ff" points="200.02,-26.18 208.69,-20.08 198.11,-19.45 200.02,-26.18"/>
</a>
</g>
</g>
</g>
</svg>
