<?xml version="1.0" encoding="UTF-8" standalone="no"?>
<!DOCTYPE svg PUBLIC "-//W3C//DTD SVG 1.1//EN"
 "http://www.w3.org/Graphics/SVG/1.1/DTD/svg11.dtd">
<!-- Generated by graphviz version 12.1.2 (20240928.0832)
 -->
<!-- Title: Content_stack::addElement Pages: 1 -->
<svg width="684pt" height="361pt"
 viewBox="0.00 0.00 684.00 360.88" xmlns="http://www.w3.org/2000/svg" xmlns:xlink="http://www.w3.org/1999/xlink">
<g id="graph0" class="graph" transform="scale(1 1) rotate(0) translate(4 356.88)">
<title>Content_stack::addElement</title>
<!-- Node1 -->
<g id="Node000001" class="node">
<title>Node1</title>
<g id="a_Node000001"><a xlink:title="Add item to stack.">
<polygon fill="#999999" stroke="#666666" points="676,-196.88 538.5,-196.88 538.5,-177.62 676,-177.62 676,-196.88"/>
<text text-anchor="middle" x="607.25" y="-183.38" font-family="Helvetica,sans-Serif" font-size="10.00">Content_stack::addElement</text>
</a>
</g>
</g>
<!-- Node2 -->
<g id="Node000002" class="node">
<title>Node2</title>
<g id="a_Node000002"><a xlink:href="class_service.html#ac0c60bc735c64547dee269c6c3a62767" target="_top" xlink:title="Add a new Content&#45;Object created from a received payload to the services receive&#45;Stack....">
<polygon fill="white" stroke="#666666" points="476.25,-352.88 373.25,-352.88 373.25,-333.62 476.25,-333.62 476.25,-352.88"/>
<text text-anchor="middle" x="424.75" y="-339.38" font-family="Helvetica,sans-Serif" font-size="10.00">Service::impart_pdu</text>
</a>
</g>
</g>
<!-- Node1&#45;&gt;Node2 -->
<g id="edge1_Node000001_Node000002" class="edge">
<title>Node1&#45;&gt;Node2</title>
<g id="a_edge1_Node000001_Node000002"><a xlink:title=" ">
<path fill="none" stroke="#63b8ff" d="M595.91,-206.94C579.77,-235.78 545.9,-289.31 502.5,-319.25 493.88,-325.2 483.72,-329.72 473.67,-333.14"/>
<polygon fill="#63b8ff" stroke="#63b8ff" points="598.78,-208.98 600.48,-198.53 592.63,-205.64 598.78,-208.98"/>
</a>
</g>
</g>
<!-- Node3 -->
<g id="Node000003" class="node">
<title>Node3</title>
<g id="a_Node000003"><a xlink:href="class_service_interface.html#a7c5ec5e13af8a67d1b08c963fcd71214" target="_top" xlink:title="Add items received by the CommInterface to the recStack and execute the CommInterface&#39;s receiveCycle ...">
<polygon fill="white" stroke="#666666" points="129.25,-323.5 1.5,-323.5 1.5,-293 129.25,-293 129.25,-323.5"/>
<text text-anchor="start" x="9.5" y="-310" font-family="Helvetica,sans-Serif" font-size="10.00">ServiceInterface::process</text>
<text text-anchor="middle" x="65.38" y="-298.75" font-family="Helvetica,sans-Serif" font-size="10.00">RecStack</text>
</a>
</g>
</g>
<!-- Node1&#45;&gt;Node3 -->
<g id="edge2_Node000001_Node000003" class="edge">
<title>Node1&#45;&gt;Node3</title>
<g id="a_edge2_Node000001_Node000003"><a xlink:title=" ">
<path fill="none" stroke="#63b8ff" d="M593.16,-206.25C575.63,-229.89 542.12,-269.21 502.5,-286.25 379.06,-339.34 217.48,-329.46 129.75,-318.36"/>
<polygon fill="#63b8ff" stroke="#63b8ff" points="595.79,-208.59 598.78,-198.42 590.1,-204.51 595.79,-208.59"/>
</a>
</g>
</g>
<!-- Node4 -->
<g id="Node000004" class="node">
<title>Node4</title>
<g id="a_Node000004"><a xlink:href="class_error_service.html#a4db0ae1a3ca53fe1e6290b87390098ba" target="_top" xlink:title="Adds an Error&#45;object for the local Instance&#45;Id to the Error&#45;services rec&#45;stack.">
<polygon fill="white" stroke="#666666" points="483.75,-276.88 365.75,-276.88 365.75,-257.62 483.75,-257.62 483.75,-276.88"/>
<text text-anchor="middle" x="424.75" y="-263.38" font-family="Helvetica,sans-Serif" font-size="10.00">ErrorService::raiseError</text>
</a>
</g>
</g>
<!-- Node1&#45;&gt;Node4 -->
<g id="edge3_Node000001_Node000004" class="edge">
<title>Node1&#45;&gt;Node4</title>
<g id="a_edge3_Node000001_Node000004"><a xlink:title=" ">
<path fill="none" stroke="#63b8ff" d="M583.2,-203.87C562.86,-217.82 531.95,-237.33 502.5,-249.25 494.89,-252.33 486.63,-254.96 478.44,-257.17"/>
<polygon fill="#63b8ff" stroke="#63b8ff" points="585.11,-206.8 591.3,-198.21 581.1,-201.07 585.11,-206.8"/>
</a>
</g>
</g>
<!-- Node8 -->
<g id="Node000008" class="node">
<title>Node8</title>
<g id="a_Node000008"><a xlink:href="class_message_service.html#ac8e64d87d453ae6a6631891bdce42bef" target="_top" xlink:title="Sends a new message.">
<polygon fill="white" stroke="#666666" points="502.5,-239.88 347,-239.88 347,-220.62 502.5,-220.62 502.5,-239.88"/>
<text text-anchor="middle" x="424.75" y="-226.38" font-family="Helvetica,sans-Serif" font-size="10.00">MessageService::sendMessage</text>
</a>
</g>
</g>
<!-- Node1&#45;&gt;Node8 -->
<g id="edge8_Node000001_Node000008" class="edge">
<title>Node1&#45;&gt;Node8</title>
<g id="a_edge8_Node000001_Node000008"><a xlink:title=" ">
<path fill="none" stroke="#63b8ff" d="M553.07,-199.92C525.98,-206.37 493.49,-214.11 468.12,-220.16"/>
<polygon fill="#63b8ff" stroke="#63b8ff" points="553.54,-203.4 562.46,-197.68 551.92,-196.6 553.54,-203.4"/>
</a>
</g>
</g>
<!-- Node9 -->
<g id="Node000009" class="node">
<title>Node9</title>
<g id="a_Node000009"><a xlink:href="classarduino_mocking_1_1_software_serial.html#af10cc233a2ac7f8a10f492af5b6b501b" target="_top" xlink:title="Simulates user input by adding characters to the internal queue.">
<polygon fill="white" stroke="#666666" points="489.38,-202.5 360.12,-202.5 360.12,-172 489.38,-172 489.38,-202.5"/>
<text text-anchor="start" x="368.12" y="-189" font-family="Helvetica,sans-Serif" font-size="10.00">arduinoMocking::Software</text>
<text text-anchor="middle" x="424.75" y="-177.75" font-family="Helvetica,sans-Serif" font-size="10.00">Serial::simulateInput</text>
</a>
</g>
</g>
<!-- Node1&#45;&gt;Node9 -->
<g id="edge9_Node000001_Node000009" class="edge">
<title>Node1&#45;&gt;Node9</title>
<g id="a_edge9_Node000001_Node000009"><a xlink:title=" ">
<path fill="none" stroke="#63b8ff" d="M526.72,-187.25C514.31,-187.25 501.62,-187.25 489.62,-187.25"/>
<polygon fill="#63b8ff" stroke="#63b8ff" points="526.5,-190.75 536.5,-187.25 526.5,-183.75 526.5,-190.75"/>
</a>
</g>
</g>
<!-- Node10 -->
<g id="Node000010" class="node">
<title>Node10</title>
<g id="a_Node000010"><a xlink:href="classarduino_mocking_1_1_software_serial.html#a3024f7685f0d7008557f0912f7baa1df" target="_top" xlink:title="Simulates user input by adding a predefined string to the internal queue.">
<polygon fill="white" stroke="#666666" points="489.38,-153.5 360.12,-153.5 360.12,-123 489.38,-123 489.38,-153.5"/>
<text text-anchor="start" x="368.12" y="-140" font-family="Helvetica,sans-Serif" font-size="10.00">arduinoMocking::Software</text>
<text text-anchor="middle" x="424.75" y="-128.75" font-family="Helvetica,sans-Serif" font-size="10.00">Serial::simulateInput</text>
</a>
</g>
</g>
<!-- Node1&#45;&gt;Node10 -->
<g id="edge10_Node000001_Node000010" class="edge">
<title>Node1&#45;&gt;Node10</title>
<g id="a_edge10_Node000001_Node000010"><a xlink:title=" ">
<path fill="none" stroke="#63b8ff" d="M558.43,-174.27C535.48,-168.04 507.77,-160.52 483.63,-153.96"/>
<polygon fill="#63b8ff" stroke="#63b8ff" points="557.26,-177.58 567.83,-176.82 559.09,-170.82 557.26,-177.58"/>
</a>
</g>
</g>
<!-- Node11 -->
<g id="Node000011" class="node">
<title>Node11</title>
<g id="a_Node000011"><a xlink:href="class_error_service.html#abdd6940a94fc8619c1ed31934b1cd3bd" target="_top" xlink:title="Processes all errors from the receive stack.">
<polygon fill="white" stroke="#666666" points="499.12,-104.88 350.38,-104.88 350.38,-85.62 499.12,-85.62 499.12,-104.88"/>
<text text-anchor="middle" x="424.75" y="-91.38" font-family="Helvetica,sans-Serif" font-size="10.00">ErrorService::stackProcessing</text>
</a>
</g>
</g>
<!-- Node1&#45;&gt;Node11 -->
<g id="edge11_Node000001_Node000011" class="edge">
<title>Node1&#45;&gt;Node11</title>
<g id="a_edge11_Node000001_Node000011"><a xlink:title=" ">
<path fill="none" stroke="#63b8ff" d="M586.24,-169.73C566.31,-153.15 534.19,-128.7 502.5,-114.25 494.76,-110.72 486.26,-107.78 477.83,-105.36"/>
<polygon fill="#63b8ff" stroke="#63b8ff" points="583.95,-172.38 593.84,-176.19 588.48,-167.05 583.95,-172.38"/>
</a>
</g>
</g>
<!-- Node12 -->
<g id="Node000012" class="node">
<title>Node12</title>
<g id="a_Node000012"><a xlink:href="class_service.html#a3eafa52c7f4bfe29698ba4a91c75dc75" target="_top" xlink:title="Execute the service&#39;s functions for each item on the receive&#45;stack and add all response&#45;payloads to b...">
<polygon fill="white" stroke="#666666" points="488.62,-67.88 360.88,-67.88 360.88,-48.62 488.62,-48.62 488.62,-67.88"/>
<text text-anchor="middle" x="424.75" y="-54.38" font-family="Helvetica,sans-Serif" font-size="10.00">Service::stackProcessing</text>
</a>
</g>
</g>
<!-- Node1&#45;&gt;Node12 -->
<g id="edge12_Node000001_Node000012" class="edge">
<title>Node1&#45;&gt;Node12</title>
<g id="a_edge12_Node000001_Node000012"><a xlink:title=" ">
<path fill="none" stroke="#63b8ff" d="M593.66,-167.89C576.26,-142.76 542.45,-99.38 502.5,-76.25 497.05,-73.1 491.08,-70.49 484.96,-68.35"/>
<polygon fill="#63b8ff" stroke="#63b8ff" points="590.75,-169.84 599.24,-176.18 596.56,-165.93 590.75,-169.84"/>
</a>
</g>
</g>
<!-- Node13 -->
<g id="Node000013" class="node">
<title>Node13</title>
<g id="a_Node000013"><a xlink:href="classarduino_mocking_1_1_software_serial.html#aaa6defec7b617c31998ba26a5a472458" target="_top" xlink:title="Writes data to the internal queue.">
<polygon fill="white" stroke="#666666" points="489.38,-30.5 360.12,-30.5 360.12,0 489.38,0 489.38,-30.5"/>
<text text-anchor="start" x="368.12" y="-17" font-family="Helvetica,sans-Serif" font-size="10.00">arduinoMocking::Software</text>
<text text-anchor="middle" x="424.75" y="-5.75" font-family="Helvetica,sans-Serif" font-size="10.00">Serial::write</text>
</a>
</g>
</g>
<!-- Node1&#45;&gt;Node13 -->
<g id="edge13_Node000001_Node000013" class="edge">
<title>Node1&#45;&gt;Node13</title>
<g id="a_edge13_Node000001_Node000013"><a xlink:title=" ">
<path fill="none" stroke="#63b8ff" d="M597.39,-166.99C582.45,-135.11 549.2,-73.39 502.5,-39.25 498.1,-36.04 493.27,-33.25 488.22,-30.82"/>
<polygon fill="#63b8ff" stroke="#63b8ff" points="594.12,-168.24 601.44,-175.89 600.49,-165.34 594.12,-168.24"/>
</a>
</g>
</g>
<!-- Node5 -->
<g id="Node000005" class="node">
<title>Node5</title>
<g id="a_Node000005"><a xlink:href="class_service_interface.html#a42226b8c236c344b6c5d171736a08f6e" target="_top" xlink:title="Check if an ErrorService is registered in the service cluster under the defined ERRORSERVICE_ID of th...">
<polygon fill="white" stroke="#666666" points="306.5,-271.88 171.25,-271.88 171.25,-252.62 306.5,-252.62 306.5,-271.88"/>
<text text-anchor="middle" x="238.88" y="-258.38" font-family="Helvetica,sans-Serif" font-size="10.00">ServiceInterface::raiseError</text>
</a>
</g>
</g>
<!-- Node4&#45;&gt;Node5 -->
<g id="edge4_Node000004_Node000005" class="edge">
<title>Node4&#45;&gt;Node5</title>
<g id="a_edge4_Node000004_Node000005"><a xlink:title=" ">
<path fill="none" stroke="#63b8ff" d="M354.2,-265.36C338.67,-264.94 322.23,-264.49 306.8,-264.07"/>
<polygon fill="#63b8ff" stroke="#63b8ff" points="353.71,-268.85 363.81,-265.62 353.9,-261.85 353.71,-268.85"/>
</a>
</g>
</g>
<!-- Node5&#45;&gt;Node3 -->
<g id="edge6_Node000005_Node000003" class="edge">
<title>Node5&#45;&gt;Node3</title>
<g id="a_edge6_Node000005_Node000003"><a xlink:title=" ">
<path fill="none" stroke="#63b8ff" d="M189.18,-275.31C169.15,-280.68 145.77,-286.95 124.83,-292.57"/>
<polygon fill="#63b8ff" stroke="#63b8ff" points="190.02,-278.71 198.78,-272.74 188.21,-271.95 190.02,-278.71"/>
</a>
</g>
</g>
<!-- Node6 -->
<g id="Node000006" class="node">
<title>Node6</title>
<g id="a_Node000006"><a xlink:href="class_service_interface.html#a48cffd1603069be11ee25c930a139c84" target="_top" xlink:title="Add PDUs from all received frames to the corresponding services.">
<polygon fill="white" stroke="#666666" points="130.75,-274.5 0,-274.5 0,-244 130.75,-244 130.75,-274.5"/>
<text text-anchor="start" x="8" y="-261" font-family="Helvetica,sans-Serif" font-size="10.00">ServiceInterface::addPDU</text>
<text text-anchor="middle" x="65.38" y="-249.75" font-family="Helvetica,sans-Serif" font-size="10.00">_to_services</text>
</a>
</g>
</g>
<!-- Node5&#45;&gt;Node6 -->
<g id="edge5_Node000005_Node000006" class="edge">
<title>Node5&#45;&gt;Node6</title>
<g id="a_edge5_Node000005_Node000006"><a xlink:title=" ">
<path fill="none" stroke="#63b8ff" d="M159.85,-260.89C150.21,-260.72 140.43,-260.55 131.02,-260.38"/>
<polygon fill="#63b8ff" stroke="#63b8ff" points="159.5,-264.38 169.56,-261.06 159.63,-257.38 159.5,-264.38"/>
</a>
</g>
</g>
<!-- Node7 -->
<g id="Node000007" class="node">
<title>Node7</title>
<g id="a_Node000007"><a xlink:href="class_service_interface.html#a23feb243ed1748e04dd757aa5f788b3e" target="_top" xlink:title="Send all Frames, stored in the sendStack. As long as the sendStack is not empty, the function is gett...">
<polygon fill="white" stroke="#666666" points="129.25,-225.5 1.5,-225.5 1.5,-195 129.25,-195 129.25,-225.5"/>
<text text-anchor="start" x="9.5" y="-212" font-family="Helvetica,sans-Serif" font-size="10.00">ServiceInterface::process</text>
<text text-anchor="middle" x="65.38" y="-200.75" font-family="Helvetica,sans-Serif" font-size="10.00">SendStack</text>
</a>
</g>
</g>
<!-- Node5&#45;&gt;Node7 -->
<g id="edge7_Node000005_Node000007" class="edge">
<title>Node5&#45;&gt;Node7</title>
<g id="a_edge7_Node000005_Node000007"><a xlink:title=" ">
<path fill="none" stroke="#63b8ff" d="M193.95,-248.93C170.85,-241.93 142.41,-233.3 118.24,-225.98"/>
<polygon fill="#63b8ff" stroke="#63b8ff" points="192.77,-252.23 203.36,-251.78 194.81,-245.53 192.77,-252.23"/>
</a>
</g>
</g>
<!-- Node14 -->
<g id="Node000014" class="node">
<title>Node14</title>
<g id="a_Node000014"><a xlink:href="class_comm_interface__modbus_r_t_u.html#a0e78a2a6e3b5b029609c2b16c21bd85b" target="_top" xlink:title="Override of CommInterface send&#45;function. Send the frame, sendBuffer is pointing to by writing and flu...">
<polygon fill="white" stroke="#666666" points="311,-30.5 166.75,-30.5 166.75,0 311,0 311,-30.5"/>
<text text-anchor="start" x="174.75" y="-17" font-family="Helvetica,sans-Serif" font-size="10.00">CommInterface_modbusRTU</text>
<text text-anchor="middle" x="238.88" y="-5.75" font-family="Helvetica,sans-Serif" font-size="10.00">::send</text>
</a>
</g>
</g>
<!-- Node13&#45;&gt;Node14 -->
<g id="edge14_Node000013_Node000014" class="edge">
<title>Node13&#45;&gt;Node14</title>
<g id="a_edge14_Node000013_Node000014"><a xlink:title=" ">
<path fill="none" stroke="#63b8ff" d="M348.52,-15.25C336.2,-15.25 323.46,-15.25 311.24,-15.25"/>
<polygon fill="#63b8ff" stroke="#63b8ff" points="348.18,-18.75 358.18,-15.25 348.18,-11.75 348.18,-18.75"/>
</a>
</g>
</g>
</g>
</svg>
