<?xml version="1.0" encoding="UTF-8" standalone="no"?>
<!DOCTYPE svg PUBLIC "-//W3C//DTD SVG 1.1//EN"
 "http://www.w3.org/Graphics/SVG/1.1/DTD/svg11.dtd">
<!-- Generated by graphviz version 12.1.2 (20240928.0832)
 -->
<!-- Title: CharArray::getSize Pages: 1 -->
<svg width="313pt" height="174pt"
 viewBox="0.00 0.00 313.00 173.88" xmlns="http://www.w3.org/2000/svg" xmlns:xlink="http://www.w3.org/1999/xlink">
<g id="graph0" class="graph" transform="scale(1 1) rotate(0) translate(4 169.88)">
<title>CharArray::getSize</title>
<!-- Node1 -->
<g id="Node000001" class="node">
<title>Node1</title>
<g id="a_Node000001"><a xlink:title="Retrieves the size of the char array.">
<polygon fill="#999999" stroke="#666666" points="305,-97.88 205.75,-97.88 205.75,-78.62 305,-78.62 305,-97.88"/>
<text text-anchor="middle" x="255.38" y="-84.38" font-family="Helvetica,sans-Serif" font-size="10.00">CharArray::getSize</text>
</a>
</g>
</g>
<!-- Node2 -->
<g id="Node000002" class="node">
<title>Node2</title>
<g id="a_Node000002"><a xlink:href="class_frame__modbus_r_t_u.html#a4c47818dc37cda1cd7ba792989bcb0ea" target="_top" xlink:title="Verifies the CRC16 checksum of the current Modbus RTU frame.">
<polygon fill="white" stroke="#666666" points="169.75,-165.88 0,-165.88 0,-146.62 169.75,-146.62 169.75,-165.88"/>
<text text-anchor="middle" x="84.88" y="-152.38" font-family="Helvetica,sans-Serif" font-size="10.00">Frame_modbusRTU::checkCRC16</text>
</a>
</g>
</g>
<!-- Node1&#45;&gt;Node2 -->
<g id="edge1_Node000001_Node000002" class="edge">
<title>Node1&#45;&gt;Node2</title>
<g id="a_edge1_Node000001_Node000002"><a xlink:title=" ">
<path fill="none" stroke="#63b8ff" d="M230.72,-104.56C214.27,-115.23 191.48,-128.73 169.75,-137.25 160.72,-140.79 150.86,-143.76 141.19,-146.22"/>
<polygon fill="#63b8ff" stroke="#63b8ff" points="232.42,-107.63 238.82,-99.18 228.55,-101.8 232.42,-107.63"/>
</a>
</g>
</g>
<!-- Node3 -->
<g id="Node000003" class="node">
<title>Node3</title>
<g id="a_Node000003"><a xlink:href="class_service_interface.html#a7c5ec5e13af8a67d1b08c963fcd71214" target="_top" xlink:title="Add items received by the CommInterface to the recStack and execute the CommInterface&#39;s receiveCycle ...">
<polygon fill="white" stroke="#666666" points="148.75,-128.5 21,-128.5 21,-98 148.75,-98 148.75,-128.5"/>
<text text-anchor="start" x="29" y="-115" font-family="Helvetica,sans-Serif" font-size="10.00">ServiceInterface::process</text>
<text text-anchor="middle" x="84.88" y="-103.75" font-family="Helvetica,sans-Serif" font-size="10.00">RecStack</text>
</a>
</g>
</g>
<!-- Node1&#45;&gt;Node3 -->
<g id="edge2_Node000001_Node000003" class="edge">
<title>Node1&#45;&gt;Node3</title>
<g id="a_edge2_Node000001_Node000003"><a xlink:title=" ">
<path fill="none" stroke="#63b8ff" d="M194.58,-97.12C179.78,-99.32 163.89,-101.67 148.95,-103.89"/>
<polygon fill="#63b8ff" stroke="#63b8ff" points="194.76,-100.63 204.14,-95.7 193.74,-93.71 194.76,-100.63"/>
</a>
</g>
</g>
<!-- Node4 -->
<g id="Node000004" class="node">
<title>Node4</title>
<g id="a_Node000004"><a xlink:href="class_comm_interface__modbus_r_t_u.html#a50b42ad0a40a82ebe5a7749313ca2283" target="_top" xlink:title="Receives a Modbus RTU frame and writes it to receiveBuffer.">
<polygon fill="white" stroke="#666666" points="157,-79.5 12.75,-79.5 12.75,-49 157,-49 157,-79.5"/>
<text text-anchor="start" x="20.75" y="-66" font-family="Helvetica,sans-Serif" font-size="10.00">CommInterface_modbusRTU</text>
<text text-anchor="middle" x="84.88" y="-54.75" font-family="Helvetica,sans-Serif" font-size="10.00">::receive</text>
</a>
</g>
</g>
<!-- Node1&#45;&gt;Node4 -->
<g id="edge3_Node000001_Node000004" class="edge">
<title>Node1&#45;&gt;Node4</title>
<g id="a_edge3_Node000001_Node000004"><a xlink:title=" ">
<path fill="none" stroke="#63b8ff" d="M194.4,-79.71C182.41,-78 169.71,-76.19 157.38,-74.43"/>
<polygon fill="#63b8ff" stroke="#63b8ff" points="193.75,-83.15 204.14,-81.09 194.73,-76.22 193.75,-83.15"/>
</a>
</g>
</g>
<!-- Node5 -->
<g id="Node000005" class="node">
<title>Node5</title>
<g id="a_Node000005"><a xlink:href="class_comm_interface__modbus_r_t_u.html#a0e78a2a6e3b5b029609c2b16c21bd85b" target="_top" xlink:title="Override of CommInterface send&#45;function. Send the frame, sendBuffer is pointing to by writing and flu...">
<polygon fill="white" stroke="#666666" points="157,-30.5 12.75,-30.5 12.75,0 157,0 157,-30.5"/>
<text text-anchor="start" x="20.75" y="-17" font-family="Helvetica,sans-Serif" font-size="10.00">CommInterface_modbusRTU</text>
<text text-anchor="middle" x="84.88" y="-5.75" font-family="Helvetica,sans-Serif" font-size="10.00">::send</text>
</a>
</g>
</g>
<!-- Node1&#45;&gt;Node5 -->
<g id="edge4_Node000001_Node000005" class="edge">
<title>Node1&#45;&gt;Node5</title>
<g id="a_edge4_Node000001_Node000005"><a xlink:title=" ">
<path fill="none" stroke="#63b8ff" d="M229.89,-72.39C213.38,-62.2 190.85,-49.24 169.75,-40.25 161.78,-36.85 153.2,-33.73 144.68,-30.93"/>
<polygon fill="#63b8ff" stroke="#63b8ff" points="227.7,-75.15 238.03,-77.51 231.43,-69.23 227.7,-75.15"/>
</a>
</g>
</g>
</g>
</svg>
