<?xml version="1.0" encoding="UTF-8" standalone="no"?>
<!DOCTYPE svg PUBLIC "-//W3C//DTD SVG 1.1//EN"
 "http://www.w3.org/Graphics/SVG/1.1/DTD/svg11.dtd">
<!-- Generated by graphviz version 12.1.2 (20240928.0832)
 -->
<!-- Title: arduinoMocking::MockSerial::println Pages: 1 -->
<svg width="493pt" height="137pt"
 viewBox="0.00 0.00 492.50 136.50" xmlns="http://www.w3.org/2000/svg" xmlns:xlink="http://www.w3.org/1999/xlink">
<g id="graph0" class="graph" transform="scale(1 1) rotate(0) translate(4 132.5)">
<title>arduinoMocking::MockSerial::println</title>
<!-- Node1 -->
<g id="Node000001" class="node">
<title>Node1</title>
<g id="a_Node000001"><a xlink:title="Prints a string followed by a newline to the serial output.">
<polygon fill="#999999" stroke="#666666" points="484.5,-79.5 345.5,-79.5 345.5,-49 484.5,-49 484.5,-79.5"/>
<text text-anchor="start" x="353.5" y="-66" font-family="Helvetica,sans-Serif" font-size="10.00">arduinoMocking::MockSerial</text>
<text text-anchor="middle" x="415" y="-54.75" font-family="Helvetica,sans-Serif" font-size="10.00">::println</text>
</a>
</g>
</g>
<!-- Node2 -->
<g id="Node000002" class="node">
<title>Node2</title>
<g id="a_Node000002"><a xlink:href="classarduino_mocking_1_1_software_serial.html#a5785050c0162a9c4285b822d1dd940a1" target="_top" xlink:title="Empties the internal queue and prints the flushed data to the console.">
<polygon fill="white" stroke="#666666" points="309.5,-128.5 180.25,-128.5 180.25,-98 309.5,-98 309.5,-128.5"/>
<text text-anchor="start" x="188.25" y="-115" font-family="Helvetica,sans-Serif" font-size="10.00">arduinoMocking::Software</text>
<text text-anchor="middle" x="244.88" y="-103.75" font-family="Helvetica,sans-Serif" font-size="10.00">Serial::flush</text>
</a>
</g>
</g>
<!-- Node1&#45;&gt;Node2 -->
<g id="edge1_Node000001_Node000002" class="edge">
<title>Node1&#45;&gt;Node2</title>
<g id="a_edge1_Node000001_Node000002"><a xlink:title=" ">
<path fill="none" stroke="#63b8ff" d="M349.72,-82.98C333.27,-87.78 315.76,-92.88 299.89,-97.51"/>
<polygon fill="#63b8ff" stroke="#63b8ff" points="350.27,-86.47 358.89,-80.31 348.31,-79.75 350.27,-86.47"/>
</a>
</g>
</g>
<!-- Node4 -->
<g id="Node000004" class="node">
<title>Node4</title>
<g id="a_Node000004"><a xlink:href="class_service_interface.html#a7c5ec5e13af8a67d1b08c963fcd71214" target="_top" xlink:title="Add items received by the CommInterface to the recStack and execute the CommInterface&#39;s receiveCycle ...">
<polygon fill="white" stroke="#666666" points="308.75,-79.5 181,-79.5 181,-49 308.75,-49 308.75,-79.5"/>
<text text-anchor="start" x="189" y="-66" font-family="Helvetica,sans-Serif" font-size="10.00">ServiceInterface::process</text>
<text text-anchor="middle" x="244.88" y="-54.75" font-family="Helvetica,sans-Serif" font-size="10.00">RecStack</text>
</a>
</g>
</g>
<!-- Node1&#45;&gt;Node4 -->
<g id="edge3_Node000001_Node000004" class="edge">
<title>Node1&#45;&gt;Node4</title>
<g id="a_edge3_Node000001_Node000004"><a xlink:title=" ">
<path fill="none" stroke="#63b8ff" d="M333.62,-64.25C325.43,-64.25 317.2,-64.25 309.23,-64.25"/>
<polygon fill="#63b8ff" stroke="#63b8ff" points="333.62,-67.75 343.62,-64.25 333.62,-60.75 333.62,-67.75"/>
</a>
</g>
</g>
<!-- Node5 -->
<g id="Node000005" class="node">
<title>Node5</title>
<g id="a_Node000005"><a xlink:href="class_service_interface.html#a23feb243ed1748e04dd757aa5f788b3e" target="_top" xlink:title="Send all Frames, stored in the sendStack. As long as the sendStack is not empty, the function is gett...">
<polygon fill="white" stroke="#666666" points="308.75,-30.5 181,-30.5 181,0 308.75,0 308.75,-30.5"/>
<text text-anchor="start" x="189" y="-17" font-family="Helvetica,sans-Serif" font-size="10.00">ServiceInterface::process</text>
<text text-anchor="middle" x="244.88" y="-5.75" font-family="Helvetica,sans-Serif" font-size="10.00">SendStack</text>
</a>
</g>
</g>
<!-- Node1&#45;&gt;Node5 -->
<g id="edge4_Node000001_Node000005" class="edge">
<title>Node1&#45;&gt;Node5</title>
<g id="a_edge4_Node000001_Node000005"><a xlink:title=" ">
<path fill="none" stroke="#63b8ff" d="M349.72,-45.52C333.27,-40.72 315.76,-35.62 299.89,-30.99"/>
<polygon fill="#63b8ff" stroke="#63b8ff" points="348.31,-48.75 358.89,-48.19 350.27,-42.03 348.31,-48.75"/>
</a>
</g>
</g>
<!-- Node3 -->
<g id="Node000003" class="node">
<title>Node3</title>
<g id="a_Node000003"><a xlink:href="class_comm_interface__modbus_r_t_u.html#a0e78a2a6e3b5b029609c2b16c21bd85b" target="_top" xlink:title="Override of CommInterface send&#45;function. Send the frame, sendBuffer is pointing to by writing and flu...">
<polygon fill="white" stroke="#666666" points="144.25,-128.5 0,-128.5 0,-98 144.25,-98 144.25,-128.5"/>
<text text-anchor="start" x="8" y="-115" font-family="Helvetica,sans-Serif" font-size="10.00">CommInterface_modbusRTU</text>
<text text-anchor="middle" x="72.12" y="-103.75" font-family="Helvetica,sans-Serif" font-size="10.00">::send</text>
</a>
</g>
</g>
<!-- Node2&#45;&gt;Node3 -->
<g id="edge2_Node000002_Node000003" class="edge">
<title>Node2&#45;&gt;Node3</title>
<g id="a_edge2_Node000002_Node000003"><a xlink:title=" ">
<path fill="none" stroke="#63b8ff" d="M168.39,-113.25C160.52,-113.25 152.54,-113.25 144.72,-113.25"/>
<polygon fill="#63b8ff" stroke="#63b8ff" points="168.29,-116.75 178.29,-113.25 168.29,-109.75 168.29,-116.75"/>
</a>
</g>
</g>
</g>
</svg>
