<?xml version="1.0" encoding="UTF-8" standalone="no"?>
<!DOCTYPE svg PUBLIC "-//W3C//DTD SVG 1.1//EN"
 "http://www.w3.org/Graphics/SVG/1.1/DTD/svg11.dtd">
<!-- Generated by graphviz version 12.1.2 (20240928.0832)
 -->
<!-- Title: /Users/felixschulke/Developement/Arduino/Modbus_RTU/Modbus_RTU/Modbus&#45;RTU/lib Pages: 1 -->
<svg width="460pt" height="280pt"
 viewBox="0.00 0.00 460.00 280.25" xmlns="http://www.w3.org/2000/svg" xmlns:xlink="http://www.w3.org/1999/xlink">
<g id="graph0" class="graph" transform="scale(1 1) rotate(0) translate(4 276.25)">
<title>/Users/felixschulke/Developement/Arduino/Modbus_RTU/Modbus_RTU/Modbus&#45;RTU/lib</title>
<g id="clust1" class="cluster">
<title>clusterdir_97aefd0d527b934f1d99a682da8fe6a9</title>
<g id="a_clust1"><a xlink:href="dir_97aefd0d527b934f1d99a682da8fe6a9.html" target="_top">
<polygon fill="#edf0f7" stroke="#404040" stroke-width="2" points="8,-8 8,-264.25 444,-264.25 444,-8 8,-8"/>
</a>
</g>
</g>
<!-- dir_97aefd0d527b934f1d99a682da8fe6a9 -->
<g id="node1" class="node">
<title>dir_97aefd0d527b934f1d99a682da8fe6a9</title>
<text text-anchor="middle" x="106" y="-242.75" font-family="Helvetica,sans-Serif" font-size="10.00">lib</text>
</g>
<!-- dir_fc6accba5b44a40633678f574f1875d6 -->
<g id="node2" class="node">
<title>dir_fc6accba5b44a40633678f574f1875d6</title>
<g id="a_node2"><a xlink:href="dir_fc6accba5b44a40633678f574f1875d6.html" target="_top" xlink:title="ErrorService">
<polygon fill="#a2b4d6" stroke="#404040" points="168,-145.75 98,-145.75 98,-126.5 168,-126.5 168,-145.75"/>
<text text-anchor="middle" x="133" y="-132.25" font-family="Helvetica,sans-Serif" font-size="10.00">ErrorService</text>
</a>
</g>
</g>
<!-- dir_5fef273138b80e2d16ae7d064398c64f -->
<g id="node6" class="node">
<title>dir_5fef273138b80e2d16ae7d064398c64f</title>
<g id="a_node6"><a xlink:href="dir_5fef273138b80e2d16ae7d064398c64f.html" target="_top" xlink:title="mockArduino">
<polygon fill="#a2b4d6" stroke="#404040" points="223.5,-35.25 150.5,-35.25 150.5,-16 223.5,-16 223.5,-35.25"/>
<text text-anchor="middle" x="187" y="-21.75" font-family="Helvetica,sans-Serif" font-size="10.00">mockArduino</text>
</a>
</g>
</g>
<!-- dir_fc6accba5b44a40633678f574f1875d6&#45;&gt;dir_5fef273138b80e2d16ae7d064398c64f -->
<g id="edge2" class="edge">
<title>dir_fc6accba5b44a40633678f574f1875d6&#45;&gt;dir_5fef273138b80e2d16ae7d064398c64f</title>
<g id="a_edge2"><a xlink:href="dir_000000_000005.html" target="_top">
<path fill="none" stroke="#63b8ff" d="M135,-126.09C138.03,-113.38 144.46,-89.71 154,-71.25 158.85,-61.86 165.61,-52.33 171.74,-44.49"/>
<polygon fill="#63b8ff" stroke="#63b8ff" points="174.41,-46.75 178.03,-36.79 168.99,-42.32 174.41,-46.75"/>
</a>
</g>
<g id="a_edge2&#45;headlabel"><a xlink:href="dir_000000_000005.html" target="_top" xlink:title="3">
<text text-anchor="middle" x="175.3" y="-46.28" font-family="Helvetica,sans-Serif" font-size="10.00" fill="#63b8ff">3</text>
</a>
</g>
</g>
<!-- dir_4ed0e64677dd45d3c589f9acdb60311d -->
<g id="node9" class="node">
<title>dir_4ed0e64677dd45d3c589f9acdb60311d</title>
<g id="a_node9"><a xlink:href="dir_4ed0e64677dd45d3c589f9acdb60311d.html" target="_top" xlink:title="Service">
<polygon fill="#a2b4d6" stroke="#404040" points="211.5,-90.5 162.5,-90.5 162.5,-71.25 211.5,-71.25 211.5,-90.5"/>
<text text-anchor="middle" x="187" y="-77" font-family="Helvetica,sans-Serif" font-size="10.00">Service</text>
</a>
</g>
</g>
<!-- dir_fc6accba5b44a40633678f574f1875d6&#45;&gt;dir_4ed0e64677dd45d3c589f9acdb60311d -->
<g id="edge1" class="edge">
<title>dir_fc6accba5b44a40633678f574f1875d6&#45;&gt;dir_4ed0e64677dd45d3c589f9acdb60311d</title>
<g id="a_edge1"><a xlink:href="dir_000000_000008.html" target="_top">
<path fill="none" stroke="#63b8ff" d="M141.92,-126.33C149.45,-118.9 160.47,-108.04 169.73,-98.91"/>
<polygon fill="#63b8ff" stroke="#63b8ff" points="172.15,-101.44 176.81,-91.92 167.23,-96.45 172.15,-101.44"/>
</a>
</g>
<g id="a_edge1&#45;headlabel"><a xlink:href="dir_000000_000008.html" target="_top" xlink:title="2">
<text text-anchor="middle" x="172.66" y="-101.04" font-family="Helvetica,sans-Serif" font-size="10.00" fill="#63b8ff">2</text>
</a>
</g>
</g>
<!-- dir_63423c24249a4ea801821a9ef8d1869d -->
<g id="node3" class="node">
<title>dir_63423c24249a4ea801821a9ef8d1869d</title>
<g id="a_node3"><a xlink:href="dir_63423c24249a4ea801821a9ef8d1869d.html" target="_top" xlink:title="Frame">
<polygon fill="#a2b4d6" stroke="#404040" points="59.88,-145.75 16.12,-145.75 16.12,-126.5 59.88,-126.5 59.88,-145.75"/>
<text text-anchor="middle" x="38" y="-132.25" font-family="Helvetica,sans-Serif" font-size="10.00">Frame</text>
</a>
</g>
</g>
<!-- dir_63423c24249a4ea801821a9ef8d1869d&#45;&gt;dir_5fef273138b80e2d16ae7d064398c64f -->
<g id="edge4" class="edge">
<title>dir_63423c24249a4ea801821a9ef8d1869d&#45;&gt;dir_5fef273138b80e2d16ae7d064398c64f</title>
<g id="a_edge4"><a xlink:href="dir_000001_000005.html" target="_top">
<path fill="none" stroke="#63b8ff" d="M40.91,-126.01C45.71,-112.33 56.53,-86.47 74,-71.25 92.42,-55.2 117.3,-44.54 139.02,-37.68"/>
<polygon fill="#63b8ff" stroke="#63b8ff" points="139.99,-41.04 148.59,-34.85 138.01,-34.33 139.99,-41.04"/>
</a>
</g>
<g id="a_edge4&#45;headlabel"><a xlink:href="dir_000001_000005.html" target="_top" xlink:title="2">
<text text-anchor="middle" x="138.8" y="-40.48" font-family="Helvetica,sans-Serif" font-size="10.00" fill="#63b8ff">2</text>
</a>
</g>
</g>
<!-- dir_63423c24249a4ea801821a9ef8d1869d&#45;&gt;dir_4ed0e64677dd45d3c589f9acdb60311d -->
<g id="edge3" class="edge">
<title>dir_63423c24249a4ea801821a9ef8d1869d&#45;&gt;dir_4ed0e64677dd45d3c589f9acdb60311d</title>
<g id="a_edge3"><a xlink:href="dir_000001_000008.html" target="_top">
<path fill="none" stroke="#63b8ff" d="M60.31,-127.15C84.39,-118.55 123.09,-104.72 151.39,-94.6"/>
<polygon fill="#63b8ff" stroke="#63b8ff" points="152.39,-97.96 160.62,-91.3 150.03,-91.37 152.39,-97.96"/>
</a>
</g>
<g id="a_edge3&#45;headlabel"><a xlink:href="dir_000001_000008.html" target="_top" xlink:title="1">
<text text-anchor="middle" x="151.38" y="-97.46" font-family="Helvetica,sans-Serif" font-size="10.00" fill="#63b8ff">1</text>
</a>
</g>
</g>
<!-- dir_86b2acb48dc403d1a3fcbb48606cba44 -->
<g id="node4" class="node">
<title>dir_86b2acb48dc403d1a3fcbb48606cba44</title>
<g id="a_node4"><a xlink:href="dir_86b2acb48dc403d1a3fcbb48606cba44.html" target="_top" xlink:title="Interface">
<polygon fill="#a2b4d6" stroke="#404040" points="160.12,-201 105.88,-201 105.88,-181.75 160.12,-181.75 160.12,-201"/>
<text text-anchor="middle" x="133" y="-187.5" font-family="Helvetica,sans-Serif" font-size="10.00">Interface</text>
</a>
</g>
</g>
<!-- dir_86b2acb48dc403d1a3fcbb48606cba44&#45;&gt;dir_fc6accba5b44a40633678f574f1875d6 -->
<g id="edge8" class="edge">
<title>dir_86b2acb48dc403d1a3fcbb48606cba44&#45;&gt;dir_fc6accba5b44a40633678f574f1875d6</title>
<g id="a_edge8"><a xlink:href="dir_000002_000000.html" target="_top">
<path fill="none" stroke="#63b8ff" d="M133,-181.58C133,-175.07 133,-165.92 133,-157.62"/>
<polygon fill="#63b8ff" stroke="#63b8ff" points="136.5,-157.62 133,-147.62 129.5,-157.62 136.5,-157.62"/>
</a>
</g>
<g id="a_edge8&#45;headlabel"><a xlink:href="dir_000002_000000.html" target="_top" xlink:title="3">
<text text-anchor="middle" x="139.34" y="-155.83" font-family="Helvetica,sans-Serif" font-size="10.00" fill="#63b8ff">3</text>
</a>
</g>
</g>
<!-- dir_86b2acb48dc403d1a3fcbb48606cba44&#45;&gt;dir_63423c24249a4ea801821a9ef8d1869d -->
<g id="edge7" class="edge">
<title>dir_86b2acb48dc403d1a3fcbb48606cba44&#45;&gt;dir_63423c24249a4ea801821a9ef8d1869d</title>
<g id="a_edge7"><a xlink:href="dir_000002_000001.html" target="_top">
<path fill="none" stroke="#63b8ff" d="M116.88,-181.34C102.42,-173.23 80.92,-161.18 64.02,-151.71"/>
<polygon fill="#63b8ff" stroke="#63b8ff" points="65.95,-148.78 55.51,-146.94 62.53,-154.89 65.95,-148.78"/>
</a>
</g>
<g id="a_edge7&#45;headlabel"><a xlink:href="dir_000002_000001.html" target="_top" xlink:title="2">
<text text-anchor="middle" x="69.15" y="-143.44" font-family="Helvetica,sans-Serif" font-size="10.00" fill="#63b8ff">2</text>
</a>
</g>
</g>
<!-- dir_86b2acb48dc403d1a3fcbb48606cba44&#45;&gt;dir_5fef273138b80e2d16ae7d064398c64f -->
<g id="edge6" class="edge">
<title>dir_86b2acb48dc403d1a3fcbb48606cba44&#45;&gt;dir_5fef273138b80e2d16ae7d064398c64f</title>
<g id="a_edge6"><a xlink:href="dir_000002_000005.html" target="_top">
<path fill="none" stroke="#63b8ff" d="M119.38,-181.4C103.46,-169.69 80.31,-148.11 89,-126.5 103.82,-89.65 139.67,-59.14 163.66,-41.89"/>
<polygon fill="#63b8ff" stroke="#63b8ff" points="165.35,-44.98 171.56,-36.4 161.35,-39.23 165.35,-44.98"/>
</a>
</g>
<g id="a_edge6&#45;headlabel"><a xlink:href="dir_000002_000005.html" target="_top" xlink:title="2">
<text text-anchor="middle" x="165.26" y="-44.63" font-family="Helvetica,sans-Serif" font-size="10.00" fill="#63b8ff">2</text>
</a>
</g>
</g>
<!-- dir_86b2acb48dc403d1a3fcbb48606cba44&#45;&gt;dir_4ed0e64677dd45d3c589f9acdb60311d -->
<g id="edge5" class="edge">
<title>dir_86b2acb48dc403d1a3fcbb48606cba44&#45;&gt;dir_4ed0e64677dd45d3c589f9acdb60311d</title>
<g id="a_edge5"><a xlink:href="dir_000002_000008.html" target="_top">
<path fill="none" stroke="#63b8ff" d="M145.61,-181.25C155.81,-173.14 169.66,-160.32 177,-145.75 183.82,-132.22 186.23,-115.2 186.98,-102.13"/>
<polygon fill="#63b8ff" stroke="#63b8ff" points="190.48,-102.25 187.24,-92.16 183.48,-102.07 190.48,-102.25"/>
</a>
</g>
<g id="a_edge5&#45;headlabel"><a xlink:href="dir_000002_000008.html" target="_top" xlink:title="2">
<text text-anchor="middle" x="193.26" y="-100.53" font-family="Helvetica,sans-Serif" font-size="10.00" fill="#63b8ff">2</text>
</a>
</g>
</g>
<!-- dir_b26a863ac7767141b40e2f918f5d691f -->
<g id="node5" class="node">
<title>dir_b26a863ac7767141b40e2f918f5d691f</title>
<g id="a_node5"><a xlink:href="dir_b26a863ac7767141b40e2f918f5d691f.html" target="_top" xlink:title="MessageService">
<polygon fill="#a2b4d6" stroke="#404040" points="294.38,-145.75 205.62,-145.75 205.62,-126.5 294.38,-126.5 294.38,-145.75"/>
<text text-anchor="middle" x="250" y="-132.25" font-family="Helvetica,sans-Serif" font-size="10.00">MessageService</text>
</a>
</g>
</g>
<!-- dir_b26a863ac7767141b40e2f918f5d691f&#45;&gt;dir_5fef273138b80e2d16ae7d064398c64f -->
<g id="edge10" class="edge">
<title>dir_b26a863ac7767141b40e2f918f5d691f&#45;&gt;dir_5fef273138b80e2d16ae7d064398c64f</title>
<g id="a_edge10"><a xlink:href="dir_000004_000005.html" target="_top">
<path fill="none" stroke="#63b8ff" d="M246.66,-126.13C241.8,-113.47 232.12,-89.86 221,-71.25 215.39,-61.86 208.15,-52.12 201.8,-44.14"/>
<polygon fill="#63b8ff" stroke="#63b8ff" points="204.67,-42.11 195.62,-36.6 199.25,-46.55 204.67,-42.11"/>
</a>
</g>
<g id="a_edge10&#45;headlabel"><a xlink:href="dir_000004_000005.html" target="_top" xlink:title="2">
<text text-anchor="middle" x="208.18" y="-38.05" font-family="Helvetica,sans-Serif" font-size="10.00" fill="#63b8ff">2</text>
</a>
</g>
</g>
<!-- dir_b26a863ac7767141b40e2f918f5d691f&#45;&gt;dir_4ed0e64677dd45d3c589f9acdb60311d -->
<g id="edge9" class="edge">
<title>dir_b26a863ac7767141b40e2f918f5d691f&#45;&gt;dir_4ed0e64677dd45d3c589f9acdb60311d</title>
<g id="a_edge9"><a xlink:href="dir_000004_000008.html" target="_top">
<path fill="none" stroke="#63b8ff" d="M239.31,-126.09C230.3,-118.47 217.17,-107.37 206.32,-98.2"/>
<polygon fill="#63b8ff" stroke="#63b8ff" points="208.58,-95.53 198.69,-91.75 204.06,-100.88 208.58,-95.53"/>
</a>
</g>
<g id="a_edge9&#45;headlabel"><a xlink:href="dir_000004_000008.html" target="_top" xlink:title="2">
<text text-anchor="middle" x="212" y="-90.83" font-family="Helvetica,sans-Serif" font-size="10.00" fill="#63b8ff">2</text>
</a>
</g>
</g>
<!-- dir_a6d7d8b2b94a16b0dbe29dfcb8fdc3b9 -->
<g id="node7" class="node">
<title>dir_a6d7d8b2b94a16b0dbe29dfcb8fdc3b9</title>
<g id="a_node7"><a xlink:href="dir_a6d7d8b2b94a16b0dbe29dfcb8fdc3b9.html" target="_top" xlink:title="mockSoftwareSerial">
<polygon fill="#a2b4d6" stroke="#404040" points="415.88,-145.75 312.12,-145.75 312.12,-126.5 415.88,-126.5 415.88,-145.75"/>
<text text-anchor="middle" x="364" y="-132.25" font-family="Helvetica,sans-Serif" font-size="10.00">mockSoftwareSerial</text>
</a>
</g>
</g>
<!-- dir_a6d7d8b2b94a16b0dbe29dfcb8fdc3b9&#45;&gt;dir_5fef273138b80e2d16ae7d064398c64f -->
<g id="edge12" class="edge">
<title>dir_a6d7d8b2b94a16b0dbe29dfcb8fdc3b9&#45;&gt;dir_5fef273138b80e2d16ae7d064398c64f</title>
<g id="a_edge12"><a xlink:href="dir_000006_000005.html" target="_top">
<path fill="none" stroke="#63b8ff" d="M349.21,-126.06C318.68,-107.35 248.42,-64.28 211.19,-41.45"/>
<polygon fill="#63b8ff" stroke="#63b8ff" points="213.27,-38.62 202.91,-36.38 209.61,-44.59 213.27,-38.62"/>
</a>
</g>
<g id="a_edge12&#45;headlabel"><a xlink:href="dir_000006_000005.html" target="_top" xlink:title="1">
<text text-anchor="middle" x="216.52" y="-33.41" font-family="Helvetica,sans-Serif" font-size="10.00" fill="#63b8ff">1</text>
</a>
</g>
</g>
<!-- dir_a6d7d8b2b94a16b0dbe29dfcb8fdc3b9&#45;&gt;dir_4ed0e64677dd45d3c589f9acdb60311d -->
<g id="edge11" class="edge">
<title>dir_a6d7d8b2b94a16b0dbe29dfcb8fdc3b9&#45;&gt;dir_4ed0e64677dd45d3c589f9acdb60311d</title>
<g id="a_edge11"><a xlink:href="dir_000006_000008.html" target="_top">
<path fill="none" stroke="#63b8ff" d="M333.97,-126.09C303.18,-116.83 255.3,-102.42 222.61,-92.59"/>
<polygon fill="#63b8ff" stroke="#63b8ff" points="223.77,-89.28 213.19,-89.75 221.75,-95.99 223.77,-89.28"/>
</a>
</g>
<g id="a_edge11&#45;headlabel"><a xlink:href="dir_000006_000008.html" target="_top" xlink:title="1">
<text text-anchor="middle" x="226.58" y="-83.29" font-family="Helvetica,sans-Serif" font-size="10.00" fill="#63b8ff">1</text>
</a>
</g>
</g>
<!-- dir_af54e730ac025cc6f7f4762292367803 -->
<g id="node8" class="node">
<title>dir_af54e730ac025cc6f7f4762292367803</title>
<g id="a_node8"><a xlink:href="dir_af54e730ac025cc6f7f4762292367803.html" target="_top" xlink:title="ModbusRTU">
<polygon fill="#a2b4d6" stroke="#404040" points="285.75,-256.25 214.25,-256.25 214.25,-237 285.75,-237 285.75,-256.25"/>
<text text-anchor="middle" x="250" y="-242.75" font-family="Helvetica,sans-Serif" font-size="10.00">ModbusRTU</text>
</a>
</g>
</g>
<!-- dir_af54e730ac025cc6f7f4762292367803&#45;&gt;dir_63423c24249a4ea801821a9ef8d1869d -->
<g id="edge14" class="edge">
<title>dir_af54e730ac025cc6f7f4762292367803&#45;&gt;dir_63423c24249a4ea801821a9ef8d1869d</title>
<g id="a_edge14"><a xlink:href="dir_000007_000001.html" target="_top">
<path fill="none" stroke="#63b8ff" d="M214.06,-240.76C181.55,-235.1 133.35,-223.51 97,-201 77.81,-189.12 60.91,-169.33 50.17,-154.92"/>
<polygon fill="#63b8ff" stroke="#63b8ff" points="53.32,-153.3 44.65,-147.2 47.62,-157.37 53.32,-153.3"/>
</a>
</g>
<g id="a_edge14&#45;headlabel"><a xlink:href="dir_000007_000001.html" target="_top" xlink:title="1">
<text text-anchor="middle" x="56.84" y="-149.46" font-family="Helvetica,sans-Serif" font-size="10.00" fill="#63b8ff">1</text>
</a>
</g>
</g>
<!-- dir_af54e730ac025cc6f7f4762292367803&#45;&gt;dir_86b2acb48dc403d1a3fcbb48606cba44 -->
<g id="edge15" class="edge">
<title>dir_af54e730ac025cc6f7f4762292367803&#45;&gt;dir_86b2acb48dc403d1a3fcbb48606cba44</title>
<g id="a_edge15"><a xlink:href="dir_000007_000002.html" target="_top">
<path fill="none" stroke="#63b8ff" d="M230.15,-236.59C211.83,-228.25 184.35,-215.75 163.29,-206.16"/>
<polygon fill="#63b8ff" stroke="#63b8ff" points="164.87,-203.04 154.32,-202.08 161.97,-209.41 164.87,-203.04"/>
</a>
</g>
<g id="a_edge15&#45;headlabel"><a xlink:href="dir_000007_000002.html" target="_top" xlink:title="2">
<text text-anchor="middle" x="167.94" y="-197.44" font-family="Helvetica,sans-Serif" font-size="10.00" fill="#63b8ff">2</text>
</a>
</g>
</g>
<!-- dir_af54e730ac025cc6f7f4762292367803&#45;&gt;dir_b26a863ac7767141b40e2f918f5d691f -->
<g id="edge17" class="edge">
<title>dir_af54e730ac025cc6f7f4762292367803&#45;&gt;dir_b26a863ac7767141b40e2f918f5d691f</title>
<g id="a_edge17"><a xlink:href="dir_000007_000004.html" target="_top">
<path fill="none" stroke="#63b8ff" d="M250,-236.75C250,-219.5 250,-181.08 250,-157.31"/>
<polygon fill="#63b8ff" stroke="#63b8ff" points="253.5,-157.64 250,-147.64 246.5,-157.64 253.5,-157.64"/>
</a>
</g>
<g id="a_edge17&#45;headlabel"><a xlink:href="dir_000007_000004.html" target="_top" xlink:title="1">
<text text-anchor="middle" x="256.34" y="-155.85" font-family="Helvetica,sans-Serif" font-size="10.00" fill="#63b8ff">1</text>
</a>
</g>
</g>
<!-- dir_af54e730ac025cc6f7f4762292367803&#45;&gt;dir_5fef273138b80e2d16ae7d064398c64f -->
<g id="edge13" class="edge">
<title>dir_af54e730ac025cc6f7f4762292367803&#45;&gt;dir_5fef273138b80e2d16ae7d064398c64f</title>
<g id="a_edge13"><a xlink:href="dir_000007_000005.html" target="_top">
<path fill="none" stroke="#63b8ff" d="M286.12,-237.67C347.93,-222.3 463.76,-184.8 425,-126.5 382.76,-62.96 291.42,-39.76 234.98,-31.35"/>
<polygon fill="#63b8ff" stroke="#63b8ff" points="235.73,-27.92 225.34,-30.02 234.77,-34.85 235.73,-27.92"/>
</a>
</g>
<g id="a_edge13&#45;headlabel"><a xlink:href="dir_000007_000005.html" target="_top" xlink:title="3">
<text text-anchor="middle" x="238.18" y="-21.51" font-family="Helvetica,sans-Serif" font-size="10.00" fill="#63b8ff">3</text>
</a>
</g>
</g>
<!-- dir_af54e730ac025cc6f7f4762292367803&#45;&gt;dir_a6d7d8b2b94a16b0dbe29dfcb8fdc3b9 -->
<g id="edge16" class="edge">
<title>dir_af54e730ac025cc6f7f4762292367803&#45;&gt;dir_a6d7d8b2b94a16b0dbe29dfcb8fdc3b9</title>
<g id="a_edge16"><a xlink:href="dir_000007_000006.html" target="_top">
<path fill="none" stroke="#63b8ff" d="M259.33,-236.75C278.37,-218.63 321.96,-177.13 346.46,-153.82"/>
<polygon fill="#63b8ff" stroke="#63b8ff" points="348.61,-156.6 353.45,-147.17 343.79,-151.53 348.61,-156.6"/>
</a>
</g>
<g id="a_edge16&#45;headlabel"><a xlink:href="dir_000007_000006.html" target="_top" xlink:title="1">
<text text-anchor="middle" x="349.06" y="-156.22" font-family="Helvetica,sans-Serif" font-size="10.00" fill="#63b8ff">1</text>
</a>
</g>
</g>
<!-- dir_4ed0e64677dd45d3c589f9acdb60311d&#45;&gt;dir_5fef273138b80e2d16ae7d064398c64f -->
<g id="edge18" class="edge">
<title>dir_4ed0e64677dd45d3c589f9acdb60311d&#45;&gt;dir_5fef273138b80e2d16ae7d064398c64f</title>
<g id="a_edge18"><a xlink:href="dir_000008_000005.html" target="_top">
<path fill="none" stroke="#63b8ff" d="M187,-71.08C187,-64.57 187,-55.42 187,-47.12"/>
<polygon fill="#63b8ff" stroke="#63b8ff" points="190.5,-47.12 187,-37.12 183.5,-47.12 190.5,-47.12"/>
</a>
</g>
<g id="a_edge18&#45;headlabel"><a xlink:href="dir_000008_000005.html" target="_top" xlink:title="4">
<text text-anchor="middle" x="193.34" y="-45.33" font-family="Helvetica,sans-Serif" font-size="10.00" fill="#63b8ff">4</text>
</a>
</g>
</g>
</g>
</svg>
