<?xml version="1.0" encoding="UTF-8" standalone="no"?>
<!DOCTYPE svg PUBLIC "-//W3C//DTD SVG 1.1//EN"
 "http://www.w3.org/Graphics/SVG/1.1/DTD/svg11.dtd">
<!-- Generated by graphviz version 12.1.2 (20240928.0832)
 -->
<!-- Title: /Users/felixschulke/Developement/Arduino/Modbus_RTU/Modbus_RTU/Modbus&#45;RTU/lib Pages: 1 -->
<svg width="438pt" height="336pt"
 viewBox="0.00 0.00 438.00 335.50" xmlns="http://www.w3.org/2000/svg" xmlns:xlink="http://www.w3.org/1999/xlink">
<g id="graph0" class="graph" transform="scale(1 1) rotate(0) translate(4 331.5)">
<title>/Users/felixschulke/Developement/Arduino/Modbus_RTU/Modbus_RTU/Modbus&#45;RTU/lib</title>
<g id="clust1" class="cluster">
<title>clusterdir_97aefd0d527b934f1d99a682da8fe6a9</title>
<g id="a_clust1"><a xlink:href="dir_97aefd0d527b934f1d99a682da8fe6a9.html" target="_top">
<polygon fill="#edf0f7" stroke="#404040" stroke-width="2" points="8,-8 8,-319.5 422,-319.5 422,-8 8,-8"/>
</a>
</g>
</g>
<!-- dir_97aefd0d527b934f1d99a682da8fe6a9 -->
<g id="node1" class="node">
<title>dir_97aefd0d527b934f1d99a682da8fe6a9</title>
<text text-anchor="middle" x="95" y="-298" font-family="Helvetica,sans-Serif" font-size="10.00">lib</text>
</g>
<!-- dir_fc6accba5b44a40633678f574f1875d6 -->
<g id="node2" class="node">
<title>dir_fc6accba5b44a40633678f574f1875d6</title>
<g id="a_node2"><a xlink:href="dir_fc6accba5b44a40633678f574f1875d6.html" target="_top" xlink:title="ErrorService">
<polygon fill="#a2b4d6" stroke="#404040" points="146,-201 76,-201 76,-181.75 146,-181.75 146,-201"/>
<text text-anchor="middle" x="111" y="-187.5" font-family="Helvetica,sans-Serif" font-size="10.00">ErrorService</text>
</a>
</g>
</g>
<!-- dir_5fef273138b80e2d16ae7d064398c64f -->
<g id="node6" class="node">
<title>dir_5fef273138b80e2d16ae7d064398c64f</title>
<g id="a_node6"><a xlink:href="dir_5fef273138b80e2d16ae7d064398c64f.html" target="_top" xlink:title="mockArduino">
<polygon fill="#a2b4d6" stroke="#404040" points="235.5,-35.25 162.5,-35.25 162.5,-16 235.5,-16 235.5,-35.25"/>
<text text-anchor="middle" x="199" y="-21.75" font-family="Helvetica,sans-Serif" font-size="10.00">mockArduino</text>
</a>
</g>
</g>
<!-- dir_fc6accba5b44a40633678f574f1875d6&#45;&gt;dir_5fef273138b80e2d16ae7d064398c64f -->
<g id="edge2" class="edge">
<title>dir_fc6accba5b44a40633678f574f1875d6&#45;&gt;dir_5fef273138b80e2d16ae7d064398c64f</title>
<g id="a_edge2"><a xlink:href="dir_000000_000005.html" target="_top">
<path fill="none" stroke="#63b8ff" d="M109.78,-181.43C107.37,-160.35 104.09,-106.63 127,-71.25 135.73,-57.77 150.11,-47.68 163.73,-40.53"/>
<polygon fill="#63b8ff" stroke="#63b8ff" points="165.04,-43.78 172.53,-36.28 162,-37.47 165.04,-43.78"/>
</a>
</g>
<g id="a_edge2&#45;headlabel"><a xlink:href="dir_000000_000005.html" target="_top" xlink:title="3">
<text text-anchor="middle" x="164.4" y="-43.37" font-family="Helvetica,sans-Serif" font-size="10.00" fill="#63b8ff">3</text>
</a>
</g>
</g>
<!-- dir_4ed0e64677dd45d3c589f9acdb60311d -->
<g id="node9" class="node">
<title>dir_4ed0e64677dd45d3c589f9acdb60311d</title>
<g id="a_node9"><a xlink:href="dir_4ed0e64677dd45d3c589f9acdb60311d.html" target="_top" xlink:title="Service">
<polygon fill="#a2b4d6" stroke="#404040" points="184.5,-145.75 135.5,-145.75 135.5,-126.5 184.5,-126.5 184.5,-145.75"/>
<text text-anchor="middle" x="160" y="-132.25" font-family="Helvetica,sans-Serif" font-size="10.00">Service</text>
</a>
</g>
</g>
<!-- dir_fc6accba5b44a40633678f574f1875d6&#45;&gt;dir_4ed0e64677dd45d3c589f9acdb60311d -->
<g id="edge1" class="edge">
<title>dir_fc6accba5b44a40633678f574f1875d6&#45;&gt;dir_4ed0e64677dd45d3c589f9acdb60311d</title>
<g id="a_edge1"><a xlink:href="dir_000000_000008.html" target="_top">
<path fill="none" stroke="#63b8ff" d="M113.93,-181.58C119.23,-174.07 128.98,-163.06 138.26,-153.88"/>
<polygon fill="#63b8ff" stroke="#63b8ff" points="140.54,-156.55 145.42,-147.15 135.74,-151.45 140.54,-156.55"/>
</a>
</g>
<g id="a_edge1&#45;headlabel"><a xlink:href="dir_000000_000008.html" target="_top" xlink:title="2">
<text text-anchor="middle" x="140.97" y="-156.17" font-family="Helvetica,sans-Serif" font-size="10.00" fill="#63b8ff">2</text>
</a>
</g>
</g>
<!-- dir_63423c24249a4ea801821a9ef8d1869d -->
<g id="node3" class="node">
<title>dir_63423c24249a4ea801821a9ef8d1869d</title>
<g id="a_node3"><a xlink:href="dir_63423c24249a4ea801821a9ef8d1869d.html" target="_top" xlink:title="Frame">
<polygon fill="#a2b4d6" stroke="#404040" points="179.88,-90.5 136.12,-90.5 136.12,-71.25 179.88,-71.25 179.88,-90.5"/>
<text text-anchor="middle" x="158" y="-77" font-family="Helvetica,sans-Serif" font-size="10.00">Frame</text>
</a>
</g>
</g>
<!-- dir_63423c24249a4ea801821a9ef8d1869d&#45;&gt;dir_5fef273138b80e2d16ae7d064398c64f -->
<g id="edge4" class="edge">
<title>dir_63423c24249a4ea801821a9ef8d1869d&#45;&gt;dir_5fef273138b80e2d16ae7d064398c64f</title>
<g id="a_edge4"><a xlink:href="dir_000001_000005.html" target="_top">
<path fill="none" stroke="#63b8ff" d="M164.77,-71.08C170.32,-63.88 178.34,-53.46 185.23,-44.51"/>
<polygon fill="#63b8ff" stroke="#63b8ff" points="187.83,-46.87 191.16,-36.81 182.29,-42.6 187.83,-46.87"/>
</a>
</g>
<g id="a_edge4&#45;headlabel"><a xlink:href="dir_000001_000005.html" target="_top" xlink:title="2">
<text text-anchor="middle" x="188.81" y="-46.37" font-family="Helvetica,sans-Serif" font-size="10.00" fill="#63b8ff">2</text>
</a>
</g>
</g>
<!-- dir_63423c24249a4ea801821a9ef8d1869d&#45;&gt;dir_4ed0e64677dd45d3c589f9acdb60311d -->
<g id="edge3" class="edge">
<title>dir_63423c24249a4ea801821a9ef8d1869d&#45;&gt;dir_4ed0e64677dd45d3c589f9acdb60311d</title>
<g id="a_edge3"><a xlink:href="dir_000001_000008.html" target="_top">
<path fill="none" stroke="#63b8ff" d="M163.54,-90.86C165.17,-97.42 165.97,-106.59 165.81,-114.88"/>
<polygon fill="#63b8ff" stroke="#63b8ff" points="162.33,-114.56 164.96,-124.82 169.3,-115.16 162.33,-114.56"/>
</a>
</g>
<g id="a_edge3&#45;headlabel"><a xlink:href="dir_000001_000008.html" target="_top" xlink:title="1">
<text text-anchor="middle" x="159.68" y="-108.37" font-family="Helvetica,sans-Serif" font-size="10.00" fill="#63b8ff">1</text>
</a>
</g>
</g>
<!-- dir_86b2acb48dc403d1a3fcbb48606cba44 -->
<g id="node4" class="node">
<title>dir_86b2acb48dc403d1a3fcbb48606cba44</title>
<g id="a_node4"><a xlink:href="dir_86b2acb48dc403d1a3fcbb48606cba44.html" target="_top" xlink:title="Interface">
<polygon fill="#a2b4d6" stroke="#404040" points="138.12,-256.25 83.88,-256.25 83.88,-237 138.12,-237 138.12,-256.25"/>
<text text-anchor="middle" x="111" y="-242.75" font-family="Helvetica,sans-Serif" font-size="10.00">Interface</text>
</a>
</g>
</g>
<!-- dir_86b2acb48dc403d1a3fcbb48606cba44&#45;&gt;dir_fc6accba5b44a40633678f574f1875d6 -->
<g id="edge8" class="edge">
<title>dir_86b2acb48dc403d1a3fcbb48606cba44&#45;&gt;dir_fc6accba5b44a40633678f574f1875d6</title>
<g id="a_edge8"><a xlink:href="dir_000002_000000.html" target="_top">
<path fill="none" stroke="#63b8ff" d="M111,-236.83C111,-230.32 111,-221.17 111,-212.87"/>
<polygon fill="#63b8ff" stroke="#63b8ff" points="114.5,-212.87 111,-202.87 107.5,-212.87 114.5,-212.87"/>
</a>
</g>
<g id="a_edge8&#45;headlabel"><a xlink:href="dir_000002_000000.html" target="_top" xlink:title="3">
<text text-anchor="middle" x="117.34" y="-211.08" font-family="Helvetica,sans-Serif" font-size="10.00" fill="#63b8ff">3</text>
</a>
</g>
</g>
<!-- dir_86b2acb48dc403d1a3fcbb48606cba44&#45;&gt;dir_63423c24249a4ea801821a9ef8d1869d -->
<g id="edge7" class="edge">
<title>dir_86b2acb48dc403d1a3fcbb48606cba44&#45;&gt;dir_63423c24249a4ea801821a9ef8d1869d</title>
<g id="a_edge7"><a xlink:href="dir_000002_000001.html" target="_top">
<path fill="none" stroke="#63b8ff" d="M97.47,-236.69C81.64,-225.01 58.59,-203.47 67,-181.75 80.8,-146.12 113.88,-115.39 136.12,-97.76"/>
<polygon fill="#63b8ff" stroke="#63b8ff" points="138.17,-100.6 143.98,-91.74 133.91,-95.04 138.17,-100.6"/>
</a>
</g>
<g id="a_edge7&#45;headlabel"><a xlink:href="dir_000002_000001.html" target="_top" xlink:title="2">
<text text-anchor="middle" x="138.25" y="-100.24" font-family="Helvetica,sans-Serif" font-size="10.00" fill="#63b8ff">2</text>
</a>
</g>
</g>
<!-- dir_86b2acb48dc403d1a3fcbb48606cba44&#45;&gt;dir_5fef273138b80e2d16ae7d064398c64f -->
<g id="edge6" class="edge">
<title>dir_86b2acb48dc403d1a3fcbb48606cba44&#45;&gt;dir_5fef273138b80e2d16ae7d064398c64f</title>
<g id="a_edge6"><a xlink:href="dir_000002_000005.html" target="_top">
<path fill="none" stroke="#63b8ff" d="M95.08,-236.58C83.23,-228.84 67.94,-216.5 61,-201 57.5,-193.19 59.32,-190.14 61,-181.75 71.67,-128.34 75.22,-109.49 114,-71.25 127.63,-57.81 146.14,-47.45 162.4,-40.11"/>
<polygon fill="#63b8ff" stroke="#63b8ff" points="163.48,-43.45 171.3,-36.31 160.73,-37.02 163.48,-43.45"/>
</a>
</g>
<g id="a_edge6&#45;headlabel"><a xlink:href="dir_000002_000005.html" target="_top" xlink:title="2">
<text text-anchor="middle" x="162.68" y="-43.01" font-family="Helvetica,sans-Serif" font-size="10.00" fill="#63b8ff">2</text>
</a>
</g>
</g>
<!-- dir_86b2acb48dc403d1a3fcbb48606cba44&#45;&gt;dir_4ed0e64677dd45d3c589f9acdb60311d -->
<g id="edge5" class="edge">
<title>dir_86b2acb48dc403d1a3fcbb48606cba44&#45;&gt;dir_4ed0e64677dd45d3c589f9acdb60311d</title>
<g id="a_edge5"><a xlink:href="dir_000002_000008.html" target="_top">
<path fill="none" stroke="#63b8ff" d="M123.9,-236.64C134.28,-228.62 148.22,-215.85 155,-201 161.24,-187.34 162.29,-170.32 161.88,-157.29"/>
<polygon fill="#63b8ff" stroke="#63b8ff" points="165.38,-157.12 161.24,-147.37 158.4,-157.57 165.38,-157.12"/>
</a>
</g>
<g id="a_edge5&#45;headlabel"><a xlink:href="dir_000002_000008.html" target="_top" xlink:title="2">
<text text-anchor="middle" x="168.35" y="-155.13" font-family="Helvetica,sans-Serif" font-size="10.00" fill="#63b8ff">2</text>
</a>
</g>
</g>
<!-- dir_b26a863ac7767141b40e2f918f5d691f -->
<g id="node5" class="node">
<title>dir_b26a863ac7767141b40e2f918f5d691f</title>
<g id="a_node5"><a xlink:href="dir_b26a863ac7767141b40e2f918f5d691f.html" target="_top" xlink:title="MessageService">
<polygon fill="#a2b4d6" stroke="#404040" points="272.38,-201 183.62,-201 183.62,-181.75 272.38,-181.75 272.38,-201"/>
<text text-anchor="middle" x="228" y="-187.5" font-family="Helvetica,sans-Serif" font-size="10.00">MessageService</text>
</a>
</g>
</g>
<!-- dir_b26a863ac7767141b40e2f918f5d691f&#45;&gt;dir_5fef273138b80e2d16ae7d064398c64f -->
<g id="edge10" class="edge">
<title>dir_b26a863ac7767141b40e2f918f5d691f&#45;&gt;dir_5fef273138b80e2d16ae7d064398c64f</title>
<g id="a_edge10"><a xlink:href="dir_000004_000005.html" target="_top">
<path fill="none" stroke="#63b8ff" d="M226.44,-181.57C221.94,-156.14 208.82,-82.1 202.5,-46.37"/>
<polygon fill="#63b8ff" stroke="#63b8ff" points="206.02,-46.2 200.83,-36.96 199.13,-47.42 206.02,-46.2"/>
</a>
</g>
<g id="a_edge10&#45;headlabel"><a xlink:href="dir_000004_000005.html" target="_top" xlink:title="2">
<text text-anchor="middle" x="209.18" y="-43.88" font-family="Helvetica,sans-Serif" font-size="10.00" fill="#63b8ff">2</text>
</a>
</g>
</g>
<!-- dir_b26a863ac7767141b40e2f918f5d691f&#45;&gt;dir_4ed0e64677dd45d3c589f9acdb60311d -->
<g id="edge9" class="edge">
<title>dir_b26a863ac7767141b40e2f918f5d691f&#45;&gt;dir_4ed0e64677dd45d3c589f9acdb60311d</title>
<g id="a_edge9"><a xlink:href="dir_000004_000008.html" target="_top">
<path fill="none" stroke="#63b8ff" d="M216.46,-181.34C206.54,-173.57 191.99,-162.17 180.14,-152.9"/>
<polygon fill="#63b8ff" stroke="#63b8ff" points="182.59,-150.37 172.56,-146.96 178.27,-155.88 182.59,-150.37"/>
</a>
</g>
<g id="a_edge9&#45;headlabel"><a xlink:href="dir_000004_000008.html" target="_top" xlink:title="2">
<text text-anchor="middle" x="185.98" y="-145.54" font-family="Helvetica,sans-Serif" font-size="10.00" fill="#63b8ff">2</text>
</a>
</g>
</g>
<!-- dir_a6d7d8b2b94a16b0dbe29dfcb8fdc3b9 -->
<g id="node7" class="node">
<title>dir_a6d7d8b2b94a16b0dbe29dfcb8fdc3b9</title>
<g id="a_node7"><a xlink:href="dir_a6d7d8b2b94a16b0dbe29dfcb8fdc3b9.html" target="_top" xlink:title="mockSoftwareSerial">
<polygon fill="#a2b4d6" stroke="#404040" points="393.88,-201 290.12,-201 290.12,-181.75 393.88,-181.75 393.88,-201"/>
<text text-anchor="middle" x="342" y="-187.5" font-family="Helvetica,sans-Serif" font-size="10.00">mockSoftwareSerial</text>
</a>
</g>
</g>
<!-- dir_a6d7d8b2b94a16b0dbe29dfcb8fdc3b9&#45;&gt;dir_5fef273138b80e2d16ae7d064398c64f -->
<g id="edge12" class="edge">
<title>dir_a6d7d8b2b94a16b0dbe29dfcb8fdc3b9&#45;&gt;dir_5fef273138b80e2d16ae7d064398c64f</title>
<g id="a_edge12"><a xlink:href="dir_000006_000005.html" target="_top">
<path fill="none" stroke="#63b8ff" d="M334.31,-181.57C311.62,-155.58 244.6,-78.84 214.25,-44.09"/>
<polygon fill="#63b8ff" stroke="#63b8ff" points="216.94,-41.84 207.72,-36.61 211.66,-46.45 216.94,-41.84"/>
</a>
</g>
<g id="a_edge12&#45;headlabel"><a xlink:href="dir_000006_000005.html" target="_top" xlink:title="1">
<text text-anchor="middle" x="220.44" y="-37.67" font-family="Helvetica,sans-Serif" font-size="10.00" fill="#63b8ff">1</text>
</a>
</g>
</g>
<!-- dir_a6d7d8b2b94a16b0dbe29dfcb8fdc3b9&#45;&gt;dir_4ed0e64677dd45d3c589f9acdb60311d -->
<g id="edge11" class="edge">
<title>dir_a6d7d8b2b94a16b0dbe29dfcb8fdc3b9&#45;&gt;dir_4ed0e64677dd45d3c589f9acdb60311d</title>
<g id="a_edge11"><a xlink:href="dir_000006_000008.html" target="_top">
<path fill="none" stroke="#63b8ff" d="M311.13,-181.34C279.14,-171.98 229.23,-157.38 195.6,-147.54"/>
<polygon fill="#63b8ff" stroke="#63b8ff" points="196.91,-144.28 186.33,-144.83 194.94,-150.99 196.91,-144.28"/>
</a>
</g>
<g id="a_edge11&#45;headlabel"><a xlink:href="dir_000006_000008.html" target="_top" xlink:title="1">
<text text-anchor="middle" x="199.7" y="-138.26" font-family="Helvetica,sans-Serif" font-size="10.00" fill="#63b8ff">1</text>
</a>
</g>
</g>
<!-- dir_af54e730ac025cc6f7f4762292367803 -->
<g id="node8" class="node">
<title>dir_af54e730ac025cc6f7f4762292367803</title>
<g id="a_node8"><a xlink:href="dir_af54e730ac025cc6f7f4762292367803.html" target="_top" xlink:title="ModbusRTU">
<polygon fill="#a2b4d6" stroke="#404040" points="263.75,-311.5 192.25,-311.5 192.25,-292.25 263.75,-292.25 263.75,-311.5"/>
<text text-anchor="middle" x="228" y="-298" font-family="Helvetica,sans-Serif" font-size="10.00">ModbusRTU</text>
</a>
</g>
</g>
<!-- dir_af54e730ac025cc6f7f4762292367803&#45;&gt;dir_63423c24249a4ea801821a9ef8d1869d -->
<g id="edge14" class="edge">
<title>dir_af54e730ac025cc6f7f4762292367803&#45;&gt;dir_63423c24249a4ea801821a9ef8d1869d</title>
<g id="a_edge14"><a xlink:href="dir_000007_000001.html" target="_top">
<path fill="none" stroke="#63b8ff" d="M191.91,-300.15C157.17,-297.46 105.55,-287.91 75,-256.25 34.86,-214.65 46.26,-170.29 84,-126.5 95.27,-113.42 111.36,-103.09 125.66,-95.67"/>
<polygon fill="#63b8ff" stroke="#63b8ff" points="126.85,-98.98 134.3,-91.45 123.78,-92.69 126.85,-98.98"/>
</a>
</g>
<g id="a_edge14&#45;headlabel"><a xlink:href="dir_000007_000001.html" target="_top" xlink:title="1">
<text text-anchor="middle" x="126.23" y="-98.57" font-family="Helvetica,sans-Serif" font-size="10.00" fill="#63b8ff">1</text>
</a>
</g>
</g>
<!-- dir_af54e730ac025cc6f7f4762292367803&#45;&gt;dir_86b2acb48dc403d1a3fcbb48606cba44 -->
<g id="edge15" class="edge">
<title>dir_af54e730ac025cc6f7f4762292367803&#45;&gt;dir_86b2acb48dc403d1a3fcbb48606cba44</title>
<g id="a_edge15"><a xlink:href="dir_000007_000002.html" target="_top">
<path fill="none" stroke="#63b8ff" d="M208.15,-291.84C189.83,-283.5 162.35,-271 141.29,-261.41"/>
<polygon fill="#63b8ff" stroke="#63b8ff" points="142.87,-258.29 132.32,-257.33 139.97,-264.66 142.87,-258.29"/>
</a>
</g>
<g id="a_edge15&#45;headlabel"><a xlink:href="dir_000007_000002.html" target="_top" xlink:title="2">
<text text-anchor="middle" x="145.94" y="-252.69" font-family="Helvetica,sans-Serif" font-size="10.00" fill="#63b8ff">2</text>
</a>
</g>
</g>
<!-- dir_af54e730ac025cc6f7f4762292367803&#45;&gt;dir_b26a863ac7767141b40e2f918f5d691f -->
<g id="edge17" class="edge">
<title>dir_af54e730ac025cc6f7f4762292367803&#45;&gt;dir_b26a863ac7767141b40e2f918f5d691f</title>
<g id="a_edge17"><a xlink:href="dir_000007_000004.html" target="_top">
<path fill="none" stroke="#63b8ff" d="M228,-292C228,-274.75 228,-236.33 228,-212.56"/>
<polygon fill="#63b8ff" stroke="#63b8ff" points="231.5,-212.89 228,-202.89 224.5,-212.89 231.5,-212.89"/>
</a>
</g>
<g id="a_edge17&#45;headlabel"><a xlink:href="dir_000007_000004.html" target="_top" xlink:title="1">
<text text-anchor="middle" x="234.34" y="-211.1" font-family="Helvetica,sans-Serif" font-size="10.00" fill="#63b8ff">1</text>
</a>
</g>
</g>
<!-- dir_af54e730ac025cc6f7f4762292367803&#45;&gt;dir_5fef273138b80e2d16ae7d064398c64f -->
<g id="edge13" class="edge">
<title>dir_af54e730ac025cc6f7f4762292367803&#45;&gt;dir_5fef273138b80e2d16ae7d064398c64f</title>
<g id="a_edge13"><a xlink:href="dir_000007_000005.html" target="_top">
<path fill="none" stroke="#63b8ff" d="M264.11,-296.14C317.95,-286.82 413,-260.7 413,-192.38 413,-192.38 413,-192.38 413,-135.12 413,-61.21 310.17,-37.63 247.07,-30.12"/>
<polygon fill="#63b8ff" stroke="#63b8ff" points="247.61,-26.66 237.29,-29.06 246.86,-33.62 247.61,-26.66"/>
</a>
</g>
<g id="a_edge13&#45;headlabel"><a xlink:href="dir_000007_000005.html" target="_top" xlink:title="3">
<text text-anchor="middle" x="249.99" y="-20.19" font-family="Helvetica,sans-Serif" font-size="10.00" fill="#63b8ff">3</text>
</a>
</g>
</g>
<!-- dir_af54e730ac025cc6f7f4762292367803&#45;&gt;dir_a6d7d8b2b94a16b0dbe29dfcb8fdc3b9 -->
<g id="edge16" class="edge">
<title>dir_af54e730ac025cc6f7f4762292367803&#45;&gt;dir_a6d7d8b2b94a16b0dbe29dfcb8fdc3b9</title>
<g id="a_edge16"><a xlink:href="dir_000007_000006.html" target="_top">
<path fill="none" stroke="#63b8ff" d="M237.33,-292C256.37,-273.88 299.96,-232.38 324.46,-209.07"/>
<polygon fill="#63b8ff" stroke="#63b8ff" points="326.61,-211.85 331.45,-202.42 321.79,-206.78 326.61,-211.85"/>
</a>
</g>
<g id="a_edge16&#45;headlabel"><a xlink:href="dir_000007_000006.html" target="_top" xlink:title="1">
<text text-anchor="middle" x="327.06" y="-211.47" font-family="Helvetica,sans-Serif" font-size="10.00" fill="#63b8ff">1</text>
</a>
</g>
</g>
<!-- dir_4ed0e64677dd45d3c589f9acdb60311d&#45;&gt;dir_fc6accba5b44a40633678f574f1875d6 -->
<g id="edge20" class="edge">
<title>dir_4ed0e64677dd45d3c589f9acdb60311d&#45;&gt;dir_fc6accba5b44a40633678f574f1875d6</title>
<g id="a_edge20"><a xlink:href="dir_000008_000000.html" target="_top">
<path fill="none" stroke="#63b8ff" d="M157,-146.02C151.68,-153.53 141.99,-164.47 132.75,-173.61"/>
<polygon fill="#63b8ff" stroke="#63b8ff" points="130.52,-170.9 125.63,-180.3 135.31,-176 130.52,-170.9"/>
</a>
</g>
<g id="a_edge20&#45;headlabel"><a xlink:href="dir_000008_000000.html" target="_top" xlink:title="1">
<text text-anchor="middle" x="130.09" y="-163.53" font-family="Helvetica,sans-Serif" font-size="10.00" fill="#63b8ff">1</text>
</a>
</g>
</g>
<!-- dir_4ed0e64677dd45d3c589f9acdb60311d&#45;&gt;dir_63423c24249a4ea801821a9ef8d1869d -->
<g id="edge19" class="edge">
<title>dir_4ed0e64677dd45d3c589f9acdb60311d&#45;&gt;dir_63423c24249a4ea801821a9ef8d1869d</title>
<g id="a_edge19"><a xlink:href="dir_000008_000001.html" target="_top">
<path fill="none" stroke="#63b8ff" d="M154.5,-126.33C152.85,-119.74 152.03,-110.46 152.19,-102.07"/>
<polygon fill="#63b8ff" stroke="#63b8ff" points="155.65,-102.63 153,-92.37 148.68,-102.04 155.65,-102.63"/>
</a>
</g>
<g id="a_edge19&#45;headlabel"><a xlink:href="dir_000008_000001.html" target="_top" xlink:title="1">
<text text-anchor="middle" x="158.31" y="-101.06" font-family="Helvetica,sans-Serif" font-size="10.00" fill="#63b8ff">1</text>
</a>
</g>
</g>
<!-- dir_4ed0e64677dd45d3c589f9acdb60311d&#45;&gt;dir_5fef273138b80e2d16ae7d064398c64f -->
<g id="edge18" class="edge">
<title>dir_4ed0e64677dd45d3c589f9acdb60311d&#45;&gt;dir_5fef273138b80e2d16ae7d064398c64f</title>
<g id="a_edge18"><a xlink:href="dir_000008_000005.html" target="_top">
<path fill="none" stroke="#63b8ff" d="M167.46,-126.18C174.2,-117.59 183.84,-103.96 189,-90.5 194.36,-76.51 196.85,-59.74 198,-46.89"/>
<polygon fill="#63b8ff" stroke="#63b8ff" points="201.48,-47.33 198.67,-37.11 194.5,-46.85 201.48,-47.33"/>
</a>
</g>
<g id="a_edge18&#45;headlabel"><a xlink:href="dir_000008_000005.html" target="_top" xlink:title="4">
<text text-anchor="middle" x="204.17" y="-45.72" font-family="Helvetica,sans-Serif" font-size="10.00" fill="#63b8ff">4</text>
</a>
</g>
</g>
</g>
</svg>
