<?xml version="1.0" encoding="UTF-8" standalone="no"?>
<!DOCTYPE svg PUBLIC "-//W3C//DTD SVG 1.1//EN"
 "http://www.w3.org/Graphics/SVG/1.1/DTD/svg11.dtd">
<!-- Generated by graphviz version 12.1.2 (20240928.0832)
 -->
<!-- Title: Graphical Class Hierarchy Pages: 1 -->
<svg width="409pt" height="113pt"
 viewBox="0.00 0.00 408.50 112.88" xmlns="http://www.w3.org/2000/svg" xmlns:xlink="http://www.w3.org/1999/xlink">
<g id="graph0" class="graph" transform="scale(1 1) rotate(0) translate(4 108.88)">
<title>Graphical Class Hierarchy</title>
<!-- Node0 -->
<g id="Node000000" class="node">
<title>Node0</title>
<g id="a_Node000000"><a xlink:href="class_service_base.html" target="_top" xlink:title="Service&#45;base&#45;class to add class&#45;functions to vtable.">
<polygon fill="white" stroke="#666666" points="71.5,-67.88 0,-67.88 0,-48.62 71.5,-48.62 71.5,-67.88"/>
<text text-anchor="middle" x="35.75" y="-54.38" font-family="Helvetica,sans-Serif" font-size="10.00">ServiceBase</text>
</a>
</g>
</g>
<!-- Node1 -->
<g id="Node000001" class="node">
<title>Node1</title>
<g id="a_Node000001"><a xlink:href="class_service.html" target="_top" xlink:title=" ">
<polygon fill="white" stroke="#666666" points="266,-104.88 117.25,-104.88 117.25,-85.62 266,-85.62 266,-104.88"/>
<text text-anchor="middle" x="191.62" y="-91.38" font-family="Helvetica,sans-Serif" font-size="10.00">Service&lt; Error, STACKSIZE &gt;</text>
</a>
</g>
</g>
<!-- Node0&#45;&gt;Node1 -->
<g id="edge12_Node000000_Node000001" class="edge">
<title>Node0&#45;&gt;Node1</title>
<g id="a_edge12_Node000000_Node000001"><a xlink:title=" ">
<path fill="none" stroke="#63b8ff" d="M82.86,-70.98C91.05,-73.14 99.51,-75.31 107.5,-77.25 118.69,-79.96 130.78,-82.69 142.18,-85.18"/>
<polygon fill="#63b8ff" stroke="#63b8ff" points="83.96,-67.65 73.39,-68.45 82.15,-74.42 83.96,-67.65"/>
</a>
</g>
</g>
<!-- Node3 -->
<g id="Node000003" class="node">
<title>Node3</title>
<g id="a_Node000003"><a xlink:href="class_service.html" target="_top" xlink:title=" ">
<polygon fill="white" stroke="#666666" points="275.75,-67.88 107.5,-67.88 107.5,-48.62 275.75,-48.62 275.75,-67.88"/>
<text text-anchor="middle" x="191.62" y="-54.38" font-family="Helvetica,sans-Serif" font-size="10.00">Service&lt; Message, STACKSIZE &gt;</text>
</a>
</g>
</g>
<!-- Node0&#45;&gt;Node3 -->
<g id="edge14_Node000000_Node000003" class="edge">
<title>Node0&#45;&gt;Node3</title>
<g id="a_edge14_Node000000_Node000003"><a xlink:title=" ">
<path fill="none" stroke="#63b8ff" d="M82.96,-58.25C90.69,-58.25 98.91,-58.25 107.23,-58.25"/>
<polygon fill="#63b8ff" stroke="#63b8ff" points="83.18,-54.75 73.18,-58.25 83.18,-61.75 83.18,-54.75"/>
</a>
</g>
</g>
<!-- Node5 -->
<g id="Node000005" class="node">
<title>Node5</title>
<g id="a_Node000005"><a xlink:href="class_service.html" target="_top" xlink:title="Service&#45;Template to derive a Service class by defining the Content (derived Class of &quot;Content&quot;) to ha...">
<polygon fill="white" stroke="#666666" points="252.5,-30.5 130.75,-30.5 130.75,0 252.5,0 252.5,-30.5"/>
<text text-anchor="start" x="138.75" y="-17" font-family="Helvetica,sans-Serif" font-size="10.00">Service&lt; content_class,</text>
<text text-anchor="middle" x="191.62" y="-5.75" font-family="Helvetica,sans-Serif" font-size="10.00"> stackSize &gt;</text>
</a>
</g>
</g>
<!-- Node0&#45;&gt;Node5 -->
<g id="edge16_Node000000_Node000005" class="edge">
<title>Node0&#45;&gt;Node5</title>
<g id="a_edge16_Node000000_Node000005"><a xlink:title=" ">
<path fill="none" stroke="#63b8ff" d="M82.54,-45.45C98.83,-40.9 117.36,-35.72 134.42,-30.96"/>
<polygon fill="#63b8ff" stroke="#63b8ff" points="81.81,-42.02 73.12,-48.09 83.7,-48.76 81.81,-42.02"/>
</a>
</g>
</g>
<!-- Node2 -->
<g id="Node000002" class="node">
<title>Node2</title>
<g id="a_Node000002"><a xlink:href="class_error_service.html" target="_top" xlink:title="Service class for handling Errors.">
<polygon fill="white" stroke="#666666" points="391.12,-104.88 321.12,-104.88 321.12,-85.62 391.12,-85.62 391.12,-104.88"/>
<text text-anchor="middle" x="356.12" y="-91.38" font-family="Helvetica,sans-Serif" font-size="10.00">ErrorService</text>
</a>
</g>
</g>
<!-- Node1&#45;&gt;Node2 -->
<g id="edge13_Node000001_Node000002" class="edge">
<title>Node1&#45;&gt;Node2</title>
<g id="a_edge13_Node000001_Node000002"><a xlink:title=" ">
<path fill="none" stroke="#63b8ff" d="M277.42,-95.25C292.74,-95.25 307.89,-95.25 320.69,-95.25"/>
<polygon fill="#63b8ff" stroke="#63b8ff" points="277.78,-91.75 267.78,-95.25 277.78,-98.75 277.78,-91.75"/>
</a>
</g>
</g>
<!-- Node4 -->
<g id="Node000004" class="node">
<title>Node4</title>
<g id="a_Node000004"><a xlink:href="class_message_service.html" target="_top" xlink:title="Service class for handling messages and acknowledgments.">
<polygon fill="white" stroke="#666666" points="400.5,-67.88 311.75,-67.88 311.75,-48.62 400.5,-48.62 400.5,-67.88"/>
<text text-anchor="middle" x="356.12" y="-54.38" font-family="Helvetica,sans-Serif" font-size="10.00">MessageService</text>
</a>
</g>
</g>
<!-- Node3&#45;&gt;Node4 -->
<g id="edge15_Node000003_Node000004" class="edge">
<title>Node3&#45;&gt;Node4</title>
<g id="a_edge15_Node000003_Node000004"><a xlink:title=" ">
<path fill="none" stroke="#63b8ff" d="M287.01,-58.25C295.49,-58.25 303.77,-58.25 311.48,-58.25"/>
<polygon fill="#63b8ff" stroke="#63b8ff" points="287.29,-54.75 277.29,-58.25 287.29,-61.75 287.29,-54.75"/>
</a>
</g>
</g>
</g>
</svg>
