<?xml version="1.0" encoding="UTF-8" standalone="no"?>
<!DOCTYPE svg PUBLIC "-//W3C//DTD SVG 1.1//EN"
 "http://www.w3.org/Graphics/SVG/1.1/DTD/svg11.dtd">
<!-- Generated by graphviz version 12.1.2 (20240928.0832)
 -->
<!-- Title: Graphical Class Hierarchy Pages: 1 -->
<svg width="373pt" height="27pt"
 viewBox="0.00 0.00 372.50 27.25" xmlns="http://www.w3.org/2000/svg" xmlns:xlink="http://www.w3.org/1999/xlink">
<g id="graph0" class="graph" transform="scale(1 1) rotate(0) translate(4 23.25)">
<title>Graphical Class Hierarchy</title>
<!-- Node0 -->
<g id="Node000000" class="node">
<title>Node0</title>
<g id="a_Node000000"><a xlink:href="class_content.html" target="_top" xlink:title=" ">
<polygon fill="white" stroke="#666666" points="144.25,-19.25 0,-19.25 0,0 144.25,0 144.25,-19.25"/>
<text text-anchor="middle" x="72.12" y="-5.75" font-family="Helvetica,sans-Serif" font-size="10.00">Content&lt; String, CharArray &gt;</text>
</a>
</g>
</g>
<!-- Node1 -->
<g id="Node000001" class="node">
<title>Node1</title>
<g id="a_Node000001"><a xlink:href="class_frame.html" target="_top" xlink:title="Frame&#45;Class as derived class from Content The derived classes define: &#45;the conversion from a given pa...">
<polygon fill="white" stroke="#666666" points="224,-19.25 180.25,-19.25 180.25,0 224,0 224,-19.25"/>
<text text-anchor="middle" x="202.12" y="-5.75" font-family="Helvetica,sans-Serif" font-size="10.00">Frame</text>
</a>
</g>
</g>
<!-- Node0&#45;&gt;Node1 -->
<g id="edge3_Node000000_Node000001" class="edge">
<title>Node0&#45;&gt;Node1</title>
<g id="a_edge3_Node000000_Node000001"><a xlink:title=" ">
<path fill="none" stroke="#63b8ff" d="M155.87,-9.62C164.59,-9.62 172.8,-9.62 179.77,-9.62"/>
<polygon fill="#63b8ff" stroke="#63b8ff" points="156.12,-6.13 146.12,-9.63 156.12,-13.13 156.12,-6.13"/>
</a>
</g>
</g>
<!-- Node2 -->
<g id="Node000002" class="node">
<title>Node2</title>
<g id="a_Node000002"><a xlink:href="class_frame__modbus_r_t_u.html" target="_top" xlink:title="Class for defining the structure of the Modbus&#45;RTU&#45;Frame. Can be constructed by a given modbus&#45;frame ...">
<polygon fill="white" stroke="#666666" points="364.5,-19.25 260,-19.25 260,0 364.5,0 364.5,-19.25"/>
<text text-anchor="middle" x="312.25" y="-5.75" font-family="Helvetica,sans-Serif" font-size="10.00">Frame_modbusRTU</text>
</a>
</g>
</g>
<!-- Node1&#45;&gt;Node2 -->
<g id="edge4_Node000001_Node000002" class="edge">
<title>Node1&#45;&gt;Node2</title>
<g id="a_edge4_Node000001_Node000002"><a xlink:title=" ">
<path fill="none" stroke="#63b8ff" d="M235.8,-9.62C243.42,-9.62 251.72,-9.62 259.93,-9.62"/>
<polygon fill="#63b8ff" stroke="#63b8ff" points="236,-6.13 226,-9.63 236,-13.13 236,-6.13"/>
</a>
</g>
</g>
</g>
</svg>
