<?xml version="1.0" encoding="UTF-8"?>
<!DOCTYPE svg PUBLIC "-//W3C//DTD SVG 1.1//EN" "http://www.w3.org/Graphics/SVG/1.1/DTD/svg11.dtd">
<svg xmlns="http://www.w3.org/2000/svg" xmlns:xlink="http://www.w3.org/1999/xlink" version="1.1" width="91px" height="94px" viewBox="-0.5 -0.5 91 94"><defs><style type="text/css">@import url(https://fonts.googleapis.com/css2?family=Architects+Daughter:wght@400;500);&#xa;</style></defs><g><path d="M 11.66 35.68 L 0 34.79 L 0 19.26 L 14.54 13.04 L 18.87 14.07 L 18.87 11.18 L 44.97 0 L 71.02 11.12 L 71.02 14.04 L 75.37 12.99 L 90 19.26 L 90 34.79 L 78.25 35.67 L 62.68 33.46 L 62.68 32.27 L 58.03 32.78 L 31.61 28.98 L 31.61 27.33 L 27.28 26.65 L 27.28 28.29 L 17.97 30.16 L 17.97 34.78 Z M 31.61 58.13 L 31.61 34.85 L 44.97 33.22 L 71.02 36.4 L 71.02 37.12 L 75.37 36.83 L 90 38.72 L 90 54.24 L 75.37 55.98 L 71.02 55.68 L 71.02 56.57 L 44.97 59.75 Z M 5.81 55 L 0 54.26 L 0 38.72 L 5.81 38.01 L 17.97 38.72 L 17.97 54.32 Z M 44.97 93 L 18.87 81.84 L 18.87 78.98 L 14.54 80.02 L 0 73.74 L 0 58.21 L 11.5 57.33 L 17.97 58.27 L 17.97 62.82 L 27.28 64.71 L 27.28 66.35 L 31.61 65.67 L 31.61 64.02 L 58.03 60.22 L 62.68 60.75 L 62.68 59.61 L 78.27 57.32 L 90 58.19 L 90 73.73 L 75.37 80.1 L 71.02 79.05 L 71.02 81.85 Z" fill="#759c3e" stroke="none" pointer-events="all"/><path d="M 44.97 59.75 L 31.61 58.13 L 31.61 34.85 L 44.97 33.22 Z M 75.37 36.83 L 75.37 55.98 L 71.02 55.68 L 71.02 37.12 Z M 75.37 32.13 L 62.68 33.46 L 62.68 32.27 L 71.02 31.33 L 71.02 14.04 L 75.37 12.99 Z M 18.87 25.34 L 18.87 11.18 L 44.97 0 L 44.97 26.53 L 31.61 28.98 L 31.61 22.09 Z M 5.81 33.73 L 0 34.79 L 0 19.26 L 14.54 13.04 L 14.54 26.44 L 5.81 28.7 Z M 5.81 55 L 0 54.26 L 0 38.72 L 5.81 38.01 Z M 14.54 80.02 L 0 73.74 L 0 58.21 L 5.81 59.31 L 5.81 64.3 L 14.54 66.54 Z M 71.02 79.05 L 71.02 61.67 L 62.68 60.75 L 62.68 59.61 L 75.37 60.92 L 75.37 80.1 Z M 44.97 93 L 18.87 81.84 L 18.87 67.66 L 31.61 70.91 L 31.61 64.02 L 44.97 66.48 Z" fill-opacity="0.3" fill="#000000" stroke="none" pointer-events="all"/><path d="M 11.66 35.68 L 0 34.79 L 5.81 33.73 L 17.97 34.78 Z M 62.68 33.46 L 75.37 32.13 L 90 34.79 L 78.25 35.67 Z M 58.03 32.78 L 31.61 28.98 L 44.97 26.53 L 71.02 31.33 Z M 31.61 27.33 L 18.87 25.34 L 31.61 22.09 Z M 17.97 30.16 L 5.81 28.7 L 14.54 26.44 L 27.28 28.29 Z" fill-opacity="0.5" fill="#000000" stroke="none" pointer-events="all"/><path d="M 62.68 59.61 L 78.27 57.32 L 90 58.19 L 75.37 60.92 Z M 31.61 64.02 L 58.03 60.22 L 71.02 61.67 L 44.97 66.48 Z M 18.87 67.66 L 31.61 65.67 L 31.61 70.91 Z M 5.81 64.3 L 17.97 62.82 L 27.28 64.71 L 14.54 66.54 Z M 5.81 59.31 L 0 58.21 L 11.5 57.33 L 17.97 58.27 Z" fill-opacity="0.3" fill="#ffffff" stroke="none" pointer-events="all"/></g></svg>