<?xml version="1.0" encoding="UTF-8" standalone="no"?>
<!DOCTYPE svg PUBLIC "-//W3C//DTD SVG 1.1//EN"
 "http://www.w3.org/Graphics/SVG/1.1/DTD/svg11.dtd">
<!-- Generated by graphviz version 12.1.2 (20240928.0832)
 -->
<!-- Title: /Users/felixschulke/Developement/Arduino/Modbus_RTU/Modbus_RTU/Modbus&#45;RTU/src/main.cpp Pages: 1 -->
<svg width="1256pt" height="503pt"
 viewBox="0.00 0.00 1255.76 503.00" xmlns="http://www.w3.org/2000/svg" xmlns:xlink="http://www.w3.org/1999/xlink">
<g id="graph0" class="graph" transform="scale(1 1) rotate(0) translate(4 499)">
<title>/Users/felixschulke/Developement/Arduino/Modbus_RTU/Modbus_RTU/Modbus&#45;RTU/src/main.cpp</title>
<!-- Node1 -->
<g id="Node000001" class="node">
<title>Node1</title>
<g id="a_Node000001"><a xlink:title="This main is an example&#45;implementation of a simple modbus&#45;messenger to demonstrate the usage of a lay...">
<polygon fill="#999999" stroke="#666666" points="947.51,-495 804.01,-495 804.01,-442 947.51,-442 947.51,-495"/>
<text text-anchor="start" x="812.01" y="-481.5" font-family="Helvetica,sans-Serif" font-size="10.00">/Users/felixschulke</text>
<text text-anchor="start" x="812.01" y="-470.25" font-family="Helvetica,sans-Serif" font-size="10.00">/Developement/Arduino</text>
<text text-anchor="start" x="812.01" y="-459" font-family="Helvetica,sans-Serif" font-size="10.00">/Modbus_RTU/Modbus_RTU</text>
<text text-anchor="middle" x="875.76" y="-447.75" font-family="Helvetica,sans-Serif" font-size="10.00">/Modbus&#45;RTU/src/main.cpp</text>
</a>
</g>
</g>
<!-- Node2 -->
<g id="Node000002" class="node">
<title>Node2</title>
<g id="a_Node000002"><a xlink:href="mock_arduino_8h.html" target="_top" xlink:title=" ">
<polygon fill="white" stroke="#666666" points="806.39,-74.5 725.14,-74.5 725.14,-55.25 806.39,-55.25 806.39,-74.5"/>
<text text-anchor="middle" x="765.76" y="-61" font-family="Helvetica,sans-Serif" font-size="10.00">mockArduino.h</text>
</a>
</g>
</g>
<!-- Node1&#45;&gt;Node2 -->
<g id="edge1_Node000001_Node000002" class="edge">
<title>Node1&#45;&gt;Node2</title>
<g id="a_edge1_Node000001_Node000002"><a xlink:title=" ">
<path fill="none" stroke="#63b8ff" d="M947.93,-458.14C1056.11,-442.06 1247.76,-404.74 1247.76,-342.12 1247.76,-342.12 1247.76,-342.12 1247.76,-174.38 1247.76,-87.04 942.76,-69.99 818,-66.67"/>
<polygon fill="#63b8ff" stroke="#63b8ff" points="818.45,-63.18 808.37,-66.44 818.28,-70.18 818.45,-63.18"/>
</a>
</g>
</g>
<!-- Node9 -->
<g id="Node000009" class="node">
<title>Node9</title>
<g id="a_Node000009"><a xlink:href="_service_interface__modbus_r_t_u_8h.html" target="_top" xlink:title=" ">
<polygon fill="white" stroke="#666666" points="953.89,-406 797.64,-406 797.64,-386.75 953.89,-386.75 953.89,-406"/>
<text text-anchor="middle" x="875.76" y="-392.5" font-family="Helvetica,sans-Serif" font-size="10.00">ServiceInterface_modbusRTU.h</text>
</a>
</g>
</g>
<!-- Node1&#45;&gt;Node9 -->
<g id="edge8_Node000001_Node000009" class="edge">
<title>Node1&#45;&gt;Node9</title>
<g id="a_edge8_Node000001_Node000009"><a xlink:title=" ">
<path fill="none" stroke="#63b8ff" d="M875.76,-441.79C875.76,-433.87 875.76,-425.27 875.76,-417.77"/>
<polygon fill="#63b8ff" stroke="#63b8ff" points="879.26,-418 875.76,-408 872.26,-418 879.26,-418"/>
</a>
</g>
</g>
<!-- Node22 -->
<g id="Node000022" class="node">
<title>Node22</title>
<g id="a_Node000022"><a xlink:href="_error_service_8h.html" target="_top" xlink:title=" ">
<polygon fill="white" stroke="#666666" points="507.89,-240.25 429.64,-240.25 429.64,-221 507.89,-221 507.89,-240.25"/>
<text text-anchor="middle" x="468.76" y="-226.75" font-family="Helvetica,sans-Serif" font-size="10.00">ErrorService.h</text>
</a>
</g>
</g>
<!-- Node1&#45;&gt;Node22 -->
<g id="edge70_Node000001_Node000022" class="edge">
<title>Node1&#45;&gt;Node22</title>
<g id="a_edge70_Node000001_Node000022"><a xlink:title=" ">
<path fill="none" stroke="#63b8ff" d="M814.76,-441.52C745.84,-410.96 631.56,-356.57 541.76,-295.5 521,-281.38 499.67,-262.05 485.47,-248.36"/>
<polygon fill="#63b8ff" stroke="#63b8ff" points="488.29,-246.22 478.7,-241.72 483.39,-251.22 488.29,-246.22"/>
</a>
</g>
</g>
<!-- Node23 -->
<g id="Node000023" class="node">
<title>Node23</title>
<g id="a_Node000023"><a xlink:href="_comm_interface__modbus_r_t_u_8h.html" target="_top" xlink:title=" ">
<polygon fill="white" stroke="#666666" points="1058.01,-350.75 905.51,-350.75 905.51,-331.5 1058.01,-331.5 1058.01,-350.75"/>
<text text-anchor="middle" x="981.76" y="-337.25" font-family="Helvetica,sans-Serif" font-size="10.00">CommInterface_modbusRTU.h</text>
</a>
</g>
</g>
<!-- Node1&#45;&gt;Node23 -->
<g id="edge68_Node000001_Node000023" class="edge">
<title>Node1&#45;&gt;Node23</title>
<g id="a_edge68_Node000001_Node000023"><a xlink:title=" ">
<path fill="none" stroke="#63b8ff" d="M924.01,-441.76C938.2,-432.17 952.63,-420.13 962.76,-406 971.96,-393.18 976.75,-375.88 979.22,-362.53"/>
<polygon fill="#63b8ff" stroke="#63b8ff" points="982.67,-363.11 980.71,-352.69 975.75,-362.05 982.67,-363.11"/>
</a>
</g>
</g>
<!-- Node26 -->
<g id="Node000026" class="node">
<title>Node26</title>
<g id="a_Node000026"><a xlink:href="_message_service_8h.html" target="_top" xlink:title=" ">
<polygon fill="white" stroke="#666666" points="411.26,-240.25 314.26,-240.25 314.26,-221 411.26,-221 411.26,-240.25"/>
<text text-anchor="middle" x="362.76" y="-226.75" font-family="Helvetica,sans-Serif" font-size="10.00">MessageService.h</text>
</a>
</g>
</g>
<!-- Node1&#45;&gt;Node26 -->
<g id="edge69_Node000001_Node000026" class="edge">
<title>Node1&#45;&gt;Node26</title>
<g id="a_edge69_Node000001_Node000026"><a xlink:title=" ">
<path fill="none" stroke="#63b8ff" d="M803.85,-445.73C770.52,-434.93 730.65,-420.99 695.76,-406 576.87,-354.92 442.38,-278.36 387.78,-246.43"/>
<polygon fill="#63b8ff" stroke="#63b8ff" points="389.65,-243.47 379.26,-241.43 386.11,-249.51 389.65,-243.47"/>
</a>
</g>
</g>
<!-- Node3 -->
<g id="Node000003" class="node">
<title>Node3</title>
<g id="a_Node000003"><a xlink:title=" ">
<polygon fill="#e0e0e0" stroke="#999999" points="439.51,-19.25 386.01,-19.25 386.01,0 439.51,0 439.51,-19.25"/>
<text text-anchor="middle" x="412.76" y="-5.75" font-family="Helvetica,sans-Serif" font-size="10.00">iostream</text>
</a>
</g>
</g>
<!-- Node2&#45;&gt;Node3 -->
<g id="edge2_Node000002_Node000003" class="edge">
<title>Node2&#45;&gt;Node3</title>
<g id="a_edge2_Node000002_Node000003"><a xlink:title=" ">
<path fill="none" stroke="#63b8ff" d="M724.92,-57.71C656.1,-47.33 517.97,-26.5 450.96,-16.39"/>
<polygon fill="#63b8ff" stroke="#63b8ff" points="451.6,-12.94 441.19,-14.91 450.56,-19.87 451.6,-12.94"/>
</a>
</g>
</g>
<!-- Node4 -->
<g id="Node000004" class="node">
<title>Node4</title>
<g id="a_Node000004"><a xlink:title=" ">
<polygon fill="#e0e0e0" stroke="#999999" points="920.76,-19.25 880.76,-19.25 880.76,0 920.76,0 920.76,-19.25"/>
<text text-anchor="middle" x="900.76" y="-5.75" font-family="Helvetica,sans-Serif" font-size="10.00">string</text>
</a>
</g>
</g>
<!-- Node2&#45;&gt;Node4 -->
<g id="edge3_Node000002_Node000004" class="edge">
<title>Node2&#45;&gt;Node4</title>
<g id="a_edge3_Node000002_Node000004"><a xlink:title=" ">
<path fill="none" stroke="#63b8ff" d="M788.66,-54.84C810.97,-46.04 845.05,-32.6 869.78,-22.85"/>
<polygon fill="#63b8ff" stroke="#63b8ff" points="870.98,-26.14 878.99,-19.21 868.41,-19.62 870.98,-26.14"/>
</a>
</g>
</g>
<!-- Node5 -->
<g id="Node000005" class="node">
<title>Node5</title>
<g id="a_Node000005"><a xlink:title=" ">
<polygon fill="#e0e0e0" stroke="#999999" points="663.39,-19.25 612.14,-19.25 612.14,0 663.39,0 663.39,-19.25"/>
<text text-anchor="middle" x="637.76" y="-5.75" font-family="Helvetica,sans-Serif" font-size="10.00">sstream</text>
</a>
</g>
</g>
<!-- Node2&#45;&gt;Node5 -->
<g id="edge4_Node000002_Node000005" class="edge">
<title>Node2&#45;&gt;Node5</title>
<g id="a_edge4_Node000002_Node000005"><a xlink:title=" ">
<path fill="none" stroke="#63b8ff" d="M744.05,-54.84C723.73,-46.39 693.12,-33.65 669.95,-24.02"/>
<polygon fill="#63b8ff" stroke="#63b8ff" points="671.56,-20.89 660.98,-20.28 668.87,-27.36 671.56,-20.89"/>
</a>
</g>
</g>
<!-- Node6 -->
<g id="Node000006" class="node">
<title>Node6</title>
<g id="a_Node000006"><a xlink:title=" ">
<polygon fill="#e0e0e0" stroke="#999999" points="726.39,-19.25 681.14,-19.25 681.14,0 726.39,0 726.39,-19.25"/>
<text text-anchor="middle" x="703.76" y="-5.75" font-family="Helvetica,sans-Serif" font-size="10.00">chrono</text>
</a>
</g>
</g>
<!-- Node2&#45;&gt;Node6 -->
<g id="edge5_Node000002_Node000006" class="edge">
<title>Node2&#45;&gt;Node6</title>
<g id="a_edge5_Node000002_Node000006"><a xlink:title=" ">
<path fill="none" stroke="#63b8ff" d="M755.24,-54.84C746.37,-47.22 733.45,-36.12 722.77,-26.95"/>
<polygon fill="#63b8ff" stroke="#63b8ff" points="725.14,-24.37 715.27,-20.51 720.58,-29.68 725.14,-24.37"/>
</a>
</g>
</g>
<!-- Node7 -->
<g id="Node000007" class="node">
<title>Node7</title>
<g id="a_Node000007"><a xlink:title=" ">
<polygon fill="#e0e0e0" stroke="#999999" points="786.89,-19.25 744.64,-19.25 744.64,0 786.89,0 786.89,-19.25"/>
<text text-anchor="middle" x="765.76" y="-5.75" font-family="Helvetica,sans-Serif" font-size="10.00">queue</text>
</a>
</g>
</g>
<!-- Node2&#45;&gt;Node7 -->
<g id="edge6_Node000002_Node000007" class="edge">
<title>Node2&#45;&gt;Node7</title>
<g id="a_edge6_Node000002_Node000007"><a xlink:title=" ">
<path fill="none" stroke="#63b8ff" d="M765.76,-55.08C765.76,-48.57 765.76,-39.42 765.76,-31.12"/>
<polygon fill="#63b8ff" stroke="#63b8ff" points="769.26,-31.12 765.76,-21.12 762.26,-31.12 769.26,-31.12"/>
</a>
</g>
</g>
<!-- Node8 -->
<g id="Node000008" class="node">
<title>Node8</title>
<g id="a_Node000008"><a xlink:title=" ">
<polygon fill="#e0e0e0" stroke="#999999" points="862.76,-19.25 804.76,-19.25 804.76,0 862.76,0 862.76,-19.25"/>
<text text-anchor="middle" x="833.76" y="-5.75" font-family="Helvetica,sans-Serif" font-size="10.00">functional</text>
</a>
</g>
</g>
<!-- Node2&#45;&gt;Node8 -->
<g id="edge7_Node000002_Node000008" class="edge">
<title>Node2&#45;&gt;Node8</title>
<g id="a_edge7_Node000002_Node000008"><a xlink:title=" ">
<path fill="none" stroke="#63b8ff" d="M777.3,-54.84C787.22,-47.07 801.77,-35.67 813.62,-26.4"/>
<polygon fill="#63b8ff" stroke="#63b8ff" points="815.49,-29.38 821.2,-20.46 811.17,-23.87 815.49,-29.38"/>
</a>
</g>
</g>
<!-- Node9&#45;&gt;Node2 -->
<g id="edge9_Node000009_Node000002" class="edge">
<title>Node9&#45;&gt;Node2</title>
<g id="a_edge9_Node000009_Node000002"><a xlink:title=" ">
<path fill="none" stroke="#63b8ff" d="M950.72,-386.29C1049.19,-372.22 1209.76,-340.98 1209.76,-286.88 1209.76,-286.88 1209.76,-286.88 1209.76,-174.38 1209.76,-94.51 935.24,-73.16 817.92,-67.68"/>
<polygon fill="#63b8ff" stroke="#63b8ff" points="818.39,-64.2 808.25,-67.25 818.08,-71.19 818.39,-64.2"/>
</a>
</g>
</g>
<!-- Node10 -->
<g id="Node000010" class="node">
<title>Node10</title>
<g id="a_Node000010"><a xlink:href="_service_interface_8h.html" target="_top" xlink:title=" ">
<polygon fill="white" stroke="#666666" points="786.51,-350.75 691.01,-350.75 691.01,-331.5 786.51,-331.5 786.51,-350.75"/>
<text text-anchor="middle" x="738.76" y="-337.25" font-family="Helvetica,sans-Serif" font-size="10.00">ServiceInterface.h</text>
</a>
</g>
</g>
<!-- Node9&#45;&gt;Node10 -->
<g id="edge10_Node000009_Node000010" class="edge">
<title>Node9&#45;&gt;Node10</title>
<g id="a_edge10_Node000009_Node000010"><a xlink:title=" ">
<path fill="none" stroke="#63b8ff" d="M852.52,-386.34C830.58,-377.81 797.41,-364.92 772.55,-355.26"/>
<polygon fill="#63b8ff" stroke="#63b8ff" points="774.11,-352.11 763.53,-351.75 771.58,-358.64 774.11,-352.11"/>
</a>
</g>
</g>
<!-- Node9&#45;&gt;Node23 -->
<g id="edge49_Node000009_Node000023" class="edge">
<title>Node9&#45;&gt;Node23</title>
<g id="a_edge49_Node000009_Node000023"><a xlink:title=" ">
<path fill="none" stroke="#63b8ff" d="M893.74,-386.34C910.11,-378.12 934.55,-365.84 953.53,-356.31"/>
<polygon fill="#63b8ff" stroke="#63b8ff" points="954.97,-359.5 962.34,-351.88 951.83,-353.24 954.97,-359.5"/>
</a>
</g>
</g>
<!-- Node25 -->
<g id="Node000025" class="node">
<title>Node25</title>
<g id="a_Node000025"><a xlink:href="_frame__modbus_r_t_u_8h.html" target="_top" xlink:title=" ">
<polygon fill="white" stroke="#666666" points="944.14,-240.25 831.39,-240.25 831.39,-221 944.14,-221 944.14,-240.25"/>
<text text-anchor="middle" x="887.76" y="-226.75" font-family="Helvetica,sans-Serif" font-size="10.00">Frame_modbusRTU.h</text>
</a>
</g>
</g>
<!-- Node9&#45;&gt;Node25 -->
<g id="edge55_Node000009_Node000025" class="edge">
<title>Node9&#45;&gt;Node25</title>
<g id="a_edge55_Node000009_Node000025"><a xlink:title=" ">
<path fill="none" stroke="#63b8ff" d="M876.41,-386.57C878.26,-361.25 883.65,-287.75 886.28,-251.84"/>
<polygon fill="#63b8ff" stroke="#63b8ff" points="889.76,-252.21 887,-241.98 882.78,-251.7 889.76,-252.21"/>
</a>
</g>
</g>
<!-- Node9&#45;&gt;Node26 -->
<g id="edge58_Node000009_Node000026" class="edge">
<title>Node9&#45;&gt;Node26</title>
<g id="a_edge58_Node000009_Node000026"><a xlink:title=" ">
<path fill="none" stroke="#63b8ff" d="M828.27,-386.27C788.71,-378.25 731.08,-365.56 681.76,-350.75 574.54,-318.55 451.39,-268.8 394.55,-245.09"/>
<polygon fill="#63b8ff" stroke="#63b8ff" points="396.06,-241.93 385.48,-241.29 393.35,-248.38 396.06,-241.93"/>
</a>
</g>
</g>
<!-- Node10&#45;&gt;Node2 -->
<g id="edge11_Node000010_Node000002" class="edge">
<title>Node10&#45;&gt;Node2</title>
<g id="a_edge11_Node000010_Node000002"><a xlink:title=" ">
<path fill="none" stroke="#63b8ff" d="M740.87,-331.38C747.64,-302.7 768.86,-208.81 775.76,-129.75 776.51,-121.23 776.7,-119 775.76,-110.5 774.86,-102.31 773.04,-93.43 771.2,-85.76"/>
<polygon fill="#63b8ff" stroke="#63b8ff" points="774.61,-84.94 768.71,-76.13 767.83,-86.69 774.61,-84.94"/>
</a>
</g>
</g>
<!-- Node11 -->
<g id="Node000011" class="node">
<title>Node11</title>
<g id="a_Node000011"><a xlink:href="_comm_interface_8h.html" target="_top" xlink:title=" ">
<polygon fill="white" stroke="#666666" points="1017.64,-295.5 925.89,-295.5 925.89,-276.25 1017.64,-276.25 1017.64,-295.5"/>
<text text-anchor="middle" x="971.76" y="-282" font-family="Helvetica,sans-Serif" font-size="10.00">CommInterface.h</text>
</a>
</g>
</g>
<!-- Node10&#45;&gt;Node11 -->
<g id="edge12_Node000010_Node000011" class="edge">
<title>Node10&#45;&gt;Node11</title>
<g id="a_edge12_Node000010_Node000011"><a xlink:title=" ">
<path fill="none" stroke="#63b8ff" d="M778.55,-331.03C817.92,-322.03 878.34,-308.23 921.12,-298.45"/>
<polygon fill="#63b8ff" stroke="#63b8ff" points="921.69,-301.91 930.66,-296.27 920.13,-295.08 921.69,-301.91"/>
</a>
</g>
</g>
<!-- Node13 -->
<g id="Node000013" class="node">
<title>Node13</title>
<g id="a_Node000013"><a xlink:href="_error_state_8h.html" target="_top" xlink:title=" ">
<polygon fill="white" stroke="#666666" points="594.01,-240.25 525.51,-240.25 525.51,-221 594.01,-221 594.01,-240.25"/>
<text text-anchor="middle" x="559.76" y="-226.75" font-family="Helvetica,sans-Serif" font-size="10.00">ErrorState.h</text>
</a>
</g>
</g>
<!-- Node10&#45;&gt;Node13 -->
<g id="edge48_Node000010_Node000013" class="edge">
<title>Node10&#45;&gt;Node13</title>
<g id="a_edge48_Node000010_Node000013"><a xlink:title=" ">
<path fill="none" stroke="#63b8ff" d="M690.69,-331.04C664.39,-324.36 632.27,-313.27 607.76,-295.5 591.29,-283.56 577.94,-264.34 569.54,-250.1"/>
<polygon fill="#63b8ff" stroke="#63b8ff" points="572.78,-248.73 564.85,-241.71 566.67,-252.14 572.78,-248.73"/>
</a>
</g>
</g>
<!-- Node18 -->
<g id="Node000018" class="node">
<title>Node18</title>
<g id="a_Node000018"><a xlink:href="_service_cluster_8h.html" target="_top" xlink:title=" ">
<polygon fill="white" stroke="#666666" points="737.76,-240.25 649.76,-240.25 649.76,-221 737.76,-221 737.76,-240.25"/>
<text text-anchor="middle" x="693.76" y="-226.75" font-family="Helvetica,sans-Serif" font-size="10.00">ServiceCluster.h</text>
</a>
</g>
</g>
<!-- Node10&#45;&gt;Node18 -->
<g id="edge29_Node000010_Node000018" class="edge">
<title>Node10&#45;&gt;Node18</title>
<g id="a_edge29_Node000010_Node000018"><a xlink:title=" ">
<path fill="none" stroke="#63b8ff" d="M735.08,-331.25C727.86,-313.84 711.7,-274.87 701.86,-251.16"/>
<polygon fill="#63b8ff" stroke="#63b8ff" points="705.14,-249.92 698.07,-242.02 698.67,-252.6 705.14,-249.92"/>
</a>
</g>
</g>
<!-- Node20 -->
<g id="Node000020" class="node">
<title>Node20</title>
<g id="a_Node000020"><a xlink:href="_content__stack_8h.html" target="_top" xlink:title=" ">
<polygon fill="white" stroke="#666666" points="699.76,-129.75 611.76,-129.75 611.76,-110.5 699.76,-110.5 699.76,-129.75"/>
<text text-anchor="middle" x="655.76" y="-116.25" font-family="Helvetica,sans-Serif" font-size="10.00">Content_stack.h</text>
</a>
</g>
</g>
<!-- Node10&#45;&gt;Node20 -->
<g id="edge42_Node000010_Node000020" class="edge">
<title>Node10&#45;&gt;Node20</title>
<g id="a_edge42_Node000010_Node000020"><a xlink:title=" ">
<path fill="none" stroke="#63b8ff" d="M724.62,-331.19C701.84,-315.85 657.85,-282.08 640.76,-240.25 627.27,-207.24 638.51,-165.14 647.45,-140.85"/>
<polygon fill="#63b8ff" stroke="#63b8ff" points="650.69,-142.19 651.1,-131.6 644.18,-139.62 650.69,-142.19"/>
</a>
</g>
</g>
<!-- Node21 -->
<g id="Node000021" class="node">
<title>Node21</title>
<g id="a_Node000021"><a xlink:href="_frame_8h.html" target="_top" xlink:title=" ">
<polygon fill="white" stroke="#666666" points="883.76,-185 831.76,-185 831.76,-165.75 883.76,-165.75 883.76,-185"/>
<text text-anchor="middle" x="857.76" y="-171.5" font-family="Helvetica,sans-Serif" font-size="10.00">Frame.h</text>
</a>
</g>
</g>
<!-- Node10&#45;&gt;Node21 -->
<g id="edge38_Node000010_Node000021" class="edge">
<title>Node10&#45;&gt;Node21</title>
<g id="a_edge38_Node000010_Node000021"><a xlink:title=" ">
<path fill="none" stroke="#63b8ff" d="M748.2,-331.07C756.95,-322.41 770.05,-308.73 779.76,-295.5 802.39,-264.68 801.36,-252.68 822.76,-221 828.95,-211.84 836.45,-202.12 842.91,-194.11"/>
<polygon fill="#63b8ff" stroke="#63b8ff" points="845.53,-196.44 849.17,-186.49 840.12,-192 845.53,-196.44"/>
</a>
</g>
</g>
<!-- Node10&#45;&gt;Node22 -->
<g id="edge43_Node000010_Node000022" class="edge">
<title>Node10&#45;&gt;Node22</title>
<g id="a_edge43_Node000010_Node000022"><a xlink:title=" ">
<path fill="none" stroke="#63b8ff" d="M698.37,-331.02C666.81,-323.3 622.18,-311 584.76,-295.5 551.24,-281.61 514.96,-260.57 492.06,-246.47"/>
<polygon fill="#63b8ff" stroke="#63b8ff" points="494.17,-243.66 483.83,-241.34 490.46,-249.6 494.17,-243.66"/>
</a>
</g>
</g>
<!-- Node11&#45;&gt;Node2 -->
<g id="edge13_Node000011_Node000002" class="edge">
<title>Node11&#45;&gt;Node2</title>
<g id="a_edge13_Node000011_Node000002"><a xlink:title=" ">
<path fill="none" stroke="#63b8ff" d="M974.74,-275.95C983.54,-247.83 1006.22,-159.95 964.76,-110.5 946.16,-88.32 870.15,-76.27 817.64,-70.46"/>
<polygon fill="#63b8ff" stroke="#63b8ff" points="818.31,-67.01 808,-69.43 817.58,-73.97 818.31,-67.01"/>
</a>
</g>
</g>
<!-- Node12 -->
<g id="Node000012" class="node">
<title>Node12</title>
<g id="a_Node000012"><a xlink:href="_char_array_8h.html" target="_top" xlink:title=" ">
<polygon fill="white" stroke="#666666" points="937.26,-129.75 870.26,-129.75 870.26,-110.5 937.26,-110.5 937.26,-129.75"/>
<text text-anchor="middle" x="903.76" y="-116.25" font-family="Helvetica,sans-Serif" font-size="10.00">CharArray.h</text>
</a>
</g>
</g>
<!-- Node11&#45;&gt;Node12 -->
<g id="edge14_Node000011_Node000012" class="edge">
<title>Node11&#45;&gt;Node12</title>
<g id="a_edge14_Node000011_Node000012"><a xlink:title=" ">
<path fill="none" stroke="#63b8ff" d="M969.63,-276.04C966.52,-263.57 960.26,-240.18 952.76,-221 941.42,-191.98 924.91,-159.87 914.25,-140.09"/>
<polygon fill="#63b8ff" stroke="#63b8ff" points="917.33,-138.42 909.46,-131.31 911.18,-141.77 917.33,-138.42"/>
</a>
</g>
</g>
<!-- Node11&#45;&gt;Node13 -->
<g id="edge16_Node000011_Node000013" class="edge">
<title>Node11&#45;&gt;Node13</title>
<g id="a_edge16_Node000011_Node000013"><a xlink:title=" ">
<path fill="none" stroke="#63b8ff" d="M925.7,-278.92C846.24,-268.65 684.36,-247.73 605.28,-237.51"/>
<polygon fill="#63b8ff" stroke="#63b8ff" points="606.1,-234.09 595.74,-236.27 605.21,-241.03 606.1,-234.09"/>
</a>
</g>
</g>
<!-- Node12&#45;&gt;Node2 -->
<g id="edge15_Node000012_Node000002" class="edge">
<title>Node12&#45;&gt;Node2</title>
<g id="a_edge15_Node000012_Node000002"><a xlink:title=" ">
<path fill="none" stroke="#63b8ff" d="M880.35,-110.09C858.25,-101.56 824.84,-88.67 799.79,-79.01"/>
<polygon fill="#63b8ff" stroke="#63b8ff" points="801.29,-75.83 790.7,-75.5 798.77,-82.36 801.29,-75.83"/>
</a>
</g>
</g>
<!-- Node13&#45;&gt;Node2 -->
<g id="edge20_Node000013_Node000002" class="edge">
<title>Node13&#45;&gt;Node2</title>
<g id="a_edge20_Node000013_Node000002"><a xlink:title=" ">
<path fill="none" stroke="#63b8ff" d="M575.92,-220.62C604.31,-204.42 664.37,-168.4 708.76,-129.75 725,-115.61 741.11,-97.03 752.04,-83.55"/>
<polygon fill="#63b8ff" stroke="#63b8ff" points="754.59,-85.97 758.07,-75.96 749.11,-81.61 754.59,-85.97"/>
</a>
</g>
</g>
<!-- Node13&#45;&gt;Node3 -->
<g id="edge17_Node000013_Node000003" class="edge">
<title>Node13&#45;&gt;Node3</title>
<g id="a_edge17_Node000013_Node000003"><a xlink:title=" ">
<path fill="none" stroke="#63b8ff" d="M555.7,-220.71C549.85,-208.14 538.47,-184.63 526.76,-165.75 494.45,-113.67 449.93,-56.61 427.28,-28.42"/>
<polygon fill="#63b8ff" stroke="#63b8ff" points="430.19,-26.46 421.18,-20.89 424.75,-30.86 430.19,-26.46"/>
</a>
</g>
</g>
<!-- Node14 -->
<g id="Node000014" class="node">
<title>Node14</title>
<g id="a_Node000014"><a xlink:title=" ">
<polygon fill="#e0e0e0" stroke="#999999" points="189.39,-74.5 144.14,-74.5 144.14,-55.25 189.39,-55.25 189.39,-74.5"/>
<text text-anchor="middle" x="166.76" y="-61" font-family="Helvetica,sans-Serif" font-size="10.00">cstring</text>
</a>
</g>
</g>
<!-- Node13&#45;&gt;Node14 -->
<g id="edge18_Node000013_Node000014" class="edge">
<title>Node13&#45;&gt;Node14</title>
<g id="a_edge18_Node000013_Node000014"><a xlink:title=" ">
<path fill="none" stroke="#63b8ff" d="M525.08,-222.34C522.27,-221.85 519.47,-221.39 516.76,-221 472.82,-214.62 148.71,-217.78 118.76,-185 110.4,-175.85 107.1,-146.96 123.76,-110.5 128.69,-99.72 137.33,-89.95 145.59,-82.33"/>
<polygon fill="#63b8ff" stroke="#63b8ff" points="147.74,-85.09 153.05,-75.93 143.18,-79.78 147.74,-85.09"/>
</a>
</g>
</g>
<!-- Node15 -->
<g id="Node000015" class="node">
<title>Node15</title>
<g id="a_Node000015"><a xlink:title=" ">
<polygon fill="#e0e0e0" stroke="#999999" points="213.89,-129.75 171.64,-129.75 171.64,-110.5 213.89,-110.5 213.89,-129.75"/>
<text text-anchor="middle" x="192.76" y="-116.25" font-family="Helvetica,sans-Serif" font-size="10.00">cstdio</text>
</a>
</g>
</g>
<!-- Node13&#45;&gt;Node15 -->
<g id="edge19_Node000013_Node000015" class="edge">
<title>Node13&#45;&gt;Node15</title>
<g id="a_edge19_Node000013_Node000015"><a xlink:title=" ">
<path fill="none" stroke="#63b8ff" d="M525.05,-222.53C522.25,-222 519.46,-221.48 516.76,-221 414.9,-202.82 383,-223 286.76,-185 257.85,-173.58 228.92,-152.03 210.95,-137.14"/>
<polygon fill="#63b8ff" stroke="#63b8ff" points="213.65,-134.84 203.76,-131.03 209.11,-140.17 213.65,-134.84"/>
</a>
</g>
</g>
<!-- Node16 -->
<g id="Node000016" class="node">
<title>Node16</title>
<g id="a_Node000016"><a xlink:href="_error_8h.html" target="_top" xlink:title=" ">
<polygon fill="white" stroke="#666666" points="340.01,-185 295.51,-185 295.51,-165.75 340.01,-165.75 340.01,-185"/>
<text text-anchor="middle" x="317.76" y="-171.5" font-family="Helvetica,sans-Serif" font-size="10.00">Error.h</text>
</a>
</g>
</g>
<!-- Node13&#45;&gt;Node16 -->
<g id="edge21_Node000013_Node000016" class="edge">
<title>Node13&#45;&gt;Node16</title>
<g id="a_edge21_Node000013_Node000016"><a xlink:title=" ">
<path fill="none" stroke="#63b8ff" d="M525.09,-222C478.8,-211.81 397.34,-193.89 351.52,-183.8"/>
<polygon fill="#63b8ff" stroke="#63b8ff" points="352.41,-180.42 341.89,-181.68 350.91,-187.25 352.41,-180.42"/>
</a>
</g>
</g>
<!-- Node16&#45;&gt;Node2 -->
<g id="edge25_Node000016_Node000002" class="edge">
<title>Node16&#45;&gt;Node2</title>
<g id="a_edge25_Node000016_Node000002"><a xlink:title=" ">
<path fill="none" stroke="#63b8ff" d="M322.71,-165.51C331.25,-151.17 350.21,-123.21 374.76,-110.5 432.58,-80.55 621.04,-70.46 713.56,-67.26"/>
<polygon fill="#63b8ff" stroke="#63b8ff" points="713.5,-70.76 723.38,-66.94 713.27,-63.77 713.5,-70.76"/>
</a>
</g>
</g>
<!-- Node16&#45;&gt;Node3 -->
<g id="edge22_Node000016_Node000003" class="edge">
<title>Node16&#45;&gt;Node3</title>
<g id="a_edge22_Node000016_Node000003"><a xlink:title=" ">
<path fill="none" stroke="#63b8ff" d="M321.28,-165.48C326.35,-152.94 336.27,-129.47 346.76,-110.5 363.13,-80.9 385.36,-48.57 399.38,-28.94"/>
<polygon fill="#63b8ff" stroke="#63b8ff" points="402.17,-31.07 405.18,-20.91 396.49,-26.97 402.17,-31.07"/>
</a>
</g>
</g>
<!-- Node16&#45;&gt;Node14 -->
<g id="edge23_Node000016_Node000014" class="edge">
<title>Node16&#45;&gt;Node14</title>
<g id="a_edge23_Node000016_Node000014"><a xlink:title=" ">
<path fill="none" stroke="#63b8ff" d="M305.15,-165.31C279.32,-146.76 220.18,-104.26 188.22,-81.29"/>
<polygon fill="#63b8ff" stroke="#63b8ff" points="190.63,-78.71 180.46,-75.72 186.54,-84.4 190.63,-78.71"/>
</a>
</g>
</g>
<!-- Node16&#45;&gt;Node15 -->
<g id="edge24_Node000016_Node000015" class="edge">
<title>Node16&#45;&gt;Node15</title>
<g id="a_edge24_Node000016_Node000015"><a xlink:title=" ">
<path fill="none" stroke="#63b8ff" d="M296.56,-165.34C276.8,-156.93 247.09,-144.27 224.51,-134.65"/>
<polygon fill="#63b8ff" stroke="#63b8ff" points="226.03,-131.49 215.46,-130.8 223.29,-137.93 226.03,-131.49"/>
</a>
</g>
</g>
<!-- Node17 -->
<g id="Node000017" class="node">
<title>Node17</title>
<g id="a_Node000017"><a xlink:href="_content_8h.html" target="_top" xlink:title=" ">
<polygon fill="white" stroke="#666666" points="442.14,-129.75 383.39,-129.75 383.39,-110.5 442.14,-110.5 442.14,-129.75"/>
<text text-anchor="middle" x="412.76" y="-116.25" font-family="Helvetica,sans-Serif" font-size="10.00">Content.h</text>
</a>
</g>
</g>
<!-- Node16&#45;&gt;Node17 -->
<g id="edge26_Node000016_Node000017" class="edge">
<title>Node16&#45;&gt;Node17</title>
<g id="a_edge26_Node000016_Node000017"><a xlink:title=" ">
<path fill="none" stroke="#63b8ff" d="M333.88,-165.34C348.34,-157.23 369.84,-145.18 386.74,-135.71"/>
<polygon fill="#63b8ff" stroke="#63b8ff" points="388.23,-138.89 395.25,-130.94 384.81,-132.78 388.23,-138.89"/>
</a>
</g>
</g>
<!-- Node17&#45;&gt;Node2 -->
<g id="edge27_Node000017_Node000002" class="edge">
<title>Node17&#45;&gt;Node2</title>
<g id="a_edge27_Node000017_Node000002"><a xlink:title=" ">
<path fill="none" stroke="#63b8ff" d="M442.33,-112.97C446.82,-112.1 451.41,-111.25 455.76,-110.5 546.12,-94.95 651.95,-80.52 713.66,-72.49"/>
<polygon fill="#63b8ff" stroke="#63b8ff" points="714.06,-75.96 723.53,-71.21 713.16,-69.02 714.06,-75.96"/>
</a>
</g>
</g>
<!-- Node17&#45;&gt;Node14 -->
<g id="edge28_Node000017_Node000014" class="edge">
<title>Node17&#45;&gt;Node14</title>
<g id="a_edge28_Node000017_Node000014"><a xlink:title=" ">
<path fill="none" stroke="#63b8ff" d="M383.09,-112.7C337.16,-102.76 249.13,-83.71 200.73,-73.23"/>
<polygon fill="#63b8ff" stroke="#63b8ff" points="201.6,-69.84 191.09,-71.14 200.12,-76.68 201.6,-69.84"/>
</a>
</g>
</g>
<!-- Node18&#45;&gt;Node2 -->
<g id="edge30_Node000018_Node000002" class="edge">
<title>Node18&#45;&gt;Node2</title>
<g id="a_edge30_Node000018_Node000002"><a xlink:title=" ">
<path fill="none" stroke="#63b8ff" d="M707.35,-220.67C718.38,-212.65 733.42,-199.89 741.76,-185 759.4,-153.49 764.18,-110.86 765.41,-86.07"/>
<polygon fill="#63b8ff" stroke="#63b8ff" points="768.9,-86.51 765.73,-76.4 761.9,-86.28 768.9,-86.51"/>
</a>
</g>
</g>
<!-- Node19 -->
<g id="Node000019" class="node">
<title>Node19</title>
<g id="a_Node000019"><a xlink:href="_service_8h.html" target="_top" xlink:title=" ">
<polygon fill="white" stroke="#666666" points="517.39,-185 460.14,-185 460.14,-165.75 517.39,-165.75 517.39,-185"/>
<text text-anchor="middle" x="488.76" y="-171.5" font-family="Helvetica,sans-Serif" font-size="10.00">Service.h</text>
</a>
</g>
</g>
<!-- Node18&#45;&gt;Node19 -->
<g id="edge31_Node000018_Node000019" class="edge">
<title>Node18&#45;&gt;Node19</title>
<g id="a_edge31_Node000018_Node000019"><a xlink:title=" ">
<path fill="none" stroke="#63b8ff" d="M658.99,-220.59C622.96,-211.23 566.73,-196.63 528.85,-186.79"/>
<polygon fill="#63b8ff" stroke="#63b8ff" points="529.76,-183.41 519.2,-184.28 528,-190.18 529.76,-183.41"/>
</a>
</g>
</g>
<!-- Node19&#45;&gt;Node2 -->
<g id="edge32_Node000019_Node000002" class="edge">
<title>Node19&#45;&gt;Node2</title>
<g id="a_edge32_Node000019_Node000002"><a xlink:title=" ">
<path fill="none" stroke="#63b8ff" d="M497.32,-165.43C511.19,-151.49 540.03,-124.71 569.76,-110.5 615.71,-88.54 672.97,-77.12 713.71,-71.35"/>
<polygon fill="#63b8ff" stroke="#63b8ff" points="714.05,-74.84 723.5,-70.04 713.12,-67.9 714.05,-74.84"/>
</a>
</g>
</g>
<!-- Node19&#45;&gt;Node14 -->
<g id="edge33_Node000019_Node000014" class="edge">
<title>Node19&#45;&gt;Node14</title>
<g id="a_edge33_Node000019_Node000014"><a xlink:title=" ">
<path fill="none" stroke="#63b8ff" d="M461.86,-165.31C403.4,-145.61 264.86,-98.93 200.59,-77.27"/>
<polygon fill="#63b8ff" stroke="#63b8ff" points="201.88,-74.02 191.29,-74.14 199.65,-80.65 201.88,-74.02"/>
</a>
</g>
</g>
<!-- Node19&#45;&gt;Node17 -->
<g id="edge34_Node000019_Node000017" class="edge">
<title>Node19&#45;&gt;Node17</title>
<g id="a_edge34_Node000019_Node000017"><a xlink:title=" ">
<path fill="none" stroke="#63b8ff" d="M475.87,-165.34C464.73,-157.54 448.39,-146.09 435.12,-136.79"/>
<polygon fill="#63b8ff" stroke="#63b8ff" points="437.15,-133.94 426.96,-131.07 433.14,-139.68 437.15,-133.94"/>
</a>
</g>
</g>
<!-- Node19&#45;&gt;Node20 -->
<g id="edge35_Node000019_Node000020" class="edge">
<title>Node19&#45;&gt;Node20</title>
<g id="a_edge35_Node000019_Node000020"><a xlink:title=" ">
<path fill="none" stroke="#63b8ff" d="M517.09,-165.34C544.44,-156.62 586.09,-143.34 616.6,-133.61"/>
<polygon fill="#63b8ff" stroke="#63b8ff" points="617.39,-137.03 625.85,-130.66 615.26,-130.37 617.39,-137.03"/>
</a>
</g>
</g>
<!-- Node20&#45;&gt;Node2 -->
<g id="edge36_Node000020_Node000002" class="edge">
<title>Node20&#45;&gt;Node2</title>
<g id="a_edge36_Node000020_Node000002"><a xlink:title=" ">
<path fill="none" stroke="#63b8ff" d="M674.42,-110.09C691.49,-101.83 717.01,-89.48 736.73,-79.93"/>
<polygon fill="#63b8ff" stroke="#63b8ff" points="738.17,-83.12 745.65,-75.61 735.12,-76.82 738.17,-83.12"/>
</a>
</g>
</g>
<!-- Node20&#45;&gt;Node14 -->
<g id="edge37_Node000020_Node000014" class="edge">
<title>Node20&#45;&gt;Node14</title>
<g id="a_edge37_Node000020_Node000014"><a xlink:title=" ">
<path fill="none" stroke="#63b8ff" d="M611.5,-114.31C515.06,-103.8 287.68,-79.04 201.07,-69.61"/>
<polygon fill="#63b8ff" stroke="#63b8ff" points="201.64,-66.15 191.32,-68.55 200.88,-73.11 201.64,-66.15"/>
</a>
</g>
</g>
<!-- Node21&#45;&gt;Node2 -->
<g id="edge39_Node000021_Node000002" class="edge">
<title>Node21&#45;&gt;Node2</title>
<g id="a_edge39_Node000021_Node000002"><a xlink:title=" ">
<path fill="none" stroke="#63b8ff" d="M853.34,-165.55C846.66,-152.68 833.12,-128.35 817.76,-110.5 808.71,-99.98 797.1,-89.77 787.15,-81.79"/>
<polygon fill="#63b8ff" stroke="#63b8ff" points="789.49,-79.17 779.45,-75.8 785.2,-84.7 789.49,-79.17"/>
</a>
</g>
</g>
<!-- Node21&#45;&gt;Node12 -->
<g id="edge41_Node000021_Node000012" class="edge">
<title>Node21&#45;&gt;Node12</title>
<g id="a_edge41_Node000021_Node000012"><a xlink:title=" ">
<path fill="none" stroke="#63b8ff" d="M865.36,-165.58C871.65,-158.3 880.78,-147.73 888.56,-138.73"/>
<polygon fill="#63b8ff" stroke="#63b8ff" points="891.12,-141.11 895.01,-131.25 885.83,-136.53 891.12,-141.11"/>
</a>
</g>
</g>
<!-- Node21&#45;&gt;Node17 -->
<g id="edge40_Node000021_Node000017" class="edge">
<title>Node21&#45;&gt;Node17</title>
<g id="a_edge40_Node000021_Node000017"><a xlink:title=" ">
<path fill="none" stroke="#63b8ff" d="M831.59,-171.24C757.15,-162.34 543.82,-136.81 453.72,-126.03"/>
<polygon fill="#63b8ff" stroke="#63b8ff" points="454.2,-122.56 443.85,-124.85 453.36,-129.51 454.2,-122.56"/>
</a>
</g>
</g>
<!-- Node22&#45;&gt;Node2 -->
<g id="edge44_Node000022_Node000002" class="edge">
<title>Node22&#45;&gt;Node2</title>
<g id="a_edge44_Node000022_Node000002"><a xlink:title=" ">
<path fill="none" stroke="#63b8ff" d="M481.09,-220.8C493.07,-212.08 511.61,-198.17 526.76,-185 562.46,-153.97 561.74,-134.06 602.76,-110.5 637.05,-90.81 680.41,-79.48 713.79,-73.17"/>
<polygon fill="#63b8ff" stroke="#63b8ff" points="713.98,-76.69 723.21,-71.48 712.75,-69.8 713.98,-76.69"/>
</a>
</g>
</g>
<!-- Node22&#45;&gt;Node14 -->
<g id="edge45_Node000022_Node000014" class="edge">
<title>Node22&#45;&gt;Node14</title>
<g id="a_edge45_Node000022_Node000014"><a xlink:title=" ">
<path fill="none" stroke="#63b8ff" d="M429.22,-222.4C426.03,-221.9 422.84,-221.42 419.76,-221 379.28,-215.45 81.21,-215.28 53.76,-185 31.52,-160.47 35.14,-137.88 53.76,-110.5 71.33,-84.67 106.38,-73.79 132.82,-69.21"/>
<polygon fill="#63b8ff" stroke="#63b8ff" points="133.03,-72.72 142.4,-67.78 132,-65.79 133.03,-72.72"/>
</a>
</g>
</g>
<!-- Node22&#45;&gt;Node16 -->
<g id="edge47_Node000022_Node000016" class="edge">
<title>Node22&#45;&gt;Node16</title>
<g id="a_edge47_Node000022_Node000016"><a xlink:title=" ">
<path fill="none" stroke="#63b8ff" d="M443.15,-220.59C417.71,-211.62 378.59,-197.83 350.82,-188.03"/>
<polygon fill="#63b8ff" stroke="#63b8ff" points="352.07,-184.76 341.48,-184.74 349.75,-191.37 352.07,-184.76"/>
</a>
</g>
</g>
<!-- Node22&#45;&gt;Node19 -->
<g id="edge46_Node000022_Node000019" class="edge">
<title>Node22&#45;&gt;Node19</title>
<g id="a_edge46_Node000022_Node000019"><a xlink:title=" ">
<path fill="none" stroke="#63b8ff" d="M472.06,-220.83C474.6,-214.09 478.19,-204.52 481.39,-195.99"/>
<polygon fill="#63b8ff" stroke="#63b8ff" points="484.62,-197.37 484.85,-186.78 478.06,-194.91 484.62,-197.37"/>
</a>
</g>
</g>
<!-- Node23&#45;&gt;Node2 -->
<g id="edge53_Node000023_Node000002" class="edge">
<title>Node23&#45;&gt;Node2</title>
<g id="a_edge53_Node000023_Node000002"><a xlink:title=" ">
<path fill="none" stroke="#63b8ff" d="M1043.71,-331.04C1099.16,-318.99 1171.76,-291.74 1171.76,-231.62 1171.76,-231.62 1171.76,-231.62 1171.76,-174.38 1171.76,-101.96 927.62,-76.61 817.98,-68.88"/>
<polygon fill="#63b8ff" stroke="#63b8ff" points="818.27,-65.39 808.06,-68.2 817.8,-72.37 818.27,-65.39"/>
</a>
</g>
</g>
<!-- Node23&#45;&gt;Node11 -->
<g id="edge54_Node000023_Node000011" class="edge">
<title>Node23&#45;&gt;Node11</title>
<g id="a_edge54_Node000023_Node000011"><a xlink:title=" ">
<path fill="none" stroke="#63b8ff" d="M980.11,-331.33C978.87,-324.74 977.13,-315.46 975.55,-307.07"/>
<polygon fill="#63b8ff" stroke="#63b8ff" points="979.01,-306.53 973.73,-297.35 972.13,-307.82 979.01,-306.53"/>
</a>
</g>
</g>
<!-- Node24 -->
<g id="Node000024" class="node">
<title>Node24</title>
<g id="a_Node000024"><a xlink:href="mock_software_serial_8h.html" target="_top" xlink:title=" ">
<polygon fill="white" stroke="#666666" points="1143.76,-185 1031.76,-185 1031.76,-165.75 1143.76,-165.75 1143.76,-185"/>
<text text-anchor="middle" x="1087.76" y="-171.5" font-family="Helvetica,sans-Serif" font-size="10.00">mockSoftwareSerial.h</text>
</a>
</g>
</g>
<!-- Node23&#45;&gt;Node24 -->
<g id="edge50_Node000023_Node000024" class="edge">
<title>Node23&#45;&gt;Node24</title>
<g id="a_edge50_Node000023_Node000024"><a xlink:title=" ">
<path fill="none" stroke="#63b8ff" d="M992.74,-331.03C1002.51,-322.55 1016.76,-309.18 1026.76,-295.5 1050.45,-263.1 1069.94,-220.19 1080.12,-195.7"/>
<polygon fill="#63b8ff" stroke="#63b8ff" points="1083.26,-197.27 1083.77,-186.69 1076.77,-194.64 1083.26,-197.27"/>
</a>
</g>
</g>
<!-- Node24&#45;&gt;Node2 -->
<g id="edge51_Node000024_Node000002" class="edge">
<title>Node24&#45;&gt;Node2</title>
<g id="a_edge51_Node000024_Node000002"><a xlink:title=" ">
<path fill="none" stroke="#63b8ff" d="M1081.08,-165.69C1069.73,-151.61 1045.22,-124.02 1017.76,-110.5 953.83,-79.03 871.11,-69.47 818.22,-66.73"/>
<polygon fill="#63b8ff" stroke="#63b8ff" points="818.41,-63.23 808.27,-66.28 818.1,-70.23 818.41,-63.23"/>
</a>
</g>
</g>
<!-- Node24&#45;&gt;Node20 -->
<g id="edge52_Node000024_Node000020" class="edge">
<title>Node24&#45;&gt;Node20</title>
<g id="a_edge52_Node000024_Node000020"><a xlink:title=" ">
<path fill="none" stroke="#63b8ff" d="M1031.28,-167.41C948.26,-157.18 794.17,-138.19 711.54,-128"/>
<polygon fill="#63b8ff" stroke="#63b8ff" points="711.98,-124.53 701.63,-126.78 711.13,-131.48 711.98,-124.53"/>
</a>
</g>
</g>
<!-- Node25&#45;&gt;Node2 -->
<g id="edge56_Node000025_Node000002" class="edge">
<title>Node25&#45;&gt;Node2</title>
<g id="a_edge56_Node000025_Node000002"><a xlink:title=" ">
<path fill="none" stroke="#63b8ff" d="M898.72,-220.55C922.68,-199.63 975.37,-147.02 946.76,-110.5 931,-90.38 865.76,-78.1 818.12,-71.64"/>
<polygon fill="#63b8ff" stroke="#63b8ff" points="818.6,-68.17 808.23,-70.36 817.7,-75.12 818.6,-68.17"/>
</a>
</g>
</g>
<!-- Node25&#45;&gt;Node21 -->
<g id="edge57_Node000025_Node000021" class="edge">
<title>Node25&#45;&gt;Node21</title>
<g id="a_edge57_Node000025_Node000021"><a xlink:title=" ">
<path fill="none" stroke="#63b8ff" d="M882.81,-220.83C878.88,-213.86 873.25,-203.87 868.32,-195.12"/>
<polygon fill="#63b8ff" stroke="#63b8ff" points="871.52,-193.67 863.57,-186.68 865.42,-197.11 871.52,-193.67"/>
</a>
</g>
</g>
<!-- Node26&#45;&gt;Node2 -->
<g id="edge59_Node000026_Node000002" class="edge">
<title>Node26&#45;&gt;Node2</title>
<g id="a_edge59_Node000026_Node000002"><a xlink:title=" ">
<path fill="none" stroke="#63b8ff" d="M374.88,-220.56C391.73,-208.01 423.27,-184.75 450.76,-165.75 487.52,-140.34 493.37,-127.34 534.76,-110.5 593.31,-86.69 665.48,-75.36 713.41,-70.12"/>
<polygon fill="#63b8ff" stroke="#63b8ff" points="713.66,-73.61 723.24,-69.1 712.94,-66.65 713.66,-73.61"/>
</a>
</g>
</g>
<!-- Node26&#45;&gt;Node14 -->
<g id="edge60_Node000026_Node000014" class="edge">
<title>Node26&#45;&gt;Node14</title>
<g id="a_edge60_Node000026_Node000014"><a xlink:title=" ">
<path fill="none" stroke="#63b8ff" d="M313.93,-226.87C223,-221.23 35.14,-207.03 15.76,-185 -6.11,-160.14 -4.06,-137.02 15.76,-110.5 42.52,-74.69 96.7,-66.42 132.35,-65.12"/>
<polygon fill="#63b8ff" stroke="#63b8ff" points="132.22,-68.62 142.16,-64.94 132.09,-61.62 132.22,-68.62"/>
</a>
</g>
</g>
<!-- Node26&#45;&gt;Node19 -->
<g id="edge61_Node000026_Node000019" class="edge">
<title>Node26&#45;&gt;Node19</title>
<g id="a_edge61_Node000026_Node000019"><a xlink:title=" ">
<path fill="none" stroke="#63b8ff" d="M384.14,-220.59C404.05,-212.18 434,-199.52 456.76,-189.9"/>
<polygon fill="#63b8ff" stroke="#63b8ff" points="458.04,-193.16 465.89,-186.04 455.31,-186.71 458.04,-193.16"/>
</a>
</g>
</g>
<!-- Node27 -->
<g id="Node000027" class="node">
<title>Node27</title>
<g id="a_Node000027"><a xlink:href="_message_8h.html" target="_top" xlink:title=" ">
<polygon fill="white" stroke="#666666" points="191.76,-185 127.76,-185 127.76,-165.75 191.76,-165.75 191.76,-185"/>
<text text-anchor="middle" x="159.76" y="-171.5" font-family="Helvetica,sans-Serif" font-size="10.00">Message.h</text>
</a>
</g>
</g>
<!-- Node26&#45;&gt;Node27 -->
<g id="edge62_Node000026_Node000027" class="edge">
<title>Node26&#45;&gt;Node27</title>
<g id="a_edge62_Node000026_Node000027"><a xlink:title=" ">
<path fill="none" stroke="#63b8ff" d="M328.33,-220.59C293.78,-211.53 240.47,-197.55 203.07,-187.74"/>
<polygon fill="#63b8ff" stroke="#63b8ff" points="204.04,-184.37 193.48,-185.22 202.27,-191.14 204.04,-184.37"/>
</a>
</g>
</g>
<!-- Node27&#45;&gt;Node2 -->
<g id="edge66_Node000027_Node000002" class="edge">
<title>Node27&#45;&gt;Node2</title>
<g id="a_edge66_Node000027_Node000002"><a xlink:title=" ">
<path fill="none" stroke="#63b8ff" d="M156.96,-165.53C153.2,-151.73 148.51,-125.14 162.76,-110.5 200.77,-71.45 573.9,-66.39 713.45,-65.87"/>
<polygon fill="#63b8ff" stroke="#63b8ff" points="713.15,-69.37 723.14,-65.84 713.13,-62.37 713.15,-69.37"/>
</a>
</g>
</g>
<!-- Node27&#45;&gt;Node3 -->
<g id="edge63_Node000027_Node000003" class="edge">
<title>Node27&#45;&gt;Node3</title>
<g id="a_edge63_Node000027_Node000003"><a xlink:title=" ">
<path fill="none" stroke="#63b8ff" d="M149.26,-165.33C140.55,-157.07 128.8,-144.02 123.76,-129.75 116.37,-108.82 129.48,-60.34 134.76,-55.25 168.3,-22.94 305.95,-14 374.13,-11.55"/>
<polygon fill="#63b8ff" stroke="#63b8ff" points="374.22,-15.05 384.1,-11.22 374,-8.05 374.22,-15.05"/>
</a>
</g>
</g>
<!-- Node27&#45;&gt;Node14 -->
<g id="edge64_Node000027_Node000014" class="edge">
<title>Node27&#45;&gt;Node14</title>
<g id="a_edge64_Node000027_Node000014"><a xlink:title=" ">
<path fill="none" stroke="#63b8ff" d="M150.66,-165.5C139.37,-153.37 122.45,-130.78 129.76,-110.5 133.49,-100.16 140.78,-90.51 147.9,-82.86"/>
<polygon fill="#63b8ff" stroke="#63b8ff" points="150.26,-85.45 154.9,-75.93 145.33,-80.48 150.26,-85.45"/>
</a>
</g>
</g>
<!-- Node27&#45;&gt;Node15 -->
<g id="edge65_Node000027_Node000015" class="edge">
<title>Node27&#45;&gt;Node15</title>
<g id="a_edge65_Node000027_Node000015"><a xlink:title=" ">
<path fill="none" stroke="#63b8ff" d="M165.21,-165.58C169.53,-158.61 175.72,-148.62 181.14,-139.87"/>
<polygon fill="#63b8ff" stroke="#63b8ff" points="184.1,-141.74 186.4,-131.4 178.15,-138.05 184.1,-141.74"/>
</a>
</g>
</g>
<!-- Node27&#45;&gt;Node17 -->
<g id="edge67_Node000027_Node000017" class="edge">
<title>Node27&#45;&gt;Node17</title>
<g id="a_edge67_Node000027_Node000017"><a xlink:title=" ">
<path fill="none" stroke="#63b8ff" d="M192.06,-167.58C237.91,-157.93 321.85,-140.26 371.95,-129.71"/>
<polygon fill="#63b8ff" stroke="#63b8ff" points="372.47,-133.18 381.53,-127.7 371.02,-126.33 372.47,-133.18"/>
</a>
</g>
</g>
</g>
</svg>
