<?xml version="1.0" encoding="UTF-8" standalone="no"?>
<!DOCTYPE svg PUBLIC "-//W3C//DTD SVG 1.1//EN"
 "http://www.w3.org/Graphics/SVG/1.1/DTD/svg11.dtd">
<!-- Generated by graphviz version 12.1.2 (20240928.0832)
 -->
<!-- Title: /Users/felixschulke/Developement/Arduino/Modbus_RTU/Modbus_RTU/Modbus&#45;RTU/src/main.cpp Pages: 1 -->
<svg width="1230pt" height="503pt"
 viewBox="0.00 0.00 1229.69 503.00" xmlns="http://www.w3.org/2000/svg" xmlns:xlink="http://www.w3.org/1999/xlink">
<g id="graph0" class="graph" transform="scale(1 1) rotate(0) translate(4 499)">
<title>/Users/felixschulke/Developement/Arduino/Modbus_RTU/Modbus_RTU/Modbus&#45;RTU/src/main.cpp</title>
<!-- Node1 -->
<g id="Node000001" class="node">
<title>Node1</title>
<g id="a_Node000001"><a xlink:title="This main is an example&#45;implementation of a simple modbus&#45;messenger to demonstrate the usage of a lay...">
<polygon fill="#999999" stroke="#666666" points="742.44,-495 598.94,-495 598.94,-442 742.44,-442 742.44,-495"/>
<text text-anchor="start" x="606.94" y="-481.5" font-family="Helvetica,sans-Serif" font-size="10.00">/Users/felixschulke</text>
<text text-anchor="start" x="606.94" y="-470.25" font-family="Helvetica,sans-Serif" font-size="10.00">/Developement/Arduino</text>
<text text-anchor="start" x="606.94" y="-459" font-family="Helvetica,sans-Serif" font-size="10.00">/Modbus_RTU/Modbus_RTU</text>
<text text-anchor="middle" x="670.69" y="-447.75" font-family="Helvetica,sans-Serif" font-size="10.00">/Modbus&#45;RTU/src/main.cpp</text>
</a>
</g>
</g>
<!-- Node2 -->
<g id="Node000002" class="node">
<title>Node2</title>
<g id="a_Node000002"><a xlink:href="mock_arduino_8h.html" target="_top" xlink:title=" ">
<polygon fill="white" stroke="#666666" points="810.31,-74.5 729.06,-74.5 729.06,-55.25 810.31,-55.25 810.31,-74.5"/>
<text text-anchor="middle" x="769.69" y="-61" font-family="Helvetica,sans-Serif" font-size="10.00">mockArduino.h</text>
</a>
</g>
</g>
<!-- Node1&#45;&gt;Node2 -->
<g id="edge1_Node000001_Node000002" class="edge">
<title>Node1&#45;&gt;Node2</title>
<g id="a_edge1_Node000001_Node000002"><a xlink:title=" ">
<path fill="none" stroke="#63b8ff" d="M742.72,-466.07C892.08,-461.13 1221.69,-439.25 1221.69,-342.12 1221.69,-342.12 1221.69,-342.12 1221.69,-174.38 1221.69,-92.96 940.88,-72.48 821.93,-67.46"/>
<polygon fill="#63b8ff" stroke="#63b8ff" points="822.24,-63.97 812.11,-67.07 821.96,-70.96 822.24,-63.97"/>
</a>
</g>
</g>
<!-- Node9 -->
<g id="Node000009" class="node">
<title>Node9</title>
<g id="a_Node000009"><a xlink:href="_service_interface__modbus_r_t_u_8h.html" target="_top" xlink:title=" ">
<polygon fill="white" stroke="#666666" points="872.81,-406 716.56,-406 716.56,-386.75 872.81,-386.75 872.81,-406"/>
<text text-anchor="middle" x="794.69" y="-392.5" font-family="Helvetica,sans-Serif" font-size="10.00">ServiceInterface_modbusRTU.h</text>
</a>
</g>
</g>
<!-- Node1&#45;&gt;Node9 -->
<g id="edge8_Node000001_Node000009" class="edge">
<title>Node1&#45;&gt;Node9</title>
<g id="a_edge8_Node000001_Node000009"><a xlink:title=" ">
<path fill="none" stroke="#63b8ff" d="M716.51,-441.59C734.22,-431.57 753.83,-420.48 768.98,-411.92"/>
<polygon fill="#63b8ff" stroke="#63b8ff" points="770.38,-415.15 777.36,-407.18 766.93,-409.05 770.38,-415.15"/>
</a>
</g>
</g>
<!-- Node22 -->
<g id="Node000022" class="node">
<title>Node22</title>
<g id="a_Node000022"><a xlink:href="_error_service_8h.html" target="_top" xlink:title=" ">
<polygon fill="white" stroke="#666666" points="572.81,-240.25 494.56,-240.25 494.56,-221 572.81,-221 572.81,-240.25"/>
<text text-anchor="middle" x="533.69" y="-226.75" font-family="Helvetica,sans-Serif" font-size="10.00">ErrorService.h</text>
</a>
</g>
</g>
<!-- Node1&#45;&gt;Node22 -->
<g id="edge72_Node000001_Node000022" class="edge">
<title>Node1&#45;&gt;Node22</title>
<g id="a_edge72_Node000001_Node000022"><a xlink:title=" ">
<path fill="none" stroke="#63b8ff" d="M649.38,-441.72C631.05,-418.77 604.64,-383.81 585.69,-350.75 566.49,-317.25 549.73,-275.32 540.72,-251.19"/>
<polygon fill="#63b8ff" stroke="#63b8ff" points="544.09,-250.22 537.36,-242.03 537.52,-252.63 544.09,-250.22"/>
</a>
</g>
</g>
<!-- Node23 -->
<g id="Node000023" class="node">
<title>Node23</title>
<g id="a_Node000023"><a xlink:href="_comm_interface__modbus_r_t_u_8h.html" target="_top" xlink:title=" ">
<polygon fill="white" stroke="#666666" points="746.94,-350.75 594.44,-350.75 594.44,-331.5 746.94,-331.5 746.94,-350.75"/>
<text text-anchor="middle" x="670.69" y="-337.25" font-family="Helvetica,sans-Serif" font-size="10.00">CommInterface_modbusRTU.h</text>
</a>
</g>
</g>
<!-- Node1&#45;&gt;Node23 -->
<g id="edge70_Node000001_Node000023" class="edge">
<title>Node1&#45;&gt;Node23</title>
<g id="a_edge70_Node000001_Node000023"><a xlink:title=" ">
<path fill="none" stroke="#63b8ff" d="M670.69,-441.52C670.69,-418.01 670.69,-383.86 670.69,-362.33"/>
<polygon fill="#63b8ff" stroke="#63b8ff" points="674.19,-362.54 670.69,-352.54 667.19,-362.54 674.19,-362.54"/>
</a>
</g>
</g>
<!-- Node26 -->
<g id="Node000026" class="node">
<title>Node26</title>
<g id="a_Node000026"><a xlink:href="_message_service_8h.html" target="_top" xlink:title=" ">
<polygon fill="white" stroke="#666666" points="345.19,-240.25 248.19,-240.25 248.19,-221 345.19,-221 345.19,-240.25"/>
<text text-anchor="middle" x="296.69" y="-226.75" font-family="Helvetica,sans-Serif" font-size="10.00">MessageService.h</text>
</a>
</g>
</g>
<!-- Node1&#45;&gt;Node26 -->
<g id="edge71_Node000001_Node000026" class="edge">
<title>Node1&#45;&gt;Node26</title>
<g id="a_edge71_Node000001_Node000026"><a xlink:title=" ">
<path fill="none" stroke="#63b8ff" d="M628.03,-441.71C573.23,-408.44 475.32,-348.53 392.69,-295.5 367.41,-279.28 338.79,-260.13 319.42,-247.06"/>
<polygon fill="#63b8ff" stroke="#63b8ff" points="321.45,-244.2 311.21,-241.5 317.53,-250 321.45,-244.2"/>
</a>
</g>
</g>
<!-- Node3 -->
<g id="Node000003" class="node">
<title>Node3</title>
<g id="a_Node000003"><a xlink:title=" ">
<polygon fill="#e0e0e0" stroke="#999999" points="602.44,-19.25 548.94,-19.25 548.94,0 602.44,0 602.44,-19.25"/>
<text text-anchor="middle" x="575.69" y="-5.75" font-family="Helvetica,sans-Serif" font-size="10.00">iostream</text>
</a>
</g>
</g>
<!-- Node2&#45;&gt;Node3 -->
<g id="edge2_Node000002_Node000003" class="edge">
<title>Node2&#45;&gt;Node3</title>
<g id="a_edge2_Node000002_Node000003"><a xlink:title=" ">
<path fill="none" stroke="#63b8ff" d="M736.78,-54.84C702.74,-45.5 649.63,-30.92 613.79,-21.08"/>
<polygon fill="#63b8ff" stroke="#63b8ff" points="614.83,-17.74 604.26,-18.47 612.98,-24.49 614.83,-17.74"/>
</a>
</g>
</g>
<!-- Node4 -->
<g id="Node000004" class="node">
<title>Node4</title>
<g id="a_Node000004"><a xlink:title=" ">
<polygon fill="#e0e0e0" stroke="#999999" points="928.69,-19.25 888.69,-19.25 888.69,0 928.69,0 928.69,-19.25"/>
<text text-anchor="middle" x="908.69" y="-5.75" font-family="Helvetica,sans-Serif" font-size="10.00">string</text>
</a>
</g>
</g>
<!-- Node2&#45;&gt;Node4 -->
<g id="edge3_Node000002_Node000004" class="edge">
<title>Node2&#45;&gt;Node4</title>
<g id="a_edge3_Node000002_Node000004"><a xlink:title=" ">
<path fill="none" stroke="#63b8ff" d="M793.27,-54.84C816.61,-45.9 852.47,-32.16 878.02,-22.37"/>
<polygon fill="#63b8ff" stroke="#63b8ff" points="879.11,-25.7 887.2,-18.86 876.61,-19.17 879.11,-25.7"/>
</a>
</g>
</g>
<!-- Node5 -->
<g id="Node000005" class="node">
<title>Node5</title>
<g id="a_Node000005"><a xlink:title=" ">
<polygon fill="#e0e0e0" stroke="#999999" points="671.31,-19.25 620.06,-19.25 620.06,0 671.31,0 671.31,-19.25"/>
<text text-anchor="middle" x="645.69" y="-5.75" font-family="Helvetica,sans-Serif" font-size="10.00">sstream</text>
</a>
</g>
</g>
<!-- Node2&#45;&gt;Node5 -->
<g id="edge4_Node000002_Node000005" class="edge">
<title>Node2&#45;&gt;Node5</title>
<g id="a_edge4_Node000002_Node000005"><a xlink:title=" ">
<path fill="none" stroke="#63b8ff" d="M748.65,-54.84C729.06,-46.43 699.58,-33.77 677.18,-24.15"/>
<polygon fill="#63b8ff" stroke="#63b8ff" points="678.79,-21.03 668.22,-20.3 676.03,-27.46 678.79,-21.03"/>
</a>
</g>
</g>
<!-- Node6 -->
<g id="Node000006" class="node">
<title>Node6</title>
<g id="a_Node000006"><a xlink:title=" ">
<polygon fill="#e0e0e0" stroke="#999999" points="734.31,-19.25 689.06,-19.25 689.06,0 734.31,0 734.31,-19.25"/>
<text text-anchor="middle" x="711.69" y="-5.75" font-family="Helvetica,sans-Serif" font-size="10.00">chrono</text>
</a>
</g>
</g>
<!-- Node2&#45;&gt;Node6 -->
<g id="edge5_Node000002_Node000006" class="edge">
<title>Node2&#45;&gt;Node6</title>
<g id="a_edge5_Node000002_Node000006"><a xlink:title=" ">
<path fill="none" stroke="#63b8ff" d="M759.85,-54.84C751.63,-47.3 739.71,-36.35 729.78,-27.23"/>
<polygon fill="#63b8ff" stroke="#63b8ff" points="732.23,-24.73 722.5,-20.55 727.5,-29.89 732.23,-24.73"/>
</a>
</g>
</g>
<!-- Node7 -->
<g id="Node000007" class="node">
<title>Node7</title>
<g id="a_Node000007"><a xlink:title=" ">
<polygon fill="#e0e0e0" stroke="#999999" points="794.81,-19.25 752.56,-19.25 752.56,0 794.81,0 794.81,-19.25"/>
<text text-anchor="middle" x="773.69" y="-5.75" font-family="Helvetica,sans-Serif" font-size="10.00">queue</text>
</a>
</g>
</g>
<!-- Node2&#45;&gt;Node7 -->
<g id="edge6_Node000002_Node000007" class="edge">
<title>Node2&#45;&gt;Node7</title>
<g id="a_edge6_Node000002_Node000007"><a xlink:title=" ">
<path fill="none" stroke="#63b8ff" d="M770.35,-55.08C770.84,-48.49 771.54,-39.21 772.17,-30.82"/>
<polygon fill="#63b8ff" stroke="#63b8ff" points="775.64,-31.35 772.9,-21.12 768.66,-30.83 775.64,-31.35"/>
</a>
</g>
</g>
<!-- Node8 -->
<g id="Node000008" class="node">
<title>Node8</title>
<g id="a_Node000008"><a xlink:title=" ">
<polygon fill="#e0e0e0" stroke="#999999" points="870.69,-19.25 812.69,-19.25 812.69,0 870.69,0 870.69,-19.25"/>
<text text-anchor="middle" x="841.69" y="-5.75" font-family="Helvetica,sans-Serif" font-size="10.00">functional</text>
</a>
</g>
</g>
<!-- Node2&#45;&gt;Node8 -->
<g id="edge7_Node000002_Node000008" class="edge">
<title>Node2&#45;&gt;Node8</title>
<g id="a_edge7_Node000002_Node000008"><a xlink:title=" ">
<path fill="none" stroke="#63b8ff" d="M781.9,-54.84C792.52,-46.99 808.13,-35.45 820.73,-26.12"/>
<polygon fill="#63b8ff" stroke="#63b8ff" points="822.48,-29.19 828.44,-20.42 818.32,-23.56 822.48,-29.19"/>
</a>
</g>
</g>
<!-- Node9&#45;&gt;Node2 -->
<g id="edge9_Node000009_Node000002" class="edge">
<title>Node9&#45;&gt;Node2</title>
<g id="a_edge9_Node000009_Node000002"><a xlink:title=" ">
<path fill="none" stroke="#63b8ff" d="M872.94,-389.46C986.54,-378.68 1183.69,-350.77 1183.69,-286.88 1183.69,-286.88 1183.69,-286.88 1183.69,-174.38 1183.69,-100.37 933.02,-75.84 821.79,-68.6"/>
<polygon fill="#63b8ff" stroke="#63b8ff" points="822.23,-65.12 812.03,-67.99 821.79,-72.11 822.23,-65.12"/>
</a>
</g>
</g>
<!-- Node10 -->
<g id="Node000010" class="node">
<title>Node10</title>
<g id="a_Node000010"><a xlink:href="_service_interface_8h.html" target="_top" xlink:title=" ">
<polygon fill="white" stroke="#666666" points="860.44,-350.75 764.94,-350.75 764.94,-331.5 860.44,-331.5 860.44,-350.75"/>
<text text-anchor="middle" x="812.69" y="-337.25" font-family="Helvetica,sans-Serif" font-size="10.00">ServiceInterface.h</text>
</a>
</g>
</g>
<!-- Node9&#45;&gt;Node10 -->
<g id="edge10_Node000009_Node000010" class="edge">
<title>Node9&#45;&gt;Node10</title>
<g id="a_edge10_Node000009_Node000010"><a xlink:title=" ">
<path fill="none" stroke="#63b8ff" d="M797.66,-386.58C799.94,-379.84 803.17,-370.27 806.06,-361.74"/>
<polygon fill="#63b8ff" stroke="#63b8ff" points="809.28,-363.14 809.17,-352.54 802.65,-360.9 809.28,-363.14"/>
</a>
</g>
</g>
<!-- Node9&#45;&gt;Node23 -->
<g id="edge51_Node000009_Node000023" class="edge">
<title>Node9&#45;&gt;Node23</title>
<g id="a_edge51_Node000009_Node000023"><a xlink:title=" ">
<path fill="none" stroke="#63b8ff" d="M773.65,-386.34C754.06,-377.93 724.58,-365.27 702.18,-355.65"/>
<polygon fill="#63b8ff" stroke="#63b8ff" points="703.79,-352.53 693.22,-351.8 701.03,-358.96 703.79,-352.53"/>
</a>
</g>
</g>
<!-- Node25 -->
<g id="Node000025" class="node">
<title>Node25</title>
<g id="a_Node000025"><a xlink:href="_frame__modbus_r_t_u_8h.html" target="_top" xlink:title=" ">
<polygon fill="white" stroke="#666666" points="1156.06,-295.5 1043.31,-295.5 1043.31,-276.25 1156.06,-276.25 1156.06,-295.5"/>
<text text-anchor="middle" x="1099.69" y="-282" font-family="Helvetica,sans-Serif" font-size="10.00">Frame_modbusRTU.h</text>
</a>
</g>
</g>
<!-- Node9&#45;&gt;Node25 -->
<g id="edge57_Node000009_Node000025" class="edge">
<title>Node9&#45;&gt;Node25</title>
<g id="a_edge57_Node000009_Node000025"><a xlink:title=" ">
<path fill="none" stroke="#63b8ff" d="M820.17,-386.31C874.33,-367.04 1001.04,-321.97 1063.54,-299.74"/>
<polygon fill="#63b8ff" stroke="#63b8ff" points="1064.39,-303.15 1072.64,-296.5 1062.05,-296.55 1064.39,-303.15"/>
</a>
</g>
</g>
<!-- Node9&#45;&gt;Node26 -->
<g id="edge60_Node000009_Node000026" class="edge">
<title>Node9&#45;&gt;Node26</title>
<g id="a_edge60_Node000009_Node000026"><a xlink:title=" ">
<path fill="none" stroke="#63b8ff" d="M738.98,-386.31C696.47,-378.71 636.72,-366.57 585.69,-350.75 487.66,-320.35 376.74,-269.85 325.48,-245.54"/>
<polygon fill="#63b8ff" stroke="#63b8ff" points="327.09,-242.43 316.56,-241.29 324.08,-248.75 327.09,-242.43"/>
</a>
</g>
</g>
<!-- Node10&#45;&gt;Node2 -->
<g id="edge11_Node000010_Node000002" class="edge">
<title>Node10&#45;&gt;Node2</title>
<g id="a_edge11_Node000010_Node000002"><a xlink:title=" ">
<path fill="none" stroke="#63b8ff" d="M860.63,-335.87C895.87,-330.8 943.55,-319.72 978.69,-295.5 1009.63,-274.17 1022.54,-258.38 1018.69,-221 1013.55,-171.1 1031.34,-145.79 995.69,-110.5 971.64,-86.7 880.64,-74.86 821.7,-69.58"/>
<polygon fill="#63b8ff" stroke="#63b8ff" points="822.14,-66.1 811.88,-68.73 821.54,-73.08 822.14,-66.1"/>
</a>
</g>
</g>
<!-- Node11 -->
<g id="Node000011" class="node">
<title>Node11</title>
<g id="a_Node000011"><a xlink:href="_comm_interface_8h.html" target="_top" xlink:title=" ">
<polygon fill="white" stroke="#666666" points="843.56,-295.5 751.81,-295.5 751.81,-276.25 843.56,-276.25 843.56,-295.5"/>
<text text-anchor="middle" x="797.69" y="-282" font-family="Helvetica,sans-Serif" font-size="10.00">CommInterface.h</text>
</a>
</g>
</g>
<!-- Node10&#45;&gt;Node11 -->
<g id="edge12_Node000010_Node000011" class="edge">
<title>Node10&#45;&gt;Node11</title>
<g id="a_edge12_Node000010_Node000011"><a xlink:title=" ">
<path fill="none" stroke="#63b8ff" d="M810.21,-331.33C808.33,-324.67 805.68,-315.24 803.3,-306.78"/>
<polygon fill="#63b8ff" stroke="#63b8ff" points="806.71,-305.99 800.63,-297.32 799.97,-307.89 806.71,-305.99"/>
</a>
</g>
</g>
<!-- Node13 -->
<g id="Node000013" class="node">
<title>Node13</title>
<g id="a_Node000013"><a xlink:href="_error_state_8h.html" target="_top" xlink:title=" ">
<polygon fill="white" stroke="#666666" points="757.94,-240.25 689.44,-240.25 689.44,-221 757.94,-221 757.94,-240.25"/>
<text text-anchor="middle" x="723.69" y="-226.75" font-family="Helvetica,sans-Serif" font-size="10.00">ErrorState.h</text>
</a>
</g>
</g>
<!-- Node10&#45;&gt;Node13 -->
<g id="edge50_Node000010_Node000013" class="edge">
<title>Node10&#45;&gt;Node13</title>
<g id="a_edge50_Node000010_Node000013"><a xlink:title=" ">
<path fill="none" stroke="#63b8ff" d="M790.41,-331.02C774.92,-323.61 754.93,-311.72 742.69,-295.5 733.08,-282.76 728.31,-265.21 725.95,-251.73"/>
<polygon fill="#63b8ff" stroke="#63b8ff" points="729.42,-251.25 724.57,-241.84 722.49,-252.23 729.42,-251.25"/>
</a>
</g>
</g>
<!-- Node18 -->
<g id="Node000018" class="node">
<title>Node18</title>
<g id="a_Node000018"><a xlink:href="_service_cluster_8h.html" target="_top" xlink:title=" ">
<polygon fill="white" stroke="#666666" points="949.69,-295.5 861.69,-295.5 861.69,-276.25 949.69,-276.25 949.69,-295.5"/>
<text text-anchor="middle" x="905.69" y="-282" font-family="Helvetica,sans-Serif" font-size="10.00">ServiceCluster.h</text>
</a>
</g>
</g>
<!-- Node10&#45;&gt;Node18 -->
<g id="edge29_Node000010_Node000018" class="edge">
<title>Node10&#45;&gt;Node18</title>
<g id="a_edge29_Node000010_Node000018"><a xlink:title=" ">
<path fill="none" stroke="#63b8ff" d="M828.46,-331.09C842.63,-322.98 863.67,-310.93 880.22,-301.46"/>
<polygon fill="#63b8ff" stroke="#63b8ff" points="881.58,-304.71 888.52,-296.7 878.1,-298.64 881.58,-304.71"/>
</a>
</g>
</g>
<!-- Node20 -->
<g id="Node000020" class="node">
<title>Node20</title>
<g id="a_Node000020"><a xlink:href="_content__stack_8h.html" target="_top" xlink:title=" ">
<polygon fill="white" stroke="#666666" points="259.69,-129.75 171.69,-129.75 171.69,-110.5 259.69,-110.5 259.69,-129.75"/>
<text text-anchor="middle" x="215.69" y="-116.25" font-family="Helvetica,sans-Serif" font-size="10.00">Content_stack.h</text>
</a>
</g>
</g>
<!-- Node10&#45;&gt;Node20 -->
<g id="edge44_Node000010_Node000020" class="edge">
<title>Node10&#45;&gt;Node20</title>
<g id="a_edge44_Node000010_Node000020"><a xlink:title=" ">
<path fill="none" stroke="#63b8ff" d="M764.67,-332.51C628.35,-310.8 248.16,-249.55 238.69,-240.25 212.34,-214.38 211.29,-168.08 213.25,-141.46"/>
<polygon fill="#63b8ff" stroke="#63b8ff" points="216.72,-141.95 214.21,-131.65 209.75,-141.27 216.72,-141.95"/>
</a>
</g>
</g>
<!-- Node21 -->
<g id="Node000021" class="node">
<title>Node21</title>
<g id="a_Node000021"><a xlink:href="_frame_8h.html" target="_top" xlink:title=" ">
<polygon fill="white" stroke="#666666" points="1009.69,-240.25 957.69,-240.25 957.69,-221 1009.69,-221 1009.69,-240.25"/>
<text text-anchor="middle" x="983.69" y="-226.75" font-family="Helvetica,sans-Serif" font-size="10.00">Frame.h</text>
</a>
</g>
</g>
<!-- Node10&#45;&gt;Node21 -->
<g id="edge43_Node000010_Node000021" class="edge">
<title>Node10&#45;&gt;Node21</title>
<g id="a_edge43_Node000010_Node000021"><a xlink:title=" ">
<path fill="none" stroke="#63b8ff" d="M860.73,-336.16C892.11,-331.22 932.05,-320.18 958.69,-295.5 971.12,-283.98 977.46,-265.53 980.63,-251.41"/>
<polygon fill="#63b8ff" stroke="#63b8ff" points="984.02,-252.37 982.41,-241.9 977.13,-251.08 984.02,-252.37"/>
</a>
</g>
</g>
<!-- Node10&#45;&gt;Node22 -->
<g id="edge45_Node000010_Node000022" class="edge">
<title>Node10&#45;&gt;Node22</title>
<g id="a_edge45_Node000010_Node000022"><a xlink:title=" ">
<path fill="none" stroke="#63b8ff" d="M789.38,-331.06C740.15,-311.91 625.36,-267.28 567.83,-244.9"/>
<polygon fill="#63b8ff" stroke="#63b8ff" points="569.13,-241.65 558.54,-241.29 566.59,-248.17 569.13,-241.65"/>
</a>
</g>
</g>
<!-- Node11&#45;&gt;Node2 -->
<g id="edge13_Node000011_Node000002" class="edge">
<title>Node11&#45;&gt;Node2</title>
<g id="a_edge13_Node000011_Node000002"><a xlink:title=" ">
<path fill="none" stroke="#63b8ff" d="M801.71,-276.07C813.13,-249.68 843.37,-169.44 817.69,-110.5 812.64,-98.92 802.95,-88.99 793.59,-81.46"/>
<polygon fill="#63b8ff" stroke="#63b8ff" points="795.86,-78.79 785.73,-75.66 791.69,-84.42 795.86,-78.79"/>
</a>
</g>
</g>
<!-- Node12 -->
<g id="Node000012" class="node">
<title>Node12</title>
<g id="a_Node000012"><a xlink:href="_char_array_8h.html" target="_top" xlink:title=" ">
<polygon fill="white" stroke="#666666" points="933.19,-185 866.19,-185 866.19,-165.75 933.19,-165.75 933.19,-185"/>
<text text-anchor="middle" x="899.69" y="-171.5" font-family="Helvetica,sans-Serif" font-size="10.00">CharArray.h</text>
</a>
</g>
</g>
<!-- Node11&#45;&gt;Node12 -->
<g id="edge14_Node000011_Node000012" class="edge">
<title>Node11&#45;&gt;Node12</title>
<g id="a_edge14_Node000011_Node000012"><a xlink:title=" ">
<path fill="none" stroke="#63b8ff" d="M809.97,-276.05C821.4,-267.54 838.59,-253.97 851.69,-240.25 865.29,-226 878.58,-207.9 887.71,-194.61"/>
<polygon fill="#63b8ff" stroke="#63b8ff" points="890.55,-196.65 893.22,-186.4 884.74,-192.75 890.55,-196.65"/>
</a>
</g>
</g>
<!-- Node11&#45;&gt;Node13 -->
<g id="edge16_Node000011_Node000013" class="edge">
<title>Node11&#45;&gt;Node13</title>
<g id="a_edge16_Node000011_Node000013"><a xlink:title=" ">
<path fill="none" stroke="#63b8ff" d="M785.14,-275.84C774.23,-267.99 758.18,-256.45 745.23,-247.12"/>
<polygon fill="#63b8ff" stroke="#63b8ff" points="747.45,-244.41 737.29,-241.41 743.36,-250.09 747.45,-244.41"/>
</a>
</g>
</g>
<!-- Node12&#45;&gt;Node2 -->
<g id="edge15_Node000012_Node000002" class="edge">
<title>Node12&#45;&gt;Node2</title>
<g id="a_edge15_Node000012_Node000002"><a xlink:title=" ">
<path fill="none" stroke="#63b8ff" d="M895.39,-165.51C888.55,-152.16 874.06,-126.72 855.69,-110.5 840.9,-97.44 821.6,-86.98 805.04,-79.48"/>
<polygon fill="#63b8ff" stroke="#63b8ff" points="806.58,-76.33 796.01,-75.58 803.8,-82.76 806.58,-76.33"/>
</a>
</g>
</g>
<!-- Node13&#45;&gt;Node2 -->
<g id="edge20_Node000013_Node000002" class="edge">
<title>Node13&#45;&gt;Node2</title>
<g id="a_edge20_Node000013_Node000002"><a xlink:title=" ">
<path fill="none" stroke="#63b8ff" d="M726.59,-220.77C729.5,-211.79 734.06,-197.47 737.69,-185 747.78,-150.32 758.47,-109.62 764.58,-85.89"/>
<polygon fill="#63b8ff" stroke="#63b8ff" points="767.94,-86.9 767.03,-76.34 761.16,-85.16 767.94,-86.9"/>
</a>
</g>
</g>
<!-- Node13&#45;&gt;Node3 -->
<g id="edge17_Node000013_Node000003" class="edge">
<title>Node13&#45;&gt;Node3</title>
<g id="a_edge17_Node000013_Node000003"><a xlink:title=" ">
<path fill="none" stroke="#63b8ff" d="M717.7,-220.77C695.57,-188.02 618.11,-73.39 587.89,-28.68"/>
<polygon fill="#63b8ff" stroke="#63b8ff" points="590.93,-26.93 582.43,-20.61 585.13,-30.85 590.93,-26.93"/>
</a>
</g>
</g>
<!-- Node14 -->
<g id="Node000014" class="node">
<title>Node14</title>
<g id="a_Node000014"><a xlink:title=" ">
<polygon fill="#e0e0e0" stroke="#999999" points="202.31,-74.5 157.06,-74.5 157.06,-55.25 202.31,-55.25 202.31,-74.5"/>
<text text-anchor="middle" x="179.69" y="-61" font-family="Helvetica,sans-Serif" font-size="10.00">cstring</text>
</a>
</g>
</g>
<!-- Node13&#45;&gt;Node14 -->
<g id="edge18_Node000013_Node000014" class="edge">
<title>Node13&#45;&gt;Node14</title>
<g id="a_edge18_Node000013_Node000014"><a xlink:title=" ">
<path fill="none" stroke="#63b8ff" d="M688.96,-226.05C642.73,-220.59 558.9,-208.29 490.69,-185 472.77,-178.88 470.32,-172.66 452.69,-165.75 398.47,-144.49 381.52,-149.4 326.69,-129.75 284.88,-114.77 238.06,-93.64 208.73,-79.85"/>
<polygon fill="#63b8ff" stroke="#63b8ff" points="210.3,-76.72 199.76,-75.6 207.3,-83.05 210.3,-76.72"/>
</a>
</g>
</g>
<!-- Node15 -->
<g id="Node000015" class="node">
<title>Node15</title>
<g id="a_Node000015"><a xlink:title=" ">
<polygon fill="#e0e0e0" stroke="#999999" points="547.81,-129.75 505.56,-129.75 505.56,-110.5 547.81,-110.5 547.81,-129.75"/>
<text text-anchor="middle" x="526.69" y="-116.25" font-family="Helvetica,sans-Serif" font-size="10.00">cstdio</text>
</a>
</g>
</g>
<!-- Node13&#45;&gt;Node15 -->
<g id="edge19_Node000013_Node000015" class="edge">
<title>Node13&#45;&gt;Node15</title>
<g id="a_edge19_Node000013_Node000015"><a xlink:title=" ">
<path fill="none" stroke="#63b8ff" d="M707.23,-220.56C673.12,-201.77 594.44,-158.44 553.12,-135.68"/>
<polygon fill="#63b8ff" stroke="#63b8ff" points="555.01,-132.73 544.56,-130.97 551.63,-138.86 555.01,-132.73"/>
</a>
</g>
</g>
<!-- Node16 -->
<g id="Node000016" class="node">
<title>Node16</title>
<g id="a_Node000016"><a xlink:href="_error_8h.html" target="_top" xlink:title=" ">
<polygon fill="white" stroke="#666666" points="543.94,-185 499.44,-185 499.44,-165.75 543.94,-165.75 543.94,-185"/>
<text text-anchor="middle" x="521.69" y="-171.5" font-family="Helvetica,sans-Serif" font-size="10.00">Error.h</text>
</a>
</g>
</g>
<!-- Node13&#45;&gt;Node16 -->
<g id="edge21_Node000013_Node000016" class="edge">
<title>Node13&#45;&gt;Node16</title>
<g id="a_edge21_Node000013_Node000016"><a xlink:title=" ">
<path fill="none" stroke="#63b8ff" d="M689.42,-220.59C651.88,-210.7 592.08,-194.93 554.95,-185.14"/>
<polygon fill="#63b8ff" stroke="#63b8ff" points="556.23,-181.86 545.66,-182.7 554.44,-188.63 556.23,-181.86"/>
</a>
</g>
</g>
<!-- Node16&#45;&gt;Node2 -->
<g id="edge25_Node000016_Node000002" class="edge">
<title>Node16&#45;&gt;Node2</title>
<g id="a_edge25_Node000016_Node000002"><a xlink:title=" ">
<path fill="none" stroke="#63b8ff" d="M542.41,-165.31C585.9,-146.28 686.93,-102.08 738.37,-79.58"/>
<polygon fill="#63b8ff" stroke="#63b8ff" points="739.71,-82.81 747.47,-75.6 736.9,-76.4 739.71,-82.81"/>
</a>
</g>
</g>
<!-- Node16&#45;&gt;Node3 -->
<g id="edge22_Node000016_Node000003" class="edge">
<title>Node16&#45;&gt;Node3</title>
<g id="a_edge22_Node000016_Node000003"><a xlink:title=" ">
<path fill="none" stroke="#63b8ff" d="M531.04,-165.39C539.19,-156.97 550.62,-143.65 556.69,-129.75 570.89,-97.21 574.62,-55.53 575.51,-31.08"/>
<polygon fill="#63b8ff" stroke="#63b8ff" points="579.01,-31.31 575.73,-21.23 572.01,-31.15 579.01,-31.31"/>
</a>
</g>
</g>
<!-- Node16&#45;&gt;Node14 -->
<g id="edge23_Node000016_Node000014" class="edge">
<title>Node16&#45;&gt;Node14</title>
<g id="a_edge23_Node000016_Node000014"><a xlink:title=" ">
<path fill="none" stroke="#63b8ff" d="M498.98,-167.17C440.19,-148.52 282.76,-98.57 213.35,-76.55"/>
<polygon fill="#63b8ff" stroke="#63b8ff" points="214.64,-73.29 204.05,-73.6 212.53,-79.96 214.64,-73.29"/>
</a>
</g>
</g>
<!-- Node16&#45;&gt;Node15 -->
<g id="edge24_Node000016_Node000015" class="edge">
<title>Node16&#45;&gt;Node15</title>
<g id="a_edge24_Node000016_Node000015"><a xlink:title=" ">
<path fill="none" stroke="#63b8ff" d="M522.51,-165.58C523.13,-158.99 524.01,-149.71 524.79,-141.32"/>
<polygon fill="#63b8ff" stroke="#63b8ff" points="528.25,-141.9 525.7,-131.62 521.28,-141.25 528.25,-141.9"/>
</a>
</g>
</g>
<!-- Node17 -->
<g id="Node000017" class="node">
<title>Node17</title>
<g id="a_Node000017"><a xlink:href="_content_8h.html" target="_top" xlink:title=" ">
<polygon fill="white" stroke="#666666" points="450.06,-129.75 391.31,-129.75 391.31,-110.5 450.06,-110.5 450.06,-129.75"/>
<text text-anchor="middle" x="420.69" y="-116.25" font-family="Helvetica,sans-Serif" font-size="10.00">Content.h</text>
</a>
</g>
</g>
<!-- Node16&#45;&gt;Node17 -->
<g id="edge26_Node000016_Node000017" class="edge">
<title>Node16&#45;&gt;Node17</title>
<g id="a_edge26_Node000016_Node000017"><a xlink:title=" ">
<path fill="none" stroke="#63b8ff" d="M504.56,-165.34C489.03,-157.16 465.89,-144.96 447.84,-135.44"/>
<polygon fill="#63b8ff" stroke="#63b8ff" points="449.72,-132.48 439.24,-130.91 446.46,-138.67 449.72,-132.48"/>
</a>
</g>
</g>
<!-- Node17&#45;&gt;Node2 -->
<g id="edge27_Node000017_Node000002" class="edge">
<title>Node17&#45;&gt;Node2</title>
<g id="a_edge27_Node000017_Node000002"><a xlink:title=" ">
<path fill="none" stroke="#63b8ff" d="M450.26,-112.98C454.75,-112.11 459.34,-111.25 463.69,-110.5 552.65,-95.1 656.77,-80.68 717.75,-72.59"/>
<polygon fill="#63b8ff" stroke="#63b8ff" points="718.03,-76.09 727.49,-71.31 717.12,-69.15 718.03,-76.09"/>
</a>
</g>
</g>
<!-- Node17&#45;&gt;Node14 -->
<g id="edge28_Node000017_Node000014" class="edge">
<title>Node17&#45;&gt;Node14</title>
<g id="a_edge28_Node000017_Node000014"><a xlink:title=" ">
<path fill="none" stroke="#63b8ff" d="M391.14,-112.6C346.3,-102.69 261.28,-83.9 213.85,-73.42"/>
<polygon fill="#63b8ff" stroke="#63b8ff" points="214.64,-70.01 204.12,-71.27 213.13,-76.85 214.64,-70.01"/>
</a>
</g>
</g>
<!-- Node18&#45;&gt;Node2 -->
<g id="edge30_Node000018_Node000002" class="edge">
<title>Node18&#45;&gt;Node2</title>
<g id="a_edge30_Node000018_Node000002"><a xlink:title=" ">
<path fill="none" stroke="#63b8ff" d="M912.81,-275.92C927.99,-255.69 960.72,-205.13 942.69,-165.75 920.71,-117.74 863.69,-91.51 821.07,-78.14"/>
<polygon fill="#63b8ff" stroke="#63b8ff" points="822.34,-74.86 811.76,-75.36 820.34,-81.57 822.34,-74.86"/>
</a>
</g>
</g>
<!-- Node18&#45;&gt;Node13 -->
<g id="edge38_Node000018_Node000013" class="edge">
<title>Node18&#45;&gt;Node13</title>
<g id="a_edge38_Node000018_Node000013"><a xlink:title=" ">
<path fill="none" stroke="#63b8ff" d="M874.81,-275.84C844.75,-267.04 798.83,-253.61 765.49,-243.86"/>
<polygon fill="#63b8ff" stroke="#63b8ff" points="766.75,-240.58 756.17,-241.13 764.78,-247.29 766.75,-240.58"/>
</a>
</g>
</g>
<!-- Node19 -->
<g id="Node000019" class="node">
<title>Node19</title>
<g id="a_Node000019"><a xlink:href="_service_8h.html" target="_top" xlink:title=" ">
<polygon fill="white" stroke="#666666" points="313.31,-185 256.06,-185 256.06,-165.75 313.31,-165.75 313.31,-185"/>
<text text-anchor="middle" x="284.69" y="-171.5" font-family="Helvetica,sans-Serif" font-size="10.00">Service.h</text>
</a>
</g>
</g>
<!-- Node18&#45;&gt;Node19 -->
<g id="edge31_Node000018_Node000019" class="edge">
<title>Node18&#45;&gt;Node19</title>
<g id="a_edge31_Node000018_Node000019"><a xlink:title=" ">
<path fill="none" stroke="#63b8ff" d="M861.29,-276.05C775.78,-259.07 595.45,-223.31 581.69,-221 470.66,-202.35 438.98,-205.65 324.98,-185.27"/>
<polygon fill="#63b8ff" stroke="#63b8ff" points="325.64,-181.83 315.17,-183.49 324.39,-188.72 325.64,-181.83"/>
</a>
</g>
</g>
<!-- Node18&#45;&gt;Node21 -->
<g id="edge39_Node000018_Node000021" class="edge">
<title>Node18&#45;&gt;Node21</title>
<g id="a_edge39_Node000018_Node000021"><a xlink:title=" ">
<path fill="none" stroke="#63b8ff" d="M918.92,-275.84C930.46,-267.96 947.45,-256.36 961.14,-247.02"/>
<polygon fill="#63b8ff" stroke="#63b8ff" points="962.86,-250.08 969.14,-241.56 958.91,-244.3 962.86,-250.08"/>
</a>
</g>
</g>
<!-- Node19&#45;&gt;Node2 -->
<g id="edge32_Node000019_Node000002" class="edge">
<title>Node19&#45;&gt;Node2</title>
<g id="a_edge32_Node000019_Node000002"><a xlink:title=" ">
<path fill="none" stroke="#63b8ff" d="M294.97,-165.3C311.91,-150.93 347.35,-123.25 382.69,-110.5 443.03,-88.73 626.42,-74.72 717.38,-68.93"/>
<polygon fill="#63b8ff" stroke="#63b8ff" points="717.52,-72.42 727.28,-68.3 717.08,-65.44 717.52,-72.42"/>
</a>
</g>
</g>
<!-- Node19&#45;&gt;Node14 -->
<g id="edge33_Node000019_Node000014" class="edge">
<title>Node19&#45;&gt;Node14</title>
<g id="a_edge33_Node000019_Node000014"><a xlink:title=" ">
<path fill="none" stroke="#63b8ff" d="M255.62,-172.83C226.65,-169.55 183.56,-159.6 162.69,-129.75 153.35,-116.39 159.61,-98.19 167.03,-84.64"/>
<polygon fill="#63b8ff" stroke="#63b8ff" points="169.94,-86.59 172.17,-76.24 163.96,-82.94 169.94,-86.59"/>
</a>
</g>
</g>
<!-- Node19&#45;&gt;Node17 -->
<g id="edge34_Node000019_Node000017" class="edge">
<title>Node19&#45;&gt;Node17</title>
<g id="a_edge34_Node000019_Node000017"><a xlink:title=" ">
<path fill="none" stroke="#63b8ff" d="M307.76,-165.34C329.45,-156.85 362.17,-144.04 386.82,-134.39"/>
<polygon fill="#63b8ff" stroke="#63b8ff" points="388.06,-137.66 396.1,-130.75 385.51,-131.14 388.06,-137.66"/>
</a>
</g>
</g>
<!-- Node19&#45;&gt;Node20 -->
<g id="edge35_Node000019_Node000020" class="edge">
<title>Node19&#45;&gt;Node20</title>
<g id="a_edge35_Node000019_Node000020"><a xlink:title=" ">
<path fill="none" stroke="#63b8ff" d="M272.98,-165.34C262.91,-157.57 248.15,-146.17 236.13,-136.9"/>
<polygon fill="#63b8ff" stroke="#63b8ff" points="238.47,-134.29 228.42,-130.95 234.2,-139.83 238.47,-134.29"/>
</a>
</g>
</g>
<!-- Node20&#45;&gt;Node2 -->
<g id="edge36_Node000020_Node000002" class="edge">
<title>Node20&#45;&gt;Node2</title>
<g id="a_edge36_Node000020_Node000002"><a xlink:title=" ">
<path fill="none" stroke="#63b8ff" d="M260.09,-114.86C361.41,-105.12 609.27,-81.29 717.59,-70.88"/>
<polygon fill="#63b8ff" stroke="#63b8ff" points="717.74,-74.38 727.36,-69.94 717.07,-67.42 717.74,-74.38"/>
</a>
</g>
</g>
<!-- Node20&#45;&gt;Node14 -->
<g id="edge37_Node000020_Node000014" class="edge">
<title>Node20&#45;&gt;Node14</title>
<g id="a_edge37_Node000020_Node000014"><a xlink:title=" ">
<path fill="none" stroke="#63b8ff" d="M209.74,-110.33C204.98,-103.28 198.13,-93.15 192.17,-84.33"/>
<polygon fill="#63b8ff" stroke="#63b8ff" points="195.11,-82.44 186.61,-76.11 189.31,-86.36 195.11,-82.44"/>
</a>
</g>
</g>
<!-- Node21&#45;&gt;Node2 -->
<g id="edge40_Node000021_Node000002" class="edge">
<title>Node21&#45;&gt;Node2</title>
<g id="a_edge40_Node000021_Node000002"><a xlink:title=" ">
<path fill="none" stroke="#63b8ff" d="M986.34,-220.52C992.11,-198.59 1003.19,-142.35 975.69,-110.5 955.93,-87.62 875.85,-75.68 821.55,-70.1"/>
<polygon fill="#63b8ff" stroke="#63b8ff" points="822.19,-66.64 811.89,-69.15 821.5,-73.61 822.19,-66.64"/>
</a>
</g>
</g>
<!-- Node21&#45;&gt;Node12 -->
<g id="edge42_Node000021_Node000012" class="edge">
<title>Node21&#45;&gt;Node12</title>
<g id="a_edge42_Node000021_Node000012"><a xlink:title=" ">
<path fill="none" stroke="#63b8ff" d="M969.44,-220.59C956.89,-212.64 938.35,-200.89 923.55,-191.5"/>
<polygon fill="#63b8ff" stroke="#63b8ff" points="925.61,-188.66 915.29,-186.26 921.86,-194.57 925.61,-188.66"/>
</a>
</g>
</g>
<!-- Node21&#45;&gt;Node17 -->
<g id="edge41_Node000021_Node000017" class="edge">
<title>Node21&#45;&gt;Node17</title>
<g id="a_edge41_Node000021_Node000017"><a xlink:title=" ">
<path fill="none" stroke="#63b8ff" d="M957.29,-224.54C867.1,-207.16 570.73,-150.04 461.55,-129"/>
<polygon fill="#63b8ff" stroke="#63b8ff" points="462.35,-125.59 451.86,-127.13 461.02,-132.46 462.35,-125.59"/>
</a>
</g>
</g>
<!-- Node22&#45;&gt;Node2 -->
<g id="edge46_Node000022_Node000002" class="edge">
<title>Node22&#45;&gt;Node2</title>
<g id="a_edge46_Node000022_Node000002"><a xlink:title=" ">
<path fill="none" stroke="#63b8ff" d="M554.15,-220.51C572.68,-212.01 600.55,-198.63 623.69,-185 660.92,-163.07 670.27,-157.15 703.69,-129.75 721.72,-114.96 740.69,-96.23 753.64,-82.88"/>
<polygon fill="#63b8ff" stroke="#63b8ff" points="756.12,-85.35 760.51,-75.7 751.07,-80.5 756.12,-85.35"/>
</a>
</g>
</g>
<!-- Node22&#45;&gt;Node14 -->
<g id="edge47_Node000022_Node000014" class="edge">
<title>Node22&#45;&gt;Node14</title>
<g id="a_edge47_Node000022_Node000014"><a xlink:title=" ">
<path fill="none" stroke="#63b8ff" d="M494.21,-227.02C388.11,-219.83 103.86,-199.31 89.69,-185 66.34,-161.42 66.9,-138.51 84.69,-110.5 98.02,-89.51 124.14,-78.22 145.62,-72.25"/>
<polygon fill="#63b8ff" stroke="#63b8ff" points="146.31,-75.68 155.18,-69.88 144.63,-68.88 146.31,-75.68"/>
</a>
</g>
</g>
<!-- Node22&#45;&gt;Node16 -->
<g id="edge49_Node000022_Node000016" class="edge">
<title>Node22&#45;&gt;Node16</title>
<g id="a_edge49_Node000022_Node000016"><a xlink:title=" ">
<path fill="none" stroke="#63b8ff" d="M531.71,-220.83C530.22,-214.24 528.13,-204.96 526.24,-196.57"/>
<polygon fill="#63b8ff" stroke="#63b8ff" points="529.66,-195.82 524.05,-186.84 522.83,-197.36 529.66,-195.82"/>
</a>
</g>
</g>
<!-- Node22&#45;&gt;Node19 -->
<g id="edge48_Node000022_Node000019" class="edge">
<title>Node22&#45;&gt;Node19</title>
<g id="a_edge48_Node000022_Node000019"><a xlink:title=" ">
<path fill="none" stroke="#63b8ff" d="M494.37,-221.49C454.21,-213.14 389.74,-199.63 324.61,-185.4"/>
<polygon fill="#63b8ff" stroke="#63b8ff" points="325.72,-182.06 315.2,-183.34 324.22,-188.89 325.72,-182.06"/>
</a>
</g>
</g>
<!-- Node23&#45;&gt;Node2 -->
<g id="edge55_Node000023_Node000002" class="edge">
<title>Node23&#45;&gt;Node2</title>
<g id="a_edge55_Node000023_Node000002"><a xlink:title=" ">
<path fill="none" stroke="#63b8ff" d="M681.13,-331.06C704.03,-310.92 757.4,-262.44 766.69,-240.25 788.56,-187.99 780.06,-118.98 773.91,-85.61"/>
<polygon fill="#63b8ff" stroke="#63b8ff" points="777.41,-85.29 772.03,-76.17 770.55,-86.66 777.41,-85.29"/>
</a>
</g>
</g>
<!-- Node23&#45;&gt;Node11 -->
<g id="edge56_Node000023_Node000011" class="edge">
<title>Node23&#45;&gt;Node11</title>
<g id="a_edge56_Node000023_Node000011"><a xlink:title=" ">
<path fill="none" stroke="#63b8ff" d="M692.23,-331.09C712.3,-322.68 742.49,-310.02 765.44,-300.4"/>
<polygon fill="#63b8ff" stroke="#63b8ff" points="766.77,-303.63 774.64,-296.54 764.07,-297.18 766.77,-303.63"/>
</a>
</g>
</g>
<!-- Node24 -->
<g id="Node000024" class="node">
<title>Node24</title>
<g id="a_Node000024"><a xlink:href="mock_software_serial_8h.html" target="_top" xlink:title=" ">
<polygon fill="white" stroke="#666666" points="443.69,-185 331.69,-185 331.69,-165.75 443.69,-165.75 443.69,-185"/>
<text text-anchor="middle" x="387.69" y="-171.5" font-family="Helvetica,sans-Serif" font-size="10.00">mockSoftwareSerial.h</text>
</a>
</g>
</g>
<!-- Node23&#45;&gt;Node24 -->
<g id="edge52_Node000023_Node000024" class="edge">
<title>Node23&#45;&gt;Node24</title>
<g id="a_edge52_Node000023_Node000024"><a xlink:title=" ">
<path fill="none" stroke="#63b8ff" d="M652.82,-331.1C619.49,-314.14 545.77,-275.97 485.69,-240.25 459.23,-224.52 429.74,-205.02 410.09,-191.74"/>
<polygon fill="#63b8ff" stroke="#63b8ff" points="412.27,-188.99 402.04,-186.26 408.34,-194.77 412.27,-188.99"/>
</a>
</g>
</g>
<!-- Node24&#45;&gt;Node2 -->
<g id="edge53_Node000024_Node000002" class="edge">
<title>Node24&#45;&gt;Node2</title>
<g id="a_edge53_Node000024_Node000002"><a xlink:title=" ">
<path fill="none" stroke="#63b8ff" d="M401.39,-165.49C426.01,-149.66 476.98,-117.6 496.69,-110.5 570.5,-83.89 661.29,-73.07 717.33,-68.72"/>
<polygon fill="#63b8ff" stroke="#63b8ff" points="717.51,-72.22 727.23,-68 717,-65.24 717.51,-72.22"/>
</a>
</g>
</g>
<!-- Node24&#45;&gt;Node20 -->
<g id="edge54_Node000024_Node000020" class="edge">
<title>Node24&#45;&gt;Node20</title>
<g id="a_edge54_Node000024_Node000020"><a xlink:title=" ">
<path fill="none" stroke="#63b8ff" d="M358.51,-165.34C330.22,-156.58 287.07,-143.23 255.61,-133.48"/>
<polygon fill="#63b8ff" stroke="#63b8ff" points="257.04,-130.26 246.46,-130.65 254.97,-136.95 257.04,-130.26"/>
</a>
</g>
</g>
<!-- Node25&#45;&gt;Node2 -->
<g id="edge58_Node000025_Node000002" class="edge">
<title>Node25&#45;&gt;Node2</title>
<g id="a_edge58_Node000025_Node000002"><a xlink:title=" ">
<path fill="none" stroke="#63b8ff" d="M1100.28,-275.95C1101.67,-247.05 1101.78,-155.29 1051.69,-110.5 1018.59,-80.9 893.69,-70.88 821.7,-67.52"/>
<polygon fill="#63b8ff" stroke="#63b8ff" points="822.28,-64.05 812.14,-67.11 821.98,-71.04 822.28,-64.05"/>
</a>
</g>
</g>
<!-- Node25&#45;&gt;Node21 -->
<g id="edge59_Node000025_Node000021" class="edge">
<title>Node25&#45;&gt;Node21</title>
<g id="a_edge59_Node000025_Node000021"><a xlink:title=" ">
<path fill="none" stroke="#63b8ff" d="M1080.01,-275.84C1061.85,-267.5 1034.6,-255 1013.72,-245.41"/>
<polygon fill="#63b8ff" stroke="#63b8ff" points="1015.39,-242.33 1004.84,-241.33 1012.47,-248.69 1015.39,-242.33"/>
</a>
</g>
</g>
<!-- Node26&#45;&gt;Node2 -->
<g id="edge61_Node000026_Node000002" class="edge">
<title>Node26&#45;&gt;Node2</title>
<g id="a_edge61_Node000026_Node000002"><a xlink:title=" ">
<path fill="none" stroke="#63b8ff" d="M345.42,-225.57C397.74,-220.2 482.78,-208.53 552.69,-185 603.41,-167.93 612.75,-155.47 659.69,-129.75 689.45,-113.44 723.11,-93.7 745.27,-80.52"/>
<polygon fill="#63b8ff" stroke="#63b8ff" points="746.78,-83.69 753.58,-75.56 743.2,-77.68 746.78,-83.69"/>
</a>
</g>
</g>
<!-- Node26&#45;&gt;Node14 -->
<g id="edge62_Node000026_Node000014" class="edge">
<title>Node26&#45;&gt;Node14</title>
<g id="a_edge62_Node000026_Node000014"><a xlink:title=" ">
<path fill="none" stroke="#63b8ff" d="M247.74,-229.18C175.3,-227.36 44.95,-219.28 15.69,-185 -5.81,-159.82 -4.42,-136.81 15.69,-110.5 31.36,-89.99 102.21,-76.67 145.5,-70.29"/>
<polygon fill="#63b8ff" stroke="#63b8ff" points="145.74,-73.8 155.15,-68.93 144.76,-66.86 145.74,-73.8"/>
</a>
</g>
</g>
<!-- Node26&#45;&gt;Node19 -->
<g id="edge63_Node000026_Node000019" class="edge">
<title>Node26&#45;&gt;Node19</title>
<g id="a_edge63_Node000026_Node000019"><a xlink:title=" ">
<path fill="none" stroke="#63b8ff" d="M294.71,-220.83C293.22,-214.24 291.13,-204.96 289.24,-196.57"/>
<polygon fill="#63b8ff" stroke="#63b8ff" points="292.66,-195.82 287.05,-186.84 285.83,-197.36 292.66,-195.82"/>
</a>
</g>
</g>
<!-- Node27 -->
<g id="Node000027" class="node">
<title>Node27</title>
<g id="a_Node000027"><a xlink:href="_message_8h.html" target="_top" xlink:title=" ">
<polygon fill="white" stroke="#666666" points="162.69,-185 98.69,-185 98.69,-165.75 162.69,-165.75 162.69,-185"/>
<text text-anchor="middle" x="130.69" y="-171.5" font-family="Helvetica,sans-Serif" font-size="10.00">Message.h</text>
</a>
</g>
</g>
<!-- Node26&#45;&gt;Node27 -->
<g id="edge64_Node000026_Node000027" class="edge">
<title>Node26&#45;&gt;Node27</title>
<g id="a_edge64_Node000026_Node000027"><a xlink:title=" ">
<path fill="none" stroke="#63b8ff" d="M268.53,-220.59C241.34,-211.87 199.95,-198.59 169.61,-188.86"/>
<polygon fill="#63b8ff" stroke="#63b8ff" points="171.02,-185.64 160.43,-185.91 168.88,-192.3 171.02,-185.64"/>
</a>
</g>
</g>
<!-- Node27&#45;&gt;Node2 -->
<g id="edge68_Node000027_Node000002" class="edge">
<title>Node27&#45;&gt;Node2</title>
<g id="a_edge68_Node000027_Node000002"><a xlink:title=" ">
<path fill="none" stroke="#63b8ff" d="M132.26,-165.54C135.31,-151.24 143.52,-123.33 162.69,-110.5 208.28,-79.99 579.32,-69.61 717.81,-66.78"/>
<polygon fill="#63b8ff" stroke="#63b8ff" points="717.49,-70.29 727.42,-66.59 717.35,-63.29 717.49,-70.29"/>
</a>
</g>
</g>
<!-- Node27&#45;&gt;Node3 -->
<g id="edge65_Node000027_Node000003" class="edge">
<title>Node27&#45;&gt;Node3</title>
<g id="a_edge65_Node000027_Node000003"><a xlink:title=" ">
<path fill="none" stroke="#63b8ff" d="M116.24,-165.38C99.37,-153.63 74.93,-132.03 84.69,-110.5 100.06,-76.58 113.56,-70.16 147.69,-55.25 217.14,-24.91 445.34,-14.63 537.04,-11.67"/>
<polygon fill="#63b8ff" stroke="#63b8ff" points="537.14,-15.17 547.02,-11.36 536.92,-8.17 537.14,-15.17"/>
</a>
</g>
</g>
<!-- Node27&#45;&gt;Node14 -->
<g id="edge66_Node000027_Node000014" class="edge">
<title>Node27&#45;&gt;Node14</title>
<g id="a_edge66_Node000027_Node000014"><a xlink:title=" ">
<path fill="none" stroke="#63b8ff" d="M118.14,-165.27C102.64,-152.87 79.72,-129.99 91.69,-110.5 103.45,-91.34 126.28,-80.1 145.74,-73.69"/>
<polygon fill="#63b8ff" stroke="#63b8ff" points="146.65,-77.07 155.25,-70.88 144.67,-70.36 146.65,-77.07"/>
</a>
</g>
</g>
<!-- Node27&#45;&gt;Node15 -->
<g id="edge67_Node000027_Node000015" class="edge">
<title>Node27&#45;&gt;Node15</title>
<g id="a_edge67_Node000027_Node000015"><a xlink:title=" ">
<path fill="none" stroke="#63b8ff" d="M163.1,-170.02C237.44,-160.02 419.57,-135.53 494.1,-125.51"/>
<polygon fill="#63b8ff" stroke="#63b8ff" points="494.15,-129.03 503.6,-124.23 493.22,-122.09 494.15,-129.03"/>
</a>
</g>
</g>
<!-- Node27&#45;&gt;Node17 -->
<g id="edge69_Node000027_Node000017" class="edge">
<title>Node27&#45;&gt;Node17</title>
<g id="a_edge69_Node000027_Node000017"><a xlink:title=" ">
<path fill="none" stroke="#63b8ff" d="M163.11,-168.42C216.21,-158.67 321.61,-139.32 379.77,-128.64"/>
<polygon fill="#63b8ff" stroke="#63b8ff" points="380.39,-132.08 389.6,-126.83 379.13,-125.2 380.39,-132.08"/>
</a>
</g>
</g>
</g>
</svg>
